<svg width="1426" height="1201" viewBox="0 0 1426 1201" fill="none" xmlns="http://www.w3.org/2000/svg">
<path d="M780.744 1038.9C781.449 1041.38 782.363 1043.63 783.381 1045.59C784.974 1048.8 786.75 1051.28 788.03 1053.11C788.657 1054 789.388 1054.78 790.25 1055.46C798.973 1062.35 819.657 1058.54 840.341 1035.45C863.088 1010.12 897.039 981.916 900.382 966.22C900.46 965.75 900.565 965.28 900.617 964.836C900.617 964.809 900.643 964.783 900.617 964.757C901.113 961.493 900.8 958.437 899.833 955.564C897.848 949.61 893.148 944.439 887.193 939.503C887.167 939.503 887.167 939.503 887.167 939.503C883.015 936.003 878.235 932.66 873.352 929.239C857.734 918.297 836.789 911.454 836.789 911.454C836.789 911.454 807.121 914.457 800.357 945.092C800.357 945.092 794.742 986.355 784.087 1009.55C778.445 1021.85 778.654 1031.56 780.744 1038.9Z" fill="#000A1D"/>
<path d="M822.738 958.959C822.738 958.959 818.22 1000.85 802.524 1023.6" stroke="#262424" stroke-width="1.5" stroke-miterlimit="10" stroke-linecap="round" stroke-linejoin="round"/>
<path d="M783.355 1045.59C784.948 1048.8 786.724 1051.28 788.004 1053.11C788.631 1054 789.362 1054.78 790.224 1055.46C798.947 1062.35 819.631 1058.54 840.315 1035.45C863.062 1010.12 897.013 981.916 900.356 966.22C900.434 965.75 900.538 965.28 900.591 964.836C900.591 964.81 900.617 964.783 900.591 964.757C901.087 961.493 900.773 958.437 899.807 955.564C897.822 949.61 893.121 944.439 887.167 939.503C887.141 939.503 887.141 939.503 887.141 939.503C887.141 939.503 892.103 948.879 887.141 963.164C882.205 977.45 856.637 992.519 840.08 1015.89C823.548 1039.32 797.275 1053.08 783.355 1045.59Z" fill="white" stroke="#262424" stroke-width="1.5" stroke-miterlimit="10" stroke-linecap="round" stroke-linejoin="round"/>
<path d="M822.738 1034.44C822.738 1034.44 788.239 1035.71 788.213 999.048C788.213 999.048 771.551 1029.19 783.355 1045.59C783.355 1045.59 800.435 1059.32 822.738 1034.44Z" fill="white" stroke="#262424" stroke-width="1.5" stroke-miterlimit="10" stroke-linecap="round" stroke-linejoin="round"/>
<path d="M771.42 920.412L816.549 945.275C825.402 950.211 838.669 932.974 831.696 922.815L787.038 891.397L771.42 920.412Z" fill="white" stroke="#262424" stroke-width="1.5" stroke-miterlimit="10" stroke-linecap="round" stroke-linejoin="round"/>
<path d="M779.647 949.95L604.878 854.939C567.166 836.187 559.462 804.691 579.884 776.956C595.45 753.425 635.433 756.716 657.737 773.979C740.316 837.911 815.217 895.837 815.217 895.837C822.921 921.953 807.617 946.137 779.647 949.95Z" fill="#FFD6DD"/>
<path d="M796.309 905.839L631.908 787.089L637.053 763.428" stroke="#262424" stroke-width="1.5" stroke-miterlimit="10" stroke-linecap="round" stroke-linejoin="round"/>
<path d="M774.45 939.529C797.902 937.153 809.132 923.337 803.334 893.591" stroke="#262424" stroke-width="1.5" stroke-miterlimit="10" stroke-linecap="round" stroke-linejoin="round"/>
<path d="M589.078 837.489C573.353 826.006 567.114 807.784 575.143 796.788C583.172 785.791 602.429 786.186 618.155 797.668C633.88 809.151 640.119 827.373 632.09 838.37C624.06 849.366 604.803 848.971 589.078 837.489Z" fill="white"/>
<path d="M151.501 656.926C137.92 550.033 123.113 487.197 170.148 455.179C232.383 412.792 288.793 475.549 297.412 555.778C306.03 636.007 293.312 828.196 293.312 828.196C294.617 891.24 230.189 919.655 200.547 888.942C196.943 883.719 194.305 877.817 192.921 871.497C191.85 866.691 190.623 861.155 189.291 854.991C189.291 854.939 189.265 854.861 189.239 854.808C177.93 803.229 158.265 709.994 151.501 656.926Z" fill="#000A1D"/>
<path d="M171.453 516.865L168.293 537.628C166.465 549.641 158.709 559.905 147.688 564.971L144.423 566.46" stroke="#262424" stroke-width="1.5" stroke-miterlimit="10" stroke-linecap="round" stroke-linejoin="round"/>
<path d="M220.944 498.923L223.111 540.84C223.555 549.641 228.047 557.711 235.281 562.751L245.441 569.829L243.691 821.301" stroke="#262424" stroke-width="1.5" stroke-miterlimit="10" stroke-linecap="round" stroke-linejoin="round"/>
<path d="M415.352 1079.64C416.084 1082.23 417.024 1084.53 418.069 1086.54C419.714 1089.85 421.542 1092.41 422.874 1094.32C423.527 1095.23 424.284 1096.04 425.172 1096.75C434.182 1103.88 455.571 1099.91 476.96 1076.06C500.465 1049.87 535.565 1020.75 539.012 1004.51C539.117 1004.04 539.195 1003.54 539.247 1003.07C539.247 1003.04 539.274 1003.02 539.247 1002.99C539.744 999.622 539.43 996.462 538.438 993.485C536.401 987.321 531.543 981.994 525.38 976.875C525.354 976.875 525.354 976.875 525.354 976.875C521.045 973.271 516.109 969.797 511.068 966.272C494.928 954.963 473.278 947.912 473.278 947.912C473.278 947.912 442.618 951.02 435.619 982.673C435.619 982.673 429.821 1025.32 418.8 1049.3C413.002 1062.01 413.211 1072.07 415.352 1079.64Z" fill="#FF1B46"/>
<path d="M418.069 1086.54C419.714 1089.85 421.542 1092.41 422.874 1094.32C423.527 1095.23 424.284 1096.04 425.172 1096.75C434.182 1103.88 455.571 1099.91 476.96 1076.06C500.465 1049.87 535.565 1020.75 539.012 1004.51C539.117 1004.04 539.195 1003.54 539.247 1003.07C539.247 1003.04 539.274 1003.02 539.247 1002.99C539.744 999.622 539.43 996.462 538.438 993.485C536.401 987.322 531.543 981.994 525.38 976.875C525.354 976.875 525.354 976.875 525.354 976.875C525.354 976.875 530.472 986.59 525.354 1001.32C520.261 1016.08 493.831 1031.64 476.725 1055.82C459.619 1080.06 432.459 1094.29 418.069 1086.54Z" fill="white" stroke="#262424" stroke-width="1.5" stroke-miterlimit="10" stroke-linecap="round" stroke-linejoin="round"/>
<path d="M401.224 951.882L454.448 984.527C476.882 977.163 473.356 956.74 473.356 956.74L424.807 916.443C420.027 918.819 414.935 922.815 410.286 929.579C404.123 938.537 401.694 945.954 401.224 951.882Z" fill="white" stroke="#262424" stroke-width="1.5" stroke-miterlimit="10" stroke-linecap="round" stroke-linejoin="round"/>
<path d="M407.283 972.566C429.194 974.838 453.769 943.473 445.517 917.618C445.49 917.591 445.49 917.539 445.49 917.539L294.408 791.111C248.235 742.091 164.977 786.802 205.248 857.028C209.296 862.251 214.415 866.691 220.317 869.982L234.211 877.66L239.878 880.768L407.283 972.566Z" fill="#000A1D"/>
<path d="M232.827 772.542L414.935 908.007" stroke="#262424" stroke-width="1.5" stroke-miterlimit="10" stroke-linecap="round" stroke-linejoin="round"/>
<path d="M202.622 851.502C181.626 838.923 171.533 817.162 180.08 802.896C188.626 788.631 212.575 787.263 233.571 799.842C254.567 812.421 264.66 834.182 256.114 848.448C247.567 862.713 223.618 864.081 202.622 851.502Z" fill="white"/>
<path d="M434.652 916.469C435.671 919.185 436.324 922.711 435.984 927.02C435.54 932.948 433.111 940.365 426.948 949.297C422.299 956.061 417.207 960.083 412.427 962.433C408.379 964.366 404.514 965.149 401.25 965.358" stroke="#262424" stroke-width="1.5" stroke-miterlimit="10" stroke-linecap="round" stroke-linejoin="round"/>
<path d="M214.78 631.515C240.897 526.972 249.907 463.065 305.351 450.269C378.712 433.345 408.536 512.268 387.46 590.173C366.385 668.051 284.85 842.559 284.85 842.559C263.2 901.791 192.869 904.899 176.363 865.516C174.901 859.326 174.588 852.875 175.58 846.477C176.337 841.619 177.199 836.004 178.166 829.789C178.192 829.736 178.192 829.658 178.192 829.606C186.34 777.452 201.827 683.434 214.78 631.515Z" fill="#000A1D"/>
<path d="M301.199 806.754C291.353 828.561 284.824 842.56 284.824 842.56C263.174 901.791 192.843 904.899 176.337 865.516C174.875 859.326 174.561 852.875 175.554 846.477C176.311 841.619 177.173 836.004 178.139 829.789C178.166 829.736 178.165 829.658 178.165 829.606C186.34 777.478 201.801 683.46 214.754 631.541C240.87 526.998 249.88 463.092 305.325 450.295" stroke="#262424" stroke-width="1.5" stroke-miterlimit="10" stroke-linecap="round" stroke-linejoin="round"/>
<path d="M348.338 518.902L343.089 548.7C341.287 558.834 344.839 569.202 352.439 576.149L363.251 585.994L267.039 828.222" stroke="#262424" stroke-width="1.5" stroke-miterlimit="10" stroke-linecap="round" stroke-linejoin="round"/>
<path d="M363.225 585.994L375.447 527.703" stroke="#262424" stroke-width="1.5" stroke-miterlimit="10" stroke-linecap="round" stroke-linejoin="round"/>
<path d="M131.391 1042.79C135.675 1064.42 172.89 1078.65 195.167 1063.14C195.193 1063.11 195.219 1063.08 195.219 1063.08L271.505 881.446C304.724 822.868 237.475 756.507 182.24 815.686C178.453 821.092 175.711 827.281 174.3 833.915L171.062 849.454L169.756 855.774L131.391 1042.79Z" fill="#000A1D"/>
<path d="M178.844 821.275C176.781 825.218 175.266 829.449 174.326 833.889L171.088 849.428L169.782 855.748L131.418 1042.77C135.701 1064.39 172.916 1078.62 195.193 1063.11C195.219 1063.08 195.245 1063.06 195.245 1063.06L271.531 881.42C276.258 873.115 278.948 864.627 279.94 856.375" stroke="#262424" stroke-width="1.5" stroke-miterlimit="10" stroke-linecap="round" stroke-linejoin="round"/>
<path d="M271.113 817.122L195.35 1031.07" stroke="#262424" stroke-width="1.5" stroke-miterlimit="10" stroke-linecap="round" stroke-linejoin="round"/>
<path d="M205.425 861.721C189.274 857.758 180.909 835.274 186.742 811.502C192.575 787.73 210.396 771.672 226.548 775.635C242.699 779.598 251.064 802.082 245.231 825.854C239.399 849.625 221.577 865.684 205.425 861.721Z" fill="white"/>
<path d="M126.403 1110.56L156.881 1117.41L187.384 1043.94C183.728 1040.05 178.4 1036.39 170.566 1033.94C160.224 1030.65 152.389 1030.54 146.617 1031.85L126.403 1110.56Z" fill="white" stroke="#262424" stroke-width="1.5" stroke-miterlimit="10" stroke-linecap="round" stroke-linejoin="round"/>
<path d="M136.928 1036.24C139.226 1034.46 142.412 1032.79 146.617 1031.85C152.415 1030.54 160.224 1030.65 170.566 1033.94C178.4 1036.39 183.754 1040.08 187.384 1043.94C190.44 1047.26 192.32 1050.7 193.469 1053.76" stroke="#262424" stroke-width="1.5" stroke-miterlimit="10" stroke-linecap="round" stroke-linejoin="round"/>
<path d="M40.481 1153.71C75.6073 1169.93 117.576 1197.35 135.753 1195.7C136.275 1195.65 136.823 1195.6 137.32 1195.49C137.346 1195.49 137.346 1195.49 137.372 1195.49C141.107 1194.92 144.293 1193.56 147.087 1191.58C152.885 1187.42 156.933 1180.58 160.302 1172.46C162.678 1166.77 164.716 1160.45 166.779 1154.02C173.438 1133.41 173.856 1108.37 173.856 1108.37C173.856 1108.37 160.668 1077.13 125.15 1080.06C125.15 1080.06 78.4539 1087.79 49.7261 1083.98C34.5265 1081.97 24.0539 1085.44 16.7936 1090.17C10.2907 1094.37 6.32096 1099.59 3.78769 1102.81C3.05644 1103.77 2.42964 1104.84 1.98567 1106.02C-2.58466 1117.77 8.48873 1138.95 40.481 1153.71Z" fill="#FF1B46"/>
<path d="M40.4809 1153.71C75.6072 1169.93 117.576 1197.35 135.753 1195.7C136.275 1195.65 136.823 1195.6 137.32 1195.49C137.346 1195.49 137.346 1195.49 137.372 1195.49C141.106 1194.92 144.293 1193.56 147.087 1191.58C152.885 1187.42 156.933 1180.58 160.302 1172.46C160.511 1168.78 159.597 1165.04 156.907 1161.54C144.71 1145.74 91.4857 1127.49 71.2195 1113.51C53.6173 1101.37 36.2501 1088.36 16.7936 1090.19C10.2906 1094.4 6.32087 1099.62 3.7876 1102.83C3.05635 1103.8 2.42955 1104.87 1.98558 1106.05C-2.58475 1117.77 8.48864 1138.95 40.4809 1153.71Z" fill="white" stroke="#262424" stroke-width="1.5" stroke-miterlimit="10" stroke-linecap="round" stroke-linejoin="round"/>
<path d="M40.481 1153.71C75.6073 1169.93 117.576 1197.35 135.753 1195.7C136.327 1195.57 136.876 1195.52 137.32 1195.49C137.346 1195.49 137.346 1195.49 137.372 1195.49C139.984 1195.44 144.241 1194.16 147.087 1191.58C150.273 1188.62 151.71 1183.98 146.983 1177.39C138.051 1164.94 96.0562 1144.75 74.7716 1131.43C53.4608 1118.11 16.4541 1090.43 2.03797 1105.94C2.03797 1105.94 2.03792 1105.94 1.98568 1106.02C-2.58464 1117.77 8.48874 1138.95 40.481 1153.71Z" fill="#FF1B46" stroke="#FF1B46" stroke-width="1.5" stroke-miterlimit="10" stroke-linecap="round" stroke-linejoin="round"/>
<path d="M184.303 227.837C197.204 205.639 235.83 194.2 251.186 219.715C262.939 239.224 255.13 266.228 249.332 286.181C245.127 300.754 217.026 368.995 201.983 401.432C196.447 413.367 192.164 421.985 190.597 423.918C171.558 464.711 111.439 428.279 127.5 378.293C127.526 378.293 174.352 244.944 184.303 227.837Z" fill="#000A1D"/>
<path d="M73.5179 491.584L60.0682 513.313C60.0682 513.313 24.2367 537 20.267 540.552C16.3235 544.104 1.25448 576.436 1.38506 584.401C1.51564 592.367 6.58223 602.369 11.2309 605.634C15.8796 608.872 29.3032 577.507 29.3032 577.507C29.3032 577.507 17.1853 606.757 21.9385 612.084C26.6916 617.412 32.6723 612.032 35.5712 605.999C38.4701 599.94 47.0362 582.077 49.9089 576.122C52.7556 570.168 61.8962 561.68 61.8962 561.68C61.8962 561.68 60.0158 569.724 57.8482 575.417C54.4792 584.219 49.5172 594.534 48.9165 598.191C48.3158 601.847 56.9341 608.507 64.0116 596.127C71.089 583.722 76.5736 569.881 79.4986 563.822C86.3671 549.641 82.0056 535.068 82.0056 535.068L93.5229 518.118L73.5179 491.584Z" fill="white" stroke="#262424" stroke-width="1.5" stroke-miterlimit="10" stroke-linecap="round" stroke-linejoin="round"/>
<path d="M52.834 505.556L118.594 394.249C150.848 345.569 205.64 381.505 190.597 423.917C188.873 427.574 181.456 436.035 171.636 446.325C146.434 472.755 92.0344 532.535 92.0344 532.535C92.0344 532.535 59.3108 525.901 52.834 505.556Z" fill="#000A1D"/>
<path d="M232.2 202.661L267.535 193.52L339.119 207.466C363.877 212.272 382.498 232.825 384.849 257.923L369.127 401.196L409.398 542.458C409.398 542.458 304.045 527.86 240.87 526.005C205.875 524.987 110.76 521.931 110.76 521.931C110.76 521.931 164.089 391.794 176.468 340.842C176.468 340.842 176.834 318.643 175.005 297.28C173.882 284.117 186.653 253.666 196.656 232.198C203.472 217.521 216.53 206.709 232.2 202.661Z" fill="#FF1B46"/>
<path d="M266.882 176.78C241.079 179.862 220.552 212.481 247.634 231.859C247.634 231.859 252.518 217.652 258.211 211.254C258.211 211.254 258.943 224.886 264.923 234.836C264.923 234.836 293.442 226.192 300.572 205.926C307.78 185.608 286.965 174.378 266.882 176.78Z" fill="white" stroke="#262424" stroke-width="1.5" stroke-miterlimit="10" stroke-linecap="round" stroke-linejoin="round"/>
<path d="M312.846 113.736C312.846 113.736 309.19 171.479 314.675 200.833C314.675 200.833 269.363 210.731 242.933 190.361C216.478 169.99 232.304 91.5634 253.275 90.3359C274.247 89.1346 312.846 113.736 312.846 113.736Z" fill="#262424"/>
<path d="M256.853 144.814L247.582 193.991C247.582 193.991 248.131 207.258 259.126 208.72C270.12 210.157 287.018 202.687 287.018 202.687L291.823 144.918L256.853 144.814Z" fill="white" stroke="#262424" stroke-width="1.5" stroke-miterlimit="10" stroke-linecap="round" stroke-linejoin="round"/>
<path d="M301.773 256.043C301.329 236.247 320.159 200.102 358.001 214.362C381.271 223.137 391.561 261.005 395.844 283.282C399.004 299.579 405.585 379.912 407.073 418.982C407.622 433.346 407.726 443.844 407.178 446.534C405.245 511.276 332.042 505.688 323.11 433.502C323.11 433.502 302.243 277.667 301.773 256.043Z" fill="#000A1D"/>
<path d="M373.332 404.513C421.516 429.741 396.627 520.939 342.593 483.854C338.545 482.052 329.143 474.138 317.678 463.666C288.219 436.74 221.649 378.684 221.649 378.684C221.649 378.684 228.152 342.774 250.22 335.227L373.332 404.513Z" fill="#000A1D"/>
<path d="M237.867 337.264L217.261 306.316C215.329 303.417 211.594 302.347 208.408 303.809C204.752 305.48 203.237 309.842 205.013 313.42L213.788 330.944L210.158 333.973C205.509 337.838 199.476 339.614 193.469 338.909L181.195 337.473C176.677 336.95 172.289 335.462 168.346 333.164L154.818 325.25C152.415 323.84 149.333 324.31 147.453 326.373C145.155 328.907 145.468 332.876 148.158 334.992L162.992 346.718L171.401 351.21L164.742 350.139C161.921 349.695 159.179 348.807 156.62 347.554L147.401 342.983C144.789 341.704 141.655 342.67 140.193 345.177C139.305 346.744 139.226 348.65 140.01 350.296L145.599 361.865C147.296 365.391 150.247 368.185 153.851 369.674L177.8 379.624C185.373 382.784 193.887 382.863 201.513 379.885L228.831 369.256L235.229 374.009C235.229 374.009 257.898 361.474 249.175 344.55L237.867 337.264Z" fill="white" stroke="#262424" stroke-width="1.5" stroke-miterlimit="10" stroke-linecap="round" stroke-linejoin="round"/>
<path d="M330.214 380.251L373.331 404.513C385.162 410.702 392.579 420.861 396.261 432.117" stroke="#262424" stroke-width="1.5" stroke-miterlimit="10" stroke-linecap="round" stroke-linejoin="round"/>
<path d="M262.599 348.442C262.599 348.442 269.363 375.89 235.151 384.691" stroke="#262424" stroke-width="1.5" stroke-miterlimit="10" stroke-linecap="round" stroke-linejoin="round"/>
<path d="M322.666 135.438C322.797 156.174 315.092 180.567 290.047 181.429C271.661 182.055 249.985 161.189 246.72 133.401C243.456 105.587 246.851 81.4299 280.515 81.0382C283.518 81.0121 288.584 81.3777 291.274 81.7956C311.018 84.9034 318.54 86.1831 322.353 124.391C322.692 127.76 322.64 131.547 322.666 135.438Z" fill="white"/>
<path d="M249.645 97.2302C254.242 87.4889 263.539 81.221 280.541 81.0121C283.544 80.9859 288.611 81.3516 291.301 81.7694C311.044 84.8773 318.566 86.1569 322.379 124.365C322.718 127.734 322.666 131.521 322.692 135.412C322.823 156.148 315.119 180.541 290.073 181.403C282.891 181.638 275.187 178.608 268.292 173.15" stroke="#262424" stroke-width="1.5" stroke-miterlimit="10" stroke-linecap="round" stroke-linejoin="round"/>
<path d="M256.253 136.587C264.453 132.226 267.117 125.331 267.535 119.037C267.665 116.556 267.587 113.213 268.005 110.158C283.857 123.895 311.985 130.502 324.181 132.827C328.098 133.584 332.199 131.887 334.105 128.387C346.04 106.606 325.8 68.9727 299.318 72.2372C267.195 54.2171 233.427 72.7073 230.816 98.6668C227.943 127.421 248.078 140.923 256.253 136.587Z" fill="#262424"/>
<path d="M259.36 67.0138C259.36 67.0138 211.907 71.7931 214.65 185.607C214.65 185.607 228.256 198.665 259.36 206.187C259.36 206.187 245.963 152.701 252.048 125.018C258.133 97.3347 259.36 67.0138 259.36 67.0138Z" fill="#262424"/>
<path d="M258.995 134.054C258.995 134.054 244.579 120.892 230.607 126.324C216.635 131.756 223.999 164.897 258.969 158.551L258.995 134.054Z" fill="white"/>
<path d="M258.995 134.054C258.995 134.054 244.579 120.892 230.607 126.324C216.635 131.756 223.999 164.897 258.969 158.551" stroke="#262424" stroke-width="1.5" stroke-miterlimit="10" stroke-linecap="round" stroke-linejoin="round"/>
<path d="M559.958 545.645C559.958 545.645 559.931 544.417 560.114 542.25C561.838 492.002 565.207 426.895 637.053 424.309C716.576 421.462 710.909 546.951 707.958 569.828C704.928 593.228 701.324 620.598 700.306 625.038C699.444 628.825 679.204 726.76 663.978 808.791C650.737 873.507 566.252 853.946 566.33 799.128L559.958 545.645Z" fill="#FFD6DD"/>
<path d="M563.718 695.029L559.592 549.405" stroke="#262424" stroke-width="1.5" stroke-miterlimit="10" stroke-linecap="round" stroke-linejoin="round"/>
<path d="M653.271 539.507L651.886 568.026C651.286 580.301 656.718 592.105 666.433 599.653" stroke="#262424" stroke-width="1.5" stroke-miterlimit="10" stroke-linecap="round" stroke-linejoin="round"/>
<path d="M674.059 540.291L637.053 806.832" stroke="#262424" stroke-width="1.5" stroke-miterlimit="10" stroke-linecap="round" stroke-linejoin="round"/>
<path d="M674.947 564.631C674.947 564.631 675.234 563.43 675.965 561.393C673.171 531.673 669.619 435.382 741.517 435.382C826.551 435.382 825.089 509.239 825.089 509.239V558.285C825.089 581.346 820.649 604.223 811.978 625.586C803.125 647.446 792.679 672.987 790.563 677.061C788.761 680.509 744.311 770.087 708.793 845.589C679.543 904.82 602.814 864.471 616.812 811.455L674.947 564.631Z" fill="#FFD6DD"/>
<path d="M718.927 824.122C715.505 831.33 712.084 838.512 708.767 845.563C708.454 846.19 708.141 846.816 707.827 847.417" stroke="#262424" stroke-width="1.5" stroke-miterlimit="10" stroke-linecap="round" stroke-linejoin="round"/>
<path d="M673.641 568.157L640.683 710.046L618.066 805.971" stroke="#262424" stroke-width="1.5" stroke-miterlimit="10" stroke-linecap="round" stroke-linejoin="round"/>
<path d="M766.745 582.364L758.179 609.603C754.497 621.33 756.743 634.126 764.238 643.894" stroke="#262424" stroke-width="1.5" stroke-miterlimit="10" stroke-linecap="round" stroke-linejoin="round"/>
<path d="M786.672 588.397L683.226 836.84" stroke="#262424" stroke-width="1.5" stroke-miterlimit="10" stroke-linecap="round" stroke-linejoin="round"/>
<path d="M644.548 1025.58L644.522 1093.8L671.082 1092.52L677.428 1023.6L644.548 1025.58Z" fill="white" stroke="#262424" stroke-width="1.5" stroke-miterlimit="10" stroke-linecap="round" stroke-linejoin="round"/>
<path d="M534.181 1182.3L534.024 1194.16L680.405 1196.04C680.405 1196.04 680.953 1189.88 681.554 1179.48C682.729 1159.04 684.218 1124.69 681.998 1086.64L635.381 1078.55C635.381 1078.55 594.744 1119.76 558.651 1151.77C554.917 1155.09 550.947 1158.33 546.821 1161.39C538.829 1167.24 534.285 1174.6 534.181 1182.3Z" fill="#FFD6DD"/>
<path d="M650.319 1091.6C650.319 1091.6 636.034 1118.37 603.728 1151.04" stroke="#262424" stroke-width="1.5" stroke-miterlimit="10" stroke-linecap="round" stroke-linejoin="round"/>
<path d="M657.803 1155.96C650.62 1155.87 644.881 1149.32 644.983 1141.33C645.086 1133.34 650.991 1126.94 658.173 1127.03C665.355 1127.12 671.095 1133.67 670.992 1141.66C670.89 1149.65 664.985 1156.05 657.803 1155.96Z" fill="white" stroke="#262424" stroke-width="1.5" stroke-miterlimit="10" stroke-linecap="round" stroke-linejoin="round"/>
<path d="M534.181 1182.3L534.024 1194.16L680.405 1196.04C680.405 1196.04 680.954 1189.88 681.554 1179.48L604.276 1178.49C604.276 1178.49 599.784 1143.99 558.625 1151.77C554.891 1155.09 550.921 1158.33 546.795 1161.39C538.829 1167.24 534.285 1174.6 534.181 1182.3Z" fill="white" stroke="#262424" stroke-width="1.5" stroke-miterlimit="10" stroke-linecap="round" stroke-linejoin="round"/>
<path d="M623.759 1048.15L612.608 849.532C608.716 807.59 631.437 784.477 665.78 787.245C693.959 788.107 712.215 823.86 709.264 851.909C698.347 955.773 688.475 1049.92 688.475 1049.92L623.759 1048.15Z" fill="#FFD6DD"/>
<path d="M709.368 843.03C707.514 860.71 705.607 886.983 703.857 903.672" stroke="#262424" stroke-width="1.5" stroke-miterlimit="10" stroke-linecap="round" stroke-linejoin="round"/>
<path d="M670.638 1030.91L684.531 836.84L696.362 805.265" stroke="#262424" stroke-width="1.5" stroke-miterlimit="10" stroke-linecap="round" stroke-linejoin="round"/>
<path d="M631.464 1031.17L685.707 1031.56" stroke="#262424" stroke-width="1.5" stroke-miterlimit="10" stroke-linecap="round" stroke-linejoin="round"/>
<path d="M640.954 863.982C627.378 862.938 617.583 846.352 619.076 826.937C620.57 807.522 632.786 792.629 646.362 793.673C659.939 794.718 669.734 811.303 668.24 830.719C666.747 850.134 654.53 865.027 640.954 863.982Z" fill="white"/>
<path d="M580.746 186.469C554.081 191.353 495.555 291.404 481.635 344.237C467.715 397.07 479.938 415.299 500.569 419.086C521.175 422.847 546.534 421.045 579.597 338.857C612.66 256.67 630.079 177.433 580.746 186.469Z" fill="#FF1B46"/>
<path d="M834.647 558.337H808.897V528.434C808.897 526.162 807.983 524.099 806.494 522.61C805.005 521.122 802.942 520.208 800.67 520.208C796.126 520.208 792.444 523.89 792.444 528.434V558.337H546.978C546.978 558.337 559.905 411.199 551.888 316.998C543.948 223.424 580.72 186.469 580.72 186.469C719.057 154.947 790.38 194.147 790.38 194.147C837.337 393.858 834.647 558.337 834.647 558.337Z" fill="#FF1B46"/>
<path d="M570.952 200.468C560.689 218.697 546.691 255.703 551.888 317.024C554.264 344.942 554.395 377.535 555.727 409.554" stroke="#262424" stroke-width="1.5" stroke-miterlimit="10" stroke-linecap="round" stroke-linejoin="round"/>
<path d="M782.311 540.004L564.528 541.571" stroke="#262424" stroke-width="1.5" stroke-miterlimit="10" stroke-linecap="round" stroke-linejoin="round"/>
<path d="M718.169 188.115C708.82 209.843 691.27 218.644 680.301 222.092C677.48 206.605 669.698 187.096 669.698 187.096C661.053 199.005 656.483 214.727 655.36 221.909C627.364 214.205 624.177 187.305 624.177 187.305C627.599 160.353 650.79 140.035 670.69 140.714C714.67 142.202 718.169 188.115 718.169 188.115Z" fill="white" stroke="#262424" stroke-width="1.5" stroke-miterlimit="10" stroke-linecap="round" stroke-linejoin="round"/>
<path d="M696.44 86.366L695.735 113.396L694.508 159.648C678.943 170.512 663.821 171.661 649.222 160.719L651.364 139.225L654.602 106.684L696.44 86.366Z" fill="white" stroke="#262424" stroke-width="1.5" stroke-miterlimit="10" stroke-linecap="round" stroke-linejoin="round"/>
<path d="M736.868 245.936C741.621 267.038 792.835 415.665 792.835 415.665C806.781 457.477 840.184 472.938 861.939 464.424C876.067 458.913 885.286 443.243 881.003 418.067C881.003 416.265 878.653 408.405 876.067 399.238C874.762 394.589 873.404 389.601 872.281 384.874C863.114 346.875 840.811 269.414 834.491 254.084C825.872 233.061 808.322 197.987 783.773 193.965C743.841 187.462 732.533 226.61 736.868 245.936Z" fill="#FF1B46"/>
<path d="M783.773 193.965C743.841 187.462 732.533 226.61 736.868 245.936C741.621 267.038 792.835 415.665 792.835 415.665C795.447 423.499 798.738 430.42 802.524 436.401" stroke="#262424" stroke-width="1.5" stroke-miterlimit="10" stroke-linecap="round" stroke-linejoin="round"/>
<path d="M850.526 435.173C850.526 447.239 855.018 457.92 861.939 464.423C876.067 458.913 885.286 443.243 881.003 418.067C881.003 416.265 878.653 408.404 876.067 399.237C861.808 400.413 850.526 416.082 850.526 435.173Z" fill="white"/>
<path d="M799.573 449.982C800.827 489.861 801.558 578.186 801.558 578.186C801.558 578.186 833.054 596.624 853.138 584.767L875.754 471.083L880.69 446.247C884.66 429.036 878.34 413.132 867.71 401.745C845.668 378.11 805.214 373.957 800.461 417.937C799.208 422.168 799.077 434.469 799.573 449.982Z" fill="#FF1B46"/>
<path d="M813.728 389.915C806.912 395.138 801.95 404.174 800.461 417.911C799.208 422.142 799.077 434.443 799.573 449.956C800.827 489.835 801.558 578.16 801.558 578.16C801.558 578.16 833.054 596.598 853.138 584.741" stroke="#262424" stroke-width="1.5" stroke-miterlimit="10" stroke-linecap="round" stroke-linejoin="round"/>
<path d="M850.526 435.174C850.526 454.134 861.651 469.699 875.754 471.084L880.69 446.247C884.66 429.037 878.34 413.132 867.71 401.745C857.63 407.021 850.526 420 850.526 435.174Z" fill="white"/>
<path d="M844.676 578.316C844.676 578.316 828.98 565.781 807.904 575L807.069 584.297C807.069 584.297 786.071 630.235 784.113 638.175C782.154 646.088 790.067 665.205 792.365 667.581C794.637 669.958 801.323 668.391 801.323 668.391C801.323 668.391 800.566 673.301 817.254 674.816C833.942 676.33 847.497 674.45 850.552 668.495C853.582 662.541 841.255 657.683 841.255 657.683L839.401 647.289C839.401 647.289 849.847 635.38 854.731 626.031C859.614 616.681 842.012 590.774 842.012 590.774L844.676 578.316Z" fill="white" stroke="#262424" stroke-width="1.5" stroke-miterlimit="10" stroke-linecap="round" stroke-linejoin="round"/>
<path d="M850.526 568.157C850.526 568.157 832.218 552.592 805.371 563.483" stroke="#262424" stroke-width="1.5" stroke-miterlimit="10" stroke-linecap="round" stroke-linejoin="round"/>
<path d="M616.368 294.93C587.197 370.092 553.664 409.998 525.954 423.317C508.691 431.622 493.701 429.611 483.411 419.373C478.344 414.333 475.628 408.509 474.532 402.372C469.935 376.125 495.503 344.315 495.503 344.315L586.126 267.064L616.368 294.93Z" fill="#FF1B46"/>
<path d="M500.726 339.876L586.152 267.064L616.368 294.93C591.793 358.261 564.11 396.574 539.456 415.012" stroke="#262424" stroke-width="1.5" stroke-miterlimit="10" stroke-linecap="round" stroke-linejoin="round"/>
<path d="M574.504 283.622C574.504 283.622 581.242 307.44 605.635 306.917" stroke="#262424" stroke-width="1.5" stroke-miterlimit="10" stroke-linecap="round" stroke-linejoin="round"/>
<path d="M525.98 423.291C508.718 431.596 493.727 429.585 483.437 419.347C478.371 414.307 475.655 408.483 474.558 402.346C475.863 398.246 478.109 394.328 481.243 390.907C492.264 378.893 510.363 377.562 521.645 387.904C531.413 396.914 532.901 411.695 525.98 423.291Z" fill="white"/>
<path d="M653.009 245.596C643.372 242.384 621.8 275.604 632.09 283.23C642.38 290.856 678.864 254.189 653.009 245.596Z" fill="white" stroke="#262424" stroke-width="1.5" stroke-miterlimit="10" stroke-linecap="round" stroke-linejoin="round"/>
<path d="M607.28 225.905C607.28 225.905 583.018 246.328 581.895 264.505C580.772 282.682 608.194 300.441 624.987 291.927C641.779 283.413 651.573 254.581 635.512 243.664C635.512 243.664 661.941 257.741 669.724 247.242C677.506 236.769 631.516 215.067 620.678 215.485C609.839 215.903 607.28 225.905 607.28 225.905Z" fill="white" stroke="#262424" stroke-width="1.5" stroke-miterlimit="10" stroke-linecap="round" stroke-linejoin="round"/>
<path d="M733.917 104.752C728.302 126.376 717.83 151.683 692.105 143.508C661.497 133.767 644.678 108.46 649.014 78.5836C653.349 48.7067 669.724 34.0033 704.902 42.9611C708.036 43.7707 710.961 44.7632 713.651 45.9645C733.343 54.6873 741.047 73.3342 736.659 93.1303C735.876 96.7082 734.988 100.678 733.917 104.752Z" fill="white"/>
<path d="M713.651 45.9905C733.343 54.7133 741.047 73.3602 736.659 93.1563C735.876 96.7342 734.988 100.678 733.917 104.778C728.302 126.402 717.83 151.709 692.105 143.534C679.752 139.591 669.619 133.14 662.254 124.835" stroke="#262424" stroke-width="1.5" stroke-miterlimit="10" stroke-linecap="round" stroke-linejoin="round"/>
<path d="M638.802 82.7621C638.802 82.7621 642.25 90.1269 647.055 96.6037L662.725 100.025L667.843 89.3434C667.843 89.3434 677.95 90.4403 681.084 84.0157C681.084 84.0157 681.163 83.8851 681.293 83.5717C682.155 81.4302 685.759 71.8717 686.647 56.2542C686.647 56.2542 709.107 70.6442 722.034 74.0654C726.683 75.2929 732.481 74.3266 737.992 72.6029C749.065 69.1295 760.634 53.7732 760.608 42.1776C760.608 42.0993 760.608 42.0209 760.608 41.9426C760.347 24.9148 749.927 35.074 749.927 35.074C749.927 35.074 749.535 21.3369 741.308 19.0648C733.056 16.7927 725.848 28.336 725.848 28.336C725.848 28.336 704.302 18.7514 677.141 18.6992C644.026 18.6208 648.622 42.1515 648.622 42.1515C648.622 42.1515 623.577 46.0689 638.802 82.7621Z" fill="#262424"/>
<path d="M659.538 97.779C662.829 85.5305 655.856 72.603 643.634 69.234C641.153 68.555 638.463 68.2677 635.668 68.5811C619.581 70.357 618.066 106.92 656.274 110.054L659.538 97.779Z" fill="white"/>
<path d="M659.538 97.779C662.829 85.5305 655.856 72.603 643.634 69.234C641.153 68.555 638.463 68.2677 635.668 68.5811C619.581 70.357 618.066 106.92 656.274 110.054" stroke="#262424" stroke-width="1.5" stroke-miterlimit="10" stroke-linecap="round" stroke-linejoin="round"/>
<path d="M1000.46 664.421C986.878 557.528 972.07 494.692 1019.11 462.674C1081.34 420.287 1137.75 483.044 1146.37 563.273C1154.99 643.502 1142.27 835.691 1142.27 835.691C1143.58 898.735 1079.15 927.15 1049.5 896.437C1045.9 891.214 1043.26 885.312 1041.88 878.992C1040.81 874.186 1039.58 868.65 1038.25 862.486C1038.25 862.434 1038.22 862.356 1038.2 862.303C1026.89 810.75 1007.2 717.515 1000.46 664.421Z" fill="#000A1D"/>
<path d="M1020.41 524.386L1017.25 545.149C1015.42 557.162 1007.67 567.426 996.646 572.492L989.229 575.887" stroke="#262424" stroke-width="1.5" stroke-miterlimit="10" stroke-linecap="round" stroke-linejoin="round"/>
<path d="M1084.06 511.041L1089.96 540.735C1091.97 550.842 1099.02 559.199 1108.63 562.908L1122.26 568.157L1120.46 828.796" stroke="#262424" stroke-width="1.5" stroke-miterlimit="10" stroke-linecap="round" stroke-linejoin="round"/>
<path d="M1122.29 568.157L1112.52 509.422" stroke="#262424" stroke-width="1.5" stroke-miterlimit="10" stroke-linecap="round" stroke-linejoin="round"/>
<path d="M1264.94 1084.37C1265.64 1086.85 1266.56 1089.1 1267.57 1091.05C1269.17 1094.27 1270.94 1096.75 1272.22 1098.58C1272.85 1099.46 1273.58 1100.25 1274.44 1100.93C1283.17 1107.82 1303.85 1104.01 1324.53 1080.92C1347.28 1055.59 1381.23 1027.38 1384.58 1011.69C1384.65 1011.22 1384.76 1010.75 1384.81 1010.3C1384.81 1010.28 1384.84 1010.25 1384.81 1010.22C1385.31 1006.96 1384.99 1003.9 1384.03 1001.03C1382.04 995.077 1377.34 989.906 1371.39 984.97C1371.36 984.97 1371.36 984.97 1371.36 984.97C1367.21 981.471 1362.43 978.128 1357.55 974.707C1341.93 963.764 1320.98 956.922 1320.98 956.922C1320.98 956.922 1291.31 959.925 1284.55 990.559C1284.55 990.559 1278.94 1031.82 1268.28 1055.01C1262.64 1067.31 1262.85 1077.03 1264.94 1084.37Z" fill="#000A1D"/>
<path d="M1267.57 1091.05C1269.17 1094.27 1270.94 1096.75 1272.22 1098.58C1272.85 1099.46 1273.58 1100.25 1274.44 1100.93C1283.17 1107.82 1303.85 1104.01 1324.53 1080.92C1347.28 1055.59 1381.23 1027.38 1384.58 1011.69C1384.65 1011.22 1384.76 1010.75 1384.81 1010.3C1384.81 1010.28 1384.84 1010.25 1384.81 1010.22C1385.31 1006.96 1384.99 1003.9 1384.03 1001.03C1382.04 995.077 1377.34 989.906 1371.39 984.97C1371.36 984.97 1371.36 984.97 1371.36 984.97C1371.36 984.97 1376.32 994.346 1371.36 1008.63C1366.42 1022.92 1340.86 1037.99 1324.3 1061.36C1307.77 1084.79 1281.49 1098.55 1267.57 1091.05Z" fill="white" stroke="#262424" stroke-width="1.5" stroke-miterlimit="10" stroke-linecap="round" stroke-linejoin="round"/>
<path d="M1250.18 959.403L1303.41 992.048C1325.84 984.684 1322.31 964.261 1322.31 964.261L1273.76 923.964C1268.99 926.34 1263.89 930.336 1259.24 937.1C1253.05 946.058 1250.65 953.475 1250.18 959.403Z" fill="white"/>
<path d="M1258.09 888.55L1299.28 923.989C1299.28 923.989 1303.22 944.882 1286.35 965.827C1269.48 986.773 1250.21 980.218 1250.21 980.218L1212.18 958.045C1212.18 958.045 1203.38 941.409 1218.74 913.7C1234.09 885.99 1258.09 888.55 1258.09 888.55Z" fill="#FF1B46"/>
<path d="M1054.18 864.575C1058.25 869.798 1063.35 874.238 1069.28 877.503L1083.17 885.207L1088.84 888.315L1217.72 958.959C1224.46 957.418 1241.3 951.725 1253 932.765C1263.68 915.423 1261.67 902.156 1259.66 896.019L1143.34 798.658C1097.17 749.638 1013.91 794.349 1054.18 864.575Z" fill="#000A1D"/>
<path d="M1081.78 780.063L1254.93 908.868" stroke="#262424" stroke-width="1.5" stroke-miterlimit="10" stroke-linecap="round" stroke-linejoin="round"/>
<path d="M1051.55 858.997C1030.56 846.419 1020.46 824.657 1029.01 810.392C1037.56 796.126 1061.51 794.759 1082.5 807.337C1103.5 819.916 1113.59 841.678 1105.04 855.943C1096.5 870.209 1072.55 871.576 1051.55 858.997Z" fill="white"/>
<path d="M1063.71 639.036C1089.83 534.493 1098.84 470.587 1154.28 457.79C1227.64 440.867 1257.47 519.79 1236.39 597.695C1215.32 675.573 1133.78 850.081 1133.78 850.081C1112.13 909.313 1041.8 912.42 1025.3 873.037C1023.83 866.848 1023.52 860.397 1024.51 853.999C1025.27 849.141 1026.13 843.526 1027.1 837.31C1027.12 837.258 1027.12 837.18 1027.12 837.127C1035.3 784.974 1050.76 690.929 1063.71 639.036Z" fill="#000A1D"/>
<path d="M1151.49 811.351C1140.91 834.829 1133.78 850.081 1133.78 850.081C1112.13 909.312 1041.8 912.42 1025.3 873.037C1023.83 866.848 1023.52 860.397 1024.51 853.998C1025.27 849.141 1026.13 843.526 1027.1 837.31C1027.12 837.258 1027.12 837.18 1027.12 837.127C1035.3 785 1050.76 690.981 1063.71 639.062C1089.83 534.519 1098.84 470.613 1154.28 457.816" stroke="#262424" stroke-width="1.5" stroke-miterlimit="10" stroke-linecap="round" stroke-linejoin="round"/>
<path d="M1197.27 526.397L1192.02 556.196C1190.22 566.329 1193.77 576.697 1201.37 583.644L1212.18 593.49L1115.97 835.717" stroke="#262424" stroke-width="1.5" stroke-miterlimit="10" stroke-linecap="round" stroke-linejoin="round"/>
<path d="M1212.18 593.49L1224.38 535.225" stroke="#262424" stroke-width="1.5" stroke-miterlimit="10" stroke-linecap="round" stroke-linejoin="round"/>
<path d="M988.68 1009.68L1055.49 1043.65L1120.46 888.942C1153.68 830.363 1086.43 764.002 1031.2 823.181C1027.41 828.587 1024.67 834.777 1023.26 841.41L1020.02 856.95L1018.71 863.27L988.68 1009.68Z" fill="#000A1D"/>
<path d="M1055.49 1043.65L1120.46 888.942C1125.19 880.637 1127.88 872.149 1128.87 863.896" stroke="#262424" stroke-width="1.5" stroke-miterlimit="10" stroke-linecap="round" stroke-linejoin="round"/>
<path d="M1027.78 828.796C1025.71 832.739 1024.2 836.97 1023.26 841.41L1020.02 856.949L1018.71 863.269L987.035 1017.72" stroke="#262424" stroke-width="1.5" stroke-miterlimit="10" stroke-linecap="round" stroke-linejoin="round"/>
<path d="M1120.07 824.644L1044.28 1038.59" stroke="#262424" stroke-width="1.5" stroke-miterlimit="10" stroke-linecap="round" stroke-linejoin="round"/>
<path d="M1054.39 869.224C1038.24 865.261 1029.88 842.777 1035.71 819.005C1041.54 795.234 1059.37 779.175 1075.52 783.138C1091.67 787.101 1100.03 809.585 1094.2 833.357C1088.37 857.129 1070.55 873.187 1054.39 869.224Z" fill="white"/>
<path d="M1080.45 1005.37L1055.8 1064.13C1055.8 1064.13 1033.94 1076.09 1004.45 1064.83C974.996 1053.58 975.335 1029.71 975.335 1029.71L986.33 979.278C986.33 979.278 1001.71 963.451 1038.17 970.581C1074.63 977.711 1080.45 1005.37 1080.45 1005.37Z" fill="#FF1B46"/>
<path d="M975.361 1118.08L1005.84 1124.93L1036.34 1051.46C1032.69 1047.57 1027.36 1043.92 1019.52 1041.46C1009.18 1038.17 1001.35 1038.06 995.575 1039.37L975.361 1118.08Z" fill="white"/>
<path d="M985.886 1043.76C988.184 1041.98 991.37 1040.31 995.575 1039.37C1001.37 1038.06 1009.18 1038.17 1019.52 1041.46C1027.36 1043.92 1032.71 1047.6 1036.34 1051.46C1039.4 1054.78 1041.28 1058.23 1042.43 1061.28" stroke="#262424" stroke-width="1.5" stroke-miterlimit="10" stroke-linecap="round" stroke-linejoin="round"/>
<path d="M896.229 1159.74C929.841 1175.25 970.007 1201.5 987.401 1199.93C987.923 1199.88 988.419 1199.83 988.915 1199.72C988.942 1199.72 988.942 1199.72 988.968 1199.72C992.546 1199.18 995.575 1197.87 998.265 1195.96C1003.83 1191.99 1007.69 1185.44 1010.91 1177.66C1013.18 1172.2 1015.14 1166.16 1017.12 1160C1023.49 1140.28 1023.89 1116.31 1023.89 1116.31C1023.89 1116.31 1011.27 1086.43 977.268 1089.23C977.268 1089.23 932.583 1096.62 905.083 1092.99C890.536 1091.05 880.507 1094.37 873.56 1098.92C867.345 1102.94 863.558 1107.93 861.129 1111.01C860.424 1111.95 859.823 1112.97 859.405 1114.09C855.018 1125.34 865.621 1145.61 896.229 1159.74Z" fill="#000A1D"/>
<path d="M896.229 1159.74C929.841 1175.25 970.007 1201.5 987.401 1199.93C987.923 1199.88 988.419 1199.83 988.915 1199.72C988.942 1199.72 988.942 1199.72 988.968 1199.72C992.546 1199.18 995.575 1197.87 998.265 1195.96C1003.83 1191.99 1007.69 1185.44 1010.91 1177.66C1011.11 1174.13 1010.23 1170.55 1007.64 1167.21C995.967 1152.09 945.04 1134.62 925.636 1121.24C908.791 1109.62 892.181 1097.17 873.534 1098.92C867.319 1102.94 863.532 1107.93 861.103 1111.01C860.398 1111.95 859.797 1112.97 859.379 1114.09C855.018 1125.34 865.621 1145.61 896.229 1159.74Z" fill="white" stroke="#262424" stroke-width="1.5" stroke-miterlimit="10" stroke-linecap="round" stroke-linejoin="round"/>
<path d="M896.229 1159.74C929.841 1175.25 970.007 1201.5 987.401 1199.93C987.949 1199.8 988.471 1199.75 988.915 1199.72C988.941 1199.72 988.941 1199.72 988.968 1199.72C991.449 1199.67 995.549 1198.44 998.265 1195.96C1001.32 1193.14 1002.68 1188.7 998.16 1182.38C989.621 1170.45 949.428 1151.15 929.057 1138.4C908.66 1125.66 873.247 1099.15 859.458 1114.01C859.458 1114.01 859.458 1114.01 859.405 1114.09C855.018 1125.34 865.621 1145.61 896.229 1159.74Z" fill="#FF1B46" stroke="#FF1B46" stroke-width="1.5" stroke-miterlimit="10" stroke-linecap="round" stroke-linejoin="round"/>
<path d="M375.159 685.784C375.159 714.329 408.797 737.494 450.243 737.494C491.716 737.494 525.354 714.329 525.354 685.784C525.354 657.213 491.716 634.074 450.243 634.074C447.214 634.074 444.211 634.205 441.233 634.466C440.293 629.269 437.107 618.43 426.425 613.286C425.198 612.685 423.971 614.069 424.597 615.27C428.88 623.288 427.653 631.41 425.799 636.921C396.34 643.842 375.159 663.115 375.159 685.784Z" fill="white" stroke="#262424" stroke-width="1.3195" stroke-miterlimit="10" stroke-linecap="round" stroke-linejoin="round"/>
<path d="M419.009 705.476H481.478C484.795 705.476 487.485 702.786 487.485 699.469C487.485 696.153 484.795 693.463 481.478 693.463H419.009C415.692 693.463 413.002 696.153 413.002 699.469C413.002 702.786 415.692 705.476 419.009 705.476Z" fill="white" stroke="#262424" stroke-width="1.3195" stroke-miterlimit="10" stroke-linecap="round" stroke-linejoin="round"/>
<path d="M419.009 681.319H481.478C484.795 681.319 487.485 678.628 487.485 675.312C487.485 671.995 484.795 669.305 481.478 669.305H419.009C415.692 669.305 413.002 671.995 413.002 675.312C413.002 678.628 415.692 681.319 419.009 681.319Z" fill="white" stroke="#262424" stroke-width="1.3195" stroke-miterlimit="10" stroke-linecap="round" stroke-linejoin="round"/>
<path d="M859.249 122.668C861.495 129.379 863.01 139.277 857.786 149.071C857.003 150.534 858.518 152.179 860.006 151.474C873.012 145.206 876.903 131.965 878.052 125.645C881.656 125.958 885.313 126.115 889.021 126.115C892.756 126.115 896.412 125.958 900.016 125.645C901.165 131.991 905.083 145.206 918.089 151.474C919.577 152.179 921.092 150.534 920.308 149.071C915.085 139.277 916.574 129.379 918.846 122.668V122.641C954.782 114.154 980.611 90.7014 980.611 63.0444C980.611 28.2316 939.608 0 889.021 0C838.46 0 797.458 28.2316 797.458 63.0444C797.484 90.7014 823.287 114.18 859.249 122.668Z" fill="#FFD6DD"/>
<path d="M927.151 43.3528H850.97C846.922 43.3528 843.657 46.6173 843.657 50.6653C843.657 54.7133 846.922 57.9778 850.97 57.9778H927.151C931.199 57.9778 934.463 54.7133 934.463 50.6653C934.463 46.6434 931.199 43.3528 927.151 43.3528Z" fill="white" stroke="#262424" stroke-width="1.2095" stroke-miterlimit="10" stroke-linecap="round" stroke-linejoin="round"/>
<path d="M927.151 65.4993H850.97C846.922 65.4993 843.657 68.7638 843.657 72.8118C843.657 76.8598 846.922 80.1243 850.97 80.1243H927.151C931.199 80.1243 934.463 76.8598 934.463 72.8118C934.463 68.7638 931.199 65.4993 927.151 65.4993Z" fill="white" stroke="#262424" stroke-width="1.2095" stroke-miterlimit="10" stroke-linecap="round" stroke-linejoin="round"/>
<path d="M944.204 333.294L921.248 386.728C921.248 386.728 901.374 435.304 937.153 449.433C972.932 463.562 987.479 414.542 987.479 414.542L1009.1 351.393L944.204 333.294Z" fill="white" stroke="#262424" stroke-width="1.5" stroke-miterlimit="10" stroke-linecap="round" stroke-linejoin="round"/>
<path d="M997.246 204.75C978.364 214.178 932.975 337.447 932.975 337.447C932.975 337.447 964.157 370.797 1013.96 368.264C1013.96 368.264 1036.47 303.443 1037.07 257.427C1037.7 211.41 1017.23 194.774 997.246 204.75Z" fill="#FF1B46"/>
<path d="M944.361 330.63C944.361 330.63 978.704 351.523 1006.15 354.187" stroke="#262424" stroke-width="1.5" stroke-miterlimit="10" stroke-linecap="round" stroke-linejoin="round"/>
<path d="M862.148 273.645L873.822 297.959H850.082L848.332 277.406C847.993 273.541 850.761 270.093 854.6 269.571C857.76 269.153 860.79 270.798 862.148 273.645Z" fill="white" stroke="#262424" stroke-width="1.5" stroke-miterlimit="10" stroke-linecap="round" stroke-linejoin="round"/>
<path d="M900.382 318.643C900.382 318.643 898.318 310.913 898.083 303.94C897.848 296.967 891.11 291.613 878.757 291.613C866.431 291.613 853.138 291.613 853.138 291.613C853.138 291.613 846.373 267.69 841.934 263.982C837.52 260.247 829.085 260.038 822.112 261.187C815.139 262.363 821.406 289.106 821.406 289.106C821.406 289.106 814.877 267.925 812.788 262.572C810.699 257.218 800.696 255.599 801.61 266.985C802.524 278.372 806.494 311.2 816.497 317.938C826.499 324.676 862.174 330.97 862.174 330.97L906.336 427.338C918.062 452.958 952.483 458.965 971.287 437.994C971.548 437.707 971.809 437.393 972.071 437.106C984.606 422.455 983.353 400.491 969.616 386.937L900.382 318.643Z" fill="white"/>
<path d="M969.615 386.937L900.382 318.643C900.382 318.643 898.318 310.913 898.083 303.94C897.848 296.967 891.11 291.613 878.757 291.613C866.431 291.613 853.137 291.613 853.137 291.613C853.137 291.613 846.373 267.69 841.934 263.982C837.52 260.247 829.084 260.038 822.111 261.187C815.138 262.363 821.406 289.106 821.406 289.106C821.406 289.106 814.877 267.925 812.788 262.572C810.699 257.218 800.696 255.599 801.61 266.985C802.524 278.372 806.494 311.2 816.496 317.938C826.499 324.676 862.174 330.97 862.174 330.97L906.336 427.338C914.223 444.549 932.322 452.906 949.062 450.19" stroke="#262424" stroke-width="1.5" stroke-miterlimit="10" stroke-linecap="round" stroke-linejoin="round"/>
<path d="M1016.18 204.307L1066.51 210.496L1175.12 184.014L1219.99 391.951L1261.57 539.638C1261.57 539.638 1156.45 562.15 1094.63 559.486C1032.82 556.823 979.2 545.201 979.2 545.201C979.2 545.201 999.388 418.877 1002.91 367.663C1002.91 367.663 979.958 325.277 974.656 304.958C969.381 284.666 1016.18 204.307 1016.18 204.307Z" fill="#FF1B46"/>
<path d="M987.897 337.917C982.387 326.243 976.928 313.603 974.682 304.985C970.321 288.27 1001.27 230.867 1012.34 211.071" stroke="#262424" stroke-width="1.5" stroke-miterlimit="10" stroke-linecap="round" stroke-linejoin="round"/>
<path d="M987.27 530.314C987.27 530.314 1048.8 539.194 1093.07 539.925C1137.33 540.656 1246.03 525.352 1246.03 525.352" stroke="#262424" stroke-width="1.5" stroke-miterlimit="10" stroke-linecap="round" stroke-linejoin="round"/>
<path d="M1045.35 169.807L1052.14 227.211C1052.14 227.211 1063.92 241.366 1077.4 238.989C1090.87 236.612 1100.56 219.35 1100.56 219.35L1086.54 157.01L1045.35 169.807Z" fill="white" stroke="#262424" stroke-width="1.5" stroke-miterlimit="10" stroke-linecap="round" stroke-linejoin="round"/>
<path d="M1097.14 66.6484C1084.32 79.2886 1110.43 106.032 1120.2 113.893C1129.97 121.754 1134.51 153.955 1158.23 155.469C1181.94 156.984 1161.57 211.358 1227.9 230.841C1279.04 245.858 1335.14 195.035 1312.08 165.289C1289.02 135.543 1229.05 142.385 1208.29 114.911C1195.08 97.4394 1191.55 65.6821 1154.83 68.9466C1127.44 71.3755 1107.27 56.672 1097.14 66.6484Z" fill="#262424"/>
<path d="M1095.6 72.7071L1101.76 70.2261C1103.72 69.4426 1105.97 69.756 1107.61 71.0879C1109.52 72.6288 1111.87 74.9792 1113.2 77.9042C1114.69 81.221 1114.12 84.825 1113.44 87.1233C1112.99 88.6119 1111.97 89.8393 1110.62 90.5706L1103.96 94.1746C1100.72 95.9244 1096.67 94.2791 1095.57 90.7534L1092.2 79.8368C1091.29 76.9641 1092.78 73.8562 1095.6 72.7071Z" fill="white" stroke="#262424" stroke-width="1.5" stroke-miterlimit="10" stroke-linecap="round" stroke-linejoin="round"/>
<path d="M1011.82 140.087C1011.69 161.816 1019.76 187.383 1045.98 188.271C1065.25 188.924 1087.97 167.065 1091.37 137.945C1094.76 108.826 1091.24 83.4672 1055.96 83.0754C1052.8 83.0493 1047.52 83.4149 1044.67 83.8589C1023.99 87.1234 1016.1 88.4553 1012.13 128.491C1011.79 132.043 1011.85 135.987 1011.82 140.087Z" fill="white"/>
<path d="M1044.7 83.8591C1024.02 87.1237 1016.13 88.4556 1012.16 128.492C1011.82 132.043 1011.85 135.987 1011.85 140.087C1011.71 161.816 1019.78 187.384 1046.01 188.272C1053.24 188.533 1060.84 184.955 1069.01 179.47" stroke="#262424" stroke-width="1.5" stroke-miterlimit="10" stroke-linecap="round" stroke-linejoin="round"/>
<path d="M1081.42 141.288C1072.83 136.718 1070.03 129.51 1069.59 122.902C1069.43 120.291 1069.54 116.817 1069.09 113.605C1052.48 127.995 1023.02 134.916 1010.23 137.345C1006.13 138.128 1001.82 136.352 999.806 132.696C987.322 109.871 1008.5 70.4351 1036.26 73.8564C1069.93 54.9744 1105.32 74.3526 1108.06 101.539C1111.09 131.678 1089.96 145.832 1081.42 141.288Z" fill="#262424"/>
<path d="M1082.33 138.624C1082.33 138.624 1097.43 124.835 1112.08 130.528C1126.73 136.222 1119 170.93 1082.36 164.297L1082.33 138.624Z" fill="white"/>
<path d="M1082.33 138.624C1082.33 138.624 1097.43 124.835 1112.08 130.528C1126.73 136.222 1119 170.93 1082.36 164.297" stroke="#262424" stroke-width="1.5" stroke-miterlimit="10" stroke-linecap="round" stroke-linejoin="round"/>
<path d="M1191.26 341.443L1257.96 322.587L1286.14 403.938C1298.55 441.859 1250.08 466.722 1221.01 422.455L1191.26 341.443Z" fill="white" stroke="#262424" stroke-width="1.5" stroke-miterlimit="10" stroke-linecap="round" stroke-linejoin="round"/>
<path d="M1184.37 350.557C1184.37 350.557 1219.29 363.537 1271.83 331.701C1271.83 331.701 1226.02 174.612 1175.12 184.014C1130.23 192.319 1154.78 259.542 1162.93 280.252C1171.05 300.962 1184.37 350.557 1184.37 350.557Z" fill="#FF1B46"/>
<path d="M1158.02 192.633C1137.99 213.499 1156.14 262.99 1162.9 280.252C1171.05 300.962 1184.37 350.557 1184.37 350.557" stroke="#262424" stroke-width="1.5" stroke-miterlimit="10" stroke-linecap="round" stroke-linejoin="round"/>
<path d="M1196.75 340.189C1196.75 340.189 1226.7 344.733 1258.93 324.598" stroke="#262424" stroke-width="1.5" stroke-miterlimit="10" stroke-linecap="round" stroke-linejoin="round"/>
<path d="M1424.38 540.761C1424.51 540.552 1424.61 540.317 1424.72 540.108C1425.55 538.176 1425.19 535.877 1423.7 534.31C1418.42 528.774 1407.11 517.152 1402.49 514.567C1396.38 511.119 1385.91 507.385 1385.91 507.385L1401.55 504.851C1404.16 504.434 1405.96 502.031 1405.68 499.393C1405.47 497.591 1404.32 496.103 1402.73 495.423C1402.13 495.162 1401.45 495.006 1400.72 495.032L1362.79 495.293L1300.43 417.806C1256.61 357.478 1225.27 372.991 1216.94 401.536C1216.39 418.903 1223.65 427.286 1227.93 432.901C1253.42 466.252 1345.38 519.764 1345.38 519.764C1345.38 519.764 1347.88 538.672 1364.73 544.391C1381.57 550.111 1383.32 573.955 1391.23 572.649C1399.15 571.343 1413.67 559.016 1415.39 553.192C1417.09 547.473 1403.12 530.393 1402.67 529.871L1416.25 541.963C1418.76 544.182 1422.65 543.608 1424.38 540.761Z" fill="white"/>
<path d="M1217.82 413.001C1219.83 422.951 1224.72 428.723 1227.93 432.928C1253.42 466.278 1345.37 519.79 1345.37 519.79C1345.37 519.79 1347.88 538.698 1364.73 544.418C1381.57 550.137 1383.32 573.981 1391.23 572.675C1399.15 571.37 1413.67 559.043 1415.39 553.219C1417.09 547.499 1403.12 530.419 1402.67 529.897L1416.25 541.989C1418.74 544.209 1422.63 543.634 1424.35 540.787C1424.48 540.579 1424.59 540.343 1424.69 540.135C1425.53 538.202 1425.16 535.904 1423.67 534.337C1418.4 528.8 1407.09 517.178 1402.46 514.593C1396.35 511.146 1385.88 507.411 1385.88 507.411L1401.52 504.878C1404.14 504.46 1405.94 502.057 1405.65 499.419C1405.44 497.617 1404.29 496.129 1402.7 495.45C1402.1 495.189 1401.42 495.032 1400.69 495.058L1362.77 495.319L1300.4 417.833C1293.93 408.927 1287.74 401.667 1281.83 395.869" stroke="#262424" stroke-width="1.5" stroke-miterlimit="10" stroke-linecap="round" stroke-linejoin="round"/>
<path d="M1292.52 69.7561C1278.89 69.7561 1267.84 58.7066 1267.84 45.0764C1267.84 31.4461 1278.89 20.3966 1292.52 20.3966C1306.15 20.3966 1317.2 31.4461 1317.2 45.0764C1317.2 58.7066 1306.15 69.7561 1292.52 69.7561Z" fill="#000A1D"/>
<path d="M123.008 164.192C112.306 164.192 103.63 155.516 103.63 144.814C103.63 134.112 112.306 125.436 123.008 125.436C133.71 125.436 142.386 134.112 142.386 144.814C142.386 155.516 133.71 164.192 123.008 164.192Z" fill="#FF1B46"/>
<path d="M87.4379 817.227C73.8076 817.227 62.7581 806.177 62.7581 792.547C62.7581 778.917 73.8076 767.867 87.4379 767.867C101.068 767.867 112.118 778.917 112.118 792.547C112.118 806.177 101.068 817.227 87.4379 817.227Z" fill="#000A1D"/>
<path d="M504.565 832.113C490.935 832.113 479.885 821.063 479.885 807.433C479.885 793.803 490.935 782.753 504.565 782.753C518.195 782.753 529.245 793.803 529.245 807.433C529.245 821.063 518.195 832.113 504.565 832.113Z" fill="#FF1B46"/>
<path d="M504.565 182.212C497.123 182.212 491.089 176.179 491.089 168.736C491.089 161.294 497.123 155.26 504.565 155.26C512.008 155.26 518.041 161.294 518.041 168.736C518.041 176.179 512.008 182.212 504.565 182.212Z" fill="#000A1D"/>
<path d="M1326.31 656.743C1318.51 656.743 1312.18 650.417 1312.18 642.614C1312.18 634.811 1318.51 628.485 1326.31 628.485C1334.11 628.485 1340.44 634.811 1340.44 642.614C1340.44 650.417 1334.11 656.743 1326.31 656.743Z" fill="#FF1B46"/>
</svg>
