<svg width="512" height="512" viewBox="0 0 512 512" fill="none" xmlns="http://www.w3.org/2000/svg">
<path d="M493.736 387.912H461.757C470.587 387.912 477.747 380.745 477.747 371.923C477.747 363.085 470.587 355.934 461.757 355.934H429.778C438.608 355.934 445.768 348.767 445.768 339.945C445.768 331.108 438.608 323.956 429.778 323.956H381.811C390.641 323.956 397.801 316.79 397.801 307.968C397.801 299.13 390.641 291.979 381.811 291.979H469.75C478.58 291.979 485.74 284.812 485.74 275.99C485.74 267.152 478.58 259.997 469.75 259.997H429.777C438.607 259.997 445.767 252.838 445.767 244.008C445.767 235.178 438.607 228.019 429.777 228.019H413.789C422.619 228.019 429.777 220.86 429.777 212.03C429.777 203.2 422.619 196.041 413.789 196.041H493.734C502.564 196.041 509.724 188.882 509.724 180.052C509.724 171.222 502.564 164.063 493.734 164.063H461.755C470.585 164.063 477.745 156.904 477.745 148.074C477.745 139.244 470.585 132.085 461.755 132.085H429.776C438.606 132.085 445.766 124.926 445.766 116.096C445.766 107.266 438.606 100.107 429.776 100.107H405.794C414.624 100.107 421.782 92.948 421.782 84.118C421.782 75.288 414.624 68.129 405.794 68.129H165.959C157.129 68.129 149.97 75.288 149.97 84.118C149.97 92.948 157.129 100.107 165.959 100.107H109.997C101.167 100.107 94.008 107.266 94.008 116.096C94.008 124.926 101.167 132.085 109.997 132.085H94.008C85.178 132.085 78.019 139.244 78.019 148.074C78.019 156.904 85.178 164.063 94.008 164.063H141.976C133.146 164.063 125.987 171.222 125.987 180.052C125.987 188.882 133.146 196.041 141.976 196.041H54.036C45.206 196.041 38.047 203.201 38.047 212.03C38.047 220.859 45.206 228.019 54.036 228.019H94.009C85.179 228.019 78.02 235.178 78.02 244.008C78.02 252.838 85.179 259.997 94.009 259.997H54.036C45.206 259.997 38.047 267.152 38.047 275.99C38.047 284.812 45.206 291.979 54.036 291.979H38.046C29.216 291.979 22.057 299.13 22.057 307.968C22.057 316.79 29.216 323.956 38.046 323.956H78.02C69.19 323.956 62.031 331.108 62.031 339.945C62.031 348.767 69.19 355.934 78.02 355.934H62.03C53.2 355.934 46.041 363.085 46.041 371.923C46.041 380.745 53.2 387.912 62.03 387.912H141.976C133.146 387.912 125.987 395.063 125.987 403.901C125.987 412.722 133.146 419.89 141.976 419.89H109.997C101.167 419.89 94.008 427.04 94.008 435.878C94.008 444.7 101.167 451.867 109.997 451.867H381.812C390.642 451.867 397.802 444.7 397.802 435.878C397.802 427.04 390.642 419.89 381.812 419.89H493.736C502.566 419.89 509.726 412.722 509.726 403.901C509.727 395.063 502.566 387.912 493.736 387.912Z" fill="#FF8DA3"/>
<path d="M438.033 399.904C435.822 399.904 433.996 398.124 433.996 395.906C433.996 393.705 435.744 391.909 437.947 391.909H438.033C440.234 391.909 442.029 393.705 442.029 395.906C442.029 398.124 440.234 399.904 438.033 399.904Z" fill="#3A3847"/>
<path d="M126.229 8.167C124.019 8.167 122.192 6.379 122.192 4.17C122.192 1.961 123.941 0.171997 126.143 0.171997H126.229C128.43 0.171997 130.226 1.96 130.226 4.17C130.226 6.38 128.43 8.167 126.229 8.167Z" fill="#99102A"/>
<path d="M302.109 24.156C299.9 24.156 298.072 22.368 298.072 20.158C298.072 17.949 299.822 16.161 302.023 16.161H302.109C304.31 16.161 306.107 17.949 306.107 20.158C306.107 22.368 304.311 24.156 302.109 24.156Z" fill="#99102A"/>
<path d="M6.31105 120.09C4.10205 120.09 2.27405 118.302 2.27405 116.092C2.27405 113.883 4.02305 112.095 6.22505 112.095H6.31105C8.51305 112.095 10.308 113.883 10.308 116.092C10.308 118.303 8.51205 120.09 6.31105 120.09Z" fill="#99102A"/>
<path d="M70.259 335.947C68.049 335.947 66.223 334.151 66.223 331.95C66.223 329.732 67.972 327.953 70.173 327.953H70.259C72.46 327.953 74.256 329.732 74.256 331.95C74.256 334.151 72.46 335.947 70.259 335.947Z" fill="#99102A"/>
<path d="M269.725 503.833C267.516 503.833 265.69 502.037 265.69 499.836C265.69 497.618 267.438 495.838 269.639 495.838H269.725C271.926 495.838 273.723 497.618 273.723 499.836C273.723 502.037 271.926 503.833 269.725 503.833Z" fill="#99102A"/>
<path d="M462 511.828C459.791 511.828 457.965 510.048 457.965 507.83C457.965 505.629 459.713 503.833 461.914 503.833H462C464.201 503.833 465.998 505.629 465.998 507.83C465.998 510.048 464.201 511.828 462 511.828Z" fill="#99102A"/>
<path d="M374.076 295.975C371.867 295.975 370.039 294.179 370.039 291.978C370.039 289.76 371.789 287.981 373.99 287.981H374.076C376.277 287.981 378.072 289.76 378.072 291.978C378.072 294.179 376.277 295.975 374.076 295.975Z" fill="#99102A"/>
<path d="M470.002 263.992C467.793 263.992 465.967 262.205 465.967 259.995C465.967 257.785 467.715 255.998 469.916 255.998H470.002C472.205 255.998 474 257.785 474 259.995C474 262.205 472.205 263.992 470.002 263.992Z" fill="#99102A"/>
<path d="M422.035 375.904C419.826 375.904 417.998 374.125 417.998 371.907C417.998 369.705 419.748 367.91 421.949 367.91H422.035C424.236 367.91 426.033 369.705 426.033 371.907C426.033 374.125 424.236 375.904 422.035 375.904Z" fill="#3A3847"/>
<path d="M182.909 123.135C184.267 124.493 185.384 125.938 186.345 127.531C183.23 132.731 178.108 139.288 171.636 145.761C165.164 152.233 158.606 157.354 153.407 160.469C151.814 159.509 150.37 158.392 149.011 157.034C139.658 147.68 139.658 132.488 149.011 123.135C158.364 113.782 173.556 113.782 182.909 123.135Z" fill="#FF8DA3"/>
<path d="M157.004 131.13C164.952 123.182 177.076 122.058 186.289 127.609C186.305 127.586 186.328 127.554 186.344 127.531C185.384 125.938 184.267 124.494 182.908 123.135C173.555 113.782 158.363 113.782 149.01 123.135C139.657 132.488 139.657 147.68 149.01 157.034C150.368 158.392 151.813 159.509 153.406 160.469C153.429 160.453 153.461 160.43 153.484 160.414C147.933 151.202 149.057 139.077 157.004 131.13Z" fill="white"/>
<path d="M186.344 127.531C192.098 136.806 190.904 149.04 182.908 157.034C174.914 165.028 162.68 166.223 153.405 160.469C158.604 157.354 165.163 152.232 171.634 145.761C178.107 139.288 183.229 132.73 186.344 127.531Z" fill="#FF1B46"/>
<path d="M136.136 385.835C140.859 390.473 140.774 398.062 136.136 402.793C131.42 407.43 84.257 446.997 79.619 442.359C74.904 437.643 114.471 390.472 119.194 385.835C123.832 381.119 131.42 381.119 136.136 385.835Z" fill="#D7E9FF"/>
<path d="M136.136 402.793C140.774 398.062 140.859 390.473 136.136 385.835C131.42 381.119 123.832 381.119 119.195 385.835C114.471 390.473 74.9041 437.644 79.6201 442.359C84.2571 446.997 131.42 407.43 136.136 402.793ZM56.9951 464.984C42.9271 450.916 88.1691 382.883 102.245 368.893C116.236 354.825 139.017 354.825 153.085 368.893C167.161 382.961 167.161 405.665 153.085 419.734C139.017 433.803 71.0631 478.975 56.9951 464.984Z" fill="#FF8DA3"/>
<path d="M153.085 368.894C145.028 360.837 134.121 357.542 123.636 358.729C131.467 359.604 139.079 362.882 145.091 368.894C159.167 382.962 159.167 405.666 145.091 419.735C133.661 431.165 86.6851 463.112 61.9131 467.202C82.5391 471.247 140.234 432.586 153.085 419.735C167.162 405.666 167.162 382.962 153.085 368.894Z" fill="white"/>
<path d="M64.989 464.984C50.92 450.916 96.163 382.883 110.239 368.893C116.219 362.881 123.816 359.603 131.631 358.728C121.146 357.541 110.255 360.836 102.245 368.893C88.168 382.883 42.926 450.915 56.995 464.984C59.634 467.607 64.178 468.154 69.908 467.201C67.948 466.812 66.208 466.187 64.989 464.984Z" fill="#D7E9FF"/>
<path d="M453.764 355.934C458.159 355.934 461.758 359.541 461.758 363.928C461.758 368.332 458.158 371.923 453.764 371.923C449.37 371.923 445.77 368.332 445.77 363.928C445.77 359.541 449.369 355.934 453.764 355.934Z" fill="#FF8DA3"/>
<path d="M461.758 363.928C461.758 359.541 458.158 355.934 453.764 355.934C449.37 355.934 445.77 359.541 445.77 363.928C445.77 368.332 449.37 371.923 453.764 371.923C458.158 371.923 461.758 368.332 461.758 363.928ZM441.771 339.944C461.679 339.944 477.748 356.011 477.748 375.92C477.748 395.75 461.68 411.896 441.771 411.896C421.941 411.896 405.796 395.829 405.796 375.92C405.796 356.011 421.863 339.944 441.771 339.944Z" fill="#FF8DA3"/>
<path d="M413.791 383.914C413.791 364.006 429.857 347.939 449.766 347.939C457.676 347.939 464.912 350.546 470.838 354.856C464.303 345.846 453.772 339.944 441.772 339.944C421.864 339.944 405.797 356.011 405.797 375.92C405.797 387.912 411.715 398.42 420.701 404.963C416.398 399.045 413.791 391.815 413.791 383.914Z" fill="white"/>
<path d="M470.291 368.301C470.299 388.209 454.232 404.276 434.324 404.276C426.408 404.276 419.17 401.669 413.252 397.375C419.779 406.369 430.318 412.271 442.318 412.271C462.226 412.271 478.293 396.204 478.293 376.295C478.293 364.303 472.377 353.795 463.391 347.268C467.691 353.186 470.299 360.415 470.291 368.301Z" fill="#FF1B46"/>
<path d="M361.904 91.477C390.127 63.176 441.052 57.578 452.328 68.852C463.68 80.204 463.68 125.376 429.701 159.353L424.103 153.677L367.501 97.153L357.587 95.795C359.43 93.96 360.865 92.516 361.904 91.477Z" fill="#FF1B46"/>
<path d="M452.328 68.852C451.195 67.72 449.57 66.807 447.705 66.026C455.217 82.375 451.828 121.208 421.746 151.32L424.103 153.677L429.701 159.353C463.68 125.376 463.68 80.204 452.328 68.852Z" fill="white"/>
<path d="M369.859 99.511C369.875 99.495 369.89 99.48 369.898 99.472C395.287 74.013 438.968 66.971 455.699 74.021C454.74 71.92 453.615 70.141 452.328 68.852C441.053 57.579 390.127 63.176 361.904 91.477C360.865 92.516 359.429 93.96 357.588 95.794L367.502 97.152L369.859 99.511Z" fill="#D7E9FF"/>
<path d="M361.904 159.353C371.258 168.707 371.258 183.899 361.904 193.252C352.55 202.605 337.367 202.605 327.927 193.252C318.573 183.899 318.573 168.707 327.927 159.353C337.367 149.922 352.551 149.922 361.904 159.353Z" fill="#FF8DA3"/>
<path d="M335.922 167.348C343.955 159.314 356.135 158.19 365.356 163.834C364.387 162.249 363.28 160.727 361.905 159.353C352.551 149.922 337.368 149.922 327.928 159.353C318.574 168.707 318.574 183.899 327.928 193.252C329.309 194.626 330.848 195.735 332.44 196.703C326.842 187.474 327.959 175.311 335.922 167.348Z" fill="white"/>
<path d="M305.389 215.877C314.741 225.23 314.741 240.415 305.389 249.768C295.95 259.122 280.842 259.122 271.412 249.768C262.051 240.415 262.051 225.23 271.412 215.877C280.842 206.516 295.949 206.516 305.389 215.877Z" fill="#FF8DA3"/>
<path d="M279.039 224.23C287.072 216.196 299.252 215.072 308.473 220.717C307.504 219.132 306.395 217.61 305.022 216.236C295.668 206.805 280.483 206.805 271.045 216.236C261.691 225.589 261.691 240.782 271.045 250.135C272.426 251.509 273.965 252.617 275.557 253.586C269.959 244.357 271.076 232.194 279.039 224.23Z" fill="white"/>
<path d="M206.729 241.617L209.29 244.17C189.788 263.602 172.432 280.953 160.12 293.336L160.042 293.258C152.048 279.751 113.434 272.709 113.434 272.709C169.957 216.189 206.729 241.617 206.729 241.617Z" fill="#FF8DA3"/>
<path d="M280.203 315.164C280.203 315.164 305.709 351.936 249.184 408.383C249.184 408.383 241.83 368.332 227.761 361.289C240.065 348.985 257.498 331.56 277.088 312.042L280.203 315.164Z" fill="#FF8DA3"/>
<path d="M209.29 379.762L198.017 368.489L192.263 374.173C192.263 374.173 186.665 379.763 164.04 357.137C141.415 334.59 147.09 328.922 147.09 328.922L152.766 323.317L141.414 311.965C141.414 311.965 148.534 304.861 160.12 293.337C172.432 280.954 189.787 263.603 209.29 244.171C264.291 189.091 340.319 113.065 361.905 91.478L367.503 97.154L424.105 153.678L429.703 159.354C412.59 176.459 335.369 253.688 277.09 312.043C257.5 331.561 240.068 348.986 227.763 361.29C216.246 372.812 209.29 379.762 209.29 379.762ZM361.904 193.251C371.258 183.898 371.258 168.706 361.904 159.352C352.55 149.921 337.367 149.921 327.927 159.352C318.573 168.706 318.573 183.898 327.927 193.251C337.367 202.604 352.551 202.604 361.904 193.251ZM305.389 249.768C314.741 240.415 314.741 225.23 305.389 215.877C295.95 206.516 280.842 206.516 271.412 215.877C262.051 225.23 262.051 240.415 271.412 249.768C280.842 259.121 295.949 259.121 305.389 249.768Z" fill="white"/>
<path d="M249.184 412.38C248.786 412.38 248.388 412.318 247.997 412.192C246.576 411.754 245.522 410.568 245.249 409.1C242.556 394.438 234.982 369.579 226.105 364.943C224.708 364.302 223.724 362.913 223.724 361.289C223.724 358.463 226.995 356.465 229.548 357.714C241.438 363.663 248.535 387.6 251.525 400.2C298.094 350.203 277.819 318.787 276.907 317.429C275.673 315.602 276.134 313.119 277.952 311.886C279.764 310.637 282.247 311.09 283.487 312.885C284.604 314.509 310.227 353.076 252.009 411.209C251.246 411.974 250.23 412.38 249.184 412.38Z" fill="#99102A"/>
<path d="M160.042 297.255C158.676 297.255 157.349 296.553 156.599 295.303C151.454 286.59 126.955 279.237 112.715 276.645C111.255 276.379 110.061 275.317 109.616 273.912C109.179 272.491 109.554 270.946 110.608 269.884C168.826 211.662 207.385 237.215 209.002 238.331C210.821 239.588 211.274 242.079 210.017 243.89C208.775 245.709 206.277 246.147 204.474 244.921C203.084 243.984 171.668 223.834 121.624 270.369C133.881 273.258 156.842 280.003 163.486 291.229C164.61 293.134 163.978 295.585 162.081 296.71C161.439 297.083 160.737 297.255 160.042 297.255Z" fill="#99102A"/>
<path d="M80.7601 446.731C78.7611 446.731 77.4971 445.888 76.7941 445.185C76.0761 444.466 75.2251 443.186 75.2321 441.141C75.2871 429.789 114.362 384.992 116.392 382.993C122.286 376.982 132.88 376.935 138.962 383.009C145.184 389.114 145.208 399.264 138.985 405.588C138.517 406.056 92.3141 446.731 80.7601 446.731ZM127.634 386.304C125.518 386.304 123.528 387.131 122.044 388.646C116.329 394.252 91.4631 424.84 84.8431 437.114C97.1781 430.462 127.681 405.495 133.333 399.936C134.801 398.436 135.644 396.407 135.651 394.268C135.659 392.144 134.832 390.161 133.333 388.693C131.788 387.146 129.765 386.304 127.634 386.304Z" fill="#99102A"/>
<path d="M65.0911 471.637C60.3991 471.637 56.7211 470.356 54.1761 467.811C51.6081 465.25 50.3121 461.549 50.3201 456.803C50.3591 431.757 87.2011 378.199 99.4271 366.052C106.929 358.51 116.954 354.341 127.635 354.341C138.315 354.341 148.355 358.51 155.912 366.068C163.477 373.626 167.639 383.65 167.639 394.314C167.639 404.963 163.478 415.003 155.912 422.561C143.678 434.802 89.9801 471.637 65.0911 471.637ZM127.634 362.336C119.101 362.336 111.09 365.661 105.079 371.704C92.2751 384.43 58.3451 435.707 58.3141 456.818C58.3061 459.347 58.8141 461.143 59.8211 462.158C60.8131 463.142 62.5851 463.641 65.0911 463.641C86.0691 463.641 137.456 429.711 150.259 416.908C156.31 410.865 159.643 402.84 159.643 394.313C159.643 385.788 156.31 377.762 150.259 371.719C144.208 365.661 136.175 362.336 127.634 362.336Z" fill="#99102A"/>
<path d="M209.29 383.759C208.267 383.759 207.244 383.368 206.464 382.588C204.902 381.026 204.902 378.496 206.464 376.936L224.936 358.463C237.24 346.159 254.673 328.734 274.27 309.216C332.541 250.861 409.762 173.632 426.875 156.527C441.264 142.138 450.922 123.823 454.068 104.961C456.886 88.051 453.677 75.856 449.502 71.679C446.822 69.001 440.156 67.401 431.662 67.401C431.646 67.401 431.631 67.401 431.615 67.401C412.306 67.417 383.148 75.841 364.738 94.305L360.406 98.63C338.826 120.209 267.117 191.918 212.115 246.998C192.613 266.434 175.265 283.766 162.953 296.164L144.24 314.79C142.678 316.352 140.149 316.352 138.588 314.79C137.027 313.228 137.026 310.699 138.588 309.138L157.302 290.51C169.598 278.127 186.962 260.776 206.472 241.336C261.466 186.264 333.175 114.555 354.763 92.968L359.079 88.651C379.206 68.469 410.005 59.421 431.608 59.405C431.624 59.405 431.647 59.405 431.663 59.405C439.376 59.405 449.688 60.56 455.155 66.025C467.778 78.65 468.794 125.914 432.528 162.178C415.415 179.283 338.194 256.513 279.915 314.867C260.325 334.385 242.893 351.81 230.588 364.114L212.116 382.587C211.335 383.368 210.312 383.759 209.29 383.759Z" fill="#99102A"/>
<path d="M175.312 349.859C174.289 349.859 173.267 349.469 172.486 348.688C170.925 347.126 170.925 344.597 172.486 343.036L240.283 275.238C241.845 273.677 244.374 273.677 245.935 275.238C247.497 276.8 247.497 279.33 245.935 280.89L178.138 348.688C177.358 349.47 176.335 349.859 175.312 349.859Z" fill="#99102A"/>
<path d="M164.039 338.586C163.016 338.586 161.994 338.195 161.213 337.415L138.588 314.79C137.026 313.228 137.026 310.699 138.588 309.138C140.15 307.577 142.679 307.576 144.24 309.138L166.865 331.763C168.426 333.325 168.426 335.854 166.865 337.415C166.084 338.195 165.062 338.586 164.039 338.586Z" fill="#99102A"/>
<path d="M209.29 383.759C208.267 383.759 207.244 383.368 206.464 382.588L183.839 359.962C182.277 358.4 182.277 355.871 183.839 354.31C185.4 352.748 187.93 352.748 189.491 354.31L212.116 376.936C213.678 378.497 213.678 381.027 212.116 382.588C211.335 383.368 210.312 383.759 209.29 383.759Z" fill="#99102A"/>
<path d="M344.947 204.26C337.476 204.26 330.433 201.364 325.117 196.093C314.195 185.171 314.195 167.433 325.101 156.526C335.757 145.885 354.183 145.908 364.746 156.534C375.637 167.433 375.637 185.171 364.73 196.077C359.453 201.355 352.426 204.26 344.947 204.26ZM344.947 156.276C339.607 156.276 334.564 158.377 330.754 162.178C322.971 169.97 322.971 182.633 330.754 190.425C338.358 197.951 351.537 197.967 359.078 190.425C366.861 182.633 366.861 169.97 359.078 162.178C355.299 158.369 350.287 156.276 344.947 156.276Z" fill="#99102A"/>
<path d="M288.4 260.783C280.943 260.783 273.91 257.879 268.593 252.609C263.298 247.316 260.394 240.297 260.394 232.826C260.394 225.347 263.298 218.328 268.585 213.051C279.226 202.488 297.548 202.495 308.206 213.035C319.112 223.949 319.112 241.695 308.214 252.594C302.883 257.879 295.848 260.783 288.4 260.783ZM288.4 212.855C283.068 212.855 278.031 214.932 274.23 218.71C270.466 222.473 268.39 227.485 268.39 232.825C268.39 238.157 270.466 243.17 274.238 246.94C281.818 254.459 294.933 254.49 302.578 246.924C310.346 239.156 310.346 226.485 302.562 218.701C298.76 214.932 293.725 212.855 288.4 212.855Z" fill="#99102A"/>
<path d="M441.771 415.893C419.732 415.893 401.798 397.968 401.798 375.92C401.798 353.889 419.732 335.947 441.771 335.947C463.812 335.947 481.744 353.888 481.744 375.92C481.744 397.968 463.812 415.893 441.771 415.893ZM441.771 343.941C424.134 343.941 409.792 358.291 409.792 375.92C409.792 393.565 424.134 407.899 441.771 407.899C459.408 407.899 473.75 393.565 473.75 375.92C473.75 358.291 459.408 343.941 441.771 343.941Z" fill="#99102A"/>
<path d="M453.764 375.92C447.151 375.92 441.772 370.549 441.772 363.928C441.772 357.324 447.151 351.937 453.764 351.937C460.377 351.937 465.756 357.324 465.756 363.928C465.756 370.549 460.377 375.92 453.764 375.92ZM453.764 359.931C451.563 359.931 449.766 361.727 449.766 363.928C449.766 366.13 451.563 367.926 453.764 367.926C455.965 367.926 457.762 366.13 457.762 363.928C457.762 361.727 455.965 359.931 453.764 359.931Z" fill="#99102A"/>
<path d="M341.84 463.86C339.631 463.86 337.842 462.08 337.842 459.863V427.884C337.842 425.683 339.631 423.887 341.84 423.887C344.049 423.887 345.838 425.683 345.838 427.884V459.863C345.838 462.08 344.049 463.86 341.84 463.86Z" fill="#99102A"/>
<path d="M349.834 447.871H333.846C331.637 447.871 329.848 446.091 329.848 443.874C329.848 441.672 331.637 439.877 333.846 439.877H349.834C352.043 439.877 353.832 441.672 353.832 443.874C353.832 446.091 352.043 447.871 349.834 447.871Z" fill="#99102A"/>
<path d="M181.949 495.838C179.74 495.838 177.952 494.059 177.952 491.841V459.863C177.952 457.661 179.74 455.865 181.949 455.865C184.158 455.865 185.946 457.661 185.946 459.863V491.841C185.946 494.059 184.158 495.838 181.949 495.838Z" fill="#99102A"/>
<path d="M189.943 479.85H173.954C171.745 479.85 169.956 478.07 169.956 475.852C169.956 473.651 171.744 471.855 173.954 471.855H189.943C192.153 471.855 193.941 473.651 193.941 475.852C193.94 478.069 192.153 479.85 189.943 479.85Z" fill="#99102A"/>
<path d="M84.8121 99.151C82.6021 99.151 80.8141 97.363 80.8141 95.154V63.176C80.8141 60.967 82.6021 59.179 84.8121 59.179C87.0211 59.179 88.8091 60.967 88.8091 63.176V95.155C88.8091 97.364 87.0211 99.151 84.8121 99.151Z" fill="#99102A"/>
<path d="M92.8061 83.162H76.8171C74.6081 83.162 72.8201 81.374 72.8201 79.165C72.8201 76.956 74.6081 75.168 76.8171 75.168H92.8061C95.0151 75.168 96.8031 76.956 96.8031 79.165C96.8031 81.375 95.0161 83.162 92.8061 83.162Z" fill="#99102A"/>
<path d="M245.905 72.131C243.696 72.131 241.908 70.343 241.908 68.134V36.155C241.908 33.946 243.696 32.158 245.905 32.158C248.115 32.158 249.903 33.946 249.903 36.155V68.134C249.902 70.343 248.115 72.131 245.905 72.131Z" fill="#99102A"/>
<path d="M253.9 56.142H237.911C235.702 56.142 233.914 54.354 233.914 52.145C233.914 49.936 235.702 48.148 237.911 48.148H253.9C256.109 48.148 257.897 49.936 257.897 52.145C257.897 54.354 256.109 56.142 253.9 56.142Z" fill="#99102A"/>
<path d="M30.0521 256.006C27.8431 256.006 26.0551 254.218 26.0551 252.008V220.03C26.0551 217.821 27.8431 216.033 30.0521 216.033C32.2611 216.033 34.0491 217.821 34.0491 220.03V252.008C34.0491 254.218 32.2611 256.006 30.0521 256.006Z" fill="#99102A"/>
<path d="M38.0461 240.017H22.0581C19.8491 240.017 18.0601 238.229 18.0601 236.02C18.0601 233.81 19.8481 232.022 22.0581 232.022H38.0471C40.2571 232.022 42.0451 233.81 42.0451 236.02C42.0441 238.229 40.2561 240.017 38.0461 240.017Z" fill="#99102A"/>
<path d="M165.999 168.05C160.792 168.05 155.709 166.606 151.298 163.865C149.432 162.741 147.746 161.422 146.185 159.86C135.278 148.953 135.278 131.215 146.185 120.309C156.74 109.754 175.181 109.754 185.736 120.309C187.298 121.87 188.617 123.557 189.765 125.47C196.604 136.478 194.957 150.64 185.736 159.861C180.458 165.146 173.447 168.05 165.999 168.05ZM165.959 120.122C160.619 120.122 155.606 122.191 151.836 125.962C144.052 133.754 144.052 146.417 151.836 154.209C152.937 155.31 154.123 156.238 155.466 157.051C163.226 161.852 173.68 160.618 180.082 154.209C186.664 147.627 187.843 137.525 182.947 129.64C182.112 128.25 181.183 127.064 180.082 125.963C176.312 122.19 171.299 120.122 165.959 120.122Z" fill="#99102A"/>
<path d="M145.31 167.402C143.522 167.402 141.859 166.879 140.517 165.544C138.948 163.99 138.948 161.453 140.501 159.892C141.875 158.502 144.014 158.33 145.575 159.4C146.169 159.33 147.894 158.963 151.462 156.98C156.662 153.857 163.024 148.72 168.81 142.935C174.595 137.15 179.732 130.787 182.917 125.478C184.854 122.003 185.213 120.294 185.275 119.701C184.213 118.139 184.384 116 185.766 114.626C187.328 113.08 189.857 113.064 191.418 114.642C195.26 118.507 192.356 124.963 189.834 129.475C186.219 135.526 180.778 142.271 174.461 148.587C168.145 154.902 161.399 160.344 155.459 163.897C152.445 165.583 148.651 167.402 145.31 167.402Z" fill="#99102A"/>
<path d="M424.104 157.674C423.083 157.674 422.059 157.284 421.278 156.503L364.676 99.979C363.115 98.418 363.115 95.888 364.676 94.327C366.238 92.766 368.768 92.766 370.328 94.327L426.93 150.851C428.492 152.413 428.492 154.942 426.93 156.503C426.15 157.284 425.127 157.674 424.104 157.674Z" fill="#99102A"/>
<path d="M190.076 378.902C184.994 378.902 176.211 374.967 161.213 359.962C148.776 347.58 142.468 337.915 142.46 331.247C142.46 328.219 143.717 326.641 144.263 326.095C145.825 324.533 148.354 324.533 149.915 326.095C151.266 327.438 151.445 329.514 150.462 331.061C150.392 332.013 150.681 338.18 166.857 354.31C183.025 370.471 189.35 370.815 190.138 370.784C191.692 369.815 193.745 370.003 195.088 371.346C196.65 372.907 196.65 375.436 195.088 376.998C194.073 378.013 192.488 378.902 190.076 378.902Z" fill="#99102A"/>
</svg>
