<svg width="1000" height="1000" viewBox="0 0 1000 1000" fill="none" xmlns="http://www.w3.org/2000/svg">
<g clip-path="url(#clip0_407_650)">
<path d="M892.851 630.373L919.647 381.666H887.359L860.562 630.373H892.851Z" fill="white"/>
<path d="M892.851 632.837H860.562C860.217 632.839 859.874 632.768 859.558 632.628C859.242 632.489 858.958 632.284 858.726 632.028C858.495 631.771 858.32 631.469 858.213 631.14C858.106 630.811 858.07 630.463 858.107 630.119L884.92 381.404C884.985 380.8 885.272 380.24 885.725 379.835C886.179 379.43 886.767 379.208 887.375 379.211H919.664C920.009 379.209 920.352 379.28 920.668 379.419C920.984 379.559 921.268 379.764 921.499 380.02C921.731 380.277 921.906 380.579 922.013 380.908C922.12 381.237 922.156 381.585 922.119 381.928L895.322 630.635C895.259 631.244 894.971 631.808 894.513 632.215C894.056 632.622 893.463 632.844 892.851 632.837V632.837ZM863.296 627.926H890.649L916.914 384.13H889.561L863.296 627.926Z" fill="#262424"/>
<path d="M878.536 630.373L905.332 381.666H873.036L846.247 630.373H878.536Z" fill="white"/>
<path d="M878.536 632.837H846.247C845.902 632.839 845.559 632.768 845.243 632.628C844.927 632.489 844.643 632.284 844.412 632.028C844.18 631.771 844.005 631.469 843.898 631.14C843.791 630.811 843.755 630.463 843.792 630.119L870.597 381.404C870.662 380.8 870.949 380.24 871.402 379.835C871.856 379.43 872.444 379.208 873.052 379.211H905.34C905.686 379.209 906.028 379.28 906.345 379.419C906.661 379.559 906.945 379.764 907.176 380.02C907.408 380.277 907.583 380.579 907.69 380.908C907.797 381.237 907.833 381.585 907.796 381.928L880.999 630.635C880.936 631.243 880.649 631.805 880.193 632.212C879.738 632.619 879.147 632.842 878.536 632.837V632.837ZM848.981 627.926H876.334L902.599 384.13H875.246L848.981 627.926Z" fill="#262424"/>
<path d="M988.906 405.304H810.44C801.109 405.304 794.365 397.741 795.372 388.411L810.922 244.361C811.929 235.03 820.302 227.468 829.633 227.468H1008.06C1017.39 227.468 1024.13 235.03 1023.13 244.361L1007.57 388.411C1006.62 397.741 998.236 405.304 988.906 405.304Z" fill="white"/>
<path d="M988.906 407.759H810.439C807.94 407.807 805.46 407.314 803.169 406.314C800.878 405.314 798.83 403.83 797.166 401.964C795.502 400.098 794.262 397.895 793.53 395.504C792.797 393.114 792.591 390.594 792.924 388.116L808.475 244.066C809.613 233.541 819.115 224.98 829.624 224.98H1008.05C1010.55 224.931 1013.03 225.424 1015.32 226.424C1017.61 227.425 1019.66 228.909 1021.32 230.775C1022.99 232.64 1024.23 234.844 1024.96 237.234C1025.69 239.625 1025.9 242.145 1025.56 244.623L1010.01 388.672C1008.93 399.198 999.439 407.759 988.906 407.759ZM829.616 229.939C825.588 230.035 821.728 231.575 818.741 234.28C815.754 236.984 813.839 240.673 813.345 244.672L797.794 388.722C797.562 390.523 797.717 392.353 798.248 394.091C798.778 395.828 799.673 397.432 800.872 398.797C802.082 400.118 803.56 401.166 805.207 401.872C806.854 402.577 808.632 402.924 810.423 402.889H988.848C992.877 402.794 996.737 401.253 999.724 398.549C1002.71 395.844 1004.63 392.156 1005.12 388.157L1020.67 244.107C1020.9 242.305 1020.75 240.475 1020.22 238.738C1019.69 237.001 1018.79 235.396 1017.59 234.032C1016.38 232.711 1014.9 231.663 1013.26 230.957C1011.61 230.251 1009.83 229.905 1008.04 229.939H829.616V229.939Z" fill="#262424"/>
<path d="M950.593 405.304H772.168C762.838 405.304 756.094 397.741 757.1 388.411L772.651 244.361C773.658 235.03 782.031 227.468 791.361 227.468H969.786C979.117 227.468 985.861 235.03 984.854 244.361L969.304 388.411C968.297 397.741 959.924 405.304 950.593 405.304Z" fill="#000A1D"/>
<path d="M950.593 407.759H772.168C769.669 407.807 767.188 407.314 764.897 406.314C762.606 405.314 760.558 403.83 758.895 401.964C757.231 400.098 755.99 397.895 755.258 395.504C754.526 393.114 754.32 390.594 754.653 388.116L770.204 244.066C771.341 233.541 780.844 224.98 791.353 224.98H969.778C972.278 224.931 974.758 225.424 977.049 226.424C979.34 227.425 981.388 228.909 983.051 230.775C984.715 232.64 985.956 234.844 986.688 237.234C987.42 239.625 987.626 242.145 987.293 244.623L971.742 388.672C970.613 399.198 961.127 407.759 950.593 407.759ZM791.304 229.939C787.275 230.035 783.415 231.575 780.428 234.28C777.441 236.984 775.526 240.673 775.033 244.672L759.482 388.722C759.25 390.523 759.405 392.353 759.935 394.091C760.466 395.828 761.36 397.432 762.559 398.797C763.77 400.118 765.247 401.166 766.894 401.872C768.541 402.577 770.319 402.924 772.111 402.889H950.536C954.564 402.794 958.424 401.253 961.411 398.549C964.398 395.844 966.313 392.156 966.807 388.157L982.358 244.107C982.59 242.305 982.435 240.475 981.904 238.738C981.374 237.001 980.479 235.396 979.28 234.032C978.07 232.711 976.592 231.663 974.945 230.957C973.298 230.251 971.52 229.905 969.729 229.939H791.304V229.939Z" fill="#000A1D"/>
<path d="M799.8 687.674H763.296V769.52H799.8V687.674Z" fill="white"/>
<path d="M799.799 771.976H763.296C762.645 771.976 762.02 771.717 761.56 771.257C761.099 770.796 760.841 770.172 760.841 769.52V687.674C760.841 687.023 761.099 686.398 761.56 685.938C762.02 685.477 762.645 685.219 763.296 685.219H799.799C800.451 685.219 801.075 685.477 801.536 685.938C801.996 686.398 802.255 687.023 802.255 687.674V769.52C802.255 770.172 801.996 770.796 801.536 771.257C801.075 771.717 800.451 771.976 799.799 771.976ZM765.751 767.065H797.344V690.129H765.751V767.065Z" fill="#262424"/>
<path d="M723.682 663.12H839.397C839.397 671.369 836.12 679.279 830.287 685.112C824.454 690.945 816.544 694.222 808.295 694.222H754.784C746.535 694.222 738.624 690.945 732.792 685.112C726.959 679.279 723.682 671.369 723.682 663.12V663.12Z" fill="#000A1D"/>
<path d="M763.361 759.003H799.734C802.721 759.003 805.585 760.19 807.697 762.302C809.81 764.414 810.996 767.278 810.996 770.265V805.934H752.067V770.265C752.067 767.278 753.253 764.414 755.365 762.302C757.477 760.19 760.342 759.003 763.329 759.003H763.361Z" fill="#000A1D"/>
<path d="M781.548 805.942V845.637L642.507 907.775H615.645C615.646 902.794 616.912 897.895 619.324 893.538C621.736 889.18 625.216 885.506 629.436 882.861L752.099 805.975H781.564L781.548 805.942Z" fill="white"/>
<path d="M642.507 910.198H615.645C614.994 910.198 614.369 909.939 613.909 909.479C613.448 909.018 613.19 908.394 613.19 907.743C613.171 902.341 614.534 897.024 617.148 892.297C619.762 887.569 623.541 883.589 628.127 880.733L750.79 803.896C751.18 803.651 751.631 803.52 752.091 803.519H781.556C782.207 803.519 782.832 803.778 783.292 804.238C783.753 804.699 784.011 805.323 784.011 805.975V845.637C784.011 846.112 783.874 846.576 783.615 846.974C783.356 847.372 782.988 847.687 782.555 847.88L643.473 909.985C643.169 910.121 642.84 910.193 642.507 910.198V910.198ZM618.207 905.287H641.942L779.092 844.001V808.397H752.803L630.738 884.924C627.214 887.116 624.249 890.096 622.074 893.63C619.9 897.164 618.576 901.154 618.207 905.287V905.287Z" fill="#262424"/>
<path d="M627.644 965.142C640.377 965.142 650.7 954.819 650.7 942.085C650.7 929.352 640.377 919.029 627.644 919.029C614.91 919.029 604.588 929.352 604.588 942.085C604.588 954.819 614.91 965.142 627.644 965.142Z" fill="#262424"/>
<path d="M627.644 949.591C631.789 949.591 635.149 946.23 635.149 942.085C635.149 937.94 631.789 934.58 627.644 934.58C623.499 934.58 620.138 937.94 620.138 942.085C620.138 946.23 623.499 949.591 627.644 949.591Z" fill="white"/>
<path d="M781.548 805.942V845.637L920.589 907.775H947.451C947.45 902.794 946.184 897.895 943.772 893.538C941.36 889.18 937.88 885.506 933.659 882.861L810.996 805.975H781.531L781.548 805.942Z" fill="white"/>
<path d="M947.45 910.198H920.588C920.244 910.198 919.904 910.125 919.59 909.985L780.549 847.847C780.116 847.654 779.747 847.34 779.489 846.942C779.23 846.544 779.092 846.079 779.092 845.605V805.942C779.092 805.291 779.351 804.666 779.812 804.206C780.272 803.745 780.896 803.487 781.548 803.487H811.012C811.473 803.488 811.924 803.618 812.314 803.863L934.977 880.75C939.562 883.605 943.342 887.586 945.956 892.313C948.57 897.04 949.933 902.357 949.914 907.759C949.91 908.409 949.648 909.03 949.186 909.488C948.724 909.945 948.1 910.2 947.45 910.198V910.198ZM921.112 905.287H944.848C944.487 901.161 943.174 897.175 941.013 893.641C938.851 890.108 935.9 887.124 932.391 884.924L810.325 808.414H784.003V844.001L921.112 905.287Z" fill="#262424"/>
<path d="M935.444 965.142C948.177 965.142 958.5 954.819 958.5 942.085C958.5 929.352 948.177 919.029 935.444 919.029C922.71 919.029 912.388 929.352 912.388 942.085C912.388 954.819 922.71 965.142 935.444 965.142Z" fill="#262424"/>
<path d="M935.444 949.591C939.589 949.591 942.949 946.23 942.949 942.085C942.949 937.94 939.589 934.58 935.444 934.58C931.299 934.58 927.938 937.94 927.938 942.085C927.938 946.23 931.299 949.591 935.444 949.591Z" fill="white"/>
<path d="M796.845 907.743H766.242L752.099 805.942H810.996L796.845 907.743Z" fill="white"/>
<path d="M796.853 910.198H766.242C765.645 910.204 765.067 909.992 764.615 909.601C764.163 909.211 763.869 908.67 763.787 908.078L749.644 806.278C749.596 805.928 749.623 805.573 749.725 805.235C749.827 804.897 750 804.585 750.233 804.32C750.466 804.055 750.753 803.844 751.075 803.7C751.397 803.556 751.747 803.483 752.099 803.487H811.029C811.381 803.483 811.731 803.556 812.053 803.7C812.375 803.844 812.662 804.055 812.895 804.32C813.128 804.585 813.301 804.897 813.403 805.235C813.505 805.573 813.532 805.928 813.484 806.278L799.341 908.078C799.259 908.675 798.96 909.221 798.501 909.612C798.042 910.003 797.456 910.212 796.853 910.198V910.198ZM768.387 905.287H794.717L808.18 808.397H754.923L768.387 905.287Z" fill="#262424"/>
<path d="M791.885 919.029H772.929C768.558 919.029 765.015 922.573 765.015 926.944V957.227C765.015 961.598 768.558 965.142 772.929 965.142H791.885C796.256 965.142 799.799 961.598 799.799 957.227V926.944C799.799 922.573 796.256 919.029 791.885 919.029Z" fill="#262424"/>
<path d="M789.708 617.286H648.113C635.457 617.286 625.196 627.546 625.196 640.203C625.196 652.86 635.457 663.12 648.113 663.12H789.708C802.364 663.12 812.625 652.86 812.625 640.203C812.625 627.546 802.364 617.286 789.708 617.286Z" fill="white"/>
<path d="M789.708 665.575H648.113C641.384 665.575 634.931 662.902 630.172 658.144C625.414 653.386 622.741 646.932 622.741 640.203C622.741 633.474 625.414 627.02 630.172 622.262C634.931 617.504 641.384 614.831 648.113 614.831H789.708C796.437 614.831 802.89 617.504 807.649 622.262C812.407 627.02 815.08 633.474 815.08 640.203C815.08 646.932 812.407 653.386 807.649 658.144C802.89 662.902 796.437 665.575 789.708 665.575V665.575ZM648.113 619.741C642.687 619.741 637.482 621.897 633.645 625.734C629.808 629.572 627.652 634.776 627.652 640.203C627.652 645.63 629.808 650.834 633.645 654.672C637.482 658.509 642.687 660.665 648.113 660.665H789.708C795.135 660.665 800.339 658.509 804.176 654.672C808.014 650.834 810.169 645.63 810.169 640.203C810.169 634.776 808.014 629.572 804.176 625.734C800.339 621.897 795.135 619.741 789.708 619.741H648.113Z" fill="#262424"/>
<path d="M914.982 617.286H792.433C779.777 617.286 769.516 627.546 769.516 640.203C769.516 652.86 779.777 663.12 792.433 663.12H914.982C927.639 663.12 937.899 652.86 937.899 640.203C937.899 627.546 927.639 617.286 914.982 617.286Z" fill="white"/>
<path d="M914.982 665.575H792.433C785.704 665.575 779.251 662.902 774.492 658.144C769.734 653.386 767.061 646.932 767.061 640.203C767.061 633.474 769.734 627.02 774.492 622.262C779.251 617.504 785.704 614.831 792.433 614.831H914.982C921.711 614.831 928.165 617.504 932.923 622.262C937.681 627.02 940.355 633.474 940.355 640.203C940.355 646.932 937.681 653.386 932.923 658.144C928.165 662.902 921.711 665.575 914.982 665.575V665.575ZM792.433 619.741C787.007 619.741 781.802 621.897 777.965 625.734C774.128 629.572 771.972 634.776 771.972 640.203C771.972 645.63 774.128 650.834 777.965 654.672C781.802 658.509 787.007 660.665 792.433 660.665H914.982C920.409 660.665 925.613 658.509 929.451 654.672C933.288 650.834 935.444 645.63 935.444 640.203C935.444 634.776 933.288 629.572 929.451 625.734C925.613 621.897 920.409 619.741 914.982 619.741H792.433Z" fill="#262424"/>
<path d="M370.834 381.568V394.664H263.018V381.568L283.07 334.793H361.692L341.64 381.568H370.834Z" fill="white"/>
<path d="M370.834 397.119H263.018C262.366 397.119 261.742 396.86 261.281 396.4C260.821 395.939 260.562 395.315 260.562 394.664V381.568C260.562 381.236 260.629 380.908 260.759 380.602L280.811 333.827C281 333.385 281.315 333.008 281.717 332.743C282.118 332.478 282.589 332.337 283.07 332.338H361.692C362.098 332.337 362.498 332.438 362.856 332.63C363.214 332.823 363.518 333.101 363.742 333.44C363.966 333.779 364.102 334.169 364.139 334.573C364.175 334.978 364.111 335.385 363.951 335.759L345.363 379.137H370.834C371.485 379.137 372.11 379.396 372.57 379.857C373.031 380.317 373.289 380.942 373.289 381.593V394.688C373.283 395.335 373.021 395.953 372.562 396.409C372.102 396.864 371.481 397.119 370.834 397.119V397.119ZM265.473 392.208H368.379V384.024H341.639C341.233 384.024 340.833 383.923 340.475 383.731C340.117 383.539 339.813 383.26 339.589 382.921C339.365 382.582 339.229 382.193 339.192 381.788C339.156 381.383 339.221 380.976 339.38 380.602L357.968 337.224H284.691L265.473 382.051V392.208Z" fill="#262424"/>
<path d="M370.834 381.568H305.782V394.664H370.834V381.568Z" fill="white"/>
<path d="M370.834 397.119H305.782C305.131 397.119 304.507 396.86 304.046 396.4C303.586 395.939 303.327 395.315 303.327 394.664V381.568C303.327 380.917 303.586 380.292 304.046 379.832C304.507 379.371 305.131 379.113 305.782 379.113H370.834C371.485 379.113 372.11 379.371 372.57 379.832C373.031 380.292 373.289 380.917 373.289 381.568V394.664C373.289 395.315 373.031 395.939 372.57 396.4C372.11 396.86 371.485 397.119 370.834 397.119ZM308.238 392.208H368.378V384.024H308.238V392.208Z" fill="#262424"/>
<path d="M305.783 381.568V394.664H263.018V381.568L283.07 334.793H296.64L276.588 381.568H305.783Z" fill="white"/>
<path d="M305.782 397.119H263.018C262.366 397.119 261.742 396.86 261.281 396.4C260.821 395.939 260.562 395.315 260.562 394.664V381.568C260.562 381.236 260.629 380.908 260.759 380.602L280.811 333.827C281 333.385 281.315 333.008 281.717 332.743C282.118 332.478 282.589 332.337 283.07 332.338H296.64C297.043 332.339 297.44 332.44 297.795 332.631C298.15 332.822 298.453 333.098 298.676 333.433C298.899 333.769 299.036 334.155 299.075 334.556C299.114 334.957 299.054 335.362 298.899 335.734L280.312 379.113H305.782C306.434 379.113 307.058 379.372 307.519 379.832C307.979 380.293 308.238 380.917 308.238 381.568V394.664C308.238 395.315 307.979 395.939 307.519 396.4C307.058 396.86 306.434 397.119 305.782 397.119ZM265.473 392.208H303.327V384.024H276.588C276.181 384.024 275.781 383.923 275.424 383.731C275.066 383.539 274.761 383.26 274.537 382.921C274.313 382.582 274.177 382.193 274.141 381.788C274.104 381.383 274.169 380.976 274.329 380.602L292.916 337.224H284.691L265.473 382.051V392.208Z" fill="#262424"/>
<path d="M471.251 350.467H149.038C146.651 350.417 144.362 349.506 142.592 347.903C140.822 346.301 139.69 344.113 139.405 341.742L118.46 140.399C118.315 139.296 118.41 138.175 118.738 137.112C119.067 136.049 119.621 135.07 120.364 134.241C121.106 133.412 122.019 132.754 123.04 132.311C124.06 131.868 125.164 131.651 126.277 131.675H448.49C450.877 131.725 453.166 132.635 454.936 134.238C456.706 135.841 457.838 138.029 458.123 140.399L479.068 341.742C479.213 342.845 479.118 343.966 478.79 345.029C478.461 346.092 477.907 347.072 477.164 347.9C476.422 348.729 475.509 349.387 474.489 349.83C473.468 350.273 472.364 350.49 471.251 350.467V350.467Z" fill="#FF1B46"/>
<path d="M485.305 350.467H163.092C160.704 350.417 158.415 349.506 156.645 347.903C154.875 346.301 153.744 344.113 153.458 341.742L132.514 140.399C132.368 139.296 132.463 138.175 132.792 137.112C133.12 136.049 133.675 135.07 134.417 134.241C135.159 133.412 136.072 132.754 137.093 132.311C138.113 131.868 139.218 131.651 140.33 131.675H462.543C464.93 131.725 467.22 132.635 468.989 134.238C470.759 135.841 471.891 138.029 472.176 140.399L493.121 341.742C493.266 342.845 493.171 343.966 492.843 345.029C492.514 346.092 491.96 347.072 491.218 347.9C490.475 348.729 489.562 349.387 488.542 349.83C487.521 350.273 486.417 350.49 485.305 350.467V350.467Z" fill="#000A1D"/>
<path d="M475.008 334.793H170.13C168.881 334.766 167.683 334.29 166.756 333.451C165.83 332.612 165.238 331.467 165.088 330.226L146.534 151.923C146.458 151.346 146.508 150.759 146.68 150.203C146.853 149.647 147.143 149.134 147.532 148.7C147.92 148.267 148.398 147.922 148.932 147.69C149.466 147.458 150.044 147.344 150.626 147.356H455.504C456.754 147.383 457.951 147.859 458.878 148.698C459.804 149.537 460.396 150.683 460.546 151.923L479.1 330.226C479.176 330.803 479.126 331.39 478.954 331.946C478.781 332.503 478.491 333.015 478.103 333.449C477.714 333.882 477.236 334.227 476.702 334.459C476.168 334.691 475.59 334.805 475.008 334.793V334.793Z" fill="white"/>
<path d="M475.008 337.248H170.13C168.27 337.23 166.482 336.531 165.102 335.284C163.722 334.037 162.847 332.328 162.641 330.48L144.087 152.177C143.976 151.257 144.063 150.323 144.342 149.439C144.622 148.555 145.088 147.741 145.708 147.052C146.328 146.363 147.088 145.814 147.938 145.443C148.788 145.072 149.707 144.887 150.634 144.901H455.512C457.372 144.92 459.161 145.618 460.54 146.865C461.92 148.112 462.795 149.821 463.001 151.67L481.54 330.005C481.645 330.922 481.555 331.85 481.274 332.729C480.993 333.608 480.528 334.417 479.91 335.102C479.292 335.787 478.535 336.333 477.69 336.703C476.845 337.073 475.931 337.259 475.008 337.248V337.248ZM150.626 149.82C150.391 149.811 150.157 149.852 149.94 149.941C149.722 150.03 149.526 150.164 149.366 150.336C149.209 150.519 149.093 150.733 149.025 150.965C148.957 151.196 148.939 151.439 148.973 151.678L167.527 330.005C167.618 330.641 167.928 331.225 168.403 331.656C168.878 332.088 169.489 332.341 170.13 332.37H475.008C475.243 332.38 475.477 332.339 475.695 332.25C475.912 332.161 476.108 332.026 476.269 331.855C476.425 331.672 476.542 331.457 476.609 331.226C476.677 330.994 476.695 330.751 476.661 330.512L458.107 152.177C458.016 151.542 457.707 150.958 457.231 150.526C456.756 150.094 456.145 149.842 455.504 149.812H150.626V149.82Z" fill="#262424"/>
<path d="M360.628 293.174H186.295C185.045 293.147 183.848 292.671 182.921 291.832C181.995 290.993 181.403 289.848 181.253 288.607L170.089 181.519C170.014 180.942 170.064 180.355 170.236 179.799C170.408 179.242 170.699 178.73 171.087 178.296C171.476 177.863 171.953 177.518 172.488 177.286C173.022 177.054 173.6 176.94 174.182 176.952H348.515C349.764 176.979 350.962 177.455 351.888 178.294C352.815 179.133 353.407 180.278 353.556 181.519L364.696 288.615C364.77 289.19 364.719 289.774 364.548 290.327C364.376 290.881 364.088 291.391 363.702 291.823C363.317 292.255 362.842 292.6 362.312 292.833C361.782 293.066 361.207 293.182 360.628 293.174Z" fill="#FF1B46"/>
<path d="M354.661 282.878H190.101L180.148 187.265H344.709L354.661 282.878Z" fill="white"/>
<path d="M354.661 285.333H190.101C189.491 285.336 188.902 285.113 188.448 284.706C187.995 284.299 187.708 283.738 187.645 283.132L177.709 187.518C177.674 187.175 177.711 186.829 177.818 186.501C177.925 186.173 178.1 185.871 178.332 185.616C178.564 185.36 178.847 185.156 179.162 185.017C179.478 184.878 179.82 184.808 180.165 184.809H344.733C345.343 184.806 345.932 185.03 346.386 185.437C346.839 185.844 347.126 186.405 347.189 187.011L357.133 282.624C357.169 282.969 357.131 283.317 357.023 283.646C356.915 283.975 356.738 284.277 356.505 284.533C356.271 284.789 355.986 284.992 355.669 285.13C355.351 285.268 355.008 285.337 354.661 285.333V285.333ZM192.319 280.422H351.919L342.499 189.72H182.898L192.319 280.422Z" fill="#262424"/>
<path d="M418.763 228.253C418.763 228.253 440.264 236.307 452.967 334.793H426.776L418.763 228.253Z" fill="#000A1D"/>
<path d="M369.132 179.563C369.132 179.563 364.434 194.795 373.298 212.089H404.71C404.71 212.089 405.128 195.515 401.739 183.541C398.351 171.566 369.132 179.563 369.132 179.563Z" fill="#262424"/>
<path d="M328.675 257.98L311.774 227.926C311.533 227.512 311.159 227.192 310.714 227.017C310.268 226.841 309.777 226.821 309.318 226.96C309.099 227.042 308.899 227.166 308.729 227.326C308.558 227.486 308.422 227.678 308.327 227.892C308.231 228.105 308.179 228.335 308.174 228.569C308.169 228.802 308.21 229.034 308.295 229.252L311.176 237.764L306.928 242.675C304.473 245.466 304.972 249.902 307.968 252.693L323.011 263.742L328.675 257.98Z" fill="white"/>
<path d="M323.044 266.206C322.523 266.205 322.016 266.039 321.595 265.731L306.544 254.706L306.323 254.526C302.337 250.81 301.805 244.917 305.103 241.103L308.426 237.257L305.971 230.079C305.781 229.559 305.695 229.006 305.719 228.453C305.743 227.899 305.875 227.356 306.11 226.854C306.344 226.352 306.675 225.902 307.084 225.528C307.492 225.154 307.971 224.865 308.492 224.677C309.483 224.345 310.557 224.362 311.537 224.725C312.517 225.088 313.343 225.776 313.877 226.674L313.918 226.748L330.82 256.777C331.078 257.239 331.181 257.773 331.111 258.298C331.042 258.823 330.805 259.311 330.435 259.691L324.812 265.461C324.582 265.697 324.308 265.885 324.004 266.013C323.7 266.141 323.374 266.207 323.044 266.206V266.206ZM309.539 250.819L322.741 260.509L325.598 257.579L312.699 234.662L313.517 236.978C313.657 237.385 313.688 237.822 313.606 238.244C313.524 238.666 313.332 239.06 313.051 239.385L308.803 244.295C307.305 246.031 307.649 248.977 309.539 250.819Z" fill="#262424"/>
<path d="M361.675 228.253C355.946 233.434 349.169 245.49 341.214 265.494L329.256 252.807L317.642 263.243C317.642 263.243 333.455 307.031 346.959 307.031C360.464 307.031 375.835 276.06 375.835 276.06L361.675 228.253Z" fill="#000A1D"/>
<path d="M343.366 296.448C342.83 296.448 342.307 296.271 341.88 295.946C341.453 295.621 341.144 295.165 341.001 294.647C338.733 286.236 338.056 277.476 339.004 268.816C339.05 268.497 339.158 268.19 339.322 267.913C339.487 267.635 339.704 267.393 339.962 267.2C340.22 267.006 340.514 266.865 340.826 266.785C341.138 266.705 341.463 266.688 341.783 266.734C342.102 266.779 342.409 266.887 342.686 267.052C342.964 267.216 343.206 267.433 343.4 267.691C343.593 267.949 343.734 268.243 343.814 268.555C343.894 268.868 343.911 269.193 343.866 269.512C343.031 277.5 343.658 285.574 345.715 293.338C345.816 293.701 345.831 294.082 345.761 294.453C345.69 294.823 345.535 295.172 345.308 295.472C345.081 295.773 344.788 296.017 344.451 296.187C344.114 296.356 343.743 296.445 343.366 296.448V296.448Z" fill="#262424"/>
<path d="M432.988 334.793H369.631C360.685 282.951 361.684 228.253 361.684 228.253C371.923 220.478 389.094 217.343 389.094 217.343C389.094 217.343 406.912 220.478 418.772 228.253C418.763 228.253 431.147 282.951 432.988 334.793Z" fill="#000A1D"/>
<path d="M363.943 291.136C363.324 291.138 362.728 290.907 362.272 290.488C361.817 290.069 361.537 289.494 361.487 288.877C359.556 265.232 359.212 245.016 359.179 235.071C359.179 234.42 359.438 233.796 359.898 233.335C360.359 232.875 360.983 232.616 361.635 232.616C362.286 232.616 362.91 232.875 363.371 233.335C363.831 233.796 364.09 234.42 364.09 235.071C364.09 244.942 364.466 265.011 366.382 288.493C366.434 289.142 366.226 289.785 365.804 290.28C365.382 290.776 364.78 291.084 364.131 291.136H363.926H363.943Z" fill="#262424"/>
<path d="M432.587 328.663C431.959 328.664 431.355 328.424 430.898 327.993C430.442 327.562 430.167 326.973 430.132 326.346C427.979 288.263 420.793 250.172 417.806 235.562C417.741 235.246 417.74 234.921 417.801 234.604C417.862 234.287 417.985 233.986 418.163 233.717C418.341 233.448 418.57 233.216 418.837 233.036C419.105 232.855 419.405 232.729 419.721 232.665C420.037 232.6 420.363 232.599 420.679 232.66C420.996 232.721 421.297 232.845 421.566 233.022C421.835 233.2 422.067 233.429 422.247 233.697C422.428 233.964 422.554 234.264 422.618 234.58C425.63 249.312 432.874 287.666 435.043 326.076C435.078 326.726 434.854 327.364 434.42 327.849C433.986 328.334 433.376 328.627 432.726 328.663H432.587V328.663Z" fill="#262424"/>
<path d="M390.183 227.902C397.843 227.902 401.191 231.994 401.191 231.994C402.59 220.994 395.159 213.75 388.709 213.75C382.26 213.75 376.334 220.994 380.025 231.994C380.025 231.969 382.522 227.902 390.183 227.902Z" fill="#FF1B46"/>
<path d="M391.353 204.722L392.793 218.53L389.585 222.115L385.632 218.53L384.191 204.722H391.353Z" fill="white"/>
<path d="M389.585 224.57C388.979 224.567 388.396 224.339 387.948 223.932L384.019 220.331C383.562 219.929 383.271 219.372 383.201 218.767L381.76 204.96C381.725 204.617 381.762 204.27 381.869 203.942C381.977 203.614 382.152 203.313 382.383 203.057C382.615 202.802 382.898 202.598 383.214 202.459C383.529 202.32 383.871 202.249 384.216 202.251H391.386C391.995 202.248 392.584 202.471 393.038 202.878C393.492 203.285 393.778 203.846 393.841 204.452L395.282 218.26C395.317 218.6 395.28 218.945 395.174 219.27C395.069 219.596 394.896 219.896 394.668 220.151L391.386 223.752C391.17 223.994 390.908 224.191 390.616 224.331C390.324 224.472 390.007 224.553 389.683 224.57H389.585ZM387.948 217.343L389.38 218.636L390.199 217.703L389.102 207.178H386.876L387.948 217.343Z" fill="#262424"/>
<path d="M388.177 208.61C385.071 208.544 382.093 207.36 379.789 205.274C377.486 203.189 376.012 200.343 375.638 197.258L374.869 189.892C374.681 188.457 374.806 186.998 375.234 185.615C375.662 184.232 376.384 182.959 377.35 181.881C378.316 180.803 379.504 179.946 380.831 179.369C382.159 178.793 383.595 178.51 385.043 178.54V178.54C388.149 178.606 391.127 179.79 393.431 181.876C395.734 183.961 397.208 186.807 397.581 189.892L398.351 197.258C398.539 198.693 398.414 200.152 397.986 201.535C397.558 202.917 396.836 204.191 395.87 205.269C394.904 206.347 393.716 207.204 392.389 207.78C391.061 208.357 389.624 208.64 388.177 208.61V208.61Z" fill="white"/>
<path d="M388.177 211.066C384.469 210.983 380.914 209.568 378.163 207.079C375.413 204.59 373.651 201.194 373.199 197.512L372.43 190.146C372.204 188.367 372.364 186.561 372.898 184.849C373.432 183.138 374.328 181.561 375.525 180.227C376.722 178.892 378.193 177.831 379.836 177.115C381.48 176.398 383.258 176.044 385.051 176.076C388.759 176.159 392.314 177.574 395.064 180.063C397.815 182.552 399.577 185.948 400.029 189.63L400.798 196.996C401.024 198.775 400.864 200.581 400.33 202.292C399.796 204.004 398.9 205.58 397.703 206.915C396.506 208.25 395.035 209.311 393.392 210.027C391.748 210.743 389.97 211.097 388.177 211.066V211.066ZM385.051 180.987C383.958 180.96 382.873 181.165 381.865 181.588C380.858 182.011 379.952 182.643 379.207 183.442C378.474 184.276 377.926 185.255 377.6 186.317C377.274 187.378 377.177 188.496 377.316 189.597L378.086 196.963C378.386 199.448 379.571 201.741 381.425 203.423C383.278 205.105 385.675 206.063 388.177 206.122V206.122C389.27 206.149 390.355 205.944 391.363 205.521C392.37 205.098 393.276 204.466 394.021 203.667C394.754 202.833 395.302 201.854 395.628 200.792C395.954 199.731 396.051 198.613 395.912 197.512L395.142 190.146C394.842 187.661 393.657 185.368 391.803 183.686C389.95 182.004 387.553 181.046 385.051 180.987V180.987Z" fill="#262424"/>
<path d="M371.947 191.218C371.947 191.218 389.339 195.777 394.25 182.681C394.25 182.681 392.613 194.197 398.04 194.197C398.04 194.197 402.337 191.234 401.739 183.557C401.142 175.88 391.386 164.012 377.905 169.831C362.24 176.584 371.947 191.218 371.947 191.218Z" fill="#262424"/>
<path d="M463.885 470.658H444.087V965.133H463.885V470.658Z" fill="#FF1B46"/>
<path d="M570.629 470.658H550.831V965.133H570.629V470.658Z" fill="#FF1B46"/>
<path d="M550.831 470.658V965.133H511.225V892.265H444.087V965.133H404.481V470.658H444.087V852.66H511.225V470.658H550.831Z" fill="#FF1B46"/>
<path d="M444.087 963.496C443.544 963.496 443.024 963.281 442.64 962.897C442.256 962.513 442.041 961.993 442.041 961.45V892.29C442.041 891.747 442.256 891.227 442.64 890.843C443.024 890.459 443.544 890.244 444.087 890.244C444.629 890.244 445.15 890.459 445.534 890.843C445.917 891.227 446.133 891.747 446.133 892.29V961.475C446.126 962.013 445.908 962.527 445.525 962.906C445.142 963.284 444.625 963.496 444.087 963.496Z" fill="#262424"/>
<path d="M550.831 961.86C550.288 961.86 549.768 961.644 549.384 961.26C549 960.877 548.785 960.356 548.785 959.813V470.658C548.785 470.115 549 469.595 549.384 469.211C549.768 468.827 550.288 468.612 550.831 468.612C551.374 468.612 551.894 468.827 552.278 469.211C552.661 469.595 552.877 470.115 552.877 470.658V959.813C552.877 960.356 552.661 960.877 552.278 961.26C551.894 961.644 551.374 961.86 550.831 961.86Z" fill="#262424"/>
<path d="M444.087 854.706C443.544 854.706 443.024 854.491 442.64 854.107C442.256 853.723 442.041 853.203 442.041 852.66V470.658C442.041 470.115 442.256 469.595 442.64 469.211C443.024 468.827 443.544 468.612 444.087 468.612C444.629 468.612 445.15 468.827 445.534 469.211C445.917 469.595 446.133 470.115 446.133 470.658V852.66C446.133 853.203 445.917 853.723 445.534 854.107C445.15 854.491 444.629 854.706 444.087 854.706Z" fill="#262424"/>
<path d="M511.225 852.66H244.905V892.265H511.225V852.66Z" fill="#FF1B46"/>
<path d="M460.309 894.312H409.392C408.849 894.312 408.329 894.096 407.945 893.712C407.561 893.329 407.346 892.808 407.346 892.265C407.346 891.723 407.561 891.202 407.945 890.819C408.329 890.435 408.849 890.219 409.392 890.219H460.309C460.851 890.219 461.372 890.435 461.755 890.819C462.139 891.202 462.355 891.723 462.355 892.265C462.355 892.808 462.139 893.329 461.755 893.712C461.372 894.096 460.851 894.312 460.309 894.312Z" fill="#262424"/>
<path d="M511.225 890.792C510.682 890.792 510.162 890.577 509.778 890.193C509.395 889.809 509.179 889.289 509.179 888.746V856.826C509.179 856.283 509.395 855.763 509.778 855.379C510.162 854.995 510.682 854.78 511.225 854.78C511.768 854.78 512.288 854.995 512.672 855.379C513.056 855.763 513.271 856.283 513.271 856.826V888.746C513.271 889.289 513.056 889.809 512.672 890.193C512.288 890.577 511.768 890.792 511.225 890.792Z" fill="#262424"/>
<path d="M460.513 854.706H409.769C409.226 854.706 408.705 854.491 408.322 854.107C407.938 853.723 407.722 853.203 407.722 852.66C407.722 852.117 407.938 851.597 408.322 851.213C408.705 850.829 409.226 850.614 409.769 850.614H460.513C461.056 850.614 461.576 850.829 461.96 851.213C462.344 851.597 462.56 852.117 462.56 852.66C462.56 853.203 462.344 853.723 461.96 854.107C461.576 854.491 461.056 854.706 460.513 854.706Z" fill="#262424"/>
<path d="M197.565 470.658H177.767V965.133H197.565V470.658Z" fill="#FF1B46"/>
<path d="M304.309 470.658H284.511V965.133H304.309V470.658Z" fill="#FF1B46"/>
<path d="M304.309 890.792C303.767 890.792 303.246 890.577 302.862 890.193C302.479 889.809 302.263 889.289 302.263 888.746V856.891C302.263 856.349 302.479 855.828 302.862 855.444C303.246 855.061 303.767 854.845 304.309 854.845C304.852 854.845 305.372 855.061 305.756 855.444C306.14 855.828 306.356 856.349 306.356 856.891V888.746C306.356 889.289 306.14 889.809 305.756 890.193C305.372 890.577 304.852 890.792 304.309 890.792V890.792Z" fill="#262424"/>
<path d="M284.511 470.658V965.133H244.905V892.265H177.766V965.133H138.161V470.658H177.766V852.66H244.905V470.658H284.511Z" fill="#FF1B46"/>
<path d="M177.767 961.859C177.224 961.859 176.704 961.644 176.32 961.26C175.936 960.876 175.72 960.356 175.72 959.813V892.29C175.72 891.747 175.936 891.227 176.32 890.843C176.704 890.459 177.224 890.244 177.767 890.244H194.545C195.088 890.244 195.608 890.459 195.992 890.843C196.376 891.227 196.591 891.747 196.591 892.29C196.591 892.832 196.376 893.353 195.992 893.737C195.608 894.12 195.088 894.336 194.545 894.336H179.813V959.813C179.813 960.356 179.597 960.876 179.213 961.26C178.83 961.644 178.309 961.859 177.767 961.859Z" fill="#262424"/>
<path d="M284.511 963.496C283.968 963.496 283.448 963.281 283.064 962.897C282.68 962.513 282.465 961.993 282.465 961.45V472.704H244.881C244.338 472.704 243.818 472.489 243.434 472.105C243.05 471.721 242.834 471.201 242.834 470.658C242.834 470.115 243.05 469.595 243.434 469.211C243.818 468.827 244.338 468.612 244.881 468.612H284.486C285.029 468.612 285.549 468.827 285.933 469.211C286.317 469.595 286.532 470.115 286.532 470.658V961.45C286.532 961.989 286.32 962.505 285.942 962.888C285.563 963.271 285.049 963.49 284.511 963.496V963.496Z" fill="#262424"/>
<path d="M194.545 854.706H177.767C177.224 854.706 176.704 854.491 176.32 854.107C175.936 853.723 175.72 853.203 175.72 852.66V470.658C175.72 470.115 175.936 469.595 176.32 469.211C176.704 468.827 177.224 468.612 177.767 468.612C178.309 468.612 178.83 468.827 179.213 469.211C179.597 469.595 179.813 470.115 179.813 470.658V850.614H194.545C195.088 850.614 195.608 850.829 195.992 851.213C196.376 851.597 196.591 852.117 196.591 852.66C196.591 853.203 196.376 853.723 195.992 854.107C195.608 854.491 195.088 854.706 194.545 854.706V854.706Z" fill="#262424"/>
<path d="M276.04 394.664H111.97V438.803H276.04V394.664Z" fill="#000A1D"/>
<path d="M276.04 438.803L596.82 438.803V394.664L276.04 394.664V438.803Z" fill="#000A1D"/>
<path d="M276.04 440.85C275.497 440.85 274.976 440.634 274.593 440.25C274.209 439.867 273.993 439.346 273.993 438.803V398.33C273.993 397.788 274.209 397.267 274.593 396.883C274.976 396.5 275.497 396.284 276.04 396.284C276.582 396.284 277.103 396.5 277.486 396.883C277.87 397.267 278.086 397.788 278.086 398.33V438.803C278.086 439.346 277.87 439.867 277.486 440.25C277.103 440.634 276.582 440.85 276.04 440.85V440.85Z" fill="#262424"/>
<path d="M284.502 438.803H138.161V470.666H284.502V438.803Z" fill="white"/>
<path d="M284.511 473.114H138.161C137.51 473.114 136.885 472.855 136.425 472.394C135.964 471.934 135.706 471.309 135.706 470.658V438.804C135.706 438.152 135.964 437.528 136.425 437.067C136.885 436.607 137.51 436.348 138.161 436.348H284.502C285.154 436.348 285.778 436.607 286.239 437.067C286.699 437.528 286.958 438.152 286.958 438.804V470.666C286.956 471.315 286.697 471.936 286.239 472.394C285.78 472.853 285.159 473.111 284.511 473.114ZM140.625 468.203H282.055V441.259H140.616V468.211L140.625 468.203Z" fill="#262424"/>
<path d="M284.511 470.658L570.629 470.658V438.795L284.511 438.795V470.658Z" fill="white"/>
<path d="M570.629 473.114H284.511C283.859 473.114 283.235 472.855 282.774 472.394C282.314 471.934 282.055 471.309 282.055 470.658V438.804C282.055 438.152 282.314 437.528 282.774 437.067C283.235 436.607 283.859 436.348 284.511 436.348H570.629C571.281 436.348 571.905 436.607 572.366 437.067C572.826 437.528 573.085 438.152 573.085 438.804V470.666C573.083 471.316 572.823 471.939 572.363 472.397C571.902 472.856 571.279 473.114 570.629 473.114ZM286.966 468.203H568.174V441.259H286.966V468.211V468.203Z" fill="#262424"/>
<path d="M455.946 811.131L449.971 875.037L474.984 876.142L486.941 812.13L455.946 811.131Z" fill="white"/>
<path d="M474.984 878.597H474.869L449.857 877.484C449.525 877.469 449.199 877.387 448.899 877.242C448.6 877.097 448.333 876.893 448.115 876.642C447.897 876.391 447.732 876.098 447.631 875.781C447.529 875.465 447.493 875.131 447.524 874.8L453.499 810.894C453.557 810.272 453.85 809.695 454.318 809.282C454.787 808.868 455.395 808.648 456.02 808.668L487.007 809.666C487.361 809.678 487.708 809.766 488.024 809.924C488.341 810.082 488.619 810.307 488.841 810.583C489.062 810.859 489.221 811.18 489.308 811.523C489.394 811.866 489.405 812.224 489.339 812.572L477.382 876.584C477.279 877.146 476.983 877.655 476.545 878.022C476.107 878.39 475.555 878.593 474.984 878.597ZM452.656 872.696L472.962 873.597L484.003 814.495L458.181 813.677L452.656 872.696Z" fill="#262424"/>
<path d="M350.323 953.994V965.133H488.063C488.063 965.133 488.513 959.314 488.939 949.533C489.757 930.291 490.788 897.97 488.227 862.187L444.267 855.14C444.267 855.14 406.536 894.426 372.962 924.955C369.476 928.131 365.809 931.216 361.946 934.146C354.555 939.761 350.323 946.751 350.323 953.994Z" fill="#000A1D"/>
<path d="M415.383 926.207C414.902 926.207 414.431 926.065 414.029 925.799C413.628 925.533 413.313 925.155 413.125 924.712C412.937 924.269 412.883 923.78 412.97 923.307C413.057 922.833 413.281 922.396 413.615 922.049C442.99 891.594 456.175 866.394 456.323 866.14C456.632 865.58 457.147 865.163 457.758 864.977C458.37 864.792 459.03 864.852 459.598 865.145C460.166 865.438 460.597 865.941 460.8 866.547C461.003 867.153 460.962 867.815 460.685 868.391C460.145 869.438 447.074 894.434 417.151 925.454C416.922 925.692 416.647 925.881 416.344 926.011C416.04 926.14 415.713 926.207 415.383 926.207V926.207Z" fill="#262424"/>
<path d="M466.259 927.729C473.012 927.729 478.487 921.636 478.487 914.118C478.487 906.601 473.012 900.507 466.259 900.507C459.506 900.507 454.031 906.601 454.031 914.118C454.031 921.636 459.506 927.729 466.259 927.729Z" fill="white"/>
<path d="M466.259 930.185C458.164 930.185 451.576 922.974 451.576 914.118C451.576 905.263 458.123 898.052 466.259 898.052C474.394 898.052 480.942 905.263 480.942 914.118C480.942 922.974 474.354 930.185 466.259 930.185ZM466.259 902.955C460.873 902.955 456.486 907.964 456.486 914.11C456.486 920.257 460.873 925.266 466.259 925.266C471.644 925.266 476.031 920.257 476.031 914.11C476.031 907.964 471.653 902.93 466.259 902.93V902.955Z" fill="#262424"/>
<path d="M350.323 953.994V965.133H488.063C488.063 965.133 488.513 959.314 488.939 949.533H416.226C416.226 949.533 411.577 917.138 372.962 924.979C369.476 928.155 365.809 931.241 361.946 934.171C354.555 939.761 350.323 946.751 350.323 953.994Z" fill="white"/>
<path d="M488.071 967.589H350.323C349.672 967.589 349.048 967.33 348.587 966.87C348.127 966.409 347.868 965.785 347.868 965.133V953.986C347.868 946.096 352.337 938.353 360.456 932.19C364.082 929.44 367.732 926.396 371.309 923.138C371.636 922.84 372.038 922.637 372.471 922.549C385.787 919.848 396.755 921.452 405.07 927.312C413.967 933.582 417.184 942.92 418.215 947.07H488.938C489.27 947.07 489.598 947.137 489.903 947.267C490.208 947.397 490.484 947.587 490.713 947.826C490.943 948.066 491.121 948.349 491.238 948.659C491.355 948.97 491.408 949.301 491.394 949.632C490.968 959.339 490.518 965.248 490.51 965.305C490.467 965.923 490.191 966.502 489.739 966.926C489.286 967.349 488.691 967.586 488.071 967.589V967.589ZM352.787 962.678H485.779C485.927 960.501 486.147 956.834 486.377 951.989H416.234C415.64 951.995 415.063 951.785 414.611 951.398C414.16 951.012 413.864 950.474 413.779 949.885C413.779 949.779 411.937 938.149 402.181 931.298C395.159 926.387 385.714 925.004 374.092 927.206C370.572 930.382 366.979 933.369 363.451 936.078C356.585 941.283 352.811 947.635 352.811 953.961V962.678H352.787Z" fill="#262424"/>
<path d="M745.053 500.057C745.053 500.057 730.844 581.183 725.262 589.458C707.657 615.559 529.412 661.802 529.412 661.802L505.316 837.117L433.291 829.268C433.291 829.268 431.008 720.838 434.413 655.001C435.738 629.375 437.916 610.19 441.435 606.376C444.332 603.225 455.742 595.736 471.644 586.07C525.663 553.208 631.392 494.991 631.392 494.991C631.392 494.991 653.294 437.035 692.262 453.838C728.495 469.463 749.554 473.007 745.053 500.057Z" fill="#000A1D"/>
<path d="M477.578 630.3C469.32 649.272 450.569 659.699 434.413 655.001C435.739 629.375 437.916 610.19 441.435 606.376C444.332 603.225 455.742 595.736 471.645 586.07C481.859 596.17 484.691 613.914 477.578 630.3Z" fill="white"/>
<path d="M472.307 805.394H472.021C471.484 805.318 470.998 805.033 470.671 804.6C470.345 804.168 470.203 803.623 470.278 803.086L492.057 647.356C492.101 646.998 492.24 646.658 492.458 646.37C492.677 646.083 492.968 645.858 493.301 645.719L685.345 566.206L694.741 509.273C694.848 508.755 695.15 508.299 695.586 507.999C696.021 507.699 696.556 507.58 697.078 507.665C697.599 507.751 698.068 508.035 698.384 508.459C698.701 508.882 698.841 509.411 698.776 509.936L689.192 567.99C689.135 568.333 688.992 568.655 688.776 568.927C688.559 569.199 688.277 569.412 687.956 569.545L495.945 649.042L474.321 803.593C474.261 804.086 474.024 804.541 473.653 804.873C473.283 805.204 472.804 805.389 472.307 805.394Z" fill="#262424"/>
<path d="M494.676 821.255H494.455L444.07 815.903C443.528 815.845 443.03 815.574 442.687 815.15C442.344 814.725 442.183 814.182 442.241 813.64C442.298 813.097 442.569 812.599 442.994 812.256C443.418 811.913 443.961 811.753 444.504 811.81L494.889 817.163C495.431 817.191 495.941 817.434 496.304 817.838C496.668 818.241 496.857 818.773 496.828 819.316C496.8 819.858 496.558 820.368 496.154 820.731C495.75 821.095 495.219 821.284 494.676 821.255V821.255Z" fill="#262424"/>
<path d="M621.742 816.402L628.978 880.176L653.687 876.141L652.279 811.041L621.742 816.402Z" fill="white"/>
<path d="M628.978 882.632C628.372 882.636 627.786 882.416 627.333 882.014C626.88 881.612 626.591 881.057 626.522 880.455L619.287 816.68C619.217 816.06 619.387 815.436 619.761 814.935C620.135 814.435 620.685 814.096 621.301 813.988L651.837 808.627C652.186 808.565 652.544 808.58 652.887 808.67C653.229 808.76 653.548 808.922 653.822 809.147C654.095 809.372 654.317 809.653 654.472 809.971C654.627 810.29 654.711 810.638 654.718 810.992L656.126 876.093C656.134 876.681 655.93 877.253 655.551 877.704C655.173 878.154 654.645 878.454 654.064 878.548L629.354 882.583C629.23 882.609 629.104 882.625 628.978 882.632ZM624.443 818.424L631.13 877.353L651.191 874.079L649.89 813.971L624.443 818.424Z" fill="#262424"/>
<path d="M529.027 953.994V965.133H666.766C666.766 965.133 667.216 959.314 667.642 949.533C668.461 930.291 669.492 897.97 666.93 862.187L623.011 855.148C623.011 855.148 585.28 894.435 551.707 924.963C548.22 928.139 544.553 931.224 540.69 934.155C533.234 939.761 529.027 946.751 529.027 953.994Z" fill="#000A1D"/>
<path d="M594.086 926.207C593.605 926.207 593.134 926.065 592.733 925.799C592.331 925.533 592.017 925.155 591.828 924.712C591.64 924.269 591.586 923.781 591.673 923.307C591.76 922.834 591.985 922.396 592.319 922.049C621.783 891.545 634.879 866.394 635.026 866.148C635.168 865.852 635.368 865.588 635.615 865.371C635.861 865.154 636.148 864.988 636.459 864.884C636.77 864.779 637.1 864.739 637.427 864.764C637.754 864.789 638.073 864.879 638.365 865.03C638.657 865.18 638.915 865.388 639.125 865.64C639.335 865.892 639.493 866.184 639.588 866.498C639.684 866.812 639.715 867.142 639.681 867.469C639.647 867.795 639.547 868.112 639.388 868.399C638.848 869.447 625.777 894.442 595.854 925.462C595.625 925.699 595.35 925.886 595.046 926.014C594.742 926.142 594.416 926.208 594.086 926.207Z" fill="#262424"/>
<path d="M644.962 927.729C651.716 927.729 657.19 921.636 657.19 914.118C657.19 906.601 651.716 900.507 644.962 900.507C638.209 900.507 632.735 906.601 632.735 914.118C632.735 921.636 638.209 927.729 644.962 927.729Z" fill="white"/>
<path d="M644.963 930.185C636.868 930.185 630.279 922.974 630.279 914.118C630.279 905.263 636.827 898.052 644.963 898.052C653.098 898.052 659.646 905.263 659.646 914.118C659.646 922.974 653.057 930.185 644.963 930.185ZM644.963 902.955C639.577 902.955 635.19 907.964 635.19 914.11C635.19 920.257 639.577 925.266 644.963 925.266C650.348 925.266 654.735 920.257 654.735 914.11C654.735 907.964 650.356 902.93 644.963 902.93V902.955Z" fill="#262424"/>
<path d="M529.027 953.994V965.133H666.766C666.766 965.133 667.216 959.314 667.642 949.533H594.93C594.93 949.533 590.281 917.138 551.666 924.979C548.179 928.155 544.512 931.241 540.649 934.171C533.234 939.761 529.027 946.751 529.027 953.994Z" fill="white"/>
<path d="M666.774 967.589H529.027C528.375 967.589 527.751 967.33 527.29 966.87C526.83 966.409 526.571 965.785 526.571 965.133V953.986C526.571 946.096 531.04 938.353 539.159 932.19C542.785 929.44 546.435 926.396 550.012 923.138C550.339 922.84 550.741 922.637 551.174 922.549C564.499 919.848 575.458 921.452 583.774 927.312C592.67 933.582 595.887 942.92 596.918 947.07H667.642C667.973 947.07 668.302 947.137 668.607 947.267C668.912 947.397 669.187 947.587 669.417 947.826C669.646 948.066 669.825 948.349 669.942 948.659C670.059 948.97 670.112 949.301 670.097 949.632C669.672 959.339 669.221 965.248 669.213 965.305C669.17 965.923 668.894 966.502 668.442 966.926C667.99 967.349 667.394 967.586 666.774 967.589V967.589ZM531.49 962.678H664.483C664.622 960.501 664.851 956.834 665.08 951.989H594.938C594.343 951.995 593.766 951.785 593.315 951.398C592.863 951.012 592.567 950.474 592.482 949.885C592.482 949.771 590.641 938.149 580.885 931.298C573.862 926.387 564.409 925.004 552.795 927.206C549.276 930.39 545.682 933.369 542.155 936.078C535.288 941.283 531.515 947.635 531.515 953.961V962.678H531.49Z" fill="#262424"/>
<path d="M856.085 500.057C856.085 500.057 852.394 581.183 846.812 589.458C829.207 615.559 650.962 661.802 650.962 661.802L668.362 834.997L596.55 834.613C596.55 834.613 573.085 722.786 564.188 656.793C560.62 630.267 559.392 610.288 562.993 606.376C566.021 603.102 578.397 595.032 595.486 584.678C650.102 551.596 752.942 494.991 752.942 494.991C752.942 494.991 774.353 453.838 813.812 453.838C853.27 453.838 860.595 473.007 856.085 500.057Z" fill="#000A1D"/>
<path d="M604.276 631.388C596.534 649.173 579.6 659.445 564.172 656.76C560.603 630.234 559.376 610.255 562.977 606.343C566.005 603.069 578.38 594.999 595.47 584.646C607.984 594.132 612.036 613.57 604.276 631.388Z" fill="white"/>
<path d="M562.764 647.528C562.263 647.528 561.779 647.343 561.405 647.01C561.031 646.676 560.792 646.217 560.734 645.719C557.092 614.298 559.22 607.448 561.487 604.993C574.059 591.324 738.808 500.442 751.428 493.493C755.728 485.986 761.01 479.085 767.135 472.974C780.983 459.126 797.123 451.801 813.787 451.801C814.33 451.801 814.85 452.016 815.234 452.4C815.618 452.784 815.833 453.304 815.833 453.847C815.833 454.389 815.618 454.91 815.234 455.294C814.85 455.677 814.33 455.893 813.787 455.893C776.007 455.893 754.939 495.539 754.727 495.94C754.538 496.286 754.254 496.57 753.908 496.759C752.157 497.79 576.842 594.369 564.499 607.759C563.419 608.929 561.291 614.929 564.802 645.245C564.833 645.512 564.811 645.782 564.737 646.041C564.663 646.299 564.539 646.541 564.372 646.751C564.204 646.962 563.997 647.137 563.762 647.268C563.527 647.398 563.268 647.481 563.001 647.512L562.764 647.528Z" fill="#262424"/>
<path d="M810.996 555.647C810.839 555.646 810.682 555.627 810.529 555.59C803.564 553.953 798.695 550.352 796.059 544.868C789.781 531.83 798.621 512.948 799.006 512.13C799.239 511.639 799.657 511.261 800.169 511.079C800.681 510.898 801.245 510.926 801.735 511.16C802.226 511.393 802.603 511.812 802.785 512.324C802.967 512.836 802.938 513.399 802.705 513.889C802.623 514.069 794.324 531.83 799.75 543.1C801.829 547.405 805.766 550.27 811.463 551.604C811.956 551.714 812.392 552.003 812.685 552.415C812.978 552.827 813.108 553.333 813.05 553.836C812.992 554.338 812.75 554.801 812.371 555.136C811.992 555.471 811.502 555.653 810.996 555.647V555.647Z" fill="#262424"/>
<path d="M635.558 805.394C635.061 805.394 634.581 805.213 634.207 804.884C633.833 804.556 633.592 804.103 633.529 803.609L613.615 647.897C613.558 647.451 613.648 646.999 613.873 646.61C614.098 646.221 614.444 645.916 614.859 645.744L806.904 566.23L816.3 509.298C816.406 508.78 816.709 508.323 817.144 508.023C817.58 507.724 818.114 507.604 818.636 507.69C819.158 507.776 819.626 508.06 819.943 508.483C820.259 508.907 820.4 509.436 820.335 509.961L810.751 568.014C810.694 568.357 810.55 568.68 810.334 568.952C810.118 569.224 809.836 569.437 809.515 569.57L617.871 648.936L637.588 803.077C637.623 803.344 637.604 803.615 637.534 803.874C637.464 804.134 637.343 804.377 637.179 804.59C637.015 804.802 636.81 804.981 636.577 805.114C636.344 805.248 636.087 805.335 635.82 805.369L635.558 805.394Z" fill="#262424"/>
<path d="M657.927 821.255H607.542C607 821.255 606.479 821.04 606.095 820.656C605.712 820.272 605.496 819.752 605.496 819.209C605.496 818.667 605.712 818.146 606.095 817.762C606.479 817.379 607 817.163 607.542 817.163H657.927C658.196 817.163 658.462 817.216 658.71 817.319C658.958 817.422 659.184 817.572 659.374 817.762C659.564 817.952 659.715 818.178 659.817 818.426C659.92 818.675 659.973 818.941 659.973 819.209C659.973 819.478 659.92 819.744 659.817 819.992C659.715 820.241 659.564 820.466 659.374 820.656C659.184 820.846 658.958 820.997 658.71 821.1C658.462 821.202 658.196 821.255 657.927 821.255Z" fill="#262424"/>
<path d="M390.461 390.498C391.012 391.324 391.834 391.933 392.786 392.219C393.737 392.506 394.758 392.453 395.674 392.069L438.038 374.325C438.859 373.982 439.779 373.96 440.616 374.263C441.453 374.567 442.145 375.173 442.556 375.962V375.962C442.789 376.403 442.927 376.887 442.96 377.385C442.993 377.882 442.922 378.381 442.749 378.849C442.577 379.317 442.309 379.743 441.961 380.1C441.613 380.457 441.194 380.737 440.731 380.922L426.891 386.446C425.742 386.905 424.778 387.732 424.149 388.796C423.52 389.861 423.261 391.104 423.412 392.331V392.331C423.573 393.64 424.19 394.851 425.156 395.75C426.122 396.648 427.374 397.177 428.691 397.242L449.971 398.314C456.612 398.65 463.145 396.529 468.321 392.356L474.738 387.191L490.354 386.553L499.423 361.041L478.233 358.905L447.86 347.905C445.558 347.07 443.08 346.844 440.665 347.248C438.25 347.653 435.981 348.674 434.077 350.213L391.296 384.785C390.469 385.461 389.925 386.422 389.77 387.479C389.616 388.536 389.862 389.613 390.461 390.498V390.498Z" fill="white"/>
<path d="M451.338 400.786C450.842 400.786 450.345 400.786 449.849 400.786L428.568 399.714C426.721 399.636 424.957 398.925 423.572 397.701C422.186 396.476 421.265 394.812 420.961 392.988C420.658 391.164 420.992 389.292 421.906 387.685C422.82 386.078 424.259 384.834 425.982 384.163L439.822 378.638C439.956 378.584 440.078 378.505 440.181 378.404C440.284 378.303 440.366 378.183 440.423 378.05C440.48 377.918 440.51 377.775 440.511 377.631C440.513 377.487 440.486 377.344 440.432 377.21C440.378 377.076 440.299 376.954 440.198 376.851C440.097 376.748 439.977 376.666 439.844 376.609C439.712 376.553 439.569 376.523 439.425 376.521C439.281 376.52 439.138 376.546 439.004 376.6L396.624 394.328C395.186 394.925 393.585 395.007 392.094 394.56C390.602 394.112 389.311 393.163 388.439 391.873V391.873C387.491 390.476 387.106 388.772 387.359 387.103C387.613 385.434 388.486 383.922 389.806 382.87L432.587 348.298C434.824 346.5 437.485 345.307 440.316 344.833C443.146 344.358 446.051 344.619 448.752 345.588L478.798 356.482L499.685 358.586C500.057 358.622 500.415 358.743 500.733 358.939C501.051 359.135 501.32 359.401 501.52 359.717C501.72 360.033 501.845 360.39 501.885 360.761C501.926 361.132 501.882 361.508 501.756 361.86L492.638 387.379C492.475 387.842 492.177 388.244 491.784 388.536C491.39 388.828 490.918 388.995 490.428 389.016L475.614 389.622L469.835 394.279C464.593 398.496 458.066 400.792 451.338 400.786V400.786ZM439.43 371.583C440.835 371.576 442.198 372.062 443.283 372.955C444.368 373.849 445.106 375.094 445.369 376.475C445.631 377.856 445.402 379.285 444.721 380.514C444.039 381.744 442.949 382.696 441.639 383.205L427.799 388.73C427.134 388.996 426.58 389.482 426.228 390.106C425.877 390.73 425.749 391.456 425.867 392.163C425.984 392.87 426.34 393.515 426.874 393.992C427.409 394.47 428.09 394.75 428.806 394.786L450.086 395.859C456.115 396.162 462.045 394.239 466.75 390.457L473.167 385.292C473.577 384.962 474.081 384.773 474.607 384.752L488.57 384.179L496.059 363.185L477.987 361.369C477.786 361.349 477.588 361.305 477.398 361.238L447.041 350.213C445.14 349.529 443.096 349.344 441.103 349.675C439.11 350.006 437.235 350.842 435.656 352.103L392.875 386.675C392.524 386.949 392.284 387.341 392.202 387.779C392.12 388.217 392.201 388.67 392.429 389.052C392.658 389.434 393.018 389.72 393.442 389.855C393.867 389.99 394.326 389.965 394.733 389.786L437.097 372.049C437.836 371.741 438.629 371.583 439.43 371.583V371.583Z" fill="#262424"/>
<path d="M726.261 298.47C726.261 298.47 677.603 341.955 640.027 374.137C637.004 376.723 634.066 379.227 631.212 381.65C621.31 390.054 608.744 394.666 595.757 394.664H490.993C478.716 383.754 475.123 369.938 483.079 352.267L577.726 325.913L684.879 207.612L726.261 298.47Z" fill="#FF1B46"/>
<path d="M640.027 374.137C637.004 376.723 634.066 379.227 631.212 381.65C621.31 390.054 608.744 394.666 595.756 394.664H589.209C588.817 393.505 588.519 392.317 588.316 391.112C586.074 377.623 596.501 364.651 611.553 362.138C623.47 360.165 634.707 365.281 640.027 374.137Z" fill="white"/>
<path d="M498.616 390.235C501.326 388.873 502.42 385.573 501.058 382.862C499.697 380.152 496.396 379.058 493.686 380.42C490.975 381.781 489.882 385.082 491.243 387.792C492.605 390.503 495.905 391.596 498.616 390.235Z" fill="white"/>
<path d="M496.149 393.28C494.196 393.27 492.315 392.542 490.864 391.235C489.413 389.928 488.492 388.134 488.277 386.193C488.063 384.252 488.568 382.3 489.699 380.707C490.829 379.115 492.505 377.993 494.409 377.555C496.312 377.118 498.309 377.395 500.022 378.334C501.734 379.273 503.042 380.808 503.696 382.648C504.35 384.488 504.306 386.505 503.571 388.314C502.836 390.123 501.462 391.599 499.709 392.462C498.602 393.007 497.383 393.287 496.149 393.28V393.28ZM496.149 382.288C495.487 382.293 494.846 382.514 494.321 382.917C493.796 383.321 493.418 383.884 493.243 384.522C493.068 385.161 493.107 385.838 493.352 386.453C493.598 387.067 494.038 387.584 494.605 387.926C495.172 388.267 495.834 388.414 496.492 388.344C497.15 388.274 497.767 387.991 498.25 387.539C498.732 387.086 499.054 386.488 499.165 385.835C499.276 385.183 499.171 384.512 498.866 383.925C498.61 383.427 498.22 383.01 497.74 382.721C497.26 382.432 496.709 382.282 496.149 382.288V382.288Z" fill="#262424"/>
<path d="M512.797 393.297C512.394 393.297 511.998 393.199 511.643 393.011C511.287 392.822 510.984 392.55 510.759 392.216C497.786 373.032 502.017 350.917 502.197 349.984C502.346 349.367 502.727 348.831 503.261 348.49C503.796 348.148 504.442 348.026 505.064 348.15C505.686 348.274 506.236 348.633 506.599 349.154C506.962 349.674 507.109 350.315 507.01 350.941C506.953 351.228 503.04 372.058 514.818 389.466C515.067 389.835 515.212 390.264 515.236 390.708C515.26 391.152 515.163 391.594 514.955 391.987C514.748 392.381 514.437 392.71 514.057 392.941C513.677 393.171 513.241 393.294 512.797 393.297Z" fill="#262424"/>
<path d="M889.904 227.484C889.904 227.484 825.646 184.785 778.306 185.636C730.966 186.487 684.887 207.62 684.887 207.62C646.419 287.936 625.196 493.436 625.196 493.436C625.196 493.436 675.941 513.03 817.969 520.993L823.985 485.202C824.207 483.88 824.931 482.695 826.006 481.894C827.082 481.093 828.425 480.739 829.755 480.905V480.905C830.436 480.99 831.094 481.209 831.69 481.549C832.286 481.889 832.808 482.344 833.228 482.887C833.647 483.431 833.954 484.052 834.132 484.714C834.31 485.377 834.355 486.069 834.265 486.749L829.542 522.45C842.131 523.847 854.8 524.394 867.462 524.087C888.554 373.383 889.904 227.484 889.904 227.484Z" fill="#FF1B46"/>
<path d="M643.227 367.253C642.923 367.254 642.622 367.188 642.347 367.058C642.072 366.929 641.829 366.74 641.636 366.504C641.443 366.269 641.305 365.994 641.232 365.699C641.159 365.404 641.153 365.096 641.214 364.798L652.427 307.088C659.678 270.502 669.672 236.782 680.565 212.146C680.66 211.882 680.808 211.64 681 211.436C681.192 211.232 681.424 211.069 681.682 210.958C681.939 210.847 682.217 210.79 682.497 210.791C682.778 210.792 683.055 210.85 683.312 210.963C683.569 211.075 683.8 211.239 683.99 211.445C684.181 211.65 684.328 211.892 684.421 212.157C684.514 212.421 684.552 212.702 684.532 212.982C684.513 213.262 684.435 213.534 684.306 213.783C673.527 238.165 663.631 271.575 656.478 307.906L645.265 365.665C645.16 366.124 644.9 366.532 644.528 366.822C644.157 367.111 643.698 367.263 643.227 367.253Z" fill="#262424"/>
<path d="M828.217 208.529C819.083 228.024 802.844 235.538 792.761 238.321C790.649 224.137 784.142 206.18 784.142 206.18C775.958 216.746 771.309 230.93 770.073 237.429C744.84 229.604 742.728 205.034 742.728 205.034C746.632 180.611 768.321 162.817 786.401 164.02C826.375 166.68 828.217 208.529 828.217 208.529Z" fill="white"/>
<path d="M792.761 240.792C792.167 240.799 791.592 240.59 791.14 240.205C790.689 239.82 790.392 239.284 790.305 238.697C788.881 229.154 785.395 217.712 783.34 211.532C778.214 219.626 774.533 228.549 772.463 237.903C772.399 238.244 772.264 238.567 772.066 238.851C771.868 239.135 771.612 239.375 771.315 239.553C771.019 239.732 770.687 239.846 770.343 239.887C770 239.928 769.651 239.897 769.32 239.794C742.818 231.609 740.281 205.533 740.256 205.271C740.232 205.072 740.232 204.872 740.256 204.673C744.553 177.762 768.084 160.386 786.516 161.598C808.312 163.046 819.173 175.765 824.435 186.152C827.911 193.101 830.01 200.658 830.615 208.406C830.633 208.803 830.554 209.199 830.386 209.56C826.851 217.126 821.707 223.829 815.313 229.201C808.919 234.573 801.429 238.484 793.366 240.661C793.171 240.73 792.967 240.774 792.761 240.792V240.792ZM784.142 203.74C784.649 203.742 785.143 203.9 785.556 204.193C785.969 204.486 786.282 204.9 786.45 205.377C786.704 206.073 792.27 221.517 794.725 235.186C801.457 233.005 807.676 229.479 813.004 224.822C818.332 220.165 822.658 214.474 825.72 208.095C825.048 201.195 823.12 194.477 820.032 188.271C813.198 174.865 801.829 167.548 786.246 166.517C770.016 165.428 749.12 181.715 745.208 205.148C745.519 207.8 748.408 226.682 768.28 234.253C770.073 227.099 774.525 214.61 782.194 204.714C782.421 204.412 782.715 204.165 783.053 203.995C783.391 203.825 783.764 203.735 784.142 203.732V203.74Z" fill="#262424"/>
<path d="M930.197 607.464H777.226V577.181C777.246 559.17 784.409 541.903 797.145 529.167C809.88 516.431 827.148 509.268 845.159 509.249H930.197V607.464ZM939.2 640.203C945.495 640.203 951.533 637.702 955.984 633.251C960.435 628.8 962.936 622.762 962.936 616.467V500.245C962.936 493.95 960.435 487.913 955.984 483.462C951.533 479.011 945.495 476.51 939.2 476.51H845.159C818.459 476.51 792.853 487.116 773.974 505.996C755.094 524.875 744.488 550.482 744.488 577.181V616.467C744.488 622.762 746.988 628.8 751.44 633.251C755.891 637.702 761.928 640.203 768.223 640.203H939.2Z" fill="#FF1B46"/>
<path d="M924.894 437.715C921.62 457.145 916.709 472.319 909.343 476.183C906.732 479.653 901.076 483.974 893.653 488.713C862.33 508.676 799.398 535.84 799.398 535.84C769.369 529.293 769.524 496.963 769.524 496.963L849.865 414.299C849.865 414.299 867.282 281.364 870.138 261.442C872.995 241.521 889.912 227.476 889.912 227.476C916.709 244.467 925.565 276.911 929.428 333.295C930.934 355.377 930.631 403.257 924.894 437.715Z" fill="#FF1B46"/>
<path d="M799.39 537.895C799.244 537.894 799.099 537.878 798.957 537.846C767.675 531.028 767.47 497.299 767.47 496.923C767.473 496.393 767.682 495.886 768.051 495.507L847.917 413.325C849.259 403.053 865.383 280.095 868.109 261.09C869.893 248.633 876.874 238.435 882.415 232.076C882.777 231.687 883.275 231.455 883.805 231.427C884.335 231.399 884.855 231.578 885.256 231.927C885.656 232.275 885.905 232.765 885.951 233.294C885.997 233.822 885.835 234.348 885.501 234.76C880.32 240.702 873.805 250.196 872.16 261.671C869.336 281.314 852.067 413.177 851.887 414.503C851.829 414.941 851.631 415.349 851.322 415.665L771.579 497.79C771.767 502.701 773.985 527.811 799.186 533.713C803.794 531.707 833.627 518.636 860.923 504.673C861.406 504.426 861.967 504.381 862.483 504.547C863 504.714 863.429 505.078 863.677 505.561C863.924 506.044 863.97 506.606 863.803 507.122C863.637 507.639 863.272 508.068 862.789 508.316C833.144 523.482 800.528 537.592 800.201 537.731C799.944 537.84 799.669 537.896 799.39 537.895V537.895Z" fill="#262424"/>
<path d="M775.516 500.794C775.516 500.794 797.09 508.872 799.799 529.301L781.793 555.901L776.948 577.451C776.699 578.555 776.12 579.556 775.289 580.322C774.457 581.089 773.411 581.583 772.291 581.74L747.614 585.186C746.826 585.296 746.024 585.236 745.261 585.009C744.499 584.783 743.793 584.396 743.193 583.874C742.593 583.352 742.111 582.707 741.781 581.983C741.451 581.259 741.28 580.473 741.279 579.678V552.218L734.731 578.049C734.529 578.85 734.15 579.596 733.623 580.233C733.096 580.869 732.434 581.38 731.685 581.729C730.935 582.078 730.118 582.255 729.291 582.249C728.465 582.242 727.65 582.052 726.907 581.691V581.691C725.971 581.236 725.181 580.528 724.626 579.647C724.072 578.766 723.776 577.747 723.772 576.707L723.682 540.416C723.676 538.242 724.223 536.103 725.273 534.2C726.323 532.297 727.84 530.693 729.681 529.538L775.516 500.794Z" fill="white"/>
<path d="M746.845 587.69C744.718 587.69 742.677 586.845 741.173 585.341C739.669 583.837 738.824 581.796 738.824 579.669V572L737.187 578.646C736.896 579.801 736.35 580.877 735.591 581.796C734.832 582.714 733.877 583.452 732.797 583.955C731.717 584.458 730.538 584.714 729.347 584.705C728.155 584.695 726.981 584.421 725.909 583.901C724.562 583.241 723.426 582.219 722.628 580.95C721.83 579.68 721.402 578.214 721.391 576.715L721.227 540.424C721.209 537.831 721.856 535.277 723.107 533.005C724.358 530.734 726.171 528.822 728.372 527.451L774.206 498.707C774.526 498.505 774.889 498.381 775.265 498.342C775.641 498.304 776.021 498.353 776.375 498.486C777.316 498.838 799.358 507.333 802.23 528.973C802.31 529.571 802.167 530.177 801.829 530.676L784.085 556.867L779.338 577.999C778.975 579.587 778.14 581.028 776.942 582.131C775.743 583.234 774.239 583.948 772.627 584.179L747.95 587.625C747.583 587.672 747.214 587.694 746.845 587.69V587.69ZM741.279 549.762H741.582C742.18 549.837 742.729 550.128 743.126 550.58C743.523 551.033 743.739 551.616 743.735 552.218V579.636C743.735 580.081 743.831 580.519 744.015 580.923C744.199 581.327 744.468 581.687 744.803 581.979C745.138 582.271 745.531 582.487 745.957 582.614C746.383 582.74 746.831 582.775 747.27 582.714L771.972 579.309C772.597 579.219 773.18 578.942 773.645 578.514C774.11 578.086 774.434 577.527 774.574 576.911L779.42 555.361C779.489 555.068 779.611 554.791 779.78 554.542L797.246 528.736C794.66 513.136 779.903 505.443 775.753 503.568L731.008 531.633C729.516 532.562 728.287 533.858 727.439 535.397C726.591 536.936 726.151 538.667 726.162 540.424L726.277 576.715C726.279 577.236 726.412 577.748 726.665 578.205C726.917 578.661 727.279 579.047 727.719 579.326C728.159 579.606 728.663 579.77 729.183 579.804C729.703 579.838 730.224 579.741 730.697 579.522C731.116 579.328 731.486 579.043 731.781 578.688C732.075 578.332 732.286 577.915 732.399 577.467L738.947 551.637C739.075 551.111 739.373 550.642 739.795 550.303C740.216 549.964 740.738 549.774 741.279 549.762V549.762Z" fill="#262424"/>
<path d="M924.894 437.715C921.62 457.145 916.709 472.319 909.343 476.183C906.732 479.653 901.076 483.974 893.653 488.713C892.974 488.14 892.311 487.518 891.672 486.864C880.664 475.503 881.548 456.793 893.645 445.122C902.394 436.61 914.63 434.122 924.894 437.715Z" fill="white"/>
<path d="M820.122 518.661C819.617 518.66 819.131 518.472 818.756 518.133C818.381 517.795 818.145 517.33 818.092 516.827C815.547 492.887 793.939 487.273 793.718 487.224C793.21 487.077 792.779 486.739 792.514 486.281C792.25 485.823 792.173 485.28 792.3 484.766C792.427 484.253 792.748 483.809 793.196 483.527C793.643 483.245 794.183 483.147 794.701 483.254C794.946 483.311 819.312 489.638 822.16 516.402C822.217 516.941 822.058 517.481 821.717 517.903C821.377 518.325 820.882 518.595 820.343 518.653H820.122V518.661Z" fill="#262424"/>
<path d="M808.598 523.776C811.31 523.776 813.509 521.578 813.509 518.866C813.509 516.153 811.31 513.955 808.598 513.955C805.886 513.955 803.687 516.153 803.687 518.866C803.687 521.578 805.886 523.776 808.598 523.776Z" fill="white"/>
<path d="M808.598 526.232C807.141 526.232 805.717 525.8 804.505 524.99C803.294 524.181 802.35 523.031 801.792 521.685C801.235 520.339 801.089 518.858 801.373 517.429C801.657 516 802.359 514.687 803.389 513.657C804.419 512.627 805.732 511.925 807.161 511.641C808.59 511.357 810.071 511.503 811.417 512.06C812.763 512.618 813.913 513.562 814.723 514.773C815.532 515.985 815.964 517.409 815.964 518.866C815.964 520.819 815.188 522.693 813.807 524.074C812.425 525.456 810.551 526.232 808.598 526.232V526.232ZM808.598 516.41C808.112 516.41 807.637 516.554 807.234 516.824C806.83 517.094 806.515 517.477 806.329 517.926C806.144 518.375 806.095 518.868 806.19 519.345C806.284 519.821 806.518 520.259 806.862 520.602C807.205 520.945 807.642 521.179 808.119 521.274C808.595 521.369 809.089 521.32 809.538 521.134C809.986 520.948 810.37 520.634 810.639 520.23C810.909 519.826 811.053 519.351 811.053 518.866C811.053 518.215 810.795 517.59 810.334 517.129C809.874 516.669 809.249 516.41 808.598 516.41Z" fill="#262424"/>
<path d="M811.43 115.346L809.981 139.9L807.526 181.945C793.055 191.382 779.256 191.979 766.3 181.576L768.878 162.097L772.782 132.591L811.43 115.346Z" fill="white"/>
<path d="M786.197 191.685C778.7 191.685 771.53 188.959 764.753 183.5C764.424 183.236 764.168 182.892 764.01 182.501C763.852 182.109 763.798 181.684 763.853 181.265L770.327 132.272C770.381 131.856 770.541 131.46 770.792 131.124C771.043 130.787 771.376 130.52 771.759 130.349L810.44 113.112C810.825 112.939 811.248 112.869 811.669 112.908C812.089 112.947 812.493 113.094 812.84 113.334C813.187 113.574 813.467 113.9 813.651 114.28C813.836 114.659 813.919 115.08 813.894 115.502L809.973 182.117C809.951 182.501 809.838 182.874 809.645 183.207C809.452 183.54 809.183 183.822 808.86 184.032C801.025 189.134 793.47 191.685 786.197 191.685ZM768.911 180.529C779.985 188.836 791.828 188.853 805.144 180.57L808.754 119.234L775.025 134.286L768.911 180.529Z" fill="#262424"/>
<path d="M798.081 121.296C797.524 132.403 797.328 170.273 767.372 173.4L772.766 132.599L798.081 121.296Z" fill="#262424"/>
<path d="M736.729 115.952C738.767 136.201 744.643 160.411 768.935 156.646C797.811 152.161 816.48 131.748 816.75 104.264C817.02 76.7802 804.35 61.2866 771.44 64.4377C768.64 64.6997 765.866 65.1952 763.149 65.9191C744.218 71.0182 734.691 86.7163 735.869 105.124C736.082 108.455 736.328 112.138 736.729 115.952Z" fill="white"/>
<path d="M764.098 159.494C758.624 159.619 753.279 157.823 748.989 154.42C736.909 144.721 734.617 123.973 733.439 105.312C732.718 94.058 735.722 84.0318 742.122 76.2727C748.858 68.0881 758.925 63.1773 771.227 62.0233C771.878 61.9614 772.527 62.1608 773.032 62.5775C773.536 62.9942 773.854 63.5942 773.916 64.2454C773.978 64.8966 773.778 65.5457 773.361 66.05C772.945 66.5542 772.345 66.8722 771.694 66.9341C750.086 69.0048 736.991 83.9499 738.341 105.017C739.16 117.761 740.674 141.48 752.083 150.638C756.429 154.125 761.823 155.32 768.575 154.272C779.338 152.635 788.619 148.707 796.174 142.708C796.684 142.303 797.334 142.117 797.981 142.191C798.628 142.266 799.219 142.594 799.624 143.104C800.028 143.615 800.214 144.265 800.14 144.912C800.065 145.559 799.737 146.149 799.227 146.554C791.116 153.004 780.778 157.358 769.328 159.134C767.597 159.389 765.848 159.509 764.098 159.494Z" fill="#262424"/>
<path d="M825.336 109.437C822.553 113.463 819.426 117.239 815.989 120.724L801.428 121.624L798.326 111.311C798.326 111.311 789.086 110.902 787.171 104.665C787.121 104.523 787.08 104.379 787.048 104.232C786.557 102.185 784.666 93.0759 786.049 78.9165C786.049 78.9165 763.836 88.738 751.739 89.9985C747.393 90.4568 742.311 88.7871 737.58 86.4463C728.118 81.7647 719.844 66.3448 721.497 55.9176V55.7212C724.1 40.4405 732.063 51.0232 732.063 51.0232C732.063 51.0232 734.339 38.7462 742.049 37.8296C749.759 36.9129 754.669 48.3141 754.669 48.3141C769.468 44.8667 784.782 44.2281 799.816 46.4316C829.616 50.9823 822.201 71.5094 822.201 71.5094C822.201 71.5094 844.144 78.5563 825.336 109.437Z" fill="#262424"/>
<path d="M804.596 120.06C803.344 108.602 811.414 97.921 822.888 96.6033C825.322 96.3105 827.789 96.4855 830.156 97.1189C844.373 100.958 840.641 134.064 805.848 131.544L804.596 120.06Z" fill="white"/>
<path d="M809.482 134.13C808.246 134.13 806.978 134.081 805.668 133.991C805.017 133.943 804.411 133.639 803.985 133.144C803.558 132.65 803.345 132.007 803.393 131.355C803.44 130.704 803.745 130.099 804.239 129.672C804.733 129.245 805.377 129.032 806.028 129.08C825.188 130.471 833.75 120.691 835.239 111.892C836.262 105.868 833.856 100.646 829.51 99.4761C827.443 98.9249 825.291 98.7721 823.167 99.0259C813.149 100.18 805.914 109.486 807.035 119.782C807.105 120.433 806.914 121.086 806.504 121.596C806.093 122.107 805.497 122.433 804.845 122.504C804.194 122.574 803.542 122.383 803.031 121.973C802.521 121.562 802.195 120.965 802.124 120.314C800.716 107.342 809.891 95.6048 822.586 94.1233C825.327 93.7988 828.104 93.9988 830.77 94.7126C837.604 96.5542 841.509 104.117 840.052 112.719C838.218 123.678 828.069 134.13 809.482 134.13Z" fill="#262424"/>
<path d="M183.406 967.589H934.167C934.818 967.589 935.442 967.33 935.903 966.869C936.363 966.409 936.622 965.784 936.622 965.133C936.622 964.482 936.363 963.857 935.903 963.397C935.442 962.936 934.818 962.678 934.167 962.678H183.406C182.754 962.678 182.13 962.936 181.669 963.397C181.209 963.857 180.95 964.482 180.95 965.133C180.95 965.784 181.209 966.409 181.669 966.869C182.13 967.33 182.754 967.589 183.406 967.589Z" fill="#262424"/>
<path d="M160.652 962.678H120.867C120.216 962.678 119.591 962.936 119.131 963.397C118.67 963.857 118.411 964.482 118.411 965.133C118.411 965.784 118.67 966.409 119.131 966.869C119.591 967.33 120.216 967.589 120.867 967.589H160.652C161.304 967.589 161.928 967.33 162.389 966.869C162.849 966.409 163.108 965.784 163.108 965.133C163.108 964.482 162.849 963.857 162.389 963.397C161.928 962.936 161.304 962.678 160.652 962.678" fill="#262424"/>
<path d="M971.03 962.678H951.134C950.482 962.678 949.858 962.936 949.397 963.397C948.937 963.857 948.678 964.482 948.678 965.133C948.678 965.784 948.937 966.409 949.397 966.869C949.858 967.33 950.482 967.589 951.134 967.589H971.03C971.682 967.589 972.306 967.33 972.767 966.869C973.227 966.409 973.486 965.784 973.486 965.133C973.486 964.482 973.227 963.857 972.767 963.397C972.306 962.936 971.682 962.678 971.03 962.678Z" fill="#262424"/>
<path d="M389.986 1000H727.595C728.246 1000 728.87 999.741 729.331 999.281C729.791 998.82 730.05 998.196 730.05 997.545C730.05 996.893 729.791 996.269 729.331 995.808C728.87 995.348 728.246 995.089 727.595 995.089H389.986C389.335 995.089 388.71 995.348 388.25 995.808C387.789 996.269 387.531 996.893 387.531 997.545C387.531 998.196 387.789 998.82 388.25 999.281C388.71 999.741 389.335 1000 389.986 1000Z" fill="#262424"/>
<path d="M276.04 1000H347.05C347.701 1000 348.325 999.741 348.786 999.281C349.246 998.82 349.505 998.196 349.505 997.545C349.505 996.893 349.246 996.269 348.786 995.808C348.325 995.348 347.701 995.089 347.05 995.089H276.04C275.388 995.089 274.764 995.348 274.303 995.808C273.843 996.269 273.584 996.893 273.584 997.545C273.584 998.196 273.843 998.82 274.303 999.281C274.764 999.741 275.388 1000 276.04 1000Z" fill="#262424"/>
<path d="M778.053 1000H801.437C802.088 1000 802.712 999.741 803.173 999.281C803.633 998.82 803.892 998.196 803.892 997.545C803.892 996.893 803.633 996.269 803.173 995.808C802.712 995.348 802.088 995.089 801.437 995.089H778.086C777.435 995.089 776.81 995.348 776.35 995.808C775.889 996.269 775.63 996.893 775.63 997.545C775.63 998.196 775.889 998.82 776.35 999.281C776.81 999.741 777.435 1000 778.086 1000" fill="#262424"/>
<path d="M564.687 214.078C564.343 214.078 564.004 213.99 563.702 213.825C563.4 213.659 563.145 213.419 562.96 213.128L557.689 204.837C557.411 204.379 557.323 203.831 557.445 203.309C557.567 202.787 557.888 202.334 558.341 202.046C558.793 201.759 559.34 201.661 559.864 201.772C560.388 201.884 560.847 202.197 561.143 202.644L566.414 210.935C566.611 211.244 566.72 211.601 566.732 211.967C566.744 212.333 566.657 212.696 566.48 213.017C566.304 213.338 566.044 213.606 565.729 213.792C565.413 213.979 565.054 214.078 564.687 214.078ZM572.872 209.167C572.429 209.167 571.998 209.023 571.644 208.757C571.29 208.491 571.031 208.117 570.908 207.692C570.784 207.266 570.802 206.813 570.958 206.398C571.115 205.984 571.401 205.631 571.775 205.394L580.066 200.123C580.293 199.973 580.548 199.869 580.815 199.818C581.082 199.768 581.357 199.771 581.623 199.828C581.889 199.884 582.141 199.993 582.364 200.149C582.588 200.304 582.778 200.502 582.923 200.732C583.069 200.961 583.168 201.218 583.213 201.486C583.259 201.754 583.251 202.029 583.189 202.294C583.127 202.558 583.013 202.808 582.854 203.029C582.694 203.249 582.492 203.435 582.26 203.577L573.969 208.848C573.649 209.045 573.281 209.15 572.905 209.15L572.872 209.167ZM589.454 198.617C589.011 198.617 588.58 198.473 588.226 198.207C587.872 197.941 587.614 197.567 587.49 197.142C587.366 196.716 587.384 196.263 587.54 195.848C587.697 195.434 587.983 195.081 588.357 194.844L596.648 189.573C596.875 189.423 597.13 189.319 597.397 189.268C597.664 189.218 597.939 189.221 598.205 189.278C598.471 189.334 598.723 189.443 598.946 189.599C599.17 189.754 599.36 189.952 599.506 190.182C599.651 190.411 599.75 190.668 599.796 190.936C599.841 191.204 599.833 191.479 599.771 191.744C599.709 192.008 599.595 192.258 599.436 192.479C599.276 192.699 599.074 192.885 598.842 193.027L590.551 198.298C590.223 198.506 589.843 198.617 589.454 198.617ZM554.129 197.504C553.785 197.504 553.446 197.417 553.144 197.251C552.842 197.085 552.587 196.845 552.402 196.554L547.131 188.263C546.853 187.805 546.765 187.257 546.887 186.735C547.008 186.213 547.33 185.76 547.782 185.472C548.235 185.185 548.782 185.087 549.306 185.198C549.83 185.31 550.289 185.623 550.585 186.07L555.897 194.353C556.094 194.663 556.204 195.021 556.215 195.389C556.226 195.756 556.137 196.12 555.959 196.442C555.781 196.764 555.519 197.031 555.201 197.217C554.883 197.402 554.522 197.498 554.154 197.496L554.129 197.504ZM606.036 188.083C605.593 188.083 605.162 187.939 604.808 187.673C604.454 187.407 604.196 187.033 604.072 186.608C603.948 186.183 603.966 185.729 604.123 185.314C604.279 184.9 604.566 184.548 604.939 184.31L613.23 179.039C613.457 178.889 613.712 178.785 613.979 178.735C614.246 178.684 614.521 178.687 614.787 178.744C615.053 178.801 615.305 178.91 615.528 179.065C615.752 179.22 615.942 179.419 616.088 179.648C616.233 179.878 616.332 180.134 616.378 180.402C616.423 180.67 616.415 180.945 616.353 181.21C616.291 181.475 616.177 181.725 616.018 181.945C615.858 182.165 615.656 182.352 615.424 182.493L607.133 187.764C606.811 187.965 606.44 188.073 606.061 188.075L606.036 188.083ZM543.62 180.922C543.276 180.922 542.937 180.835 542.635 180.669C542.333 180.503 542.078 180.263 541.893 179.972L536.622 171.681C536.472 171.454 536.369 171.2 536.318 170.933C536.267 170.665 536.27 170.391 536.327 170.125C536.384 169.859 536.493 169.607 536.648 169.383C536.803 169.16 537.002 168.97 537.231 168.824C537.461 168.678 537.717 168.58 537.985 168.534C538.254 168.488 538.528 168.497 538.793 168.559C539.058 168.62 539.308 168.734 539.528 168.894C539.748 169.053 539.935 169.255 540.076 169.488L545.339 177.771C545.537 178.079 545.649 178.436 545.662 178.803C545.675 179.17 545.589 179.533 545.413 179.855C545.237 180.177 544.978 180.446 544.663 180.634C544.347 180.822 543.987 180.921 543.62 180.922V180.922Z" fill="#262424"/>
<path d="M614.352 182.812C614.006 182.814 613.665 182.727 613.362 182.561C613.059 182.395 612.802 182.155 612.617 181.863L582.235 134.064L534.437 164.446C534.21 164.596 533.956 164.7 533.689 164.75C533.421 164.801 533.147 164.798 532.881 164.741C532.615 164.684 532.363 164.575 532.139 164.42C531.916 164.265 531.726 164.066 531.58 163.837C531.434 163.607 531.335 163.351 531.29 163.083C531.244 162.815 531.253 162.54 531.315 162.275C531.376 162.01 531.49 161.76 531.65 161.54C531.809 161.32 532.011 161.133 532.244 160.992L581.769 129.481C582.227 129.19 582.782 129.093 583.311 129.211C583.841 129.33 584.302 129.653 584.593 130.111L616.071 179.637C616.275 179.946 616.392 180.305 616.409 180.675C616.425 181.046 616.341 181.414 616.164 181.74C615.987 182.066 615.726 182.338 615.406 182.527C615.087 182.716 614.723 182.814 614.352 182.812V182.812Z" fill="#262424"/>
<path d="M557.902 245.335C557.558 245.335 557.219 245.248 556.917 245.082C556.615 244.916 556.36 244.676 556.175 244.385L524.697 194.86C524.406 194.402 524.309 193.847 524.428 193.318C524.546 192.788 524.869 192.327 525.327 192.036L574.853 160.583C575.311 160.292 575.865 160.195 576.395 160.313C576.924 160.431 577.385 160.755 577.676 161.213L609.154 210.738C609.445 211.196 609.542 211.751 609.424 212.281C609.306 212.81 608.982 213.271 608.524 213.562L558.999 245.04C558.668 245.24 558.288 245.342 557.902 245.335V245.335ZM529.256 194.394L558.541 240.465L604.612 211.18L575.327 165.109L529.256 194.394Z" fill="#262424"/>
<path d="M526.432 195.777C526.129 195.776 525.831 195.707 525.558 195.577C525.284 195.446 525.044 195.257 524.853 195.022C524.662 194.787 524.525 194.513 524.453 194.219C524.381 193.924 524.375 193.618 524.435 193.321L531.343 162.269C531.461 161.739 531.785 161.278 532.243 160.987C532.701 160.697 533.256 160.6 533.786 160.718C534.316 160.836 534.777 161.16 535.068 161.618C535.358 162.076 535.455 162.631 535.337 163.161L528.421 194.214C528.313 194.659 528.058 195.056 527.697 195.339C527.336 195.623 526.891 195.777 526.432 195.777V195.777Z" fill="#262424"/>
<path d="M575.95 164.331C575.647 164.33 575.348 164.262 575.075 164.131C574.802 164.001 574.561 163.811 574.37 163.576C574.179 163.341 574.042 163.067 573.97 162.773C573.898 162.479 573.892 162.173 573.952 161.876L580.869 130.823C580.987 130.294 581.311 129.833 581.769 129.542C582.227 129.251 582.782 129.154 583.312 129.272C583.841 129.391 584.302 129.715 584.593 130.173C584.884 130.631 584.981 131.186 584.863 131.715L577.947 162.768C577.838 163.215 577.582 163.613 577.219 163.896C576.857 164.18 576.41 164.333 575.95 164.331Z" fill="#262424"/>
<path d="M607.46 213.857C607.158 213.856 606.859 213.787 606.586 213.657C606.312 213.526 606.072 213.337 605.881 213.102C605.69 212.867 605.553 212.592 605.481 212.298C605.409 212.004 605.403 211.698 605.463 211.401L612.371 180.316C612.489 179.786 612.813 179.325 613.271 179.035C613.73 178.744 614.285 178.647 614.814 178.765C615.344 178.883 615.805 179.207 616.096 179.665C616.387 180.124 616.483 180.679 616.365 181.208L609.449 212.261C609.347 212.713 609.095 213.116 608.734 213.406C608.372 213.696 607.923 213.855 607.46 213.857Z" fill="#262424"/>
<path d="M558.418 243.043C558.115 243.042 557.817 242.974 557.543 242.843C557.27 242.712 557.029 242.523 556.838 242.288C556.647 242.053 556.511 241.779 556.439 241.485C556.366 241.191 556.36 240.884 556.421 240.588L558.549 230.971C558.667 230.441 558.991 229.98 559.449 229.689C559.907 229.398 560.462 229.301 560.992 229.42C561.522 229.538 561.983 229.862 562.274 230.32C562.564 230.778 562.661 231.333 562.543 231.863L560.407 241.447C560.305 241.899 560.053 242.303 559.692 242.593C559.33 242.883 558.881 243.041 558.418 243.043V243.043ZM562.69 223.866C562.388 223.865 562.089 223.797 561.816 223.666C561.543 223.536 561.302 223.346 561.111 223.111C560.92 222.876 560.783 222.602 560.711 222.308C560.639 222.014 560.633 221.708 560.693 221.411L562.83 211.827C562.948 211.297 563.272 210.836 563.73 210.545C564.188 210.254 564.743 210.157 565.273 210.276C565.802 210.394 566.263 210.718 566.554 211.176C566.845 211.634 566.942 212.189 566.824 212.719L564.687 222.303C564.58 222.752 564.325 223.151 563.962 223.436C563.6 223.722 563.152 223.876 562.69 223.875V223.866Z" fill="#262424"/>
<path d="M423.134 85.8816H422.831L354.972 75.8308C354.572 75.771 354.199 75.594 353.9 75.3221C353.6 75.0503 353.388 74.6958 353.29 74.3035C353.192 73.9111 353.212 73.4985 353.349 73.1177C353.485 72.737 353.731 72.4051 354.056 72.1641L431.974 14.3559C432.298 14.1047 432.69 13.9567 433.1 13.9312C433.509 13.9057 433.917 14.0039 434.27 14.213C434.623 14.4222 434.905 14.7326 435.079 15.104C435.253 15.4754 435.312 15.8906 435.247 16.2957L425.156 84.1382C425.083 84.6227 424.839 85.0651 424.468 85.385C424.097 85.7049 423.624 85.8811 423.134 85.8816ZM360.456 72.4833L421.407 81.4864L430.41 20.5354L360.456 72.4833Z" fill="#262424"/>
<path d="M412.903 72.0903C412.585 72.0903 412.272 72.0164 411.988 71.8743C411.704 71.7323 411.457 71.526 411.266 71.2719L408.328 67.2778C408.167 67.0628 408.049 66.8182 407.983 66.5579C407.916 66.2976 407.901 66.0267 407.939 65.7607C407.977 65.4947 408.067 65.2388 408.204 65.0076C408.341 64.7763 408.522 64.5744 408.737 64.4131C408.952 64.2519 409.197 64.1346 409.457 64.0679C409.717 64.0012 409.988 63.9865 410.254 64.0245C410.52 64.0625 410.776 64.1525 411.007 64.2894C411.239 64.4263 411.441 64.6074 411.602 64.8224L414.532 68.7674C414.774 69.0704 414.925 69.436 414.967 69.8215C415.009 70.2071 414.941 70.5967 414.77 70.945C414.6 71.2932 414.334 71.5858 414.003 71.7886C413.672 71.9914 413.291 72.096 412.903 72.0903V72.0903Z" fill="#262424"/>
<path d="M403.605 59.5596C403.288 59.5596 402.974 59.4857 402.69 59.3436C402.406 59.2015 402.159 58.9953 401.968 58.7412L395.601 50.1555C395.439 49.9405 395.322 49.6959 395.255 49.4356C395.189 49.1753 395.174 48.9044 395.212 48.6384C395.25 48.3724 395.34 48.1165 395.477 47.8853C395.614 47.654 395.795 47.4521 396.01 47.2908C396.225 47.1296 396.469 47.0123 396.73 46.9456C396.99 46.8789 397.261 46.8642 397.527 46.9022C397.793 46.9402 398.049 47.0302 398.28 47.1671C398.511 47.304 398.713 47.4851 398.875 47.7001L405.242 56.2858C405.47 56.5898 405.609 56.9512 405.643 57.3297C405.677 57.7082 405.605 58.0887 405.435 58.4285C405.265 58.7684 405.004 59.0543 404.681 59.254C404.358 59.4538 403.985 59.5596 403.605 59.5596ZM390.862 42.3719C390.544 42.3719 390.231 42.2979 389.947 42.1558C389.663 42.0138 389.415 41.8075 389.225 41.5534L382.857 32.9677C382.532 32.5336 382.392 31.9879 382.469 31.4506C382.545 30.9134 382.832 30.4287 383.266 30.1031C383.701 29.7775 384.246 29.6377 384.783 29.7144C385.321 29.7912 385.805 30.0782 386.131 30.5123L392.499 39.098C392.729 39.402 392.87 39.7643 392.905 40.144C392.941 40.5238 392.869 40.9058 392.699 41.2471C392.529 41.5884 392.267 41.8754 391.942 42.0756C391.617 42.2757 391.243 42.3812 390.862 42.3801V42.3719ZM378.118 25.1841C377.801 25.1841 377.487 25.1101 377.203 24.9681C376.919 24.826 376.672 24.6198 376.481 24.3657L370.106 15.7963C369.78 15.3622 369.64 14.8165 369.717 14.2793C369.794 13.742 370.081 13.2573 370.515 12.9317C370.949 12.6061 371.495 12.4663 372.032 12.543C372.569 12.6198 373.054 12.9068 373.379 13.3409L379.747 21.9266C379.977 22.23 380.118 22.5916 380.153 22.9706C380.189 23.3496 380.118 23.7311 379.949 24.0721C379.78 24.4131 379.519 24.7001 379.195 24.9009C378.872 25.1017 378.499 25.2083 378.118 25.2087V25.1841Z" fill="#262424"/>
<path d="M365.383 8.03733C365.065 8.03733 364.752 7.96337 364.468 7.82131C364.184 7.67925 363.937 7.47299 363.746 7.21887L360.824 3.27387C360.498 2.83973 360.359 2.29402 360.435 1.7568C360.512 1.21958 360.799 0.734848 361.233 0.409243C361.667 0.0836372 362.213 -0.0561728 362.75 0.0205731C363.288 0.097319 363.772 0.384334 364.098 0.818475L367.02 4.76347C367.248 5.06747 367.387 5.42895 367.421 5.80741C367.455 6.18587 367.383 6.56636 367.213 6.90624C367.043 7.24612 366.782 7.53196 366.459 7.73174C366.135 7.93151 365.763 8.03733 365.383 8.03733V8.03733Z" fill="#262424"/>
<path d="M423.134 85.8816H422.831L405.84 83.3607C405.574 83.3216 405.318 83.2305 405.087 83.0925C404.856 82.9545 404.655 82.7724 404.495 82.5565C404.334 82.3406 404.218 82.0952 404.152 81.8344C404.087 81.5735 404.073 81.3023 404.113 81.0363C404.861 75.9917 407.581 71.4504 411.676 68.4103C415.77 65.3701 420.904 64.0797 425.95 64.8225C426.216 64.8615 426.471 64.9527 426.702 65.0907C426.933 65.2286 427.135 65.4108 427.295 65.6267C427.455 65.8426 427.572 66.088 427.637 66.3488C427.703 66.6097 427.716 66.8809 427.677 67.1469L425.156 84.1383C425.083 84.6227 424.839 85.0651 424.468 85.385C424.097 85.7049 423.624 85.8811 423.134 85.8816ZM408.574 79.6121L421.374 81.511L423.306 68.7102H423.126C419.848 68.7106 416.658 69.7731 414.035 71.7385C411.411 73.7039 409.495 76.4664 408.574 79.6121V79.6121Z" fill="#262424"/>
<path d="M155.251 59.1832C155.031 59.1827 154.812 59.1467 154.604 59.0768L99.4394 40.8005C98.9239 40.6301 98.4972 40.2619 98.2531 39.7768C98.0091 39.2918 97.9677 38.7297 98.1381 38.2141C98.3085 37.6986 98.6767 37.2718 99.1617 37.0278C99.6468 36.7837 100.209 36.7424 100.724 36.9128L155.889 55.1891C156.354 55.3387 156.751 55.6499 157.006 56.0664C157.262 56.483 157.36 56.9773 157.283 57.46C157.206 57.9427 156.959 58.3818 156.586 58.6979C156.213 59.0139 155.739 59.1861 155.251 59.1832V59.1832Z" fill="#262424"/>
<path d="M140.51 86.8063L137.236 77.2875L129.297 83.0987L124.386 81.4617L135.894 73.2771L131.27 59.8379L137.31 61.8431L140.502 71.2227L147.868 65.3298L152.779 66.9667L141.754 74.8976L146.411 88.7542L140.51 86.8063Z" fill="#262424"/>
<path d="M119.14 80.1194C118.92 80.119 118.702 80.0831 118.494 80.013L91.5579 71.0917C91.2053 70.9756 90.891 70.7657 90.6485 70.4846C90.4061 70.2035 90.2447 69.8618 90.1816 69.4959C90.1185 69.1301 90.1562 68.754 90.2905 68.408C90.4248 68.0619 90.6507 67.7589 90.944 67.5314L111.062 51.9151C111.327 51.7095 111.639 51.5724 111.971 51.5159C112.302 51.4595 112.641 51.4854 112.96 51.5913C113.279 51.6973 113.567 51.8801 113.798 52.1235C114.029 52.367 114.197 52.6636 114.287 52.9873L121.096 77.5412C121.178 77.8429 121.189 78.1592 121.129 78.4658C121.069 78.7724 120.939 79.0612 120.751 79.3101C120.562 79.559 120.318 79.7613 120.039 79.9016C119.76 80.0419 119.453 80.1164 119.14 80.1194V80.1194ZM96.4932 68.4153L106.315 71.6892L116.136 74.9631L111.168 57.0551L96.4932 68.4153Z" fill="#262424"/>
<path d="M132.481 39.8428C132.261 39.8424 132.043 39.8065 131.834 39.7364L118.37 35.2757L104.923 30.8151C104.571 30.699 104.256 30.4891 104.014 30.208C103.771 29.9269 103.61 29.5851 103.547 29.2193C103.484 28.8535 103.521 28.4774 103.656 28.1314C103.79 27.7853 104.016 27.4823 104.309 27.2548L124.419 11.6221C124.684 11.4165 124.997 11.2794 125.328 11.223C125.659 11.1665 125.999 11.1924 126.317 11.2984C126.636 11.4043 126.924 11.5871 127.155 11.8305C127.386 12.074 127.554 12.3706 127.644 12.6943L134.453 37.2483C134.538 37.5523 134.551 37.8718 134.492 38.1818C134.432 38.4917 134.302 38.7837 134.111 39.035C133.92 39.2862 133.673 39.4899 133.391 39.63C133.108 39.7701 132.796 39.843 132.481 39.8428ZM119.655 31.3962L129.477 34.6701L124.509 16.7621L109.834 28.1387L119.655 31.3962Z" fill="#262424"/>
<path d="M150.037 31.388L147.303 30.4468L148.375 27.1729L151.109 28.0814L153.327 21.3782C154.091 19.0646 155.204 17.4659 156.666 16.582C157.459 16.1388 158.342 15.8799 159.249 15.8247C160.156 15.7694 161.063 15.9192 161.904 16.2628C162.512 16.4619 163.092 16.7369 163.631 17.0812C164.18 17.4291 164.671 17.8598 165.088 18.358L162.682 20.4697C162.541 20.1881 162.342 19.9397 162.098 19.7408C161.854 19.5418 161.57 19.3969 161.266 19.3156C160.852 19.1495 160.403 19.0873 159.96 19.1344C159.516 19.1814 159.091 19.3364 158.721 19.5857C157.815 20.3667 157.177 21.4113 156.895 22.5731L154.686 29.2354L159.76 31.0197L158.688 34.2935L153.605 32.6075L149.382 45.3592L145.846 44.1397L150.037 31.388Z" fill="#262424"/>
<path d="M2.92611 323.154C2.60846 323.154 2.29516 323.08 2.01104 322.938C1.72691 322.796 1.47978 322.59 1.28918 322.336C0.757182 321.64 -11.929 304.968 -19.8354 277.369C-27.7418 249.771 -25.8184 228.916 -25.7365 228.041C-25.6833 227.498 -25.4168 226.999 -24.9954 226.652C-24.5741 226.306 -24.0325 226.142 -23.4898 226.195C-22.9472 226.248 -22.4478 226.515 -22.1017 226.936C-21.7556 227.357 -21.591 227.899 -21.6442 228.442C-21.6442 228.646 -23.5676 249.443 -15.9149 276.24C-8.2623 303.036 4.39116 319.668 4.54667 319.831C4.78826 320.134 4.93908 320.499 4.98162 320.883C5.02415 321.268 4.95665 321.657 4.78695 322.005C4.61726 322.353 4.35233 322.646 4.02294 322.849C3.69355 323.053 3.31322 323.158 2.92611 323.154V323.154Z" fill="#262424"/>
<path d="M41.4839 312.105H41.2793C41.0116 312.08 40.7516 312.001 40.5141 311.875C40.2767 311.749 40.0664 311.577 39.8954 311.37C39.7243 311.162 39.5959 310.923 39.5174 310.666C39.4388 310.409 39.4118 310.138 39.4378 309.871C39.4378 309.666 41.3612 288.869 33.7085 262.072C26.0559 235.276 13.4024 218.645 13.2469 218.473C12.9213 218.039 12.7815 217.493 12.8582 216.956C12.935 216.419 13.222 215.934 13.6561 215.608C14.0903 215.283 14.636 215.143 15.1732 215.22C15.7104 215.296 16.1951 215.583 16.5208 216.017C17.0528 216.713 29.739 233.385 37.6453 260.984C45.5517 288.583 43.6283 309.437 43.5464 310.313C43.484 310.813 43.2389 311.273 42.8582 311.604C42.4776 311.935 41.9882 312.113 41.4839 312.105V312.105Z" fill="#262424"/>
<path d="M8.50804 223.94L3.68728 260.321L-1.1662 261.712L0.626235 249.042L-15.5466 230.84L-10.0056 229.252L1.52654 242.789L3.98193 225.241L8.50804 223.94Z" fill="#262424"/>
<path d="M23.5925 304.632L15.5306 298.609L12.2568 307.882L7.24775 309.314L12.1585 296.039L0.757324 287.543L6.87945 285.791L14.8104 291.742L17.5358 282.739L22.4957 281.314L17.9369 294.099L29.5591 302.996L23.5925 304.632Z" fill="#262424"/>
<path d="M-8.49127 276.199C-8.98311 276.197 -9.45779 276.018 -9.82839 275.695C-10.199 275.371 -10.4407 274.925 -10.5093 274.438C-10.5779 273.951 -10.4687 273.456 -10.2018 273.043C-9.93495 272.629 -9.52817 272.326 -9.056 272.188L27.6931 261.655C27.9516 261.581 28.2221 261.558 28.4893 261.589C28.7565 261.619 29.0151 261.702 29.2503 261.832C29.4856 261.962 29.6928 262.138 29.8602 262.348C30.0277 262.559 30.152 262.8 30.2262 263.059C30.3004 263.317 30.3229 263.588 30.2925 263.855C30.2621 264.122 30.1793 264.381 30.049 264.616C29.9187 264.851 29.7433 265.058 29.5328 265.226C29.3224 265.393 29.081 265.517 28.8225 265.592L-7.92652 276.125C-8.11042 276.176 -8.30051 276.201 -8.49127 276.199V276.199Z" fill="#262424"/>
<path d="M-9.22797 484.384L-12.8128 475.782L-19.7943 481.625L-24.4678 480.406L-14.327 472.131L-19.4015 459.993L-13.6722 461.483L-10.1856 469.962L-3.76881 464.078L0.855521 465.281L-8.84329 473.31L-3.71151 485.832L-9.22797 484.384Z" fill="black"/>
<path d="M32.4727 474.677L31.4251 478.712L6.25731 472.164L7.30494 468.129L32.4727 474.677ZM29.96 484.31L28.9124 488.345L3.74463 481.797L4.79226 477.762L29.96 484.31Z" fill="black"/>
<path d="M48.932 499.55L45.3472 490.948L38.3657 496.791L33.7168 495.572L43.8576 487.297L38.7831 475.159L44.5123 476.649L48.0236 485.128L54.4403 479.244L59.0646 480.447L49.4068 488.484L54.5385 501.007L48.932 499.55Z" fill="black"/>
<path d="M62.8705 486.25C64.2596 484.852 66.0068 483.864 67.9205 483.393C69.9594 482.893 72.0926 482.924 74.1162 483.483C76.1414 483.973 78.0035 484.983 79.5181 486.414C80.9263 487.75 81.9375 489.449 82.44 491.324C82.9574 493.246 82.9574 495.271 82.44 497.193C81.9598 499.132 80.9808 500.913 79.5999 502.357C78.243 503.762 76.5188 504.757 74.6237 505.23C72.5765 505.735 70.4335 505.701 68.4033 505.132C66.3953 504.643 64.5395 503.664 63.0015 502.284C61.5598 500.982 60.5157 499.3 59.9895 497.43C59.4377 495.441 59.4377 493.338 59.9895 491.349C60.4726 489.421 61.468 487.659 62.8705 486.25V486.25ZM64.5075 496.374C64.7764 497.566 65.3617 498.663 66.2017 499.55C67.264 500.642 68.668 501.339 70.1806 501.523C71.6932 501.708 73.2234 501.37 74.5173 500.565C76.1234 499.526 77.2622 497.902 77.6929 496.039C78.229 494.194 78.0295 492.214 77.1364 490.514C76.7169 489.697 76.1248 488.981 75.4012 488.416C74.6777 487.851 73.8398 487.45 72.9458 487.24C71.7655 486.915 70.5153 486.946 69.3528 487.33C68.1956 487.717 67.158 488.397 66.3408 489.303C65.5 490.253 64.898 491.391 64.5849 492.621C64.2717 493.85 64.2564 495.137 64.5402 496.374H64.5075Z" fill="black"/>
</g>
<defs>
<clipPath id="clip0_407_650">
<rect width="1000" height="1000" fill="white"/>
</clipPath>
</defs>
</svg>
