<svg width="512" height="512" viewBox="0 0 512 512" fill="none" xmlns="http://www.w3.org/2000/svg">
<path d="M256.074 307.988L240.085 315.904L216.101 291.921L223.213 282.193L256.074 307.988Z" fill="#E6E9ED"/>
<path d="M256.394 307.988L272.379 315.904L296.363 291.921L289.258 282.193L256.394 307.988Z" fill="#E6E9ED"/>
<path d="M287.65 172.244C287.65 172.244 320.035 167.693 311.882 219.97L295.894 195.987C295.894 195.987 276.939 203.981 256.151 203.981C235.447 203.981 215.944 195.987 215.944 195.987L200.033 219.892L199.955 219.97C191.718 132.03 295.972 149.541 295.972 149.541C280.451 155.857 287.65 172.244 287.65 172.244Z" fill="#FF7690"/>
<path d="M287.65 172.244C287.65 172.244 307.496 168.395 304.998 209.64L311.883 219.969C320.035 167.693 287.65 172.244 287.65 172.244Z" fill="#FF1B46"/>
<path d="M279.688 148.175C250.711 147.394 193.789 154.109 199.957 219.97L200.035 219.892L207.585 208.556C208.645 158.418 251.46 148.924 279.688 148.175Z" fill="#FF7690"/>
<path d="M312.117 228.042C312.117 266.017 277.5 301.039 256.152 301.039C234.893 301.039 200.19 266.017 200.19 228.042V219.97L200.034 219.892L215.945 195.987C215.945 195.987 235.448 203.981 256.152 203.981C276.94 203.981 295.895 195.987 295.895 195.987L311.883 219.97H312.117V228.042Z" fill="#FF7690"/>
<path d="M311.883 219.97L295.895 195.987C295.895 195.987 290.649 198.173 282.749 200.25L295.895 219.971H296.129V228.043C296.129 261.56 269.178 292.733 248.173 299.605C250.96 300.518 253.653 301.041 256.152 301.041C277.5 301.041 312.117 266.019 312.117 228.044V219.972H311.883V219.97Z" fill="#FF7690"/>
<path d="M216.179 228.042V219.97L216.023 219.892L229.131 200.203C221.207 198.141 215.944 195.987 215.944 195.987L200.033 219.892L200.189 219.97V228.042C200.189 266.017 234.892 301.039 256.151 301.039C258.657 301.039 261.359 300.517 264.165 299.603C243.2 292.732 216.179 261.559 216.179 228.042Z" fill="white"/>
<path d="M351.857 363.871H159.983V355.877C159.983 355.877 159.983 350.522 159.983 337.249C159.983 323.898 166.697 318.871 179.969 313.906C186.52 311.43 198.277 307.035 207.95 302.398L217.303 293.123L240.085 315.904L256.074 307.988L272.067 315.904L294.77 293.201L303.889 302.32C313.633 307.035 325.313 311.43 331.871 313.906C345.221 318.871 351.857 323.898 351.857 337.249C351.857 350.521 351.857 355.877 351.857 355.877V363.871V363.871Z" fill="#FF1B46"/>
<path d="M175.972 337.249C175.972 323.898 182.686 318.871 195.958 313.906C202.508 311.43 214.266 307.035 223.939 302.398L225.266 301.086L217.302 293.123L207.949 302.398C198.276 307.035 186.518 311.43 179.968 313.906C166.696 318.871 159.982 323.898 159.982 337.249C159.982 350.521 159.982 355.877 159.982 355.877V363.871H175.971V355.877C175.972 355.877 175.972 350.521 175.972 337.249Z" fill="#FF7690"/>
<path d="M336.023 337.249C336.023 323.898 329.308 318.871 316.037 313.906C309.494 311.43 297.736 307.035 288.057 302.398L286.729 301.086L294.692 293.123L304.046 302.398C313.728 307.035 325.485 311.43 332.026 313.906C345.299 318.871 352.012 323.898 352.012 337.249C352.012 350.521 352.012 355.877 352.012 355.877V363.871H336.024V355.877C336.023 355.877 336.023 350.521 336.023 337.249Z" fill="#99102A"/>
<path d="M264.385 363.871H248.399L252.397 319.901H260.391L264.385 363.871Z" fill="#FF7690"/>
<path d="M263.244 309.034H249V319.901H263.244V309.034Z" fill="#FF7690"/>
<path d="M56.175 411.894C71.606 411.894 84.155 423.644 84.155 441.553C84.155 449.392 80.798 456.981 76.161 462.977C70.165 470.651 62.17 475.85 56.175 475.85C50.179 475.85 42.184 470.651 36.188 462.977C31.551 456.981 28.193 449.392 28.193 441.553C28.194 423.644 40.744 411.894 56.175 411.894Z" fill="#FF7690"/>
<path d="M76.162 471.533C76.162 474.811 88.076 480.729 94.227 483.049C100.863 485.524 104.142 487.998 104.142 494.635C104.142 501.193 104.142 507.828 104.142 507.828H8.208C8.208 507.828 8.208 501.192 8.208 494.635C8.208 487.998 11.487 485.524 18.123 483.049C24.275 480.73 36.189 474.812 36.189 471.533V462.976C42.185 470.65 50.18 475.849 56.176 475.849C62.172 475.849 70.166 470.65 76.162 462.976V471.533V471.533Z" fill="#FF7690"/>
<path d="M36.188 471.533C36.188 474.811 24.274 480.729 18.122 483.049C11.486 485.524 8.207 487.998 8.207 494.635C8.207 501.193 8.207 507.828 8.207 507.828H16.202C16.202 506.174 16.202 504.408 16.202 502.629C16.202 495.992 19.481 493.518 26.117 491.043C32.269 488.725 44.183 482.807 44.183 479.527V472.204C42.138 470.103 38.972 466.536 36.188 462.976V471.533V471.533Z" fill="#FF7690"/>
<path d="M44.183 470.971V472.204C46.541 474.632 47.396 475.085 44.183 470.971Z" fill="#FF7690"/>
<path d="M76.162 471.533C76.162 474.811 88.076 480.729 94.227 483.049C100.863 485.524 104.142 487.998 104.142 494.635C104.142 501.193 104.142 507.828 104.142 507.828H96.148C96.148 506.174 96.148 504.408 96.148 502.629C96.148 495.992 92.869 493.518 86.233 491.043C80.081 488.725 68.167 482.807 68.167 479.527V472.204C70.213 470.103 73.379 466.536 76.162 462.976V471.533Z" fill="#FF1B46"/>
<path d="M68.167 470.971V472.204C65.809 474.632 64.954 475.085 68.167 470.971Z" fill="#FF1B46"/>
<path d="M44.183 462.977C39.545 456.981 36.188 449.392 36.188 441.553C36.188 425.229 46.646 414.135 60.172 412.277C58.857 412.097 57.545 411.894 56.175 411.894C40.744 411.894 28.194 423.644 28.194 441.553C28.194 449.392 31.551 456.981 36.189 462.977C42.185 470.651 50.18 475.85 56.176 475.85C57.429 475.85 58.783 475.578 60.173 475.148C54.906 473.523 48.926 469.05 44.183 462.977Z" fill="white"/>
<g opacity="0.3">
<g opacity="0.3">
<path opacity="0.3" d="M68.167 462.977C72.805 456.981 76.162 449.392 76.162 441.553C76.162 425.229 65.704 414.135 52.178 412.277C53.493 412.097 54.805 411.894 56.176 411.894C71.607 411.894 84.156 423.644 84.156 441.553C84.156 449.392 80.799 456.981 76.162 462.977C70.166 470.651 62.171 475.85 56.176 475.85C54.923 475.85 53.568 475.578 52.178 475.148C57.444 473.523 63.424 469.05 68.167 462.977Z" fill="black"/>
</g>
</g>
<path d="M455.895 411.894C471.331 411.894 483.877 423.644 483.877 441.553C483.877 449.392 480.52 456.981 475.881 462.977C469.885 470.651 461.891 475.85 455.895 475.85C449.899 475.85 441.905 470.651 435.909 462.977C431.272 456.981 427.915 449.392 427.915 441.553C427.914 423.644 440.461 411.894 455.895 411.894Z" fill="#FF7690"/>
<path d="M475.881 471.533C475.881 474.811 487.795 480.729 493.947 483.049C500.584 485.524 503.863 487.998 503.863 494.635C503.863 501.193 503.863 507.828 503.863 507.828H407.927C407.927 507.828 407.927 501.192 407.927 494.635C407.927 487.998 411.206 485.524 417.843 483.049C423.993 480.73 435.907 474.812 435.907 471.533V462.976C441.903 470.65 449.897 475.849 455.893 475.849C461.889 475.849 469.883 470.65 475.879 462.976V471.533H475.881Z" fill="#FF7690"/>
<path d="M435.908 471.533C435.908 474.811 423.994 480.729 417.844 483.049C411.207 485.524 407.928 487.998 407.928 494.635C407.928 501.193 407.928 507.828 407.928 507.828H415.922C415.922 506.174 415.922 504.408 415.922 502.629C415.922 495.992 419.201 493.518 425.838 491.043C431.99 488.725 443.902 482.807 443.902 479.527V472.204C441.857 470.103 438.695 466.536 435.908 462.976V471.533Z" fill="#FF7690"/>
<path d="M443.902 470.971V472.204C446.262 474.632 447.111 475.085 443.902 470.971Z" fill="#FF7690"/>
<path d="M475.881 471.533C475.881 474.811 487.795 480.729 493.947 483.049C500.584 485.524 503.863 487.998 503.863 494.635C503.863 501.193 503.863 507.828 503.863 507.828H495.867C495.867 506.174 495.867 504.408 495.867 502.629C495.867 495.992 492.588 493.518 485.953 491.043C479.801 488.725 467.887 482.807 467.887 479.527V472.204C469.932 470.103 473.094 466.536 475.881 462.976V471.533Z" fill="#FF1B46"/>
<path d="M467.887 470.971V472.204C465.529 474.632 464.678 475.085 467.887 470.971Z" fill="#FF1B46"/>
<path d="M443.902 462.977C439.265 456.981 435.908 449.392 435.908 441.553C435.908 425.229 446.363 414.135 459.892 412.277C458.572 412.097 457.261 411.894 455.894 411.894C440.46 411.894 427.914 423.644 427.914 441.553C427.914 449.392 431.271 456.981 435.908 462.977C441.904 470.651 449.898 475.85 455.894 475.85C457.152 475.85 458.501 475.578 459.892 475.148C454.623 473.523 448.643 469.05 443.902 462.977Z" fill="white"/>
<g opacity="0.3">
<g opacity="0.3">
<path opacity="0.3" d="M467.887 462.977C472.524 456.981 475.881 449.392 475.881 441.553C475.881 425.229 465.428 414.135 451.899 412.277C453.217 412.097 454.53 411.894 455.895 411.894C471.331 411.894 483.877 423.644 483.877 441.553C483.877 449.392 480.52 456.981 475.881 462.977C469.885 470.651 461.891 475.85 455.895 475.85C454.639 475.85 453.288 475.578 451.899 475.148C457.168 473.523 463.148 469.05 467.887 462.977Z" fill="black"/>
</g>
</g>
<path d="M455.895 4.1709C471.331 4.1709 483.877 15.9209 483.877 33.8309C483.877 41.6689 480.52 49.2579 475.881 55.2539C469.885 62.9279 461.891 68.1279 455.895 68.1279C449.899 68.1279 441.905 62.9279 435.909 55.2539C431.272 49.2579 427.915 41.6689 427.915 33.8309C427.914 15.9209 440.461 4.1709 455.895 4.1709Z" fill="#FF7690"/>
<path d="M475.881 63.8109C475.881 67.0899 487.795 73.0079 493.947 75.3269C500.584 77.8019 503.863 80.2759 503.863 86.9129C503.863 93.4709 503.863 100.107 503.863 100.107H407.927C407.927 100.107 407.927 93.4709 407.927 86.9129C407.927 80.2759 411.206 77.8019 417.843 75.3269C423.993 73.0079 435.907 67.0899 435.907 63.8109V55.2539C441.903 62.9279 449.897 68.1279 455.893 68.1279C461.889 68.1279 469.883 62.9279 475.879 55.2539V63.8109H475.881Z" fill="#FF7690"/>
<path d="M435.908 63.8109C435.908 67.0899 423.994 73.0079 417.844 75.3269C411.207 77.8019 407.928 80.2759 407.928 86.9129C407.928 93.4709 407.928 100.107 407.928 100.107H415.922C415.922 98.4519 415.922 96.6879 415.922 94.9069C415.922 88.2709 419.201 85.7959 425.838 83.3209C431.99 81.0029 443.902 75.0849 443.902 71.8049V64.4819C441.857 62.3819 438.695 58.8139 435.908 55.2539V63.8109Z" fill="#FF7690"/>
<path d="M443.902 63.2479V64.4809C446.262 66.9099 447.111 67.3619 443.902 63.2479Z" fill="#FF7690"/>
<path d="M475.881 63.8109C475.881 67.0899 487.795 73.0079 493.947 75.3269C500.584 77.8019 503.863 80.2759 503.863 86.9129C503.863 93.4709 503.863 100.107 503.863 100.107H495.867C495.867 98.4519 495.867 96.6879 495.867 94.9069C495.867 88.2709 492.588 85.7959 485.953 83.3209C479.801 81.0029 467.887 75.0849 467.887 71.8049V64.4819C469.932 62.3819 473.094 58.8139 475.881 55.2539V63.8109Z" fill="#FF1B46"/>
<path d="M467.887 63.2479V64.4809C465.529 66.9099 464.678 67.3619 467.887 63.2479Z" fill="#FF1B46"/>
<path d="M443.902 55.254C439.265 49.258 435.908 41.669 435.908 33.831C435.908 17.506 446.363 6.412 459.892 4.554C458.572 4.374 457.261 4.172 455.894 4.172C440.46 4.172 427.914 15.922 427.914 33.832C427.914 41.67 431.271 49.259 435.908 55.255C441.904 62.929 449.898 68.129 455.894 68.129C457.152 68.129 458.501 67.856 459.892 67.426C454.623 65.801 448.643 61.328 443.902 55.254Z" fill="white"/>
<path d="M467.887 55.254C472.524 49.258 475.881 41.669 475.881 33.831C475.881 17.506 465.428 6.412 451.899 4.554C453.217 4.374 454.53 4.172 455.895 4.172C471.331 4.172 483.877 15.922 483.877 33.832C483.877 41.67 480.52 49.259 475.881 55.255C469.885 62.929 461.891 68.129 455.895 68.129C454.639 68.129 453.288 67.856 451.899 67.426C457.168 65.801 463.148 61.328 467.887 55.254Z" fill="#FF7690"/>
<path d="M56.148 4.1709C71.583 4.1709 84.128 15.9209 84.128 33.8309C84.128 41.6689 80.771 49.2579 76.134 55.2539C70.138 62.9279 62.143 68.1279 56.148 68.1279C50.152 68.1279 42.157 62.9279 36.161 55.2539C31.524 49.2579 28.166 41.6689 28.166 33.8309C28.167 15.9209 40.713 4.1709 56.148 4.1709Z" fill="#FF7690"/>
<path d="M76.134 63.8109C76.134 67.0899 88.048 73.0079 94.199 75.3269C100.835 77.8019 104.114 80.2759 104.114 86.9129C104.114 93.4709 104.114 100.107 104.114 100.107H8.18C8.18 100.107 8.18 93.4709 8.18 86.9129C8.18 80.2759 11.459 77.8019 18.095 75.3269C24.247 73.0079 36.161 67.0899 36.161 63.8109V55.2539C42.157 62.9279 50.152 68.1279 56.148 68.1279C62.144 68.1279 70.138 62.9279 76.134 55.2539V63.8109Z" fill="#FF7690"/>
<path d="M36.161 63.8109C36.161 67.0899 24.247 73.0079 18.095 75.3269C11.459 77.8019 8.18 80.2759 8.18 86.9129C8.18 93.4709 8.18 100.107 8.18 100.107H16.175C16.175 98.4519 16.175 96.6879 16.175 94.9069C16.175 88.2709 19.454 85.7959 26.09 83.3209C32.242 81.0029 44.156 75.0849 44.156 71.8049V64.4819C42.111 62.3819 38.949 58.8139 36.161 55.2539V63.8109V63.8109Z" fill="#FF7690"/>
<path d="M44.156 63.2479V64.4809C46.514 66.9099 47.365 67.3619 44.156 63.2479Z" fill="#FF7690"/>
<path d="M76.134 63.8109C76.134 67.0899 88.048 73.0079 94.199 75.3269C100.835 77.8019 104.114 80.2759 104.114 86.9129C104.114 93.4709 104.114 100.107 104.114 100.107H96.12C96.12 98.4519 96.12 96.6879 96.12 94.9069C96.12 88.2709 92.841 85.7959 86.205 83.3209C80.053 81.0029 68.139 75.0849 68.139 71.8049V64.4819C70.185 62.3819 73.347 58.8139 76.134 55.2539V63.8109V63.8109Z" fill="#FF1B46"/>
<path d="M68.139 63.2479V64.4809C65.782 66.9099 64.931 67.3619 68.139 63.2479Z" fill="#FF1B46"/>
<path d="M44.156 55.254C39.518 49.258 36.161 41.669 36.161 33.831C36.161 17.506 46.615 6.412 60.145 4.554C58.826 4.374 57.514 4.172 56.148 4.172C40.713 4.172 28.167 15.922 28.167 33.832C28.167 41.67 31.524 49.259 36.162 55.255C42.158 62.929 50.153 68.129 56.149 68.129C57.406 68.129 58.756 67.856 60.146 67.426C54.875 65.801 48.895 61.328 44.156 55.254Z" fill="white"/>
<path d="M68.139 55.254C72.777 49.258 76.134 41.669 76.134 33.831C76.134 17.506 65.68 6.412 52.15 4.554C53.469 4.374 54.781 4.172 56.148 4.172C71.583 4.172 84.128 15.922 84.128 33.832C84.128 41.67 80.771 49.259 76.134 55.255C70.138 62.929 62.143 68.129 56.148 68.129C54.891 68.129 53.54 67.856 52.15 67.426C57.42 65.801 63.4 61.328 68.139 55.254Z" fill="#FF7690"/>
<path d="M503.832 511.826H407.896C405.687 511.826 403.898 510.038 403.898 507.828V494.627C403.898 484.828 410.339 481.596 416.375 479.34C423.215 476.772 430.529 472.54 431.975 470.76C432.332 468.925 433.95 467.535 435.893 467.535C438.102 467.535 439.891 469.323 439.891 471.533C439.891 478.512 424.041 485 419.186 486.819C412.901 489.176 411.895 490.754 411.895 494.627V503.831H499.834V494.627C499.834 490.754 498.826 489.177 492.535 486.827C489.076 485.531 471.853 478.707 471.853 471.533C471.853 469.323 473.64 467.535 475.849 467.535C477.794 467.535 479.417 468.925 479.777 470.76C481.205 472.548 488.513 476.78 495.338 479.34C501.379 481.596 507.828 484.82 507.828 494.627V507.828C507.828 510.038 506.041 511.826 503.832 511.826Z" fill="#99102A"/>
<path d="M455.863 479.848C442.201 479.848 423.9 460.9 423.9 441.53C423.9 422.356 437.642 407.897 455.863 407.897C474.39 407.897 487.842 422.043 487.842 441.53C487.842 460.899 469.535 479.848 455.863 479.848ZM455.863 415.891C441.974 415.891 431.896 426.673 431.896 441.53C431.896 457.816 447.97 471.853 455.863 471.853C463.765 471.853 479.847 457.816 479.847 441.53C479.848 426.673 469.76 415.891 455.863 415.891Z" fill="#99102A"/>
<path d="M475.85 475.53C473.641 475.53 471.854 473.742 471.854 471.533V462.969C471.854 460.759 473.641 458.971 475.85 458.971C478.061 458.971 479.848 460.759 479.848 462.969V471.533C479.848 473.742 478.061 475.53 475.85 475.53Z" fill="#99102A"/>
<path d="M435.893 475.53C433.684 475.53 431.897 473.742 431.897 471.533V462.969C431.897 460.759 433.684 458.971 435.893 458.971C438.102 458.971 439.891 460.759 439.891 462.969V471.533C439.891 473.742 438.102 475.53 435.893 475.53Z" fill="#99102A"/>
<path d="M104.103 511.826H8.168C5.959 511.826 4.171 510.038 4.171 507.828V494.627C4.171 484.828 10.616 481.596 16.658 479.34C23.49 476.772 30.804 472.54 32.241 470.76C32.6 468.925 34.22 467.535 36.164 467.535C38.373 467.535 40.162 469.323 40.162 471.533C40.162 478.52 24.317 485 19.465 486.819C13.173 489.176 12.165 490.761 12.165 494.627V503.831H100.105V494.627C100.105 490.754 99.098 489.177 92.805 486.827C89.347 485.531 72.132 478.707 72.132 471.533C72.132 469.323 73.92 467.535 76.13 467.535C78.073 467.535 79.693 468.925 80.053 470.767C81.486 472.547 88.789 476.779 95.609 479.339C101.648 481.595 108.101 484.819 108.101 494.626V507.827C108.101 510.038 106.313 511.826 104.103 511.826Z" fill="#99102A"/>
<path d="M56.144 479.848C42.481 479.848 24.173 460.9 24.173 441.53C24.173 422.356 37.917 407.897 56.144 407.897C74.674 407.897 88.122 422.043 88.122 441.53C88.122 460.899 69.81 479.848 56.144 479.848ZM56.144 415.891C42.25 415.891 32.168 426.673 32.168 441.53C32.168 457.816 48.251 471.853 56.144 471.853C64.04 471.853 80.127 457.816 80.127 441.53C80.127 426.673 70.041 415.891 56.144 415.891Z" fill="#99102A"/>
<path d="M76.13 475.53C73.92 475.53 72.132 473.742 72.132 471.533V462.969C72.132 460.759 73.92 458.971 76.13 458.971C78.339 458.971 80.127 460.759 80.127 462.969V471.533C80.127 473.742 78.339 475.53 76.13 475.53Z" fill="#99102A"/>
<path d="M36.165 475.53C33.956 475.53 32.168 473.742 32.168 471.533V462.969C32.168 460.759 33.956 458.971 36.165 458.971C38.374 458.971 40.163 460.759 40.163 462.969V471.533C40.163 473.742 38.375 475.53 36.165 475.53Z" fill="#99102A"/>
<path d="M503.832 104.104H407.896C405.687 104.104 403.898 102.316 403.898 100.106V86.904C403.898 77.106 410.339 73.874 416.375 71.617C423.215 69.049 430.529 64.817 431.975 63.037C432.332 61.203 433.95 59.813 435.893 59.813C438.102 59.813 439.891 61.601 439.891 63.811C439.891 70.79 424.041 77.278 419.186 79.097C412.901 81.455 411.895 83.032 411.895 86.905V96.109H499.834V86.905C499.834 83.032 498.826 81.455 492.535 79.105C489.076 77.809 471.853 70.986 471.853 63.811C471.853 61.601 473.64 59.813 475.849 59.813C477.794 59.813 479.417 61.203 479.777 63.037C481.205 64.825 488.513 69.057 495.338 71.617C501.379 73.874 507.828 77.098 507.828 86.904V100.106C507.828 102.315 506.041 104.104 503.832 104.104Z" fill="#99102A"/>
<path d="M455.863 72.1249C442.201 72.1249 423.9 53.1769 423.9 33.8079C423.9 14.6329 437.642 0.17395 455.863 0.17395C474.39 0.17395 487.842 14.3199 487.842 33.8079C487.842 53.1769 469.535 72.1249 455.863 72.1249ZM455.863 8.16795C441.974 8.16795 431.896 18.9499 431.896 33.8069C431.896 50.0929 447.97 64.1299 455.863 64.1299C463.765 64.1299 479.847 50.0929 479.847 33.8069C479.848 18.9499 469.76 8.16795 455.863 8.16795Z" fill="#99102A"/>
<path d="M475.85 67.8079C473.641 67.8079 471.854 66.0199 471.854 63.8109V55.2469C471.854 53.0369 473.641 51.2489 475.85 51.2489C478.061 51.2489 479.848 53.0369 479.848 55.2469V63.8109C479.848 66.0199 478.061 67.8079 475.85 67.8079Z" fill="#99102A"/>
<path d="M435.893 67.8079C433.684 67.8079 431.897 66.0199 431.897 63.8109V55.2469C431.897 53.0369 433.684 51.2489 435.893 51.2489C438.102 51.2489 439.891 53.0369 439.891 55.2469V63.8109C439.891 66.0199 438.102 67.8079 435.893 67.8079Z" fill="#99102A"/>
<path d="M104.103 104.104H8.168C5.959 104.104 4.171 102.316 4.171 100.106V86.904C4.171 77.106 10.616 73.874 16.658 71.617C23.49 69.049 30.804 64.817 32.241 63.037C32.6 61.203 34.22 59.813 36.164 59.813C38.373 59.813 40.162 61.601 40.162 63.811C40.162 70.798 24.317 77.278 19.465 79.097C13.173 81.455 12.165 83.04 12.165 86.905V96.109H100.105V86.905C100.105 83.032 99.098 81.455 92.805 79.105C89.347 77.809 72.132 70.986 72.132 63.811C72.132 61.601 73.92 59.813 76.13 59.813C78.073 59.813 79.693 61.203 80.053 63.045C81.486 64.825 88.789 69.057 95.609 71.617C101.648 73.874 108.101 77.098 108.101 86.904V100.106C108.101 102.315 106.313 104.104 104.103 104.104Z" fill="#99102A"/>
<path d="M56.144 72.1249C42.481 72.1249 24.173 53.1769 24.173 33.8079C24.173 14.6329 37.917 0.17395 56.144 0.17395C74.674 0.17395 88.122 14.3199 88.122 33.8079C88.122 53.1769 69.81 72.1249 56.144 72.1249ZM56.144 8.16795C42.25 8.16795 32.168 18.9499 32.168 33.8069C32.168 50.0929 48.251 64.1299 56.144 64.1299C64.04 64.1299 80.127 50.0929 80.127 33.8069C80.127 18.9499 70.041 8.16795 56.144 8.16795Z" fill="#99102A"/>
<path d="M76.13 67.8079C73.92 67.8079 72.132 66.0199 72.132 63.8109V55.2469C72.132 53.0369 73.92 51.2489 76.13 51.2489C78.339 51.2489 80.127 53.0369 80.127 55.2469V63.8109C80.127 66.0199 78.339 67.8079 76.13 67.8079Z" fill="#99102A"/>
<path d="M36.165 67.8079C33.956 67.8079 32.168 66.0199 32.168 63.8109V55.2469C32.168 53.0369 33.956 51.2489 36.165 51.2489C38.374 51.2489 40.163 53.0369 40.163 55.2469V63.8109C40.163 66.0199 38.375 67.8079 36.165 67.8079Z" fill="#99102A"/>
<path d="M160.073 367.885C157.864 367.885 156.076 366.097 156.076 363.887V337.249C156.076 321.666 164.355 315.521 178.662 310.174C186.153 307.379 197.173 303.155 206.319 298.791C208.302 297.839 210.691 298.674 211.647 300.673C212.6 302.671 211.756 305.053 209.762 306.005C200.331 310.51 189.093 314.819 181.457 317.669C167.807 322.767 164.071 326.975 164.071 337.249V363.887C164.07 366.097 162.283 367.885 160.073 367.885Z" fill="#99102A"/>
<path d="M351.936 367.885C349.725 367.885 347.938 366.097 347.938 363.887V337.249C347.938 326.975 344.198 322.767 330.551 317.669C322.947 314.827 311.737 310.525 302.227 305.974C300.237 305.022 299.393 302.632 300.346 300.642C301.297 298.635 303.694 297.816 305.678 298.76C314.897 303.179 325.883 307.395 333.346 310.174C347.649 315.522 355.932 321.666 355.932 337.249V363.887C355.932 366.097 354.145 367.885 351.936 367.885Z" fill="#99102A"/>
<path d="M255.82 303.928C233.23 303.928 195.861 267.977 195.861 227.012C195.861 224.803 197.649 223.015 199.859 223.015C202.069 223.015 203.857 224.803 203.857 227.012C203.857 262.55 236.276 295.934 255.821 295.934C275.362 295.934 307.778 262.55 307.778 227.012C307.778 224.803 309.565 223.015 311.776 223.015C313.985 223.015 315.772 224.803 315.772 227.012C315.771 267.977 278.406 303.928 255.82 303.928Z" fill="#99102A"/>
<path d="M311.541 222.89C310.221 222.89 308.965 222.234 308.215 221.11L293.998 199.789C287.635 202.092 272.379 206.901 255.82 206.901C239.195 206.901 223.604 202.061 217.163 199.765L202.934 221.11C201.994 222.515 200.276 223.195 198.628 222.765C196.989 222.351 195.786 220.953 195.627 219.267C193.535 196.868 198.356 179.052 209.957 166.31C226.668 147.963 253.775 144.115 273.574 144.115C286.752 144.115 296.285 145.809 296.683 145.879C298.431 146.191 299.759 147.628 299.947 149.392C300.135 151.156 299.135 152.835 297.496 153.514C293.92 154.982 291.578 157.082 290.516 159.76C289.477 162.375 289.758 165.17 290.196 167.091C294.272 167.255 302.485 168.567 308.739 175.866C316.343 184.758 318.614 199.435 315.491 219.508C315.233 221.132 314.009 222.444 312.399 222.795C312.109 222.858 311.822 222.89 311.541 222.89ZM295.551 190.911C296.856 190.911 298.119 191.552 298.877 192.691L308.738 207.486C309.353 195.509 307.293 186.484 302.664 181.066C298.189 175.851 292.326 175.07 289.226 175.07C288.447 175.07 287.947 175.125 287.845 175.132C286.103 175.343 284.394 174.422 283.667 172.829C283.519 172.501 279.999 164.608 283.083 156.816C283.683 155.286 284.487 153.88 285.487 152.592C268.483 151.21 234.248 151.507 215.865 171.696C207.976 180.354 203.737 191.964 203.202 206.29L212.27 192.69C213.32 191.105 215.338 190.473 217.114 191.207C217.301 191.285 236.128 198.905 255.818 198.905C275.539 198.905 293.816 191.301 293.996 191.223C294.506 191.013 295.027 190.911 295.551 190.911Z" fill="#99102A"/>
<path d="M311.775 231.009C309.564 231.009 307.777 229.221 307.777 227.012V218.893C307.777 216.683 309.564 214.895 311.775 214.895C313.984 214.895 315.771 216.683 315.771 218.893V227.012C315.771 229.221 313.984 231.009 311.775 231.009Z" fill="#99102A"/>
<path d="M199.858 231.009C197.649 231.009 195.86 229.221 195.86 227.012V218.893C195.86 216.683 197.648 214.895 199.858 214.895C202.068 214.895 203.856 216.683 203.856 218.893V227.012C203.856 229.221 202.068 231.009 199.858 231.009Z" fill="#99102A"/>
<path d="M240.143 319.917C239.109 319.917 238.086 319.512 237.317 318.746L213.334 294.763C211.772 293.201 211.772 290.672 213.334 289.111C214.896 287.55 217.425 287.549 218.986 289.111L240.94 311.065L254.466 304.342C256.433 303.374 258.842 304.17 259.822 306.146C260.804 308.129 259.998 310.526 258.017 311.509L241.919 319.504C241.357 319.784 240.749 319.917 240.143 319.917Z" fill="#99102A"/>
<path d="M272.113 319.917C271.513 319.917 270.904 319.784 270.334 319.504L254.231 311.509C252.252 310.526 251.444 308.129 252.428 306.146C253.407 304.17 255.812 303.375 257.783 304.342L271.318 311.065L293.271 289.111C294.832 287.549 297.363 287.549 298.923 289.111C300.483 290.673 300.484 293.202 298.923 294.763L274.939 318.746C274.176 319.512 273.152 319.917 272.113 319.917Z" fill="#99102A"/>
<path d="M256.429 327.912C255.407 327.912 254.384 327.521 253.603 326.74L245.608 318.746C244.047 317.184 244.047 314.655 245.608 313.094C247.17 311.532 249.699 311.532 251.26 313.094L259.255 321.088C260.816 322.65 260.816 325.18 259.255 326.74C258.475 327.521 257.451 327.912 256.429 327.912Z" fill="#99102A"/>
<path d="M256.429 327.912C255.407 327.912 254.384 327.521 253.603 326.74C252.041 325.179 252.041 322.649 253.603 321.088L261.598 313.094C263.159 311.532 265.69 311.532 267.25 313.094C268.812 314.656 268.812 317.185 267.25 318.746L259.256 326.74C258.475 327.521 257.451 327.912 256.429 327.912Z" fill="#99102A"/>
<path d="M248.438 359.89C248.29 359.89 248.142 359.883 247.993 359.868C245.799 359.626 244.218 357.65 244.46 355.448L248.458 319.473C248.704 317.286 250.742 315.764 252.873 315.944C255.067 316.186 256.648 318.161 256.406 320.363L252.409 356.339C252.182 358.375 250.449 359.89 248.438 359.89Z" fill="#99102A"/>
<path d="M264.416 359.89C262.41 359.89 260.676 358.375 260.449 356.338L256.452 320.362C256.21 318.16 257.79 316.185 259.986 315.943C262.242 315.755 264.158 317.286 264.4 319.472L268.398 355.447C268.64 357.649 267.054 359.625 264.869 359.867C264.713 359.883 264.564 359.89 264.416 359.89Z" fill="#99102A"/>
<path d="M351.936 367.885H160.073C157.864 367.885 156.076 366.097 156.076 363.887C156.076 361.678 157.864 359.89 160.073 359.89H351.936C354.145 359.89 355.932 361.678 355.932 363.887C355.932 366.097 354.145 367.885 351.936 367.885Z" fill="#99102A"/>
<path d="M104.033 423.886C103.011 423.886 101.992 423.495 101.211 422.723C99.646 421.161 99.646 418.631 101.203 417.063L141.067 377.09C142.628 375.528 145.158 375.535 146.719 377.082C148.284 378.643 148.284 381.172 146.727 382.742L106.863 422.715C106.083 423.495 105.06 423.886 104.033 423.886Z" fill="#99102A"/>
<path d="M112.098 423.886H104.033C101.824 423.886 100.036 422.098 100.036 419.889C100.036 417.679 101.824 415.891 104.033 415.891H112.098C114.307 415.891 116.095 417.679 116.095 419.889C116.095 422.098 114.307 423.886 112.098 423.886Z" fill="#99102A"/>
<path d="M104.103 423.776C101.894 423.776 100.106 421.988 100.106 419.779V411.893C100.106 409.684 101.894 407.896 104.103 407.896C106.313 407.896 108.101 409.684 108.101 411.893V419.779C108.101 421.988 106.313 423.776 104.103 423.776Z" fill="#99102A"/>
<path d="M407.896 423.886C406.873 423.886 405.843 423.495 405.062 422.715L365.199 382.742C363.644 381.172 363.644 378.642 365.207 377.082C366.768 375.535 369.305 375.527 370.867 377.09L410.73 417.063C412.283 418.631 412.283 421.162 410.722 422.723C409.941 423.495 408.92 423.886 407.896 423.886Z" fill="#99102A"/>
<path d="M407.896 423.886H399.839C397.63 423.886 395.841 422.098 395.841 419.889C395.841 417.679 397.63 415.891 399.839 415.891H407.896C410.105 415.891 411.894 417.679 411.894 419.889C411.895 422.098 410.105 423.886 407.896 423.886Z" fill="#99102A"/>
<path d="M407.834 423.776C405.625 423.776 403.836 421.988 403.836 419.779V411.893C403.836 409.684 405.625 407.896 407.834 407.896C410.043 407.896 411.832 409.684 411.832 411.893V419.779C411.832 421.988 410.043 423.776 407.834 423.776Z" fill="#99102A"/>
<path d="M143.896 168.06C142.869 168.06 141.847 167.67 141.066 166.889L101.202 126.916C99.644 125.347 99.644 122.817 101.21 121.256C102.772 119.71 105.301 119.702 106.862 121.264L146.726 161.237C148.284 162.806 148.284 165.336 146.718 166.897C145.938 167.669 144.919 168.06 143.896 168.06Z" fill="#99102A"/>
<path d="M112.098 128.087H104.033C101.824 128.087 100.036 126.299 100.036 124.09C100.036 121.88 101.824 120.092 104.033 120.092H112.098C114.307 120.092 116.095 121.88 116.095 124.09C116.095 126.299 114.307 128.087 112.098 128.087Z" fill="#99102A"/>
<path d="M104.103 136.082C101.894 136.082 100.106 134.294 100.106 132.084V124.199C100.106 121.989 101.894 120.201 104.103 120.201C106.313 120.201 108.101 121.989 108.101 124.199V132.084C108.101 134.294 106.313 136.082 104.103 136.082Z" fill="#99102A"/>
<path d="M368.033 168.06C367.01 168.06 365.988 167.67 365.207 166.897C363.645 165.335 363.645 162.806 365.199 161.237L405.062 121.264C406.623 119.702 409.162 119.71 410.722 121.256C412.283 122.818 412.283 125.347 410.73 126.916L370.867 166.889C370.086 167.669 369.057 168.06 368.033 168.06Z" fill="#99102A"/>
<path d="M407.896 128.087H399.839C397.63 128.087 395.841 126.299 395.841 124.09C395.841 121.88 397.63 120.092 399.839 120.092H407.896C410.105 120.092 411.894 121.88 411.894 124.09C411.895 126.299 410.105 128.087 407.896 128.087Z" fill="#99102A"/>
<path d="M407.834 136.082C405.625 136.082 403.836 134.294 403.836 132.084V124.199C403.836 121.989 405.625 120.201 407.834 120.201C410.043 120.201 411.832 121.989 411.832 124.199V132.084C411.832 134.294 410.043 136.082 407.834 136.082Z" fill="#99102A"/>
<path d="M336.43 48.181C335.407 48.181 334.385 47.79 333.604 47.01L327.905 41.319C326.343 39.757 326.343 37.228 327.905 35.667C329.466 34.105 331.995 34.105 333.557 35.667L339.256 41.358C340.817 42.92 340.817 45.449 339.256 47.01C338.475 47.79 337.453 48.181 336.43 48.181Z" fill="#99102A"/>
<path d="M330.73 53.794C329.707 53.794 328.685 53.403 327.904 52.623C326.342 51.062 326.342 48.532 327.904 46.971L333.478 41.397C335.039 39.835 337.57 39.835 339.13 41.397C340.691 42.958 340.691 45.488 339.13 47.049L333.556 52.623C332.775 53.403 331.754 53.794 330.73 53.794Z" fill="#99102A"/>
<path d="M181.746 53.958C180.724 53.958 179.701 53.567 178.92 52.787L173.229 47.096C171.667 45.534 171.667 43.005 173.229 41.444C174.791 39.882 177.32 39.882 178.881 41.444L184.572 47.135C186.134 48.696 186.134 51.226 184.572 52.787C183.792 53.567 182.768 53.958 181.746 53.958Z" fill="#99102A"/>
<path d="M176.171 48.2279C175.149 48.2279 174.126 47.8369 173.345 47.0569C171.783 45.4949 171.783 42.9659 173.345 41.4049L178.919 35.8299C180.481 34.2689 183.01 34.2689 184.571 35.8299C186.133 37.3919 186.133 39.9209 184.571 41.4829L178.997 47.0569C178.217 47.8369 177.194 48.2279 176.171 48.2279Z" fill="#99102A"/>
<path d="M336.43 48.267H176.054C173.845 48.267 172.057 46.479 172.057 44.269C172.057 42.059 173.845 40.271 176.054 40.271H336.43C338.639 40.271 340.428 42.059 340.428 44.269C340.428 46.479 338.639 48.267 336.43 48.267Z" fill="#99102A"/>
<path d="M336.43 471.821C335.407 471.821 334.385 471.431 333.604 470.65L327.905 464.951C326.343 463.389 326.343 460.86 327.905 459.299C329.466 457.737 331.995 457.737 333.557 459.299L339.256 464.998C340.817 466.56 340.817 469.089 339.256 470.65C338.475 471.432 337.453 471.821 336.43 471.821Z" fill="#99102A"/>
<path d="M330.73 477.428C329.707 477.428 328.685 477.037 327.904 476.256C326.342 474.694 326.342 472.165 327.904 470.604L333.478 465.03C335.039 463.468 337.57 463.468 339.13 465.03C340.69 466.592 340.691 469.121 339.13 470.682L333.556 476.256C332.775 477.037 331.754 477.428 330.73 477.428Z" fill="#99102A"/>
<path d="M181.746 477.599C180.724 477.599 179.697 477.209 178.916 476.428L173.225 470.729C171.667 469.167 171.667 466.638 173.229 465.077C174.791 463.516 177.324 463.515 178.885 465.077L184.576 470.776C186.134 472.338 186.134 474.867 184.572 476.428C183.792 477.209 182.768 477.599 181.746 477.599Z" fill="#99102A"/>
<path d="M176.171 471.868C175.149 471.868 174.126 471.478 173.345 470.697C171.783 469.135 171.783 466.606 173.345 465.045L178.919 459.471C180.481 457.909 183.01 457.909 184.571 459.471C186.132 461.033 186.133 463.562 184.571 465.123L178.997 470.697C178.217 471.479 177.194 471.868 176.171 471.868Z" fill="#99102A"/>
<path d="M336.43 471.899H176.054C173.845 471.899 172.057 470.111 172.057 467.902C172.057 465.693 173.845 463.905 176.054 463.905H336.43C338.639 463.905 340.428 465.693 340.428 467.902C340.428 470.111 338.639 471.899 336.43 471.899Z" fill="#99102A"/>
<path d="M455.895 336.188C454.874 336.188 453.85 335.797 453.069 335.017C451.508 333.455 451.508 330.926 453.069 329.365L458.768 323.674C460.33 322.112 462.86 322.112 464.42 323.674C465.982 325.236 465.982 327.765 464.42 329.326L458.721 335.017C457.941 335.797 456.918 336.188 455.895 336.188Z" fill="#99102A"/>
<path d="M455.863 336.07C454.842 336.07 453.818 335.679 453.037 334.899L447.463 329.325C445.902 327.763 445.902 325.234 447.463 323.673C449.025 322.111 451.555 322.111 453.115 323.673L458.689 329.247C460.251 330.809 460.251 333.338 458.689 334.899C457.91 335.68 456.887 336.07 455.863 336.07Z" fill="#99102A"/>
<path d="M450.117 189.498C449.096 189.498 448.072 189.108 447.291 188.327C445.73 186.765 445.73 184.236 447.291 182.675L452.99 176.984C454.552 175.422 457.082 175.422 458.642 176.984C460.204 178.546 460.204 181.075 458.642 182.636L452.943 188.327C452.164 189.108 451.141 189.498 450.117 189.498Z" fill="#99102A"/>
<path d="M461.422 189.498C460.401 189.498 459.377 189.108 458.596 188.327L453.022 182.753C451.461 181.191 451.461 178.662 453.022 177.101C454.584 175.539 457.114 175.539 458.674 177.101L464.248 182.675C465.81 184.237 465.81 186.766 464.248 188.327C463.469 189.108 462.445 189.498 461.422 189.498Z" fill="#99102A"/>
<path d="M455.816 336.188C453.607 336.188 451.82 334.4 451.82 332.191V179.81C451.82 177.601 453.607 175.813 455.816 175.813C458.027 175.813 459.814 177.601 459.814 179.81V332.19C459.814 334.399 458.027 336.188 455.816 336.188Z" fill="#99102A"/>
<path d="M56.175 336.188C55.152 336.188 54.125 335.797 53.344 335.017C51.787 333.455 51.787 330.926 53.348 329.365L59.048 323.674C60.609 322.112 63.143 322.112 64.704 323.674C66.261 325.236 66.261 327.765 64.7 329.326L59.001 335.017C58.22 335.797 57.198 336.188 56.175 336.188Z" fill="#99102A"/>
<path d="M56.144 336.07C55.121 336.07 54.098 335.679 53.318 334.899L47.743 329.325C46.181 327.763 46.181 325.234 47.743 323.673C49.305 322.112 51.834 322.111 53.395 323.673L58.97 329.247C60.531 330.809 60.531 333.338 58.97 334.899C58.189 335.68 57.167 336.07 56.144 336.07Z" fill="#99102A"/>
<path d="M50.398 189.498C49.375 189.498 48.348 189.108 47.568 188.327C46.01 186.765 46.01 184.236 47.572 182.675L53.271 176.984C54.832 175.422 57.366 175.422 58.927 176.984C60.485 178.546 60.485 181.075 58.923 182.636L53.224 188.327C52.443 189.108 51.42 189.498 50.398 189.498Z" fill="#99102A"/>
<path d="M61.703 189.498C60.68 189.498 59.657 189.108 58.877 188.327L53.303 182.753C51.741 181.191 51.741 178.662 53.303 177.101C54.864 175.539 57.394 175.539 58.955 177.101L64.529 182.675C66.091 184.237 66.091 186.766 64.529 188.327C63.748 189.108 62.725 189.498 61.703 189.498Z" fill="#99102A"/>
<path d="M56.097 336.188C53.887 336.188 52.099 334.4 52.099 332.191V179.81C52.099 177.601 53.887 175.813 56.097 175.813C58.306 175.813 60.094 177.601 60.094 179.81V332.19C60.094 334.399 58.306 336.188 56.097 336.188Z" fill="#99102A"/>
</svg>
