<svg width="1000" height="1000" viewBox="0 0 1000 1000" fill="none" xmlns="http://www.w3.org/2000/svg">
<path d="M449.146 929.137L484.566 935.526L485.53 954.302L444.505 953.91L449.146 929.137Z" fill="white"/>
<path d="M485.53 955.761L444.497 955.376C444.283 955.374 444.072 955.325 443.879 955.233C443.687 955.141 443.516 955.007 443.38 954.842C443.244 954.677 443.146 954.484 443.092 954.277C443.039 954.07 443.031 953.854 443.07 953.644L447.711 928.87C447.784 928.492 448.002 928.158 448.319 927.94C448.636 927.721 449.026 927.636 449.405 927.702L484.824 934.092C485.149 934.151 485.443 934.318 485.661 934.566C485.879 934.813 486.006 935.127 486.024 935.456L486.988 954.232C486.997 954.429 486.965 954.626 486.896 954.81C486.826 954.995 486.72 955.164 486.584 955.306C486.448 955.449 486.285 955.563 486.103 955.641C485.922 955.719 485.727 955.76 485.53 955.761ZM446.261 952.468L483.993 952.821L483.162 936.757L450.314 930.83L446.261 952.468Z" fill="#262424"/>
<path d="M575.146 990.279C572.653 993.46 569.391 995.953 565.667 997.523C560.996 999.635 555.832 1000.42 550.744 999.788C545.656 999.158 540.84 997.137 536.825 993.948C522.518 982.972 479.509 958.183 479.509 958.183C484.942 937.016 475.095 930.313 475.095 930.313C481.736 921.117 491.911 910.714 499.108 903.791C504.079 899.009 507.607 895.85 507.607 895.85C538.362 922.371 575.146 990.279 575.146 990.279Z" fill="#000A1D"/>
<path d="M575.146 990.279C572.653 993.46 569.391 995.953 565.667 997.523C540.118 946.847 508.21 912.94 499.108 903.791C504.079 899.009 507.607 895.85 507.607 895.85C538.362 922.371 575.146 990.279 575.146 990.279Z" fill="white"/>
<path d="M565.675 998.988C565.406 998.991 565.141 998.918 564.911 998.78C564.68 998.642 564.491 998.443 564.366 998.204C539.02 947.928 507.215 914.038 498.074 904.842C497.935 904.706 497.824 904.544 497.749 904.364C497.674 904.185 497.635 903.993 497.635 903.799C497.635 903.605 497.674 903.412 497.749 903.233C497.824 903.054 497.935 902.892 498.074 902.756C503.005 898.005 506.58 894.807 506.611 894.775C506.878 894.542 507.221 894.414 507.575 894.414C507.93 894.414 508.272 894.542 508.54 894.775C539.114 921.172 576.039 988.938 576.408 989.636C576.541 989.88 576.602 990.158 576.582 990.436C576.563 990.714 576.464 990.98 576.298 991.204C573.66 994.591 570.197 997.244 566.24 998.91C566.059 998.973 565.867 999 565.675 998.988V998.988ZM501.194 903.822C511.503 914.343 541.796 947.395 566.334 995.594C569.029 994.255 571.428 992.389 573.389 990.106C569.085 982.306 535.759 922.763 507.614 897.778C506.399 898.923 504.087 901.055 501.194 903.822Z" fill="#262424"/>
<path d="M420.116 914.234C420.116 914.234 426.889 908.04 438.696 911.137C450.502 914.234 462.497 925.46 456.727 949.457C450.957 973.455 423.244 981.78 408.121 960.488C392.998 939.195 420.116 914.234 420.116 914.234Z" fill="#FF1B46"/>
<path d="M494.036 799.845L417.027 912.109C430.174 915.966 446.818 926.04 444.466 944.252C442.114 962.463 427.046 965.529 427.046 965.529C427.046 965.529 396.667 965.529 371.862 962.048C370.098 961.813 368.382 961.538 366.657 961.264C348.124 958.199 334.279 950.625 335.486 923.963C335.902 913.834 338.504 901.016 343.851 884.623C363.176 825.041 427.83 680.666 427.83 680.666C450.267 631.103 519.194 623.765 519.938 688.004C520.683 752.242 494.036 799.845 494.036 799.845Z" fill="#000A1D"/>
<path d="M426.952 725.062C423.776 724.981 420.665 724.148 417.874 722.631C417.513 722.448 417.239 722.13 417.114 721.745C416.988 721.361 417.02 720.942 417.203 720.581C417.386 720.22 417.705 719.947 418.089 719.821C418.474 719.696 418.893 719.728 419.253 719.911C424.122 722.388 428.512 722.647 432.291 720.695C443.149 715.074 446.402 693.405 446.465 693.185C446.494 692.987 446.561 692.797 446.664 692.625C446.766 692.453 446.902 692.302 447.062 692.183C447.223 692.063 447.405 691.976 447.599 691.927C447.793 691.877 447.995 691.867 448.194 691.896C448.392 691.925 448.582 691.992 448.754 692.095C448.926 692.197 449.077 692.333 449.196 692.493C449.316 692.654 449.403 692.836 449.452 693.03C449.501 693.224 449.512 693.426 449.483 693.624C449.342 694.581 445.94 717.057 433.694 723.415C431.613 724.502 429.299 725.067 426.952 725.062V725.062Z" fill="#262424"/>
<path d="M377.507 945.694C377.523 951.622 375.543 957.383 371.886 962.048C370.122 961.813 368.405 961.538 366.68 961.264C348.147 958.199 334.302 950.626 335.51 923.963C339.497 921.156 344.178 919.497 349.043 919.166C353.908 918.835 358.771 919.845 363.102 922.086C367.433 924.327 371.066 927.713 373.606 931.876C376.146 936.038 377.495 940.818 377.507 945.694Z" fill="#FF1B46"/>
<path d="M435.599 932.21C435.508 932.218 435.416 932.218 435.325 932.21L397.388 925.24C397.137 925.199 396.9 925.095 396.699 924.937C396.499 924.78 396.341 924.575 396.24 924.341C396.139 924.107 396.099 923.851 396.123 923.597C396.147 923.343 396.234 923.1 396.377 922.888L483.06 786.65C483.278 786.309 483.622 786.069 484.016 785.981C484.411 785.894 484.824 785.967 485.165 786.184C485.506 786.401 485.747 786.745 485.835 787.14C485.922 787.535 485.849 787.948 485.632 788.289L400.179 922.63L435.889 929.192C436.266 929.258 436.603 929.464 436.835 929.769C437.066 930.073 437.174 930.454 437.138 930.835C437.101 931.215 436.922 931.568 436.637 931.823C436.352 932.078 435.981 932.216 435.599 932.21V932.21Z" fill="#262424"/>
<path d="M383.732 931.246C383.383 931.241 383.047 931.118 382.779 930.896C382.51 930.674 382.325 930.367 382.255 930.026C382.184 929.685 382.233 929.33 382.391 929.02C382.55 928.71 382.81 928.464 383.128 928.322L396.918 922.379L411.5 912.188C411.831 911.957 412.241 911.867 412.639 911.938C413.037 912.01 413.39 912.236 413.62 912.568C413.851 912.899 413.941 913.309 413.87 913.707C413.798 914.104 413.572 914.458 413.24 914.688L398.533 924.943C398.449 925.001 398.36 925.051 398.266 925.092L384.335 931.089C384.147 931.181 383.941 931.235 383.732 931.246Z" fill="#262424"/>
<path d="M727.886 921.713H727.839C712.466 925.938 688.547 878.657 682.181 857.568C675.815 836.479 677.069 813.392 677.673 810.24C678.088 807.778 683.106 800.299 688.649 795.345C688.691 795.306 688.738 795.275 688.79 795.251C690.262 793.862 691.899 792.662 693.666 791.676C709.04 783.499 723.253 800.966 730.826 838.126C738.399 875.286 743.26 917.346 727.886 921.713Z" fill="#000A1D"/>
<path d="M727.886 921.713H727.839C735.177 912.705 733.554 886.646 724.405 842.532C712.05 782.95 690.695 794.082 688.782 795.251C690.254 793.862 691.892 792.662 693.658 791.676C709.032 783.499 723.245 800.966 730.818 838.126C738.392 875.286 743.26 917.346 727.886 921.713Z" fill="white"/>
<path d="M727.886 923.179H727.839C727.569 923.173 727.306 923.093 727.078 922.947C726.851 922.801 726.668 922.594 726.55 922.351C726.433 922.108 726.385 921.836 726.412 921.567C726.438 921.299 726.539 921.042 726.703 920.827C733.468 912.525 732.277 887.751 722.971 842.853C716.103 809.746 706.594 799.249 699.828 796.27C698.212 795.498 696.437 795.119 694.646 795.164C692.856 795.209 691.102 795.676 689.527 796.529C689.214 796.72 688.84 796.787 688.48 796.716C688.12 796.646 687.799 796.443 687.582 796.147C687.364 795.852 687.265 795.485 687.304 795.121C687.344 794.756 687.518 794.419 687.794 794.177C689.357 792.704 691.098 791.432 692.976 790.39C697.97 787.732 702.909 787.529 707.668 789.771C718.22 794.741 726.946 811.816 732.253 837.844C742.946 890.667 741.614 919.376 728.294 923.147C728.16 923.177 728.023 923.188 727.886 923.179ZM695.806 792.256C697.602 792.381 699.361 792.821 701.004 793.557C711.76 798.261 720.117 814.67 725.832 842.226C733.939 881.323 735.906 905.077 731.885 917.087C738.713 907.813 737.905 880.492 729.376 838.4C724.264 813.313 716.111 796.968 706.413 792.397C704.765 791.6 702.961 791.174 701.13 791.148C699.299 791.122 697.485 791.498 695.814 792.248L695.806 792.256Z" fill="#262424"/>
<path d="M664.745 832.858L682.165 810.216C682.165 810.216 691.024 803.592 694.418 817.476L684.713 847.957L664.745 832.858Z" fill="white"/>
<path d="M684.713 849.415C684.396 849.414 684.087 849.309 683.835 849.117L663.867 834.018C663.713 833.901 663.584 833.754 663.487 833.587C663.39 833.42 663.327 833.235 663.301 833.044C663.276 832.852 663.288 832.657 663.338 832.471C663.388 832.284 663.475 832.109 663.593 831.956L681.013 809.315C681.094 809.208 681.188 809.113 681.295 809.033C681.452 808.915 685.215 806.132 689.26 807.574C692.349 808.68 694.567 811.894 695.845 817.115C695.917 817.372 695.917 817.643 695.845 817.899L686.108 848.396C686.038 848.618 685.915 848.82 685.75 848.986C685.585 849.151 685.382 849.274 685.16 849.344C685.016 849.391 684.865 849.415 684.713 849.415V849.415ZM666.807 832.583L683.945 845.542L692.898 817.421C691.878 813.501 690.279 811.055 688.264 810.365C686.077 809.581 683.772 810.93 683.184 811.314L666.807 832.583Z" fill="#262424"/>
<path d="M639.219 851.931C639.219 851.931 639.588 844.946 641.72 841.269C643.852 837.593 655.267 829.267 663.781 828.303C672.295 827.338 693.392 834.527 696.104 851.931C697.897 863 695.255 874.329 688.75 883.463C687.01 885.979 681.303 893.388 676.419 892.086C671.534 890.785 639.219 851.931 639.219 851.931Z" fill="#FF1B46"/>
<path d="M683.702 876.901C683.702 876.901 666.885 912.572 656.529 931.199C654.765 934.335 653.229 936.914 651.974 938.819C644.589 950.061 624.386 959.445 599.809 944.581C594.158 941.084 588.935 936.937 584.247 932.226C552.889 901.29 496.741 792.138 496.741 792.138C496.741 792.138 492.468 659.647 524.234 647.731C578.814 627.246 600.507 689.532 610.957 728.276C621.407 767.02 635.715 855.593 635.715 855.593C648.117 842.077 660.473 834.316 674.827 846.303C689.182 858.29 683.702 876.901 683.702 876.901Z" fill="#000A1D"/>
<path d="M496.388 771.818C496.269 771.818 496.151 771.805 496.035 771.778C495.557 771.669 484.276 768.933 482.324 762.151C480.536 755.989 481.634 717.638 481.681 716.007C481.691 715.61 481.856 715.234 482.14 714.957C482.424 714.68 482.805 714.525 483.202 714.525H483.249C483.449 714.53 483.647 714.575 483.83 714.657C484.013 714.738 484.178 714.855 484.316 715.001C484.453 715.147 484.561 715.318 484.632 715.506C484.703 715.693 484.737 715.893 484.73 716.093C484.409 727.069 483.876 756.569 485.248 761.297C486.471 765.507 493.95 768.141 496.733 768.807C497.106 768.883 497.436 769.096 497.659 769.404C497.883 769.712 497.983 770.093 497.939 770.47C497.896 770.848 497.713 771.196 497.426 771.446C497.138 771.695 496.768 771.828 496.388 771.818V771.818Z" fill="#262424"/>
<path d="M496.082 785.349C495.68 785.329 495.301 785.155 495.024 784.863C494.747 784.571 494.592 784.184 494.593 783.781L496.043 720.201C496.048 720.001 496.092 719.804 496.173 719.621C496.253 719.437 496.37 719.272 496.515 719.133C496.659 718.995 496.83 718.887 497.017 718.814C497.204 718.742 497.403 718.707 497.603 718.712C497.803 718.716 498.001 718.761 498.184 718.841C498.367 718.922 498.533 719.039 498.671 719.183C498.809 719.328 498.918 719.499 498.99 719.686C499.062 719.872 499.097 720.072 499.093 720.272L497.642 783.852C497.639 784.053 497.596 784.251 497.516 784.436C497.436 784.62 497.32 784.787 497.175 784.926C497.03 785.065 496.858 785.174 496.671 785.247C496.483 785.32 496.283 785.354 496.082 785.349Z" fill="#262424"/>
<path d="M588.7 732.588C585.824 732.615 582.988 731.908 580.461 730.534C569.901 724.756 567.721 708.99 567.635 708.324C567.582 707.923 567.691 707.517 567.937 707.196C568.183 706.874 568.547 706.664 568.948 706.611C569.35 706.558 569.755 706.667 570.077 706.913C570.398 707.159 570.608 707.523 570.661 707.924C570.661 708.073 572.731 722.82 581.943 727.868C586.56 730.385 592.33 730.056 599.08 726.873C599.446 726.7 599.866 726.68 600.246 726.817C600.627 726.954 600.938 727.236 601.111 727.602C601.283 727.968 601.303 728.387 601.167 728.768C601.03 729.149 600.747 729.46 600.382 729.632C596.752 731.464 592.764 732.473 588.7 732.588V732.588Z" fill="#262424"/>
<path d="M656.522 931.167C654.758 934.303 653.221 936.882 651.967 938.787C644.582 950.029 624.379 959.414 599.801 944.549C599.754 943.765 599.707 942.927 599.707 942.135C599.693 935.281 602.069 928.637 606.426 923.347C610.783 918.057 616.849 914.451 623.578 913.152C630.307 911.853 637.279 912.942 643.293 916.23C649.306 919.518 653.984 924.801 656.522 931.167V931.167Z" fill="#FF1B46"/>
<path d="M637.651 900.859H637.4C637.112 900.812 636.843 900.682 636.626 900.486C636.409 900.29 636.254 900.036 636.177 899.754L590.974 731.075C590.87 730.684 590.925 730.268 591.128 729.918C591.331 729.568 591.665 729.313 592.056 729.209C592.447 729.105 592.863 729.161 593.213 729.363C593.563 729.566 593.818 729.9 593.922 730.291L638.263 895.708L668.132 851.265C668.358 850.929 668.707 850.697 669.104 850.619C669.501 850.541 669.913 850.624 670.249 850.85C670.585 851.075 670.817 851.425 670.895 851.822C670.973 852.219 670.89 852.631 670.664 852.966L638.921 900.193C638.778 900.397 638.588 900.564 638.367 900.68C638.146 900.795 637.901 900.857 637.651 900.859Z" fill="#262424"/>
<path d="M636.585 911.019H636.483C636.283 911.006 636.088 910.954 635.908 910.865C635.729 910.776 635.568 910.653 635.436 910.503C635.305 910.352 635.204 910.176 635.14 909.987C635.076 909.797 635.05 909.596 635.064 909.396C636.209 892.259 635.064 863.691 635.064 863.401C635.056 863.201 635.087 863.002 635.156 862.814C635.225 862.626 635.33 862.454 635.465 862.307C635.739 862.01 636.119 861.834 636.522 861.817C636.926 861.801 637.319 861.945 637.616 862.218C637.913 862.492 638.089 862.872 638.106 863.275C638.106 863.565 639.258 892.282 638.106 909.592C638.082 909.979 637.911 910.342 637.628 910.607C637.346 910.873 636.973 911.02 636.585 911.019V911.019Z" fill="#262424"/>
<path d="M420.115 453.816L396.894 498.33C396.894 498.33 351.22 455.745 346.955 447.623C342.691 439.501 337.854 366.333 337.854 366.333C337.854 366.333 322.174 358.344 314.554 351.351C306.934 344.358 300.239 325.057 300.239 325.057C299.408 320.557 310.893 305.913 313.057 306.077C315.22 306.242 328.289 323.662 328.736 324.203C328.556 323.638 322.574 305.536 321.915 302.918C321.257 300.299 323.75 297.759 326.078 299.421C328.407 301.083 341.891 327.048 342.542 327.715C343.192 328.381 355.869 335.037 355.869 335.037L360.573 331.047C360.236 319.06 365.23 318.731 366.233 321.059C367.237 323.387 368.232 340.658 367.566 343.7C366.9 346.742 362.235 357.678 362.235 357.678L381.097 423.234L420.115 453.816Z" fill="white"/>
<path d="M396.894 499.788C396.525 499.788 396.169 499.648 395.899 499.396C394.025 497.648 349.99 456.544 345.662 448.297C341.507 440.371 337.038 375.748 336.45 367.25C333.213 365.557 320.418 358.681 313.566 352.425C305.727 345.26 299.133 326.327 298.851 325.527C298.828 325.458 298.809 325.387 298.796 325.316C298.012 321.114 304.731 311.988 308.11 308.249C311.081 304.948 312.288 304.548 313.166 304.619C313.817 304.666 315.393 304.791 324.644 316.535C322.143 308.86 320.763 304.501 320.457 303.278C320.204 302.331 320.245 301.329 320.576 300.406C320.906 299.483 321.51 298.683 322.308 298.112C322.988 297.648 323.798 297.411 324.621 297.434C325.444 297.456 326.239 297.737 326.894 298.237C328.462 299.366 332.578 306.579 340.096 320.377C341.664 323.27 343.161 326.013 343.592 326.695C344.635 327.393 350.311 330.474 355.642 333.289L359.029 330.396C358.911 320.69 362.282 318.879 363.732 318.55C364.485 318.38 365.274 318.481 365.959 318.835C366.645 319.189 367.183 319.774 367.48 320.486C368.585 323.066 369.644 340.666 368.899 344.006C368.287 346.765 364.611 355.577 363.685 357.756L382.289 422.371L421.009 452.664C421.277 452.875 421.462 453.173 421.534 453.506C421.605 453.84 421.559 454.188 421.401 454.49L398.18 499.004C398.078 499.207 397.93 499.384 397.747 499.52C397.565 499.656 397.354 499.748 397.13 499.788H396.894ZM301.658 324.696C302.23 326.311 308.541 343.888 315.534 350.269C322.958 357.051 338.355 364.953 338.512 365.032C338.736 365.148 338.925 365.321 339.063 365.532C339.2 365.744 339.28 365.987 339.296 366.239C340.637 386.504 344.862 440.504 348.233 446.948C351.416 453.016 380.376 480.91 396.471 495.954L418.242 454.224L380.102 424.394C379.854 424.194 379.678 423.919 379.6 423.61L360.761 358.086C360.67 357.764 360.692 357.421 360.824 357.113C362.11 354.095 365.528 345.738 366.077 343.386C366.665 340.721 365.685 323.646 364.83 321.639C364.801 321.554 364.742 321.483 364.664 321.44C364.585 321.396 364.494 321.383 364.407 321.404C363.623 321.568 361.773 323.614 361.976 331.015C361.983 331.233 361.941 331.45 361.853 331.649C361.764 331.849 361.633 332.026 361.467 332.168L356.763 336.158C356.541 336.348 356.266 336.467 355.975 336.499C355.685 336.531 355.391 336.475 355.132 336.338C346.611 331.854 342.017 329.283 341.468 328.757C341.154 328.444 340.864 327.973 337.501 321.78C333.981 315.312 326.651 301.859 325.153 300.613C324.987 300.465 324.776 300.378 324.554 300.365C324.332 300.352 324.112 300.415 323.93 300.542C323.632 300.78 323.411 301.099 323.294 301.462C323.176 301.825 323.169 302.214 323.272 302.581C323.64 304.047 325.796 310.789 329.685 322.619L330.061 323.771C330.162 324.1 330.145 324.453 330.012 324.77C329.879 325.087 329.639 325.348 329.333 325.505C329.028 325.663 328.677 325.709 328.341 325.634C328.005 325.559 327.707 325.369 327.497 325.096C320.787 316.182 314.719 308.931 312.931 307.653C310.266 309.229 301.25 321.317 301.658 324.696Z" fill="#262424"/>
<path d="M412.762 444.714L385.472 494.355L440.922 550.095C440.922 550.095 471.983 489.424 471.983 488.554C471.983 487.684 412.762 444.714 412.762 444.714Z" fill="#FF1B46"/>
<path d="M396.894 499.851C396.633 499.851 396.375 499.784 396.147 499.655C395.919 499.527 395.728 499.342 395.592 499.118C395.457 498.894 395.381 498.639 395.373 498.377C395.365 498.116 395.425 497.856 395.546 497.624L417.497 455.525C417.59 455.348 417.717 455.19 417.87 455.062C418.024 454.933 418.201 454.836 418.392 454.776C418.583 454.716 418.784 454.694 418.984 454.711C419.183 454.729 419.377 454.786 419.555 454.879C419.733 454.971 419.89 455.098 420.019 455.252C420.147 455.405 420.245 455.582 420.305 455.774C420.365 455.965 420.387 456.166 420.369 456.365C420.351 456.565 420.295 456.759 420.202 456.937L398.251 499.036C398.117 499.28 397.921 499.484 397.683 499.627C397.445 499.77 397.173 499.848 396.894 499.851V499.851Z" fill="#262424"/>
<path d="M576.008 409.436C564.656 414.446 574.934 438.067 579.308 445.499C583.683 452.931 578.72 474.819 593.624 481.561C608.527 488.303 582.092 518.408 620.075 547.187C649.348 569.374 697.939 550.37 690.358 525.565C682.777 500.761 642.465 490.475 635.817 467.693C631.583 453.197 637.095 431.865 612.627 424.982C594.384 419.902 584.977 405.477 576.008 409.436Z" fill="#262424"/>
<path d="M466.762 484.368C466.762 484.368 436.563 541.676 435.403 554.447C434.243 567.218 454.273 592.187 454.273 592.187L418.854 681.316C418.854 681.316 456.304 731.828 496.655 735.026C537.006 738.225 611.036 696.996 611.036 696.996L588.113 603.805L613.372 550.096L600.601 484.368C600.601 484.368 562.861 501.615 537.021 504.516C511.182 507.416 466.762 484.368 466.762 484.368Z" fill="#FF1B46"/>
<path d="M439.346 543.189C439.093 543.188 438.844 543.124 438.621 543.003C438.399 542.882 438.21 542.707 438.072 542.495C437.933 542.283 437.85 542.039 437.829 541.787C437.808 541.534 437.85 541.281 437.951 541.048C444.662 525.934 463.038 488.248 463.226 487.864C463.404 487.5 463.719 487.222 464.102 487.09C464.485 486.959 464.905 486.985 465.268 487.162C465.632 487.34 465.911 487.655 466.042 488.038C466.174 488.421 466.148 488.841 465.97 489.205C465.782 489.581 447.429 527.219 440.742 542.287C440.617 542.553 440.42 542.779 440.173 542.938C439.927 543.097 439.64 543.184 439.346 543.189V543.189Z" fill="#262424"/>
<path d="M499.955 727.578C499.223 727.578 498.513 727.56 497.823 727.524C466.911 725.956 431.052 680.525 429.539 678.596C429.289 678.278 429.176 677.874 429.225 677.472C429.274 677.071 429.48 676.705 429.798 676.456C430.116 676.206 430.52 676.093 430.921 676.142C431.323 676.19 431.688 676.396 431.938 676.714C432.298 677.177 468.447 722.969 497.972 724.474C527.809 725.979 598.947 691.265 599.66 690.92C599.84 690.832 600.035 690.78 600.235 690.768C600.434 690.755 600.635 690.782 600.824 690.847C601.013 690.912 601.188 691.013 601.338 691.145C601.488 691.278 601.611 691.438 601.699 691.618C601.787 691.797 601.838 691.993 601.851 692.192C601.863 692.392 601.837 692.592 601.772 692.781C601.707 692.971 601.606 693.145 601.473 693.295C601.341 693.445 601.18 693.568 601.001 693.656C598.131 695.075 531.549 727.578 499.955 727.578Z" fill="#262424"/>
<path d="M527.527 493.485C510.938 492.176 500.237 504.712 499.077 518.259C497.917 531.806 512.851 537.999 512.851 537.999C512.851 537.999 518.661 523.676 523.882 522.515C529.103 521.355 534.693 539.967 534.693 539.967C534.693 539.967 552.724 535.906 555.985 518.29C559.247 500.674 542.234 494.645 527.527 493.485Z" fill="#000A1D"/>
<path d="M517.453 468.814L513.933 502.783C513.933 502.783 518.888 512.457 526.963 512.841C535.037 513.226 542.861 504.516 542.861 504.516V466.775L517.453 468.814Z" fill="white"/>
<path d="M527.488 514.315H526.892C518.065 513.892 512.843 503.88 512.632 503.457C512.508 503.215 512.453 502.944 512.475 502.673L515.987 468.625C516.023 468.285 516.176 467.968 516.421 467.729C516.666 467.489 516.987 467.344 517.328 467.316L542.736 465.286C542.937 465.27 543.138 465.297 543.328 465.363C543.518 465.43 543.692 465.535 543.839 465.672C543.986 465.809 544.104 465.975 544.184 466.159C544.264 466.344 544.305 466.543 544.304 466.744V504.484C544.305 504.846 544.171 505.195 543.928 505.464C543.622 505.864 535.931 514.315 527.488 514.315ZM515.438 502.469C516.395 504.147 520.746 511.093 527.041 511.375C533.336 511.657 539.812 505.558 541.411 503.928V468.367L518.786 470.193L515.438 502.469Z" fill="#262424"/>
<path d="M565.456 414.908L569.963 414.179C570.671 414.062 571.397 414.138 572.066 414.397C572.734 414.656 573.321 415.09 573.766 415.653C575.073 417.234 576.003 419.092 576.486 421.085C576.815 423.243 576.379 425.448 575.255 427.318C574.998 427.777 574.652 428.181 574.237 428.505C573.823 428.829 573.348 429.068 572.841 429.207L567.808 430.626C567.234 430.788 566.632 430.821 566.045 430.722C565.457 430.623 564.899 430.396 564.41 430.055C563.922 429.715 563.514 429.27 563.218 428.754C562.921 428.237 562.743 427.661 562.696 427.067L562.069 419.227C561.983 418.213 562.285 417.203 562.913 416.402C563.541 415.6 564.45 415.067 565.456 414.908Z" fill="white"/>
<path d="M566.718 432.296C565.321 432.295 563.975 431.767 562.95 430.819C561.924 429.87 561.293 428.57 561.183 427.177L560.556 419.337C560.453 417.948 560.872 416.57 561.732 415.473C562.592 414.377 563.831 413.641 565.205 413.411V413.411L569.713 412.681C570.688 412.522 571.689 412.626 572.611 412.983C573.533 413.34 574.343 413.937 574.957 414.712C576.41 416.48 577.442 418.555 577.976 420.78C578.382 423.29 577.891 425.863 576.588 428.047C576.234 428.683 575.757 429.242 575.185 429.691C574.613 430.141 573.957 430.472 573.256 430.666L568.223 432.085C567.733 432.224 567.227 432.295 566.718 432.296ZM565.699 416.413C565.078 416.515 564.517 416.846 564.128 417.341C563.739 417.836 563.55 418.459 563.598 419.086L564.225 426.926C564.254 427.296 564.364 427.655 564.549 427.977C564.733 428.299 564.987 428.576 565.291 428.789C565.596 429.001 565.943 429.143 566.309 429.204C566.675 429.266 567.051 429.246 567.408 429.145L572.441 427.726C572.755 427.642 573.049 427.496 573.306 427.297C573.563 427.097 573.778 426.849 573.938 426.566C574.885 425.012 575.262 423.177 575.004 421.376C574.566 419.618 573.738 417.981 572.582 416.586C572.306 416.239 571.942 415.973 571.529 415.813C571.116 415.653 570.667 415.606 570.23 415.676L565.699 416.413Z" fill="#262424"/>
<path d="M498.92 447.552C495.541 462.142 497.117 480.558 514.6 485.128C527.464 488.491 546.045 477.218 552.747 458.136C559.45 439.054 560.893 421.485 537.225 415.872C534.688 415.31 532.116 414.917 529.526 414.696C515.125 413.763 509.613 413.473 500.88 439.783C500.12 442.135 499.524 444.801 498.92 447.552Z" fill="white"/>
<path d="M518.739 487.166C517.219 487.175 515.703 486.988 514.231 486.61C496.2 481.906 493.738 463.177 497.438 447.215L497.681 446.165C498.23 443.734 498.755 441.461 499.453 439.336C503.883 426.009 507.575 419.165 512.201 415.817C516.826 412.47 522.267 412.721 529.644 413.199C529.844 413.212 530.039 413.264 530.218 413.352C530.398 413.44 530.558 413.563 530.691 413.714C530.823 413.864 530.924 414.039 530.988 414.228C531.053 414.418 531.08 414.618 531.067 414.818C531.054 415.017 531.002 415.213 530.913 415.392C530.825 415.572 530.702 415.732 530.552 415.864C530.402 415.997 530.227 416.098 530.037 416.162C529.848 416.227 529.648 416.253 529.448 416.241C515.454 415.331 510.727 415.025 502.346 440.301C501.695 442.261 501.194 444.487 500.661 446.847L500.417 447.913C498.779 454.969 495 478.449 515.007 483.67C518.974 484.705 524.015 483.952 530.883 481.318C531.26 481.171 531.68 481.181 532.051 481.344C532.421 481.507 532.712 481.811 532.858 482.188C533.005 482.565 532.995 482.986 532.832 483.356C532.669 483.727 532.365 484.017 531.988 484.164C526.68 486.171 522.416 487.166 518.739 487.166Z" fill="#262424"/>
<path d="M545.543 458.881C543.486 457.205 541.919 455.005 541.009 452.513C540.098 450.021 539.877 447.329 540.369 444.722C540.667 442.95 541.255 440.614 541.435 438.388C528.107 445.561 507.223 445.757 498.262 445.443C496.855 445.416 495.493 444.947 494.368 444.103C493.242 443.259 492.41 442.082 491.99 440.74C486.98 423.524 507.238 400.201 525.395 406.692C550.882 399.079 571.759 417.471 569.493 436.169C566.945 456.866 550.607 463.232 545.543 458.881Z" fill="#262424"/>
<path d="M546.562 457.235C546.562 457.235 558.808 450.242 567.8 456.286C576.792 462.33 566.341 484.509 542.713 474.498L546.562 457.235Z" fill="white"/>
<path d="M554.112 478.558C549.976 478.486 545.896 477.582 542.117 475.901C541.745 475.743 541.451 475.443 541.299 475.068C541.148 474.693 541.151 474.274 541.309 473.901C541.467 473.529 541.767 473.235 542.142 473.084C542.517 472.932 542.936 472.936 543.308 473.094C556.511 478.684 564.907 473.8 568.09 467.92C570.301 463.835 569.822 459.476 566.953 457.548C558.862 452.115 547.432 458.496 547.354 458.559C547.002 458.76 546.586 458.813 546.195 458.706C545.805 458.599 545.473 458.342 545.272 457.991C545.072 457.639 545.019 457.223 545.125 456.832C545.232 456.442 545.489 456.11 545.841 455.909C546.374 455.604 559.019 448.517 568.686 455.016C572.888 457.838 573.774 463.874 570.802 469.37C567.949 474.584 562.1 478.558 554.112 478.558Z" fill="#262424"/>
<path d="M639.972 459.218L660.974 436.577L710.411 352.786C710.411 352.786 706.931 339.623 706.931 334.206C706.931 328.789 717.428 309.723 721.928 308.272C726.428 306.822 725.558 311.612 724.829 314.082C724.1 316.551 721.489 322.352 721.489 322.352L723.057 330.772C723.057 330.772 740.477 323.372 742.797 320.902C745.118 318.433 750.488 301.593 752.087 299.735C753.687 297.877 756.297 303.216 756.297 303.216C756.297 303.216 762.686 310.326 765.297 315.846C767.908 321.365 759.488 349.666 757.606 350.975C755.725 352.284 733.147 363.574 733.147 363.574C733.147 363.574 708.843 445.585 702.485 454.875C696.128 464.165 658.936 502.195 658.936 502.195L639.972 459.218Z" fill="white"/>
<path d="M658.936 503.661C658.85 503.669 658.763 503.669 658.677 503.661C658.443 503.619 658.222 503.519 658.035 503.372C657.848 503.224 657.699 503.033 657.603 502.814L638.639 459.853C638.527 459.594 638.492 459.308 638.54 459.029C638.587 458.751 638.714 458.492 638.906 458.285L659.79 435.699L708.843 352.598C708.154 349.925 705.464 339.177 705.464 334.238C705.464 328.224 716.268 308.594 721.481 306.908C723.786 306.164 725.087 306.799 725.769 307.465C727.079 308.743 727.235 311.11 726.232 314.521C725.597 316.684 723.637 321.161 723.01 322.556L724.178 328.734C730.849 325.841 740.343 321.427 741.754 319.922C742.852 318.754 745.243 312.529 746.991 307.975C748.991 302.761 750.127 299.766 750.99 298.786C751.247 298.462 751.583 298.209 751.966 298.052C752.349 297.894 752.766 297.836 753.177 297.885C755.168 298.136 756.83 301.021 757.536 302.393C758.508 303.49 764.145 309.958 766.63 315.218C768.268 318.684 766.41 328.076 764.568 335.343C764.411 335.97 760.648 350.638 758.445 352.167C756.634 353.421 738.336 362.602 734.307 364.616C731.908 372.723 709.886 446.674 703.661 455.721C697.28 465.011 661.476 501.678 659.955 503.238C659.684 503.507 659.318 503.659 658.936 503.661V503.661ZM641.689 459.524L659.391 499.632C666.446 492.403 695.751 462.079 701.27 454.052C707.456 445.059 731.461 363.981 731.704 363.166C731.765 362.971 731.866 362.79 732.001 362.636C732.136 362.482 732.302 362.358 732.488 362.272C741.378 357.827 754.98 350.936 756.752 349.807C758.837 347.087 766.261 321.13 764.043 316.449C761.55 311.197 755.341 304.243 755.278 304.172C755.187 304.071 755.111 303.957 755.051 303.835C754.551 302.773 753.887 301.797 753.083 300.942C752.401 302.142 750.95 305.913 749.767 309.002C747.14 315.838 745.314 320.432 743.926 321.906C741.519 324.469 726.679 330.866 723.692 332.097C723.491 332.182 723.273 332.22 723.056 332.21C722.838 332.2 722.625 332.141 722.433 332.038C722.24 331.935 722.073 331.791 721.944 331.615C721.815 331.44 721.726 331.237 721.685 331.023L720.117 322.603C720.061 322.31 720.097 322.006 720.219 321.733C720.219 321.678 722.798 315.987 723.488 313.651C724.225 311.142 724.06 309.786 723.786 309.519C723.334 309.385 722.847 309.433 722.43 309.652C718.768 310.836 708.444 328.954 708.444 334.198C708.444 339.443 711.846 352.277 711.877 352.402C711.926 352.589 711.938 352.783 711.911 352.974C711.884 353.166 711.819 353.349 711.721 353.515L662.276 437.314C662.222 437.404 662.159 437.488 662.087 437.565L641.689 459.524Z" fill="#262424"/>
<path d="M587.697 489.793L641.234 451.378L668.234 500.149L613.356 550.08C595.897 543.887 575.443 523.166 587.697 489.793Z" fill="#FF1B46"/>
<path d="M608.496 549.547C608.258 549.546 608.025 549.49 607.814 549.382C591.781 541.354 576.188 521.763 585.008 492.936C585.126 492.55 585.394 492.226 585.751 492.036C586.108 491.847 586.526 491.807 586.913 491.925C587.3 492.044 587.623 492.311 587.813 492.668C588.003 493.025 588.043 493.443 587.924 493.83C579.669 520.799 593.49 538.799 609.178 546.654C609.491 546.804 609.743 547.056 609.893 547.369C610.043 547.682 610.082 548.037 610.002 548.375C609.922 548.713 609.729 549.014 609.455 549.227C609.181 549.44 608.843 549.553 608.496 549.547Z" fill="#262424"/>
<path d="M656.004 503.724C655.725 503.72 655.452 503.641 655.214 503.496C654.976 503.352 654.78 503.146 654.648 502.901L632.987 460.888C632.802 460.528 632.767 460.11 632.89 459.724C633.014 459.339 633.285 459.019 633.645 458.834C634.005 458.649 634.423 458.614 634.809 458.738C635.194 458.861 635.514 459.133 635.699 459.492L657.36 501.505C657.478 501.738 657.534 501.996 657.523 502.257C657.513 502.517 657.436 502.77 657.3 502.992C657.164 503.215 656.974 503.399 656.747 503.527C656.52 503.655 656.264 503.722 656.004 503.724Z" fill="#262424"/>
<path d="M745.416 545.171L735.881 554.706C733.563 557.024 733.563 560.781 735.881 563.099L759.513 586.731C761.83 589.049 765.588 589.049 767.906 586.731L777.44 577.196C779.758 574.879 779.758 571.121 777.44 568.803L753.808 545.171C751.491 542.854 747.733 542.854 745.416 545.171Z" fill="#000A1D"/>
<path d="M799.235 505.715L814.068 520.548C815.382 521.862 816.425 523.422 817.136 525.139C817.848 526.856 818.214 528.697 818.214 530.555C818.214 532.414 817.848 534.254 817.136 535.971C816.425 537.688 815.382 539.249 814.068 540.563L793.512 561.087C792.864 561.737 792.093 562.252 791.245 562.604C790.397 562.955 789.488 563.136 788.569 563.136C787.651 563.136 786.742 562.955 785.894 562.604C785.046 562.252 784.275 561.737 783.626 561.087L760.499 537.96C759.189 536.65 758.453 534.873 758.453 533.021V498.777C758.453 497.737 758.866 496.74 759.601 496.005C760.336 495.27 761.333 494.857 762.373 494.857C763.155 494.857 763.919 495.09 764.567 495.527C765.216 495.965 765.718 496.586 766.011 497.311L774.94 519.427L788.644 505.723C789.337 505.024 790.162 504.469 791.07 504.09C791.979 503.711 792.954 503.515 793.938 503.515C794.922 503.514 795.897 503.708 796.806 504.086C797.716 504.463 798.541 505.017 799.235 505.715V505.715Z" fill="#000A1D"/>
<path d="M177.649 479.781C176.34 480.565 175.198 481.599 174.289 482.825C173.38 484.05 172.72 485.442 172.349 486.922C171.978 488.402 171.902 489.941 172.125 491.45C172.349 492.96 172.867 494.41 173.651 495.719C177.748 502.541 184.385 507.457 192.104 509.387C199.823 511.317 207.993 510.103 214.817 506.013L224.782 500.039L203.395 464.345L177.649 479.781ZM194.027 501.732C191.198 501.037 188.536 499.787 186.195 498.055C183.853 496.323 181.878 494.144 180.386 491.643C179.873 490.786 179.722 489.761 179.964 488.792C180.207 487.824 180.823 486.991 181.679 486.476L200.706 475.078L214.033 497.303L210.804 499.239C208.312 500.748 205.548 501.748 202.668 502.182C199.789 502.617 196.852 502.477 194.027 501.772V501.732Z" fill="#000A1D"/>
<path d="M241.598 441.445L262.985 477.139L272.957 471.166C279.785 467.078 284.711 460.447 286.651 452.729C288.592 445.011 287.388 436.838 283.305 430.007C282.521 428.698 281.487 427.556 280.262 426.647C279.037 425.737 277.644 425.078 276.164 424.707C274.684 424.336 273.145 424.259 271.636 424.483C270.127 424.706 268.676 425.225 267.367 426.009L241.598 441.445ZM268.911 464.431L265.681 466.368L252.354 444.142L271.389 432.743C272.246 432.231 273.271 432.079 274.239 432.322C275.208 432.564 276.041 433.181 276.555 434.037C279.571 439.077 280.464 445.108 279.038 450.807C277.613 456.505 273.985 461.405 268.951 464.431H268.911Z" fill="#000A1D"/>
<path d="M247.87 431.944L261.887 455.298C265.906 462 267.372 469.928 266.015 477.624C264.659 485.321 260.571 492.269 254.502 497.193L274.031 529.775C284.222 527.141 295.135 534.189 295.135 534.189L259.951 555.27C259.951 555.27 258.9 542.318 266.058 534.557L246.529 501.968C239.322 505.008 231.259 505.345 223.824 502.915C216.389 500.485 210.081 495.452 206.061 488.742L192.075 465.395C191.617 464.631 191.481 463.716 191.697 462.852C191.913 461.988 192.464 461.245 193.227 460.786L243.315 430.775C244.076 430.336 244.979 430.213 245.83 430.431C246.682 430.649 247.414 431.192 247.87 431.944Z" fill="#000A1D"/>
<path d="M227.267 458.026L235.107 463.059C235.323 463.202 235.572 463.29 235.831 463.313C236.089 463.336 236.35 463.295 236.588 463.193L245.157 459.618C245.433 459.488 245.741 459.441 246.042 459.483C246.344 459.525 246.627 459.655 246.857 459.855C247.086 460.056 247.252 460.319 247.335 460.612C247.417 460.905 247.413 461.216 247.321 461.507L244.969 470.483C244.901 470.734 244.896 470.998 244.955 471.251C245.013 471.504 245.134 471.739 245.306 471.934L251.358 478.99C251.567 479.212 251.707 479.49 251.76 479.79C251.813 480.09 251.778 480.399 251.658 480.68C251.538 480.96 251.339 481.199 251.086 481.368C250.832 481.538 250.534 481.629 250.23 481.632L240.963 482.149C240.701 482.163 240.448 482.241 240.224 482.378C240.001 482.515 239.816 482.706 239.685 482.933L234.856 490.859C234.71 491.126 234.489 491.345 234.22 491.489C233.951 491.633 233.647 491.695 233.343 491.669C233.04 491.642 232.75 491.528 232.511 491.339C232.271 491.151 232.092 490.897 231.994 490.608L228.639 481.984C228.555 481.724 228.405 481.49 228.203 481.306C228 481.121 227.754 480.993 227.487 480.934L218.424 478.817C218.125 478.76 217.848 478.618 217.629 478.406C217.41 478.195 217.256 477.925 217.188 477.628C217.12 477.331 217.14 477.021 217.245 476.735C217.35 476.449 217.537 476.2 217.781 476.018L224.978 470.154C225.181 469.992 225.34 469.781 225.441 469.542C225.543 469.302 225.583 469.041 225.558 468.782L224.774 459.531C224.723 459.222 224.766 458.905 224.897 458.62C225.029 458.335 225.242 458.096 225.511 457.934C225.779 457.772 226.09 457.695 226.403 457.711C226.716 457.727 227.017 457.837 227.267 458.026V458.026Z" fill="#FF1B46"/>
<path d="M285.5 147.904C290.664 146.935 295.583 144.947 299.97 142.055C304.357 139.164 308.123 135.427 311.05 131.064L323.225 143.278C323.225 143.278 313.033 163.309 287.515 163.889L285.5 147.904Z" fill="#FF1B46"/>
<path d="M281.478 624.8C284.197 629.299 287.785 633.211 292.034 636.307C296.282 639.403 301.105 641.621 306.221 642.831L299.094 658.51C299.094 658.51 276.767 655.994 267.242 632.318L281.478 624.8Z" fill="#FF1B46"/>
<path d="M723.739 667.103C721.02 662.604 717.432 658.692 713.184 655.596C708.936 652.5 704.113 650.282 698.997 649.072L706.123 633.392C706.123 633.392 728.451 635.862 737.976 659.569L723.739 667.103Z" fill="#FF1B46"/>
<path d="M802.301 286.831C805.019 291.33 808.607 295.242 812.856 298.338C817.104 301.434 821.927 303.652 827.043 304.862L819.916 320.541C819.916 320.541 797.589 318.072 788.064 294.365L802.301 286.831Z" fill="#FF1B46"/>
<path d="M376.723 16.3771C381.339 14.3706 385.027 10.6939 387.048 6.0836L389.698 0L392.355 6.0836C394.369 10.7057 398.058 14.3944 402.68 16.4085L408.764 19.0583L402.68 21.7081C398.058 23.7222 394.369 27.4108 392.355 32.033L389.706 38.1166L387.056 32.033C385.045 27.4006 381.352 23.7027 376.723 21.6846L370.639 19.0348L376.723 16.3771Z" fill="#000A1D"/>
<path d="M222.516 276.42C226.451 274.705 229.59 271.566 231.305 267.631L233.562 262.449L235.82 267.631C237.534 271.566 240.674 274.705 244.608 276.42L249.791 278.677L244.608 280.935C240.674 282.649 237.534 285.789 235.82 289.723L233.562 294.906L231.305 289.723C229.59 285.789 226.451 282.649 222.516 280.935L217.334 278.677L222.516 276.42Z" fill="#FF1B46"/>
<path d="M277.049 826.241C280.499 824.738 283.252 821.985 284.755 818.534L286.731 813.995L288.707 818.534C290.21 821.985 292.963 824.738 296.413 826.241L300.952 828.217L296.413 830.192C292.963 831.695 290.21 834.449 288.707 837.899L286.731 842.438L284.716 837.875C283.213 834.425 280.46 831.672 277.01 830.169L272.471 828.193L277.049 826.241Z" fill="#000A1D"/>
<path d="M762.545 138.316C767.403 136.2 771.279 132.323 773.396 127.466L776.179 121.068L778.962 127.466C781.078 132.323 784.954 136.2 789.812 138.316L796.209 141.099L789.812 143.882C784.954 145.998 781.078 149.874 778.962 154.732L776.179 161.129L773.396 154.732C771.279 149.874 767.403 145.998 762.545 143.882L756.148 141.099L762.545 138.316Z" fill="#000A1D"/>
<path d="M713.132 38.093C720.614 38.093 726.679 32.0278 726.679 24.546C726.679 17.0642 720.614 10.999 713.132 10.999C705.65 10.999 699.585 17.0642 699.585 24.546C699.585 32.0278 705.65 38.093 713.132 38.093Z" fill="#000A1D"/>
<path d="M776.179 780.747C781.95 780.747 786.629 776.069 786.629 770.297C786.629 764.526 781.95 759.847 776.179 759.847C770.407 759.847 765.729 764.526 765.729 770.297C765.729 776.069 770.407 780.747 776.179 780.747Z" fill="#000A1D"/>
<path d="M456.75 254.696C405.079 302.306 375.469 362.1 375.469 362.1H417.082L431.789 403.321C431.789 403.321 461.399 343.52 513.071 295.917L456.75 254.696Z" fill="#000A1D"/>
<path d="M606.097 254.696C657.768 302.306 687.379 362.1 687.379 362.1H645.765L631.058 403.321C631.058 403.321 601.44 343.528 549.776 295.925L606.097 254.696Z" fill="#000A1D"/>
<path d="M651.614 82.9126L659.939 124.416C660.596 127.689 661.885 130.802 663.734 133.581L687.198 168.812C689.999 173.02 691.494 177.963 691.494 183.018C691.494 188.073 689.999 193.015 687.198 197.223L663.734 232.455C661.885 235.233 660.596 238.347 659.939 241.619L651.614 283.138C650.616 288.089 648.179 292.635 644.607 296.206C641.035 299.777 636.488 302.212 631.536 303.208L590.033 311.534C586.76 312.19 583.647 313.479 580.868 315.328L545.637 338.792C541.429 341.594 536.486 343.088 531.431 343.088C526.376 343.088 521.434 341.594 517.226 338.792L481.994 315.328C479.215 313.479 476.102 312.19 472.83 311.534L431.318 303.208C426.361 302.214 421.808 299.775 418.233 296.2C414.658 292.625 412.22 288.072 411.225 283.115L402.9 241.612C402.243 238.339 400.954 235.226 399.105 232.447L375.657 197.231C372.855 193.023 371.361 188.081 371.361 183.026C371.361 177.97 372.855 173.028 375.657 168.82L399.121 133.588C400.97 130.81 402.259 127.697 402.915 124.424L411.225 82.9126C412.221 77.9567 414.66 73.4057 418.235 69.832C421.81 66.2582 426.362 63.8212 431.318 62.8274L472.822 54.5016C476.094 53.8455 479.208 52.5566 481.986 50.7072L517.218 27.2508C521.426 24.4496 526.368 22.9551 531.423 22.9551C536.479 22.9551 541.421 24.4496 545.629 27.2508L580.861 50.715C583.639 52.5644 586.752 53.8533 590.025 54.5094L631.528 62.8352C636.482 63.8299 641.032 66.2664 644.605 69.8385C648.179 73.4107 650.617 77.9592 651.614 82.9126V82.9126Z" fill="#FF1B46"/>
<path d="M531.424 299.664C595.841 299.664 648.062 247.443 648.062 183.025C648.062 118.608 595.841 66.3865 531.424 66.3865C467.006 66.3865 414.785 118.608 414.785 183.025C414.785 247.443 467.006 299.664 531.424 299.664Z" fill="white"/>
<path d="M531.424 286.831C588.754 286.831 635.229 240.356 635.229 183.026C635.229 125.695 588.754 79.2202 531.424 79.2202C474.093 79.2202 427.618 125.695 427.618 183.026C427.618 240.356 474.093 286.831 531.424 286.831Z" fill="#000A1D"/>
<path d="M599.072 161.051L552.324 154.254L531.423 183.025L599.072 161.051Z" fill="#FF1B46"/>
<path d="M531.423 183.025L565.244 194.017L599.072 161.051L531.423 183.025Z" fill="white"/>
<path d="M531.423 183.025L573.233 240.569L565.244 194.017L531.423 183.025Z" fill="#FF1B46"/>
<path d="M489.614 240.569L531.423 218.586V183.025L489.614 240.569Z" fill="#FF1B46"/>
<path d="M531.423 183.025L497.603 194.017L489.614 240.569L531.423 183.025Z" fill="white"/>
<path d="M531.423 183.025V218.586L573.233 240.569L531.423 183.025Z" fill="white"/>
<path d="M531.424 111.904L510.523 154.254L531.424 183.026V111.904Z" fill="#FF1B46"/>
<path d="M531.423 183.025L463.775 161.051L497.603 194.017L531.423 183.025Z" fill="#FF1B46"/>
<path d="M531.423 183.026L552.324 154.254L531.423 111.904V183.026Z" fill="white"/>
<path d="M531.423 183.025L510.523 154.254L463.775 161.051L531.423 183.025Z" fill="white"/>
<path d="M531.573 53.9212C535.058 53.9212 537.884 51.0957 537.884 47.6103C537.884 44.1248 535.058 41.2993 531.573 41.2993C528.087 41.2993 525.262 44.1248 525.262 47.6103C525.262 51.0957 528.087 53.9212 531.573 53.9212Z" fill="white"/>
<path d="M531.572 55.3796C530.036 55.3796 528.534 54.9239 527.256 54.0702C525.979 53.2166 524.983 52.0032 524.395 50.5836C523.807 49.1639 523.653 47.6018 523.953 46.0948C524.252 44.5877 524.992 43.2034 526.079 42.1168C527.165 41.0303 528.55 40.2904 530.057 39.9906C531.564 39.6908 533.126 39.8447 534.546 40.4327C535.965 41.0207 537.179 42.0165 538.032 43.2941C538.886 44.5718 539.342 46.0739 539.342 47.6104C539.339 49.6703 538.52 51.6452 537.064 53.1018C535.607 54.5583 533.632 55.3775 531.572 55.3796ZM531.572 42.7655C530.614 42.7655 529.677 43.0497 528.881 43.582C528.084 44.1144 527.463 44.8711 527.096 45.7564C526.73 46.6417 526.634 47.6158 526.821 48.5556C527.008 49.4955 527.469 50.3588 528.147 51.0363C528.824 51.7139 529.687 52.1753 530.627 52.3623C531.567 52.5492 532.541 52.4533 533.427 52.0866C534.312 51.7199 535.068 51.0989 535.601 50.3021C536.133 49.5054 536.417 48.5687 536.417 47.6104C536.415 46.3261 535.904 45.095 534.996 44.1869C534.088 43.2787 532.857 42.7676 531.572 42.7655V42.7655Z" fill="#262424"/>
<path d="M440.232 91.6322C442.696 89.1676 442.696 85.1717 440.232 82.7072C437.767 80.2426 433.771 80.2426 431.307 82.7072C428.842 85.1717 428.842 89.1676 431.307 91.6322C433.771 94.0968 437.767 94.0968 440.232 91.6322Z" fill="white"/>
<path d="M435.771 94.9387C433.974 94.9395 432.231 94.317 430.841 93.177C429.451 92.0371 428.499 90.4504 428.148 88.6873C427.797 86.9242 428.068 85.0939 428.915 83.5083C429.762 81.9228 431.133 80.68 432.794 79.992C434.455 79.3039 436.303 79.2131 438.023 79.735C439.744 80.257 441.23 81.3593 442.228 82.8542C443.227 84.3491 443.676 86.144 443.499 87.933C443.323 89.7221 442.531 91.3944 441.259 92.6652C440.539 93.3866 439.684 93.9587 438.742 94.3489C437.8 94.739 436.791 94.9394 435.771 94.9387ZM435.771 82.3246C434.651 82.3246 433.564 82.7133 432.698 83.4244C431.831 84.1355 431.238 85.1251 431.02 86.2244C430.801 87.3238 430.97 88.465 431.499 89.4535C432.027 90.442 432.882 91.2168 433.918 91.6457C434.953 92.0746 436.105 92.1312 437.178 91.8058C438.251 91.4804 439.177 90.7932 439.8 89.8612C440.423 88.9291 440.703 87.8101 440.593 86.6946C440.483 85.5791 439.99 84.5362 439.197 83.7436C438.749 83.2923 438.215 82.9345 437.627 82.6909C437.038 82.4474 436.408 82.3229 435.771 82.3246Z" fill="#262424"/>
<path d="M396.008 189.195C399.494 189.195 402.319 186.37 402.319 182.884C402.319 179.399 399.494 176.573 396.008 176.573C392.523 176.573 389.697 179.399 389.697 182.884C389.697 186.37 392.523 189.195 396.008 189.195Z" fill="white"/>
<path d="M396.04 190.654C394.503 190.654 393.001 190.198 391.724 189.344C390.446 188.49 389.45 187.277 388.862 185.857C388.274 184.438 388.12 182.876 388.42 181.369C388.72 179.862 389.46 178.477 390.546 177.391C391.633 176.304 393.017 175.564 394.524 175.265C396.031 174.965 397.593 175.119 399.013 175.707C400.433 176.295 401.646 177.29 402.5 178.568C403.353 179.846 403.809 181.348 403.809 182.884C403.807 184.944 402.988 186.919 401.531 188.376C400.075 189.832 398.1 190.651 396.04 190.654ZM396.04 178.039C395.082 178.039 394.145 178.324 393.348 178.856C392.551 179.388 391.93 180.145 391.564 181.03C391.197 181.916 391.101 182.89 391.288 183.83C391.475 184.769 391.936 185.633 392.614 186.31C393.292 186.988 394.155 187.449 395.095 187.636C396.034 187.823 397.009 187.727 397.894 187.361C398.779 186.994 399.536 186.373 400.068 185.576C400.601 184.779 400.885 183.843 400.885 182.884C400.883 181.6 400.372 180.369 399.463 179.461C398.555 178.553 397.324 178.042 396.04 178.039V178.039Z" fill="#262424"/>
<path d="M440.034 283.137C442.499 280.672 442.499 276.676 440.034 274.212C437.57 271.747 433.574 271.747 431.109 274.212C428.645 276.676 428.645 280.672 431.109 283.137C433.574 285.601 437.57 285.601 440.034 283.137Z" fill="white"/>
<path d="M435.567 286.447C433.77 286.448 432.027 285.825 430.637 284.685C429.247 283.545 428.295 281.958 427.944 280.195C427.593 278.432 427.864 276.602 428.711 275.016C429.558 273.431 430.929 272.188 432.59 271.5C434.251 270.812 436.099 270.721 437.819 271.243C439.54 271.765 441.026 272.867 442.024 274.362C443.023 275.857 443.472 277.652 443.295 279.441C443.119 281.23 442.327 282.902 441.055 284.173C440.335 284.895 439.48 285.467 438.538 285.857C437.596 286.247 436.587 286.447 435.567 286.447V286.447ZM435.567 273.833C434.447 273.833 433.36 274.221 432.494 274.932C431.628 275.644 431.034 276.633 430.816 277.732C430.597 278.832 430.766 279.973 431.295 280.962C431.823 281.95 432.678 282.725 433.714 283.154C434.749 283.583 435.902 283.639 436.974 283.314C438.047 282.988 438.973 282.301 439.596 281.369C440.219 280.437 440.499 279.318 440.389 278.203C440.279 277.087 439.786 276.044 438.993 275.252C438.545 274.8 438.011 274.443 437.423 274.199C436.835 273.955 436.204 273.831 435.567 273.833V273.833Z" fill="#262424"/>
<path d="M531.282 324.751C534.768 324.751 537.593 321.926 537.593 318.44C537.593 314.955 534.768 312.129 531.282 312.129C527.797 312.129 524.971 314.955 524.971 318.44C524.971 321.926 527.797 324.751 531.282 324.751Z" fill="white"/>
<path d="M531.275 326.21C529.738 326.21 528.236 325.754 526.958 324.9C525.681 324.047 524.685 322.833 524.097 321.414C523.509 319.994 523.355 318.432 523.655 316.925C523.954 315.418 524.694 314.033 525.781 312.947C526.867 311.86 528.252 311.12 529.759 310.821C531.266 310.521 532.828 310.675 534.248 311.263C535.667 311.851 536.881 312.847 537.734 314.124C538.588 315.402 539.044 316.904 539.044 318.441C539.042 320.5 538.222 322.475 536.766 323.932C535.309 325.388 533.334 326.208 531.275 326.21ZM531.275 313.596C530.316 313.596 529.38 313.88 528.583 314.412C527.786 314.944 527.165 315.701 526.798 316.586C526.432 317.472 526.336 318.446 526.523 319.386C526.71 320.326 527.171 321.189 527.849 321.866C528.526 322.544 529.389 323.005 530.329 323.192C531.269 323.379 532.243 323.283 533.129 322.917C534.014 322.55 534.771 321.929 535.303 321.132C535.835 320.335 536.119 319.399 536.119 318.441C536.117 317.156 535.606 315.925 534.698 315.017C533.79 314.109 532.559 313.598 531.275 313.596V313.596Z" fill="#262424"/>
<path d="M631.539 283.342C634.004 280.878 634.004 276.882 631.539 274.417C629.074 271.953 625.079 271.953 622.614 274.417C620.149 276.882 620.149 280.878 622.614 283.342C625.079 285.807 629.074 285.807 631.539 283.342Z" fill="white"/>
<path d="M627.076 286.651C626.056 286.653 625.046 286.453 624.104 286.063C623.162 285.673 622.307 285.1 621.588 284.377V284.377C620.316 283.106 619.525 281.434 619.348 279.645C619.171 277.856 619.621 276.061 620.619 274.566C621.618 273.071 623.104 271.969 624.824 271.447C626.544 270.925 628.392 271.016 630.053 271.704C631.714 272.392 633.085 273.635 633.932 275.22C634.779 276.806 635.05 278.636 634.699 280.399C634.348 282.162 633.396 283.749 632.006 284.889C630.616 286.029 628.873 286.651 627.076 286.651V286.651ZM627.076 274.037C626.118 274.037 625.181 274.321 624.384 274.853C623.587 275.385 622.966 276.142 622.6 277.027C622.233 277.913 622.137 278.887 622.324 279.827C622.511 280.767 622.972 281.63 623.65 282.307V282.307C624.213 282.871 624.907 283.286 625.669 283.518C626.432 283.749 627.239 283.789 628.021 283.633C628.802 283.478 629.533 283.132 630.149 282.627C630.765 282.121 631.247 281.472 631.552 280.736C631.857 279.999 631.975 279.2 631.897 278.407C631.819 277.614 631.547 276.852 631.104 276.19C630.661 275.527 630.062 274.984 629.36 274.609C628.657 274.233 627.873 274.037 627.076 274.037V274.037Z" fill="#262424"/>
<path d="M666.839 189.485C670.324 189.485 673.149 186.66 673.149 183.174C673.149 179.689 670.324 176.863 666.839 176.863C663.353 176.863 660.528 179.689 660.528 183.174C660.528 186.66 663.353 189.485 666.839 189.485Z" fill="white"/>
<path d="M666.838 190.944C665.302 190.944 663.8 190.488 662.522 189.634C661.245 188.781 660.249 187.567 659.661 186.148C659.073 184.728 658.919 183.166 659.219 181.659C659.518 180.152 660.258 178.767 661.345 177.681C662.431 176.594 663.816 175.854 665.323 175.555C666.83 175.255 668.392 175.409 669.812 175.997C671.231 176.585 672.445 177.58 673.298 178.858C674.152 180.136 674.608 181.638 674.608 183.174C674.606 185.234 673.786 187.209 672.33 188.666C670.873 190.122 668.898 190.941 666.838 190.944V190.944ZM666.838 178.329C665.88 178.329 664.944 178.614 664.147 179.146C663.35 179.678 662.729 180.435 662.362 181.32C661.996 182.206 661.9 183.18 662.087 184.12C662.274 185.059 662.735 185.923 663.413 186.6C664.09 187.278 664.953 187.739 665.893 187.926C666.833 188.113 667.807 188.017 668.693 187.651C669.578 187.284 670.334 186.663 670.867 185.866C671.399 185.069 671.683 184.133 671.683 183.174C671.681 181.89 671.17 180.659 670.262 179.751C669.354 178.843 668.123 178.332 666.838 178.329V178.329Z" fill="#262424"/>
<path d="M631.736 91.8375C634.201 89.3729 634.201 85.377 631.736 82.9125C629.272 80.4479 625.276 80.4479 622.811 82.9125C620.347 85.377 620.347 89.3729 622.811 91.8375C625.276 94.3021 629.272 94.3021 631.736 91.8375Z" fill="white"/>
<path d="M627.311 95.1503C625.513 95.1512 623.771 94.5286 622.381 93.3887C620.99 92.2488 620.039 90.6621 619.688 88.899C619.336 87.1359 619.607 85.3056 620.455 83.72C621.302 82.1344 622.673 80.8917 624.333 80.2036C625.994 79.5156 627.842 79.4248 629.563 79.9467C631.283 80.4686 632.769 81.571 633.767 83.0659C634.766 84.5608 635.215 86.3557 635.039 88.1447C634.862 89.9337 634.07 91.6061 632.799 92.8768V92.8768C632.079 93.5996 631.224 94.1727 630.282 94.563C629.34 94.9532 628.33 95.1528 627.311 95.1503ZM627.311 82.5363C626.514 82.5363 625.73 82.7328 625.027 83.1084C624.324 83.484 623.725 84.0271 623.282 84.6896C622.84 85.352 622.567 86.1134 622.489 86.9064C622.411 87.6993 622.53 88.4992 622.835 89.2353C623.14 89.9714 623.621 90.6209 624.237 91.1264C624.853 91.6318 625.584 91.9776 626.366 92.133C627.147 92.2885 627.955 92.2488 628.717 92.0175C629.48 91.7862 630.173 91.3705 630.737 90.8071V90.8071C631.417 90.13 631.881 89.266 632.069 88.3248C632.258 87.3836 632.163 86.4077 631.795 85.5208C631.428 84.6338 630.806 83.8759 630.008 83.3432C629.209 82.8104 628.271 82.5268 627.311 82.5284V82.5363Z" fill="#262424"/>
</svg>
