<svg width="787" height="1200" viewBox="0 0 787 1200" fill="none" xmlns="http://www.w3.org/2000/svg">
<path d="M332.575 1114.96L375.079 1122.63L376.236 1145.16L327.006 1144.69L332.575 1114.96Z" fill="white"/>
<path d="M376.236 1146.91L326.996 1146.45C326.74 1146.45 326.487 1146.39 326.255 1146.28C326.024 1146.17 325.819 1146.01 325.656 1145.81C325.493 1145.61 325.375 1145.38 325.311 1145.13C325.247 1144.88 325.238 1144.62 325.284 1144.37L330.854 1114.64C330.94 1114.19 331.202 1113.79 331.582 1113.53C331.963 1113.26 332.431 1113.16 332.886 1113.24L375.389 1120.91C375.778 1120.98 376.132 1121.18 376.393 1121.48C376.654 1121.78 376.808 1122.15 376.829 1122.55L377.986 1145.08C377.996 1145.31 377.958 1145.55 377.875 1145.77C377.792 1145.99 377.665 1146.2 377.501 1146.37C377.338 1146.54 377.141 1146.68 376.924 1146.77C376.707 1146.86 376.473 1146.91 376.236 1146.91ZM329.113 1142.96L374.392 1143.38L373.395 1124.11L333.977 1117L329.113 1142.96Z" fill="#262424"/>
<path d="M483.775 1188.33C480.784 1192.15 476.869 1195.14 472.401 1197.03C466.795 1199.56 460.599 1200.5 454.493 1199.75C448.387 1198.99 442.608 1196.56 437.79 1192.74C420.621 1179.57 369.011 1149.82 369.011 1149.82C375.531 1124.42 363.715 1116.38 363.715 1116.38C371.683 1105.34 383.894 1092.86 392.53 1084.55C398.495 1078.81 402.728 1075.02 402.728 1075.02C439.634 1106.85 483.775 1188.33 483.775 1188.33Z" fill="#000A1D"/>
<path d="M483.775 1188.33C480.784 1192.15 476.869 1195.14 472.401 1197.03C441.741 1136.22 403.452 1095.53 392.53 1084.55C398.494 1078.81 402.728 1075.02 402.728 1075.02C439.634 1106.85 483.775 1188.33 483.775 1188.33Z" fill="white"/>
<path d="M472.41 1198.79C472.087 1198.79 471.77 1198.7 471.493 1198.54C471.216 1198.37 470.99 1198.13 470.839 1197.85C440.424 1137.51 402.258 1096.85 391.288 1085.81C391.122 1085.65 390.989 1085.45 390.899 1085.24C390.808 1085.02 390.762 1084.79 390.762 1084.56C390.762 1084.33 390.808 1084.09 390.899 1083.88C390.989 1083.67 391.122 1083.47 391.288 1083.31C397.206 1077.61 401.496 1073.77 401.533 1073.73C401.854 1073.45 402.265 1073.3 402.69 1073.3C403.116 1073.3 403.527 1073.45 403.847 1073.73C440.537 1105.41 484.847 1186.73 485.289 1187.56C485.449 1187.86 485.522 1188.19 485.499 1188.52C485.475 1188.86 485.357 1189.18 485.158 1189.44C481.992 1193.51 477.836 1196.69 473.088 1198.69C472.87 1198.77 472.64 1198.8 472.41 1198.79V1198.79ZM395.033 1084.59C407.404 1097.21 443.755 1136.87 473.201 1194.71C476.435 1193.11 479.314 1190.87 481.667 1188.13C476.503 1178.77 436.511 1107.32 402.737 1077.33C401.279 1078.71 398.504 1081.27 395.033 1084.59Z" fill="#262424"/>
<path d="M297.739 1097.08C297.739 1097.08 305.867 1089.65 320.035 1093.36C334.203 1097.08 348.596 1110.55 341.672 1139.35C334.748 1168.15 301.492 1178.14 283.345 1152.59C265.198 1127.03 297.739 1097.08 297.739 1097.08Z" fill="#FF1B46"/>
<path d="M386.443 959.813L294.032 1094.53C309.809 1099.16 329.781 1111.25 326.959 1133.1C324.137 1154.96 306.055 1158.63 306.055 1158.63C306.055 1158.63 269.601 1158.63 239.835 1154.46C237.718 1154.18 235.658 1153.85 233.588 1153.52C211.349 1149.84 194.735 1140.75 196.183 1108.76C196.682 1096.6 199.805 1081.22 206.221 1061.55C229.411 990.05 306.996 816.799 306.996 816.799C333.921 757.324 416.632 748.518 417.526 825.604C418.42 902.69 386.443 959.813 386.443 959.813Z" fill="#000A1D"/>
<path d="M305.942 870.074C302.131 869.977 298.398 868.978 295.048 867.158C294.615 866.938 294.287 866.556 294.137 866.094C293.986 865.633 294.024 865.13 294.244 864.698C294.463 864.265 294.846 863.937 295.307 863.786C295.769 863.635 296.271 863.674 296.704 863.893C302.546 866.866 307.814 867.177 312.349 864.834C325.378 858.089 329.283 832.086 329.358 831.823C329.392 831.585 329.474 831.356 329.596 831.15C329.719 830.943 329.882 830.763 330.074 830.619C330.267 830.476 330.486 830.371 330.719 830.312C330.952 830.253 331.194 830.24 331.432 830.275C331.67 830.31 331.899 830.391 332.105 830.514C332.312 830.637 332.492 830.799 332.636 830.992C332.779 831.184 332.884 831.403 332.943 831.636C333.002 831.869 333.014 832.112 332.98 832.349C332.81 833.497 328.728 860.469 314.033 868.098C311.536 869.402 308.759 870.08 305.942 870.074V870.074Z" fill="#262424"/>
<path d="M246.608 1134.83C246.628 1141.95 244.252 1148.86 239.863 1154.46C237.746 1154.18 235.686 1153.85 233.616 1153.52C211.377 1149.84 194.763 1140.75 196.212 1108.76C200.997 1105.39 206.614 1103.4 212.452 1103C218.29 1102.6 224.125 1103.81 229.322 1106.5C234.519 1109.19 238.879 1113.26 241.927 1118.25C244.975 1123.25 246.594 1128.98 246.608 1134.83Z" fill="white"/>
<path d="M316.319 1118.65C316.209 1118.66 316.099 1118.66 315.989 1118.65L270.466 1110.29C270.164 1110.24 269.88 1110.11 269.639 1109.92C269.398 1109.74 269.209 1109.49 269.088 1109.21C268.967 1108.93 268.919 1108.62 268.948 1108.32C268.976 1108.01 269.081 1107.72 269.252 1107.47L373.272 943.981C373.533 943.571 373.946 943.282 374.42 943.177C374.893 943.072 375.389 943.16 375.798 943.421C376.208 943.681 376.496 944.094 376.601 944.568C376.706 945.042 376.619 945.537 376.358 945.947L273.815 1107.16L316.667 1115.03C317.119 1115.11 317.524 1115.36 317.802 1115.72C318.079 1116.09 318.209 1116.54 318.165 1117C318.121 1117.46 317.907 1117.88 317.565 1118.19C317.222 1118.49 316.778 1118.66 316.319 1118.65V1118.65Z" fill="#262424"/>
<path d="M254.078 1117.49C253.66 1117.49 253.256 1117.34 252.934 1117.08C252.612 1116.81 252.39 1116.44 252.306 1116.03C252.221 1115.62 252.279 1115.2 252.47 1114.82C252.66 1114.45 252.972 1114.16 253.354 1113.99L269.902 1106.85L287.4 1094.62C287.798 1094.35 288.289 1094.24 288.767 1094.33C289.244 1094.41 289.668 1094.68 289.944 1095.08C290.221 1095.48 290.329 1095.97 290.243 1096.45C290.158 1096.93 289.886 1097.35 289.488 1097.63L271.84 1109.93C271.739 1110 271.632 1110.06 271.52 1110.11L254.802 1117.31C254.576 1117.42 254.33 1117.48 254.078 1117.49Z" fill="#262424"/>
<path d="M667.064 1106.06H667.007C648.559 1111.13 619.856 1054.39 612.217 1029.08C604.578 1003.78 606.083 976.07 606.808 972.288C607.306 969.334 613.327 960.359 619.978 954.413C620.029 954.368 620.086 954.33 620.148 954.301C621.914 952.635 623.879 951.194 625.999 950.011C644.448 940.198 661.504 961.159 670.591 1005.75C679.679 1050.34 685.512 1100.81 667.064 1106.06Z" fill="#000A1D"/>
<path d="M667.063 1106.06H667.007C675.812 1095.25 673.865 1063.97 662.886 1011.04C648.06 939.54 622.434 952.899 620.138 954.301C621.904 952.635 623.87 951.194 625.99 950.011C644.438 940.198 661.494 961.159 670.582 1005.75C679.67 1050.34 685.512 1100.81 667.063 1106.06Z" fill="white"/>
<path d="M667.064 1107.81H667.007C666.683 1107.81 666.367 1107.71 666.094 1107.54C665.821 1107.36 665.602 1107.11 665.461 1106.82C665.319 1106.53 665.262 1106.2 665.294 1105.88C665.326 1105.56 665.447 1105.25 665.643 1104.99C673.762 1095.03 672.332 1065.3 661.165 1011.42C652.924 971.695 641.513 959.099 633.394 955.524C631.455 954.597 629.324 954.143 627.176 954.197C625.027 954.251 622.922 954.812 621.032 955.834C620.656 956.064 620.208 956.144 619.776 956.06C619.344 955.975 618.959 955.731 618.698 955.377C618.437 955.022 618.318 954.582 618.365 954.145C618.413 953.707 618.622 953.303 618.953 953.012C620.829 951.244 622.918 949.718 625.172 948.468C631.164 945.279 637.091 945.034 642.801 947.725C655.464 953.689 665.935 974.179 672.304 1005.41C685.136 1068.8 683.537 1103.25 667.553 1107.78C667.393 1107.81 667.228 1107.83 667.064 1107.81ZM628.568 950.707C630.722 950.857 632.834 951.386 634.805 952.269C647.712 957.913 657.741 977.603 664.599 1010.67C674.326 1057.59 676.688 1086.09 671.862 1100.5C680.056 1089.38 679.087 1056.59 668.851 1006.08C662.717 975.976 652.933 956.361 641.296 950.876C639.318 949.92 637.154 949.408 634.956 949.377C632.759 949.346 630.582 949.797 628.577 950.698L628.568 950.707Z" fill="#262424"/>
<path d="M591.294 999.429L612.198 972.26C612.198 972.26 622.829 964.31 626.902 980.971L615.256 1017.55L591.294 999.429Z" fill="white"/>
<path d="M615.256 1019.3C614.875 1019.3 614.505 1019.17 614.202 1018.94L590.241 1000.82C590.056 1000.68 589.901 1000.51 589.784 1000.3C589.668 1000.1 589.592 999.883 589.561 999.653C589.531 999.423 589.546 999.189 589.606 998.965C589.666 998.741 589.77 998.531 589.911 998.347L610.815 971.178C610.912 971.05 611.026 970.936 611.154 970.839C611.342 970.698 615.858 967.358 620.712 969.089C624.419 970.416 627.081 974.273 628.614 980.538C628.7 980.846 628.7 981.172 628.614 981.479L616.93 1018.07C616.845 1018.34 616.698 1018.58 616.5 1018.78C616.302 1018.98 616.059 1019.13 615.792 1019.21C615.619 1019.27 615.438 1019.3 615.256 1019.3V1019.3ZM593.769 999.1L614.334 1014.65L625.077 980.905C623.854 976.202 621.935 973.266 619.517 972.439C616.893 971.498 614.127 973.116 613.421 973.577L593.769 999.1Z" fill="#262424"/>
<path d="M560.663 1022.32C560.663 1022.32 561.105 1013.94 563.664 1009.52C566.223 1005.11 579.921 995.12 590.137 993.963C600.354 992.806 625.67 1001.43 628.925 1022.32C631.077 1035.6 627.906 1049.2 620.1 1060.16C618.012 1063.18 611.163 1072.07 605.302 1070.5C599.441 1068.94 560.663 1022.32 560.663 1022.32Z" fill="#FF1B46"/>
<path d="M614.042 1052.28C614.042 1052.28 593.863 1095.09 581.435 1117.44C579.319 1121.2 577.475 1124.3 575.969 1126.58C567.107 1140.07 542.864 1151.33 513.371 1133.5C506.589 1129.3 500.322 1124.32 494.697 1118.67C457.066 1081.55 389.689 950.566 389.689 950.566C389.689 950.566 384.562 791.577 422.681 777.277C488.177 752.695 514.208 827.439 526.749 873.931C539.289 920.424 556.458 1026.71 556.458 1026.71C571.341 1010.49 586.167 1001.18 603.393 1015.56C620.618 1029.95 614.042 1052.28 614.042 1052.28Z" fill="#000A1D"/>
<path d="M389.266 926.181C389.123 926.182 388.981 926.166 388.842 926.134C388.268 926.002 374.731 922.719 372.388 914.582C370.243 907.187 371.56 861.165 371.617 859.208C371.629 858.732 371.827 858.28 372.168 857.948C372.509 857.616 372.966 857.43 373.442 857.43H373.498C373.739 857.436 373.976 857.49 374.196 857.588C374.415 857.686 374.613 857.826 374.779 858.001C374.944 858.176 375.073 858.382 375.158 858.607C375.244 858.832 375.284 859.071 375.276 859.312C374.891 872.482 374.251 907.883 375.897 913.556C377.365 918.608 386.34 921.769 389.679 922.569C390.127 922.66 390.523 922.916 390.791 923.285C391.059 923.655 391.179 924.111 391.127 924.564C391.075 925.018 390.855 925.435 390.511 925.735C390.166 926.034 389.722 926.193 389.266 926.181V926.181Z" fill="#262424"/>
<path d="M388.899 942.419C388.416 942.395 387.961 942.186 387.628 941.836C387.296 941.485 387.11 941.021 387.111 940.537L388.851 864.242C388.857 864.001 388.91 863.764 389.007 863.544C389.104 863.325 389.244 863.126 389.417 862.96C389.591 862.794 389.796 862.664 390.02 862.577C390.244 862.49 390.483 862.448 390.724 862.454C390.964 862.46 391.201 862.512 391.421 862.61C391.64 862.707 391.839 862.846 392.005 863.02C392.171 863.194 392.301 863.399 392.388 863.623C392.475 863.847 392.517 864.086 392.511 864.326L390.771 940.622C390.767 940.863 390.716 941.101 390.619 941.323C390.523 941.544 390.384 941.744 390.21 941.911C390.035 942.078 389.83 942.209 389.605 942.296C389.38 942.384 389.14 942.425 388.899 942.419Z" fill="#262424"/>
<path d="M500.04 879.106C496.589 879.138 493.186 878.29 490.153 876.641C477.481 869.707 474.866 850.789 474.762 849.989C474.699 849.507 474.829 849.02 475.124 848.635C475.42 848.249 475.856 847.997 476.338 847.933C476.819 847.87 477.307 848 477.692 848.295C478.078 848.591 478.33 849.028 478.393 849.509C478.393 849.688 480.877 867.384 491.931 873.442C497.472 876.462 504.396 876.067 512.496 872.247C512.935 872.04 513.439 872.016 513.896 872.18C514.353 872.344 514.726 872.683 514.933 873.122C515.14 873.561 515.164 874.065 515 874.522C514.836 874.979 514.497 875.352 514.058 875.559C509.703 877.757 504.917 878.968 500.04 879.106V879.106Z" fill="#262424"/>
<path d="M581.426 1117.4C579.309 1121.16 577.465 1124.26 575.96 1126.54C567.098 1140.04 542.854 1151.3 513.362 1133.46C513.305 1132.52 513.249 1131.51 513.249 1130.56C513.231 1122.34 516.082 1114.36 521.311 1108.02C526.54 1101.67 533.818 1097.34 541.894 1095.78C549.969 1094.22 558.335 1095.53 565.551 1099.48C572.767 1103.42 578.381 1109.76 581.426 1117.4V1117.4Z" fill="white"/>
<path d="M558.782 1081.03H558.481C558.134 1080.97 557.812 1080.82 557.552 1080.58C557.291 1080.35 557.104 1080.04 557.013 1079.7L502.769 877.29C502.644 876.821 502.711 876.321 502.954 875.901C503.198 875.482 503.598 875.176 504.067 875.051C504.536 874.926 505.035 874.993 505.455 875.236C505.875 875.48 506.181 875.88 506.306 876.349L559.516 1074.85L595.359 1021.52C595.629 1021.12 596.049 1020.84 596.525 1020.74C597.002 1020.65 597.496 1020.75 597.899 1021.02C598.302 1021.29 598.581 1021.71 598.674 1022.19C598.768 1022.66 598.668 1023.16 598.397 1023.56L560.306 1080.23C560.134 1080.48 559.906 1080.68 559.641 1080.82C559.376 1080.95 559.081 1081.03 558.782 1081.03Z" fill="#262424"/>
<path d="M557.502 1093.22H557.38C557.14 1093.21 556.905 1093.14 556.69 1093.04C556.474 1092.93 556.282 1092.78 556.124 1092.6C555.966 1092.42 555.845 1092.21 555.768 1091.98C555.691 1091.76 555.66 1091.52 555.677 1091.28C557.05 1070.71 555.677 1036.43 555.677 1036.08C555.667 1035.84 555.705 1035.6 555.787 1035.38C555.87 1035.15 555.996 1034.95 556.158 1034.77C556.486 1034.41 556.943 1034.2 557.427 1034.18C557.911 1034.16 558.383 1034.33 558.739 1034.66C559.096 1034.99 559.307 1035.45 559.327 1035.93C559.327 1036.28 560.71 1070.74 559.327 1091.51C559.298 1091.98 559.093 1092.41 558.754 1092.73C558.415 1093.05 557.967 1093.22 557.502 1093.22V1093.22Z" fill="#262424"/>
<path d="M297.739 544.58L269.873 597.996C269.873 597.996 215.064 546.894 209.947 537.148C204.829 527.401 199.024 439.6 199.024 439.6C199.024 439.6 180.209 430.013 171.065 421.622C161.921 413.23 153.886 390.069 153.886 390.069C152.889 384.669 166.671 367.095 169.268 367.293C171.864 367.49 187.547 388.394 188.083 389.043C187.867 388.366 180.689 366.644 179.899 363.501C179.108 360.359 182.1 357.311 184.894 359.306C187.688 361.3 203.869 392.458 204.65 393.258C205.431 394.057 220.643 402.045 220.643 402.045L226.288 397.256C225.883 382.872 231.876 382.477 233.08 385.271C234.284 388.065 235.479 408.79 234.679 412.44C233.88 416.09 228.282 429.214 228.282 429.214L250.917 507.88L297.739 544.58Z" fill="white"/>
<path d="M269.873 599.746C269.43 599.746 269.003 599.578 268.678 599.275C266.43 597.178 213.587 547.853 208.394 537.957C203.408 528.445 198.046 450.898 197.34 440.7C193.455 438.668 178.102 430.418 169.879 422.911C160.472 414.312 152.56 391.593 152.221 390.633C152.193 390.55 152.171 390.465 152.156 390.379C151.215 385.337 159.277 374.386 163.332 369.899C166.897 365.938 168.346 365.458 169.4 365.543C170.181 365.599 172.071 365.75 183.172 379.842C180.171 370.632 178.516 365.402 178.149 363.934C177.845 362.798 177.894 361.595 178.291 360.488C178.687 359.38 179.412 358.42 180.369 357.735C181.186 357.178 182.157 356.894 183.145 356.921C184.133 356.948 185.087 357.285 185.872 357.885C187.754 359.24 192.693 367.895 201.715 384.452C203.596 387.924 205.393 391.216 205.911 392.035C207.162 392.872 213.973 396.569 220.37 399.947L224.434 396.475C224.293 384.829 228.338 382.655 230.079 382.26C230.982 382.056 231.928 382.177 232.751 382.602C233.574 383.027 234.22 383.729 234.576 384.584C235.902 387.679 237.172 408.799 236.279 412.807C235.545 416.118 231.133 426.693 230.022 429.308L252.347 506.846L298.811 543.197C299.132 543.45 299.355 543.808 299.441 544.208C299.526 544.608 299.47 545.025 299.281 545.389L271.416 598.805C271.293 599.049 271.116 599.261 270.897 599.424C270.678 599.587 270.424 599.698 270.155 599.746H269.873ZM155.589 389.636C156.276 391.574 163.849 412.666 172.241 420.324C181.15 428.461 199.626 437.944 199.815 438.038C200.083 438.178 200.31 438.385 200.475 438.639C200.64 438.893 200.736 439.185 200.755 439.487C202.364 463.806 207.435 528.605 211.48 536.338C215.3 543.62 250.051 577.092 269.365 595.146L295.49 545.069L249.722 509.273C249.424 509.033 249.213 508.703 249.12 508.332L226.513 429.703C226.404 429.317 226.431 428.905 226.589 428.536C228.132 424.914 232.233 414.886 232.892 412.064C233.597 408.865 232.421 388.375 231.396 385.967C231.361 385.865 231.29 385.78 231.196 385.728C231.102 385.676 230.993 385.66 230.888 385.685C229.947 385.882 227.727 388.338 227.972 397.218C227.98 397.48 227.929 397.74 227.823 397.979C227.717 398.219 227.559 398.431 227.36 398.601L221.716 403.39C221.449 403.618 221.119 403.761 220.77 403.799C220.421 403.838 220.069 403.771 219.759 403.606C209.533 398.225 204.02 395.139 203.361 394.509C202.985 394.133 202.637 393.568 198.601 386.136C194.377 378.375 185.581 362.231 183.784 360.736C183.585 360.558 183.331 360.454 183.065 360.438C182.799 360.423 182.535 360.498 182.316 360.651C181.959 360.936 181.693 361.32 181.552 361.755C181.412 362.19 181.403 362.657 181.526 363.097C181.968 364.856 184.555 372.947 189.222 387.143L189.673 388.526C189.795 388.92 189.774 389.344 189.614 389.725C189.454 390.105 189.166 390.417 188.8 390.607C188.433 390.796 188.012 390.851 187.609 390.761C187.206 390.671 186.848 390.443 186.597 390.116C178.544 379.419 171.262 370.717 169.117 369.184C165.919 371.075 155.1 385.581 155.589 389.636Z" fill="#262424"/>
<path d="M288.914 533.657L256.167 593.226L322.707 660.115C322.707 660.115 359.98 587.309 359.98 586.265C359.98 585.22 288.914 533.657 288.914 533.657Z" fill="#FF1B46"/>
<path d="M269.873 599.821C269.559 599.821 269.25 599.741 268.977 599.586C268.703 599.432 268.474 599.21 268.311 598.941C268.148 598.673 268.058 598.367 268.048 598.053C268.038 597.739 268.109 597.428 268.255 597.149L294.597 546.63C294.708 546.417 294.86 546.228 295.044 546.074C295.228 545.919 295.441 545.803 295.671 545.731C295.9 545.659 296.141 545.633 296.381 545.654C296.62 545.675 296.853 545.743 297.066 545.854C297.279 545.965 297.468 546.118 297.623 546.302C297.777 546.486 297.893 546.699 297.966 546.928C298.038 547.158 298.064 547.399 298.043 547.638C298.021 547.878 297.953 548.111 297.842 548.324L271.501 598.843C271.341 599.135 271.106 599.38 270.82 599.552C270.534 599.724 270.207 599.817 269.873 599.821V599.821Z" fill="#262424"/>
<path d="M484.81 491.323C471.187 497.334 483.521 525.68 488.77 534.598C494.02 543.516 488.065 569.783 505.949 577.873C523.832 585.964 492.11 622.089 537.69 656.624C572.818 683.248 631.126 660.444 622.029 630.678C612.932 600.912 564.558 588.57 556.58 561.231C551.5 543.836 558.114 518.238 528.753 509.978C506.861 503.882 495.572 486.572 484.81 491.323Z" fill="#262424"/>
<path d="M353.714 581.241C353.714 581.241 317.476 650.011 316.084 665.336C314.691 680.661 338.728 710.624 338.728 710.624L296.224 817.58C296.224 817.58 341.164 878.193 389.586 882.031C438.007 885.87 526.843 836.395 526.843 836.395L499.335 724.566L529.646 660.115L514.321 581.241C514.321 581.241 469.033 601.938 438.025 605.419C407.018 608.9 353.714 581.241 353.714 581.241Z" fill="#FF1B46"/>
<path d="M320.816 651.826C320.512 651.825 320.213 651.749 319.946 651.603C319.679 651.458 319.452 651.249 319.286 650.994C319.12 650.739 319.02 650.447 318.994 650.144C318.969 649.841 319.02 649.537 319.141 649.258C327.194 631.12 349.246 585.898 349.471 585.437C349.685 585 350.063 584.666 350.522 584.508C350.982 584.35 351.485 584.382 351.922 584.595C352.359 584.808 352.693 585.186 352.851 585.646C353.008 586.105 352.977 586.609 352.764 587.046C352.538 587.497 330.515 632.663 322.49 650.745C322.341 651.064 322.104 651.334 321.808 651.526C321.512 651.717 321.168 651.821 320.816 651.826V651.826Z" fill="#262424"/>
<path d="M393.546 873.094C392.668 873.094 391.815 873.072 390.987 873.028C353.893 871.147 310.862 816.629 309.047 814.315C308.747 813.933 308.612 813.448 308.67 812.967C308.728 812.485 308.975 812.046 309.357 811.747C309.739 811.447 310.224 811.312 310.706 811.37C311.187 811.428 311.626 811.676 311.925 812.057C312.358 812.612 355.737 867.562 391.166 869.369C426.971 871.175 512.336 829.518 513.192 829.104C513.408 828.998 513.642 828.936 513.882 828.921C514.121 828.906 514.362 828.938 514.589 829.016C514.816 829.094 515.025 829.215 515.205 829.374C515.386 829.533 515.533 829.726 515.638 829.941C515.744 830.157 515.806 830.391 515.821 830.631C515.836 830.87 515.804 831.11 515.726 831.338C515.648 831.565 515.527 831.774 515.368 831.954C515.209 832.134 515.017 832.282 514.801 832.387C511.358 834.09 431.459 873.094 393.546 873.094Z" fill="#262424"/>
<path d="M426.633 592.182C406.726 590.611 393.885 605.654 392.492 621.91C391.1 638.167 409.022 645.599 409.022 645.599C409.022 645.599 415.993 628.411 422.258 627.019C428.524 625.626 435.231 647.96 435.231 647.96C435.231 647.96 456.869 643.087 460.782 621.948C464.696 600.809 444.281 593.574 426.633 592.182Z" fill="#000A1D"/>
<path d="M414.544 562.576L410.32 603.34C410.32 603.34 416.265 614.949 425.955 615.41C435.645 615.871 445.034 605.419 445.034 605.419V560.13L414.544 562.576Z" fill="white"/>
<path d="M426.586 617.178H425.871C415.278 616.67 409.012 604.657 408.758 604.149C408.609 603.859 408.544 603.533 408.57 603.208L412.785 562.351C412.827 561.942 413.011 561.561 413.305 561.275C413.599 560.988 413.984 560.813 414.393 560.78L444.884 558.343C445.124 558.325 445.366 558.357 445.594 558.436C445.821 558.516 446.03 558.642 446.207 558.807C446.384 558.971 446.524 559.17 446.62 559.391C446.717 559.613 446.766 559.851 446.765 560.093V605.381C446.766 605.816 446.605 606.235 446.314 606.557C445.947 607.037 436.718 617.178 426.586 617.178ZM412.126 602.963C413.274 604.977 418.495 613.312 426.049 613.65C433.604 613.989 441.374 606.67 443.294 604.713V562.04L416.143 564.232L412.126 602.963Z" fill="#262424"/>
<path d="M472.147 497.889L477.556 497.015C478.405 496.875 479.276 496.965 480.079 497.276C480.881 497.587 481.586 498.108 482.119 498.783C483.687 500.681 484.803 502.91 485.383 505.303C485.778 507.892 485.255 510.537 483.906 512.782C483.597 513.333 483.182 513.817 482.685 514.206C482.187 514.595 481.618 514.882 481.009 515.049L474.969 516.752C474.281 516.946 473.559 516.985 472.854 516.867C472.149 516.748 471.479 516.475 470.892 516.066C470.306 515.658 469.817 515.124 469.461 514.504C469.106 513.884 468.892 513.193 468.835 512.481L468.083 503.073C467.98 501.855 468.342 500.644 469.096 499.682C469.85 498.721 470.94 498.08 472.147 497.889Z" fill="white"/>
<path d="M473.661 518.756C471.985 518.754 470.371 518.121 469.14 516.982C467.909 515.844 467.152 514.284 467.02 512.612L466.267 503.205C466.143 501.537 466.646 499.884 467.678 498.568C468.71 497.252 470.197 496.369 471.846 496.093V496.093L477.255 495.218C478.426 495.026 479.627 495.151 480.733 495.58C481.84 496.008 482.812 496.724 483.549 497.654C485.292 499.776 486.53 502.266 487.171 504.936C487.659 507.948 487.069 511.036 485.506 513.657C485.081 514.419 484.508 515.09 483.822 515.629C483.136 516.169 482.349 516.566 481.507 516.799L475.468 518.502C474.88 518.668 474.272 518.754 473.661 518.756ZM472.438 499.696C471.693 499.818 471.021 500.216 470.554 500.81C470.087 501.403 469.86 502.151 469.917 502.904L470.67 512.311C470.705 512.755 470.837 513.186 471.059 513.573C471.28 513.959 471.584 514.292 471.95 514.546C472.315 514.801 472.732 514.971 473.171 515.045C473.611 515.119 474.061 515.095 474.489 514.974L480.529 513.271C480.906 513.17 481.259 512.995 481.568 512.756C481.876 512.517 482.134 512.218 482.326 511.879C483.462 510.014 483.914 507.812 483.605 505.651C483.079 503.541 482.085 501.577 480.698 499.903C480.367 499.487 479.931 499.167 479.435 498.975C478.939 498.784 478.401 498.727 477.876 498.811L472.438 499.696Z" fill="#262424"/>
<path d="M392.304 537.063C388.25 554.57 390.14 576.669 411.119 582.154C426.557 586.19 448.854 572.661 456.897 549.763C464.941 526.865 466.672 505.783 438.27 499.047C435.225 498.372 432.139 497.901 429.032 497.636C411.75 496.516 405.136 496.168 394.656 527.74C393.744 530.562 393.029 533.761 392.304 537.063Z" fill="white"/>
<path d="M416.087 584.6C414.262 584.61 412.444 584.386 410.677 583.932C389.04 578.287 386.086 555.812 390.526 536.658L390.818 535.398C391.476 532.481 392.107 529.753 392.944 527.204C398.259 511.211 402.69 502.998 408.241 498.981C413.791 494.964 420.32 495.265 429.173 495.839C429.412 495.854 429.647 495.917 429.862 496.022C430.078 496.128 430.27 496.276 430.429 496.456C430.587 496.637 430.709 496.847 430.786 497.074C430.864 497.301 430.896 497.542 430.88 497.781C430.865 498.021 430.802 498.255 430.696 498.471C430.59 498.686 430.443 498.879 430.262 499.037C430.082 499.196 429.872 499.317 429.645 499.395C429.417 499.472 429.177 499.504 428.937 499.489C412.145 498.397 406.472 498.031 396.415 528.361C395.634 530.713 395.032 533.384 394.393 536.216L394.101 537.496C392.135 545.962 387.6 574.138 411.609 580.404C416.369 581.646 422.418 580.742 430.659 577.582C431.112 577.406 431.616 577.417 432.061 577.613C432.505 577.808 432.854 578.173 433.03 578.626C433.206 579.079 433.194 579.583 432.999 580.027C432.803 580.472 432.438 580.821 431.985 580.996C425.617 583.405 420.499 584.6 416.087 584.6Z" fill="#262424"/>
<path d="M448.252 550.657C445.783 548.646 443.903 546.006 442.811 543.016C441.718 540.025 441.452 536.795 442.043 533.667C442.4 531.541 443.106 528.737 443.322 526.065C427.329 534.673 402.267 534.908 391.514 534.532C389.826 534.499 388.192 533.936 386.841 532.923C385.491 531.91 384.493 530.499 383.988 528.888C377.977 508.228 402.286 480.241 424.074 488.03C454.658 478.895 479.711 500.966 476.992 523.403C473.934 548.239 454.329 555.878 448.252 550.657Z" fill="#262424"/>
<path d="M449.474 548.681C449.474 548.681 464.169 540.29 474.96 547.543C485.75 554.796 473.21 581.41 444.855 569.397L449.474 548.681Z" fill="white"/>
<path d="M458.534 574.27C453.571 574.183 448.675 573.099 444.14 571.081C443.694 570.891 443.341 570.532 443.159 570.082C442.977 569.632 442.982 569.128 443.171 568.682C443.361 568.235 443.72 567.882 444.17 567.701C444.62 567.519 445.123 567.523 445.57 567.713C461.413 574.421 471.488 568.56 475.308 561.504C477.961 556.602 477.387 551.372 473.944 549.058C464.235 542.538 450.519 550.196 450.424 550.271C450.003 550.512 449.503 550.575 449.034 550.447C448.566 550.319 448.167 550.011 447.927 549.589C447.686 549.167 447.622 548.667 447.75 548.199C447.878 547.731 448.187 547.332 448.609 547.091C449.248 546.724 464.423 538.22 476.023 546.019C481.065 549.406 482.128 556.65 478.563 563.244C475.138 569.5 468.12 574.27 458.534 574.27Z" fill="#262424"/>
<path d="M561.566 551.061L586.769 523.892L646.094 423.343C646.094 423.343 641.917 407.548 641.917 401.047C641.917 394.547 654.513 371.667 659.913 369.927C665.313 368.186 664.269 373.934 663.394 376.898C662.519 379.861 659.387 386.823 659.387 386.823L661.268 396.927C661.268 396.927 682.172 388.046 684.957 385.083C687.741 382.119 694.186 361.912 696.105 359.682C698.024 357.452 701.157 363.859 701.157 363.859C701.157 363.859 708.824 372.392 711.957 379.015C715.089 385.638 704.985 419.599 702.728 421.17C700.47 422.741 673.376 436.288 673.376 436.288C673.376 436.288 644.212 534.701 636.583 545.85C628.953 556.998 584.323 602.634 584.323 602.634L561.566 551.061Z" fill="white"/>
<path d="M584.323 604.393C584.22 604.403 584.116 604.403 584.013 604.393C583.731 604.342 583.466 604.223 583.242 604.046C583.017 603.869 582.839 603.639 582.724 603.377L559.967 551.823C559.832 551.512 559.791 551.169 559.847 550.835C559.904 550.501 560.057 550.191 560.287 549.942L585.348 522.838L644.212 423.118C643.384 419.91 640.157 407.012 640.157 401.085C640.157 393.869 653.121 370.313 659.377 368.29C662.143 367.396 663.705 368.158 664.523 368.958C666.094 370.491 666.282 373.332 665.078 377.425C664.316 380.021 661.964 385.393 661.212 387.068L662.613 394.481C670.619 391.009 682.012 385.713 683.705 383.907C685.022 382.505 687.892 375.035 689.99 369.569C692.389 363.313 693.753 359.72 694.787 358.544C695.097 358.155 695.5 357.851 695.959 357.662C696.419 357.472 696.919 357.404 697.412 357.462C699.802 357.763 701.796 361.225 702.643 362.871C703.809 364.188 710.573 371.95 713.556 378.262C715.522 382.42 713.292 393.691 711.081 402.411C710.893 403.164 706.378 420.766 703.734 422.6C701.561 424.105 679.604 435.122 674.768 437.54C671.889 447.267 645.463 536.009 637.994 546.866C630.336 558.014 587.371 602.013 585.546 603.885C585.221 604.208 584.782 604.391 584.323 604.393V604.393ZM563.626 551.428L584.869 599.558C593.336 590.884 628.501 554.495 635.124 544.862C642.547 534.071 671.353 436.777 671.645 435.799C671.718 435.565 671.839 435.348 672.002 435.163C672.164 434.978 672.362 434.83 672.585 434.727C683.254 429.393 699.576 421.123 701.702 419.768C704.204 416.504 713.114 385.355 710.451 379.739C707.46 373.436 700.009 365.091 699.933 365.007C699.824 364.885 699.733 364.749 699.661 364.602C699.061 363.328 698.264 362.157 697.299 361.131C696.481 362.57 694.74 367.095 693.32 370.802C690.168 379.005 687.976 384.518 686.311 386.287C683.423 389.363 665.614 397.04 662.03 398.517C661.789 398.618 661.528 398.664 661.267 398.652C661.005 398.64 660.75 398.569 660.519 398.446C660.288 398.322 660.088 398.149 659.933 397.938C659.778 397.727 659.671 397.485 659.622 397.228L657.74 387.124C657.674 386.772 657.716 386.407 657.863 386.08C657.863 386.014 660.958 379.184 661.786 376.381C662.67 373.37 662.472 371.743 662.143 371.423C661.6 371.262 661.016 371.319 660.515 371.583C656.122 373.003 643.732 394.744 643.732 401.038C643.732 407.332 647.815 422.732 647.853 422.882C647.911 423.106 647.925 423.34 647.893 423.569C647.86 423.799 647.783 424.019 647.665 424.218L588.331 524.776C588.267 524.885 588.191 524.986 588.105 525.078L563.626 551.428Z" fill="#262424"/>
<path d="M498.836 587.751L563.081 541.654L595.481 600.179L529.627 660.096C508.677 652.664 484.132 627.799 498.836 587.751Z" fill="#FF1B46"/>
<path d="M523.795 659.456C523.51 659.455 523.23 659.388 522.976 659.259C503.738 649.625 485.026 626.115 495.61 591.524C495.752 591.06 496.073 590.671 496.501 590.443C496.93 590.216 497.432 590.168 497.896 590.31C498.36 590.452 498.748 590.773 498.976 591.202C499.203 591.63 499.251 592.132 499.109 592.596C489.203 624.958 505.789 646.558 524.613 655.985C524.989 656.164 525.292 656.467 525.472 656.843C525.652 657.219 525.698 657.645 525.603 658.05C525.507 658.456 525.275 658.816 524.947 659.072C524.618 659.328 524.211 659.463 523.795 659.456Z" fill="#262424"/>
<path d="M580.805 604.468C580.47 604.463 580.143 604.369 579.857 604.196C579.571 604.022 579.336 603.775 579.177 603.481L553.184 553.065C552.962 552.634 552.92 552.131 553.069 551.669C553.217 551.207 553.543 550.822 553.974 550.6C554.406 550.378 554.908 550.337 555.37 550.485C555.832 550.633 556.217 550.959 556.439 551.391L582.432 601.806C582.573 602.085 582.641 602.395 582.628 602.708C582.616 603.02 582.523 603.324 582.36 603.591C582.197 603.858 581.969 604.078 581.697 604.232C581.424 604.385 581.117 604.467 580.805 604.468Z" fill="#262424"/>
<path d="M688.099 654.206L676.657 665.647C673.876 668.429 673.876 672.938 676.657 675.719L705.015 704.077C707.796 706.858 712.305 706.858 715.087 704.077L726.528 692.635C729.31 689.854 729.31 685.345 726.528 682.564L698.17 654.206C695.389 651.425 690.88 651.425 688.099 654.206Z" fill="#000A1D"/>
<path d="M752.682 606.858L770.482 624.657C772.059 626.234 773.31 628.106 774.164 630.167C775.017 632.227 775.457 634.436 775.457 636.666C775.457 638.896 775.017 641.105 774.164 643.165C773.31 645.226 772.059 647.098 770.482 648.675L745.815 673.304C745.036 674.084 744.112 674.702 743.094 675.124C742.076 675.546 740.985 675.764 739.883 675.764C738.781 675.764 737.69 675.546 736.673 675.124C735.655 674.702 734.73 674.084 733.952 673.304L706.199 645.552C704.627 643.98 703.744 641.848 703.744 639.625V598.532C703.744 597.285 704.239 596.088 705.122 595.206C706.004 594.324 707.2 593.828 708.448 593.828C709.386 593.828 710.303 594.108 711.081 594.633C711.859 595.157 712.462 595.903 712.813 596.773L723.528 623.312L739.973 606.867C740.805 606.029 741.794 605.363 742.884 604.908C743.975 604.453 745.144 604.218 746.326 604.218C747.507 604.217 748.677 604.449 749.768 604.903C750.859 605.356 751.849 606.02 752.682 606.858V606.858Z" fill="#000A1D"/>
<path d="M6.77937 575.738C5.20844 576.678 3.83819 577.919 2.74687 579.39C1.65556 580.86 0.864559 582.531 0.419026 584.307C-0.0265076 586.083 -0.117845 587.929 0.150244 589.74C0.418334 591.552 1.04058 593.293 1.98147 594.863C6.89715 603.049 14.8616 608.948 24.1246 611.264C33.3875 613.58 43.1911 612.124 51.3809 607.216L63.338 600.047L37.674 557.214L6.77937 575.738ZM26.4319 602.079C23.038 601.245 19.8434 599.745 17.0335 597.666C14.2235 595.588 11.8542 592.972 10.0627 589.971C9.44797 588.943 9.26617 587.713 9.55716 586.551C9.84815 585.389 10.5882 584.389 11.6149 583.772L34.4472 570.093L50.4402 596.764L46.5642 599.087C43.5749 600.897 40.257 602.097 36.8018 602.619C33.3465 603.14 29.8222 602.973 26.4319 602.126V602.079Z" fill="#000A1D"/>
<path d="M83.5176 529.734L109.182 572.567L121.148 565.399C129.342 560.494 135.253 552.536 137.582 543.274C139.91 534.013 138.466 524.206 133.566 516.009C132.625 514.438 131.385 513.067 129.914 511.976C128.444 510.885 126.773 510.094 124.997 509.648C123.221 509.203 121.375 509.111 119.563 509.379C117.752 509.648 116.011 510.27 114.44 511.211L83.5176 529.734ZM116.294 557.317L112.418 559.641L96.4248 532.971L119.267 519.292C120.295 518.677 121.525 518.495 122.687 518.786C123.849 519.077 124.849 519.817 125.466 520.844C129.085 526.893 130.157 534.13 128.446 540.968C126.735 547.806 122.382 553.686 116.341 557.317H116.294Z" fill="#000A1D"/>
<path d="M91.0436 518.332L107.864 546.358C112.687 554.4 114.447 563.913 112.819 573.149C111.191 582.385 106.285 590.723 99.0024 596.632L122.437 635.73C134.667 632.569 147.762 641.027 147.762 641.027L105.541 666.324C105.541 666.324 104.28 650.782 112.869 641.469L89.4349 602.361C80.7864 606.01 71.1112 606.414 62.1889 603.498C53.2665 600.582 45.6971 594.543 40.8727 586.491L24.0895 558.475C23.5404 557.557 23.3776 556.46 23.6369 555.423C23.8961 554.386 24.5563 553.494 25.4724 552.943L85.5777 516.931C86.4913 516.404 87.5748 516.255 88.5964 516.517C89.6179 516.779 90.4963 517.431 91.0436 518.332Z" fill="#000A1D"/>
<path d="M66.3205 549.631L75.7282 555.671C75.9881 555.843 76.2867 555.947 76.597 555.975C76.9073 556.003 77.2197 555.954 77.5062 555.831L87.7887 551.541C88.1196 551.385 88.4887 551.329 88.8509 551.38C89.2131 551.43 89.5527 551.585 89.8281 551.826C90.1036 552.067 90.303 552.382 90.4019 552.734C90.5009 553.086 90.4951 553.46 90.3852 553.808L87.5629 564.58C87.4808 564.881 87.4748 565.198 87.5454 565.501C87.616 565.805 87.7611 566.087 87.9675 566.321L95.2302 574.787C95.4808 575.054 95.6483 575.388 95.7121 575.748C95.776 576.108 95.7334 576.479 95.5897 576.816C95.4459 577.152 95.2072 577.439 94.9027 577.642C94.5983 577.845 94.2413 577.955 93.8755 577.958L82.7557 578.579C82.4418 578.595 82.1371 578.69 81.8692 578.854C81.6014 579.018 81.3789 579.247 81.2222 579.519L75.4271 589.031C75.2517 589.351 74.9866 589.614 74.6642 589.787C74.3418 589.959 73.9761 590.034 73.6118 590.002C73.2475 589.97 72.9004 589.833 72.613 589.607C72.3256 589.381 72.1102 589.076 71.9933 588.729L67.9669 578.381C67.8663 578.069 67.6858 577.788 67.4432 577.567C67.2006 577.346 66.9044 577.192 66.5839 577.121L55.7087 574.58C55.3497 574.512 55.0182 574.341 54.7549 574.087C54.4916 573.834 54.3078 573.509 54.226 573.153C54.1442 572.797 54.1679 572.425 54.2942 572.082C54.4205 571.739 54.644 571.44 54.9373 571.222L63.5735 564.185C63.8169 563.99 64.008 563.737 64.1296 563.45C64.2511 563.162 64.2992 562.849 64.2697 562.539L63.3289 551.438C63.2678 551.066 63.3193 550.685 63.4769 550.344C63.6345 550.002 63.8909 549.716 64.2129 549.521C64.535 549.327 64.9079 549.233 65.2836 549.253C65.6593 549.273 66.0205 549.404 66.3205 549.631V549.631Z" fill="#FF1B46"/>
<path d="M136.2 177.484C142.397 176.322 148.3 173.936 153.564 170.466C158.828 166.997 163.348 162.513 166.86 157.277L181.47 171.934C181.47 171.934 169.24 195.97 138.618 196.667L136.2 177.484Z" fill="#FF1B46"/>
<path d="M131.374 749.76C134.636 755.159 138.942 759.853 144.04 763.569C149.138 767.284 154.926 769.945 161.065 771.397L152.513 790.213C152.513 790.213 125.72 787.193 114.29 758.782L131.374 749.76Z" fill="#FF1B46"/>
<path d="M662.087 800.523C658.825 795.124 654.519 790.43 649.421 786.715C644.323 783 638.535 780.338 632.396 778.886L640.948 760.071C640.948 760.071 667.741 763.034 679.171 791.483L662.087 800.523Z" fill="#FF1B46"/>
<path d="M756.361 344.197C759.623 349.596 763.929 354.29 769.027 358.006C774.125 361.721 779.912 364.382 786.051 365.835L777.5 384.65C777.5 384.65 750.707 381.686 739.276 353.238L756.361 344.197Z" fill="#FF1B46"/>
<path d="M245.668 19.6525C251.207 17.2447 255.633 12.8327 258.057 7.30032L261.237 0L264.426 7.30032C266.843 12.8469 271.27 17.2733 276.816 19.6902L284.116 22.87L276.816 26.0497C271.27 28.4666 266.843 32.893 264.426 38.4396L261.247 45.7399L258.067 38.4396C255.653 32.8807 251.223 28.4432 245.668 26.0215L238.367 22.8417L245.668 19.6525Z" fill="#000A1D"/>
<path d="M60.6196 331.704C65.3407 329.647 69.1084 325.879 71.1655 321.158L73.8749 314.939L76.5843 321.158C78.6414 325.879 82.4091 329.647 87.1303 331.704L93.3487 334.413L87.1303 337.122C82.4091 339.18 78.6414 342.947 76.5843 347.668L73.8749 353.887L71.1655 347.668C69.1084 342.947 65.3407 339.18 60.6196 337.122L54.4011 334.413L60.6196 331.704Z" fill="#FF1B46"/>
<path d="M126.059 991.489C130.199 989.685 133.503 986.381 135.306 982.241L137.677 976.794L140.048 982.241C141.852 986.381 145.155 989.685 149.296 991.489L154.743 993.86L149.296 996.23C145.155 998.034 141.852 1001.34 140.048 1005.48L137.677 1010.93L135.259 1005.45C133.456 1001.31 130.152 998.006 126.012 996.202L120.565 993.832L126.059 991.489Z" fill="#000A1D"/>
<path d="M708.654 165.979C714.483 163.439 719.135 158.788 721.675 152.959L725.014 145.282L728.354 152.959C730.893 158.788 735.545 163.439 741.374 165.979L749.051 169.319L741.374 172.658C735.545 175.198 730.893 179.849 728.354 185.678L725.014 193.355L721.675 185.678C719.135 179.849 714.483 175.198 708.654 172.658L700.978 169.319L708.654 165.979Z" fill="#000A1D"/>
<path d="M649.358 45.7117C658.337 45.7117 665.615 38.4335 665.615 29.4553C665.615 20.4771 658.337 13.1989 649.358 13.1989C640.38 13.1989 633.102 20.4771 633.102 29.4553C633.102 38.4335 640.38 45.7117 649.358 45.7117Z" fill="#000A1D"/>
<path d="M725.014 936.897C731.94 936.897 737.555 931.282 737.555 924.356C737.555 917.43 731.94 911.816 725.014 911.816C718.089 911.816 712.474 917.43 712.474 924.356C712.474 931.282 718.089 936.897 725.014 936.897Z" fill="#000A1D"/>
<path d="M341.7 305.635C279.695 362.768 244.162 434.52 244.162 434.52H294.098L311.746 483.985C311.746 483.985 347.279 412.224 409.285 355.1L341.7 305.635Z" fill="#000A1D"/>
<path d="M520.916 305.635C582.922 362.768 618.454 434.52 618.454 434.52H568.519L550.87 483.985C550.87 483.985 515.328 412.233 453.332 355.11L520.916 305.635Z" fill="#000A1D"/>
<path d="M575.537 99.4951L585.528 149.299C586.315 153.226 587.862 156.962 590.081 160.297L618.238 202.575C621.599 207.624 623.393 213.555 623.393 219.621C623.393 225.687 621.599 231.618 618.238 236.668L590.081 278.946C587.862 282.28 586.315 286.016 585.528 289.943L575.537 339.766C574.34 345.707 571.414 351.162 567.128 355.447C562.842 359.732 557.385 362.655 551.444 363.85L501.64 373.84C497.712 374.628 493.977 376.174 490.642 378.394L448.364 406.551C443.315 409.912 437.384 411.706 431.318 411.706C425.252 411.706 419.321 409.912 414.271 406.551L371.993 378.394C368.659 376.174 364.923 374.628 360.996 373.84L311.182 363.85C305.233 362.656 299.77 359.73 295.48 355.44C291.19 351.15 288.264 345.687 287.07 339.738L277.08 289.934C276.292 286.006 274.746 282.271 272.526 278.936L244.388 236.677C241.027 231.628 239.233 225.697 239.233 219.631C239.233 213.564 241.027 207.634 244.388 202.584L272.545 160.306C274.764 156.972 276.311 153.236 277.098 149.309L287.07 99.4951C288.265 93.548 291.192 88.0868 295.482 83.7983C299.772 79.5098 305.235 76.5854 311.182 75.3928L360.986 65.4019C364.914 64.6145 368.649 63.0678 371.984 60.8486L414.262 32.7009C419.311 29.3395 425.242 27.546 431.308 27.546C437.374 27.546 443.305 29.3395 448.355 32.7009L490.633 60.858C493.967 63.0772 497.703 64.6239 501.63 65.4113L551.434 75.4022C557.379 76.5958 562.838 79.5196 567.126 83.8062C571.415 88.0927 574.341 93.5509 575.537 99.4951V99.4951Z" fill="#FF1B46"/>
<path d="M431.308 359.597C508.61 359.597 571.275 296.932 571.275 219.631C571.275 142.329 508.61 79.6638 431.308 79.6638C354.007 79.6638 291.341 142.329 291.341 219.631C291.341 296.932 354.007 359.597 431.308 359.597Z" fill="white"/>
<path d="M431.308 344.197C500.104 344.197 555.875 288.427 555.875 219.631C555.875 150.834 500.104 95.0641 431.308 95.0641C362.512 95.0641 306.742 150.834 306.742 219.631C306.742 288.427 362.512 344.197 431.308 344.197Z" fill="#000A1D"/>
<path d="M512.487 193.261L456.389 185.105L431.308 219.631L512.487 193.261Z" fill="#FF1B46"/>
<path d="M431.308 219.631L471.893 232.82L512.487 193.261L431.308 219.631Z" fill="white"/>
<path d="M431.308 219.631L481.479 288.683L471.893 232.82L431.308 219.631Z" fill="#FF1B46"/>
<path d="M381.137 288.683L431.308 262.304V219.631L381.137 288.683Z" fill="#FF1B46"/>
<path d="M431.308 219.631L390.724 232.82L381.137 288.683L431.308 219.631Z" fill="white"/>
<path d="M431.308 219.631V262.304L481.479 288.683L431.308 219.631Z" fill="white"/>
<path d="M431.308 134.285L406.228 185.105L431.308 219.631V134.285Z" fill="#FF1B46"/>
<path d="M431.308 219.631L350.13 193.261L390.724 232.82L431.308 219.631Z" fill="#FF1B46"/>
<path d="M431.308 219.631L456.389 185.105L431.308 134.285V219.631Z" fill="white"/>
<path d="M431.308 219.631L406.227 185.105L350.13 193.261L431.308 219.631Z" fill="white"/>
<path d="M431.487 64.7057C435.67 64.7057 439.06 61.3151 439.06 57.1325C439.06 52.95 435.67 49.5594 431.487 49.5594C427.305 49.5594 423.914 52.95 423.914 57.1325C423.914 61.3151 427.305 64.7057 431.487 64.7057Z" fill="white"/>
<path d="M431.487 66.4555C429.643 66.4555 427.841 65.9087 426.308 64.8843C424.774 63.8599 423.579 62.4038 422.874 60.7003C422.168 58.9967 421.983 57.1222 422.343 55.3137C422.703 53.5053 423.591 51.8441 424.895 50.5402C426.199 49.2364 427.86 48.3485 429.668 47.9887C431.477 47.629 433.351 47.8136 435.055 48.5193C436.758 49.2249 438.214 50.4198 439.239 51.953C440.263 53.4862 440.81 55.2886 440.81 57.1326C440.807 59.6044 439.824 61.9743 438.077 63.7221C436.329 65.47 433.959 66.453 431.487 66.4555ZM431.487 51.3186C430.337 51.3186 429.213 51.6596 428.257 52.2985C427.301 52.9373 426.556 53.8453 426.116 54.9077C425.676 55.97 425.56 57.139 425.785 58.2668C426.009 59.3946 426.563 60.4305 427.376 61.2436C428.189 62.0567 429.225 62.6104 430.353 62.8348C431.481 63.0591 432.65 62.944 433.712 62.5039C434.774 62.0639 435.682 61.3187 436.321 60.3626C436.96 59.4065 437.301 58.2824 437.301 57.1326C437.298 55.5914 436.685 54.114 435.595 53.0242C434.506 51.9345 433.028 51.3211 431.487 51.3186V51.3186Z" fill="#262424"/>
<path d="M321.878 109.959C324.835 107.001 324.835 102.206 321.878 99.2485C318.92 96.291 314.125 96.291 311.168 99.2485C308.21 102.206 308.21 107.001 311.168 109.958C314.125 112.916 318.92 112.916 321.878 109.959Z" fill="white"/>
<path d="M316.526 113.926C314.369 113.927 312.278 113.18 310.61 111.812C308.941 110.445 307.799 108.54 307.378 106.425C306.956 104.309 307.282 102.113 308.298 100.21C309.315 98.3073 310.96 96.816 312.953 95.9904C314.946 95.1647 317.164 95.0557 319.228 95.6821C321.292 96.3084 323.076 97.6312 324.274 99.4251C325.472 101.219 326.011 103.373 325.799 105.52C325.587 107.666 324.637 109.673 323.111 111.198C322.247 112.064 321.22 112.75 320.09 113.219C318.96 113.687 317.749 113.927 316.526 113.926ZM316.526 98.7895C315.181 98.7896 313.877 99.256 312.837 100.109C311.798 100.963 311.086 102.15 310.824 103.469C310.561 104.789 310.765 106.158 311.399 107.344C312.033 108.53 313.058 109.46 314.301 109.975C315.544 110.49 316.927 110.557 318.214 110.167C319.501 109.777 320.613 108.952 321.36 107.833C322.107 106.715 322.444 105.372 322.312 104.033C322.18 102.695 321.588 101.443 320.637 100.492C320.098 99.9508 319.458 99.5214 318.752 99.2291C318.046 98.9369 317.29 98.7874 316.526 98.7895Z" fill="#262424"/>
<path d="M268.81 227.034C272.993 227.034 276.383 223.644 276.383 219.461C276.383 215.279 272.993 211.888 268.81 211.888C264.628 211.888 261.237 215.279 261.237 219.461C261.237 223.644 264.628 227.034 268.81 227.034Z" fill="white"/>
<path d="M268.848 228.784C267.004 228.784 265.201 228.237 263.668 227.213C262.135 226.189 260.94 224.732 260.235 223.029C259.529 221.325 259.344 219.451 259.704 217.642C260.064 215.834 260.952 214.173 262.256 212.869C263.559 211.565 265.221 210.677 267.029 210.317C268.838 209.958 270.712 210.142 272.416 210.848C274.119 211.554 275.575 212.748 276.6 214.282C277.624 215.815 278.171 217.617 278.171 219.461C278.168 221.933 277.185 224.303 275.437 226.051C273.69 227.799 271.32 228.782 268.848 228.784ZM268.848 213.647C267.698 213.647 266.574 213.988 265.618 214.627C264.662 215.266 263.917 216.174 263.477 217.236C263.036 218.299 262.921 219.468 263.146 220.595C263.37 221.723 263.924 222.759 264.737 223.572C265.55 224.385 266.586 224.939 267.714 225.163C268.841 225.388 270.01 225.273 271.073 224.833C272.135 224.393 273.043 223.647 273.682 222.691C274.321 221.735 274.662 220.611 274.662 219.461C274.659 217.92 274.046 216.443 272.956 215.353C271.866 214.263 270.389 213.65 268.848 213.647V213.647Z" fill="#262424"/>
<path d="M321.641 339.764C324.598 336.807 324.598 332.012 321.641 329.054C318.683 326.097 313.888 326.097 310.931 329.054C307.973 332.012 307.973 336.807 310.931 339.764C313.888 342.722 318.683 342.722 321.641 339.764Z" fill="white"/>
<path d="M316.281 343.736C314.124 343.737 312.033 342.99 310.365 341.622C308.697 340.254 307.555 338.35 307.133 336.234C306.712 334.119 307.037 331.922 308.054 330.02C309.07 328.117 310.715 326.626 312.708 325.8C314.701 324.974 316.919 324.865 318.983 325.492C321.048 326.118 322.831 327.441 324.029 329.235C325.227 331.029 325.766 333.182 325.554 335.329C325.342 337.476 324.392 339.483 322.866 341.008C322.002 341.874 320.976 342.56 319.846 343.028C318.716 343.496 317.504 343.737 316.281 343.736V343.736ZM316.281 328.599C314.936 328.599 313.633 329.066 312.593 329.919C311.553 330.772 310.841 331.96 310.579 333.279C310.317 334.598 310.52 335.968 311.154 337.154C311.788 338.34 312.814 339.27 314.057 339.784C315.299 340.299 316.682 340.367 317.969 339.977C319.256 339.586 320.368 338.761 321.115 337.643C321.863 336.525 322.199 335.182 322.067 333.843C321.935 332.505 321.343 331.253 320.392 330.302C319.854 329.76 319.213 329.331 318.507 329.039C317.802 328.747 317.045 328.597 316.281 328.599V328.599Z" fill="#262424"/>
<path d="M431.139 389.702C435.321 389.702 438.712 386.311 438.712 382.129C438.712 377.946 435.321 374.555 431.139 374.555C426.956 374.555 423.566 377.946 423.566 382.129C423.566 386.311 426.956 389.702 431.139 389.702Z" fill="white"/>
<path d="M431.129 391.452C429.285 391.452 427.483 390.905 425.95 389.88C424.417 388.856 423.222 387.4 422.516 385.696C421.81 383.993 421.626 382.118 421.986 380.31C422.345 378.501 423.233 376.84 424.537 375.536C425.841 374.232 427.502 373.345 429.311 372.985C431.119 372.625 432.994 372.81 434.697 373.515C436.401 374.221 437.857 375.416 438.881 376.949C439.906 378.482 440.452 380.285 440.452 382.129C440.45 384.6 439.467 386.97 437.719 388.718C435.971 390.466 433.601 391.449 431.129 391.452ZM431.129 376.315C429.979 376.315 428.855 376.656 427.899 377.294C426.943 377.933 426.198 378.841 425.758 379.904C425.318 380.966 425.203 382.135 425.427 383.263C425.651 384.391 426.205 385.427 427.018 386.24C427.831 387.053 428.867 387.606 429.995 387.831C431.123 388.055 432.292 387.94 433.354 387.5C434.417 387.06 435.325 386.315 435.963 385.359C436.602 384.403 436.943 383.278 436.943 382.129C436.941 380.587 436.327 379.11 435.238 378.02C434.148 376.93 432.671 376.317 431.129 376.315V376.315Z" fill="#262424"/>
<path d="M551.447 340.011C554.404 337.053 554.404 332.258 551.447 329.301C548.489 326.343 543.694 326.343 540.737 329.301C537.779 332.258 537.779 337.053 540.737 340.011C543.694 342.968 548.489 342.968 551.447 340.011Z" fill="white"/>
<path d="M546.091 343.981C544.867 343.984 543.655 343.744 542.525 343.276C541.395 342.808 540.368 342.12 539.506 341.252V341.252C537.98 339.728 537.03 337.721 536.818 335.574C536.606 333.427 537.145 331.273 538.343 329.479C539.541 327.685 541.324 326.363 543.389 325.736C545.453 325.11 547.671 325.219 549.664 326.045C551.657 326.87 553.302 328.362 554.318 330.264C555.335 332.167 555.66 334.363 555.239 336.479C554.817 338.595 553.675 340.499 552.007 341.867C550.339 343.235 548.248 343.982 546.091 343.981V343.981ZM546.091 328.844C544.941 328.844 543.817 329.185 542.861 329.824C541.905 330.462 541.159 331.37 540.719 332.433C540.279 333.495 540.164 334.664 540.389 335.792C540.613 336.92 541.167 337.956 541.98 338.769V338.769C542.656 339.445 543.488 339.944 544.403 340.221C545.318 340.499 546.287 340.546 547.225 340.36C548.163 340.173 549.04 339.758 549.779 339.152C550.518 338.545 551.096 337.766 551.462 336.883C551.828 335.999 551.97 335.039 551.877 334.088C551.783 333.136 551.456 332.223 550.925 331.428C550.394 330.633 549.675 329.981 548.831 329.53C547.988 329.08 547.047 328.844 546.091 328.844V328.844Z" fill="#262424"/>
<path d="M593.806 227.382C597.989 227.382 601.379 223.992 601.379 219.809C601.379 215.627 597.989 212.236 593.806 212.236C589.624 212.236 586.233 215.627 586.233 219.809C586.233 223.992 589.624 227.382 593.806 227.382Z" fill="white"/>
<path d="M593.806 229.132C591.962 229.132 590.16 228.585 588.627 227.561C587.093 226.537 585.898 225.081 585.193 223.377C584.487 221.674 584.303 219.799 584.662 217.99C585.022 216.182 585.91 214.521 587.214 213.217C588.518 211.913 590.179 211.025 591.987 210.665C593.796 210.306 595.67 210.49 597.374 211.196C599.077 211.902 600.533 213.097 601.558 214.63C602.582 216.163 603.129 217.965 603.129 219.809C603.127 222.281 602.144 224.651 600.396 226.399C598.648 228.147 596.278 229.13 593.806 229.132V229.132ZM593.806 213.995C592.656 213.995 591.532 214.336 590.576 214.975C589.62 215.614 588.875 216.522 588.435 217.584C587.995 218.647 587.88 219.816 588.104 220.944C588.328 222.071 588.882 223.107 589.695 223.92C590.508 224.733 591.544 225.287 592.672 225.512C593.8 225.736 594.969 225.621 596.031 225.181C597.093 224.741 598.001 223.995 598.64 223.039C599.279 222.083 599.62 220.959 599.62 219.809C599.618 218.268 599.004 216.791 597.914 215.701C596.825 214.611 595.347 213.998 593.806 213.995V213.995Z" fill="#262424"/>
<path d="M551.684 110.205C554.641 107.247 554.641 102.452 551.684 99.4947C548.726 96.5372 543.931 96.5372 540.974 99.4947C538.016 102.452 538.016 107.247 540.974 110.205C543.931 113.162 548.726 113.162 551.684 110.205Z" fill="white"/>
<path d="M546.373 114.18C544.216 114.181 542.125 113.434 540.457 112.066C538.789 110.699 537.647 108.794 537.225 106.679C536.804 104.563 537.129 102.367 538.146 100.464C539.162 98.5613 540.807 97.07 542.8 96.2444C544.793 95.4187 547.011 95.3097 549.075 95.936C551.139 96.5624 552.923 97.8852 554.121 99.6791C555.319 101.473 555.858 103.627 555.646 105.774C555.434 107.92 554.484 109.927 552.958 111.452V111.452C552.095 112.32 551.069 113.007 549.939 113.476C548.808 113.944 547.596 114.183 546.373 114.18ZM546.373 99.0435C545.417 99.0436 544.475 99.2794 543.632 99.7301C542.789 100.181 542.07 100.832 541.539 101.627C541.008 102.422 540.681 103.336 540.587 104.288C540.493 105.239 540.636 106.199 541.002 107.082C541.368 107.966 541.946 108.745 542.685 109.352C543.424 109.958 544.301 110.373 545.239 110.56C546.177 110.746 547.146 110.699 548.061 110.421C548.976 110.143 549.808 109.645 550.484 108.969V108.969C551.3 108.156 551.857 107.119 552.083 105.99C552.309 104.86 552.195 103.689 551.755 102.625C551.314 101.561 550.568 100.651 549.609 100.012C548.651 99.3725 547.525 99.0322 546.373 99.0341V99.0435Z" fill="#262424"/>
</svg>
