<svg width="619" height="694" viewBox="0 0 619 694" fill="none" xmlns="http://www.w3.org/2000/svg">
<path d="M258.792 390.294C258.792 389.252 259.637 388.407 260.679 388.407H281.906C282.948 388.407 283.793 389.252 283.793 390.294V411.521C283.793 412.563 282.948 413.408 281.906 413.408H260.679C259.637 413.408 258.792 412.563 258.792 411.521V390.294Z" fill="url(#paint0_linear)"/>
<path d="M270.417 408.22C270.106 408.22 269.813 408.075 269.623 407.827L263.498 399.827C263.162 399.389 263.246 398.762 263.684 398.426C264.121 398.091 264.75 398.172 265.086 398.613L270.333 405.466L277.443 394.067C277.736 393.598 278.353 393.457 278.821 393.748C279.29 394.04 279.432 394.657 279.14 395.126L271.265 407.751C271.091 408.029 270.792 408.205 270.464 408.221C270.449 408.22 270.433 408.22 270.417 408.22Z" fill="#FDE1A7"/>
<path d="M258.792 427.153C258.792 426.111 259.637 425.266 260.679 425.266H281.906C282.948 425.266 283.793 426.111 283.793 427.153V448.38C283.793 449.422 282.948 450.267 281.906 450.267H260.679C259.637 450.267 258.792 449.422 258.792 448.38V427.153Z" fill="url(#paint1_linear)"/>
<path d="M270.417 445.079C270.106 445.079 269.813 444.934 269.623 444.686L263.498 436.686C263.162 436.248 263.246 435.621 263.684 435.285C264.121 434.95 264.75 435.031 265.086 435.472L270.333 442.325L277.443 430.926C277.736 430.458 278.353 430.315 278.821 430.607C279.29 430.899 279.432 431.516 279.14 431.985L271.265 444.61C271.091 444.888 270.792 445.064 270.464 445.08C270.449 445.079 270.433 445.079 270.417 445.079Z" fill="#FDE1A7"/>
<path d="M258.792 464.013C258.792 462.971 259.637 462.126 260.679 462.126H281.906C282.948 462.126 283.793 462.971 283.793 464.013V485.24C283.793 486.282 282.948 487.127 281.906 487.127H260.679C259.637 487.127 258.792 486.282 258.792 485.24V464.013Z" fill="url(#paint2_linear)"/>
<path d="M270.417 481.938C270.106 481.938 269.813 481.793 269.623 481.545L263.498 473.545C263.162 473.107 263.246 472.48 263.684 472.144C264.121 471.809 264.75 471.89 265.086 472.331L270.333 479.184L277.443 467.785C277.736 467.316 278.353 467.174 278.821 467.466C279.29 467.758 279.432 468.375 279.14 468.844L271.265 481.469C271.091 481.747 270.792 481.923 270.464 481.939C270.449 481.938 270.433 481.938 270.417 481.938Z" fill="#FDE1A7"/>
<path d="M360.063 249.876H218.813V375.751H360.063V249.876Z" fill="url(#paint3_linear)"/>
<path d="M286.105 260.584H233.188V265.584H286.105V260.584Z" fill="url(#paint4_linear)"/>
<path d="M345.688 267.001C345.688 265.897 344.793 265.001 343.688 265.001H331.688C330.584 265.001 329.688 265.897 329.688 267.001V362.001H345.688V267.001Z" fill="url(#paint5_linear)"/>
<path d="M345.688 303.168V267.001C345.688 265.897 344.793 265.001 343.688 265.001H331.688C330.584 265.001 329.688 265.897 329.688 267.001V303.168H345.688Z" fill="url(#paint6_linear)"/>
<path d="M297.438 288.251C297.438 287.147 296.542 286.251 295.438 286.251H283.438C282.334 286.251 281.438 287.147 281.438 288.251V362.001H297.438V288.251Z" fill="url(#paint7_linear)"/>
<path d="M297.438 330.834V288.251C297.438 287.147 296.542 286.251 295.438 286.251H283.438C282.334 286.251 281.438 287.147 281.438 288.251V330.834H297.438V330.834Z" fill="url(#paint8_linear)"/>
<path d="M321.563 302.251C321.563 301.147 320.667 300.251 319.563 300.251H307.563C306.459 300.251 305.563 301.147 305.563 302.251V362.001H321.563V302.251Z" fill="url(#paint9_linear)"/>
<path d="M321.563 330.834V302.251C321.563 301.147 320.667 300.251 319.563 300.251H307.563C306.459 300.251 305.563 301.147 305.563 302.251V330.834H321.563V330.834Z" fill="url(#paint10_linear)"/>
<path d="M273.313 274.751C273.313 273.647 272.417 272.751 271.313 272.751H259.313C258.209 272.751 257.313 273.647 257.313 274.751V362.001H273.313V274.751Z" fill="url(#paint11_linear)"/>
<path d="M273.313 305.668V274.751C273.313 273.647 272.417 272.751 271.313 272.751H259.313C258.209 272.751 257.313 273.647 257.313 274.751V305.668H273.313Z" fill="url(#paint12_linear)"/>
<path d="M249.188 318.751C249.188 317.647 248.292 316.751 247.188 316.751H235.188C234.084 316.751 233.188 317.647 233.188 318.751V362.001H249.188V318.751Z" fill="url(#paint13_linear)"/>
<path d="M249.188 344.001V318.751C249.188 317.647 248.292 316.751 247.188 316.751H235.188C234.084 316.751 233.188 317.647 233.188 318.751V344.001H249.188Z" fill="url(#paint14_linear)"/>
<path d="M345.688 363.001H233.438C232.886 363.001 232.438 362.554 232.438 362.001C232.438 361.448 232.886 361.001 233.438 361.001H345.688C346.241 361.001 346.688 361.448 346.688 362.001C346.688 362.554 346.24 363.001 345.688 363.001Z" fill="#1AA9E8"/>
<path d="M171.25 61.001H29.5V145.251H171.25V61.001Z" fill="url(#paint15_linear)"/>
<path d="M48.8101 132.751H90.1671V80.168L48.8101 132.751Z" fill="#00E2EC"/>
<path d="M128.5 120.001V132.751H154V89.668L128.5 120.001Z" fill="#00E2EC"/>
<path d="M90.167 80.168V132.751H128.5V120.001L90.167 80.168Z" fill="#0090B2"/>
<path d="M166.334 106.126L154 89.668V132.751H166.334V106.126Z" fill="#0090B2"/>
<path d="M161 72.001H106.75V77.001H161V72.001Z" fill="url(#paint16_linear)"/>
<path d="M75.3862 119.344C75.0522 119.344 74.7252 119.177 74.5362 118.872L50.8762 80.825C50.5842 80.356 50.7282 79.739 51.1972 79.448C51.6662 79.156 52.2822 79.3 52.5742 79.769L76.2342 117.816C76.5262 118.285 76.3822 118.902 75.9132 119.193C75.7492 119.295 75.5662 119.344 75.3862 119.344Z" fill="#1AA9E8"/>
<path d="M51.7251 85.672C54.6936 85.672 57.1001 83.2655 57.1001 80.297C57.1001 77.3285 54.6936 74.922 51.7251 74.922C48.7566 74.922 46.3501 77.3285 46.3501 80.297C46.3501 83.2655 48.7566 85.672 51.7251 85.672Z" fill="#F95FC3"/>
<path d="M75.385 121.771C77.2777 121.771 78.812 120.237 78.812 118.344C78.812 116.451 77.2777 114.917 75.385 114.917C73.4923 114.917 71.958 116.451 71.958 118.344C71.958 120.237 73.4923 121.771 75.385 121.771Z" fill="white"/>
<path d="M189.03 163.86C184.475 152.491 183.029 139.725 185.571 126.813C189.308 107.838 200.873 92.398 216.248 83.178L201.861 54.905C178.13 68.423 160.192 91.795 154.501 120.694C150.581 140.599 153.034 160.279 160.439 177.63L189.03 163.86Z" fill="white"/>
<path d="M224.264 79.087C235.973 74.086 249.254 72.426 262.689 75.071C282.179 78.909 297.928 91.014 307.049 107.017L335.644 93.245C322.304 68.581 298.466 49.842 268.807 44.001C248.136 39.93 227.706 42.73 209.877 50.815L224.264 79.087Z" fill="white"/>
<path d="M339.553 101.352L310.963 115.122C315.525 126.497 316.974 139.27 314.43 152.19C307.422 187.773 272.895 210.939 237.312 203.931C217.813 200.091 202.06 187.978 192.94 171.966L164.346 185.738C177.683 210.41 201.526 229.158 231.193 235.001C283.936 245.388 335.113 211.051 345.5 158.309C349.422 138.395 346.965 118.707 339.553 101.352Z" fill="white"/>
<path d="M194.885 175.182C188.219 164.907 184.333 152.661 184.333 139.501C184.333 120.162 192.696 102.778 206 90.761L186.421 65.801C165.749 83.65 152.665 110.047 152.665 139.501C152.665 159.789 158.875 178.624 169.493 194.217L194.885 175.182Z" fill="url(#paint17_linear)"/>
<path d="M213.076 85.198C223.598 78.029 236.308 73.834 250.001 73.834C269.866 73.834 287.657 82.667 299.698 96.606L325.092 77.568C307.239 55.947 280.229 42.167 250.001 42.167C228.933 42.167 209.429 48.862 193.499 60.239L213.076 85.198Z" fill="url(#paint18_linear)"/>
<path d="M330.494 84.767L305.103 103.802C311.776 114.081 315.667 126.333 315.667 139.501C315.667 175.768 286.267 205.168 250 205.168C230.127 205.168 212.33 196.328 200.288 182.379L174.894 201.416C192.747 223.047 219.763 236.834 249.999 236.834C303.755 236.834 347.332 193.256 347.332 139.5C347.334 119.206 341.119 100.363 330.494 84.767Z" fill="url(#paint19_linear)"/>
<path d="M211.931 153.813C217.723 169.21 232.579 180.168 250 180.168C262.502 180.168 273.682 174.522 281.142 165.645L250 139.501L211.931 153.813Z" fill="url(#paint20_linear)"/>
<path d="M264.424 101.476L250 139.501L281.142 165.645C287.083 158.575 290.667 149.458 290.667 139.501C290.667 122.122 279.761 107.297 264.424 101.476Z" fill="url(#paint21_linear)"/>
<path d="M264.424 101.476C259.94 99.774 255.081 98.834 250.001 98.834C227.542 98.834 209.334 117.041 209.334 139.501C209.334 144.539 210.256 149.36 211.931 153.813L250 139.501L264.424 101.476Z" fill="url(#paint22_linear)"/>
<path d="M586.195 17.876H368.111V154.501H586.195V17.876Z" fill="url(#paint23_linear)"/>
<path d="M390.193 45.638C393.161 45.638 395.568 43.2315 395.568 40.263C395.568 37.2945 393.161 34.888 390.193 34.888C387.224 34.888 384.818 37.2945 384.818 40.263C384.818 43.2315 387.224 45.638 390.193 45.638Z" fill="#FDE1A7"/>
<path d="M419.033 45.638C422.001 45.638 424.408 43.2315 424.408 40.263C424.408 37.2945 422.001 34.888 419.033 34.888C416.064 34.888 413.658 37.2945 413.658 40.263C413.658 43.2315 416.064 45.638 419.033 45.638Z" fill="#00E2EC"/>
<path d="M447.873 45.638C450.842 45.638 453.248 43.2315 453.248 40.263C453.248 37.2945 450.842 34.888 447.873 34.888C444.905 34.888 442.498 37.2945 442.498 40.263C442.498 43.2315 444.905 45.638 447.873 45.638Z" fill="#C7A0F6"/>
<path d="M453.25 54.667H384.818V59.667H453.25V54.667Z" fill="url(#paint24_linear)"/>
<path d="M569.486 51.604C566.173 45.082 561.205 39.104 554.152 39.334C538.82 39.834 528.818 79.834 518.152 80.334C507.486 80.834 511.152 40.001 497.486 40.334C480.32 40.753 479.652 119.834 458.152 121.667C436.652 123.5 431.818 79.167 422.152 79.834C412.486 80.501 408.33 114.595 406.652 122.001C404.974 129.407 396.486 130.834 396.486 130.834H569.486V51.604Z" fill="url(#paint25_linear)"/>
<path d="M569.486 51.167C545.818 52.167 540.818 115.834 516.486 114.334C496.3 113.09 499.652 78.834 481.986 77.834C464.318 76.834 455.986 118.334 434.652 119.667C424.279 120.315 415.986 113.834 406.486 114.667C396.986 115.5 387.152 128.167 384.818 130.834H569.486V51.167Z" fill="url(#paint26_linear)"/>
<path d="M337.662 0.417999H249.329V28.418H337.662V0.417999Z" fill="url(#paint27_linear)"/>
<path d="M329.561 19.293C326.065 19.293 324.309 17.029 322.759 15.031C321.307 13.159 320.053 11.543 317.538 11.543C315.022 11.543 313.768 13.159 312.316 15.031C310.766 17.029 309.01 19.293 305.514 19.293C302.018 19.293 300.262 17.029 298.713 15.031C297.261 13.159 296.007 11.543 293.492 11.543C290.977 11.543 289.722 13.159 288.271 15.031C286.722 17.029 284.965 19.293 281.47 19.293C277.976 19.293 276.22 17.029 274.671 15.031C273.22 13.159 271.966 11.543 269.452 11.543C266.937 11.543 265.683 13.159 264.232 15.031C262.683 17.029 260.927 19.293 257.431 19.293C256.879 19.293 256.431 18.845 256.431 18.293C256.431 17.741 256.879 17.293 257.431 17.293C259.947 17.293 261.2 15.677 262.652 13.805C264.201 11.807 265.957 9.543 269.452 9.543C272.947 9.543 274.702 11.808 276.252 13.805C277.703 15.677 278.956 17.293 281.47 17.293C283.986 17.293 285.239 15.677 286.691 13.805C288.24 11.807 289.997 9.543 293.492 9.543C296.987 9.543 298.744 11.807 300.293 13.805C301.745 15.677 302.999 17.293 305.514 17.293C308.03 17.293 309.284 15.677 310.736 13.805C312.286 11.807 314.042 9.543 317.538 9.543C321.034 9.543 322.789 11.807 324.339 13.805C325.791 15.677 327.045 17.293 329.561 17.293C330.114 17.293 330.561 17.741 330.561 18.293C330.561 18.845 330.113 19.293 329.561 19.293Z" fill="#05C5DA"/>
<path d="M261.743 59.316C261.481 59.316 261.22 59.213 261.023 59.01C260.64 58.612 260.651 57.979 261.048 57.596L292.055 27.698C292.452 27.315 293.085 27.325 293.469 27.723C293.852 28.121 293.841 28.754 293.444 29.137L262.437 59.035C262.243 59.223 261.993 59.316 261.743 59.316Z" fill="#1AA9E8"/>
<path d="M261.743 62.274C263.929 62.274 265.701 60.5019 265.701 58.316C265.701 56.1301 263.929 54.358 261.743 54.358C259.557 54.358 257.785 56.1301 257.785 58.316C257.785 60.5019 259.557 62.274 261.743 62.274Z" fill="#FDE1A7"/>
<path d="M422.488 313.988C423.275 315.331 425 315.782 426.343 314.997L472.255 294.268C473.599 293.483 474.05 291.758 473.265 290.414L452.406 255.693C451.621 254.35 449.896 253.899 448.552 254.684L397.476 268.84C396.132 269.625 395.679 271.35 396.464 272.694L422.488 313.988Z" fill="url(#paint28_linear)"/>
<path d="M475.764 290.992L453.549 254.013C452.711 252.582 450.873 252.102 449.444 252.938L395.044 268.015C393.614 268.851 393.132 270.689 393.968 272.119L421.685 316.098C422.523 317.528 424.361 318.009 425.79 317.173L474.69 295.096C476.119 294.26 476.602 292.422 475.764 290.992ZM425.49 309.847L402 271.876L449.75 257.501L470.125 290.876L425.49 309.847Z" fill="url(#paint29_linear)"/>
<path d="M457.938 279.376L421.66 293.692L418.721 289.479L455.545 275.697L457.938 279.376Z" fill="#FDE1A7"/>
<path d="M433.166 279.845C435.393 279.845 437.198 278.04 437.198 275.813C437.198 273.586 435.393 271.781 433.166 271.781C430.939 271.781 429.134 273.586 429.134 275.813C429.134 278.04 430.939 279.845 433.166 279.845Z" fill="#F95FC3"/>
<path d="M419.43 285.125C421.657 285.125 423.462 283.32 423.462 281.093C423.462 278.866 421.657 277.061 419.43 277.061C417.203 277.061 415.398 278.866 415.398 281.093C415.398 283.32 417.203 285.125 419.43 285.125Z" fill="#FE687E"/>
<path d="M446.062 274.732C448.066 274.732 449.69 273.108 449.69 271.104C449.69 269.1 448.066 267.476 446.062 267.476C444.058 267.476 442.434 269.1 442.434 271.104C442.434 273.108 444.058 274.732 446.062 274.732Z" fill="#00E2EC"/>
<path d="M506.834 551.667C505.66 531.695 510.15 507.204 509.984 499.538L477.334 497.667C477.334 497.667 476.705 521.029 477 541.251C477.334 564.085 482.084 629.585 480.668 639.834C479.785 646.222 474.568 650.344 469.738 653.387C472.058 654.575 476.168 655.393 482.045 652.485C488.693 649.195 496.182 645.518 501.463 645.335C501.25 641.886 501.035 638.658 501 636.502C500.834 626.084 508.25 575.751 506.834 551.667Z" fill="url(#paint30_linear)"/>
<path d="M482.045 652.484C476.168 655.392 472.059 654.575 469.738 653.386C468.48 654.178 467.248 654.901 466.127 655.567C461.854 658.105 455.01 659.102 455.752 661.751C456.334 663.834 472.477 664.781 481.127 662.317C485.211 661.154 492.209 657.4 492.209 657.4L492.48 662.504C492.48 662.504 500.24 663.082 501.074 662.165C502.34 660.771 501.906 652.562 501.463 645.333C496.182 645.518 488.693 649.194 482.045 652.484Z" fill="url(#paint31_linear)"/>
<path d="M545.752 653.168C552.695 649.731 560.555 645.876 565.857 646.018C565.64 642.573 565.386 639.338 565.25 637.168C564.834 630.502 564.668 619.002 565.502 594.835C566.336 570.668 562.002 553.669 560.502 539.335C559.002 525.001 559.002 509.835 558.834 502.169L527.75 506.001C527.75 506.001 530.141 528.888 532.25 549.001C534.244 568.002 546.334 628.918 544.918 639.167C544.047 645.467 537.809 650.626 533.178 653.933C535.443 655.192 539.648 656.188 545.752 653.168Z" fill="url(#paint32_linear)"/>
<path d="M520 663.501C520 664.918 536.184 665.465 544.834 663.001C548.918 661.838 555.916 658.084 555.916 658.084L556.187 663.188C556.187 663.188 564.5 663.501 565.333 662.584C566.593 661.196 566.306 653.153 565.856 646.018C560.553 645.876 552.694 649.732 545.751 653.168C539.647 656.189 535.442 655.192 533.177 653.933C531.89 654.852 530.72 655.635 529.833 656.251C525.75 659.084 520 660.751 520 663.501Z" fill="url(#paint33_linear)"/>
<path d="M549 382.668C552.5 388.001 562.002 405.002 565.5 422.751C568.729 439.124 568.5 448.501 570.25 461.251C572 474.001 581 502.001 580.5 503.751C580 505.501 576 508.126 568.168 508.335C562.314 508.491 558.002 508.002 547.502 511.502C537.002 515.002 525.168 517.002 510.834 515.502C496.502 514.002 485.168 508.002 478.002 507.835C470.834 507.668 461.334 507.668 460.334 505.668C459.334 503.668 465.842 488.2 467.25 478.501C468.842 467.552 472.334 446.667 480 426.001C487.186 406.631 497.334 384.334 497.334 384.334C497.334 384.334 512.25 384.251 523 384.001C533.75 383.751 549 382.668 549 382.668Z" fill="url(#paint34_linear)"/>
<path d="M520.416 509.516C517.244 509.516 514.024 509.342 510.729 508.996C502.82 508.169 495.691 505.95 489.963 504.167C485.206 502.687 481.098 501.407 477.978 501.335L476.002 501.292C470.439 501.178 464.135 501.049 461.277 500C460.758 499.811 460.493 499.235 460.683 498.717C460.872 498.199 461.445 497.931 461.966 498.123C464.509 499.056 470.904 499.187 476.042 499.293L478.023 499.335C481.423 499.414 485.656 500.731 490.556 502.257C496.494 504.106 503.223 506.2 510.936 507.008C523.594 508.332 535.116 507.075 547.183 503.054C556.382 499.988 560.955 499.933 565.797 499.875C566.562 499.866 567.335 499.856 568.139 499.835C575.154 499.647 578.077 497.559 578.805 496.922C579.22 496.56 579.851 496.601 580.216 497.019C580.578 497.435 580.535 498.067 580.119 498.43C579.022 499.387 575.664 501.635 568.191 501.835C567.378 501.856 566.594 501.865 565.82 501.875C561.138 501.931 556.717 501.983 547.815 504.95C538.61 508.02 529.716 509.516 520.416 509.516Z" fill="#CFAEFF"/>
<path d="M523.607 502.853C519.626 502.853 515.451 502.623 511.063 502.163C502.773 501.296 495.397 499.02 488.889 497.014C484.185 495.563 480.122 494.31 476.903 493.998C474.244 493.742 471.828 493.955 469.698 494.144C467.176 494.369 464.994 494.563 463.177 493.895C462.658 493.705 462.393 493.13 462.583 492.612C462.773 492.094 463.345 491.827 463.866 492.018C465.262 492.532 467.238 492.356 469.521 492.152C471.737 491.955 474.249 491.732 477.096 492.007C480.517 492.337 484.67 493.618 489.478 495.102C495.899 497.082 503.176 499.327 511.272 500.174C525.439 501.653 537.315 500.713 547.576 497.295C556.69 494.258 559.234 494.338 563.069 494.454C563.718 494.474 564.407 494.495 565.176 494.502C572.472 494.57 575.505 492.651 577.16 491.206C577.575 490.843 578.206 490.886 578.571 491.303C578.933 491.719 578.89 492.351 578.474 492.714C576.602 494.348 573.229 496.504 565.524 496.504C565.403 496.504 565.282 496.503 565.158 496.502C564.373 496.495 563.67 496.474 563.007 496.453C559.25 496.337 556.983 496.266 548.208 499.191C540.87 501.639 532.747 502.852 523.607 502.853Z" fill="#CFAEFF"/>
<path d="M455.084 276.376C453.564 276.882 451 278.251 451.5 280.751C452 283.251 456.504 287.641 458.004 288.307C459.504 288.973 458.502 285.001 457.168 283.251C455.834 281.501 459.555 285.483 460.75 285.084C461.625 284.792 461.918 283.126 460.959 280.501C460.105 278.166 463.918 276.001 462.25 275.668C460.584 275.334 457.084 275.709 455.084 276.376Z" fill="url(#paint35_linear)"/>
<path d="M478.533 305.302C478.965 304.736 491.123 296.308 492.025 295.978C493.293 295.515 513 321.25 515.75 324.125C518.5 327 512.115 341.346 506.865 342.346C501.615 343.346 477.396 306.793 478.533 305.302Z" fill="url(#paint36_linear)"/>
<path d="M443.75 275.251C445.518 273.483 454.334 274.501 455.5 274.834C456.668 275.167 459.584 272.751 461.334 272.667C463.084 272.583 468.438 273.563 471.584 275.334C475.07 277.297 492.5 296.501 492.5 296.501C492.5 296.501 492.252 301.501 487.875 304.501C483.488 307.508 480.674 306.133 480.674 306.133C480.674 306.133 474.5 294.876 472.375 293.501C470.25 292.126 465 294.439 460.678 293.379C456.602 292.38 450.938 287.126 452.502 285.751C454.162 284.291 458.131 287.66 459.918 288.251C462.563 289.126 467.522 288.076 467.625 286.063C467.75 283.625 459.85 281.364 453.875 279.563C449.65 278.29 442.313 276.688 443.75 275.251Z" fill="url(#paint37_linear)"/>
<path d="M482.192 307.44C479.517 307.44 477.979 306.146 477.878 306.057C477.461 305.695 477.416 305.063 477.778 304.646C478.14 304.229 478.774 304.186 479.188 304.547C479.303 304.642 482.215 306.981 487.331 303.662C491.269 301.106 491.499 296.51 491.501 296.464C491.523 295.913 491.988 295.477 492.537 295.504C493.088 295.524 493.518 295.985 493.499 296.536C493.491 296.766 493.252 302.205 488.419 305.341C485.954 306.939 483.854 307.44 482.192 307.44Z" fill="#1AA9E8"/>
<path d="M542.334 282.501C545 288.001 555 307.167 554.334 322.001C553.668 336.835 549.666 352.168 549.166 363.668C548.666 375.168 549 382.668 549 382.668C549 382.668 538.002 389.501 521.334 389.001C505.174 388.517 497.334 384.334 497.334 384.334C497.334 384.334 496.855 366.693 494.834 354.668C493.25 345.251 489.375 339.751 489.334 329.168C489.279 315.625 510.125 298.126 516.334 288.668C521.438 280.893 542.334 282.501 542.334 282.501Z" fill="url(#paint38_linear)"/>
<path d="M523.102 390.027C522.51 390.027 521.912 390.018 521.304 390.001C505.096 389.515 497.192 385.392 496.864 385.216C496.378 384.957 496.193 384.353 496.452 383.865C496.711 383.377 497.317 383.192 497.805 383.451C497.881 383.492 505.681 387.531 521.366 388.001C537.51 388.498 548.367 381.885 548.474 381.818C548.943 381.527 549.56 381.672 549.851 382.141C550.142 382.61 549.997 383.226 549.529 383.517C549.085 383.793 538.86 390.027 523.102 390.027Z" fill="#1AA9E8"/>
<path d="M558.25 227.626C560.75 227.751 568.404 225.768 574.125 224.501C585.418 222.001 596.516 222.15 599.375 230.001C601.834 236.751 597.744 242.356 598.418 247.084C599.334 253.501 618.502 258.917 618.875 271.751C619.234 284.055 609.125 288.501 606.375 293.876C603.625 299.251 598.15 315.563 579.125 314.251C568.252 313.501 565.252 307.084 565.25 302.626C565.25 296.902 570.75 292.501 568.125 288.376C565.5 284.251 557.086 286.983 555.25 282.126C553.252 276.834 557.75 272.501 561.125 269.876C564.5 267.251 569.5 264.501 568.375 260.626C567.25 256.751 560.375 255.775 560.625 251.876C560.918 247.334 569.258 243.963 567.875 239.376C566.834 235.918 560.875 236.626 555.75 235.626C550.625 234.626 558.25 227.626 558.25 227.626Z" fill="url(#paint39_linear)"/>
<path d="M539.834 259.834C539.188 265.626 542.334 282.501 542.334 282.501C542.334 282.501 534.5 290.626 523 291.168C517.357 291.434 516.334 288.668 516.334 288.668L518.668 265.501C518.668 265.501 522.182 258.908 529.334 256.168C536.484 253.427 539.168 256.001 539.168 256.001L539.834 259.834Z" fill="url(#paint40_linear)"/>
<path d="M536.668 217.834C526.5 213.501 518.926 213.689 518.926 213.689C511 218 489.928 257.413 503.168 267C511.34 272.918 525.359 266.881 534.676 258.836C535.246 259.015 535.854 259.113 536.485 259.113C539.731 259.113 542.36 256.567 542.36 253.425C542.36 252.528 542.139 251.683 541.758 250.928C542.617 249.575 543.278 248.25 543.668 246.999C545.963 239.629 546.834 222.168 536.668 217.834Z" fill="url(#paint41_linear)"/>
<path d="M520.875 241.689C520.726 241.689 520.573 241.667 520.423 241.619C519.634 241.37 519.195 240.527 519.444 239.737C519.906 238.276 521.586 235.556 522.653 234.539C523.252 233.97 524.203 233.992 524.774 234.592C525.345 235.192 525.321 236.141 524.721 236.713C524.03 237.37 522.607 239.683 522.305 240.64C522.104 241.28 521.513 241.689 520.875 241.689Z" fill="#0090B2"/>
<path d="M506.689 233.772C506.565 233.772 506.438 233.753 506.313 233.713C505.654 233.505 505.29 232.803 505.497 232.145C505.942 230.735 507.295 228.551 508.334 227.562C508.832 227.087 509.625 227.105 510.101 227.606C510.578 228.106 510.557 228.898 510.057 229.374C509.333 230.062 508.195 231.907 507.882 232.898C507.713 233.431 507.221 233.772 506.689 233.772Z" fill="#0090B2"/>
<path d="M520.958 247.6C519.918 247.6 518.942 247.361 518.061 246.889C516.216 245.903 515.006 244.028 514.654 241.609C514.313 239.274 514.818 236.695 516.074 234.346C518.031 230.685 521.421 228.32 524.711 228.32C525.751 228.32 526.727 228.559 527.608 229.031C531.336 231.024 532.228 236.651 529.597 241.575C527.64 245.234 524.249 247.6 520.958 247.6ZM524.71 229.819C522.009 229.819 519.069 231.923 517.396 235.052C516.291 237.12 515.843 239.371 516.138 241.391C516.42 243.327 517.354 244.808 518.768 245.564C519.43 245.918 520.167 246.098 520.958 246.098C523.661 246.098 526.601 243.995 528.274 240.866C530.514 236.671 529.898 231.955 526.9 230.352C526.238 229.999 525.501 229.819 524.71 229.819Z" fill="#9F36AD"/>
<path d="M504.188 238.163C503.446 238.163 502.753 237.995 502.131 237.663C499.135 236.06 498.687 231.249 501.112 226.711C502.947 223.278 506.008 220.973 508.728 220.973C509.471 220.973 510.163 221.141 510.785 221.474C512.272 222.268 513.176 223.886 513.329 226.029C513.474 228.045 512.932 230.317 511.804 232.425C509.971 235.857 506.909 238.163 504.188 238.163ZM508.729 222.472C506.581 222.472 503.993 224.506 502.435 227.417C500.474 231.087 500.659 235.173 502.838 236.339C503.24 236.553 503.694 236.662 504.188 236.662C506.338 236.662 508.926 234.629 510.482 231.717C511.478 229.855 511.958 227.872 511.834 226.134C511.719 224.523 511.096 223.337 510.079 222.795C509.676 222.581 509.222 222.472 508.729 222.472Z" fill="#9F36AD"/>
<path d="M513.252 230.667C509.313 233.938 498.381 239.335 498.084 241.25C497.688 243.813 503.545 245.241 504.879 245.241C506.213 245.241 507.188 241.625 510.752 236.666C512.76 233.873 515.346 228.928 513.252 230.667Z" fill="url(#paint42_linear)"/>
<path d="M517.232 234.598C516.934 234.598 516.653 234.42 516.536 234.127C515.507 231.555 514.189 230.787 511.978 231.474C511.581 231.599 511.162 231.376 511.04 230.981C510.917 230.585 511.138 230.165 511.533 230.042C514.517 229.114 516.607 230.269 517.929 233.57C518.083 233.955 517.896 234.391 517.511 234.545C517.42 234.581 517.325 234.598 517.232 234.598Z" fill="#9F36AD"/>
<path d="M499.904 250.894C500.045 251.482 500.408 252.088 500.826 252.588C501.252 253.091 501.769 253.502 502.342 253.757C503.487 254.291 504.819 254.088 506.004 253.505C506.377 253.321 506.826 253.473 507.01 253.845C507.194 254.217 507.041 254.667 506.67 254.85C506.654 254.857 506.637 254.866 506.621 254.872C505.881 255.175 505.08 255.407 504.238 255.429C503.4 255.465 502.535 255.282 501.789 254.891C501.041 254.505 500.418 253.94 499.932 253.299C499.455 252.648 499.065 251.947 498.903 251.096C498.85 250.819 499.032 250.551 499.309 250.497C499.579 250.445 499.84 250.616 499.903 250.88L499.904 250.894Z" fill="#954374"/>
<path d="M522.264 292.185C516.637 292.185 515.447 289.149 515.397 289.015C515.205 288.497 515.469 287.922 515.988 287.73C516.506 287.541 517.081 287.803 517.272 288.321C517.3 288.383 518.228 290.391 522.954 290.169C533.93 289.652 541.539 281.886 541.615 281.807C541.999 281.41 542.631 281.397 543.029 281.782C543.426 282.165 543.438 282.798 543.054 283.196C542.723 283.539 534.809 291.613 523.047 292.167C522.777 292.179 522.516 292.185 522.264 292.185Z" fill="#1AA9E8"/>
<path d="M534.887 247.956C533.826 248.216 532.307 247.75 532.418 245.584C532.625 241.501 539.633 235.24 539.461 229.459C539.25 222.438 526.063 220.875 517 217.334C507.242 213.521 507.375 202.249 509.812 198.563C512.5 194.5 517.25 195.834 519.25 197.834C521.25 199.834 522.166 202.055 523.918 202.001C525.938 201.938 525.188 198.001 528.25 198.001C531.352 198.001 534.037 203.722 536.168 206.084C539.813 210.126 558.943 216.433 559.916 230.167C561.252 249 542.502 263.667 540.418 263.667C536.869 263.668 537.057 259.561 538.572 258.739C540.09 257.917 542.947 256.182 542.224 252.216C541.5 248.251 537.25 247.376 534.887 247.956Z" fill="url(#paint43_linear)"/>
<path d="M538.604 248.126C540.276 248.752 541.579 250.094 542.106 251.768C542.231 251.59 542.29 251.365 542.225 251.138C541.024 246.839 534.76 243.02 531.397 240.969C530.686 240.536 530.073 240.162 529.711 239.906C529.373 239.667 528.904 239.748 528.666 240.086C528.426 240.424 528.506 240.892 528.846 241.131C529.248 241.416 529.852 241.783 530.616 242.249C532.807 243.586 536.297 245.714 538.604 248.126Z" fill="#9F36AD"/>
<path d="M420.621 295.662C422.644 295.267 424.937 301.876 425.937 305.626C426.937 309.376 427.662 315.724 431.333 319.918C434.687 323.751 445.417 327.251 445.417 327.251C445.417 327.251 446.583 333.501 443.749 337.001C440.917 340.501 436.735 340.324 436.735 340.324C436.735 340.324 424.417 328.084 419.249 324.501C414.083 320.918 410.917 316.084 410.124 312.626C409.276 308.926 408.667 307.084 409.083 303.001C409.308 300.785 410.179 297.842 410.179 297.842C410.179 297.842 417.851 310.016 419.833 313.168C421.917 312.751 420.917 307.001 420.667 304.668C420.417 302.335 418.563 296.063 420.621 295.662Z" fill="url(#paint44_linear)"/>
<path d="M529.002 298.767C537.75 297.251 542.887 301.191 545.625 307.126C548.625 313.626 548 321.668 543.334 326.334C538.668 331 508.619 366.709 492.791 366.256C475.125 365.75 436.062 343.452 435.668 341.167C435.272 338.882 442.563 326.237 443.586 326.605C444.607 326.973 484.998 342.232 491 340.616C497 339.001 522.922 299.821 529.002 298.767Z" fill="url(#paint45_linear)"/>
<path d="M435.657 342.147C435.181 342.147 434.766 341.821 434.682 341.338C434.222 338.685 440.694 327.575 442.556 326.011C443.021 325.62 443.479 325.504 443.924 325.664C444.444 325.851 444.713 326.424 444.527 326.943C444.404 327.283 444.116 327.517 443.786 327.585C442.242 328.88 436.432 339.257 436.653 340.999C436.722 341.538 436.35 342.055 435.813 342.135C435.761 342.144 435.708 342.147 435.657 342.147Z" fill="#1AA9E8"/>
<path d="M149.598 520.583C149.598 522.132 150.854 523.387 152.403 523.387H214.568C216.117 523.387 217.373 522.132 217.373 520.583V479.45C217.373 477.901 216.117 476.646 214.568 476.646H152.403C150.854 476.646 149.598 477.901 149.598 479.45V520.583Z" fill="url(#paint46_linear)"/>
<path d="M216.735 475.017H150.235C148.578 475.017 147.235 476.36 147.235 478.017V522.017C147.235 523.674 148.578 525.017 150.235 525.017H216.735C218.392 525.017 219.735 523.674 219.735 522.017V478.017C219.735 476.359 218.392 475.017 216.735 475.017ZM214.735 520.017H152.235V480.017H214.735V520.017Z" fill="url(#paint47_linear)"/>
<path d="M203.106 503.085H150.188V508.085H203.106V503.085Z" fill="#FDE1A7"/>
<path d="M196.237 491.271L203.106 499.298L189.409 499.335L196.237 491.271Z" fill="#00E2EC"/>
<path d="M178 499.335C180.227 499.335 182.032 497.53 182.032 495.303C182.032 493.076 180.227 491.271 178 491.271C175.773 491.271 173.968 493.076 173.968 495.303C173.968 497.53 175.773 499.335 178 499.335Z" fill="#F95FC3"/>
<path d="M91.0749 670.637C92.9179 675.251 100.802 677.185 107.417 678.751C114.546 680.439 119.624 681.413 119.334 684.251C119.001 687.501 103.501 688.584 92.2509 688.251C81.0009 687.918 72.8509 686.592 71.1849 685.342C69.4249 684.022 69.5019 672.084 69.9179 669.418C70.3339 666.752 91.0749 670.637 91.0749 670.637Z" fill="url(#paint48_linear)"/>
<path d="M79.3341 399.668C77.8341 405.168 74.0011 417.835 72.6671 441.835C71.3331 465.835 73.0001 539.502 73.0001 557.502C73.0001 575.502 68.6671 607.501 68.3331 629.168C67.9991 650.835 67.5701 671.209 68.8331 672.001C71.6251 673.751 87.6251 675.001 93.0001 672.001C93.9381 671.478 102.667 595.835 108.667 564.168C112.625 543.276 128 429.833 129 413.167C130 396.501 79.3341 399.668 79.3341 399.668Z" fill="url(#paint49_linear)"/>
<path d="M82.8209 666.933C75.4029 666.933 69.6709 665.451 67.5769 664.394C67.0839 664.145 66.8859 663.544 67.1349 663.051C67.3829 662.558 67.9839 662.359 68.4779 662.609C71.3799 664.073 81.8469 666.391 94.0459 663.739C94.5869 663.621 95.1179 663.965 95.2349 664.505C95.3519 665.044 95.0099 665.577 94.4699 665.694C90.3429 666.591 86.3869 666.933 82.8209 666.933Z" fill="#CD218F"/>
<path d="M172.25 676.418C173.833 679.252 180.884 682.769 187.5 684.335C194.629 686.023 199.707 686.997 199.417 689.835C199.084 693.085 183.584 694.168 172.334 693.835C161.084 693.502 153.501 693.085 151.834 691.835C150.074 690.515 149.167 681.084 149.584 678.418C150.001 675.752 172.25 676.418 172.25 676.418Z" fill="url(#paint50_linear)"/>
<path d="M158.75 411.501C159.5 421.501 166.25 542.751 167.75 562.751C169.25 582.751 175.832 675.071 175 676.835C173.625 679.751 152.375 683.001 149.125 680.126C147.046 678.287 140.333 631.502 135 600.835C129.667 570.168 118 515.835 112 494.502C106 473.169 95.0001 438.251 101.25 407.251C107 400.751 119.755 400.897 133.75 403.501C148.16 406.182 158.75 411.501 158.75 411.501Z" fill="url(#paint51_linear)"/>
<path d="M116.607 514.675C115.447 509.972 114.26 505.277 113.004 500.603C111.762 495.927 110.353 491.3 108.996 486.642C106.267 477.335 103.701 467.954 101.746 458.414C101.635 457.873 101.983 457.345 102.525 457.233C103.066 457.122 103.594 457.47 103.706 458.011C103.706 458.015 103.708 458.025 103.709 458.029C105.479 467.518 107.867 476.897 110.428 486.236C111.699 490.906 113.033 495.578 114.197 500.292C115.374 505.001 116.479 509.723 117.557 514.45C117.617 514.713 117.453 514.974 117.189 515.034C116.93 515.094 116.671 514.933 116.607 514.675Z" fill="#CD218F"/>
<path d="M102.716 459.158C102.586 459.158 102.454 459.133 102.327 459.079C99.4022 457.845 92.7722 453.063 91.1432 450.349C90.8592 449.875 91.0122 449.261 91.4862 448.977C91.9592 448.693 92.5732 448.846 92.8582 449.32C94.1682 451.503 100.265 456.038 103.106 457.238C103.615 457.453 103.853 458.039 103.638 458.548C103.476 458.929 103.106 459.158 102.716 459.158Z" fill="#CD218F"/>
<path d="M155.128 674.279C151.202 674.279 148.026 673.852 146.667 673.343C146.149 673.15 145.887 672.573 146.081 672.056C146.274 671.539 146.852 671.28 147.368 671.47C150.572 672.668 165.644 673.31 174.306 667.887C174.775 667.593 175.391 667.736 175.684 668.204C175.977 668.672 175.835 669.289 175.367 669.582C169.611 673.186 161.409 674.279 155.128 674.279Z" fill="#CD218F"/>
<path d="M121.958 235.559C127.958 223.559 152.167 171.668 154.667 168.501C157.167 165.334 159.129 164.712 159.834 159.918C160.419 155.938 160.104 153.189 160.834 150.085C161.834 145.835 167.866 134.487 166.334 131.168C165.334 129.001 161.334 134.752 159.834 136.585C158.334 138.418 153.879 145.578 152.815 144.915C152.532 142.127 152.898 132.752 152.898 132.752C151.001 135.002 148.376 140.752 146.876 146.752C145.376 152.752 145.834 154.835 142.501 161.669C139.168 168.503 111.751 198.502 97.7512 229.752C96.9412 231.559 96.1552 233.404 95.3862 235.277C101.303 239.426 109.211 243.611 118.737 245.273C119.734 241.234 120.821 237.832 121.958 235.559Z" fill="url(#paint52_linear)"/>
<path d="M131.917 296.751C114.152 291.765 115.902 294.465 113.963 293.598C111.836 291.47 114.468 262.546 118.736 245.272C109.21 243.61 101.303 239.426 95.3847 235.276C82.8247 265.883 75.7207 304.875 75.2497 335.501C74.7497 368.001 75.9997 400.501 76.2497 402.001C76.4997 403.501 99.2397 417.5 124.5 417.751C149.667 418.001 158.75 411.501 158.75 411.501C158.75 411.501 163.794 322.403 162.98 319.91C162.166 317.417 149.682 301.737 131.917 296.751Z" fill="url(#paint53_linear)"/>
<path d="M128.042 411.693C127.269 411.693 126.483 411.686 125.676 411.672C95.8279 411.157 77.3159 397.994 75.1519 395.594C74.7819 395.184 74.8149 394.551 75.2249 394.181C75.6349 393.812 76.2669 393.845 76.6369 394.254C78.3869 396.195 96.6419 409.171 125.71 409.672C150.242 410.097 158.438 403.741 158.518 403.677C158.948 403.332 159.579 403.401 159.924 403.831C160.27 404.262 160.201 404.892 159.77 405.237C159.432 405.51 151.443 411.693 128.042 411.693Z" fill="#05C5DA"/>
<path d="M147.06 316.424C146.7 316.424 146.352 316.23 146.174 315.889C143.048 309.936 132.364 301.625 127.566 299.758C127.051 299.558 126.796 298.978 126.996 298.464C127.196 297.949 127.776 297.694 128.29 297.894C133.474 299.91 144.572 308.539 147.944 314.959C148.201 315.448 148.013 316.052 147.524 316.309C147.375 316.388 147.216 316.424 147.06 316.424Z" fill="#05C5DA"/>
<path d="M97.3911 286.042C96.9131 286.042 96.4921 285.7 96.4071 285.213C94.3631 273.468 100.909 254.63 104.055 245.578C104.735 243.62 105.273 242.074 105.485 241.275C105.626 240.741 106.174 240.423 106.708 240.566C107.242 240.708 107.56 241.255 107.417 241.789C107.186 242.661 106.665 244.16 105.943 246.235C102.852 255.129 96.4211 273.636 98.3761 284.871C98.4711 285.415 98.106 285.933 97.562 286.028C97.505 286.037 97.4471 286.042 97.3911 286.042Z" fill="#05C5DA"/>
<path d="M85.2507 290.251C84.9727 290.251 84.6957 290.135 84.4977 289.91C84.1337 289.494 84.1757 288.863 84.5917 288.499C86.5947 286.747 97.3947 280.807 109.889 286.08C110.398 286.295 110.637 286.881 110.422 287.39C110.208 287.899 109.622 288.138 109.112 287.923C97.5047 283.026 87.4147 288.686 85.9087 290.004C85.7187 290.169 85.4837 290.251 85.2507 290.251Z" fill="#05C5DA"/>
<path d="M140.366 227.126C144.174 233.432 151.75 234.626 152.375 236.751C153 238.876 148.875 243.126 147.625 243.876C146.375 244.626 140.375 232.376 139.875 231.001C139.375 229.626 140.366 227.126 140.366 227.126Z" fill="url(#paint54_linear)"/>
<path d="M129.813 213.939C129.813 213.939 112.5 219.001 104 230.835C99.307 237.369 105.133 248.878 111.292 257.88C109.229 259.642 108.167 261.668 108.167 261.668L107.375 263.876C106.917 268.918 101.43 286.277 99.43 291.444C98.686 293.366 103.896 300.433 115.25 301.001C125.25 301.501 131.917 296.751 131.917 296.751L132.875 274.813C132.875 274.813 133.211 273.44 133.573 271.571C138.409 270.955 143.908 269.059 148.5 264.334C160 252.501 136.25 219.126 129.813 213.939Z" fill="url(#paint55_linear)"/>
<path d="M126.334 244.334C127.601 243.477 127.251 240.834 124.251 237.834C121.251 234.834 118.084 232.167 118.668 229.001C119.247 225.86 129.589 222.512 134.444 218.913C142.418 213.001 145.001 198.667 140.168 197.751C133.537 196.494 131.42 205.584 129.668 205.584C127.585 205.584 128.651 200.725 125.663 201.076C121.334 201.584 119.667 207.751 117.168 209.667C113.422 212.539 93.5012 218.667 92.2512 233.5C91.2332 245.575 98.7962 252.441 102.126 256.75C105.668 261.333 106.761 263.69 107.376 263.875C108.48 264.207 113.341 263.483 117.501 261.75C122.001 259.875 124.751 257.5 123.876 256.375C123.001 255.25 116.459 253.994 116.001 248.5C115.668 244.5 118.376 242.75 120.501 243.125C122.626 243.5 124.917 245.293 126.334 244.334Z" fill="url(#paint56_linear)"/>
<path d="M129.375 248.376C130.158 248.4 130.75 253.709 133.813 254.439C135.853 254.924 142.417 250.376 145.376 249.064C147.173 248.267 150.377 247.721 150.583 248.543C150.789 249.365 151.251 252.377 152.376 255.064C153.326 257.333 155.501 259.418 154.439 264.064C152.879 270.887 141.001 276.002 132.876 274.814C132.688 272.876 132.417 269.871 131.063 264.439C129.5 258.168 127.067 252.46 127.125 251.314C127.209 249.668 128.042 248.334 129.375 248.376Z" fill="url(#paint57_linear)"/>
<path d="M138.083 237.168C137.426 237.168 136.823 236.733 136.639 236.069C136.295 234.829 134.722 232.099 134.407 231.68C133.914 231.025 134.028 230.082 134.676 229.58C135.323 229.079 136.244 229.174 136.756 229.814C137.159 230.317 139.045 233.518 139.53 235.267C139.752 236.065 139.284 236.892 138.486 237.114C138.351 237.15 138.215 237.168 138.083 237.168Z" fill="#0090B2"/>
<path d="M145.906 253.5C146.083 253.797 146.627 254.161 147.112 254.355C147.618 254.563 148.164 254.664 148.688 254.605C149.751 254.512 150.645 253.649 151.197 252.576C151.297 252.379 151.537 252.301 151.734 252.401C151.921 252.496 152 252.722 151.92 252.913C151.656 253.534 151.311 254.149 150.804 254.668C150.308 255.191 149.62 255.586 148.879 255.738C148.136 255.893 147.372 255.82 146.673 255.605C145.97 255.36 145.32 255.107 144.701 254.392L144.69 254.379C144.418 254.065 144.452 253.588 144.766 253.316C145.08 253.044 145.557 253.078 145.829 253.393C145.857 253.425 145.884 253.464 145.906 253.5Z" fill="#F1D2F8"/>
<path d="M115.25 301.001C125.25 301.501 131.917 296.751 131.917 296.751L132.266 288.758C129.748 290.112 124.313 292.441 117.152 292.083C108.46 291.648 103.382 287.41 101.806 284.582C100.862 287.484 100.003 289.965 99.431 291.444C98.687 293.366 103.896 300.433 115.25 301.001Z" fill="url(#paint58_linear)"/>
<path d="M116.741 302.038C116.236 302.038 115.723 302.026 115.2 301.999C106.809 301.58 101.394 297.675 99.306 294.459C98.451 293.142 98.164 291.943 98.497 291.082C98.697 290.567 99.276 290.311 99.79 290.51C100.303 290.709 100.559 291.284 100.364 291.798C100.335 291.922 100.398 292.593 101.235 293.733C103.285 296.525 108.057 299.639 115.299 300.001C124.842 300.47 131.271 295.981 131.336 295.935C131.785 295.614 132.409 295.719 132.731 296.169C133.051 296.619 132.947 297.243 132.497 297.564C132.228 297.757 126.105 302.038 116.741 302.038Z" fill="#05C5DA"/>
<path d="M181.938 460.313C179.104 451.642 176.118 395.326 171.055 356.16C157.003 356.532 145.572 360.053 139.51 362.951C140.937 369.541 142.992 378.164 146.251 389.501C155.168 420.523 167.126 455.876 167.334 463.501C167.457 467.999 163.628 473.279 163.14 479.922C162.813 484.376 164.625 491.626 166.334 491.501C168.501 491.343 168.32 484.744 169.188 481.626C170.563 476.688 173.501 475.001 173.501 475.001C173.501 475.001 179.751 475.017 190.289 475.017C188.809 469.704 183.173 464.094 181.938 460.313Z" fill="url(#paint59_linear)"/>
<path d="M162.167 318.834C152.167 308.167 133 319.334 131.167 333.334C130.775 336.327 133.5 339.835 135.5 345.001C136.686 348.064 137.43 353.348 139.509 362.951C145.571 360.053 157.002 356.532 171.054 356.16C168.636 337.45 165.744 322.649 162.167 318.834Z" fill="url(#paint60_linear)"/>
<path d="M139.51 363.951C139.137 363.951 138.779 363.741 138.607 363.383C138.369 362.884 138.58 362.287 139.078 362.049C142.216 360.549 153.796 355.617 171.028 355.16C171.582 355.163 172.04 355.582 172.054 356.134C172.069 356.686 171.633 357.146 171.081 357.16C157.703 357.514 146.223 360.849 139.941 363.853C139.802 363.92 139.655 363.951 139.51 363.951Z" fill="#05C5DA"/>
<path d="M131.168 334.334C131.125 334.334 131.081 334.331 131.037 334.326C130.49 334.254 130.103 333.752 130.175 333.204C131.237 325.097 138.122 317.245 146.546 314.533C152.872 312.496 158.832 313.814 162.897 318.151C163.275 318.554 163.254 319.187 162.852 319.565C162.45 319.943 161.816 319.923 161.438 319.52C156.626 314.387 150.426 315.385 147.159 316.438C139.433 318.925 133.125 326.086 132.159 333.465C132.093 333.967 131.663 334.334 131.168 334.334Z" fill="#05C5DA"/>
<path d="M463.861 218.984L453.336 218.067L463.086 208.447L463.861 218.984Z" fill="#F95FC3"/>
<path d="M426.668 251.168C426.247 251.168 425.855 250.9 425.718 250.479C420.586 234.799 430.718 225.082 447.503 208.981C450.969 205.657 454.898 201.889 458.958 197.796C482.857 173.706 478.191 149.243 476.191 142.319C476.038 141.789 476.344 141.234 476.875 141.081C477.408 140.93 477.96 141.234 478.113 141.765C480.189 148.953 485.045 174.341 460.378 199.204C456.3 203.314 452.362 207.092 448.888 210.424C432.668 225.981 422.878 235.371 427.618 249.856C427.79 250.381 427.504 250.946 426.978 251.117C426.876 251.152 426.771 251.168 426.668 251.168Z" fill="#1AA9E8"/>
<path d="M474.129 204.377L470.58 200.856C479.662 191.701 485.492 181.505 487.91 170.552L492.793 171.63C490.168 183.522 483.889 194.54 474.129 204.377Z" fill="#00E2EC"/>
<path d="M477.153 146.001C479.339 146.001 481.111 144.229 481.111 142.043C481.111 139.857 479.339 138.085 477.153 138.085C474.967 138.085 473.195 139.857 473.195 142.043C473.195 144.229 474.967 146.001 477.153 146.001Z" fill="#FDE1A7"/>
<path d="M417.665 255.168C417.51 255.168 417.351 255.131 417.203 255.053C416.91 254.899 410.04 251.149 411.678 239.693C412.605 233.201 416.836 227.74 421.316 221.959C427.141 214.441 433.165 206.667 432.337 195.911C432.017 191.744 429.878 188.082 425.98 185.025C405.102 168.65 340.644 173.059 324.267 175.766C323.714 175.851 323.207 175.487 323.118 174.942C323.027 174.397 323.396 173.882 323.941 173.792C340.51 171.054 405.809 166.663 427.214 183.451C431.571 186.868 433.966 191.009 434.331 195.758C435.218 207.283 428.672 215.731 422.896 223.184C418.583 228.75 414.509 234.008 413.658 239.976C412.229 249.971 417.896 253.155 418.137 253.286C418.621 253.548 418.806 254.152 418.547 254.638C418.368 254.975 418.022 255.168 417.665 255.168Z" fill="#1AA9E8"/>
<path d="M400.24 187.448C390.677 185.876 379.269 185.069 366.33 185.051L366.338 180.051C379.545 180.07 391.223 180.898 401.051 182.514L400.24 187.448Z" fill="#C7A0F6"/>
<path d="M324.103 178.737C326.289 178.737 328.061 176.965 328.061 174.779C328.061 172.593 326.289 170.821 324.103 170.821C321.917 170.821 320.145 172.593 320.145 174.779C320.145 176.965 321.917 178.737 324.103 178.737Z" fill="#FDE1A7"/>
<path d="M37.6978 266.969L34.0778 276.895L27.3208 264.983L37.6978 266.969Z" fill="#F95FC3"/>
<path d="M141.296 349.94C140.505 349.94 139.717 349.934 138.926 349.922C98.9648 349.318 63.3948 333.774 38.7688 306.152C9.80378 273.663 -3.94522 232.485 1.98878 196.001C6.44478 168.608 21.5588 146.271 44.5478 133.103C45.0268 132.828 45.6378 132.994 45.9128 133.474C46.1878 133.954 46.0208 134.564 45.5418 134.839C23.0858 147.701 8.31978 169.537 3.96278 196.323C-1.87622 232.218 11.6928 272.778 40.2618 304.822C91.7188 362.539 185.32 362.651 253.354 305.072C265.123 295.112 275.157 284.84 284.861 274.906C307.944 251.277 327.88 230.869 358.124 230.11C386.377 229.402 400.408 243.99 407.209 256.353C407.476 256.837 407.299 257.445 406.815 257.711C406.33 257.979 405.722 257.801 405.457 257.317C398.924 245.44 385.431 231.431 358.175 232.109C328.742 232.848 309.071 252.986 286.292 276.303C276.555 286.27 266.487 296.576 254.646 306.597C221.559 334.601 181.394 349.939 141.296 349.94Z" fill="#1AA9E8"/>
<path d="M23.5609 255.925C18.8749 242.598 16.3809 229.127 16.1489 215.886L21.1479 215.798C21.3709 228.503 23.7699 241.445 28.2779 254.266L23.5609 255.925Z" fill="#C7A0F6"/>
<path d="M177.065 337.951L175.973 333.072C187.662 330.455 199.228 326.52 210.35 321.375L212.449 325.913C201.006 331.208 189.101 335.258 177.065 337.951Z" fill="#00E2EC"/>
<path d="M45.0459 137.93C47.2318 137.93 49.0039 136.158 49.0039 133.972C49.0039 131.786 47.2318 130.014 45.0459 130.014C42.86 130.014 41.0879 131.786 41.0879 133.972C41.0879 136.158 42.86 137.93 45.0459 137.93Z" fill="#FDE1A7"/>
<path d="M378.633 415.75L368.25 417.71L375.039 405.813L378.633 415.75Z" fill="#00E2EC"/>
<path d="M302.22 438.87C300.84 438.87 299.509 438.833 298.238 438.761C297.687 438.731 297.265 438.258 297.296 437.706C297.328 437.155 297.812 436.738 298.351 436.765C317.635 437.859 350.798 430.831 363.114 407.041C368.626 396.394 370.172 381.127 371.807 364.964C374.519 338.177 377.323 310.48 398.145 297.65C398.615 297.359 399.23 297.507 399.521 297.977C399.81 298.447 399.665 299.063 399.194 299.353C379.214 311.664 376.46 338.863 373.798 365.166C372.142 381.524 370.577 396.976 364.89 407.962C352.955 431.013 322.333 438.87 302.22 438.87Z" fill="#1AA9E8"/>
<path d="M382.037 396.397L377.172 395.243C379.213 386.647 380.209 376.796 381.266 366.365C381.563 363.432 381.862 360.477 382.188 357.524L387.159 358.073C386.835 361.011 386.536 363.951 386.241 366.869C385.168 377.469 384.154 387.479 382.037 396.397Z" fill="#F95FC3"/>
<path d="M298.293 441.721C300.479 441.721 302.251 439.949 302.251 437.763C302.251 435.577 300.479 433.805 298.293 433.805C296.107 433.805 294.335 435.577 294.335 437.763C294.335 439.949 296.107 441.721 298.293 441.721Z" fill="#C7A0F6"/>
<defs>
<linearGradient id="paint0_linear" x1="259.346" y1="388.961" x2="283.24" y2="412.855" gradientUnits="userSpaceOnUse">
<stop stop-color="#FF57BD"/>
<stop offset="1" stop-color="#FE6A77"/>
</linearGradient>
<linearGradient id="paint1_linear" x1="259.345" y1="425.819" x2="283.24" y2="449.715" gradientUnits="userSpaceOnUse">
<stop stop-color="#FF57BD"/>
<stop offset="1" stop-color="#FE6A77"/>
</linearGradient>
<linearGradient id="paint2_linear" x1="259.346" y1="462.68" x2="283.24" y2="486.573" gradientUnits="userSpaceOnUse">
<stop stop-color="#FF57BD"/>
<stop offset="1" stop-color="#FE6A77"/>
</linearGradient>
<linearGradient id="paint3_linear" x1="222.657" y1="246.033" x2="356.22" y2="379.596" gradientUnits="userSpaceOnUse">
<stop stop-color="#706AED"/>
<stop offset="1" stop-color="#271068"/>
</linearGradient>
<linearGradient id="paint4_linear" x1="233.188" y1="263.085" x2="286.106" y2="263.085" gradientUnits="userSpaceOnUse">
<stop stop-color="white"/>
<stop offset="1" stop-color="#F1D1F8"/>
</linearGradient>
<linearGradient id="paint5_linear" x1="337.687" y1="362.001" x2="337.687" y2="265.002" gradientUnits="userSpaceOnUse">
<stop stop-color="#FDE1A7"/>
<stop offset="1" stop-color="#F9A144"/>
</linearGradient>
<linearGradient id="paint6_linear" x1="329.687" y1="284.085" x2="345.687" y2="284.085" gradientUnits="userSpaceOnUse">
<stop stop-color="#00E2EC"/>
<stop offset="1" stop-color="#0090B2"/>
</linearGradient>
<linearGradient id="paint7_linear" x1="289.438" y1="362.001" x2="289.438" y2="286.252" gradientUnits="userSpaceOnUse">
<stop stop-color="#1AA9E8"/>
<stop offset="0.4223" stop-color="#3D80EF"/>
<stop offset="0.7909" stop-color="#5662F4"/>
<stop offset="1" stop-color="#5F57F6"/>
</linearGradient>
<linearGradient id="paint8_linear" x1="281.438" y1="308.543" x2="297.438" y2="308.543" gradientUnits="userSpaceOnUse">
<stop stop-color="#00E2EC"/>
<stop offset="1" stop-color="#0090B2"/>
</linearGradient>
<linearGradient id="paint9_linear" x1="313.563" y1="362.001" x2="313.563" y2="300.252" gradientUnits="userSpaceOnUse">
<stop stop-color="#FF57BD"/>
<stop offset="1" stop-color="#FE6A77"/>
</linearGradient>
<linearGradient id="paint10_linear" x1="305.563" y1="315.543" x2="321.563" y2="315.543" gradientUnits="userSpaceOnUse">
<stop stop-color="#00E2EC"/>
<stop offset="1" stop-color="#0090B2"/>
</linearGradient>
<linearGradient id="paint11_linear" x1="265.313" y1="362.001" x2="265.313" y2="272.752" gradientUnits="userSpaceOnUse">
<stop stop-color="#C7A0F6"/>
<stop offset="1" stop-color="#FF57BD"/>
</linearGradient>
<linearGradient id="paint12_linear" x1="257.313" y1="289.21" x2="273.313" y2="289.21" gradientUnits="userSpaceOnUse">
<stop stop-color="#00E2EC"/>
<stop offset="1" stop-color="#0090B2"/>
</linearGradient>
<linearGradient id="paint13_linear" x1="241.188" y1="362.001" x2="241.188" y2="316.752" gradientUnits="userSpaceOnUse">
<stop stop-color="#FDE1A7"/>
<stop offset="1" stop-color="#F9A144"/>
</linearGradient>
<linearGradient id="paint14_linear" x1="233.188" y1="330.376" x2="249.188" y2="330.376" gradientUnits="userSpaceOnUse">
<stop stop-color="#00E2EC"/>
<stop offset="1" stop-color="#0090B2"/>
</linearGradient>
<linearGradient id="paint15_linear" x1="43.876" y1="46.6265" x2="156.876" y2="159.626" gradientUnits="userSpaceOnUse">
<stop stop-color="#00E2EC"/>
<stop offset="1" stop-color="#0090B2"/>
</linearGradient>
<linearGradient id="paint16_linear" x1="106.751" y1="74.501" x2="161.001" y2="74.501" gradientUnits="userSpaceOnUse">
<stop stop-color="white"/>
<stop offset="1" stop-color="#F1D1F8"/>
</linearGradient>
<linearGradient id="paint17_linear" x1="152.667" y1="130.009" x2="206.001" y2="130.009" gradientUnits="userSpaceOnUse">
<stop stop-color="#FDE1A7"/>
<stop offset="1" stop-color="#F9A144"/>
</linearGradient>
<linearGradient id="paint18_linear" x1="193.498" y1="69.3867" x2="325.092" y2="69.3867" gradientUnits="userSpaceOnUse">
<stop stop-color="#5A55F8"/>
<stop offset="1" stop-color="#8C6AE2"/>
</linearGradient>
<linearGradient id="paint19_linear" x1="174.895" y1="160.801" x2="347.334" y2="160.801" gradientUnits="userSpaceOnUse">
<stop stop-color="#FF57BD"/>
<stop offset="1" stop-color="#FE6A77"/>
</linearGradient>
<linearGradient id="paint20_linear" x1="211.931" y1="159.834" x2="281.142" y2="159.834" gradientUnits="userSpaceOnUse">
<stop stop-color="#C7A0F6"/>
<stop offset="1" stop-color="#FF57BD"/>
</linearGradient>
<linearGradient id="paint21_linear" x1="250" y1="133.56" x2="290.667" y2="133.56" gradientUnits="userSpaceOnUse">
<stop stop-color="#994574"/>
<stop offset="1" stop-color="#43256F"/>
</linearGradient>
<linearGradient id="paint22_linear" x1="221.263" y1="110.729" x2="250.018" y2="139.485" gradientUnits="userSpaceOnUse">
<stop stop-color="#1AA9E8"/>
<stop offset="0.4223" stop-color="#3D80EF"/>
<stop offset="0.7909" stop-color="#5662F4"/>
<stop offset="1" stop-color="#5F57F6"/>
</linearGradient>
<linearGradient id="paint23_linear" x1="388.476" y1="-2.4888" x2="565.831" y2="174.866" gradientUnits="userSpaceOnUse">
<stop stop-color="#C91C91"/>
<stop offset="1" stop-color="#FE6A77"/>
</linearGradient>
<linearGradient id="paint24_linear" x1="384.818" y1="57.1675" x2="453.25" y2="57.1675" gradientUnits="userSpaceOnUse">
<stop stop-color="white"/>
<stop offset="1" stop-color="#F1D1F8"/>
</linearGradient>
<linearGradient id="paint25_linear" x1="482.986" y1="130.834" x2="482.986" y2="39.3281" gradientUnits="userSpaceOnUse">
<stop stop-color="#994574"/>
<stop offset="1" stop-color="#9F36AD"/>
</linearGradient>
<linearGradient id="paint26_linear" x1="384.818" y1="91.001" x2="569.486" y2="91.001" gradientUnits="userSpaceOnUse">
<stop stop-color="#FE6A77"/>
<stop offset="1" stop-color="#FF57BD"/>
</linearGradient>
<linearGradient id="paint27_linear" x1="249.329" y1="14.418" x2="337.662" y2="14.418" gradientUnits="userSpaceOnUse">
<stop stop-color="#FDE1A7"/>
<stop offset="1" stop-color="#F9A144"/>
</linearGradient>
<linearGradient id="paint28_linear" x1="396.079" y1="284.841" x2="473.651" y2="284.841" gradientUnits="userSpaceOnUse">
<stop stop-color="#00E2EC"/>
<stop offset="1" stop-color="#0090B2"/>
</linearGradient>
<linearGradient id="paint29_linear" x1="407.739" y1="255.178" x2="461.243" y2="308.682" gradientUnits="userSpaceOnUse">
<stop stop-color="#994574"/>
<stop offset="1" stop-color="#43256F"/>
</linearGradient>
<linearGradient id="paint30_linear" x1="469.738" y1="576.069" x2="509.989" y2="576.069" gradientUnits="userSpaceOnUse">
<stop stop-color="#F4BEA3"/>
<stop offset="1" stop-color="#E8878E"/>
</linearGradient>
<linearGradient id="paint31_linear" x1="455.696" y1="654.56" x2="501.909" y2="654.56" gradientUnits="userSpaceOnUse">
<stop stop-color="#706AED"/>
<stop offset="1" stop-color="#271068"/>
</linearGradient>
<linearGradient id="paint32_linear" x1="527.75" y1="578.662" x2="565.857" y2="578.662" gradientUnits="userSpaceOnUse">
<stop stop-color="#F4BEA3"/>
<stop offset="1" stop-color="#E8878E"/>
</linearGradient>
<linearGradient id="paint33_linear" x1="520" y1="655.359" x2="566.239" y2="655.359" gradientUnits="userSpaceOnUse">
<stop stop-color="#706AED"/>
<stop offset="1" stop-color="#271068"/>
</linearGradient>
<linearGradient id="paint34_linear" x1="471.065" y1="410.603" x2="572.56" y2="512.097" gradientUnits="userSpaceOnUse">
<stop stop-color="#FF57BD"/>
<stop offset="1" stop-color="#FE6A77"/>
</linearGradient>
<linearGradient id="paint35_linear" x1="451.437" y1="281.963" x2="462.678" y2="281.963" gradientUnits="userSpaceOnUse">
<stop stop-color="#C16846"/>
<stop offset="0.2653" stop-color="#D27565"/>
<stop offset="0.5308" stop-color="#DE7F7B"/>
<stop offset="0.7814" stop-color="#E58589"/>
<stop offset="1" stop-color="#E8878E"/>
</linearGradient>
<linearGradient id="paint36_linear" x1="478.494" y1="319.17" x2="516.411" y2="319.17" gradientUnits="userSpaceOnUse">
<stop stop-color="#FDE1A7"/>
<stop offset="1" stop-color="#F9A144"/>
</linearGradient>
<linearGradient id="paint37_linear" x1="443.566" y1="289.555" x2="492.5" y2="289.555" gradientUnits="userSpaceOnUse">
<stop stop-color="#F4BEA3"/>
<stop offset="1" stop-color="#E8878E"/>
</linearGradient>
<linearGradient id="paint38_linear" x1="489.334" y1="335.695" x2="554.366" y2="335.695" gradientUnits="userSpaceOnUse">
<stop stop-color="#FDE1A7"/>
<stop offset="1" stop-color="#F9A144"/>
</linearGradient>
<linearGradient id="paint39_linear" x1="550.148" y1="235.711" x2="609.962" y2="295.524" gradientUnits="userSpaceOnUse">
<stop stop-color="#5A55F8"/>
<stop offset="1" stop-color="#8C6AE2"/>
</linearGradient>
<linearGradient id="paint40_linear" x1="516.334" y1="273.045" x2="542.334" y2="273.045" gradientUnits="userSpaceOnUse">
<stop stop-color="#F4BEA3"/>
<stop offset="1" stop-color="#E8878E"/>
</linearGradient>
<linearGradient id="paint41_linear" x1="498.901" y1="241.534" x2="545.145" y2="241.534" gradientUnits="userSpaceOnUse">
<stop stop-color="#F4BEA3"/>
<stop offset="1" stop-color="#E8878E"/>
</linearGradient>
<linearGradient id="paint42_linear" x1="498.065" y1="237.773" x2="514.028" y2="237.773" gradientUnits="userSpaceOnUse">
<stop stop-color="#FF57BD"/>
<stop offset="1" stop-color="#EC9895"/>
</linearGradient>
<linearGradient id="paint43_linear" x1="508.424" y1="229.794" x2="559.985" y2="229.794" gradientUnits="userSpaceOnUse">
<stop stop-color="#5A55F8"/>
<stop offset="1" stop-color="#8C6AE2"/>
</linearGradient>
<linearGradient id="paint44_linear" x1="408.95" y1="317.985" x2="445.655" y2="317.985" gradientUnits="userSpaceOnUse">
<stop stop-color="#F4BEA3"/>
<stop offset="1" stop-color="#E8878E"/>
</linearGradient>
<linearGradient id="paint45_linear" x1="435.652" y1="332.351" x2="547.459" y2="332.351" gradientUnits="userSpaceOnUse">
<stop stop-color="#FDE1A7"/>
<stop offset="1" stop-color="#F9A144"/>
</linearGradient>
<linearGradient id="paint46_linear" x1="155.677" y1="472.21" x2="211.292" y2="527.825" gradientUnits="userSpaceOnUse">
<stop stop-color="#00E2EC"/>
<stop offset="1" stop-color="#0090B2"/>
</linearGradient>
<linearGradient id="paint47_linear" x1="153.739" y1="470.271" x2="213.232" y2="529.764" gradientUnits="userSpaceOnUse">
<stop stop-color="#706AED"/>
<stop offset="1" stop-color="#271068"/>
</linearGradient>
<linearGradient id="paint48_linear" x1="75.0951" y1="664.097" x2="107.482" y2="696.484" gradientUnits="userSpaceOnUse">
<stop stop-color="#706AED"/>
<stop offset="1" stop-color="#271068"/>
</linearGradient>
<linearGradient id="paint49_linear" x1="18.5558" y1="460.446" x2="161.556" y2="603.447" gradientUnits="userSpaceOnUse">
<stop stop-color="#994574"/>
<stop offset="1" stop-color="#43256F"/>
</linearGradient>
<linearGradient id="paint50_linear" x1="156.586" y1="671.261" x2="187.479" y2="702.155" gradientUnits="userSpaceOnUse">
<stop stop-color="#706AED"/>
<stop offset="1" stop-color="#271068"/>
</linearGradient>
<linearGradient id="paint51_linear" x1="58.2975" y1="450.173" x2="230.026" y2="621.902" gradientUnits="userSpaceOnUse">
<stop stop-color="#994574"/>
<stop offset="1" stop-color="#43256F"/>
</linearGradient>
<linearGradient id="paint52_linear" x1="95.3859" y1="187.979" x2="166.582" y2="187.979" gradientUnits="userSpaceOnUse">
<stop stop-color="#F4BEA3"/>
<stop offset="1" stop-color="#E8878E"/>
</linearGradient>
<linearGradient id="paint53_linear" x1="52.2311" y1="278.432" x2="172.026" y2="398.227" gradientUnits="userSpaceOnUse">
<stop stop-color="#1AA9E8"/>
<stop offset="0.4223" stop-color="#3D80EF"/>
<stop offset="0.7909" stop-color="#5662F4"/>
<stop offset="1" stop-color="#5F57F6"/>
</linearGradient>
<linearGradient id="paint54_linear" x1="139.735" y1="235.518" x2="152.44" y2="235.518" gradientUnits="userSpaceOnUse">
<stop stop-color="#EC9895"/>
<stop offset="1" stop-color="#FF57BD"/>
</linearGradient>
<linearGradient id="paint55_linear" x1="97.6084" y1="236.652" x2="144.812" y2="283.856" gradientUnits="userSpaceOnUse">
<stop stop-color="#F4BEA3"/>
<stop offset="1" stop-color="#E8878E"/>
</linearGradient>
<linearGradient id="paint56_linear" x1="92.1574" y1="230.793" x2="142.605" y2="230.793" gradientUnits="userSpaceOnUse">
<stop stop-color="#CB2090"/>
<stop offset="1" stop-color="#43256F"/>
</linearGradient>
<linearGradient id="paint57_linear" x1="128.518" y1="248.433" x2="150.215" y2="270.13" gradientUnits="userSpaceOnUse">
<stop stop-color="#CB2090"/>
<stop offset="1" stop-color="#43256F"/>
</linearGradient>
<linearGradient id="paint58_linear" x1="99.3608" y1="292.81" x2="132.266" y2="292.81" gradientUnits="userSpaceOnUse">
<stop stop-color="#1AA9E8"/>
<stop offset="0.4223" stop-color="#3D80EF"/>
<stop offset="0.7909" stop-color="#5662F4"/>
<stop offset="1" stop-color="#5F57F6"/>
</linearGradient>
<linearGradient id="paint59_linear" x1="139.51" y1="423.832" x2="190.288" y2="423.832" gradientUnits="userSpaceOnUse">
<stop stop-color="#F4BEA3"/>
<stop offset="1" stop-color="#E8878E"/>
</linearGradient>
<linearGradient id="paint60_linear" x1="131.129" y1="338.772" x2="171.055" y2="338.772" gradientUnits="userSpaceOnUse">
<stop stop-color="#1AA9E8"/>
<stop offset="0.4223" stop-color="#3D80EF"/>
<stop offset="0.7909" stop-color="#5662F4"/>
<stop offset="1" stop-color="#5F57F6"/>
</linearGradient>
</defs>
</svg>
