<svg width="1594" height="1202" viewBox="0 0 1594 1202" fill="none" xmlns="http://www.w3.org/2000/svg">
<path d="M1218.38 1201C1218.38 1201 1224.74 1047.36 1364.8 1002.08C1504.86 956.791 1514.7 1096.97 1427.38 1119.82C1308.19 1151 1218.38 1201 1218.38 1201Z" fill="#000A1D"/>
<path d="M1218.38 1201C1218.38 1201 1276.49 1091.68 1420.11 1040.25" stroke="#262424" stroke-width="1.56824" stroke-miterlimit="10" stroke-linecap="round" stroke-linejoin="round"/>
<path d="M1193.66 1201C1193.66 1201 1101.31 1126.03 1137.98 1018.22C1174.65 910.411 1266.14 969.114 1239.94 1033.84C1204.18 1122.18 1193.66 1201 1193.66 1201Z" fill="#FF1B46"/>
<path d="M1193.66 1201C1193.66 1201 1152.73 1114.41 1187.22 1001.56" stroke="#262424" stroke-width="1.56824" stroke-miterlimit="10" stroke-linecap="round" stroke-linejoin="round"/>
<path d="M1556.67 930.808H297.062C277.118 930.808 260.95 914.64 260.95 894.696V37.1122C260.95 17.168 277.118 1 297.062 1H1556.67C1576.61 1 1592.78 17.168 1592.78 37.1122V894.696C1592.78 914.64 1576.61 930.808 1556.67 930.808Z" fill="white" stroke="#262424" stroke-width="1.56824" stroke-miterlimit="10" stroke-linecap="round" stroke-linejoin="round"/>
<path d="M816.561 42.9073V888.901" stroke="#262424" stroke-width="1.56824" stroke-miterlimit="10" stroke-linecap="round" stroke-linejoin="round"/>
<path d="M1532.57 217.853H348.86" stroke="#262424" stroke-width="1.56824" stroke-miterlimit="10" stroke-linecap="round" stroke-linejoin="round"/>
<path d="M735.487 412.634H369.738C358.207 412.634 348.86 403.287 348.86 391.757V325.727C348.86 314.196 358.207 304.849 369.738 304.849H735.487C747.017 304.849 756.364 314.196 756.364 325.727V391.757C756.364 403.287 747.017 412.634 735.487 412.634Z" stroke="#262424" stroke-width="1.56824" stroke-miterlimit="10" stroke-linecap="round" stroke-linejoin="round"/>
<path d="M739.42 184.496H504.904C495.546 184.496 487.96 176.91 487.96 167.552V93.6543C487.96 84.2967 495.546 76.7108 504.904 76.7108H739.42C748.778 76.7108 756.364 84.2967 756.364 93.6543V167.552C756.364 176.91 748.778 184.496 739.42 184.496Z" fill="#000A1D"/>
<path d="M1135.1 184.496H900.579C891.221 184.496 883.635 176.91 883.635 167.552V93.6543C883.635 84.2967 891.221 76.7108 900.579 76.7108H1135.1C1144.45 76.7108 1152.04 84.2967 1152.04 93.6543V167.552C1152.04 176.91 1144.45 184.496 1135.1 184.496Z" fill="#000A1D"/>
<path d="M1291.4 508.91H900.579C891.221 508.91 883.635 501.324 883.635 491.967V268.153C883.635 258.795 891.221 251.209 900.579 251.209H1291.4C1300.76 251.209 1308.34 258.795 1308.34 268.153V491.967C1308.34 501.324 1300.76 508.91 1291.4 508.91Z" fill="white" stroke="#262424" stroke-width="1.56824" stroke-miterlimit="10" stroke-linecap="round" stroke-linejoin="round"/>
<path d="M1291.4 868.637H900.579C891.221 868.637 883.635 861.051 883.635 851.693V561.057C883.635 551.699 891.221 544.113 900.579 544.113H1291.4C1300.76 544.113 1308.34 551.699 1308.34 561.057V851.693C1308.34 861.051 1300.76 868.637 1291.4 868.637Z" fill="white" stroke="#262424" stroke-width="1.56824" stroke-miterlimit="10" stroke-linecap="round" stroke-linejoin="round"/>
<path d="M1515.63 868.637H1360.49C1351.13 868.637 1343.54 861.051 1343.54 851.693V731.919C1343.54 722.561 1351.13 714.975 1360.49 714.975H1515.63C1524.99 714.975 1532.57 722.561 1532.57 731.919V851.693C1532.57 861.051 1524.99 868.637 1515.63 868.637Z" fill="#000A1D"/>
<path d="M1520.35 113.596H1390.62C1383.87 113.596 1378.4 108.123 1378.4 101.372V88.9349C1378.4 82.1837 1383.87 76.7108 1390.62 76.7108H1520.35C1527.1 76.7108 1532.57 82.1837 1532.57 88.9349V101.372C1532.57 108.123 1527.1 113.596 1520.35 113.596Z" fill="#FF1B46"/>
<path d="M1520.35 184.496H1390.62C1383.87 184.496 1378.4 179.023 1378.4 172.272V159.835C1378.4 153.084 1383.87 147.611 1390.62 147.611H1520.35C1527.1 147.611 1532.57 153.084 1532.57 159.835V172.272C1532.57 179.023 1527.1 184.496 1520.35 184.496Z" fill="#FF1B46"/>
<path d="M429.672 184.496H358.708C353.269 184.496 348.86 180.087 348.86 174.649V86.5581C348.86 81.1196 353.269 76.7108 358.708 76.7108H429.672C435.111 76.7108 439.52 81.1196 439.52 86.5581V174.649C439.52 180.087 435.111 184.496 429.672 184.496Z" fill="#000A1D"/>
<path d="M735.487 581.36H369.738C358.207 581.36 348.86 572.013 348.86 560.483V494.453C348.86 482.922 358.207 473.575 369.738 473.575H735.487C747.017 473.575 756.364 482.922 756.364 494.453V560.483C756.364 572.013 747.017 581.36 735.487 581.36Z" stroke="#262424" stroke-width="1.56824" stroke-miterlimit="10" stroke-linecap="round" stroke-linejoin="round"/>
<path d="M735.487 750.087H369.738C358.207 750.087 348.86 740.74 348.86 729.21V663.179C348.86 651.649 358.207 642.302 369.738 642.302H735.487C747.017 642.302 756.364 651.649 756.364 663.179V729.21C756.364 740.74 747.017 750.087 735.487 750.087Z" stroke="#262424" stroke-width="1.56824" stroke-miterlimit="10" stroke-linecap="round" stroke-linejoin="round"/>
<path d="M1013.44 287.381C962.274 287.381 920.764 328.891 920.764 380.06C920.764 431.259 962.274 472.74 1013.44 472.74C1064.61 472.74 1106.12 431.259 1106.12 380.06C1106.12 328.891 1064.61 287.381 1013.44 287.381ZM1013.44 423.052C989.71 423.052 970.451 403.793 970.451 380.06C970.451 356.328 989.71 337.069 1013.44 337.069C1037.18 337.069 1056.43 356.328 1056.43 380.06C1056.43 403.793 1037.18 423.052 1013.44 423.052Z" fill="#000A1D"/>
<path d="M1106.12 380.06H1056.43C1056.43 356.328 1037.18 337.069 1013.44 337.069V287.381C1064.61 287.381 1106.12 328.891 1106.12 380.06Z" fill="#FF1B46"/>
<path d="M1260.04 403.23H1162.69C1156.53 403.23 1151.52 398.229 1151.52 392.06V377.417C1151.52 371.249 1156.53 366.248 1162.69 366.248H1260.04C1266.21 366.248 1271.21 371.249 1271.21 377.417V392.06C1271.21 398.229 1266.21 403.23 1260.04 403.23Z" fill="#000A1D"/>
<path d="M1212.87 333.72H1162.69C1156.53 333.72 1151.52 328.72 1151.52 322.551V307.908C1151.52 301.739 1156.53 296.738 1162.69 296.738H1212.87C1219.04 296.738 1224.04 301.739 1224.04 307.908V322.551C1224.04 328.72 1219.04 333.72 1212.87 333.72Z" fill="#FF1B46"/>
<path d="M1260.04 472.739H1162.69C1156.53 472.739 1151.52 467.739 1151.52 461.57V446.927C1151.52 440.758 1156.53 435.757 1162.69 435.757H1260.04C1266.21 435.757 1271.21 440.758 1271.21 446.927V461.57C1271.21 467.739 1266.21 472.739 1260.04 472.739Z" fill="#000A1D"/>
<path d="M1515.63 668.566H1360.49C1351.13 668.566 1343.54 660.981 1343.54 651.623V268.153C1343.54 258.795 1351.13 251.209 1360.49 251.209H1515.63C1524.99 251.209 1532.57 258.795 1532.57 268.153V651.623C1532.57 660.981 1524.99 668.566 1515.63 668.566Z" fill="white" stroke="#262424" stroke-width="1.56824" stroke-miterlimit="10" stroke-linecap="round" stroke-linejoin="round"/>
<path d="M1435.07 315.229H1512.52" stroke="#262424" stroke-width="1.56824" stroke-miterlimit="10" stroke-linecap="round" stroke-linejoin="round"/>
<path d="M1435.07 411.211H1512.52" stroke="#262424" stroke-width="1.56824" stroke-miterlimit="10" stroke-linecap="round" stroke-linejoin="round"/>
<path d="M1435.07 507.193H1512.52" stroke="#262424" stroke-width="1.56824" stroke-miterlimit="10" stroke-linecap="round" stroke-linejoin="round"/>
<path d="M1435.07 603.174H1512.52" stroke="#262424" stroke-width="1.56824" stroke-miterlimit="10" stroke-linecap="round" stroke-linejoin="round"/>
<path d="M1402.08 333.72H1381.12C1374.95 333.72 1369.95 328.72 1369.95 322.551V307.908C1369.95 301.739 1374.95 296.738 1381.12 296.738H1402.08C1408.25 296.738 1413.25 301.739 1413.25 307.908V322.551C1413.25 328.72 1408.25 333.72 1402.08 333.72Z" fill="#FF1B46"/>
<path d="M1402.08 429.702H1381.12C1374.95 429.702 1369.95 424.701 1369.95 418.533V403.889C1369.95 397.721 1374.95 392.72 1381.12 392.72H1402.08C1408.25 392.72 1413.25 397.721 1413.25 403.889V418.533C1413.25 424.701 1408.25 429.702 1402.08 429.702Z" fill="#000A1D"/>
<path d="M1402.08 525.684H1381.12C1374.95 525.684 1369.95 520.683 1369.95 514.514V499.871C1369.95 493.702 1374.95 488.702 1381.12 488.702H1402.08C1408.25 488.702 1413.25 493.702 1413.25 499.871V514.514C1413.25 520.683 1408.25 525.684 1402.08 525.684Z" fill="#000A1D"/>
<path d="M1402.08 621.665H1381.12C1374.95 621.665 1369.95 616.665 1369.95 610.496V595.853C1369.95 589.684 1374.95 584.683 1381.12 584.683H1402.08C1408.25 584.683 1413.25 589.684 1413.25 595.853V610.496C1413.25 616.665 1408.25 621.665 1402.08 621.665Z" fill="#000A1D"/>
<path d="M952.893 628.884H931.933C925.764 628.884 920.764 623.884 920.764 617.715V603.072C920.764 596.903 925.764 591.902 931.933 591.902H952.893C959.062 591.902 964.063 596.903 964.063 603.072V617.715C964.063 623.884 959.062 628.884 952.893 628.884Z" fill="#000A1D"/>
<path d="M952.893 724.866H931.933C925.764 724.866 920.764 719.865 920.764 713.697V699.053C920.764 692.885 925.764 687.884 931.933 687.884H952.893C959.062 687.884 964.063 692.885 964.063 699.053V713.697C964.063 719.865 959.062 724.866 952.893 724.866Z" fill="#000A1D"/>
<path d="M952.893 820.848H931.933C925.764 820.848 920.764 815.847 920.764 809.678V795.035C920.764 788.866 925.764 783.865 931.933 783.865H952.893C959.062 783.865 964.063 788.866 964.063 795.035V809.678C964.063 815.847 959.062 820.848 952.893 820.848Z" fill="#000A1D"/>
<path d="M985.886 567.711V843.7H1265.4" stroke="#262424" stroke-width="1.56824" stroke-miterlimit="10" stroke-linecap="round" stroke-linejoin="round"/>
<path d="M1056.43 603.072V809.678C1056.43 815.847 1051.43 820.848 1045.27 820.848H1030.62C1024.45 820.848 1019.45 815.847 1019.45 809.678V603.072C1019.45 596.903 1024.45 591.902 1030.62 591.902H1045.27C1051.43 591.902 1056.43 596.903 1056.43 603.072Z" fill="#FF1B46"/>
<path d="M1124.61 652.807V809.678C1124.61 815.847 1119.61 820.848 1113.44 820.848H1098.8C1092.63 820.848 1087.63 815.847 1087.63 809.678V652.807C1087.63 646.638 1092.63 641.637 1098.8 641.637H1113.44C1119.61 641.637 1124.61 646.638 1124.61 652.807Z" fill="#FF1B46"/>
<path d="M1192.79 694.629V809.678C1192.79 815.847 1187.79 820.847 1181.62 820.847H1166.98C1160.81 820.847 1155.81 815.847 1155.81 809.678V694.629C1155.81 688.46 1160.81 683.459 1166.98 683.459H1181.62C1187.79 683.459 1192.79 688.46 1192.79 694.629Z" fill="#FF1B46"/>
<path d="M1254.23 628.884H1166.98C1160.81 628.884 1155.81 623.884 1155.81 617.715V603.072C1155.81 596.903 1160.81 591.902 1166.98 591.902H1254.23C1260.39 591.902 1265.4 596.903 1265.4 603.072V617.715C1265.4 623.884 1260.39 628.884 1254.23 628.884Z" fill="#000A1D"/>
<path d="M701.208 378.356H335.459C323.929 378.356 314.582 369.009 314.582 357.478V291.448C314.582 279.918 323.929 270.571 335.459 270.571H701.208C712.738 270.571 722.086 279.918 722.086 291.448V357.478C722.086 369.009 712.738 378.356 701.208 378.356Z" fill="#FF1B46"/>
<path d="M70.897 884.088L112.996 932.002L156.482 881.239L95.3046 852.253L70.897 884.088Z" fill="white" stroke="#262424" stroke-width="1.56824" stroke-miterlimit="10" stroke-linecap="round" stroke-linejoin="round"/>
<path d="M111.444 881.25L97.1128 897.888C92.9792 902.687 92.8511 909.75 96.808 914.696L110.559 931.883C112.911 934.822 116.408 936.614 120.167 936.804H120.167C124.132 937.005 127.975 935.406 130.626 932.453L149.237 911.718C152.818 907.729 153.621 901.966 151.266 897.15L149.165 892.852C147.977 890.422 146.07 888.417 143.702 887.111L127.772 878.318C122.321 875.309 115.507 876.533 111.444 881.25Z" fill="white" stroke="#262424" stroke-width="1.56824" stroke-miterlimit="10" stroke-linecap="round" stroke-linejoin="round"/>
<path d="M123.057 869.382H123.057C125.499 866.071 129.836 864.773 133.696 866.199L150.179 872.289C155.27 874.17 159.272 878.203 161.112 883.31L163.006 888.568C164.174 891.808 163.442 895.428 161.109 897.961L160.336 898.8C158.641 900.639 156.274 901.713 153.774 901.777L150.938 901.849C145.543 901.986 140.36 899.747 136.761 895.726L123.608 881.029C120.689 877.767 120.459 872.905 123.057 869.382Z" fill="white" stroke="#262424" stroke-width="1.56824" stroke-miterlimit="10" stroke-linecap="round" stroke-linejoin="round"/>
<path d="M95.3044 852.253L136.335 860.322C140.153 861.073 143.273 863.817 144.505 867.508C145.745 871.226 144.877 875.324 142.235 878.219L123.73 898.494C121.101 901.374 116.695 901.739 113.628 899.33C110.929 897.209 110.029 893.518 111.449 890.393L116.084 880.192L100.746 881.654C97.9687 881.919 95.2764 880.61 93.7703 878.261L85.1475 864.816L95.3044 852.253Z" fill="white" stroke="#262424" stroke-width="1.56824" stroke-miterlimit="10" stroke-linecap="round" stroke-linejoin="round"/>
<path d="M212.569 554.7C241.882 610.498 101.301 737.431 101.301 737.431C101.301 737.431 111.219 807.721 119.003 853.872L67.9944 890.304C67.9944 890.304 19.2836 806.23 8.68037 748.382C6.08878 734.21 3.7412 720.234 1.93213 707.383C1.93213 707.383 9.56293 692.909 22.9703 671.975C45.3047 637.088 99.3616 564.272 145.197 530.659C145.197 530.659 183.261 498.912 212.569 554.7Z" fill="#FF1B46"/>
<path d="M75.8062 879.53C78.5768 879.53 80.8228 877.284 80.8228 874.513C80.8228 871.742 78.5768 869.496 75.8062 869.496C73.0356 869.496 70.7896 871.742 70.7896 874.513C70.7896 877.284 73.0356 879.53 75.8062 879.53Z" fill="white" stroke="#262424" stroke-width="1.56824" stroke-miterlimit="10" stroke-linecap="round" stroke-linejoin="round"/>
<path d="M35.7124 717.559C31.2113 733.27 20.453 744.874 8.68037 748.382C6.08878 734.209 3.7412 720.233 1.93213 707.383C1.93213 707.383 9.56293 692.908 22.9703 671.975C35.5478 679.418 41.2133 698.357 35.7124 717.559Z" fill="white"/>
<path d="M42.9819 725.661L95.6284 736.991" stroke="#262424" stroke-width="1.56824" stroke-miterlimit="10" stroke-linecap="round" stroke-linejoin="round"/>
<path d="M66.3823 863.769L101.288 854.436" stroke="#262424" stroke-width="1.56824" stroke-miterlimit="10" stroke-linecap="round" stroke-linejoin="round"/>
<path d="M159.259 1099.39L87.8345 1106.09L100.433 1075.28L160.231 1065.68L159.259 1099.39Z" fill="white" stroke="#262424" stroke-width="1.56824" stroke-miterlimit="10" stroke-linecap="round" stroke-linejoin="round"/>
<path d="M49.5592 1186.09C52.2996 1182.17 56.9018 1173.07 59.9515 1169.46C83.5463 1141.52 105.567 1122.7 115.688 1114.39L105.385 1061.91C69.9255 1064.81 36.9438 1069.77 17.9004 1072.95C7.28816 1074.71 1.00049 1075.94 1.00049 1075.94L17.1469 1201L29.2965 1199.43C37.1926 1198.41 44.296 1193.61 49.5592 1186.09Z" fill="#000A1D"/>
<path d="M70.6472 1119.7C80.9377 1118.37 88.5504 1111.64 87.6507 1104.67C86.7509 1097.7 77.6794 1093.13 67.3889 1094.46C57.0984 1095.79 49.4857 1102.51 50.3855 1109.48C51.2852 1116.45 60.3567 1121.02 70.6472 1119.7Z" fill="white"/>
<path d="M29.2935 1199.43L17.146 1201L1 1075.94C1 1075.94 7.28865 1074.72 17.9011 1072.94L31.7506 1180.21C31.7506 1180.21 45.5834 1179 56.7515 1174.13C54.2105 1178.25 51.4452 1183.4 49.5623 1186.09C44.2938 1193.62 37.192 1198.41 29.2935 1199.43Z" fill="white"/>
<path d="M29.2935 1199.43L17.146 1201L1 1075.94C1 1075.94 7.28865 1074.72 17.9011 1072.94L31.7506 1180.21C31.7506 1180.21 45.5834 1179 56.7515 1174.13C54.2105 1178.25 51.4452 1183.4 49.5623 1186.09C44.2938 1193.62 37.192 1198.41 29.2935 1199.43Z" stroke="#262424" stroke-width="1.56824" stroke-miterlimit="10" stroke-linecap="round" stroke-linejoin="round"/>
<path d="M393.759 1111.06L372.491 1110.85L152.585 1108.56L145.339 1052.43L300.396 1017.77C394.857 991.597 431.364 1027.93 437.156 1058.67C438.699 1066.93 438.044 1074.81 435.669 1080.94C424.547 1109.8 393.759 1111.06 393.759 1111.06Z" fill="#000A1D"/>
<path d="M393.759 1111.06L372.491 1110.85C372.273 1109.86 372.111 1108.83 371.979 1107.81C368.655 1082.06 386.825 1058.51 412.537 1055.19C421.205 1054.07 429.652 1055.4 437.155 1058.67C438.699 1066.93 438.044 1074.81 435.669 1080.94C424.547 1109.8 393.759 1111.06 393.759 1111.06Z" fill="white"/>
<path d="M379.617 1058.84L174.349 1080.65" stroke="#262424" stroke-width="1.56824" stroke-miterlimit="10" stroke-linecap="round" stroke-linejoin="round"/>
<path d="M350.238 1009.03L379.617 1058.84" stroke="#262424" stroke-width="1.56824" stroke-miterlimit="10" stroke-linecap="round" stroke-linejoin="round"/>
<path d="M164.637 1057.66L170.361 1102" stroke="#262424" stroke-width="1.56824" stroke-miterlimit="10" stroke-linecap="round" stroke-linejoin="round"/>
<path d="M438.001 1058.43C438.001 1059.91 437.942 1061.42 437.764 1062.93C437.764 1062.96 437.764 1062.99 437.764 1062.99C437.646 1064.53 437.409 1066.04 437.113 1067.58C431.128 1092.15 409.706 1109.69 384.699 1110.96C383.721 1111.02 382.744 1111.05 381.766 1111.05H379.692C378.24 1111.05 376.788 1110.99 375.366 1110.87C374.388 1110.81 373.41 1110.72 372.433 1110.58C362.27 1109.27 352.611 1105.24 344.492 1098.87L175.667 966.164C156.082 950.017 145.653 925.336 147.697 900.033L152.941 773.073L307.279 768.213L300.997 894.492L422.891 1023.41C432.639 1032.59 438.001 1045.3 438.001 1058.43Z" fill="#000A1D"/>
<path d="M222.35 908.471L195.738 917.809L169.125 908.471V854.864H222.35V908.471Z" stroke="#262424" stroke-width="1.56824" stroke-miterlimit="10" stroke-linecap="round" stroke-linejoin="round"/>
<path d="M437.764 1062.93C437.764 1062.96 437.764 1062.99 437.764 1062.99C437.646 1064.53 437.409 1066.04 437.113 1067.58C431.128 1092.15 409.706 1109.69 384.699 1110.96L375.366 1110.87L372.492 1110.84C372.462 1110.75 372.462 1110.67 372.433 1110.58C372.255 1109.69 372.107 1108.74 371.988 1107.82C368.67 1082.07 386.832 1058.52 412.55 1055.2C421.202 1054.07 429.646 1055.41 437.142 1058.67C437.409 1060.12 437.616 1061.54 437.764 1062.93Z" fill="white"/>
<path d="M437.156 1058.67C438.7 1066.93 438.044 1074.81 435.669 1080.94C424.548 1109.8 393.76 1111.06 393.76 1111.06L372.491 1110.85" stroke="#262424" stroke-width="1.56824" stroke-miterlimit="10" stroke-linecap="round" stroke-linejoin="round"/>
<path d="M281.207 958.503L377.716 1057.82L303.81 1066.89" stroke="#262424" stroke-width="1.56824" stroke-miterlimit="10" stroke-linecap="round" stroke-linejoin="round"/>
<path d="M295.502 968.649L295.502 968.649C317.736 980.863 344.537 981.435 367.272 970.182L543.888 877.132C564.242 866.409 579.295 847.795 585.524 825.649L585.524 825.649C591.068 805.938 583.563 784.874 566.805 773.108L566.805 773.108C553.312 763.633 535.914 761.707 520.674 767.999L394.299 813.636L388.801 758.719L253.893 794.625L255.279 901.897C255.728 929.756 271.081 955.235 295.502 968.649Z" fill="#000A1D"/>
<path d="M325.336 908.47L298.723 917.808L272.111 908.47V854.863H325.336V908.47Z" stroke="#262424" stroke-width="1.56824" stroke-miterlimit="10" stroke-linecap="round" stroke-linejoin="round"/>
<path d="M253.893 794.626L255.279 901.898C255.728 929.756 271.081 955.235 295.502 968.649L295.502 968.65C306.441 974.659 318.486 977.85 330.608 978.201C330.608 978.201 341.584 978.465 348.862 976.558C356.139 974.65 364.927 971.288 364.927 971.288" stroke="#262424" stroke-width="1.56824" stroke-miterlimit="10" stroke-linecap="round" stroke-linejoin="round"/>
<path d="M340.616 804.74L342.766 884.488L533.585 823.309" stroke="#262424" stroke-width="1.56824" stroke-miterlimit="10" stroke-linecap="round" stroke-linejoin="round"/>
<path d="M342.766 884.488L354.781 868.658C362.456 858.546 366.635 846.213 366.688 833.519L366.808 804.74" stroke="#262424" stroke-width="1.56824" stroke-miterlimit="10" stroke-linecap="round" stroke-linejoin="round"/>
<path d="M545.588 1047.05L543.092 1118.74L514.145 1102.3L512.278 1041.77L545.588 1047.05Z" fill="white" stroke="#262424" stroke-width="1.56824" stroke-miterlimit="10" stroke-linecap="round" stroke-linejoin="round"/>
<path d="M617.526 1166.94C613.991 1163.72 605.55 1157.99 602.36 1154.51C577.675 1127.53 561.828 1103.28 554.889 1092.18L501.517 1095.68C499.856 1131.22 500.545 1164.56 501.262 1183.85C501.655 1194.6 502.063 1201 502.063 1201H628.164V1188.75C628.164 1180.79 624.314 1173.13 617.526 1166.94Z" fill="#000A1D"/>
<path d="M541.656 1156.32C548.683 1156.32 554.379 1147.9 554.379 1137.53C554.379 1127.15 548.683 1118.74 541.656 1118.74C534.629 1118.74 528.933 1127.15 528.933 1137.53C528.933 1147.9 534.629 1156.32 541.656 1156.32Z" fill="white"/>
<path d="M628.164 1188.75V1201H502.067C502.067 1201 501.658 1194.61 501.258 1183.85H609.42C609.42 1183.85 609.987 1169.98 606.586 1158.28C610.35 1161.33 615.098 1164.73 617.524 1166.94C624.317 1173.13 628.164 1180.79 628.164 1188.75Z" fill="white"/>
<path d="M628.164 1188.75V1201H502.067C502.067 1201 501.658 1194.61 501.258 1183.85H609.42C609.42 1183.85 609.987 1169.98 606.586 1158.28C610.35 1161.33 615.098 1164.73 617.524 1166.94C624.317 1173.13 628.164 1180.79 628.164 1188.75Z" stroke="#262424" stroke-width="1.56824" stroke-miterlimit="10" stroke-linecap="round" stroke-linejoin="round"/>
<path d="M587.186 815.97L584.253 837.036L553.824 1054.84H497.233L482.714 896.62C468.848 799.585 509.558 768.03 540.787 766.223C549.172 765.749 556.905 767.408 562.683 770.549C589.882 785.274 587.186 815.97 587.186 815.97Z" fill="#000A1D"/>
<path d="M587.186 815.97L584.253 837.036C583.245 837.125 582.208 837.155 581.171 837.155C555.216 837.155 534.18 816.118 534.18 790.193C534.18 781.452 536.58 773.245 540.787 766.223C549.172 765.749 556.905 767.408 562.683 770.549C589.882 785.275 587.186 815.97 587.186 815.97Z" fill="white"/>
<path d="M540.787 766.223C549.172 765.749 556.905 767.408 562.683 770.549C589.882 785.275 587.186 815.97 587.186 815.97L584.253 837.036" stroke="#262424" stroke-width="1.56824" stroke-miterlimit="10" stroke-linecap="round" stroke-linejoin="round"/>
<path d="M533.586 823.31L528.933 1029.68" stroke="#262424" stroke-width="1.56824" stroke-miterlimit="10" stroke-linecap="round" stroke-linejoin="round"/>
<path d="M480.975 840.177L533.585 823.31" stroke="#262424" stroke-width="1.56824" stroke-miterlimit="10" stroke-linecap="round" stroke-linejoin="round"/>
<path d="M504.889 1036.37H549.596" stroke="#262424" stroke-width="1.56824" stroke-miterlimit="10" stroke-linecap="round" stroke-linejoin="round"/>
<path d="M223.026 508.51L221.59 470.914L247.318 472.798L252.439 502.757L223.026 508.51Z" fill="white" stroke="#262424" stroke-width="1.56824" stroke-miterlimit="10" stroke-linecap="round" stroke-linejoin="round"/>
<path d="M232.673 464.643C232.673 464.643 248.252 479.745 266.189 476.236C284.125 472.728 283.081 396.39 249.942 396.401C216.802 396.413 203.539 436.726 232.673 464.643Z" fill="white" stroke="#262424" stroke-width="1.56824" stroke-miterlimit="10" stroke-linecap="round" stroke-linejoin="round"/>
<path d="M266.81 437.449C266.81 437.449 260.581 423.359 250.959 429.029C241.336 434.699 245.185 451.148 253.555 454.403L247.318 472.798L221.853 477.779C221.853 477.779 195.933 454.311 190.111 437.459C184.29 420.606 200.742 415.967 200.742 415.967C200.742 415.967 200.869 400.476 212.524 395.514C224.178 390.551 258.987 391.002 258.987 391.002C258.987 391.002 263.463 379.395 268.958 378.438C274.452 377.482 276.568 388.905 276.568 388.905C276.568 388.905 281.922 378.151 286.925 380.132C291.929 382.112 291.92 422.003 268.078 419.328C268.078 419.328 274.196 434.465 266.81 437.449Z" fill="#262424"/>
<path d="M201.45 514.387C201.45 514.387 204.95 494.764 232.311 489.412C259.671 484.061 273.752 505.216 273.752 505.216L202.386 519.175L201.45 514.387Z" fill="white" stroke="#262424" stroke-width="1.56824" stroke-miterlimit="10" stroke-linecap="round" stroke-linejoin="round"/>
<path d="M399.939 798.537C389.273 804.761 378.167 810.144 366.808 814.761L359.699 778.417C359.251 776.128 357.914 774.23 356.124 773.018C354.326 771.817 352.065 771.293 349.776 771.741C345.188 772.638 342.193 777.078 343.091 781.666L350.738 820.764C247.943 855.918 131.695 835.855 131.695 835.855C121.286 642.202 154.802 526.428 154.802 526.428C203.781 504.282 343.29 489.56 343.29 489.56C369.381 610.074 399.939 798.537 399.939 798.537Z" fill="#FF1B46"/>
<path d="M152.934 533.573C149.482 547.551 141.946 581.708 136.386 633.076L132.024 684.778" stroke="#262424" stroke-width="1.56824" stroke-miterlimit="10" stroke-linecap="round" stroke-linejoin="round"/>
<path d="M226.624 526.902C226.624 526.902 204.098 649.357 229.31 807.296" stroke="#262424" stroke-width="1.56824" stroke-miterlimit="10" stroke-linecap="round" stroke-linejoin="round"/>
<path d="M368.926 795.741C375.453 793.471 382.08 791.03 388.801 788.408" stroke="#262424" stroke-width="1.56824" stroke-miterlimit="10" stroke-linecap="round" stroke-linejoin="round"/>
<path d="M143.277 817.233C143.277 817.233 222.285 838.817 340.616 804.74" stroke="#262424" stroke-width="1.56824" stroke-miterlimit="10" stroke-linecap="round" stroke-linejoin="round"/>
<path d="M553.587 417.789L538.633 393.507C534.008 386.706 531.239 378.814 530.602 370.614L529.244 353.137C529.051 350.653 531.045 348.546 533.536 348.601C535.149 348.637 536.6 349.591 537.271 351.058L546.273 370.727L547.215 345.97L551.751 317.124C552.193 314.314 554.752 312.338 557.583 312.621C560.257 312.888 562.321 315.095 562.408 317.782L563.382 347.612C563.43 349.098 564.562 350.324 566.04 350.489C567.628 350.666 569.075 349.565 569.328 347.987L573.369 322.731C574.038 318.55 578.801 316.455 582.336 318.788L598.91 329.728C602.487 332.089 604.593 336.128 604.482 340.413L603.464 368.892C603.288 373.799 602.325 378.646 600.609 383.247L582.57 432.388L553.587 417.789Z" fill="white" stroke="#262424" stroke-width="1.56824" stroke-miterlimit="10" stroke-linecap="round" stroke-linejoin="round"/>
<path d="M306.787 539.006C309.145 520.384 319.774 497.728 341.982 489.737C378.439 487.661 467.05 485.295 467.05 485.295C467.05 485.295 516.353 438.545 545.797 407.923L588.992 426.031C588.992 426.031 566.829 476.464 543.967 526.521C538.362 538.781 532.674 550.76 527.177 561.587C527.177 561.587 513.567 568.602 492.066 577.477C456.241 592.272 398.491 612.23 345.32 613.457C345.32 613.457 299.377 597.506 306.787 539.006Z" fill="#FF1B46"/>
<path d="M345.32 613.456C345.32 613.456 299.377 597.505 306.787 539.006C308.74 523.582 316.367 505.391 331.547 495.057" stroke="#262424" stroke-width="1.56824" stroke-miterlimit="10" stroke-linecap="round" stroke-linejoin="round"/>
<path d="M574.539 438.652C577.131 438.652 579.233 436.551 579.233 433.958C579.233 431.366 577.131 429.264 574.539 429.264C571.946 429.264 569.845 431.366 569.845 433.958C569.845 436.551 571.946 438.652 574.539 438.652Z" fill="white" stroke="#262424" stroke-width="1.56824" stroke-miterlimit="10" stroke-linecap="round" stroke-linejoin="round"/>
<path d="M506.715 535.682C518.587 526.041 533.057 522.904 543.967 526.521C538.362 538.781 532.674 550.761 527.177 561.587C527.177 561.587 513.567 568.603 492.066 577.477C486.406 565.029 492.208 547.464 506.715 535.682Z" fill="white"/>
<path d="M505.48 525.572L471.165 488.672" stroke="#262424" stroke-width="1.56824" stroke-miterlimit="10" stroke-linecap="round" stroke-linejoin="round"/>
<path d="M576.011 447.25L536.856 429.22" stroke="#262424" stroke-width="1.56824" stroke-miterlimit="10" stroke-linecap="round" stroke-linejoin="round"/>
<path d="M947.57 1144.03C936.978 1144.03 927.404 1148.33 920.479 1155.26C913.531 1162.19 909.254 1171.78 909.254 1182.35C909.254 1171.78 904.976 1162.19 898.028 1155.26C891.103 1148.33 881.529 1144.03 870.938 1144.03C881.529 1144.03 891.103 1139.73 898.028 1132.81C904.976 1125.88 909.254 1116.29 909.254 1105.72C909.254 1116.29 913.531 1125.88 920.479 1132.81C927.404 1139.73 936.978 1144.03 947.57 1144.03Z" fill="#FF1B46"/>
<path d="M64.6565 993.305C60.5946 993.305 56.9232 994.954 54.2674 997.61C51.6029 1000.27 49.9625 1003.95 49.9625 1008C49.9625 1003.95 48.3222 1000.27 45.6576 997.61C43.0018 994.954 39.3305 993.305 35.2686 993.305C39.3305 993.305 43.0018 991.656 45.6576 989C48.3222 986.344 49.9625 982.664 49.9625 978.611C49.9625 982.664 51.6029 986.344 54.2674 989C56.9232 991.656 60.5946 993.305 64.6565 993.305Z" fill="#FF1B46"/>
<path d="M185.846 191.564C177.562 191.564 170.076 194.927 164.66 200.343C159.226 205.759 155.881 213.263 155.881 221.529C155.881 213.263 152.535 205.759 147.102 200.343C141.686 194.927 134.199 191.564 125.916 191.564C134.199 191.564 141.686 188.201 147.102 182.785C152.535 177.369 155.881 169.865 155.881 161.599C155.881 169.865 159.226 177.369 164.66 182.785C170.076 188.201 177.562 191.564 185.846 191.564Z" fill="#000A1D"/>
<path d="M788.098 1017.27C782.802 1017.27 778.016 1019.42 774.553 1022.88C771.079 1026.34 768.94 1031.14 768.94 1036.43C768.94 1031.14 766.802 1026.34 763.328 1022.88C759.865 1019.42 755.078 1017.27 749.782 1017.27C755.078 1017.27 759.865 1015.12 763.328 1011.66C766.802 1008.19 768.94 1003.4 768.94 998.11C768.94 1003.4 771.079 1008.19 774.553 1011.66C778.016 1015.12 782.802 1017.27 788.098 1017.27Z" fill="#000A1D"/>
<path d="M57.8909 482.028C53.7695 482.028 50.0444 483.702 47.3497 486.396C44.6462 489.091 42.9818 492.825 42.9818 496.937C42.9818 492.825 41.3174 489.091 38.6139 486.396C35.9192 483.702 32.1941 482.028 28.0728 482.028C32.1941 482.028 35.9192 480.355 38.6139 477.66C41.3174 474.966 42.9818 471.232 42.9818 467.119C42.9818 471.232 44.6462 474.966 47.3497 477.66C50.0444 480.355 53.7695 482.028 57.8909 482.028Z" fill="#FF1B46"/>
<path d="M1031.4 1017.27C1035.02 1017.27 1037.94 1014.34 1037.94 1010.73C1037.94 1007.12 1035.02 1004.19 1031.4 1004.19C1027.79 1004.19 1024.86 1007.12 1024.86 1010.73C1024.86 1014.34 1027.79 1017.27 1031.4 1017.27Z" fill="#000A1D"/>
<path d="M1551.46 1130C1556.64 1130 1560.84 1125.8 1560.84 1120.62C1560.84 1115.44 1556.64 1111.24 1551.46 1111.24C1546.27 1111.24 1542.07 1115.44 1542.07 1120.62C1542.07 1125.8 1546.27 1130 1551.46 1130Z" fill="#FF1B46"/>
</svg>
