<svg width="800" height="726" viewBox="0 0 800 726" fill="none" xmlns="http://www.w3.org/2000/svg">
<g clip-path="url(#clip0)">
<path d="M310.411 18.1878L313.557 13.3262C312.624 10.7493 311.546 8.22698 310.33 5.77137L308.295 7.41431L309.906 4.92519C308.371 1.9037 307.163 0 307.163 0C307.163 0 300.854 9.94178 298.747 20.4679L302.783 26.7064L298.315 23.097C298.155 24.3231 298.073 25.5581 298.069 26.7945C298.069 39.2609 302.141 49.3669 307.163 49.3669C312.186 49.3669 316.257 39.2609 316.257 26.7945C316.163 22.8283 315.461 18.8999 314.177 15.1463L310.411 18.1878Z" fill="#E6E6E6"/>
<path d="M332.676 28.9932L338.338 27.7799C339.5 25.2981 340.522 22.7527 341.398 20.1558L338.798 19.8792L341.697 19.258C342.748 16.0361 343.24 13.8359 343.24 13.8359C343.24 13.8359 331.749 16.4048 322.816 22.3574L321.259 29.6231L320.651 23.911C319.671 24.6654 318.74 25.4808 317.863 26.3522C309.048 35.1673 304.781 45.1923 308.332 48.7437C311.884 52.295 321.909 48.028 330.724 39.2129C333.462 36.3418 335.743 33.0679 337.489 29.5053L332.676 28.9932Z" fill="#E6E6E6"/>
<path d="M334.745 77.2319C321.615 78.0717 307.309 77.183 292.09 77.2319V42.3867C305.501 44.4744 319.802 44.26 334.745 42.3867V77.2319Z" fill="#E6E6E6"/>
<path d="M428.676 104.408L430.728 101.237C430.12 99.5569 429.417 97.912 428.623 96.3106L427.297 97.3821L428.347 95.7588C427.346 93.7884 426.558 92.5469 426.558 92.5469C424.031 96.6762 422.178 101.182 421.07 105.895L423.702 109.963L420.788 107.609C420.684 108.409 420.631 109.214 420.628 110.021C420.628 118.151 423.283 124.741 426.558 124.741C429.834 124.741 432.489 118.151 432.489 110.021C432.428 107.434 431.97 104.872 431.132 102.424L428.676 104.408Z" fill="#E6E6E6"/>
<path d="M443.198 111.451L446.891 110.66C447.649 109.041 448.315 107.381 448.886 105.688L447.191 105.507L449.081 105.102C449.767 103.001 450.088 101.566 450.088 101.566C445.381 102.699 440.884 104.575 436.768 107.124L435.753 111.862L435.356 108.137C434.717 108.629 434.11 109.161 433.538 109.729C427.79 115.477 425.007 122.015 427.323 124.331C429.639 126.647 436.177 123.864 441.925 118.116C443.711 116.243 445.199 114.108 446.337 111.785L443.198 111.451Z" fill="#E6E6E6"/>
<path d="M444.546 142.911C435.983 143.459 426.654 142.88 416.729 142.911V120.188C425.956 121.48 435.318 121.48 444.546 120.188V142.911Z" fill="#E6E6E6"/>
<path d="M439.259 210.257C431.698 210.74 423.46 210.229 414.696 210.257V190.191C422.844 191.333 431.111 191.333 439.259 190.191V210.257Z" fill="#E6E6E6"/>
<path d="M482.401 74.7852H151.876V84.0177H482.401V74.7852Z" fill="#E6E6E6"/>
<path d="M482.401 140.332H151.876V149.565H482.401V140.332Z" fill="#E6E6E6"/>
<path d="M482.401 205.887H151.876V215.119H482.401V205.887Z" fill="#E6E6E6"/>
<path d="M427.005 197.575C437.203 197.575 445.47 189.308 445.47 179.11C445.47 168.912 437.203 160.645 427.005 160.645C416.807 160.645 408.54 168.912 408.54 179.11C408.54 189.308 416.807 197.575 427.005 197.575Z" fill="#E6E6E6"/>
<path d="M595.951 144.689C604.109 144.689 610.723 138.075 610.723 129.917C610.723 121.758 604.109 115.145 595.951 115.145C587.792 115.145 581.179 121.758 581.179 129.917C581.179 138.075 587.792 144.689 595.951 144.689Z" fill="white"/>
<path d="M595.951 133.609C597.99 133.609 599.644 131.955 599.644 129.916C599.644 127.876 597.99 126.223 595.951 126.223C593.911 126.223 592.258 127.876 592.258 129.916C592.258 131.955 593.911 133.609 595.951 133.609Z" fill="#E6E6E6"/>
<path d="M608.875 130.843V128.996H594.104V130.843H608.875Z" fill="#E6E6E6"/>
<path d="M595.026 131.762H596.873V116.99H595.026V131.762Z" fill="#E6E6E6"/>
<path d="M320.238 95.2969H308.021V143.658H320.238V95.2969Z" fill="#E6E6E6"/>
<path d="M320.238 102.934H308.021V108.533H320.238V102.934Z" fill="#CCCCCC"/>
<path d="M320.238 127.367H308.021V132.967H320.238V127.367Z" fill="#CCCCCC"/>
<path d="M301.402 95.2969H289.185V143.658H301.402V95.2969Z" fill="#E6E6E6"/>
<path d="M301.402 102.934H289.185V108.533H301.402V102.934Z" fill="#CCCCCC"/>
<path d="M301.402 127.367H289.185V132.967H301.402V127.367Z" fill="#CCCCCC"/>
<path d="M330.764 95.0947L319.814 100.516L341.272 143.856L352.221 138.435L330.764 95.0947Z" fill="#E6E6E6"/>
<path d="M334.153 101.939L323.204 107.359L325.689 112.378L336.638 106.957L334.153 101.939Z" fill="#CCCCCC"/>
<path d="M344.994 123.837L334.045 129.258L336.529 134.276L347.478 128.855L344.994 123.837Z" fill="#CCCCCC"/>
<path d="M211.294 160.848H199.076V209.209H211.294V160.848Z" fill="#E6E6E6"/>
<path d="M211.294 168.484H199.076V174.084H211.294V168.484Z" fill="#CCCCCC"/>
<path d="M211.294 192.918H199.076V198.518H211.294V192.918Z" fill="#CCCCCC"/>
<path d="M192.459 160.848H180.241V209.209H192.459V160.848Z" fill="#E6E6E6"/>
<path d="M192.459 168.484H180.241V174.084H192.459V168.484Z" fill="#CCCCCC"/>
<path d="M192.459 192.918H180.241V198.518H192.459V192.918Z" fill="#CCCCCC"/>
<path d="M221.821 160.646L210.872 166.066L232.329 209.406L243.278 203.986L221.821 160.646Z" fill="#E6E6E6"/>
<path d="M225.209 167.489L214.26 172.91L216.744 177.928L227.693 172.508L225.209 167.489Z" fill="#CCCCCC"/>
<path d="M236.05 189.388L225.101 194.809L227.585 199.827L238.534 194.406L236.05 189.388Z" fill="#CCCCCC"/>
<path d="M325.777 160.848H313.56V209.209H325.777V160.848Z" fill="#E6E6E6"/>
<path d="M325.777 168.484H313.56V174.084H325.777V168.484Z" fill="#CCCCCC"/>
<path d="M325.777 192.918H313.56V198.518H325.777V192.918Z" fill="#CCCCCC"/>
<path d="M306.942 160.848H294.725V209.209H306.942V160.848Z" fill="#E6E6E6"/>
<path d="M306.942 168.484H294.725V174.084H306.942V168.484Z" fill="#CCCCCC"/>
<path d="M306.942 192.918H294.725V198.518H306.942V192.918Z" fill="#CCCCCC"/>
<path d="M336.303 160.646L325.354 166.066L346.812 209.406L357.76 203.986L336.303 160.646Z" fill="#E6E6E6"/>
<path d="M339.691 167.489L328.742 172.91L331.227 177.928L342.176 172.508L339.691 167.489Z" fill="#CCCCCC"/>
<path d="M350.532 189.388L339.583 194.809L342.068 199.827L353.017 194.406L350.532 189.388Z" fill="#CCCCCC"/>
<path d="M622.482 230.293H573.924V278.851H622.482V230.293Z" fill="#E6E6E6"/>
<path d="M612.769 240.004H583.635V269.139H612.769V240.004Z" fill="#CCCCCC"/>
<path d="M592.068 249.785L598.246 260.485L604.423 271.184H592.068H579.713L585.891 260.485L592.068 249.785Z" fill="#E6E6E6"/>
<path d="M602.802 251.828L608.981 262.528L615.158 273.227H602.802H590.447L596.625 262.528L602.802 251.828Z" fill="#E6E6E6"/>
<path d="M607.146 248.691C609.122 248.691 610.724 247.089 610.724 245.113C610.724 243.137 609.122 241.535 607.146 241.535C605.17 241.535 603.568 243.137 603.568 245.113C603.568 247.089 605.17 248.691 607.146 248.691Z" fill="#E6E6E6"/>
<path d="M83.9171 242.078H35.3594V290.636H83.9171V242.078Z" fill="#E6E6E6"/>
<path d="M74.205 251.789H45.0703V280.924H74.205V251.789Z" fill="#CCCCCC"/>
<path d="M53.5047 261.57L59.6818 272.27L65.8599 282.97H53.5047H41.1494L47.3266 272.27L53.5047 261.57Z" fill="#E6E6E6"/>
<path d="M64.2381 263.613L70.4152 274.313L76.5924 285.013H64.2381H51.8828L58.06 274.313L64.2381 263.613Z" fill="#E6E6E6"/>
<path d="M68.5828 260.476C70.5589 260.476 72.1608 258.874 72.1608 256.898C72.1608 254.922 70.5589 253.32 68.5828 253.32C66.6068 253.32 65.0049 254.922 65.0049 256.898C65.0049 258.874 66.6068 260.476 68.5828 260.476Z" fill="#E6E6E6"/>
<path d="M64.8252 360.715L67.9709 355.854C67.038 353.277 65.9605 350.754 64.7436 348.299L62.7094 349.942L64.3201 347.453C62.7851 344.431 61.5773 342.527 61.5773 342.527C61.5773 342.527 55.2685 352.469 53.1607 362.995L57.1974 369.234L52.7286 365.624C52.5694 366.85 52.4875 368.085 52.4834 369.322C52.4834 381.788 56.5549 391.894 61.5773 391.894C66.5998 391.894 70.6713 381.788 70.6713 369.322C70.5771 365.356 69.8755 361.427 68.5909 357.674L64.8252 360.715Z" fill="#3EAA7C"/>
<path d="M87.0908 371.525L92.7529 370.311C93.9154 367.829 94.9371 365.284 95.8129 362.687L93.2128 362.41L96.1118 361.789C97.1629 358.567 97.655 356.367 97.655 356.367C97.655 356.367 86.1641 358.936 77.2306 364.889L75.6737 372.154L75.066 366.442C74.0864 367.197 73.1552 368.012 72.278 368.883C63.463 377.699 59.1959 387.724 62.7473 391.275C66.2987 394.826 76.3237 390.559 85.1388 381.744C87.8767 378.873 90.1584 375.599 91.9043 372.037L87.0908 371.525Z" fill="#3EAA7C"/>
<path d="M89.1592 419.763C76.0295 420.603 61.7233 419.714 46.5039 419.763V384.918C59.9147 387.006 74.2161 386.791 89.1592 384.918V419.763Z" fill="#3F3D56"/>
<path d="M631.506 430.699H454.241V660.59H631.506V430.699Z" fill="#E6E6E6"/>
<path d="M93.2492 442.703H84.0166V660.591H93.2492V442.703Z" fill="#E6E6E6"/>
<path d="M631.506 415.004H0V433.469H631.506V415.004Z" fill="#E6E6E6"/>
<path d="M97.8655 433.469H79.4004V451.934H97.8655V433.469Z" fill="#E6E6E6"/>
<path d="M556.839 444.086L555.799 448.241H529.948L528.391 444.086H462.551V486.556H623.197V444.086H556.839Z" fill="#3F3D56"/>
<path d="M556.839 497.633L555.799 501.787H529.948L528.391 497.633H462.551V540.102H623.197V497.633H556.839Z" fill="#3F3D56"/>
<path d="M556.839 551.184L555.799 555.338H529.948L528.391 551.184H462.551V593.653H623.197V551.184H556.839Z" fill="#3F3D56"/>
<path d="M556.839 604.734L555.799 608.889H529.948L528.391 604.734H462.551V647.204H623.197V604.734H556.839Z" fill="#3F3D56"/>
<path d="M342.528 412.231H288.056L289.902 388.227H340.681L342.528 412.231Z" fill="#E6E6E6"/>
<path d="M346.221 409.465H285.286V415.004H346.221V409.465Z" fill="#E6E6E6"/>
<path d="M419.619 233.582H211.425C209.956 233.582 208.547 234.166 207.508 235.205C206.469 236.243 205.886 237.652 205.886 239.122V366.069H425.159V239.122C425.159 237.652 424.575 236.243 423.536 235.205C422.497 234.166 421.088 233.582 419.619 233.582Z" fill="#3F3D56"/>
<path d="M205.886 366.07V386.844C205.886 388.313 206.469 389.722 207.508 390.761C208.547 391.799 209.956 392.383 211.425 392.383H419.619C421.088 392.383 422.497 391.799 423.536 390.761C424.575 389.722 425.159 388.313 425.159 386.844V366.07H205.886Z" fill="#E6E6E6"/>
<path d="M414.542 245.125H216.966V355.916H414.542V245.125Z" fill="white"/>
<path d="M315.752 384.536C318.812 384.536 321.292 382.056 321.292 378.997C321.292 375.937 318.812 373.457 315.752 373.457C312.693 373.457 310.213 375.937 310.213 378.997C310.213 382.056 312.693 384.536 315.752 384.536Z" fill="#E6E6E6"/>
<path d="M784.306 659.205C764.129 660.496 742.143 659.13 718.755 659.205V605.656C739.364 608.865 761.342 608.535 784.306 605.656V659.205Z" fill="#3F3D56"/>
<path d="M753.838 610.462H748.298L750.145 502.25H751.991L753.838 610.462Z" fill="#3F3D56"/>
<path d="M778.765 611.194H773.226L775.073 502.98H776.918L778.765 611.194Z" fill="#3F3D56"/>
<path d="M731.679 611.194H726.14L727.987 502.98H729.833L731.679 611.194Z" fill="#3F3D56"/>
<path d="M758.454 433.007L767.396 419.187C764.744 411.861 761.681 404.691 758.222 397.711L752.439 402.381L757.018 395.305C752.655 386.716 749.221 381.305 749.221 381.305C749.221 381.305 731.287 409.566 725.295 439.488L736.77 457.223L724.067 446.962C723.615 450.448 723.382 453.958 723.37 457.473C723.37 492.911 734.944 521.639 749.221 521.639C763.498 521.639 775.072 492.911 775.072 457.473C775.072 446.487 772.587 434.993 769.158 424.361L758.454 433.007Z" fill="#E6E6E6"/>
<path d="M783.381 434.851L792.324 421.031C789.672 413.705 786.609 406.535 783.15 399.555L777.367 404.225L781.946 397.149C777.582 388.56 774.149 383.148 774.149 383.148C774.149 383.148 756.215 411.41 750.223 441.332L761.698 459.066L748.995 448.806C748.542 452.291 748.31 455.802 748.298 459.317C748.298 494.755 759.872 523.483 774.149 523.483C788.426 523.483 800 494.755 800 459.317C800 448.331 797.515 436.837 794.086 426.205L783.381 434.851Z" fill="#3EAA7C"/>
<path d="M736.296 434.851L745.238 421.031C742.586 413.705 739.523 406.535 736.064 399.555L730.281 404.225L734.86 397.149C730.496 388.56 727.063 383.148 727.063 383.148C727.063 383.148 709.129 411.41 703.137 441.332L714.612 459.066L701.909 448.806C701.456 452.291 701.224 455.802 701.212 459.317C701.212 494.755 712.786 523.483 727.063 523.483C741.34 523.483 752.914 494.755 752.914 459.317C752.914 448.331 750.429 436.837 747 426.205L736.296 434.851Z" fill="#3EAA7C"/>
<path d="M334.308 276.398H281.035V279.456H334.308V276.398Z" fill="#3F3D56"/>
<path d="M363.3 287.551H281.035V290.609H363.3V287.551Z" fill="#3EAA7C"/>
<path d="M348.079 298.062H281.035V301.121H348.079V298.062Z" fill="#3EAA7C"/>
<path d="M320.174 308.531H281.035V311.589H320.174V308.531Z" fill="#3F3D56"/>
<path d="M340.106 319H281.035V322.058H340.106V319Z" fill="#3F3D56"/>
<path d="M263.279 275.312H256.756V281.836H263.279V275.312Z" fill="#3F3D56"/>
<path d="M263.279 285.82H256.756V292.344H263.279V285.82Z" fill="#3EAA7C"/>
<path d="M263.279 296.328H256.756V302.851H263.279V296.328Z" fill="#3EAA7C"/>
<path d="M263.279 306.84H256.756V313.363H263.279V306.84Z" fill="#3F3D56"/>
<path d="M263.279 317.348H256.756V323.871H263.279V317.348Z" fill="#3F3D56"/>
<path d="M405.388 270.609H377.433C375.525 259.58 375.525 248.306 377.433 237.277H405.388C402.239 248.165 402.239 259.722 405.388 270.609Z" fill="#3EAA7C"/>
<path d="M130.637 680.35L126.273 678.847L168.547 553.281L174.658 555.387L130.637 680.35Z" fill="#3F3D56"/>
<path d="M292.213 680.35L296.578 678.847L254.303 553.281L248.193 555.387L292.213 680.35Z" fill="#3F3D56"/>
<path d="M202.886 706.282L207.502 706.298L208.936 559.515L202.474 559.492L202.886 706.282Z" fill="#3F3D56"/>
<path d="M119.953 479.501L132.616 530.679C134.389 537.845 138.081 544.394 143.295 549.621C148.509 554.848 155.049 558.556 162.211 560.346H162.212C197.525 569.175 234.498 568.937 269.695 559.654L288.6 554.668C299.585 551.771 307.846 542.336 308.627 531.002C308.944 526.996 308.219 522.975 306.521 519.332C306.447 519.175 306.373 519.019 306.298 518.865C303.833 513.801 300.029 509.507 295.299 506.448C290.569 503.39 285.093 501.683 279.463 501.513L259.435 500.867L186.498 468.553C186.498 468.553 161.413 455.811 140.791 454.385C127.172 453.443 116.674 466.249 119.953 479.501Z" fill="#FFD200"/>
<path d="M564.571 318.523H492.557V416.388H564.571V318.523Z" fill="#E6E6E6"/>
<path d="M556.26 329.816H500.865V405.097H556.26V329.816Z" fill="white"/>
<path d="M549.506 349.516H522.667V352.574H549.506V349.516Z" fill="#3F3D56"/>
<path d="M514.143 347.82H507.62V354.343H514.143V347.82Z" fill="#3F3D56"/>
<path d="M549.506 362.441H522.667V365.499H549.506V362.441Z" fill="#3F3D56"/>
<path d="M514.143 360.746H507.62V367.269H514.143V360.746Z" fill="#3F3D56"/>
<path d="M549.506 375.367H522.667V378.425H549.506V375.367Z" fill="#3F3D56"/>
<path d="M514.143 373.676H507.62V380.199H514.143V373.676Z" fill="#3F3D56"/>
<path d="M531.334 324.063C531.334 322.533 530.094 321.293 528.565 321.293C527.035 321.293 525.795 322.533 525.795 324.063C525.795 325.592 527.035 326.833 528.565 326.833C530.094 326.833 531.334 325.592 531.334 324.063Z" fill="#3F3D56"/>
<path fill-rule="evenodd" clip-rule="evenodd" d="M594.41 577.634C572.66 583.718 553.894 586.759 538.113 586.759C522.332 586.759 507.674 582.075 494.139 572.706C515.424 566.462 532.953 563.34 546.726 563.34C560.499 563.34 576.394 568.105 594.41 577.634Z" fill="#1F28CF"/>
<path fill-rule="evenodd" clip-rule="evenodd" d="M564.94 437.25C566.579 462.493 565.615 481.757 562.048 495.042H574.976C573.201 474.655 570.068 455.39 564.94 437.25Z" fill="black" fill-opacity="0.1"/>
<path fill-rule="evenodd" clip-rule="evenodd" d="M477.625 495.602C475.834 510.585 472.923 521.46 468.893 528.226H490.024C486.089 519.049 481.956 508.174 477.625 495.602Z" fill="black" fill-opacity="0.1"/>
<path fill-rule="evenodd" clip-rule="evenodd" d="M207.938 386.687C203.581 381.572 200.632 375.305 201.125 368.282C202.545 348.046 230.713 352.498 236.193 362.711C241.672 372.924 241.021 398.831 233.939 400.656C231.115 401.384 225.099 399.601 218.976 395.91L222.819 423.1H200.126L207.938 386.687Z" fill="#F6C3A3"/>
<path fill-rule="evenodd" clip-rule="evenodd" d="M246.247 348.553C245.777 346.901 244.513 345.487 242.809 345.067C242.396 344.966 241.969 344.924 241.544 344.942C241.392 344.948 241.349 344.992 241.278 344.885C241.225 344.806 241.224 344.613 241.202 344.52C241.134 344.231 241.05 343.946 240.945 343.668C240.589 342.72 239.99 341.881 239.268 341.175C237.917 339.853 236.092 338.94 234.196 338.775C233.159 338.685 232.129 338.854 231.148 339.191C230.64 339.366 230.147 339.584 229.668 339.824C229.523 339.897 229.055 340.251 228.91 340.228C228.75 340.203 228.428 339.805 228.298 339.705C226.689 338.471 224.702 337.986 222.698 338C220.437 338.017 218.259 338.13 216.372 339.509C215.973 339.801 215.593 340.121 215.231 340.457C215.04 340.634 214.855 340.818 214.679 341.009C214.573 341.125 214.469 341.243 214.37 341.364C214.201 341.57 214.228 341.638 213.991 341.494C213.083 340.943 212.031 340.685 210.972 340.815C210.342 340.892 209.73 341.081 209.149 341.33C208.951 341.414 208.493 341.752 208.282 341.755C208.073 341.759 207.621 341.446 207.406 341.366C206.241 340.936 204.987 340.83 203.763 341.029C202.501 341.234 201.261 341.737 200.191 342.433C199.677 342.768 199.228 343.139 198.867 343.637C198.712 343.852 198.571 344.079 198.395 344.278C198.291 344.395 198.087 344.515 198.032 344.662C198.065 344.574 196.651 344.029 196.518 343.994C195.807 343.809 195.083 343.846 194.387 344.075C193.079 344.506 191.953 345.472 191.029 346.462C190.554 346.97 190.138 347.532 189.785 348.131C189.616 348.418 189.461 348.713 189.32 349.015C189.251 349.161 189.206 349.343 189.115 349.475C188.999 349.644 188.921 349.648 188.71 349.721C187.639 350.097 186.663 350.732 185.919 351.59C185.167 352.458 184.679 353.527 184.475 354.653C184.463 354.719 184.455 354.994 184.417 355.03C184.363 355.08 184.148 355.058 184.066 355.067C183.784 355.1 183.504 355.15 183.228 355.215C182.718 355.336 182.222 355.513 181.753 355.745C179.924 356.65 178.617 358.346 177.977 360.255C177.305 362.258 177.317 364.553 178.12 366.519C178.249 366.836 178.404 367.145 178.585 367.436C178.696 367.615 178.732 367.616 178.66 367.803C178.579 368.012 178.432 368.215 178.336 368.419C178.024 369.085 177.806 369.792 177.669 370.513C177.443 371.697 177.331 372.941 177.554 374.134C177.657 374.687 177.837 375.229 178.113 375.722C178.253 375.973 178.417 376.212 178.603 376.433C178.699 376.547 178.801 376.657 178.908 376.761C178.969 376.821 179.049 376.874 179.101 376.941C179.228 377.104 179.255 376.97 179.189 377.209C179.098 377.544 178.89 377.874 178.763 378.2C178.632 378.536 178.514 378.876 178.406 379.219C178.187 379.915 178.001 380.624 177.886 381.344C177.663 382.728 177.702 384.202 178.357 385.472C178.636 386.015 179.038 386.492 179.525 386.862C179.763 387.044 180.021 387.2 180.292 387.328C180.431 387.394 180.609 387.423 180.672 387.557C180.741 387.702 180.639 387.989 180.616 388.151C180.415 389.558 180.314 391.036 180.732 392.415C181.117 393.685 181.966 394.807 183.067 395.549C185.204 396.989 188.084 396.908 190.329 395.755C190.914 395.455 191.462 395.081 191.95 394.641C193.194 396.315 195.753 396.262 197.57 395.785C199.835 395.191 201.652 393.616 202.699 391.548C204.13 393.29 207.134 392.725 208.127 390.834C208.37 390.372 208.514 389.862 208.585 389.346C208.623 389.074 208.599 388.801 208.627 388.531C208.663 388.188 208.892 387.855 209.023 387.523C209.28 386.877 209.439 386.21 209.446 385.514C209.45 385.15 209.404 384.795 209.369 384.435C209.338 384.11 209.428 383.807 209.479 383.487C208.898 383.582 208.191 383.426 207.644 383.257C207.107 383.092 206.604 382.657 206.225 382.259C205.345 381.336 204.807 380.126 204.44 378.922C203.632 376.279 203.963 373.108 206.622 371.657C207.86 370.982 211.57 370.984 213.046 371.318C214.596 371.669 216.355 375.091 216.441 375.413C216.495 375.612 216.468 375.858 216.651 375.991C217.053 376.283 217.716 375.777 218.012 375.527C218.524 375.096 218.889 374.522 219.205 373.94C219.893 372.674 220.448 371.315 220.84 369.928C221.143 368.859 221.336 367.757 221.731 366.715C222.124 365.678 222.744 364.751 223.708 364.164C224.756 363.525 225.958 363.189 227.109 362.787C228.25 362.389 229.371 361.903 230.255 361.058C230.45 360.873 230.639 360.675 230.795 360.457C230.919 360.284 231.041 359.954 231.229 359.845C231.522 359.674 231.949 360.117 232.202 360.278C233.451 361.071 234.492 362.177 235.332 363.385C236.168 364.586 236.853 365.743 237.41 367.084C237.824 368.079 238.082 369.354 238.808 370.169C239.133 370.533 241.544 370.754 242.326 370.436C243.107 370.118 243.982 369.292 244.244 368.775C244.513 368.246 244.577 367.664 244.462 367.084C244.395 366.743 244.257 366.425 244.182 366.09C244.118 365.808 244.061 365.542 243.924 365.285C243.664 364.796 243.221 364.445 242.686 364.298C243.242 363.785 243.704 363.171 244.023 362.485C244.354 361.772 244.635 360.905 244.715 360.123C244.78 359.487 244.68 358.829 244.332 358.283C243.967 357.71 243.32 357.336 242.761 356.979C243.615 356.31 244.347 355.497 244.948 354.597C246.117 352.847 246.84 350.64 246.247 348.553Z" fill="#191847"/>
<path fill-rule="evenodd" clip-rule="evenodd" d="M192.634 501.347L238.098 621.649L269.965 710.318H288.136L244.331 501.347H192.634Z" fill="#B60238"/>
<path fill-rule="evenodd" clip-rule="evenodd" d="M181.396 501.347C180.902 542.625 181.259 598.199 180.108 600.772C179.34 602.488 155.463 622.032 108.477 659.406L117.843 675.332C173.626 639.358 202.944 618.975 205.796 614.182C210.074 606.993 231.566 540.837 242.748 501.347H181.396Z" fill="#A90536"/>
<path fill-rule="evenodd" clip-rule="evenodd" d="M91.9996 670.123L107.819 658.084L120.583 673.295C121.565 684.762 125.362 697.623 131.974 711.877L129.076 714.308L105.98 686.783L99.5266 676.151L98.0776 677.366L91.9996 670.123Z" fill="#191847"/>
<path fill-rule="evenodd" clip-rule="evenodd" d="M268.278 727.337L269.224 707.48H289.081C298.496 714.099 310.788 719.457 325.958 723.555V727.337H290.026L277.734 725.446V727.337H268.278Z" fill="#191847"/>
<path fill-rule="evenodd" clip-rule="evenodd" d="M272.78 489.387L302.942 511.535C311.123 513.742 317.957 516.489 323.446 519.774C324.742 520.956 326.309 523.348 320.933 522.935C315.556 522.521 309.881 522.328 309.139 524.162C308.397 525.996 311.651 528.189 310.152 530.664C309.152 532.313 304.428 528.177 295.981 518.254L266.113 505.869L272.78 489.387ZM156.974 490.151L176.734 490.229C164.533 529.615 157.946 550.513 156.974 552.923C154.786 558.345 159.416 566.604 161.396 571.041C154.947 573.927 155.634 563.24 147.499 567.025C140.074 570.48 134.426 576.739 125.847 571.446C124.792 570.795 123.636 568.344 126.429 566.43C133.386 561.659 143.412 553.31 144.767 550.562C146.614 546.814 150.683 526.677 156.974 490.151Z" fill="#F6C3A3"/>
<path fill-rule="evenodd" clip-rule="evenodd" d="M213.126 407.234L221.303 405.832C251.64 432.039 264.1 482.385 301.286 509.055L292.336 520.15C227.825 512.162 211.836 450.752 213.126 407.234Z" fill="#1A003A"/>
<path fill-rule="evenodd" clip-rule="evenodd" d="M177.485 509.986C210.27 509.986 234.385 509.986 249.832 509.986C253.138 509.986 252.515 505.212 252.037 502.803C246.521 475.003 224.992 445.036 224.992 405.464L204.123 402.191C186.863 429.952 180.894 464.13 177.485 509.986Z" fill="#DDE3E9"/>
<path fill-rule="evenodd" clip-rule="evenodd" d="M178.066 429.48C175.035 428.609 172.635 426.577 170.865 423.384C163.238 409.621 165.993 402.044 174.144 399.553C182.295 397.062 189.564 402.193 202.551 402.193C203.258 402.193 203.905 402.237 204.492 402.326L211.025 402.699C229.768 466.222 234.938 508.604 226.533 529.844H169.591C166.217 537.711 162.988 544.33 159.905 549.701H144.389C142.929 502.486 154.155 462.413 178.066 429.48Z" fill="#1A003A"/>
<path fill-rule="evenodd" clip-rule="evenodd" d="M399.883 371.583C396.758 383.1 392.685 408.987 396.841 413.047H423.134C423.137 413.001 423.14 412.954 423.142 412.908C432.888 411.829 440.468 403.567 440.468 393.533V374.493C440.468 363.727 431.74 355 420.974 355H419.161C409.384 355 401.288 362.197 399.883 371.583Z" fill="#191847"/>
<path fill-rule="evenodd" clip-rule="evenodd" d="M430.257 389.9C434.435 384.996 437.262 378.986 436.79 372.252C435.428 352.849 408.418 357.117 403.164 366.91C397.91 376.703 398.535 401.544 405.325 403.295C408.033 403.993 413.802 402.283 419.673 398.744L415.988 424.816H437.748L430.257 389.9Z" fill="#F6C3A3"/>
<path fill-rule="evenodd" clip-rule="evenodd" d="M424.374 386.619C423.372 397.389 423.773 409.687 426.761 412.607H453.055C454.52 387.153 440.361 397.01 440.361 373.045C439.479 372.182 438.644 371.329 437.819 370.592L437.848 369.888C433.295 360.567 427.519 355.906 420.519 355.906C410.02 355.906 406.706 360.792 403.884 364.939C405.994 372.179 414.183 373.253 421.458 377.766C422.316 377.069 423.41 376.651 424.601 376.651C427.355 376.651 429.587 378.884 429.587 381.638C429.587 384.392 427.355 386.625 424.601 386.625C424.525 386.625 424.449 386.623 424.374 386.619Z" fill="#191847"/>
<path fill-rule="evenodd" clip-rule="evenodd" d="M397.611 606.894C397.821 606.579 397.998 606.236 398.139 605.865C401.046 598.176 447.614 515.231 452.254 500.066H399.824C396.297 511.596 380.421 583.951 378.186 598.387C371.137 621.159 356.622 694.906 354.769 700.015C352.82 705.39 363.788 710.989 366.71 704.381C371.361 693.868 382.441 664.777 387.375 647.015C392 630.362 395.766 615.381 397.611 606.894Z" fill="#BA8B72"/>
<path fill-rule="evenodd" clip-rule="evenodd" d="M440.505 617.021C461.796 622.402 539.671 632.13 545.015 633.656C550.513 635.226 555.333 623.894 548.538 621.44C537.725 617.534 507.933 608.51 489.869 604.827C475.34 601.865 462.082 599.448 453.181 598.032C453.935 573.029 457.382 513.026 455.123 500.066H408.733C410.899 512.494 429.214 603.171 432.619 612.248C433.699 615.488 436.922 616.92 440.505 617.021Z" fill="#D4A181"/>
<path fill-rule="evenodd" clip-rule="evenodd" d="M548.044 618.423C550.887 617.894 552.97 617.746 554.294 617.98C555.904 618.264 558.207 618.946 561.201 620.027C560.872 621.895 557.912 638.682 552.321 670.388C547.764 670.934 545.561 669.767 545.713 666.886C545.866 664.006 545.967 661.609 546.018 659.695L539.71 634.447C539.589 633.962 539.884 633.469 540.37 633.348C540.378 633.346 540.387 633.344 540.395 633.342L544.31 632.481C545.988 630.086 546.971 628.072 547.259 626.44C547.493 625.114 547.28 623.188 546.621 620.663C546.368 619.694 546.949 618.704 547.918 618.451C547.96 618.44 548.002 618.431 548.044 618.423Z" fill="white"/>
<path fill-rule="evenodd" clip-rule="evenodd" d="M370.038 703.523C371.052 706.231 371.559 708.257 371.559 709.601C371.559 711.236 371.287 713.622 370.742 716.758C368.846 716.758 351.8 716.758 319.604 716.758C318.275 712.365 319.042 709.993 321.906 709.643C324.769 709.293 327.147 708.977 329.041 708.694L352.809 698.098C353.267 697.894 353.803 698.1 354.007 698.557C354.01 698.565 354.014 698.573 354.017 698.581L355.545 702.287C358.195 703.523 360.349 704.142 362.006 704.142C363.352 704.142 365.212 703.598 367.584 702.511C368.495 702.093 369.571 702.493 369.988 703.403C370.006 703.443 370.023 703.482 370.038 703.523Z" fill="white"/>
<path fill-rule="evenodd" clip-rule="evenodd" d="M454.973 500.066C434.53 494.217 415.188 494.217 396.946 500.066C390.599 529.023 375.177 540.516 372.465 584.912C403.292 600.229 441.373 573.988 473.106 588.925C482.173 568.031 469.48 517.714 454.973 500.066Z" fill="#3EAA7C"/>
<path fill-rule="evenodd" clip-rule="evenodd" d="M367.027 464.081L331.229 459.197C324.068 455.214 317.48 452.518 311.465 451.108C309.773 451.059 307.08 451.674 311.091 455.018C315.102 458.362 319.172 462.061 318.458 463.845C317.743 465.63 314.013 464.966 313.395 467.711C312.983 469.541 319.037 469.838 331.557 468.603L360.604 480.119L367.027 464.081ZM479.482 472.366L459.628 472.441C481.398 521.432 492.749 547.083 493.682 549.394C495.78 554.593 491.34 562.512 489.442 566.767C495.625 569.534 494.966 559.287 502.767 562.916C509.887 566.228 515.303 572.23 523.529 567.154C524.54 566.53 525.648 564.181 522.971 562.345C516.299 557.771 506.686 549.765 505.387 547.13C503.616 543.536 494.981 518.615 479.482 472.366Z" fill="#D4A181"/>
<path fill-rule="evenodd" clip-rule="evenodd" d="M425.099 409.396L409.554 410.432C405.726 445.068 384.873 466.945 338.184 459.539L331.981 504.142C375.619 509.782 413.89 492.311 421.733 445.009C423.763 432.764 425.366 420.02 425.099 409.396Z" fill="#89DEE3"/>
<path fill-rule="evenodd" clip-rule="evenodd" d="M432.769 404.878L409.217 410.272C409.217 450.781 396.313 476.627 389.694 506.411H453.303C454.199 516.702 454.749 527.28 455.036 538.144H502.664C491.871 480.719 469.091 436.292 434.324 404.863H432.782L432.769 404.878Z" fill="#99F2F8"/>
</g>
<defs>
<clipPath id="clip0">
<rect width="800" height="726" fill="white"/>
</clipPath>
</defs>
</svg>
