<svg width="900" height="900" viewBox="0 0 900 900" fill="none" xmlns="http://www.w3.org/2000/svg">
<path d="M378.375 507.265C378.375 506.03 379.377 505.029 380.611 505.029H405.76C406.995 505.029 407.996 506.03 407.996 507.265V532.413C407.996 533.648 406.995 534.649 405.76 534.649H380.611C379.377 534.649 378.375 533.648 378.375 532.413V507.265Z" fill="url(#paint0_linear)"/>
<path d="M392.148 528.503C391.78 528.503 391.432 528.331 391.207 528.037L383.951 518.559C383.553 518.04 383.652 517.297 384.171 516.899C384.689 516.502 385.434 516.598 385.832 517.121L392.049 525.24L400.472 511.735C400.819 511.179 401.55 511.012 402.105 511.357C402.66 511.703 402.829 512.434 402.483 512.989L393.153 527.947C392.947 528.276 392.592 528.485 392.204 528.504C392.186 528.503 392.167 528.503 392.148 528.503Z" fill="#FDE1A7"/>
<path d="M378.375 550.934C378.375 549.699 379.377 548.698 380.611 548.698H405.76C406.995 548.698 407.996 549.699 407.996 550.934V576.083C407.996 577.317 406.995 578.318 405.76 578.318H380.611C379.377 578.318 378.375 577.317 378.375 576.083V550.934Z" fill="url(#paint1_linear)"/>
<path d="M392.148 572.172C391.78 572.172 391.432 572 391.207 571.706L383.951 562.228C383.553 561.709 383.652 560.966 384.171 560.568C384.689 560.171 385.434 560.267 385.832 560.79L392.049 568.909L400.472 555.404C400.819 554.849 401.55 554.68 402.105 555.026C402.66 555.372 402.829 556.103 402.483 556.659L393.153 571.616C392.947 571.946 392.592 572.154 392.204 572.173C392.186 572.172 392.167 572.172 392.148 572.172Z" fill="#FDE1A7"/>
<path d="M378.375 594.604C378.375 593.37 379.377 592.368 380.611 592.368H405.76C406.995 592.368 407.996 593.37 407.996 594.604V619.753C407.996 620.988 406.995 621.989 405.76 621.989H380.611C379.377 621.989 378.375 620.988 378.375 619.753V594.604Z" fill="url(#paint2_linear)"/>
<path d="M392.148 615.841C391.78 615.841 391.432 615.669 391.207 615.375L383.951 605.897C383.553 605.378 383.652 604.635 384.171 604.237C384.689 603.841 385.434 603.937 385.832 604.459L392.049 612.578L400.472 599.073C400.819 598.517 401.55 598.349 402.105 598.695C402.66 599.041 402.829 599.772 402.483 600.328L393.153 615.285C392.947 615.615 392.592 615.823 392.204 615.842C392.186 615.841 392.167 615.841 392.148 615.841Z" fill="#FDE1A7"/>
<path d="M498.358 340.902H331.01V490.034H498.358V340.902Z" fill="url(#paint3_linear)"/>
<path d="M410.735 353.589H348.041V359.513H410.735V353.589Z" fill="url(#paint4_linear)"/>
<path d="M481.327 361.191C481.327 359.883 480.266 358.822 478.957 358.822H464.74C463.432 358.822 462.371 359.883 462.371 361.191V473.744H481.327V361.191Z" fill="url(#paint5_linear)"/>
<path d="M481.327 404.041V361.191C481.327 359.883 480.266 358.822 478.957 358.822H464.74C463.432 358.822 462.371 359.883 462.371 361.191V404.041H481.327Z" fill="url(#paint6_linear)"/>
<path d="M424.162 386.368C424.162 385.06 423.1 383.998 421.792 383.998H407.575C406.267 383.998 405.206 385.06 405.206 386.368V473.744H424.162V386.368Z" fill="url(#paint7_linear)"/>
<path d="M424.162 436.818V386.368C424.162 385.06 423.1 383.998 421.792 383.998H407.575C406.267 383.998 405.206 385.06 405.206 386.368V436.818H424.162V436.818Z" fill="url(#paint8_linear)"/>
<path d="M452.744 402.954C452.744 401.646 451.683 400.585 450.375 400.585H436.158C434.85 400.585 433.788 401.646 433.788 402.954V473.744H452.744V402.954Z" fill="url(#paint9_linear)"/>
<path d="M452.744 436.818V402.954C452.744 401.646 451.683 400.585 450.375 400.585H436.158C434.85 400.585 433.788 401.646 433.788 402.954V436.818H452.744V436.818Z" fill="url(#paint10_linear)"/>
<path d="M395.58 370.373C395.58 369.065 394.518 368.004 393.21 368.004H378.993C377.685 368.004 376.624 369.065 376.624 370.373V473.744H395.58V370.373Z" fill="url(#paint11_linear)"/>
<path d="M395.58 407.003V370.373C395.58 369.065 394.518 368.004 393.21 368.004H378.993C377.685 368.004 376.624 369.065 376.624 370.373V407.003H395.58Z" fill="url(#paint12_linear)"/>
<path d="M366.997 422.503C366.997 421.195 365.936 420.133 364.628 420.133H350.411C349.103 420.133 348.041 421.195 348.041 422.503V473.744H366.997V422.503Z" fill="url(#paint13_linear)"/>
<path d="M366.997 452.418V422.503C366.997 421.195 365.936 420.133 364.628 420.133H350.411C349.103 420.133 348.041 421.195 348.041 422.503V452.418H366.997Z" fill="url(#paint14_linear)"/>
<path d="M481.327 474.929H348.337C347.683 474.929 347.152 474.399 347.152 473.744C347.152 473.089 347.683 472.559 348.337 472.559H481.327C481.982 472.559 482.512 473.089 482.512 473.744C482.512 474.399 481.981 474.929 481.327 474.929Z" fill="#1AA9E8"/>
<path d="M274.659 117.13H106.718V216.946H274.659V117.13Z" fill="url(#paint15_linear)"/>
<path d="M129.596 202.137H178.595V139.838L129.596 202.137Z" fill="#00E2EC"/>
<path d="M224.01 187.031V202.137H254.221V151.093L224.01 187.031Z" fill="#00E2EC"/>
<path d="M178.594 139.838V202.137H224.01V187.031L178.594 139.838Z" fill="#0090B2"/>
<path d="M268.835 170.592L254.222 151.093V202.137H268.835V170.592Z" fill="#0090B2"/>
<path d="M262.515 130.162H198.241V136.086H262.515V130.162Z" fill="url(#paint16_linear)"/>
<path d="M161.083 186.253C160.687 186.253 160.3 186.055 160.076 185.693L132.044 140.617C131.698 140.061 131.869 139.33 132.425 138.985C132.98 138.639 133.71 138.81 134.056 139.365L162.088 184.442C162.433 184.998 162.263 185.729 161.707 186.074C161.513 186.194 161.296 186.253 161.083 186.253Z" fill="#1AA9E8"/>
<path d="M133.05 146.359C136.567 146.359 139.418 143.508 139.418 139.991C139.418 136.474 136.567 133.623 133.05 133.623C129.533 133.623 126.682 136.474 126.682 139.991C126.682 143.508 129.533 146.359 133.05 146.359Z" fill="#F95FC3"/>
<path d="M161.081 189.128C163.324 189.128 165.141 187.31 165.141 185.068C165.141 182.825 163.324 181.008 161.081 181.008C158.839 181.008 157.021 182.825 157.021 185.068C157.021 187.31 158.839 189.128 161.081 189.128Z" fill="white"/>
<path d="M295.724 238.994C290.327 225.524 288.614 210.399 291.626 195.102C296.053 172.621 309.755 154.328 327.971 143.404L310.926 109.908C282.81 125.923 261.558 153.613 254.815 187.852C250.171 211.435 253.077 234.751 261.85 255.308L295.724 238.994Z" fill="white"/>
<path d="M337.468 138.557C351.34 132.632 367.075 130.666 382.993 133.799C406.084 138.347 424.743 152.688 435.549 171.648L469.427 155.331C453.622 126.11 425.38 103.909 390.241 96.9888C365.751 92.1657 341.546 95.483 320.423 105.062L337.468 138.557Z" fill="white"/>
<path d="M474.058 164.936L440.186 181.25C445.591 194.727 447.307 209.86 444.293 225.167C435.99 267.325 395.084 294.771 352.927 286.468C329.825 281.919 311.161 267.568 300.356 248.597L266.479 264.914C282.28 294.144 310.529 316.356 345.677 323.279C408.165 335.585 468.798 294.904 481.104 232.417C485.75 208.823 482.84 185.498 474.058 164.936Z" fill="white"/>
<path d="M302.661 252.407C294.763 240.234 290.159 225.725 290.159 210.134C290.159 187.222 300.067 166.626 315.83 152.388L292.633 122.817C268.142 143.964 252.64 175.238 252.64 210.134C252.64 234.17 259.998 256.485 272.577 274.959L302.661 252.407Z" fill="url(#paint17_linear)"/>
<path d="M324.213 145.798C336.679 137.304 351.737 132.334 367.96 132.334C391.495 132.334 412.574 142.799 426.839 159.313L456.925 136.758C435.774 111.142 403.773 94.816 367.96 94.816C343 94.816 319.892 102.748 301.019 116.227L324.213 145.798Z" fill="url(#paint18_linear)"/>
<path d="M463.325 145.287L433.243 167.839C441.149 180.017 445.759 194.533 445.759 210.134C445.759 253.102 410.927 287.934 367.959 287.934C344.414 287.934 323.329 277.46 309.062 260.934L278.976 283.489C300.128 309.116 332.135 325.451 367.958 325.451C431.646 325.451 483.274 273.821 483.274 210.133C483.277 186.089 475.914 163.765 463.325 145.287Z" fill="url(#paint19_linear)"/>
<path d="M322.856 227.09C329.718 245.332 347.319 258.315 367.959 258.315C382.771 258.315 396.016 251.625 404.855 241.108L367.959 210.134L322.856 227.09Z" fill="url(#paint20_linear)"/>
<path d="M385.048 165.083L367.959 210.134L404.855 241.108C411.894 232.732 416.14 221.931 416.14 210.134C416.14 189.544 403.219 171.98 385.048 165.083Z" fill="url(#paint21_linear)"/>
<path d="M385.048 165.083C379.735 163.067 373.979 161.953 367.96 161.953C341.351 161.953 319.779 183.524 319.779 210.134C319.779 216.103 320.872 221.814 322.856 227.09L367.959 210.134L385.048 165.083Z" fill="url(#paint22_linear)"/>
<path d="M766.271 66.0369H507.893V227.905H766.271V66.0369Z" fill="url(#paint23_linear)"/>
<path d="M534.055 98.9283C537.572 98.9283 540.423 96.0772 540.423 92.5602C540.423 89.0432 537.572 86.1921 534.055 86.1921C530.538 86.1921 527.687 89.0432 527.687 92.5602C527.687 96.0772 530.538 98.9283 534.055 98.9283Z" fill="#FDE1A7"/>
<path d="M568.223 98.9283C571.74 98.9283 574.591 96.0772 574.591 92.5602C574.591 89.0432 571.74 86.1921 568.223 86.1921C564.706 86.1921 561.854 89.0432 561.854 92.5602C561.854 96.0772 564.706 98.9283 568.223 98.9283Z" fill="#00E2EC"/>
<path d="M602.392 98.9283C605.909 98.9283 608.76 96.0772 608.76 92.5602C608.76 89.0432 605.909 86.1921 602.392 86.1921C598.875 86.1921 596.024 89.0432 596.024 92.5602C596.024 96.0772 598.875 98.9283 602.392 98.9283Z" fill="#C7A0F6"/>
<path d="M608.762 109.626H527.686V115.549H608.762V109.626Z" fill="url(#paint24_linear)"/>
<path d="M746.475 105.997C742.549 98.2696 736.663 91.1871 728.307 91.4595C710.142 92.0519 698.292 139.443 685.656 140.035C673.019 140.627 677.362 92.2498 661.171 92.6443C640.834 93.1407 640.042 186.833 614.57 189.005C589.097 191.176 583.37 138.652 571.918 139.443C560.466 140.233 555.543 180.626 553.555 189.4C551.566 198.175 541.51 199.865 541.51 199.865H746.475V105.997Z" fill="url(#paint25_linear)"/>
<path d="M746.475 105.479C718.434 106.664 712.51 182.094 683.682 180.317C659.766 178.843 663.738 138.258 642.808 137.073C621.875 135.888 612.004 185.056 586.728 186.635C574.438 187.403 564.613 179.725 553.358 180.711C542.103 181.698 530.452 196.706 527.687 199.866H746.475V105.479Z" fill="url(#paint26_linear)"/>
<path d="M471.818 45.3532H367.164V78.5266H471.818V45.3532Z" fill="url(#paint27_linear)"/>
<path d="M462.22 67.7157C458.078 67.7157 455.998 65.0334 454.161 62.6662C452.441 60.4483 450.955 58.5337 447.976 58.5337C444.995 58.5337 443.509 60.4483 441.789 62.6662C439.952 65.0334 437.872 67.7157 433.73 67.7157C429.588 67.7157 427.508 65.0334 425.672 62.6662C423.952 60.4483 422.466 58.5337 419.487 58.5337C416.507 58.5337 415.02 60.4483 413.301 62.6662C411.466 65.0334 409.384 67.7157 405.243 67.7157C401.104 67.7157 399.023 65.0334 397.188 62.6662C395.469 60.4483 393.983 58.5337 391.005 58.5337C388.025 58.5337 386.54 60.4483 384.82 62.6662C382.985 65.0334 380.905 67.7157 376.763 67.7157C376.109 67.7157 375.578 67.1849 375.578 66.5309C375.578 65.8769 376.109 65.3461 376.763 65.3461C379.744 65.3461 381.228 63.4316 382.949 61.2137C384.784 58.8465 386.864 56.1642 391.005 56.1642C395.146 56.1642 397.225 58.8477 399.061 61.2137C400.78 63.4316 402.265 65.3461 405.243 65.3461C408.224 65.3461 409.709 63.4316 411.429 61.2137C413.264 58.8465 415.346 56.1642 419.487 56.1642C423.627 56.1642 425.709 58.8465 427.544 61.2137C429.265 63.4316 430.75 65.3461 433.73 65.3461C436.711 65.3461 438.196 63.4316 439.917 61.2137C441.753 58.8465 443.834 56.1642 447.976 56.1642C452.117 56.1642 454.197 58.8465 456.033 61.2137C457.753 63.4316 459.239 65.3461 462.22 65.3461C462.875 65.3461 463.405 65.8769 463.405 66.5309C463.405 67.1849 462.874 67.7157 462.22 67.7157Z" fill="#05C5DA"/>
<path d="M381.872 115.134C381.562 115.134 381.252 115.011 381.019 114.771C380.565 114.299 380.578 113.549 381.049 113.096L417.785 77.6736C418.255 77.2199 419.005 77.2317 419.46 77.7033C419.914 78.1748 419.901 78.9247 419.43 79.3785L382.694 114.801C382.464 115.023 382.168 115.134 381.872 115.134Z" fill="#1AA9E8"/>
<path d="M381.872 118.638C384.462 118.638 386.561 116.539 386.561 113.949C386.561 111.359 384.462 109.259 381.872 109.259C379.282 109.259 377.183 111.359 377.183 113.949C377.183 116.539 379.282 118.638 381.872 118.638Z" fill="#FDE1A7"/>
<path d="M572.316 416.86C573.249 418.451 575.293 418.985 576.884 418.055L631.279 393.496C632.871 392.566 633.405 390.523 632.475 388.93L607.762 347.794C606.832 346.203 604.789 345.669 603.196 346.599L542.683 363.37C541.091 364.3 540.554 366.344 541.484 367.936L572.316 416.86Z" fill="url(#paint28_linear)"/>
<path d="M635.436 389.615L609.117 345.804C608.124 344.108 605.946 343.539 604.253 344.53L539.802 362.393C538.108 363.383 537.537 365.561 538.527 367.255L571.365 419.36C572.358 421.054 574.536 421.624 576.229 420.633L634.164 394.477C635.857 393.487 636.429 391.309 635.436 389.615ZM575.873 411.954L548.043 366.967L604.616 349.936L628.755 389.478L575.873 411.954Z" fill="url(#paint29_linear)"/>
<path d="M614.317 375.853L571.336 392.814L567.854 387.822L611.482 371.494L614.317 375.853Z" fill="#FDE1A7"/>
<path d="M584.967 376.408C587.606 376.408 589.744 374.27 589.744 371.631C589.744 368.993 587.606 366.854 584.967 366.854C582.329 366.854 580.19 368.993 580.19 371.631C580.19 374.27 582.329 376.408 584.967 376.408Z" fill="#F95FC3"/>
<path d="M568.693 382.664C571.332 382.664 573.47 380.525 573.47 377.887C573.47 375.249 571.332 373.11 568.693 373.11C566.055 373.11 563.917 375.249 563.917 377.887C563.917 380.525 566.055 382.664 568.693 382.664Z" fill="#FE687E"/>
<path d="M600.247 370.351C602.62 370.351 604.545 368.426 604.545 366.052C604.545 363.679 602.62 361.754 600.247 361.754C597.873 361.754 595.948 363.679 595.948 366.052C595.948 368.426 597.873 370.351 600.247 370.351Z" fill="#00E2EC"/>
<path d="M672.246 698.453C670.856 674.791 676.175 645.775 675.978 636.693L637.296 634.476C637.296 634.476 636.551 662.155 636.9 686.113C637.296 713.166 642.924 790.768 641.246 802.911C640.2 810.479 634.019 815.363 628.296 818.968C631.045 820.375 635.914 821.344 642.877 817.899C650.754 814.001 659.626 809.645 665.883 809.428C665.631 805.342 665.376 801.517 665.335 798.963C665.138 786.62 673.924 726.987 672.246 698.453Z" fill="url(#paint30_linear)"/>
<path d="M642.878 817.898C635.915 821.343 631.047 820.375 628.297 818.967C626.806 819.905 625.347 820.761 624.019 821.551C618.956 824.557 610.848 825.739 611.727 828.877C612.416 831.345 631.542 832.467 641.79 829.548C646.629 828.17 654.92 823.722 654.92 823.722L655.241 829.769C655.241 829.769 664.434 830.454 665.422 829.368C666.922 827.716 666.408 817.99 665.883 809.426C659.627 809.645 650.754 814 642.878 817.898Z" fill="url(#paint31_linear)"/>
<path d="M718.355 818.708C726.581 814.636 735.894 810.069 742.175 810.237C741.918 806.156 741.617 802.323 741.456 799.752C740.963 791.854 740.766 778.23 741.755 749.597C742.743 720.965 737.608 700.825 735.831 683.843C734.054 666.861 734.054 648.892 733.855 639.81L697.027 644.35C697.027 644.35 699.86 671.466 702.359 695.295C704.721 717.807 719.045 789.978 717.367 802.12C716.335 809.584 708.945 815.697 703.458 819.615C706.142 821.106 711.124 822.286 718.355 818.708Z" fill="url(#paint32_linear)"/>
<path d="M687.845 830.951C687.845 832.629 707.019 833.277 717.268 830.358C722.106 828.98 730.397 824.533 730.397 824.533L730.718 830.58C730.718 830.58 740.567 830.951 741.554 829.864C743.047 828.22 742.707 818.691 742.174 810.237C735.891 810.069 726.58 814.638 718.354 818.708C711.122 822.288 706.14 821.106 703.457 819.615C701.932 820.703 700.546 821.631 699.495 822.361C694.658 825.717 687.845 827.692 687.845 830.951Z" fill="url(#paint33_linear)"/>
<path d="M722.203 498.229C726.35 504.548 737.608 524.69 741.752 545.718C745.578 565.117 745.306 576.226 747.38 591.332C749.453 606.438 760.116 639.611 759.523 641.684C758.931 643.758 754.192 646.868 744.913 647.115C737.977 647.3 732.869 646.721 720.429 650.867C707.988 655.014 693.968 657.384 676.986 655.607C660.005 653.829 646.577 646.721 638.087 646.523C629.595 646.325 618.34 646.325 617.155 643.956C615.97 641.586 623.681 623.26 625.349 611.769C627.235 598.797 631.372 574.053 640.455 549.569C648.968 526.62 660.991 500.203 660.991 500.203C660.991 500.203 678.663 500.105 691.399 499.809C704.136 499.513 722.203 498.229 722.203 498.229Z" fill="url(#paint34_linear)"/>
<path d="M688.338 648.515C684.58 648.515 680.765 648.308 676.861 647.898C667.491 646.919 659.045 644.29 652.258 642.177C646.622 640.424 641.755 638.907 638.059 638.822L635.718 638.771C629.127 638.636 621.658 638.483 618.272 637.24C617.657 637.016 617.343 636.334 617.568 635.72C617.792 635.107 618.471 634.789 619.089 635.016C622.101 636.122 629.678 636.277 635.765 636.403L638.112 636.452C642.14 636.546 647.156 638.106 652.961 639.914C659.996 642.105 667.968 644.586 677.106 645.543C692.103 647.112 705.754 645.623 720.051 640.859C730.949 637.226 736.367 637.161 742.104 637.092C743.01 637.082 743.926 637.07 744.878 637.045C753.19 636.822 756.653 634.348 757.515 633.594C758.007 633.165 758.754 633.213 759.187 633.708C759.616 634.201 759.565 634.95 759.072 635.38C757.772 636.514 753.794 639.177 744.94 639.414C743.977 639.439 743.048 639.45 742.131 639.462C736.584 639.528 731.346 639.59 720.799 643.105C709.894 646.742 699.356 648.515 688.338 648.515Z" fill="#CFAEFF"/>
<path d="M692.118 640.62C687.402 640.62 682.456 640.348 677.257 639.803C667.435 638.776 658.696 636.079 650.986 633.703C645.413 631.983 640.599 630.499 636.785 630.129C633.635 629.826 630.773 630.078 628.249 630.302C625.261 630.569 622.676 630.799 620.523 630.007C619.908 629.782 619.594 629.101 619.819 628.487C620.045 627.874 620.722 627.557 621.339 627.784C622.993 628.392 625.334 628.184 628.039 627.942C630.665 627.709 633.641 627.445 637.014 627.771C641.067 628.161 645.987 629.679 651.684 631.437C659.291 633.783 667.913 636.443 677.504 637.446C694.289 639.199 708.359 638.085 720.516 634.035C731.314 630.437 734.328 630.532 738.872 630.67C739.641 630.693 740.457 630.718 741.368 630.726C750.012 630.807 753.605 628.533 755.566 626.821C756.058 626.391 756.805 626.442 757.238 626.936C757.667 627.429 757.616 628.178 757.123 628.608C754.905 630.544 750.909 633.098 741.78 633.098C741.637 633.098 741.494 633.097 741.347 633.096C740.417 633.088 739.584 633.063 738.798 633.038C734.347 632.901 731.661 632.816 721.265 636.282C712.571 639.182 702.947 640.619 692.118 640.62Z" fill="#CFAEFF"/>
<path d="M610.935 372.298C609.134 372.898 606.097 374.52 606.689 377.482C607.282 380.444 612.618 385.645 614.395 386.434C616.172 387.223 614.985 382.517 613.404 380.444C611.824 378.37 616.232 383.088 617.648 382.615C618.685 382.269 619.032 380.296 617.896 377.186C616.884 374.419 621.402 371.854 619.425 371.46C617.452 371.064 613.305 371.508 610.935 372.298Z" fill="url(#paint35_linear)"/>
<path d="M638.717 406.569C639.229 405.898 653.633 395.913 654.702 395.522C656.204 394.974 679.552 425.464 682.81 428.87C686.068 432.276 678.504 449.273 672.284 450.457C666.064 451.642 637.37 408.335 638.717 406.569Z" fill="url(#paint36_linear)"/>
<path d="M597.507 370.966C599.602 368.871 610.047 370.077 611.428 370.472C612.812 370.866 616.267 368.004 618.34 367.904C620.413 367.805 626.757 368.966 630.484 371.064C634.614 373.39 655.264 396.142 655.264 396.142C655.264 396.142 654.971 402.066 649.785 405.62C644.587 409.183 641.253 407.553 641.253 407.553C641.253 407.553 633.939 394.217 631.421 392.588C628.903 390.959 622.683 393.699 617.563 392.443C612.734 391.259 606.023 385.035 607.876 383.406C609.843 381.676 614.545 385.667 616.662 386.368C619.796 387.404 625.671 386.16 625.793 383.775C625.941 380.887 616.582 378.208 609.503 376.074C604.497 374.566 595.805 372.668 597.507 370.966Z" fill="url(#paint37_linear)"/>
<path d="M643.052 409.102C639.882 409.102 638.06 407.569 637.941 407.463C637.446 407.035 637.393 406.286 637.822 405.792C638.251 405.298 639.002 405.247 639.493 405.674C639.629 405.787 643.079 408.558 649.14 404.626C653.806 401.598 654.078 396.153 654.081 396.098C654.107 395.445 654.658 394.929 655.308 394.961C655.961 394.984 656.47 395.531 656.448 396.183C656.438 396.456 656.155 402.9 650.429 406.615C647.509 408.508 645.021 409.102 643.052 409.102Z" fill="#1AA9E8"/>
<path d="M714.306 379.555C717.464 386.071 729.312 408.779 728.523 426.353C727.734 443.928 722.993 462.094 722.4 475.719C721.808 489.344 722.203 498.229 722.203 498.229C722.203 498.229 709.173 506.325 689.426 505.733C670.28 505.159 660.991 500.203 660.991 500.203C660.991 500.203 660.424 479.303 658.03 465.056C656.153 453.899 651.562 447.383 651.513 434.845C651.448 418.799 676.146 398.067 683.502 386.862C689.549 377.65 714.306 379.555 714.306 379.555Z" fill="url(#paint38_linear)"/>
<path d="M691.52 506.948C690.819 506.948 690.11 506.938 689.39 506.917C670.187 506.342 660.823 501.457 660.435 501.248C659.859 500.941 659.64 500.226 659.946 499.648C660.253 499.069 660.971 498.85 661.549 499.157C661.639 499.206 670.881 503.991 689.464 504.548C708.59 505.137 721.453 497.302 721.58 497.222C722.136 496.878 722.867 497.049 723.212 497.605C723.556 498.161 723.385 498.891 722.83 499.235C722.304 499.562 710.19 506.948 691.52 506.948Z" fill="#1AA9E8"/>
<path d="M733.162 314.541C736.124 314.689 745.192 312.34 751.97 310.839C765.35 307.877 778.499 308.053 781.886 317.355C784.799 325.352 779.953 331.993 780.752 337.594C781.837 345.197 804.547 351.614 804.989 366.819C805.414 381.396 793.437 386.664 790.179 393.032C786.921 399.4 780.434 418.726 757.894 417.171C745.012 416.283 741.458 408.68 741.456 403.399C741.456 396.617 747.972 391.403 744.862 386.516C741.752 381.629 731.783 384.865 729.608 379.111C727.241 372.841 732.57 367.708 736.569 364.598C740.567 361.488 746.491 358.229 745.158 353.638C743.825 349.047 735.68 347.891 735.976 343.272C736.323 337.891 746.204 333.897 744.566 328.462C743.332 324.365 736.272 325.204 730.2 324.019C724.129 322.835 733.162 314.541 733.162 314.541Z" fill="url(#paint39_linear)"/>
<path d="M711.344 352.7C710.579 359.562 714.306 379.555 714.306 379.555C714.306 379.555 705.024 389.181 691.4 389.824C684.714 390.139 683.502 386.862 683.502 386.862L686.267 359.414C686.267 359.414 690.43 351.603 698.904 348.357C707.375 345.109 710.555 348.159 710.555 348.159L711.344 352.7Z" fill="url(#paint40_linear)"/>
<path d="M707.593 302.94C695.546 297.806 686.573 298.029 686.573 298.029C677.183 303.137 652.217 349.832 667.903 361.19C677.585 368.202 694.195 361.049 705.233 351.518C705.908 351.73 706.629 351.846 707.376 351.846C711.222 351.846 714.337 348.829 714.337 345.107C714.337 344.044 714.075 343.043 713.623 342.149C714.641 340.546 715.424 338.976 715.886 337.494C718.605 328.762 719.637 308.075 707.593 302.94Z" fill="url(#paint41_linear)"/>
<path d="M688.882 331.203C688.706 331.203 688.524 331.176 688.347 331.12C687.412 330.825 686.892 329.826 687.187 328.89C687.734 327.159 689.724 323.936 690.989 322.732C691.698 322.057 692.825 322.083 693.501 322.794C694.178 323.505 694.15 324.63 693.439 325.307C692.62 326.086 690.934 328.826 690.576 329.96C690.338 330.718 689.638 331.203 688.882 331.203Z" fill="#0090B2"/>
<path d="M672.075 321.823C671.928 321.823 671.777 321.8 671.629 321.753C670.849 321.506 670.417 320.675 670.663 319.895C671.19 318.225 672.793 315.637 674.024 314.465C674.614 313.903 675.553 313.924 676.117 314.518C676.682 315.11 676.657 316.048 676.065 316.612C675.207 317.427 673.859 319.613 673.488 320.787C673.288 321.419 672.705 321.823 672.075 321.823Z" fill="#0090B2"/>
<path d="M688.981 338.206C687.748 338.206 686.592 337.923 685.548 337.363C683.362 336.195 681.929 333.974 681.512 331.108C681.108 328.341 681.706 325.286 683.194 322.503C685.513 318.165 689.529 315.363 693.427 315.363C694.659 315.363 695.815 315.647 696.859 316.206C701.276 318.567 702.333 325.234 699.216 331.068C696.897 335.403 692.88 338.206 688.981 338.206ZM693.426 317.139C690.226 317.139 686.742 319.632 684.76 323.339C683.451 325.789 682.92 328.456 683.27 330.849C683.604 333.143 684.711 334.898 686.386 335.794C687.17 336.213 688.043 336.426 688.981 336.426C692.183 336.426 695.666 333.935 697.648 330.228C700.302 325.257 699.572 319.67 696.02 317.771C695.236 317.353 694.363 317.139 693.426 317.139Z" fill="#9F36AD"/>
<path d="M669.112 327.025C668.233 327.025 667.412 326.826 666.675 326.433C663.126 324.534 662.595 318.834 665.468 313.457C667.642 309.39 671.269 306.659 674.491 306.659C675.371 306.659 676.191 306.858 676.928 307.253C678.69 308.193 679.761 310.11 679.942 312.649C680.114 315.038 679.472 317.729 678.135 320.227C675.964 324.293 672.336 327.025 669.112 327.025ZM674.492 308.435C671.947 308.435 668.881 310.845 667.035 314.294C664.712 318.642 664.931 323.483 667.513 324.864C667.989 325.118 668.527 325.247 669.112 325.247C671.66 325.247 674.726 322.838 676.569 319.388C677.749 317.182 678.318 314.833 678.171 312.774C678.035 310.865 677.297 309.46 676.092 308.818C675.614 308.564 675.076 308.435 674.492 308.435Z" fill="#9F36AD"/>
<path d="M679.851 318.144C675.184 322.019 662.232 328.414 661.88 330.682C661.411 333.719 668.35 335.411 669.931 335.411C671.511 335.411 672.666 331.127 676.889 325.251C679.268 321.942 682.332 316.084 679.851 318.144Z" fill="url(#paint42_linear)"/>
<path d="M684.566 322.801C684.213 322.801 683.88 322.591 683.741 322.243C682.522 319.196 680.961 318.286 678.341 319.1C677.871 319.248 677.374 318.984 677.23 318.516C677.084 318.047 677.346 317.549 677.814 317.404C681.349 316.304 683.825 317.673 685.392 321.583C685.574 322.04 685.353 322.556 684.896 322.739C684.789 322.781 684.676 322.801 684.566 322.801Z" fill="#9F36AD"/>
<path d="M664.037 342.108C664.204 342.805 664.634 343.523 665.129 344.115C665.634 344.711 666.246 345.198 666.925 345.5C668.282 346.133 669.86 345.892 671.264 345.202C671.706 344.984 672.238 345.164 672.456 345.605C672.674 346.045 672.492 346.578 672.053 346.795C672.034 346.804 672.014 346.814 671.995 346.821C671.118 347.18 670.169 347.455 669.171 347.481C668.179 347.524 667.154 347.307 666.27 346.844C665.384 346.386 664.646 345.717 664.07 344.958C663.505 344.186 663.043 343.356 662.851 342.348C662.788 342.019 663.004 341.702 663.332 341.638C663.652 341.576 663.961 341.779 664.035 342.092L664.037 342.108Z" fill="#954374"/>
<path d="M690.528 391.028C683.861 391.028 682.451 387.432 682.392 387.273C682.165 386.659 682.477 385.978 683.092 385.75C683.706 385.526 684.387 385.837 684.614 386.451C684.647 386.524 685.746 388.903 691.345 388.64C704.349 388.027 713.364 378.827 713.454 378.733C713.909 378.263 714.658 378.247 715.13 378.703C715.6 379.157 715.614 379.907 715.159 380.379C714.767 380.785 705.391 390.351 691.456 391.007C691.136 391.021 690.826 391.028 690.528 391.028Z" fill="#1AA9E8"/>
<path d="M705.483 338.627C704.226 338.936 702.427 338.383 702.558 335.817C702.803 330.98 711.106 323.562 710.903 316.713C710.653 308.395 695.029 306.543 684.292 302.348C672.731 297.83 672.888 284.475 675.775 280.108C678.96 275.295 684.588 276.875 686.957 279.245C689.327 281.614 690.412 284.246 692.488 284.182C694.881 284.107 693.992 279.443 697.62 279.443C701.295 279.443 704.476 286.221 707.001 289.019C711.32 293.808 733.984 301.28 735.137 317.552C736.72 339.864 714.505 357.241 712.036 357.241C707.832 357.242 708.054 352.377 709.849 351.403C711.648 350.429 715.033 348.373 714.176 343.675C713.318 338.977 708.283 337.94 705.483 338.627Z" fill="url(#paint43_linear)"/>
<path d="M709.887 338.829C711.868 339.571 713.412 341.161 714.036 343.144C714.184 342.933 714.254 342.666 714.177 342.397C712.754 337.304 705.333 332.779 701.348 330.35C700.506 329.837 699.78 329.393 699.351 329.09C698.95 328.807 698.395 328.903 698.113 329.303C697.828 329.704 697.923 330.258 698.326 330.541C698.802 330.879 699.518 331.314 700.423 331.866C703.019 333.45 707.154 335.971 709.887 338.829Z" fill="#9F36AD"/>
<path d="M570.105 395.148C572.501 394.68 575.218 402.51 576.403 406.953C577.588 411.396 578.447 418.917 582.796 423.886C586.769 428.427 599.482 432.573 599.482 432.573C599.482 432.573 600.863 439.978 597.506 444.125C594.151 448.272 589.196 448.062 589.196 448.062C589.196 448.062 574.602 433.56 568.479 429.315C562.359 425.07 558.608 419.343 557.668 415.246C556.663 410.863 555.942 408.68 556.435 403.843C556.701 401.217 557.733 397.731 557.733 397.731C557.733 397.731 566.823 412.154 569.171 415.888C571.64 415.394 570.455 408.582 570.159 405.818C569.863 403.054 567.666 395.623 570.105 395.148Z" fill="url(#paint44_linear)"/>
<path d="M698.511 398.827C708.875 397.03 714.961 401.698 718.205 408.73C721.759 416.431 721.019 425.959 715.491 431.487C709.963 437.015 674.362 479.322 655.609 478.785C634.679 478.186 588.399 451.768 587.932 449.061C587.463 446.353 596.101 431.372 597.313 431.808C598.523 432.244 646.376 450.322 653.487 448.408C660.596 446.494 691.307 400.075 698.511 398.827Z" fill="url(#paint45_linear)"/>
<path d="M587.919 450.222C587.355 450.222 586.863 449.835 586.764 449.263C586.219 446.12 593.887 432.957 596.093 431.104C596.644 430.641 597.186 430.504 597.714 430.693C598.33 430.915 598.648 431.594 598.428 432.208C598.282 432.611 597.941 432.889 597.55 432.969C595.721 434.503 588.837 446.798 589.099 448.862C589.181 449.5 588.74 450.113 588.104 450.207C588.042 450.218 587.98 450.222 587.919 450.222Z" fill="#1AA9E8"/>
<path d="M249.006 661.626C249.006 663.462 250.494 664.948 252.329 664.948H325.98C327.815 664.948 329.303 663.462 329.303 661.626V612.893C329.303 611.058 327.815 609.571 325.98 609.571H252.329C250.494 609.571 249.006 611.058 249.006 612.893V661.626Z" fill="url(#paint46_linear)"/>
<path d="M328.548 607.641H249.761C247.798 607.641 246.207 609.232 246.207 611.196V663.325C246.207 665.288 247.798 666.88 249.761 666.88H328.548C330.511 666.88 332.102 665.288 332.102 663.325V611.196C332.102 609.231 330.511 607.641 328.548 607.641ZM326.178 660.956H252.13V613.565H326.178V660.956Z" fill="url(#paint47_linear)"/>
<path d="M312.4 640.895H249.705V646.819H312.4V640.895Z" fill="#FDE1A7"/>
<path d="M304.262 626.898L312.4 636.409L296.172 636.452L304.262 626.898Z" fill="#00E2EC"/>
<path d="M282.656 636.452C285.294 636.452 287.433 634.314 287.433 631.675C287.433 629.037 285.294 626.898 282.656 626.898C280.018 626.898 277.879 629.037 277.879 631.675C277.879 634.314 280.018 636.452 282.656 636.452Z" fill="#F95FC3"/>
<path d="M179.67 839.405C181.853 844.872 191.194 847.163 199.031 849.018C207.478 851.018 213.494 852.172 213.15 855.534C212.756 859.385 194.392 860.668 181.063 860.273C167.735 859.879 158.079 858.308 156.105 856.827C154.02 855.263 154.111 841.119 154.604 837.961C155.097 834.802 179.67 839.405 179.67 839.405Z" fill="url(#paint48_linear)"/>
<path d="M165.76 518.371C163.983 524.887 159.441 539.894 157.861 568.328C156.28 596.763 158.255 684.041 158.255 705.367C158.255 726.692 153.122 764.604 152.726 790.274C152.33 815.944 151.822 840.083 153.319 841.021C156.626 843.094 175.583 844.575 181.951 841.021C183.062 840.401 193.404 750.782 200.513 713.264C205.202 688.512 223.418 554.109 224.602 534.364C225.787 514.618 165.76 518.371 165.76 518.371Z" fill="url(#paint49_linear)"/>
<path d="M169.891 835.017C161.102 835.017 154.311 833.261 151.83 832.008C151.246 831.713 151.012 831.001 151.307 830.417C151.6 829.833 152.313 829.597 152.898 829.894C156.336 831.628 168.737 834.374 183.19 831.232C183.831 831.093 184.46 831.5 184.599 832.14C184.737 832.779 184.332 833.41 183.692 833.549C178.803 834.611 174.116 835.017 169.891 835.017Z" fill="#CD218F"/>
<path d="M275.844 846.254C277.719 849.612 286.073 853.779 293.912 855.634C302.358 857.634 308.374 858.788 308.03 862.15C307.636 866.001 289.272 867.284 275.943 866.889C262.615 866.495 253.631 866.001 251.656 864.52C249.571 862.956 248.496 851.782 248.99 848.624C249.484 845.465 275.844 846.254 275.844 846.254Z" fill="url(#paint50_linear)"/>
<path d="M259.849 532.39C260.738 544.237 268.735 687.89 270.512 711.585C272.289 735.281 280.087 844.658 279.102 846.748C277.473 850.203 252.296 854.053 248.446 850.647C245.983 848.468 238.029 793.039 231.711 756.706C225.393 720.373 211.57 656.001 204.462 630.726C197.353 605.452 184.321 564.082 191.725 527.355C198.538 519.654 213.649 519.827 230.23 522.912C247.303 526.088 259.849 532.39 259.849 532.39Z" fill="url(#paint51_linear)"/>
<path d="M209.92 654.627C208.545 649.055 207.139 643.492 205.651 637.955C204.18 632.415 202.51 626.933 200.903 621.414C197.669 610.388 194.629 599.273 192.313 587.971C192.182 587.33 192.594 586.704 193.236 586.571C193.877 586.44 194.502 586.852 194.635 587.493C194.635 587.498 194.638 587.51 194.639 587.515C196.736 598.757 199.565 609.869 202.599 620.933C204.105 626.466 205.685 632.001 207.065 637.586C208.459 643.165 209.768 648.76 211.045 654.36C211.116 654.672 210.922 654.981 210.609 655.052C210.302 655.123 209.996 654.932 209.92 654.627Z" fill="#CD218F"/>
<path d="M193.462 588.852C193.308 588.852 193.152 588.822 193.001 588.759C189.536 587.297 181.681 581.631 179.751 578.416C179.415 577.854 179.596 577.127 180.157 576.79C180.718 576.454 181.445 576.635 181.783 577.196C183.335 579.783 190.559 585.156 193.924 586.577C194.527 586.832 194.809 587.526 194.555 588.129C194.363 588.581 193.924 588.852 193.462 588.852Z" fill="#CD218F"/>
<path d="M255.558 843.72C250.907 843.72 247.144 843.214 245.534 842.611C244.92 842.382 244.61 841.699 244.839 841.086C245.068 840.474 245.753 840.167 246.364 840.392C250.16 841.811 268.017 842.572 278.279 836.147C278.835 835.799 279.565 835.968 279.912 836.522C280.259 837.077 280.091 837.808 279.536 838.155C272.717 842.425 263 843.72 255.558 843.72Z" fill="#CD218F"/>
<path d="M216.259 323.94C223.368 309.723 252.05 248.244 255.012 244.492C257.974 240.74 260.298 240.003 261.134 234.323C261.827 229.608 261.453 226.351 262.318 222.673C263.503 217.638 270.65 204.193 268.835 200.261C267.65 197.694 262.911 204.507 261.134 206.679C259.356 208.851 254.078 217.334 252.818 216.548C252.482 213.245 252.916 202.138 252.916 202.138C250.669 204.804 247.559 211.616 245.781 218.725C244.004 225.833 244.547 228.301 240.598 236.398C236.649 244.494 204.167 280.036 187.58 317.06C186.62 319.201 185.689 321.387 184.778 323.606C191.788 328.521 201.157 333.48 212.443 335.449C213.624 330.663 214.912 326.633 216.259 323.94Z" fill="url(#paint52_linear)"/>
<path d="M228.058 396.438C207.01 390.531 209.084 393.73 206.787 392.703C204.267 390.181 207.385 355.913 212.441 335.448C201.155 333.479 191.787 328.521 184.776 323.605C169.895 359.867 161.479 406.063 160.921 442.348C160.328 480.853 161.809 519.357 162.106 521.135C162.402 522.912 189.343 539.497 219.27 539.795C249.087 540.091 259.849 532.39 259.849 532.39C259.849 532.39 265.825 426.83 264.86 423.876C263.896 420.922 249.105 402.345 228.058 396.438Z" fill="url(#paint53_linear)"/>
<path d="M223.467 532.617C222.551 532.617 221.62 532.609 220.664 532.592C185.301 531.982 163.369 516.387 160.805 513.544C160.367 513.058 160.406 512.308 160.891 511.87C161.377 511.433 162.126 511.472 162.564 511.956C164.638 514.256 186.265 529.629 220.704 530.223C249.769 530.726 259.479 523.196 259.574 523.12C260.083 522.711 260.831 522.793 261.24 523.303C261.65 523.813 261.568 524.56 261.057 524.968C260.657 525.292 251.192 532.617 223.467 532.617Z" fill="#05C5DA"/>
<path d="M245.999 419.746C245.572 419.746 245.16 419.516 244.949 419.112C241.246 412.059 228.588 402.213 222.903 400.001C222.293 399.764 221.991 399.077 222.228 398.468C222.465 397.857 223.152 397.555 223.761 397.792C229.903 400.181 243.051 410.404 247.046 418.01C247.351 418.59 247.128 419.305 246.549 419.61C246.372 419.703 246.184 419.746 245.999 419.746Z" fill="#05C5DA"/>
<path d="M187.153 383.75C186.587 383.75 186.088 383.345 185.987 382.768C183.565 368.853 191.321 346.535 195.048 335.81C195.854 333.49 196.491 331.659 196.742 330.712C196.909 330.079 197.559 329.703 198.191 329.872C198.824 330.04 199.201 330.688 199.031 331.321C198.758 332.354 198.14 334.13 197.285 336.588C193.623 347.126 186.004 369.052 188.32 382.363C188.432 383.008 188 383.621 187.355 383.734C187.288 383.745 187.219 383.75 187.153 383.75Z" fill="#05C5DA"/>
<path d="M172.77 388.737C172.44 388.737 172.112 388.6 171.877 388.333C171.446 387.84 171.496 387.093 171.989 386.661C174.362 384.586 187.157 377.548 201.96 383.795C202.563 384.05 202.846 384.744 202.591 385.348C202.338 385.951 201.643 386.234 201.039 385.979C187.288 380.177 175.333 386.883 173.549 388.444C173.324 388.64 173.046 388.737 172.77 388.737Z" fill="#05C5DA"/>
<path d="M238.069 313.949C242.58 321.42 251.556 322.835 252.296 325.352C253.037 327.87 248.15 332.905 246.669 333.794C245.188 334.682 238.079 320.169 237.487 318.54C236.894 316.911 238.069 313.949 238.069 313.949Z" fill="url(#paint54_linear)"/>
<path d="M225.566 298.325C225.566 298.325 205.054 304.323 194.983 318.343C189.423 326.084 196.326 339.72 203.623 350.385C201.178 352.473 199.92 354.873 199.92 354.873L198.982 357.489C198.439 363.463 191.938 384.029 189.569 390.151C188.687 392.428 194.86 400.8 208.312 401.473C220.16 402.066 228.058 396.438 228.058 396.438L229.193 370.447C229.193 370.447 229.591 368.82 230.02 366.606C235.75 365.876 242.265 363.63 247.705 358.032C261.33 344.012 233.192 304.471 225.566 298.325Z" fill="url(#paint55_linear)"/>
<path d="M221.444 334.336C222.945 333.321 222.531 330.19 218.976 326.635C215.422 323.081 211.67 319.921 212.362 316.17C213.048 312.449 225.301 308.482 231.053 304.218C240.5 297.214 243.56 280.232 237.834 279.146C229.978 277.657 227.47 288.427 225.394 288.427C222.926 288.427 224.189 282.67 220.649 283.086C215.52 283.688 213.545 290.994 210.585 293.264C206.146 296.667 182.545 303.927 181.064 321.501C179.858 335.807 188.818 343.941 192.763 349.046C196.96 354.476 198.255 357.269 198.983 357.488C200.291 357.881 206.051 357.023 210.979 354.97C216.311 352.749 219.569 349.935 218.532 348.602C217.495 347.269 209.745 345.781 209.202 339.272C208.807 334.533 212.016 332.46 214.533 332.904C217.051 333.348 219.765 335.473 221.444 334.336Z" fill="url(#paint56_linear)"/>
<path d="M225.047 339.125C225.974 339.154 226.676 345.443 230.305 346.308C232.722 346.883 240.499 341.495 244.004 339.94C246.133 338.996 249.929 338.349 250.173 339.323C250.417 340.297 250.965 343.865 252.298 347.049C253.423 349.737 256 352.207 254.742 357.712C252.894 365.795 238.821 371.855 229.195 370.448C228.972 368.152 228.651 364.592 227.047 358.156C225.195 350.726 222.312 343.964 222.381 342.606C222.481 340.656 223.468 339.075 225.047 339.125Z" fill="url(#paint57_linear)"/>
<path d="M235.363 325.846C234.585 325.846 233.871 325.331 233.653 324.544C233.245 323.075 231.382 319.841 231.008 319.344C230.424 318.568 230.559 317.451 231.327 316.856C232.094 316.263 233.185 316.375 233.791 317.134C234.269 317.729 236.503 321.522 237.078 323.594C237.341 324.539 236.786 325.519 235.841 325.782C235.681 325.825 235.52 325.846 235.363 325.846Z" fill="#0090B2"/>
<path d="M244.632 345.196C244.842 345.548 245.486 345.979 246.061 346.209C246.66 346.455 247.307 346.575 247.928 346.505C249.187 346.395 250.247 345.372 250.901 344.101C251.019 343.868 251.303 343.775 251.537 343.894C251.758 344.006 251.852 344.274 251.757 344.5C251.444 345.236 251.036 345.965 250.435 346.58C249.847 347.199 249.032 347.667 248.154 347.847C247.274 348.031 246.369 347.944 245.541 347.69C244.708 347.4 243.938 347.1 243.204 346.253L243.191 346.237C242.869 345.865 242.909 345.3 243.281 344.978C243.653 344.656 244.218 344.696 244.541 345.069C244.574 345.107 244.606 345.153 244.632 345.196Z" fill="#F1D2F8"/>
<path d="M208.312 401.473C220.159 402.066 228.058 396.438 228.058 396.438L228.472 386.968C225.488 388.572 219.049 391.332 210.565 390.908C200.267 390.392 194.251 385.371 192.384 382.021C191.265 385.459 190.248 388.398 189.57 390.151C188.688 392.428 194.86 400.8 208.312 401.473Z" fill="url(#paint58_linear)"/>
<path d="M210.078 402.702C209.48 402.702 208.872 402.688 208.252 402.656C198.311 402.159 191.896 397.533 189.422 393.723C188.409 392.162 188.069 390.742 188.463 389.722C188.7 389.112 189.386 388.808 189.995 389.044C190.603 389.28 190.906 389.961 190.675 390.57C190.641 390.717 190.716 391.512 191.707 392.862C194.136 396.17 199.79 399.86 208.37 400.289C219.676 400.844 227.293 395.526 227.37 395.471C227.902 395.091 228.641 395.215 229.023 395.749C229.402 396.282 229.279 397.021 228.745 397.401C228.427 397.63 221.172 402.702 210.078 402.702Z" fill="#05C5DA"/>
<path d="M287.322 590.221C283.964 579.947 280.427 513.226 274.428 466.824C257.78 467.264 244.237 471.436 237.055 474.869C238.745 482.677 241.18 492.893 245.041 506.325C255.606 543.079 269.773 584.964 270.02 593.998C270.165 599.327 265.629 605.582 265.051 613.453C264.663 618.73 266.81 627.319 268.835 627.171C271.402 626.984 271.188 619.165 272.216 615.471C273.845 609.621 277.326 607.622 277.326 607.622C277.326 607.622 284.731 607.641 297.216 607.641C295.462 601.347 288.785 594.7 287.322 590.221Z" fill="url(#paint59_linear)"/>
<path d="M263.897 422.601C252.05 409.963 229.341 423.194 227.17 439.78C226.705 443.326 229.934 447.482 232.303 453.603C233.708 457.232 234.59 463.492 237.053 474.869C244.235 471.436 257.778 467.264 274.426 466.824C271.561 444.657 268.135 427.121 263.897 422.601Z" fill="url(#paint60_linear)"/>
<path d="M237.054 476.054C236.613 476.054 236.188 475.805 235.985 475.381C235.703 474.79 235.953 474.083 236.543 473.801C240.26 472.024 253.98 466.18 274.396 465.639C275.052 465.643 275.595 466.139 275.611 466.793C275.629 467.447 275.113 467.992 274.459 468.009C258.609 468.428 245.008 472.379 237.565 475.938C237.4 476.018 237.226 476.054 237.054 476.054Z" fill="#05C5DA"/>
<path d="M227.171 440.965C227.12 440.965 227.068 440.961 227.016 440.956C226.368 440.87 225.909 440.276 225.995 439.626C227.253 430.021 235.41 420.719 245.39 417.506C252.885 415.092 259.946 416.654 264.762 421.792C265.21 422.269 265.185 423.019 264.709 423.467C264.233 423.915 263.482 423.891 263.034 423.414C257.333 417.333 249.987 418.515 246.117 419.763C236.963 422.709 229.49 431.193 228.345 439.935C228.267 440.53 227.758 440.965 227.171 440.965Z" fill="#05C5DA"/>
<path d="M621.333 304.302L608.864 303.216L620.415 291.819L621.333 304.302Z" fill="#F95FC3"/>
<path d="M577.269 342.433C576.77 342.433 576.305 342.115 576.143 341.617C570.063 323.04 582.067 311.527 601.953 292.451C606.06 288.513 610.715 284.049 615.525 279.2C643.839 250.659 638.311 221.676 635.942 213.473C635.76 212.845 636.123 212.187 636.752 212.006C637.384 211.827 638.038 212.187 638.219 212.816C640.678 221.332 646.432 251.411 617.207 280.868C612.376 285.737 607.71 290.213 603.594 294.161C584.377 312.592 572.778 323.717 578.394 340.879C578.598 341.501 578.259 342.17 577.636 342.373C577.515 342.414 577.391 342.433 577.269 342.433Z" fill="#1AA9E8"/>
<path d="M633.499 286.997L629.294 282.825C640.054 271.979 646.961 259.899 649.826 246.922L655.611 248.199C652.501 262.288 645.062 275.342 633.499 286.997Z" fill="#00E2EC"/>
<path d="M637.082 217.835C639.672 217.835 641.771 215.735 641.771 213.146C641.771 210.556 639.672 208.456 637.082 208.456C634.492 208.456 632.393 210.556 632.393 213.146C632.393 215.735 634.492 217.835 637.082 217.835Z" fill="#FDE1A7"/>
<path d="M566.603 347.172C566.419 347.172 566.231 347.128 566.056 347.036C565.709 346.853 557.569 342.41 559.51 328.838C560.608 321.146 565.621 314.676 570.929 307.827C577.83 298.92 584.967 289.71 583.986 276.966C583.607 272.029 581.073 267.691 576.454 264.069C551.719 244.669 475.351 249.892 455.948 253.099C455.293 253.2 454.693 252.769 454.587 252.123C454.479 251.477 454.917 250.867 455.562 250.761C475.193 247.517 552.556 242.314 577.916 262.204C583.078 266.253 585.916 271.159 586.348 276.785C587.399 290.44 579.644 300.448 572.801 309.278C567.691 315.873 562.864 322.102 561.856 329.173C560.163 341.015 566.877 344.787 567.162 344.942C567.736 345.253 567.955 345.968 567.648 346.544C567.436 346.943 567.026 347.172 566.603 347.172Z" fill="#1AA9E8"/>
<path d="M545.959 266.94C534.629 265.077 521.113 264.121 505.783 264.1L505.793 258.176C521.44 258.199 535.276 259.18 546.919 261.094L545.959 266.94Z" fill="#C7A0F6"/>
<path d="M455.754 256.619C458.344 256.619 460.443 254.52 460.443 251.93C460.443 249.34 458.344 247.241 455.754 247.241C453.164 247.241 451.064 249.34 451.064 251.93C451.064 254.52 453.164 256.619 455.754 256.619Z" fill="#FDE1A7"/>
<path d="M116.431 361.153L112.142 372.913L104.136 358.8L116.431 361.153Z" fill="#F95FC3"/>
<path d="M239.17 459.455C238.233 459.455 237.299 459.447 236.362 459.433C189.018 458.718 146.876 440.302 117.7 407.576C83.3828 369.084 67.0935 320.298 74.1239 277.073C79.4032 244.619 97.3097 218.155 124.546 202.554C125.114 202.228 125.838 202.425 126.163 202.993C126.489 203.562 126.291 204.285 125.724 204.61C99.1189 219.849 81.6246 245.719 76.4626 277.455C69.5448 319.982 85.6208 368.036 119.468 406C180.433 474.381 291.328 474.514 371.932 406.296C385.876 394.496 397.764 382.326 409.261 370.557C436.608 342.562 460.228 318.383 496.06 317.484C529.533 316.645 546.157 333.929 554.214 348.576C554.53 349.149 554.321 349.87 553.747 350.185C553.173 350.502 552.452 350.291 552.138 349.718C544.398 335.647 528.412 319.049 496.12 319.853C461.249 320.728 437.944 344.587 410.956 372.212C399.42 384.021 387.492 396.231 373.463 408.103C334.263 441.281 286.677 459.453 239.17 459.455Z" fill="#1AA9E8"/>
<path d="M99.6819 348.069C94.1301 332.28 91.1753 316.32 90.9004 300.632L96.823 300.528C97.0872 315.58 99.9295 330.913 105.27 346.103L99.6819 348.069Z" fill="#C7A0F6"/>
<path d="M281.548 445.25L280.254 439.47C294.103 436.369 307.806 431.707 320.983 425.612L323.469 430.988C309.912 437.261 295.808 442.06 281.548 445.25Z" fill="#00E2EC"/>
<path d="M125.137 208.273C127.726 208.273 129.826 206.173 129.826 203.583C129.826 200.993 127.726 198.894 125.137 198.894C122.547 198.894 120.447 200.993 120.447 203.583C120.447 206.173 122.547 208.273 125.137 208.273Z" fill="#FDE1A7"/>
<path d="M520.359 537.424L508.057 539.746L516.1 525.651L520.359 537.424Z" fill="#00E2EC"/>
<path d="M429.827 564.816C428.192 564.816 426.616 564.772 425.11 564.686C424.457 564.651 423.957 564.091 423.994 563.437C424.032 562.784 424.605 562.29 425.244 562.322C448.091 563.618 487.381 555.291 501.972 527.106C508.503 514.492 510.335 496.404 512.272 477.254C515.485 445.518 518.807 412.704 543.476 397.503C544.033 397.158 544.761 397.334 545.106 397.891C545.449 398.447 545.277 399.177 544.719 399.521C521.047 414.106 517.784 446.331 514.63 477.494C512.668 496.874 510.814 515.181 504.077 528.197C489.936 555.507 453.657 564.816 429.827 564.816Z" fill="#1AA9E8"/>
<path d="M524.391 514.495L518.627 513.128C521.046 502.944 522.226 491.273 523.478 478.914C523.83 475.439 524.184 471.938 524.57 468.44L530.46 469.09C530.076 472.571 529.722 476.054 529.372 479.511C528.101 492.07 526.899 503.929 524.391 514.495Z" fill="#F95FC3"/>
<path d="M425.175 568.193C427.764 568.193 429.864 566.094 429.864 563.504C429.864 560.914 427.764 558.815 425.175 558.815C422.585 558.815 420.485 560.914 420.485 563.504C420.485 566.094 422.585 568.193 425.175 568.193Z" fill="#C7A0F6"/>
<defs>
<linearGradient id="paint0_linear" x1="379.031" y1="505.685" x2="407.34" y2="533.994" gradientUnits="userSpaceOnUse">
<stop stop-color="#FF57BD"/>
<stop offset="1" stop-color="#FE6A77"/>
</linearGradient>
<linearGradient id="paint1_linear" x1="379.03" y1="549.354" x2="407.341" y2="577.664" gradientUnits="userSpaceOnUse">
<stop stop-color="#FF57BD"/>
<stop offset="1" stop-color="#FE6A77"/>
</linearGradient>
<linearGradient id="paint2_linear" x1="379.031" y1="593.024" x2="407.34" y2="621.333" gradientUnits="userSpaceOnUse">
<stop stop-color="#FF57BD"/>
<stop offset="1" stop-color="#FE6A77"/>
</linearGradient>
<linearGradient id="paint3_linear" x1="335.564" y1="336.349" x2="493.804" y2="494.589" gradientUnits="userSpaceOnUse">
<stop stop-color="#706AED"/>
<stop offset="1" stop-color="#271068"/>
</linearGradient>
<linearGradient id="paint4_linear" x1="348.041" y1="356.551" x2="410.735" y2="356.551" gradientUnits="userSpaceOnUse">
<stop stop-color="white"/>
<stop offset="1" stop-color="#F1D1F8"/>
</linearGradient>
<linearGradient id="paint5_linear" x1="471.848" y1="473.744" x2="471.848" y2="358.822" gradientUnits="userSpaceOnUse">
<stop stop-color="#FDE1A7"/>
<stop offset="1" stop-color="#F9A144"/>
</linearGradient>
<linearGradient id="paint6_linear" x1="462.37" y1="381.431" x2="481.326" y2="381.431" gradientUnits="userSpaceOnUse">
<stop stop-color="#00E2EC"/>
<stop offset="1" stop-color="#0090B2"/>
</linearGradient>
<linearGradient id="paint7_linear" x1="414.684" y1="473.744" x2="414.684" y2="383.999" gradientUnits="userSpaceOnUse">
<stop stop-color="#1AA9E8"/>
<stop offset="0.4223" stop-color="#3D80EF"/>
<stop offset="0.7909" stop-color="#5662F4"/>
<stop offset="1" stop-color="#5F57F6"/>
</linearGradient>
<linearGradient id="paint8_linear" x1="405.206" y1="410.409" x2="424.162" y2="410.409" gradientUnits="userSpaceOnUse">
<stop stop-color="#00E2EC"/>
<stop offset="1" stop-color="#0090B2"/>
</linearGradient>
<linearGradient id="paint9_linear" x1="443.266" y1="473.744" x2="443.266" y2="400.585" gradientUnits="userSpaceOnUse">
<stop stop-color="#FF57BD"/>
<stop offset="1" stop-color="#FE6A77"/>
</linearGradient>
<linearGradient id="paint10_linear" x1="433.788" y1="418.702" x2="452.744" y2="418.702" gradientUnits="userSpaceOnUse">
<stop stop-color="#00E2EC"/>
<stop offset="1" stop-color="#0090B2"/>
</linearGradient>
<linearGradient id="paint11_linear" x1="386.102" y1="473.744" x2="386.102" y2="368.004" gradientUnits="userSpaceOnUse">
<stop stop-color="#C7A0F6"/>
<stop offset="1" stop-color="#FF57BD"/>
</linearGradient>
<linearGradient id="paint12_linear" x1="376.624" y1="387.503" x2="395.58" y2="387.503" gradientUnits="userSpaceOnUse">
<stop stop-color="#00E2EC"/>
<stop offset="1" stop-color="#0090B2"/>
</linearGradient>
<linearGradient id="paint13_linear" x1="357.519" y1="473.744" x2="357.519" y2="420.134" gradientUnits="userSpaceOnUse">
<stop stop-color="#FDE1A7"/>
<stop offset="1" stop-color="#F9A144"/>
</linearGradient>
<linearGradient id="paint14_linear" x1="348.041" y1="436.276" x2="366.997" y2="436.276" gradientUnits="userSpaceOnUse">
<stop stop-color="#00E2EC"/>
<stop offset="1" stop-color="#0090B2"/>
</linearGradient>
<linearGradient id="paint15_linear" x1="123.75" y1="100.099" x2="257.628" y2="233.977" gradientUnits="userSpaceOnUse">
<stop stop-color="#00E2EC"/>
<stop offset="1" stop-color="#0090B2"/>
</linearGradient>
<linearGradient id="paint16_linear" x1="198.242" y1="133.124" x2="262.515" y2="133.124" gradientUnits="userSpaceOnUse">
<stop stop-color="white"/>
<stop offset="1" stop-color="#F1D1F8"/>
</linearGradient>
<linearGradient id="paint17_linear" x1="252.642" y1="198.888" x2="315.831" y2="198.888" gradientUnits="userSpaceOnUse">
<stop stop-color="#FDE1A7"/>
<stop offset="1" stop-color="#F9A144"/>
</linearGradient>
<linearGradient id="paint18_linear" x1="301.017" y1="127.065" x2="456.925" y2="127.065" gradientUnits="userSpaceOnUse">
<stop stop-color="#5A55F8"/>
<stop offset="1" stop-color="#8C6AE2"/>
</linearGradient>
<linearGradient id="paint19_linear" x1="278.977" y1="235.369" x2="483.277" y2="235.369" gradientUnits="userSpaceOnUse">
<stop stop-color="#FF57BD"/>
<stop offset="1" stop-color="#FE6A77"/>
</linearGradient>
<linearGradient id="paint20_linear" x1="322.856" y1="234.224" x2="404.855" y2="234.224" gradientUnits="userSpaceOnUse">
<stop stop-color="#C7A0F6"/>
<stop offset="1" stop-color="#FF57BD"/>
</linearGradient>
<linearGradient id="paint21_linear" x1="367.96" y1="203.096" x2="416.14" y2="203.096" gradientUnits="userSpaceOnUse">
<stop stop-color="#994574"/>
<stop offset="1" stop-color="#43256F"/>
</linearGradient>
<linearGradient id="paint22_linear" x1="333.912" y1="176.046" x2="367.98" y2="210.115" gradientUnits="userSpaceOnUse">
<stop stop-color="#1AA9E8"/>
<stop offset="0.4223" stop-color="#3D80EF"/>
<stop offset="0.7909" stop-color="#5662F4"/>
<stop offset="1" stop-color="#5F57F6"/>
</linearGradient>
<linearGradient id="paint23_linear" x1="532.021" y1="41.9094" x2="742.144" y2="252.033" gradientUnits="userSpaceOnUse">
<stop stop-color="#C91C91"/>
<stop offset="1" stop-color="#FE6A77"/>
</linearGradient>
<linearGradient id="paint24_linear" x1="527.687" y1="112.588" x2="608.762" y2="112.588" gradientUnits="userSpaceOnUse">
<stop stop-color="white"/>
<stop offset="1" stop-color="#F1D1F8"/>
</linearGradient>
<linearGradient id="paint25_linear" x1="643.993" y1="199.866" x2="643.993" y2="91.4526" gradientUnits="userSpaceOnUse">
<stop stop-color="#994574"/>
<stop offset="1" stop-color="#9F36AD"/>
</linearGradient>
<linearGradient id="paint26_linear" x1="527.687" y1="152.673" x2="746.475" y2="152.673" gradientUnits="userSpaceOnUse">
<stop stop-color="#FE6A77"/>
<stop offset="1" stop-color="#FF57BD"/>
</linearGradient>
<linearGradient id="paint27_linear" x1="367.164" y1="61.9399" x2="471.818" y2="61.9399" gradientUnits="userSpaceOnUse">
<stop stop-color="#FDE1A7"/>
<stop offset="1" stop-color="#F9A144"/>
</linearGradient>
<linearGradient id="paint28_linear" x1="541.028" y1="382.328" x2="632.933" y2="382.328" gradientUnits="userSpaceOnUse">
<stop stop-color="#00E2EC"/>
<stop offset="1" stop-color="#0090B2"/>
</linearGradient>
<linearGradient id="paint29_linear" x1="554.843" y1="347.184" x2="618.232" y2="410.574" gradientUnits="userSpaceOnUse">
<stop stop-color="#994574"/>
<stop offset="1" stop-color="#43256F"/>
</linearGradient>
<linearGradient id="paint30_linear" x1="628.297" y1="727.364" x2="675.985" y2="727.364" gradientUnits="userSpaceOnUse">
<stop stop-color="#F4BEA3"/>
<stop offset="1" stop-color="#E8878E"/>
</linearGradient>
<linearGradient id="paint31_linear" x1="611.661" y1="820.357" x2="666.412" y2="820.357" gradientUnits="userSpaceOnUse">
<stop stop-color="#706AED"/>
<stop offset="1" stop-color="#271068"/>
</linearGradient>
<linearGradient id="paint32_linear" x1="697.027" y1="730.436" x2="742.176" y2="730.436" gradientUnits="userSpaceOnUse">
<stop stop-color="#F4BEA3"/>
<stop offset="1" stop-color="#E8878E"/>
</linearGradient>
<linearGradient id="paint33_linear" x1="687.845" y1="821.305" x2="742.628" y2="821.305" gradientUnits="userSpaceOnUse">
<stop stop-color="#706AED"/>
<stop offset="1" stop-color="#271068"/>
</linearGradient>
<linearGradient id="paint34_linear" x1="629.869" y1="531.325" x2="750.116" y2="651.573" gradientUnits="userSpaceOnUse">
<stop stop-color="#FF57BD"/>
<stop offset="1" stop-color="#FE6A77"/>
</linearGradient>
<linearGradient id="paint35_linear" x1="606.614" y1="378.918" x2="619.932" y2="378.918" gradientUnits="userSpaceOnUse">
<stop stop-color="#C16846"/>
<stop offset="0.2653" stop-color="#D27565"/>
<stop offset="0.5308" stop-color="#DE7F7B"/>
<stop offset="0.7814" stop-color="#E58589"/>
<stop offset="1" stop-color="#E8878E"/>
</linearGradient>
<linearGradient id="paint36_linear" x1="638.671" y1="422.999" x2="683.593" y2="422.999" gradientUnits="userSpaceOnUse">
<stop stop-color="#FDE1A7"/>
<stop offset="1" stop-color="#F9A144"/>
</linearGradient>
<linearGradient id="paint37_linear" x1="597.29" y1="387.912" x2="655.264" y2="387.912" gradientUnits="userSpaceOnUse">
<stop stop-color="#F4BEA3"/>
<stop offset="1" stop-color="#E8878E"/>
</linearGradient>
<linearGradient id="paint38_linear" x1="651.513" y1="442.578" x2="728.561" y2="442.578" gradientUnits="userSpaceOnUse">
<stop stop-color="#FDE1A7"/>
<stop offset="1" stop-color="#F9A144"/>
</linearGradient>
<linearGradient id="paint39_linear" x1="723.564" y1="324.12" x2="794.429" y2="394.985" gradientUnits="userSpaceOnUse">
<stop stop-color="#5A55F8"/>
<stop offset="1" stop-color="#8C6AE2"/>
</linearGradient>
<linearGradient id="paint40_linear" x1="683.502" y1="368.352" x2="714.306" y2="368.352" gradientUnits="userSpaceOnUse">
<stop stop-color="#F4BEA3"/>
<stop offset="1" stop-color="#E8878E"/>
</linearGradient>
<linearGradient id="paint41_linear" x1="662.847" y1="331.019" x2="717.636" y2="331.019" gradientUnits="userSpaceOnUse">
<stop stop-color="#F4BEA3"/>
<stop offset="1" stop-color="#E8878E"/>
</linearGradient>
<linearGradient id="paint42_linear" x1="661.857" y1="326.563" x2="680.77" y2="326.563" gradientUnits="userSpaceOnUse">
<stop stop-color="#FF57BD"/>
<stop offset="1" stop-color="#EC9895"/>
</linearGradient>
<linearGradient id="paint43_linear" x1="674.131" y1="317.11" x2="735.218" y2="317.11" gradientUnits="userSpaceOnUse">
<stop stop-color="#5A55F8"/>
<stop offset="1" stop-color="#8C6AE2"/>
</linearGradient>
<linearGradient id="paint44_linear" x1="556.277" y1="421.596" x2="599.764" y2="421.596" gradientUnits="userSpaceOnUse">
<stop stop-color="#F4BEA3"/>
<stop offset="1" stop-color="#E8878E"/>
</linearGradient>
<linearGradient id="paint45_linear" x1="587.913" y1="438.616" x2="720.378" y2="438.616" gradientUnits="userSpaceOnUse">
<stop stop-color="#FDE1A7"/>
<stop offset="1" stop-color="#F9A144"/>
</linearGradient>
<linearGradient id="paint46_linear" x1="256.209" y1="604.316" x2="322.1" y2="670.206" gradientUnits="userSpaceOnUse">
<stop stop-color="#00E2EC"/>
<stop offset="1" stop-color="#0090B2"/>
</linearGradient>
<linearGradient id="paint47_linear" x1="253.912" y1="602.018" x2="324.397" y2="672.503" gradientUnits="userSpaceOnUse">
<stop stop-color="#706AED"/>
<stop offset="1" stop-color="#271068"/>
</linearGradient>
<linearGradient id="paint48_linear" x1="160.738" y1="831.656" x2="199.109" y2="870.028" gradientUnits="userSpaceOnUse">
<stop stop-color="#706AED"/>
<stop offset="1" stop-color="#271068"/>
</linearGradient>
<linearGradient id="paint49_linear" x1="93.7518" y1="590.378" x2="263.174" y2="759.801" gradientUnits="userSpaceOnUse">
<stop stop-color="#994574"/>
<stop offset="1" stop-color="#43256F"/>
</linearGradient>
<linearGradient id="paint50_linear" x1="257.285" y1="840.144" x2="293.887" y2="876.746" gradientUnits="userSpaceOnUse">
<stop stop-color="#706AED"/>
<stop offset="1" stop-color="#271068"/>
</linearGradient>
<linearGradient id="paint51_linear" x1="140.837" y1="578.207" x2="344.295" y2="781.665" gradientUnits="userSpaceOnUse">
<stop stop-color="#994574"/>
<stop offset="1" stop-color="#43256F"/>
</linearGradient>
<linearGradient id="paint52_linear" x1="184.777" y1="267.569" x2="269.128" y2="267.569" gradientUnits="userSpaceOnUse">
<stop stop-color="#F4BEA3"/>
<stop offset="1" stop-color="#E8878E"/>
</linearGradient>
<linearGradient id="paint53_linear" x1="133.649" y1="374.734" x2="275.578" y2="516.663" gradientUnits="userSpaceOnUse">
<stop stop-color="#1AA9E8"/>
<stop offset="0.4223" stop-color="#3D80EF"/>
<stop offset="0.7909" stop-color="#5662F4"/>
<stop offset="1" stop-color="#5F57F6"/>
</linearGradient>
<linearGradient id="paint54_linear" x1="237.32" y1="323.891" x2="252.373" y2="323.891" gradientUnits="userSpaceOnUse">
<stop stop-color="#EC9895"/>
<stop offset="1" stop-color="#FF57BD"/>
</linearGradient>
<linearGradient id="paint55_linear" x1="187.411" y1="325.235" x2="243.336" y2="381.16" gradientUnits="userSpaceOnUse">
<stop stop-color="#F4BEA3"/>
<stop offset="1" stop-color="#E8878E"/>
</linearGradient>
<linearGradient id="paint56_linear" x1="180.953" y1="318.293" x2="240.721" y2="318.293" gradientUnits="userSpaceOnUse">
<stop stop-color="#CB2090"/>
<stop offset="1" stop-color="#43256F"/>
</linearGradient>
<linearGradient id="paint57_linear" x1="224.031" y1="339.192" x2="249.737" y2="364.898" gradientUnits="userSpaceOnUse">
<stop stop-color="#CB2090"/>
<stop offset="1" stop-color="#43256F"/>
</linearGradient>
<linearGradient id="paint58_linear" x1="189.487" y1="391.769" x2="228.472" y2="391.769" gradientUnits="userSpaceOnUse">
<stop stop-color="#1AA9E8"/>
<stop offset="0.4223" stop-color="#3D80EF"/>
<stop offset="0.7909" stop-color="#5662F4"/>
<stop offset="1" stop-color="#5F57F6"/>
</linearGradient>
<linearGradient id="paint59_linear" x1="237.054" y1="546.999" x2="297.215" y2="546.999" gradientUnits="userSpaceOnUse">
<stop stop-color="#F4BEA3"/>
<stop offset="1" stop-color="#E8878E"/>
</linearGradient>
<linearGradient id="paint60_linear" x1="227.124" y1="446.222" x2="274.427" y2="446.222" gradientUnits="userSpaceOnUse">
<stop stop-color="#1AA9E8"/>
<stop offset="0.4223" stop-color="#3D80EF"/>
<stop offset="0.7909" stop-color="#5662F4"/>
<stop offset="1" stop-color="#5F57F6"/>
</linearGradient>
</defs>
</svg>
