<svg width="204" height="88" viewBox="0 0 204 88" fill="none" xmlns="http://www.w3.org/2000/svg">
<path d="M4.39895 33.7117C4.39895 29.2541 5.24941 25.0311 6.95034 21.0427C8.65126 17.0544 10.9974 13.5352 13.9887 10.4853C17.0386 7.37669 20.5578 4.9426 24.5461 3.18302C28.5345 1.42344 32.8162 0.543654 37.3911 0.543654C41.9073 0.543654 46.1596 1.42344 50.148 3.18302C54.1364 4.9426 57.6555 7.37669 60.7055 10.4853C63.8141 13.5352 66.2188 17.0544 67.9198 21.0427C69.6793 25.0311 70.5591 29.2541 70.5591 33.7117C70.5591 38.2866 69.6793 42.5683 67.9198 46.5566C66.2188 50.545 63.8141 54.0642 60.7055 57.1141C57.6555 60.1054 54.1364 62.4515 50.148 64.1524C46.1596 65.8534 41.9073 66.7038 37.3911 66.7038C32.8162 66.7038 28.5345 65.8534 24.5461 64.1524C20.5578 62.4515 17.0386 60.1054 13.9887 57.1141C10.9974 54.0642 8.65126 50.545 6.95034 46.5566C5.24941 42.5683 4.39895 38.2866 4.39895 33.7117ZM17.5958 33.7117C17.5958 37.5241 18.4756 41.014 20.2352 44.1812C22.0534 47.2898 24.4875 49.7825 27.5374 51.6594C30.5874 53.4777 34.0185 54.3868 37.831 54.3868C41.5261 54.3868 44.8399 53.4777 47.7726 51.6594C50.7639 49.7825 53.11 47.2898 54.8109 44.1812C56.5118 41.014 57.3623 37.5241 57.3623 33.7117C57.3623 29.782 56.4825 26.2628 54.7229 23.1542C52.9633 19.987 50.5879 17.4943 47.5966 15.676C44.6053 13.7991 41.2328 12.8607 37.479 12.8607C33.7253 12.8607 30.3527 13.7991 27.3615 15.676C24.3702 17.4943 21.9947 19.987 20.2352 23.1542C18.4756 26.2628 17.5958 29.782 17.5958 33.7117Z" fill="#FF1B46"/>
<path d="M83.8055 84.5636L76.6792 76.9094C78.4387 75.619 79.7877 74.0354 80.7262 72.1585C81.7233 70.2816 82.2218 67.9942 82.2218 65.2962V27.5532H94.5389V66C94.5389 70.5749 93.7177 74.358 92.0755 77.3493C90.4332 80.3992 87.6765 82.804 83.8055 84.5636ZM81.7819 13.9165C81.7819 12.0982 82.4858 10.6026 83.8934 9.42953C85.3597 8.25647 86.914 7.66995 88.5563 7.66995C90.1986 7.66995 91.6942 8.25647 93.0432 9.42953C94.4509 10.6026 95.1547 12.0982 95.1547 13.9165C95.1547 15.7347 94.4509 17.2303 93.0432 18.4034C91.6942 19.5178 90.1986 20.075 88.5563 20.075C86.914 20.075 85.3597 19.5178 83.8934 18.4034C82.4858 17.2303 81.7819 15.7347 81.7819 13.9165ZM123.389 67.0557C119.811 67.0557 116.556 66.3519 113.623 64.9443C110.749 63.4779 108.462 61.2491 106.761 58.2579C105.06 55.2666 104.21 51.4541 104.21 46.8206C104.21 42.4803 105.089 38.7265 106.849 35.5593C108.609 32.392 110.925 29.958 113.799 28.257C116.673 26.4974 119.723 25.6177 122.949 25.6177C126.762 25.6177 129.636 26.2335 131.571 27.4652C133.565 28.6969 135.149 30.0459 136.322 31.5122L137.114 27.5532H148.551V66H136.234V61.2491C135.648 61.8357 134.768 62.5981 133.595 63.5366C132.48 64.475 131.073 65.2962 129.372 66C127.671 66.7038 125.677 67.0557 123.389 67.0557ZM126.908 57.0261C131.19 57.0261 134.299 55.0906 136.234 51.2195V41.8058C135.53 39.9289 134.299 38.4333 132.539 37.3189C130.838 36.2045 128.814 35.6473 126.468 35.6473C123.829 35.6473 121.542 36.6444 119.606 38.6385C117.67 40.5741 116.703 43.0961 116.703 46.2047C116.703 48.2576 117.172 50.1051 118.11 51.7474C119.049 53.3897 120.281 54.68 121.805 55.6185C123.389 56.5569 125.09 57.0261 126.908 57.0261ZM173.736 66.7918C170.569 66.7918 167.607 66.2346 164.85 65.1202C162.152 64.0058 159.864 62.4515 157.988 60.4573L163.09 53.6829C164.967 55.3839 166.697 56.6156 168.281 57.3781C169.923 58.0819 171.39 58.4338 172.68 58.4338C174.205 58.4338 175.466 58.1992 176.463 57.73C177.46 57.2608 177.959 56.4983 177.959 55.4425C177.959 54.4454 177.548 53.6536 176.727 53.0671C175.965 52.4806 174.967 52.0113 173.736 51.6594C172.504 51.2489 171.184 50.8383 169.777 50.4277C166.258 49.3133 163.706 47.7004 162.123 45.5889C160.598 43.4187 159.835 41.0726 159.835 38.5506C159.835 36.615 160.334 34.6795 161.331 32.744C162.386 30.7498 164.029 29.1075 166.258 27.8171C168.545 26.4681 171.478 25.7936 175.055 25.7936C178.281 25.7936 181.009 26.1162 183.237 26.7614C185.466 27.4066 187.578 28.4623 189.572 29.9286L184.909 37.1429C183.795 36.2631 182.534 35.53 181.126 34.9434C179.777 34.2982 178.516 33.9463 177.343 33.8877C175.759 33.829 174.528 34.1223 173.648 34.7675C172.768 35.354 172.328 36.0578 172.328 36.879C172.269 37.9934 172.68 38.8732 173.56 39.5183C174.498 40.1635 175.671 40.6621 177.079 41.014C178.487 41.3659 179.865 41.7765 181.214 42.2457C183.971 43.1841 186.17 44.5331 187.812 46.2927C189.455 47.9936 190.276 50.2811 190.276 53.1551C190.276 55.5012 189.66 57.73 188.428 59.8415C187.255 61.8943 185.437 63.5659 182.974 64.8563C180.569 66.1466 177.49 66.7918 173.736 66.7918Z" fill="white"/>
<path fill-rule="evenodd" clip-rule="evenodd" d="M194.165 19.0009C195.432 19.0314 196.372 20.0281 197.207 21.0099C198.113 22.076 199.26 23.2498 198.948 24.6289C198.636 26.0047 197.083 26.4846 195.833 27.0691C194.635 27.6291 193.356 28.3509 192.152 27.8072C190.913 27.2481 190.309 25.8369 190.07 24.4674C189.846 23.1841 190.166 21.8915 190.939 20.8588C191.73 19.8022 192.869 18.9696 194.165 19.0009Z" fill="#CC1E76"/>
<path fill-rule="evenodd" clip-rule="evenodd" d="M189.628 8.00095C191.036 8.03495 192.08 9.14234 193.007 10.2333C194.014 11.4178 195.289 12.722 194.942 14.2544C194.595 15.783 192.87 16.3162 191.481 16.9657C190.15 17.5879 188.729 18.3899 187.391 17.7858C186.015 17.1646 185.343 15.5966 185.078 14.0749C184.829 12.649 185.184 11.2128 186.043 10.0653C186.923 8.89144 188.188 7.96625 189.628 8.00095Z" fill="#0B023D"/>
<path fill-rule="evenodd" clip-rule="evenodd" d="M200.239 11.0007C201.225 11.0244 201.956 11.7996 202.605 12.5633C203.31 13.3925 204.202 14.3054 203.959 15.3781C203.716 16.4481 202.509 16.8213 201.536 17.276C200.605 17.7115 199.61 18.2729 198.673 17.85C197.71 17.4152 197.24 16.3176 197.054 15.2524C196.88 14.2543 197.129 13.2489 197.73 12.4457C198.346 11.624 199.231 10.9764 200.239 11.0007Z" fill="#18308D"/>
</svg>
