<svg width="475" height="115" viewBox="0 0 475 115" fill="none" xmlns="http://www.w3.org/2000/svg">
<path opacity="0.1" d="M12.3369 61.6834C12.3369 35.478 33.5805 14.2344 59.7859 14.2344H106.286V67.3772C106.286 93.5826 85.0423 114.826 58.8369 114.826H12.3369V61.6834Z" fill="url(#paint0_linear)"/>
<path opacity="0.2" d="M5.69434 61.6834C5.69434 35.478 26.938 14.2344 53.1433 14.2344H99.6433V67.3772C99.6433 93.5826 78.3997 114.826 52.1943 114.826H5.69434V61.6834Z" fill="url(#paint1_linear)"/>
<path d="M0 61.6834C0 35.478 21.2436 14.2344 47.449 14.2344H93.949V67.3772C93.949 93.5826 72.7053 114.826 46.5 114.826H0V61.6834Z" fill="url(#paint2_linear)"/>
<g filter="url(#filter0_d)">
<path d="M46.9126 97.6159C41.2233 97.6159 36.0326 96.2962 31.3404 93.6568C26.6482 90.9588 22.9237 87.2343 20.167 82.4835C17.469 77.674 16.12 72.2779 16.12 66.2953C16.12 60.3128 17.469 54.9461 20.167 50.1952C22.9237 45.3857 26.6482 41.6612 31.3404 39.0219C36.0326 36.3238 41.2233 34.9748 46.9126 34.9748C52.6606 34.9748 57.8807 36.3238 62.5729 39.0219C67.2651 41.6612 70.9602 45.3563 73.6583 50.1072C76.3563 54.8581 77.7053 60.2541 77.7053 66.2953C77.7053 72.3366 76.3563 77.7326 73.6583 82.4835C70.9602 87.2343 67.2651 90.9588 62.5729 93.6568C57.8807 96.2962 52.6606 97.6159 46.9126 97.6159ZM46.9126 90.6655C51.1943 90.6655 55.036 89.6684 58.4379 87.6742C61.8984 85.68 64.5964 82.8354 66.532 79.1403C68.5261 75.4452 69.5232 71.1635 69.5232 66.2953C69.5232 61.3685 68.5261 57.0869 66.532 53.4504C64.5964 49.7553 61.9277 46.9106 58.5259 44.9165C55.124 42.9223 51.2529 41.9252 46.9126 41.9252C42.5723 41.9252 38.7013 42.9223 35.2994 44.9165C31.8976 46.9106 29.1995 49.7553 27.2054 53.4504C25.2698 57.0869 24.3021 61.3685 24.3021 66.2953C24.3021 71.1635 25.2698 75.4452 27.2054 79.1403C29.1995 82.8354 31.8976 85.68 35.2994 87.6742C38.7599 89.6684 42.631 90.6655 46.9126 90.6655Z" fill="url(#paint3_diamond)"/>
</g>
<path d="M269.238 71.6227L265.775 83.5713H264.026L261.249 73.9541L258.369 83.5713L256.638 83.5884L253.295 71.6227H254.958L257.564 81.7541L260.444 71.6227H262.192L264.935 81.7199L267.558 71.6227H269.238ZM279.516 78.5141C279.516 78.8113 279.499 79.1256 279.465 79.457H271.956C272.014 80.3827 272.328 81.1084 272.899 81.6341C273.482 82.1484 274.185 82.4056 275.008 82.4056C275.682 82.4056 276.242 82.2513 276.688 81.9427C277.145 81.6227 277.465 81.1999 277.648 80.6741H279.328C279.076 81.577 278.574 82.3141 277.819 82.8856C277.065 83.4456 276.128 83.7256 275.008 83.7256C274.116 83.7256 273.316 83.5256 272.608 83.1256C271.911 82.7256 271.362 82.1599 270.962 81.4284C270.562 80.6856 270.362 79.8284 270.362 78.857C270.362 77.8856 270.556 77.0341 270.945 76.3027C271.334 75.5713 271.876 75.0113 272.574 74.6227C273.282 74.2227 274.094 74.0227 275.008 74.0227C275.899 74.0227 276.688 74.217 277.374 74.6056C278.059 74.9941 278.585 75.5313 278.951 76.217C279.328 76.8913 279.516 77.657 279.516 78.5141ZM277.905 78.1884C277.905 77.5941 277.774 77.0856 277.511 76.6627C277.248 76.2284 276.888 75.9027 276.431 75.6856C275.985 75.457 275.488 75.3427 274.939 75.3427C274.151 75.3427 273.476 75.5941 272.916 76.097C272.368 76.5999 272.054 77.297 271.974 78.1884H277.905ZM285.563 78.8399C285.563 77.8799 285.757 77.0399 286.146 76.3199C286.534 75.5884 287.066 75.0227 287.74 74.6227C288.426 74.2227 289.192 74.0227 290.037 74.0227C290.769 74.0227 291.449 74.1941 292.077 74.537C292.706 74.8684 293.186 75.3084 293.517 75.857V70.8856H295.094V83.5713H293.517V81.8056C293.209 82.3656 292.752 82.8284 292.146 83.1941C291.54 83.5484 290.832 83.7256 290.02 83.7256C289.186 83.7256 288.426 83.5199 287.74 83.1084C287.066 82.697 286.534 82.1199 286.146 81.377C285.757 80.6341 285.563 79.7884 285.563 78.8399ZM293.517 78.857C293.517 78.1484 293.374 77.5313 293.089 77.0056C292.803 76.4799 292.414 76.0799 291.923 75.8056C291.443 75.5199 290.912 75.377 290.329 75.377C289.746 75.377 289.214 75.5141 288.734 75.7884C288.254 76.0627 287.872 76.4627 287.586 76.9884C287.3 77.5141 287.157 78.1313 287.157 78.8399C287.157 79.5599 287.3 80.1884 287.586 80.7256C287.872 81.2513 288.254 81.657 288.734 81.9427C289.214 82.217 289.746 82.3541 290.329 82.3541C290.912 82.3541 291.443 82.217 291.923 81.9427C292.414 81.657 292.803 81.2513 293.089 80.7256C293.374 80.1884 293.517 79.5656 293.517 78.857ZM298.536 72.6513C298.239 72.6513 297.988 72.5484 297.782 72.3427C297.576 72.137 297.474 71.8856 297.474 71.5884C297.474 71.2913 297.576 71.0399 297.782 70.8341C297.988 70.6284 298.239 70.5256 298.536 70.5256C298.822 70.5256 299.062 70.6284 299.256 70.8341C299.462 71.0399 299.565 71.2913 299.565 71.5884C299.565 71.8856 299.462 72.137 299.256 72.3427C299.062 72.5484 298.822 72.6513 298.536 72.6513ZM299.291 74.177V83.5713H297.731V74.177H299.291ZM305.824 74.0227C306.635 74.0227 307.344 74.1999 307.949 74.5541C308.567 74.9084 309.024 75.3541 309.321 75.8913V74.177H310.898V83.777C310.898 84.6341 310.715 85.3941 310.349 86.057C309.984 86.7313 309.458 87.257 308.772 87.6341C308.098 88.0113 307.309 88.1999 306.407 88.1999C305.172 88.1999 304.144 87.9084 303.321 87.3256C302.498 86.7427 302.012 85.9484 301.864 84.9427H303.407C303.578 85.5141 303.932 85.9713 304.469 86.3141C305.007 86.6684 305.652 86.8456 306.407 86.8456C307.264 86.8456 307.961 86.577 308.498 86.0399C309.047 85.5027 309.321 84.7484 309.321 83.777V81.8056C309.012 82.3541 308.555 82.8113 307.949 83.177C307.344 83.5427 306.635 83.7256 305.824 83.7256C304.989 83.7256 304.229 83.5199 303.544 83.1084C302.869 82.697 302.338 82.1199 301.949 81.377C301.561 80.6341 301.367 79.7884 301.367 78.8399C301.367 77.8799 301.561 77.0399 301.949 76.3199C302.338 75.5884 302.869 75.0227 303.544 74.6227C304.229 74.2227 304.989 74.0227 305.824 74.0227ZM309.321 78.857C309.321 78.1484 309.178 77.5313 308.892 77.0056C308.607 76.4799 308.218 76.0799 307.727 75.8056C307.247 75.5199 306.715 75.377 306.132 75.377C305.549 75.377 305.018 75.5141 304.538 75.7884C304.058 76.0627 303.675 76.4627 303.389 76.9884C303.104 77.5141 302.961 78.1313 302.961 78.8399C302.961 79.5599 303.104 80.1884 303.389 80.7256C303.675 81.2513 304.058 81.657 304.538 81.9427C305.018 82.217 305.549 82.3541 306.132 82.3541C306.715 82.3541 307.247 82.217 307.727 81.9427C308.218 81.657 308.607 81.2513 308.892 80.7256C309.178 80.1884 309.321 79.5656 309.321 78.857ZM314.34 72.6513C314.043 72.6513 313.791 72.5484 313.586 72.3427C313.38 72.137 313.277 71.8856 313.277 71.5884C313.277 71.2913 313.38 71.0399 313.586 70.8341C313.791 70.6284 314.043 70.5256 314.34 70.5256C314.626 70.5256 314.866 70.6284 315.06 70.8341C315.266 71.0399 315.369 71.2913 315.369 71.5884C315.369 71.8856 315.266 72.137 315.06 72.3427C314.866 72.5484 314.626 72.6513 314.34 72.6513ZM315.094 74.177V83.5713H313.534V74.177H315.094ZM319.656 75.4627V80.9999C319.656 81.457 319.753 81.7827 319.947 81.977C320.142 82.1599 320.479 82.2513 320.959 82.2513H322.107V83.5713H320.702C319.833 83.5713 319.182 83.3713 318.747 82.9713C318.313 82.5713 318.096 81.9141 318.096 80.9999V75.4627H316.879V74.177H318.096V71.8113H319.656V74.177H322.107V75.4627H319.656ZM323.415 78.8399C323.415 77.8799 323.609 77.0399 323.997 76.3199C324.386 75.5884 324.917 75.0227 325.592 74.6227C326.277 74.2227 327.037 74.0227 327.872 74.0227C328.695 74.0227 329.409 74.1999 330.015 74.5541C330.62 74.9084 331.072 75.3541 331.369 75.8913V74.177H332.946V83.5713H331.369V81.8227C331.06 82.3713 330.597 82.8284 329.98 83.1941C329.375 83.5484 328.666 83.7256 327.855 83.7256C327.02 83.7256 326.266 83.5199 325.592 83.1084C324.917 82.697 324.386 82.1199 323.997 81.377C323.609 80.6341 323.415 79.7884 323.415 78.8399ZM331.369 78.857C331.369 78.1484 331.226 77.5313 330.94 77.0056C330.655 76.4799 330.266 76.0799 329.775 75.8056C329.295 75.5199 328.763 75.377 328.18 75.377C327.597 75.377 327.066 75.5141 326.586 75.7884C326.106 76.0627 325.723 76.4627 325.437 76.9884C325.152 77.5141 325.009 78.1313 325.009 78.8399C325.009 79.5599 325.152 80.1884 325.437 80.7256C325.723 81.2513 326.106 81.657 326.586 81.9427C327.066 82.217 327.597 82.3541 328.18 82.3541C328.763 82.3541 329.295 82.217 329.775 81.9427C330.266 81.657 330.655 81.2513 330.94 80.7256C331.226 80.1884 331.369 79.5656 331.369 78.857ZM337.142 70.8856V83.5713H335.582V70.8856H337.142ZM340.607 72.6513C340.31 72.6513 340.058 72.5484 339.852 72.3427C339.647 72.137 339.544 71.8856 339.544 71.5884C339.544 71.2913 339.647 71.0399 339.852 70.8341C340.058 70.6284 340.31 70.5256 340.607 70.5256C340.892 70.5256 341.132 70.6284 341.327 70.8341C341.532 71.0399 341.635 71.2913 341.635 71.5884C341.635 71.8856 341.532 72.137 341.327 72.3427C341.132 72.5484 340.892 72.6513 340.607 72.6513ZM341.361 74.177V83.5713H339.801V74.177H341.361ZM345.185 82.2856H349.797V83.5713H343.403V82.2856L347.963 75.4456H343.437V74.177H349.763V75.4456L345.185 82.2856ZM360.393 78.5141C360.393 78.8113 360.375 79.1256 360.341 79.457H352.833C352.89 80.3827 353.204 81.1084 353.775 81.6341C354.358 82.1484 355.061 82.4056 355.884 82.4056C356.558 82.4056 357.118 82.2513 357.564 81.9427C358.021 81.6227 358.341 81.1999 358.524 80.6741H360.204C359.953 81.577 359.45 82.3141 358.695 82.8856C357.941 83.4456 357.004 83.7256 355.884 83.7256C354.993 83.7256 354.193 83.5256 353.484 83.1256C352.787 82.7256 352.238 82.1599 351.838 81.4284C351.438 80.6856 351.238 79.8284 351.238 78.857C351.238 77.8856 351.433 77.0341 351.821 76.3027C352.21 75.5713 352.753 75.0113 353.45 74.6227C354.158 74.2227 354.97 74.0227 355.884 74.0227C356.775 74.0227 357.564 74.217 358.25 74.6056C358.935 74.9941 359.461 75.5313 359.827 76.217C360.204 76.8913 360.393 77.657 360.393 78.5141ZM358.781 78.1884C358.781 77.5941 358.65 77.0856 358.387 76.6627C358.124 76.2284 357.764 75.9027 357.307 75.6856C356.861 75.457 356.364 75.3427 355.815 75.3427C355.027 75.3427 354.353 75.5941 353.793 76.097C353.244 76.5999 352.93 77.297 352.85 78.1884H358.781ZM375.113 74.177L369.456 87.9941H367.845L369.696 83.4684L365.908 74.177H367.639L370.588 81.7884L373.502 74.177H375.113ZM380.779 83.7256C379.899 83.7256 379.099 83.5256 378.379 83.1256C377.67 82.7256 377.11 82.1599 376.699 81.4284C376.299 80.6856 376.099 79.8284 376.099 78.857C376.099 77.897 376.304 77.0513 376.716 76.3199C377.139 75.577 377.71 75.0113 378.43 74.6227C379.15 74.2227 379.956 74.0227 380.847 74.0227C381.739 74.0227 382.544 74.2227 383.264 74.6227C383.984 75.0113 384.55 75.5713 384.962 76.3027C385.384 77.0341 385.596 77.8856 385.596 78.857C385.596 79.8284 385.379 80.6856 384.944 81.4284C384.522 82.1599 383.944 82.7256 383.213 83.1256C382.482 83.5256 381.67 83.7256 380.779 83.7256ZM380.779 82.3541C381.339 82.3541 381.864 82.2227 382.356 81.9599C382.847 81.697 383.242 81.3027 383.539 80.777C383.847 80.2513 384.002 79.6113 384.002 78.857C384.002 78.1027 383.853 77.4627 383.556 76.937C383.259 76.4113 382.87 76.0227 382.39 75.7713C381.91 75.5084 381.39 75.377 380.83 75.377C380.259 75.377 379.733 75.5084 379.253 75.7713C378.784 76.0227 378.407 76.4113 378.122 76.937C377.836 77.4627 377.693 78.1027 377.693 78.857C377.693 79.6227 377.83 80.2684 378.104 80.7941C378.39 81.3199 378.767 81.7141 379.236 81.977C379.704 82.2284 380.219 82.3541 380.779 82.3541ZM395.978 74.177V83.5713H394.418V82.1827C394.121 82.6627 393.704 83.0399 393.167 83.3141C392.641 83.577 392.058 83.7084 391.418 83.7084C390.687 83.7084 390.03 83.5599 389.447 83.2627C388.864 82.9541 388.401 82.497 388.058 81.8913C387.727 81.2856 387.561 80.5484 387.561 79.6799V74.177H389.104V79.4741C389.104 80.3999 389.338 81.1141 389.807 81.617C390.276 82.1084 390.916 82.3541 391.727 82.3541C392.561 82.3541 393.218 82.097 393.698 81.5827C394.178 81.0684 394.418 80.3199 394.418 79.337V74.177H395.978ZM400.172 75.7027C400.447 75.1656 400.835 74.7484 401.338 74.4513C401.852 74.1541 402.475 74.0056 403.207 74.0056V75.617H402.795C401.047 75.617 400.172 76.5656 400.172 78.4627V83.5713H398.612V74.177H400.172V75.7027ZM408.995 78.8399C408.995 77.8799 409.189 77.0399 409.578 76.3199C409.966 75.5884 410.498 75.0227 411.172 74.6227C411.858 74.2227 412.624 74.0227 413.469 74.0227C414.201 74.0227 414.881 74.1941 415.509 74.537C416.138 74.8684 416.618 75.3084 416.949 75.857V70.8856H418.526V83.5713H416.949V81.8056C416.641 82.3656 416.184 82.8284 415.578 83.1941C414.972 83.5484 414.264 83.7256 413.452 83.7256C412.618 83.7256 411.858 83.5199 411.172 83.1084C410.498 82.697 409.966 82.1199 409.578 81.377C409.189 80.6341 408.995 79.7884 408.995 78.8399ZM416.949 78.857C416.949 78.1484 416.806 77.5313 416.521 77.0056C416.235 76.4799 415.846 76.0799 415.355 75.8056C414.875 75.5199 414.344 75.377 413.761 75.377C413.178 75.377 412.646 75.5141 412.166 75.7884C411.686 76.0627 411.304 76.4627 411.018 76.9884C410.732 77.5141 410.589 78.1313 410.589 78.8399C410.589 79.5599 410.732 80.1884 411.018 80.7256C411.304 81.2513 411.686 81.657 412.166 81.9427C412.646 82.217 413.178 82.3541 413.761 82.3541C414.344 82.3541 414.875 82.217 415.355 81.9427C415.846 81.657 416.235 81.2513 416.521 80.7256C416.806 80.1884 416.949 79.5656 416.949 78.857ZM422.723 75.7027C422.997 75.1656 423.385 74.7484 423.888 74.4513C424.403 74.1541 425.025 74.0056 425.757 74.0056V75.617H425.345C423.597 75.617 422.723 76.5656 422.723 78.4627V83.5713H421.163V74.177H422.723V75.7027ZM436.129 78.5141C436.129 78.8113 436.112 79.1256 436.078 79.457H428.569C428.626 80.3827 428.941 81.1084 429.512 81.6341C430.095 82.1484 430.798 82.4056 431.621 82.4056C432.295 82.4056 432.855 82.2513 433.301 81.9427C433.758 81.6227 434.078 81.1999 434.261 80.6741H435.941C435.689 81.577 435.186 82.3141 434.432 82.8856C433.678 83.4456 432.741 83.7256 431.621 83.7256C430.729 83.7256 429.929 83.5256 429.221 83.1256C428.523 82.7256 427.975 82.1599 427.575 81.4284C427.175 80.6856 426.975 79.8284 426.975 78.857C426.975 77.8856 427.169 77.0341 427.558 76.3027C427.946 75.5713 428.489 75.0113 429.186 74.6227C429.895 74.2227 430.706 74.0227 431.621 74.0227C432.512 74.0227 433.301 74.217 433.986 74.6056C434.672 74.9941 435.198 75.5313 435.563 76.217C435.941 76.8913 436.129 77.657 436.129 78.5141ZM434.518 78.1884C434.518 77.5941 434.386 77.0856 434.123 76.6627C433.861 76.2284 433.501 75.9027 433.043 75.6856C432.598 75.457 432.101 75.3427 431.552 75.3427C430.763 75.3427 430.089 75.5941 429.529 76.097C428.981 76.5999 428.666 77.297 428.586 78.1884H434.518ZM437.605 78.8399C437.605 77.8799 437.8 77.0399 438.188 76.3199C438.577 75.5884 439.108 75.0227 439.783 74.6227C440.468 74.2227 441.228 74.0227 442.063 74.0227C442.885 74.0227 443.6 74.1999 444.205 74.5541C444.811 74.9084 445.263 75.3541 445.56 75.8913V74.177H447.137V83.5713H445.56V81.8227C445.251 82.3713 444.788 82.8284 444.171 83.1941C443.565 83.5484 442.857 83.7256 442.045 83.7256C441.211 83.7256 440.457 83.5199 439.783 83.1084C439.108 82.697 438.577 82.1199 438.188 81.377C437.8 80.6341 437.605 79.7884 437.605 78.8399ZM445.56 78.857C445.56 78.1484 445.417 77.5313 445.131 77.0056C444.845 76.4799 444.457 76.0799 443.965 75.8056C443.485 75.5199 442.954 75.377 442.371 75.377C441.788 75.377 441.257 75.5141 440.777 75.7884C440.297 76.0627 439.914 76.4627 439.628 76.9884C439.343 77.5141 439.2 78.1313 439.2 78.8399C439.2 79.5599 439.343 80.1884 439.628 80.7256C439.914 81.2513 440.297 81.657 440.777 81.9427C441.257 82.217 441.788 82.3541 442.371 82.3541C442.954 82.3541 443.485 82.217 443.965 81.9427C444.457 81.657 444.845 81.2513 445.131 80.7256C445.417 80.1884 445.56 79.5656 445.56 78.857ZM461.07 74.0056C461.802 74.0056 462.453 74.1599 463.025 74.4684C463.596 74.7656 464.047 75.217 464.379 75.8227C464.71 76.4284 464.876 77.1656 464.876 78.0341V83.5713H463.333V78.257C463.333 77.3199 463.099 76.6056 462.63 76.1141C462.173 75.6113 461.55 75.3599 460.762 75.3599C459.95 75.3599 459.305 75.6227 458.825 76.1484C458.345 76.6627 458.105 77.4113 458.105 78.3941V83.5713H456.562V78.257C456.562 77.3199 456.327 76.6056 455.859 76.1141C455.402 75.6113 454.779 75.3599 453.99 75.3599C453.179 75.3599 452.533 75.6227 452.053 76.1484C451.573 76.6627 451.333 77.4113 451.333 78.3941V83.5713H449.773V74.177H451.333V75.5313C451.642 75.0399 452.053 74.6627 452.567 74.3999C453.093 74.137 453.67 74.0056 454.299 74.0056C455.087 74.0056 455.785 74.1827 456.39 74.537C456.996 74.8913 457.447 75.4113 457.745 76.097C458.007 75.4341 458.442 74.9199 459.047 74.5541C459.653 74.1884 460.327 74.0056 461.07 74.0056ZM467.932 83.6741C467.635 83.6741 467.384 83.5713 467.178 83.3656C466.972 83.1599 466.869 82.9084 466.869 82.6113C466.869 82.3141 466.972 82.0627 467.178 81.857C467.384 81.6513 467.635 81.5484 467.932 81.5484C468.218 81.5484 468.458 81.6513 468.652 81.857C468.858 82.0627 468.961 82.3141 468.961 82.6113C468.961 82.9084 468.858 83.1599 468.652 83.3656C468.458 83.5713 468.218 83.6741 467.932 83.6741Z" fill="url(#paint4_linear)"/>
<path d="M119.8 38.788C119.8 36.964 120.148 35.236 120.844 33.604C121.54 31.972 122.5 30.532 123.724 29.284C124.972 28.012 126.412 27.016 128.044 26.296C129.676 25.576 131.428 25.216 133.3 25.216C135.148 25.216 136.888 25.576 138.52 26.296C140.152 27.016 141.592 28.012 142.84 29.284C144.112 30.532 145.096 31.972 145.792 33.604C146.512 35.236 146.872 36.964 146.872 38.788C146.872 40.66 146.512 42.412 145.792 44.044C145.096 45.676 144.112 47.116 142.84 48.364C141.592 49.588 140.152 50.548 138.52 51.244C136.888 51.94 135.148 52.288 133.3 52.288C131.428 52.288 129.676 51.94 128.044 51.244C126.412 50.548 124.972 49.588 123.724 48.364C122.5 47.116 121.54 45.676 120.844 44.044C120.148 42.412 119.8 40.66 119.8 38.788ZM125.2 38.788C125.2 40.348 125.56 41.776 126.28 43.072C127.024 44.344 128.02 45.364 129.268 46.132C130.516 46.876 131.92 47.248 133.48 47.248C134.992 47.248 136.348 46.876 137.548 46.132C138.772 45.364 139.732 44.344 140.428 43.072C141.124 41.776 141.472 40.348 141.472 38.788C141.472 37.18 141.112 35.74 140.392 34.468C139.672 33.172 138.7 32.152 137.476 31.408C136.252 30.64 134.872 30.256 133.336 30.256C131.8 30.256 130.42 30.64 129.196 31.408C127.972 32.152 127 33.172 126.28 34.468C125.56 35.74 125.2 37.18 125.2 38.788ZM159.636 46.42C159.636 48.724 159.18 50.692 158.268 52.324C157.356 53.956 156.084 55.204 154.452 56.068C152.844 56.956 150.972 57.436 148.836 57.508V52.432C150.468 52.336 151.8 51.832 152.832 50.92C153.864 50.008 154.38 48.472 154.38 46.312V25.504H159.636V46.42ZM162.799 52L174.751 24.46H175.039L186.991 52H180.943L178.891 46.816H170.107L167.947 52H162.799ZM171.943 42.424H177.163L174.607 35.98L171.943 42.424ZM205.002 31.912C203.994 31.36 202.962 30.904 201.906 30.544C200.874 30.184 199.902 30.004 198.99 30.004C197.862 30.004 196.974 30.232 196.326 30.688C195.678 31.144 195.354 31.828 195.354 32.74C195.354 33.364 195.594 33.928 196.074 34.432C196.578 34.912 197.214 35.344 197.982 35.728C198.774 36.112 199.59 36.46 200.43 36.772C201.462 37.156 202.458 37.648 203.418 38.248C204.378 38.824 205.17 39.628 205.794 40.66C206.418 41.668 206.73 43.012 206.73 44.692C206.73 46.036 206.382 47.284 205.686 48.436C204.99 49.588 203.97 50.524 202.626 51.244C201.282 51.94 199.626 52.288 197.658 52.288C196.146 52.288 194.598 52.06 193.014 51.604C191.454 51.148 189.978 50.428 188.586 49.444L190.89 45.376C191.802 46.048 192.846 46.6 194.022 47.032C195.198 47.464 196.254 47.68 197.19 47.68C197.814 47.68 198.438 47.596 199.062 47.428C199.71 47.236 200.238 46.924 200.646 46.492C201.078 46.06 201.294 45.46 201.294 44.692C201.294 43.9 200.91 43.216 200.142 42.64C199.398 42.04 198.498 41.536 197.442 41.128C196.626 40.816 195.786 40.456 194.922 40.048C194.058 39.64 193.242 39.148 192.474 38.572C191.73 37.972 191.118 37.24 190.638 36.376C190.182 35.488 189.954 34.408 189.954 33.136C189.954 31.6 190.29 30.268 190.962 29.14C191.658 28.012 192.63 27.124 193.878 26.476C195.126 25.804 196.566 25.432 198.198 25.36C200.334 25.36 202.062 25.612 203.382 26.116C204.726 26.62 205.926 27.22 206.982 27.916L205.002 31.912ZM223.549 25.504H241.621V30.544H228.769V36.196H240.145V41.236H228.769V46.96H242.125V52H223.549V25.504ZM271.249 53.08L252.709 36.34L252.817 52H247.525V24.46H247.741L266.245 41.452L266.137 25.504H271.393V53.08H271.249ZM276.417 25.504H294.273V30.544H287.829V52H282.609V30.544H276.417V25.504ZM299.311 25.504H317.383V30.544H304.531V36.196H315.907V41.236H304.531V46.96H317.887V52H299.311V25.504ZM331.315 25.504C334.651 25.504 337.207 26.32 338.983 27.952C340.783 29.56 341.683 31.72 341.683 34.432C341.683 35.944 341.359 37.432 340.711 38.896C340.087 40.36 339.019 41.524 337.507 42.388L343.663 52H337.579L331.999 43.576H328.507V52H323.287V25.504H331.315ZM332.215 38.536C333.271 38.536 334.087 38.32 334.663 37.888C335.263 37.432 335.683 36.904 335.923 36.304C336.163 35.68 336.283 35.116 336.283 34.612C336.283 34.324 336.235 33.964 336.139 33.532C336.067 33.076 335.899 32.62 335.635 32.164C335.371 31.708 334.963 31.324 334.411 31.012C333.883 30.7 333.163 30.544 332.251 30.544H328.507V38.536H332.215ZM355.995 25.504C359.283 25.504 361.803 26.32 363.555 27.952C365.307 29.56 366.183 31.72 366.183 34.432C366.183 35.512 366.015 36.604 365.679 37.708C365.367 38.788 364.851 39.772 364.131 40.66C363.435 41.548 362.487 42.268 361.287 42.82C360.111 43.348 358.659 43.612 356.931 43.612H353.187V52H347.967V25.504H355.995ZM356.895 38.536C357.951 38.536 358.767 38.308 359.343 37.852C359.943 37.372 360.363 36.82 360.603 36.196C360.843 35.572 360.963 35.032 360.963 34.576C360.963 34.312 360.915 33.964 360.819 33.532C360.747 33.076 360.579 32.62 360.315 32.164C360.051 31.708 359.643 31.324 359.091 31.012C358.563 30.7 357.843 30.544 356.931 30.544H353.187V38.536H356.895ZM378.882 25.504C382.218 25.504 384.774 26.32 386.55 27.952C388.35 29.56 389.25 31.72 389.25 34.432C389.25 35.944 388.926 37.432 388.278 38.896C387.654 40.36 386.586 41.524 385.074 42.388L391.23 52H385.146L379.566 43.576H376.074V52H370.854V25.504H378.882ZM379.782 38.536C380.838 38.536 381.654 38.32 382.23 37.888C382.83 37.432 383.25 36.904 383.49 36.304C383.73 35.68 383.85 35.116 383.85 34.612C383.85 34.324 383.802 33.964 383.706 33.532C383.634 33.076 383.466 32.62 383.202 32.164C382.938 31.708 382.53 31.324 381.978 31.012C381.45 30.7 380.73 30.544 379.818 30.544H376.074V38.536H379.782ZM395.533 25.504H400.753V52H395.533V25.504ZM421.74 31.912C420.732 31.36 419.7 30.904 418.644 30.544C417.612 30.184 416.64 30.004 415.728 30.004C414.6 30.004 413.712 30.232 413.064 30.688C412.416 31.144 412.092 31.828 412.092 32.74C412.092 33.364 412.332 33.928 412.812 34.432C413.316 34.912 413.952 35.344 414.72 35.728C415.512 36.112 416.328 36.46 417.168 36.772C418.2 37.156 419.196 37.648 420.156 38.248C421.116 38.824 421.908 39.628 422.532 40.66C423.156 41.668 423.468 43.012 423.468 44.692C423.468 46.036 423.12 47.284 422.424 48.436C421.728 49.588 420.708 50.524 419.364 51.244C418.02 51.94 416.364 52.288 414.396 52.288C412.884 52.288 411.336 52.06 409.752 51.604C408.192 51.148 406.716 50.428 405.324 49.444L407.628 45.376C408.54 46.048 409.584 46.6 410.76 47.032C411.936 47.464 412.992 47.68 413.928 47.68C414.552 47.68 415.176 47.596 415.8 47.428C416.448 47.236 416.976 46.924 417.384 46.492C417.816 46.06 418.032 45.46 418.032 44.692C418.032 43.9 417.648 43.216 416.88 42.64C416.136 42.04 415.236 41.536 414.18 41.128C413.364 40.816 412.524 40.456 411.66 40.048C410.796 39.64 409.98 39.148 409.212 38.572C408.468 37.972 407.856 37.24 407.376 36.376C406.92 35.488 406.692 34.408 406.692 33.136C406.692 31.6 407.028 30.268 407.7 29.14C408.396 28.012 409.368 27.124 410.616 26.476C411.864 25.804 413.304 25.432 414.936 25.36C417.072 25.36 418.8 25.612 420.12 26.116C421.464 26.62 422.664 27.22 423.72 27.916L421.74 31.912ZM428.58 25.504H446.652V30.544H433.8V36.196H445.176V41.236H433.8V46.96H447.156V52H428.58V25.504ZM466.705 31.912C465.697 31.36 464.665 30.904 463.609 30.544C462.577 30.184 461.605 30.004 460.693 30.004C459.565 30.004 458.677 30.232 458.029 30.688C457.381 31.144 457.057 31.828 457.057 32.74C457.057 33.364 457.297 33.928 457.777 34.432C458.281 34.912 458.917 35.344 459.685 35.728C460.477 36.112 461.293 36.46 462.133 36.772C463.165 37.156 464.161 37.648 465.121 38.248C466.081 38.824 466.873 39.628 467.497 40.66C468.121 41.668 468.433 43.012 468.433 44.692C468.433 46.036 468.085 47.284 467.389 48.436C466.693 49.588 465.673 50.524 464.329 51.244C462.985 51.94 461.329 52.288 459.361 52.288C457.849 52.288 456.301 52.06 454.717 51.604C453.157 51.148 451.681 50.428 450.289 49.444L452.593 45.376C453.505 46.048 454.549 46.6 455.725 47.032C456.901 47.464 457.957 47.68 458.893 47.68C459.517 47.68 460.141 47.596 460.765 47.428C461.413 47.236 461.941 46.924 462.349 46.492C462.781 46.06 462.997 45.46 462.997 44.692C462.997 43.9 462.613 43.216 461.845 42.64C461.101 42.04 460.201 41.536 459.145 41.128C458.329 40.816 457.489 40.456 456.625 40.048C455.761 39.64 454.945 39.148 454.177 38.572C453.433 37.972 452.821 37.24 452.341 36.376C451.885 35.488 451.657 34.408 451.657 33.136C451.657 31.6 451.993 30.268 452.665 29.14C453.361 28.012 454.333 27.124 455.581 26.476C456.829 25.804 458.269 25.432 459.901 25.36C462.037 25.36 463.765 25.612 465.085 26.116C466.429 26.62 467.629 27.22 468.685 27.916L466.705 31.912Z" fill="#1A003A"/>
<defs>
<filter id="filter0_d" x="6.63032" y="31.1787" width="80.5649" height="81.6206" filterUnits="userSpaceOnUse" color-interpolation-filters="sRGB">
<feFlood flood-opacity="0" result="BackgroundImageFix"/>
<feColorMatrix in="SourceAlpha" type="matrix" values="0 0 0 0 0 0 0 0 0 0 0 0 0 0 0 0 0 0 127 0" result="hardAlpha"/>
<feOffset dy="5.69388"/>
<feGaussianBlur stdDeviation="4.7449"/>
<feComposite in2="hardAlpha" operator="out"/>
<feColorMatrix type="matrix" values="0 0 0 0 0 0 0 0 0 0 0 0 0 0 0 0 0 0 0.15 0"/>
<feBlend mode="normal" in2="BackgroundImageFix" result="effect1_dropShadow"/>
<feBlend mode="normal" in="SourceGraphic" in2="effect1_dropShadow" result="shape"/>
</filter>
<linearGradient id="paint0_linear" x1="59.3114" y1="14.2344" x2="59.3114" y2="114.826" gradientUnits="userSpaceOnUse">
<stop stop-color="#FF3939"/>
<stop offset="0.536458" stop-color="#B60238"/>
<stop offset="1" stop-color="#1A003A"/>
</linearGradient>
<linearGradient id="paint1_linear" x1="52.6688" y1="14.2344" x2="52.6688" y2="114.826" gradientUnits="userSpaceOnUse">
<stop stop-color="#FF3939"/>
<stop offset="0.536458" stop-color="#B60238"/>
<stop offset="1" stop-color="#1A003A"/>
</linearGradient>
<linearGradient id="paint2_linear" x1="46.9745" y1="14.2344" x2="46.9745" y2="114.826" gradientUnits="userSpaceOnUse">
<stop stop-color="#FF3939"/>
<stop offset="0.536458" stop-color="#B60238"/>
<stop offset="1" stop-color="#1A003A"/>
</linearGradient>
<radialGradient id="paint3_diamond" cx="0" cy="0" r="1" gradientUnits="userSpaceOnUse" gradientTransform="translate(29.4185 36.5664) rotate(44.452) scale(47.1939 41.6283)">
<stop offset="0.278575" stop-color="white"/>
<stop offset="1" stop-color="white"/>
</radialGradient>
<linearGradient id="paint4_linear" x1="255" y1="77.4285" x2="463" y2="77.4285" gradientUnits="userSpaceOnUse">
<stop stop-color="#FF3939"/>
<stop offset="0.202221" stop-color="#B60238"/>
<stop offset="1" stop-color="#1A003A"/>
</linearGradient>
</defs>
</svg>
