<svg width="169" height="81" viewBox="0 0 169 81" fill="none" xmlns="http://www.w3.org/2000/svg">
<path d="M31.1358 1.06281C37.2944 1.06281 42.2212 2.0599 45.9163 4.0541C49.6114 5.98963 52.1042 9.30351 53.3945 13.9957C54.6849 18.6293 54.7729 24.9931 53.6585 33.0872C52.8373 39.187 51.6936 44.2605 50.2273 48.3075C48.761 52.2959 46.8547 55.4631 44.5086 57.8092C42.2212 60.0967 39.4059 61.739 36.0627 62.7361C32.7195 63.6745 28.7897 64.1437 24.2735 64.1437C17.939 64.1437 12.9242 63.176 9.22908 61.2404C5.59261 59.3049 3.15853 56.0203 1.92682 51.3868C0.753769 46.6946 0.724443 40.2721 1.83884 32.1194C2.65998 26.1955 3.77438 21.2393 5.18204 17.2509C6.64836 13.2626 8.52524 10.0953 10.8127 7.74921C13.1002 5.34445 15.9155 3.64353 19.2587 2.64643C22.6019 1.59068 26.5609 1.06281 31.1358 1.06281ZM30.8719 11.6203C27.7047 11.6203 25.1826 12.2361 23.3057 13.4678C21.4288 14.6995 19.9039 16.8697 18.7308 19.9783C17.6164 23.0869 16.6486 27.4565 15.8275 33.0872C15.065 38.4832 14.8011 42.6769 15.0357 45.6681C15.2703 48.6008 16.1501 50.6536 17.6751 51.8267C19.2 52.9997 21.4875 53.5863 24.5374 53.5863C27.646 53.5863 30.1387 52.9997 32.0156 51.8267C33.9512 50.595 35.4761 48.4248 36.5905 45.3162C37.7636 42.2076 38.7607 37.8087 39.5818 32.1194C40.403 26.6647 40.6669 22.471 40.3736 19.5384C40.139 16.6058 39.2299 14.5529 37.6463 13.3799C36.1213 12.2068 33.8632 11.6203 30.8719 11.6203Z" fill="#1FFFFF"/>
<path d="M73.684 0.358981C76.4993 0.358981 77.7017 1.73732 77.2911 4.49399L76.6753 9.24486C76.3233 11.6496 74.8864 12.852 72.3643 12.852H67.1735C64.3582 12.852 63.0972 11.4737 63.3904 8.71698L64.0943 4.0541C64.3875 1.59069 65.8245 0.358981 68.4052 0.358981H73.684ZM75.1796 19.5384L69.197 61.2404C68.6692 65.2288 67.2322 68.9532 64.8861 72.4137C62.5986 75.8743 59.666 78.543 56.0882 80.4198L48.9619 74.4373C51.1907 72.2085 52.8916 70.009 54.0647 67.8388C55.2377 65.7273 56.0002 63.3519 56.3521 60.7125L62.2467 19.5384H75.1796ZM103.717 18.3947C105.77 18.3947 108.116 18.5413 110.755 18.8346C113.395 19.0692 115.946 19.3624 118.41 19.7144C120.932 20.0663 122.955 20.4475 124.48 20.8581L118.586 63H108.468L108.644 54.1141C106.532 57.1054 103.922 59.4808 100.814 61.2404C97.7639 63 94.3327 63.9384 90.5203 64.0557C84.831 64.2904 81.1065 62.4428 79.3469 58.5131C77.5874 54.5833 77.3234 48.5421 78.5551 40.3894C79.3176 35.4039 80.3734 31.4449 81.7224 28.5122C83.13 25.5796 84.8603 23.4095 86.9131 22.0018C89.0246 20.5355 91.4587 19.5677 94.2154 19.0985C97.0307 18.6293 100.198 18.3947 103.717 18.3947ZM91.752 40.4774C91.2241 44.1138 90.9308 46.8998 90.8722 48.8354C90.8722 50.7709 91.1948 52.0906 91.8399 52.7944C92.5438 53.4396 93.6875 53.7329 95.2711 53.6742C97.2653 53.6742 99.3768 52.8824 101.606 51.2988C103.834 49.6565 106.005 47.5744 108.116 45.0523L110.579 27.7204C108.057 27.6031 105.77 27.5445 103.717 27.5445C101.136 27.5445 99.0542 27.8377 97.4706 28.4243C95.9456 29.0108 94.7433 30.2132 93.8635 32.0314C92.9837 33.8496 92.2798 36.665 91.752 40.4774ZM148.127 18.3947C150.297 18.4533 152.613 18.5706 155.077 18.7466C157.54 18.8639 159.916 19.0398 162.203 19.2745C164.549 19.5091 166.573 19.773 168.274 20.0663L167.042 28.0724C164.227 28.0724 161.411 28.043 158.596 27.9844C155.839 27.9257 153.024 27.8964 150.15 27.8964C146.748 27.8964 144.402 28.0137 143.112 28.2483C141.821 28.4829 141.088 29.2454 140.912 30.5358C140.736 31.6502 141.03 32.5006 141.792 33.0872C142.555 33.615 143.845 34.2016 145.663 34.8467L156.485 38.7178C159.886 39.9495 162.379 41.5625 163.963 43.5566C165.605 45.5508 166.192 48.2782 165.722 51.7387C165.253 55.3165 164.139 57.9852 162.379 59.7448C160.62 61.4457 158.244 62.5601 155.253 63.088C152.262 63.6745 148.684 63.9678 144.519 63.9678C142.232 63.9678 140.091 63.9091 138.097 63.7918C136.161 63.7332 134.167 63.5865 132.114 63.3519C130.062 63.1173 127.715 62.7947 125.076 62.3841L126.308 54.2901C127.891 54.4074 130.032 54.4954 132.73 54.554C135.487 54.554 138.097 54.554 140.56 54.554C143.845 54.554 146.367 54.466 148.127 54.2901C149.945 54.1141 151.206 53.7915 151.91 53.3223C152.672 52.8531 153.112 52.1786 153.229 51.2988C153.405 50.1844 153.083 49.3926 152.262 48.9234C151.44 48.4541 150.062 47.8676 148.127 47.1638L137.481 43.2047C133.903 41.9144 131.381 40.1841 129.915 38.014C128.507 35.7852 128.038 32.9698 128.507 29.568C129.035 25.5796 130.765 22.735 133.698 21.034C136.689 19.2745 141.499 18.3947 148.127 18.3947Z" fill="#EAFFFF"/>
</svg>
