<svg width="31" height="46" viewBox="0 0 31 46" fill="none" xmlns="http://www.w3.org/2000/svg">
<g filter="url(#filter0_d_330_85)">
<rect x="4" y="2.12134" width="3" height="3" transform="rotate(-45 4 2.12134)" fill="white"/>
<rect x="13.2427" y="2.12134" width="3" height="3" transform="rotate(-45 13.2427 2.12134)" fill="white"/>
<rect x="22.4854" y="2.12134" width="3" height="3" transform="rotate(-45 22.4854 2.12134)" fill="white"/>
<rect x="4" y="10.364" width="3" height="3" transform="rotate(-45 4 10.364)" fill="white"/>
<rect x="13.2427" y="10.364" width="3" height="3" transform="rotate(-45 13.2427 10.364)" fill="white"/>
<rect x="22.4854" y="10.364" width="3" height="3" transform="rotate(-45 22.4854 10.364)" fill="white"/>
<rect x="4" y="18.6067" width="3" height="3" transform="rotate(-45 4 18.6067)" fill="white"/>
<rect x="13.2427" y="18.6067" width="3" height="3" transform="rotate(-45 13.2427 18.6067)" fill="white"/>
<rect x="22.4854" y="18.6067" width="3" height="3" transform="rotate(-45 22.4854 18.6067)" fill="white"/>
<rect x="4" y="26.8494" width="3" height="3" transform="rotate(-45 4 26.8494)" fill="white"/>
<rect x="13.2427" y="26.8494" width="3" height="3" transform="rotate(-45 13.2427 26.8494)" fill="white"/>
<rect x="22.4854" y="26.8494" width="3" height="3" transform="rotate(-45 22.4854 26.8494)" fill="white"/>
<rect x="4" y="35.092" width="3" height="3" transform="rotate(-45 4 35.092)" fill="white"/>
<rect x="13.2427" y="35.092" width="3" height="3" transform="rotate(-45 13.2427 35.092)" fill="white"/>
<rect x="22.4854" y="35.092" width="3" height="3" transform="rotate(-45 22.4854 35.092)" fill="white"/>
</g>
<defs>
<filter id="filter0_d_330_85" x="0" y="0" width="30.728" height="45.2134" filterUnits="userSpaceOnUse" color-interpolation-filters="sRGB">
<feFlood flood-opacity="0" result="BackgroundImageFix"/>
<feColorMatrix in="SourceAlpha" type="matrix" values="0 0 0 0 0 0 0 0 0 0 0 0 0 0 0 0 0 0 127 0" result="hardAlpha"/>
<feOffset dy="4"/>
<feGaussianBlur stdDeviation="2"/>
<feComposite in2="hardAlpha" operator="out"/>
<feColorMatrix type="matrix" values="0 0 0 0 0 0 0 0 0 0 0 0 0 0 0 0 0 0 0.05 0"/>
<feBlend mode="normal" in2="BackgroundImageFix" result="effect1_dropShadow_330_85"/>
<feBlend mode="normal" in="SourceGraphic" in2="effect1_dropShadow_330_85" result="shape"/>
</filter>
</defs>
</svg>
