<svg width="54" height="64" viewBox="0 0 54 64" fill="none" xmlns="http://www.w3.org/2000/svg">
<path d="M30.1358 0.062809C36.2944 0.062809 41.2212 1.0599 44.9163 3.0541C48.6114 4.98963 51.1042 8.30351 52.3945 12.9957C53.6849 17.6293 53.7729 23.9931 52.6585 32.0872C51.8373 38.187 50.6936 43.2605 49.2273 47.3075C47.761 51.2959 45.8547 54.4631 43.5086 56.8092C41.2212 59.0967 38.4059 60.739 35.0627 61.7361C31.7195 62.6745 27.7897 63.1437 23.2735 63.1437C16.939 63.1437 11.9242 62.176 8.22908 60.2404C4.59261 58.3049 2.15853 55.0203 0.926822 50.3868C-0.246229 45.6946 -0.275555 39.2721 0.838842 31.1194C1.65998 25.1955 2.77438 20.2393 4.18204 16.2509C5.64836 12.2626 7.52524 9.0953 9.8127 6.74921C12.1002 4.34445 14.9155 2.64353 18.2587 1.64643C21.6019 0.590679 25.5609 0.062809 30.1358 0.062809ZM29.8719 10.6203C26.7047 10.6203 24.1826 11.2361 22.3057 12.4678C20.4288 13.6995 18.9039 15.8697 17.7308 18.9783C16.6164 22.0869 15.6486 26.4565 14.8275 32.0872C14.065 37.4832 13.8011 41.6769 14.0357 44.6681C14.2703 47.6008 15.1501 49.6536 16.6751 50.8267C18.2 51.9997 20.4875 52.5863 23.5374 52.5863C26.646 52.5863 29.1387 51.9997 31.0156 50.8267C32.9512 49.595 34.4761 47.4248 35.5905 44.3162C36.7636 41.2076 37.7607 36.8087 38.5818 31.1194C39.403 25.6647 39.6669 21.471 39.3736 18.5384C39.139 15.6058 38.2299 13.5529 36.6463 12.3799C35.1213 11.2068 32.8632 10.6203 29.8719 10.6203Z" fill="#1FFFFF"/>
</svg>
