<svg width="512" height="512" viewBox="0 0 512 512" fill="none" xmlns="http://www.w3.org/2000/svg">
<path d="M411.73 83.9171C371.992 83.9171 339.779 116.129 339.779 155.864V263.79H483.681V155.864C483.682 116.129 451.469 83.9171 411.73 83.9171Z" fill="#FF7690"/>
<path d="M487.592 248.043C484.477 246.849 472.408 237.418 467.692 235.81H411.73H411.644H355.681C350.966 237.418 338.896 246.849 335.781 248.043C322.267 253.079 315.552 258.114 315.552 271.629C315.552 285.058 315.552 291.772 315.552 291.772H507.82C507.82 291.772 507.82 285.058 507.82 271.629C507.82 258.114 501.107 253.079 487.592 248.043Z" fill="#FF1B46"/>
<path d="M351.771 248.043C354.884 246.849 366.955 237.418 371.671 235.81H355.681C350.966 237.418 338.896 246.849 335.781 248.043C322.267 253.079 315.552 258.114 315.552 271.629C315.552 285.058 315.552 291.772 315.552 291.772H331.542C331.542 291.772 331.542 285.058 331.542 271.629C331.543 258.114 338.256 253.079 351.771 248.043Z" fill="#FF7690"/>
<path d="M487.592 248.043C484.477 246.849 472.408 237.418 467.692 235.81H451.704C456.419 237.418 468.489 246.849 471.604 248.043C485.118 253.079 491.833 258.114 491.833 271.629C491.833 285.058 491.833 291.772 491.833 291.772H507.821C507.821 291.772 507.821 285.058 507.821 271.629C507.82 258.114 501.107 253.079 487.592 248.043Z" fill="#FF7690"/>
<path d="M443.787 219.118H379.83V247.802H443.787V219.118Z" fill="#FF7690"/>
<path d="M467.691 235.81L443.584 219.118L419.881 291.771L451.703 259.793L443.709 251.799L467.691 235.81Z" fill="white"/>
<path d="M355.721 235.81L379.83 219.118L403.533 291.771L371.711 259.793L379.705 251.799L355.721 235.81Z" fill="white"/>
<path d="M411.73 251.799V291.771H419.881L435.713 243.882L411.73 251.799Z" fill="#FF7690"/>
<path d="M403.533 291.771H411.684V251.799L387.699 243.882L403.533 291.771Z" fill="#FF7690"/>
<path d="M447.783 125.314C447.283 125.091 425.806 124.525 411.73 124.174C397.654 124.525 376.175 125.091 375.675 125.314C374.927 125.646 355.853 158.744 355.853 158.744V167.215C355.853 202.909 390.455 235.715 411.73 235.801C433.003 235.715 467.605 202.909 467.605 167.215V158.744C467.605 158.745 448.533 125.646 447.783 125.314Z" fill="#FF7690"/>
<path d="M447.783 125.314C447.283 125.091 425.806 124.525 411.73 124.174C409.248 124.236 406.521 124.307 403.734 124.377C416.75 124.716 431.38 125.13 431.795 125.314C432.543 125.646 451.617 158.744 451.617 158.744V167.215C451.617 198.709 424.689 227.92 403.734 234.423C406.529 235.293 409.224 235.789 411.73 235.801C433.003 235.715 467.605 202.909 467.605 167.215V158.744C467.605 158.745 448.533 125.646 447.783 125.314Z" fill="#FF7690"/>
<path d="M371.844 167.216V158.745C371.844 158.745 390.916 125.647 391.666 125.315C392.08 125.131 406.709 124.717 419.725 124.378C416.938 124.308 414.213 124.238 411.731 124.175C397.655 124.526 376.176 125.092 375.676 125.315C374.928 125.647 355.854 158.745 355.854 158.745V167.216C355.854 202.91 390.456 235.716 411.731 235.802C414.237 235.79 416.93 235.294 419.725 234.424C398.77 227.92 371.844 198.71 371.844 167.216Z" fill="white"/>
<path d="M340.809 167.543C362.584 161.446 412.541 142.591 427.719 133.878C450.907 120.703 464.936 108.286 465.303 107.958C452.133 93.233 433.043 83.916 411.731 83.916C371.993 83.916 339.78 116.128 339.78 155.863C339.779 159.854 340.186 163.733 340.809 167.543Z" fill="#FF7690"/>
<path d="M347.773 155.864C347.773 117.53 377.785 86.2861 415.578 84.1281C414.291 84.0581 413.033 83.9171 411.73 83.9171C371.992 83.9171 339.779 116.129 339.779 155.864C339.779 159.853 340.185 163.733 340.808 167.543C343.074 166.911 345.697 166.11 348.499 165.224C348.078 162.156 347.773 159.053 347.773 155.864Z" fill="#FF7690"/>
<path d="M483.682 155.864C483.682 136.572 476.045 119.088 463.672 106.178L427.719 133.956C427.719 133.956 445.574 153.692 483.237 163.732C483.518 161.142 483.682 158.526 483.682 155.864Z" fill="#FF7690"/>
<path d="M465.256 107.998C465.264 107.994 465.303 107.963 465.303 107.963C465.1 107.729 464.865 107.529 464.655 107.303C464.319 106.936 464.014 106.538 463.673 106.178C463.642 106.143 463.556 106.17 463.509 106.147C450.423 92.5081 432.132 83.9171 411.732 83.9171C410.357 83.9171 409.015 84.0461 407.656 84.1241C426.465 85.1501 443.281 93.3951 455.513 106.147C455.56 106.17 455.646 106.143 455.677 106.178C456.021 106.537 456.325 106.936 456.661 107.303C456.872 107.529 457.106 107.728 457.309 107.959C457.309 107.959 457.27 107.994 457.262 107.998C468.668 120.712 475.686 137.439 475.686 155.864C475.686 157.733 475.522 159.56 475.374 161.391C477.905 162.21 480.505 163.003 483.237 163.733C483.518 161.141 483.682 158.526 483.682 155.864C483.682 137.439 476.662 120.712 465.256 107.998Z" fill="#FF7690"/>
<path d="M419.771 395.864C419.771 417.685 419.771 435.673 419.771 435.673H91.995C91.995 435.673 91.995 417.686 91.995 395.864C91.995 374.036 102.94 365.799 124.769 357.648C135.878 353.495 163.945 342.62 179.934 334.625L190.083 326.467L219.907 363.723L251.885 347.734H259.881L291.858 363.723L321.674 326.467L331.832 334.625C347.898 342.62 375.957 353.495 387.066 357.648C408.896 365.799 419.771 374.036 419.771 395.864Z" fill="#FF1B46"/>
<path d="M140.758 357.648C151.867 353.495 179.934 342.62 195.923 334.625L196.345 334.289L190.083 326.467L179.934 334.625C163.945 342.62 135.878 353.495 124.769 357.648C102.94 365.798 91.995 374.036 91.995 395.864C91.995 417.685 91.995 435.673 91.995 435.673H107.984C107.984 435.673 107.984 417.686 107.984 395.864C107.983 374.036 118.929 365.799 140.758 357.648Z" fill="#FF7690"/>
<path d="M370.961 357.648C359.852 353.495 331.785 342.62 315.795 334.625L315.373 334.289L321.635 326.467L331.785 334.625C347.773 342.62 375.84 353.495 386.949 357.648C408.779 365.798 419.724 374.036 419.724 395.864C419.724 417.685 419.724 435.673 419.724 435.673H403.734C403.734 435.673 403.734 417.686 403.734 395.864C403.734 374.036 392.789 365.799 370.961 357.648Z" fill="#FF7690"/>
<path d="M196.181 291.811H4.31201V283.816C4.31201 283.816 4.31201 278.461 4.31201 265.189C4.31201 251.835 11.026 246.798 24.298 241.841C30.84 239.362 42.598 234.966 52.278 230.329L61.632 221.054L84.413 243.839L100.402 235.923L116.391 243.839L139.094 221.136L148.213 230.247C157.957 234.966 169.636 239.362 176.194 241.841C189.545 246.798 196.18 251.834 196.18 265.189C196.18 278.46 196.18 283.816 196.18 283.816V291.811H196.181Z" fill="#FF1B46"/>
<path d="M20.301 265.188C20.301 251.834 27.015 246.797 40.287 241.84C46.829 239.361 58.587 234.965 68.267 230.328L69.594 229.016L61.631 221.052L52.277 230.327C42.596 234.964 30.839 239.36 24.297 241.839C11.025 246.796 4.31104 251.832 4.31104 265.187C4.31104 278.458 4.31104 283.814 4.31104 283.814V291.809H20.3V283.814C20.301 283.815 20.301 278.46 20.301 265.188Z" fill="white"/>
<path d="M180.348 265.188C180.348 251.834 173.634 246.797 160.362 241.84C153.82 239.361 142.062 234.965 132.381 230.328L131.054 229.016L139.017 221.052L148.37 230.327C158.051 234.964 169.809 239.36 176.351 241.839C189.623 246.796 196.337 251.832 196.337 265.187C196.337 278.458 196.337 283.814 196.337 283.814V291.809H180.348V283.814C180.348 283.815 180.348 278.46 180.348 265.188Z" fill="#FF7690"/>
<path d="M108.569 291.811H92.58L96.577 248.402H104.572L108.569 291.811Z" fill="#FF7690"/>
<path d="M107.421 237.535H93.181V248.402H107.421V237.535Z" fill="#FF7690"/>
<path d="M84.585 244.437L60.602 220.453L68.596 212.458L100.699 229.54V236.442L84.585 244.437Z" fill="white"/>
<path d="M116.563 244.437L140.547 220.453L132.553 212.458L100.45 229.54V236.442L116.563 244.437Z" fill="white"/>
<path d="M52.357 84.545C52.357 84.545 164.281 44.572 156.529 148.502L139.657 124.518C104.798 122.441 65.785 138.028 44.441 148.182C34.448 152.98 28.374 156.496 28.374 156.496C28.374 106.53 60.992 92.54 60.992 92.54L52.357 84.545Z" fill="#FF7690"/>
<path d="M92.377 77.082C119.67 78.023 148.471 90.272 148.87 137.611L156.529 148.503C161.127 86.88 123.652 75.848 92.377 77.082Z" fill="#FF1B46"/>
<path d="M69.595 94.414L60.352 84.545C60.352 84.545 78.902 77.925 100.372 77.082C75.732 76.231 52.357 84.545 52.357 84.545L60.992 92.54C60.992 92.54 28.374 106.53 28.374 156.496C28.374 156.496 31.38 154.763 36.548 152.104C38.429 105.789 69.595 94.414 69.595 94.414Z" fill="#FF7690"/>
<path d="M156.529 148.502V156.574C156.529 194.549 121.912 229.567 100.567 229.567C79.3 229.567 44.605 194.548 44.605 156.574V148.502L44.441 148.182C65.786 138.029 104.798 122.442 139.657 124.518L156.529 148.502Z" fill="#FF7690"/>
<path d="M139.657 124.518C134.457 124.21 129.172 124.389 123.855 124.791L140.539 148.502V156.574C140.539 190.087 113.588 221.261 92.579 228.131C95.374 229.045 98.068 229.568 100.566 229.568C121.911 229.568 156.528 194.549 156.528 156.575V148.503L139.657 124.518Z" fill="#FF7690"/>
<path d="M60.594 156.574V148.502L60.43 148.182C78.589 139.543 109.545 127.068 139.844 124.791L139.657 124.518C104.798 122.441 65.785 138.028 44.441 148.182L44.605 148.502V156.574C44.605 194.549 79.3 229.567 100.567 229.567C103.073 229.567 105.774 229.044 108.569 228.13C87.607 221.261 60.594 190.087 60.594 156.574Z" fill="white"/>
<path d="M307.848 131.88C307.848 131.88 365.645 123.648 351.819 211.826L323.837 171.853C323.837 171.853 290.735 187.842 255.72 187.842C220.705 187.842 187.93 171.853 187.93 171.853L159.949 211.826C157.068 180.89 162.502 157.547 172.979 140.195C212.546 74.08 323.837 91.907 323.837 91.907C297.689 102.701 307.848 131.88 307.848 131.88Z" fill="#FF7690"/>
<path d="M307.848 131.88C307.848 131.88 340.405 125.018 337.827 191.839L351.819 211.825C365.645 123.647 307.848 131.88 307.848 131.88Z" fill="#FF7690"/>
<path d="M188.967 140.195C212.865 100.261 262.91 90.967 298.806 89.855C263.618 88.762 200.709 93.86 172.977 140.195C162.5 157.547 157.066 180.89 159.947 211.826L175.296 189.904C176.109 169.53 181.121 153.182 188.967 140.195Z" fill="#FF7690"/>
<path d="M351.818 211.826V219.664C351.818 282.177 292.412 339.739 255.882 339.739C231.976 339.739 198.078 314.959 177.693 280.263C166.982 262.112 159.947 241.168 159.947 219.663V211.825L187.928 171.852C187.928 171.852 220.702 187.841 255.718 187.841C290.734 187.841 323.835 171.852 323.835 171.852L351.818 211.826Z" fill="#FF7690"/>
<path d="M193.683 280.264C182.971 262.113 175.937 241.169 175.937 219.664V211.826L200.327 176.979C192.621 174.137 187.93 171.854 187.93 171.854L159.949 211.827V219.665C159.949 241.17 166.984 262.113 177.695 280.265C198.08 314.96 231.978 339.741 255.884 339.741C258.437 339.741 261.114 339.397 263.863 338.85C240.846 334.266 211.889 311.242 193.683 280.264Z" fill="white"/>
<path d="M317.029 280.264C327.74 262.113 334.775 241.169 334.775 219.664V211.826L310.384 176.979C318.089 174.137 322.782 171.854 322.782 171.854L350.762 211.827V219.665C350.762 241.17 343.727 262.113 333.016 280.265C312.631 314.96 278.733 339.741 254.827 339.741C252.274 339.741 249.597 339.397 246.848 338.85C269.865 334.266 298.822 311.242 317.029 280.264Z" fill="#FF7690"/>
<path d="M219.907 363.723L187.929 323.749V315.755H206.698L228.191 331.314L255.883 339.739L255.914 347.733L219.907 363.723Z" fill="white"/>
<path d="M291.889 363.723L323.867 323.749V315.755H305.1L283.605 331.314L255.914 339.739L255.883 347.733L291.889 363.723Z" fill="white"/>
<path d="M256.156 375.753C253.947 375.753 252.12 373.966 252.12 371.756C252.12 369.547 253.869 367.759 256.07 367.759H256.156C258.358 367.759 260.155 369.547 260.155 371.756C260.154 373.966 258.357 375.753 256.156 375.753Z" fill="#99102A"/>
<path d="M256.156 399.737C253.947 399.737 252.12 397.949 252.12 395.739C252.12 393.53 253.869 391.742 256.07 391.742H256.156C258.358 391.742 260.155 393.53 260.155 395.739C260.154 397.949 258.357 399.737 256.156 399.737Z" fill="#99102A"/>
<path d="M256.156 423.721C253.947 423.721 252.12 421.933 252.12 419.724C252.12 417.514 253.869 415.726 256.07 415.726H256.156C258.358 415.726 260.155 417.514 260.155 419.724C260.154 421.933 258.357 423.721 256.156 423.721Z" fill="#99102A"/>
<path d="M411.926 271.832C409.715 271.832 407.889 270.044 407.889 267.835C407.889 265.625 409.637 263.837 411.84 263.837H411.926C414.127 263.837 415.922 265.625 415.922 267.835C415.922 270.044 414.127 271.832 411.926 271.832Z" fill="#99102A"/>
<path d="M419.771 439.671H91.995C89.785 439.671 87.997 437.883 87.997 435.673V395.864C87.997 371.693 100.426 362.473 123.372 353.901C136.722 348.912 163.282 338.481 178.147 331.049C180.122 330.057 182.519 330.861 183.511 332.836C184.494 334.812 183.699 337.208 181.723 338.199C163.048 347.537 129.891 359.997 126.167 361.394C105.72 369.022 95.992 376.134 95.992 395.863V431.675H415.774V395.863C415.774 376.111 406.071 369.007 385.67 361.394C372.201 356.359 345.338 345.811 330.051 338.199C328.076 337.216 327.272 334.819 328.256 332.844C329.231 330.862 331.645 330.049 333.611 331.049C348.609 338.504 375.144 348.927 388.465 353.901C411.363 362.45 423.768 371.67 423.768 395.864V435.673C423.768 437.883 421.98 439.671 419.771 439.671Z" fill="#99102A"/>
<path d="M255.883 343.736C229.924 343.736 194.831 317.316 174.251 282.286C162.283 262.007 155.951 240.349 155.951 219.664C155.951 217.455 157.739 215.667 159.948 215.667C162.158 215.667 163.946 217.455 163.946 219.664C163.946 238.921 169.887 259.173 181.137 278.233C200.085 310.485 232.914 335.741 255.883 335.741C290.469 335.741 347.821 279.522 347.821 219.664C347.821 217.455 349.608 215.667 351.819 215.667C354.028 215.667 355.815 217.455 355.815 219.664C355.814 285.744 293.529 343.736 255.883 343.736Z" fill="#99102A"/>
<path d="M159.948 215.823C159.605 215.823 159.261 215.78 158.926 215.69C157.302 215.26 156.123 213.867 155.967 212.196C153.211 182.552 157.779 157.632 169.559 138.13C195.479 94.816 249.755 85.72 290.727 85.72C310.268 85.72 323.899 87.867 324.469 87.961C326.233 88.242 327.6 89.667 327.811 91.443C328.014 93.219 327.014 94.921 325.36 95.605C307.309 103.053 309.253 120.701 310.839 127.688C318.325 127.481 333.511 129.128 344.823 142.362C357.12 156.743 360.803 180.32 355.768 212.447C355.51 214.055 354.309 215.351 352.723 215.722C351.1 216.093 349.483 215.456 348.547 214.118L322.463 176.866C313.297 180.863 285.402 191.84 255.719 191.84C226.067 191.84 198.422 180.886 189.296 176.874L163.22 214.118C162.462 215.202 161.229 215.823 159.948 215.823ZM323.836 167.855C325.102 167.855 326.342 168.46 327.107 169.561L349.185 201.098C351.701 176.595 348.203 158.612 338.747 147.56C329.901 137.216 317.964 135.674 311.634 135.674C309.728 135.674 308.527 135.822 308.402 135.838C306.488 136.123 304.701 134.991 304.068 133.195C300.836 123.889 299.4 106.041 312 94.6C306.441 94.136 299.111 93.714 290.727 93.714C258.881 93.714 201.678 100.022 176.406 142.247C167.029 157.779 162.618 177.216 163.243 200.153L184.658 169.56C185.782 167.936 187.906 167.401 189.678 168.256C189.998 168.412 222.086 183.843 255.719 183.843C289.43 183.843 321.776 168.408 322.096 168.252C322.658 167.984 323.252 167.855 323.836 167.855Z" fill="#99102A"/>
<path d="M411.691 239.807C398.527 239.807 381.234 228.905 368.642 212.681C367.29 210.936 367.611 208.426 369.351 207.072C371.093 205.718 373.607 206.03 374.964 207.779C385.935 221.929 401.04 231.814 411.691 231.814C431.24 231.814 463.656 200.526 463.656 167.221C463.656 165.011 465.443 163.223 467.652 163.223C469.861 163.223 471.65 165.011 471.65 167.221C471.65 205.881 434.277 239.807 411.691 239.807Z" fill="#99102A"/>
<path d="M507.867 295.769H347.82C345.611 295.769 343.822 293.981 343.822 291.772C343.822 289.562 345.611 287.775 347.82 287.775H503.871V271.629C503.871 261.21 500.084 256.943 486.242 251.791C484.117 250.971 481.478 250.097 478.535 249.12L474.203 247.673C472.119 246.962 470.994 244.691 471.705 242.602C472.424 240.506 474.687 239.405 476.779 240.1L481.058 241.533C484.132 242.555 486.888 243.472 489.076 244.312C503.496 249.687 511.865 255.886 511.865 271.629V291.772C511.865 293.98 510.076 295.769 507.867 295.769Z" fill="#99102A"/>
<path d="M100.067 295.769H4.13201C1.92301 295.769 0.13501 293.981 0.13501 291.772V265.15C0.13501 249.625 8.41001 243.461 22.705 238.066C28.935 235.787 40.763 231.297 50.374 226.691C52.341 225.747 54.754 226.57 55.706 228.565C56.658 230.556 55.815 232.945 53.824 233.897C43.917 238.648 31.824 243.243 25.492 245.561C11.868 250.703 8.12901 254.917 8.12901 265.15V287.775H100.067C102.276 287.775 104.064 289.562 104.064 291.772C104.064 293.98 102.276 295.769 100.067 295.769Z" fill="#99102A"/>
<path d="M163.945 295.769H100.067C97.858 295.769 96.07 293.981 96.07 291.772C96.07 289.562 97.858 287.775 100.067 287.775H163.945C166.154 287.775 167.943 289.562 167.943 291.772C167.943 293.98 166.155 295.769 163.945 295.769Z" fill="#99102A"/>
<path d="M100.301 232.933C77.715 232.933 40.342 196.989 40.342 156.024C40.342 153.815 42.13 152.026 44.339 152.026C46.548 152.026 48.336 153.814 48.336 156.024C48.336 191.559 80.752 224.938 100.301 224.938C110.833 224.938 125.815 214.531 136.737 199.631C138.049 197.855 140.539 197.465 142.327 198.769C144.107 200.073 144.49 202.575 143.186 204.355C130.656 221.448 113.425 232.933 100.301 232.933Z" fill="#99102A"/>
<path d="M84.234 247.802C83.196 247.802 82.173 247.4 81.408 246.63L57.425 222.647C55.863 221.085 55.863 218.556 57.425 216.995C58.987 215.434 61.516 215.433 63.077 216.995L85.038 238.953L98.31 232.379C99.825 231.556 101.722 231.728 103.018 232.957C104.619 234.479 104.72 236.97 103.198 238.566C102.878 238.906 102.417 239.265 101.996 239.471L85.999 247.388C85.436 247.665 84.835 247.802 84.234 247.802Z" fill="#99102A"/>
<path d="M116.212 247.802C115.61 247.802 115.002 247.665 114.44 247.388L98.451 239.475L101.926 232.269L115.416 238.949L137.37 216.995C138.932 215.433 141.461 215.433 143.022 216.995C144.583 218.557 144.584 221.086 143.022 222.647L119.039 246.63C118.273 247.399 117.25 247.802 116.212 247.802Z" fill="#99102A"/>
<path d="M28.116 159.861C27.429 159.861 26.742 159.681 26.117 159.326C24.884 158.616 24.118 157.293 24.118 155.864C24.118 115.63 44.237 97.536 54.004 91.127L49.382 86.845C48.359 85.896 47.899 84.479 48.179 83.113C48.46 81.743 49.436 80.619 50.756 80.151C52.926 79.374 104.344 61.414 136.362 82.693C151.141 92.522 159.26 108.995 160.494 131.663C160.619 133.869 158.925 135.754 156.723 135.871C154.303 136.226 152.64 134.302 152.515 132.1C151.422 112.086 144.505 97.705 131.935 89.352C109.427 74.39 74.318 81.74 59.914 85.706L63.451 88.977C64.443 89.895 64.903 91.253 64.677 92.588C64.443 93.923 63.552 95.047 62.311 95.582C61.156 96.089 35.002 108.046 32.332 149.006C49.211 140.141 97.061 117.371 139.634 119.897C141.024 119.975 142.273 120.775 142.928 122.008L151.461 137.954C152.523 139.891 151.813 142.318 149.876 143.38C147.972 144.438 145.512 143.739 144.45 141.796L136.939 127.774C88.277 126.002 30.707 158.983 30.122 159.323C29.505 159.682 28.811 159.861 28.116 159.861Z" fill="#99102A"/>
<path d="M100.067 255.796C99.045 255.796 98.022 255.405 97.241 254.625L89.246 246.63C87.685 245.069 87.685 242.539 89.246 240.978C90.808 239.416 93.337 239.416 94.899 240.978L102.893 248.973C104.455 250.535 104.455 253.064 102.893 254.625C102.112 255.405 101.089 255.796 100.067 255.796Z" fill="#99102A"/>
<path d="M100.067 255.796C99.045 255.796 98.022 255.405 97.241 254.625C95.679 253.063 95.679 250.534 97.241 248.973L105.236 240.978C106.797 239.416 109.327 239.416 110.888 240.978C112.449 242.54 112.45 245.07 110.888 246.63L102.893 254.625C102.112 255.405 101.089 255.796 100.067 255.796Z" fill="#99102A"/>
<path d="M92.08 287.774C91.932 287.774 91.784 287.766 91.627 287.751C89.433 287.509 87.856 285.533 88.098 283.332L92.095 247.36C92.337 245.162 94.226 243.561 96.514 243.827C98.708 244.073 100.285 246.049 100.043 248.242L96.046 284.221C95.82 286.26 94.086 287.774 92.08 287.774Z" fill="#99102A"/>
<path d="M108.054 287.774C106.048 287.774 104.314 286.259 104.088 284.221L100.091 248.242C99.849 246.049 101.426 244.073 103.62 243.827C105.861 243.569 107.797 245.162 108.039 247.36L112.037 283.332C112.279 285.533 110.702 287.509 108.508 287.751C108.35 287.767 108.202 287.774 108.054 287.774Z" fill="#99102A"/>
<path d="M483.729 234.693C481.518 234.693 479.731 232.905 479.731 230.695V155.863C479.731 153.653 481.518 151.865 483.729 151.865C485.938 151.865 487.725 153.653 487.725 155.863V230.695C487.725 232.905 485.938 234.693 483.729 234.693Z" fill="#99102A"/>
<path d="M347.336 127.883C346.734 127.883 346.127 127.75 345.557 127.466C343.58 126.486 342.778 124.086 343.752 122.11C356.682 96.085 382.742 79.916 411.777 79.916C413.986 79.916 415.773 81.704 415.773 83.914C415.773 86.123 413.986 87.911 411.777 87.911C385.802 87.911 362.482 102.378 350.92 125.663C350.217 127.071 348.805 127.883 347.336 127.883Z" fill="#99102A"/>
<path d="M483.729 159.861C481.518 159.861 479.731 158.073 479.731 155.864C479.731 139.051 473.594 122.968 462.446 110.57C449.532 96.166 431.061 87.91 411.778 87.91C409.567 87.91 407.78 86.122 407.78 83.913C407.78 81.703 409.567 79.915 411.778 79.915C433.333 79.915 453.967 89.139 468.395 105.226C480.864 119.091 487.725 137.076 487.725 155.864C487.725 158.073 485.938 159.861 483.729 159.861Z" fill="#99102A"/>
<path d="M371.805 161.622C370.055 161.622 368.448 160.467 367.955 158.703C367.361 156.575 368.603 154.37 370.726 153.776C389.261 148.6 407.779 140.738 425.775 130.413C448.595 117.449 462.617 105.036 462.757 104.914C464.403 103.442 466.933 103.583 468.402 105.238C469.869 106.885 469.728 109.411 468.082 110.879C467.488 111.406 453.342 123.948 429.74 137.353C411.183 148.002 392.049 156.122 372.881 161.474C372.521 161.575 372.154 161.622 371.805 161.622Z" fill="#99102A"/>
<path d="M483.729 167.855C483.393 167.855 483.049 167.812 482.713 167.722C444.027 157.546 425.565 137.489 424.799 136.642C423.324 135.006 423.449 132.485 425.08 131.001C426.711 129.537 429.242 129.643 430.725 131.274C430.897 131.465 448.526 150.46 484.743 159.993C486.882 160.555 488.155 162.741 487.593 164.876C487.123 166.669 485.5 167.855 483.729 167.855Z" fill="#99102A"/>
<path d="M467.652 171.217C465.443 171.217 463.656 169.429 463.656 167.22V158.745C463.656 156.536 465.443 154.748 467.652 154.748C469.861 154.748 471.65 156.536 471.65 158.745V167.22C471.65 169.429 469.861 171.217 467.652 171.217Z" fill="#99102A"/>
<path d="M427.922 287.774C426.906 287.774 425.885 287.383 425.104 286.61C423.543 285.057 423.528 282.527 425.088 280.958L446.106 259.801L440.928 254.625C440.078 253.777 439.657 252.595 439.774 251.404C439.899 250.214 440.54 249.135 441.538 248.472L460.651 235.727L449.456 227.893C447.651 226.628 447.206 224.134 448.479 222.326C449.743 220.511 452.235 220.082 454.045 221.343L470.033 232.534C471.111 233.292 471.752 234.533 471.736 235.856C471.72 237.175 471.056 238.401 469.955 239.135L450.031 252.419L454.576 256.967C456.137 258.525 456.137 261.046 454.584 262.612L430.756 286.595C429.975 287.384 428.953 287.774 427.922 287.774Z" fill="#99102A"/>
<path d="M395.623 287.774C394.594 287.774 393.57 287.383 392.789 286.594L368.971 262.611C367.416 261.046 367.416 258.524 368.979 256.966L373.506 252.438L369.602 249.862C367.76 248.644 367.252 246.166 368.471 244.323C369.68 242.472 372.162 241.977 374.006 243.187L382 248.46C383 249.123 383.654 250.201 383.771 251.396C383.896 252.59 383.476 253.777 382.625 254.625L377.449 259.801L398.457 280.958C400.019 282.527 400.004 285.058 398.441 286.61C397.662 287.384 396.639 287.774 395.623 287.774Z" fill="#99102A"/>
<path d="M411.777 255.796C394.336 255.796 385.341 247.005 384.966 246.63C383.405 245.069 383.405 242.539 384.966 240.978C386.527 239.432 389.05 239.42 390.595 240.955C390.884 241.236 397.825 247.803 411.777 247.803C425.744 247.803 432.683 241.303 432.972 241.026C434.558 239.511 437.079 239.547 438.609 241.108C440.14 242.681 440.132 245.183 438.57 246.729C438.195 247.099 429.211 255.796 411.777 255.796Z" fill="#99102A"/>
<path d="M187.929 327.747C185.719 327.747 183.931 325.959 183.931 323.749V315.755C183.931 313.546 185.719 311.758 187.929 311.758C190.138 311.758 191.926 313.546 191.926 315.755V323.749C191.926 325.959 190.138 327.747 187.929 327.747Z" fill="#99102A"/>
<path d="M219.907 367.72C218.736 367.72 217.573 367.204 216.784 366.221L184.798 326.233C183.424 324.507 183.713 321.994 185.446 320.62C187.171 319.246 189.693 319.527 191.059 321.267L223.029 361.224C224.403 362.95 224.13 365.464 222.405 366.845C221.671 367.431 220.79 367.72 219.907 367.72Z" fill="#99102A"/>
<path d="M219.907 367.72C218.447 367.72 217.034 366.908 216.331 365.511C215.348 363.535 216.143 361.138 218.119 360.147L250.097 344.158C252.072 343.175 254.469 343.97 255.461 345.946C256.444 347.922 255.648 350.318 253.673 351.309L221.694 367.298C221.118 367.587 220.508 367.72 219.907 367.72Z" fill="#99102A"/>
<path d="M323.836 327.747C321.627 327.747 319.84 325.959 319.84 323.749V315.755C319.84 313.546 321.627 311.758 323.836 311.758C326.047 311.758 327.834 313.546 327.834 315.755V323.749C327.834 325.959 326.047 327.747 323.836 327.747Z" fill="#99102A"/>
<path d="M291.857 367.72C290.976 367.72 290.101 367.431 289.359 366.845C287.634 365.464 287.361 362.949 288.736 361.224L320.705 321.259C322.088 319.527 324.609 319.253 326.326 320.619C328.053 322.001 328.342 324.515 326.967 326.24L294.981 366.22C294.193 367.204 293.029 367.72 291.857 367.72Z" fill="#99102A"/>
<path d="M291.857 367.72C291.257 367.72 290.648 367.587 290.07 367.298L258.091 351.309C256.116 350.318 255.32 347.921 256.303 345.946C257.296 343.978 259.692 343.182 261.667 344.158L293.646 360.147C295.621 361.138 296.417 363.536 295.433 365.511C294.73 366.907 293.318 367.72 291.857 367.72Z" fill="#99102A"/>
</svg>
