<svg width="1000" height="1000" viewBox="0 0 1000 1000" fill="none" xmlns="http://www.w3.org/2000/svg">
<path d="M836.252 306.576C629.7 474.726 585.113 742.081 575.517 843.635C575.074 848.344 573.54 852.886 571.036 856.898C568.532 860.911 565.126 864.285 561.091 866.752C557.055 869.218 552.499 870.71 547.786 871.108C543.073 871.507 538.332 870.801 533.939 869.047L198.742 735.21C195.057 733.739 191.928 731.149 189.794 727.805C187.659 724.46 186.629 720.531 186.847 716.57C190.684 646.997 221.228 328.493 461.441 142.873C465.634 139.623 470.602 137.524 475.855 136.783C481.107 136.041 486.463 136.682 491.391 138.643L831.253 274.302C844.636 279.677 847.436 297.473 836.252 306.576Z" fill="white"/>
<path d="M545.274 872.917C541.178 872.913 537.121 872.127 533.32 870.601L198.123 736.765C194.108 735.173 190.694 732.36 188.365 728.722C186.035 725.085 184.908 720.807 185.142 716.494C187.139 680.199 195.9 583.786 233.883 472.72C255.475 409.718 283.16 351.639 316.295 300.131C356.418 237.789 404.901 184.434 460.379 141.543C464.81 138.128 470.051 135.922 475.589 135.141C481.128 134.36 486.775 135.031 491.977 137.088L831.863 272.78C835.2 274.104 838.133 276.276 840.372 279.082C842.611 281.888 844.078 285.23 844.628 288.777C845.178 292.325 844.791 295.954 843.507 299.306C842.222 302.658 840.084 305.617 837.305 307.888C632.467 474.642 587.153 738.228 577.189 843.794C576.43 851.742 572.743 859.125 566.845 864.507C560.947 869.889 553.258 872.887 545.274 872.917ZM480.132 138.158C473.724 138.155 467.495 140.274 462.419 144.185C221.462 330.399 191.946 653.735 188.485 716.661C188.284 720.277 189.225 723.865 191.176 726.916C193.126 729.967 195.986 732.328 199.352 733.664L534.549 867.5C538.7 869.157 543.18 869.823 547.634 869.446C552.087 869.069 556.392 867.659 560.205 865.328C564.018 862.997 567.236 859.809 569.602 856.017C571.968 852.226 573.418 847.935 573.837 843.485C578.292 796.323 591.566 701.916 630.444 599.485C676.929 477.025 745.799 378.037 835.173 305.247L836.227 306.542L835.173 305.247C837.496 303.342 839.282 300.864 840.354 298.057C841.426 295.251 841.747 292.213 841.285 289.245C840.823 286.277 839.595 283.48 837.721 281.132C835.847 278.784 833.393 276.965 830.601 275.856L490.739 140.189C487.367 138.848 483.77 138.162 480.14 138.166L480.132 138.158Z" fill="#262424"/>
<path d="M122.925 752.329C122.925 752.329 172.177 691.417 228.634 668.329L250.459 709.648C250.459 709.648 192.991 747.264 164.746 791.884L157.858 754.753L122.925 752.329Z" fill="#000A1D"/>
<path d="M343.01 821.132C343.01 821.132 333.815 741.997 298.816 690.272L258.818 712.273C258.818 712.273 287.088 776.637 287.239 830.194L312.508 803.11L343.01 821.132Z" fill="#000A1D"/>
<path d="M358.433 688.074C362.93 672.375 355.407 656.159 341.639 651.854C339.709 651.252 337.708 650.906 335.688 650.826C337.686 650.17 339.598 649.275 341.38 648.159C354.295 640.101 359.444 622.104 352.891 607.952C346.337 593.8 330.555 588.885 317.641 596.96C315.821 598.112 314.139 599.466 312.625 600.998C313.676 598.98 314.517 596.859 315.133 594.67C319.63 578.971 312.107 562.755 298.34 558.45C284.572 554.145 269.768 563.382 265.271 579.088C264.641 581.29 264.238 583.551 264.068 585.834C263.599 583.672 262.895 581.566 261.97 579.557C255.399 565.396 239.592 560.456 226.703 568.539C213.813 576.623 208.639 594.594 215.192 608.746C216.092 610.699 217.214 612.542 218.536 614.238C216.818 613.151 214.967 612.291 213.027 611.68C199.26 607.375 184.456 616.612 179.959 632.319C175.462 648.025 182.985 664.234 196.752 668.538C198.683 669.141 200.684 669.486 202.704 669.567C200.706 670.222 198.794 671.117 197.012 672.233C184.097 680.291 178.948 698.288 185.501 712.44C192.055 726.592 207.845 731.524 220.76 723.466C222.579 722.314 224.261 720.96 225.775 719.428C224.724 721.446 223.884 723.566 223.267 725.756C218.77 741.454 226.293 757.671 240.061 761.976C253.828 766.281 268.632 757.044 273.129 741.337C273.759 739.136 274.162 736.875 274.333 734.592C274.801 736.754 275.505 738.859 276.431 740.869C282.984 755.013 298.774 759.953 311.689 751.895C324.604 743.837 329.753 725.84 323.199 711.688C322.3 709.735 321.178 707.892 319.856 706.196C321.574 707.283 323.425 708.143 325.364 708.754C339.132 713.034 353.936 703.788 358.433 688.074Z" fill="#FF1B46"/>
<path d="M315.35 674.624C306.991 703.688 279.624 720.791 254.137 712.825C228.65 704.858 214.733 674.833 223.058 645.769C231.384 616.704 258.785 599.602 284.271 607.568C309.758 615.534 323.667 645.56 315.35 674.624Z" fill="white"/>
<path d="M266.885 716.544C262.38 716.544 257.901 715.859 253.602 714.513C227.238 706.271 212.768 675.225 221.336 645.275C225.783 629.736 235.906 616.737 249.113 609.624C254.504 606.632 260.442 604.758 266.573 604.113C272.705 603.469 278.903 604.066 284.798 605.87C311.162 614.112 325.632 645.158 317.064 675.108C312.617 690.648 302.494 703.646 289.295 710.76C282.422 714.52 274.719 716.508 266.885 716.544ZM271.516 607.4C264.274 607.436 257.155 609.275 250.802 612.75C238.439 619.437 228.951 631.625 224.763 646.253C216.722 674.348 230.13 703.454 254.664 711.119C260.107 712.779 265.828 713.325 271.487 712.725C277.145 712.124 282.625 710.39 287.598 707.625C299.961 700.938 309.449 688.75 313.637 674.122C321.678 646.027 308.27 616.921 283.736 609.256C279.78 608.022 275.66 607.396 271.516 607.4Z" fill="#262424"/>
<path d="M442.215 215.788C439.139 218.753 436.091 221.754 433.071 224.791C431.526 226.361 430.393 228.289 429.772 230.403C429.152 232.516 429.063 234.751 429.514 236.907C429.965 239.063 430.941 241.074 432.356 242.763C433.771 244.451 435.582 245.763 437.626 246.583L712.714 356.429C715.294 357.452 718.129 357.647 720.825 356.986C723.521 356.326 725.944 354.843 727.76 352.743C730.345 349.756 732.965 346.78 735.617 343.815C737.045 342.212 738.065 340.288 738.592 338.207C739.119 336.126 739.138 333.948 738.646 331.859C738.154 329.769 737.166 327.828 735.766 326.201C734.366 324.573 732.595 323.307 730.602 322.508L456.426 213.047C454.044 212.092 451.437 211.843 448.918 212.329C446.398 212.816 444.071 214.016 442.215 215.788Z" fill="#000A1D"/>
<path d="M369.283 329.638L649.544 441.532C652.434 442.688 655.637 442.799 658.6 441.847C661.563 440.895 664.101 438.939 665.778 436.316C667.812 433.112 669.876 429.913 671.972 426.72C673.064 425.064 673.774 423.186 674.051 421.222C674.328 419.258 674.164 417.257 673.572 415.364C672.98 413.471 671.974 411.733 670.627 410.276C669.281 408.82 667.627 407.681 665.786 406.943L385.875 295.199C383.1 294.092 380.033 293.947 377.165 294.786C374.297 295.626 371.793 297.401 370.052 299.83C367.722 303.107 365.421 306.412 363.147 309.744C362.032 311.4 361.301 313.284 361.009 315.26C360.717 317.235 360.871 319.25 361.459 321.158C362.047 323.066 363.055 324.818 364.409 326.285C365.763 327.753 367.428 328.899 369.283 329.638Z" fill="#000A1D"/>
<path d="M317.9 419.44L600.134 532.111C603.304 533.363 606.832 533.358 609.998 532.097C613.164 530.835 615.73 528.412 617.17 525.323C618.752 521.935 620.366 518.541 622.01 515.142C622.801 513.491 623.245 511.694 623.313 509.864C623.382 508.034 623.074 506.21 622.409 504.504C621.743 502.798 620.735 501.247 619.445 499.946C618.156 498.646 616.613 497.624 614.913 496.944L332.812 384.323C329.703 383.084 326.242 383.056 323.112 384.245C319.983 385.433 317.413 387.752 315.91 390.743C314.183 394.22 312.478 397.72 310.795 401.242C310.004 402.894 309.56 404.691 309.492 406.521C309.424 408.351 309.733 410.176 310.399 411.882C311.065 413.588 312.075 415.14 313.365 416.44C314.655 417.739 316.199 418.761 317.9 419.44Z" fill="#000A1D"/>
<path d="M400.395 672.108L534.708 726.015C536.503 726.733 538.433 727.052 540.364 726.952C542.294 726.852 544.18 726.334 545.892 725.434C547.603 724.535 549.099 723.275 550.277 721.742C551.455 720.209 552.286 718.438 552.713 716.553C553.538 712.869 554.396 709.147 555.288 705.385C556.018 702.274 555.611 699.004 554.139 696.167C552.667 693.331 550.228 691.115 547.263 689.921L412.574 635.863C410.748 635.133 408.783 634.815 406.82 634.931C404.856 635.047 402.943 635.595 401.215 636.535C399.488 637.476 397.989 638.786 396.826 640.371C395.663 641.957 394.863 643.78 394.485 645.71L392.262 657.145C391.668 660.196 392.155 663.358 393.639 666.088C395.123 668.819 397.512 670.947 400.395 672.108Z" fill="#000A1D"/>
<path d="M275.879 487.064C274.625 490.725 273.407 494.367 272.226 497.989C271.176 501.22 271.394 504.728 272.836 507.804C274.278 510.879 276.836 513.291 279.992 514.549L562.309 626.994C563.998 627.665 565.805 627.984 567.621 627.933C569.437 627.882 571.223 627.462 572.871 626.697C574.52 625.933 575.995 624.841 577.207 623.488C578.419 622.135 579.343 620.549 579.922 618.827C581.109 615.289 582.324 611.736 583.566 608.17C584.694 604.92 584.525 601.36 583.096 598.231C581.667 595.102 579.087 592.644 575.893 591.368L293.5 478.881C291.823 478.217 290.029 477.899 288.225 477.947C286.422 477.994 284.647 478.406 283.008 479.157C281.368 479.908 279.897 480.983 278.683 482.318C277.47 483.652 276.538 485.218 275.946 486.922L275.879 487.064Z" fill="#000A1D"/>
<path d="M177.995 253.789C177.995 253.789 176.114 283.881 200.037 296.42C221.019 307.37 219.004 323.035 219.004 323.035L240.687 312.736C240.687 312.736 237.895 293.511 219.79 283.555C201.492 273.474 203.281 253.822 203.281 253.822H177.995V253.789Z" fill="#FF1B46"/>
<path d="M600.176 78.9344C600.176 78.9344 630.268 80.8152 642.807 56.8917C653.757 35.9105 669.422 37.925 669.422 37.925L659.124 16.2417C659.124 16.2417 639.898 19.0336 629.942 37.1393C619.828 55.4372 600.176 53.6233 600.176 53.6233V78.9093V78.9344Z" fill="#FF1B46"/>
<path d="M236.073 73.8438C227.69 65.6155 216.997 60.1392 205.421 58.1455L201.074 74.362C209.702 75.8491 217.671 79.9315 223.919 86.0647L236.073 73.8438Z" fill="#FF1B46"/>
<path d="M892.048 414.365C883.665 406.137 872.972 400.661 861.395 398.667L857.049 414.884C865.677 416.371 873.646 420.453 879.894 426.586L892.048 414.365Z" fill="#000A1D"/>
<path d="M437.952 13.4998C441.75 11.8442 444.781 8.81325 446.437 5.01542L448.618 0L450.8 5.01542C452.456 8.81325 455.487 11.8442 459.284 13.4998L464.3 15.6815L459.284 17.8632C455.487 19.5189 452.456 22.5498 450.8 26.3477L448.618 31.3631L446.437 26.3477C444.781 22.5498 441.75 19.5189 437.952 17.8632L432.937 15.6815L437.952 13.4998Z" fill="#000A1D"/>
<path d="M77.8284 401.166C80.737 399.901 83.0579 397.58 84.3234 394.671L85.9952 390.843L87.667 394.671C88.9325 397.58 91.2534 399.901 94.162 401.166L97.9904 402.838L94.162 404.51C91.2534 405.776 88.9325 408.096 87.667 411.005L85.9952 414.833L84.3234 411.005C83.0579 408.096 80.737 405.776 77.8284 404.51L74 402.838L77.8284 401.166Z" fill="#FF1B46"/>
<path d="M129.613 470.68C134.212 468.677 137.883 465.007 139.886 460.407L142.527 454.347L145.169 460.407C147.172 465.007 150.843 468.677 155.442 470.68L161.502 473.322L155.442 475.963C150.832 477.958 147.149 481.626 145.135 486.228L142.494 492.289L139.852 486.228C137.849 481.629 134.179 477.958 129.579 475.955L123.519 473.314L129.613 470.68Z" fill="#000A1D"/>
<path d="M215.351 147.244C219.951 145.241 223.621 141.571 225.624 136.971L228.266 130.911L230.907 136.971C232.917 141.575 236.597 145.246 241.206 147.244L247.266 149.886L241.206 152.527C236.606 154.531 232.936 158.201 230.932 162.801L228.291 168.861L225.65 162.801C223.645 158.187 219.965 154.506 215.351 152.502L209.291 149.861L215.351 147.244Z" fill="#000A1D"/>
<path d="M795.351 145.18C801.829 142.358 806.999 137.188 809.82 130.71L813.54 122.184L817.26 130.71C820.081 137.188 825.251 142.358 831.729 145.18L840.256 148.9L831.729 152.619C825.251 155.441 820.081 160.611 817.26 167.089L813.54 175.615L809.82 167.089C806.999 160.611 801.829 155.441 795.351 152.619L786.825 148.9L795.351 145.18Z" fill="#000A1D"/>
<path d="M823.838 522.957C829.11 522.957 833.384 518.684 833.384 513.411C833.384 508.139 829.11 503.865 823.838 503.865C818.566 503.865 814.292 508.139 814.292 513.411C814.292 518.684 818.566 522.957 823.838 522.957Z" fill="#FF1B46"/>
<path d="M590.571 931.472L642.514 933.302L642.238 913.032L589.928 906.369L590.571 931.472Z" fill="white"/>
<path d="M642.498 934.974L590.555 933.144C590.129 933.129 589.724 932.952 589.424 932.649C589.125 932.346 588.952 931.94 588.941 931.513L588.298 906.436C588.296 906.198 588.345 905.962 588.442 905.744C588.538 905.527 588.681 905.332 588.859 905.174C589.037 905.015 589.247 904.897 589.474 904.826C589.702 904.756 589.942 904.735 590.178 904.765L642.489 911.452C642.896 911.503 643.269 911.702 643.539 912.01C643.808 912.318 643.955 912.714 643.952 913.124L644.228 933.394C644.204 933.832 644.009 934.243 643.686 934.538C643.362 934.833 642.936 934.99 642.498 934.974ZM592.185 929.858L640.801 931.53L640.567 914.461L591.633 908.234L592.185 929.858Z" fill="#262424"/>
<path d="M725.603 997.976L734.413 996.028L710.314 887.119C710.314 887.119 705.642 887.787 697.826 889.158C674.562 893.127 651.545 898.429 628.889 905.04L631.012 941.034C631.012 941.034 668.628 963.997 698.72 985.195C701.838 987.394 704.923 989.759 707.915 992.3C713.633 997.132 719.877 999.238 725.603 997.976Z" fill="#000A1D"/>
<path d="M690.303 953.498C690.008 953.493 689.719 953.409 689.467 953.256C660.16 935.309 637.925 929.29 637.708 929.24C637.294 929.116 636.944 928.837 636.731 928.46C636.519 928.083 636.461 927.639 636.569 927.22C636.677 926.802 636.943 926.441 637.311 926.215C637.68 925.988 638.121 925.913 638.544 926.005C638.77 926.064 661.473 932.199 691.206 950.405C691.516 950.598 691.755 950.887 691.886 951.228C692.017 951.569 692.033 951.944 691.93 952.295C691.828 952.646 691.613 952.953 691.319 953.171C691.025 953.388 690.668 953.503 690.303 953.498Z" fill="#262424"/>
<path d="M675.96 922.922C681.906 921.606 685.767 916.209 684.585 910.868C683.403 905.526 677.625 902.263 671.679 903.579C665.734 904.895 661.873 910.292 663.055 915.633C664.237 920.974 670.015 924.238 675.96 922.922Z" fill="white"/>
<path d="M673.301 924.91C667.608 924.91 662.576 921.332 661.397 916.024C660.018 909.788 664.457 903.486 671.294 901.981C674.49 901.245 677.845 901.715 680.715 903.302C682.095 904.041 683.3 905.07 684.245 906.318C685.191 907.567 685.855 909.004 686.194 910.533C686.532 912.062 686.535 913.646 686.205 915.177C685.874 916.708 685.216 918.148 684.276 919.401C682.346 922.053 679.502 923.896 676.293 924.575C675.311 924.795 674.307 924.907 673.301 924.91ZM674.312 904.99C673.539 904.99 672.768 905.074 672.013 905.241C666.998 906.353 663.654 910.867 664.657 915.272C665.66 919.677 670.509 922.402 675.566 921.29C677.968 920.789 680.1 919.416 681.551 917.437C682.217 916.565 682.685 915.557 682.921 914.485C683.157 913.413 683.155 912.303 682.916 911.231C682.677 910.16 682.207 909.154 681.538 908.284C680.869 907.413 680.017 906.7 679.043 906.194C677.593 905.393 675.961 904.978 674.304 904.99H674.312Z" fill="#262424"/>
<path d="M725.603 997.976L734.414 996.028L710.314 887.119C710.314 887.119 705.642 887.787 697.826 889.158L710.549 946.652C710.549 946.652 685.747 955.997 698.687 985.162C701.805 987.36 704.889 989.726 707.882 992.267C713.633 997.132 719.877 999.238 725.603 997.976Z" fill="white"/>
<path d="M722.301 999.999C717.185 999.999 711.811 997.776 706.804 993.529C703.987 991.139 700.952 988.781 697.726 986.516C697.481 986.342 697.287 986.105 697.166 985.831C692.735 975.85 692.092 966.981 695.235 959.475C698.687 951.233 705.683 947.103 708.609 945.674L696.196 889.526C696.147 889.306 696.144 889.078 696.186 888.856C696.228 888.634 696.315 888.423 696.44 888.236C696.566 888.048 696.729 887.888 696.918 887.765C697.107 887.642 697.319 887.559 697.542 887.52C705.291 886.158 710.03 885.481 710.08 885.472C710.497 885.414 710.92 885.515 711.266 885.755C711.611 885.995 711.854 886.357 711.944 886.768L736.052 995.686C736.1 995.901 736.105 996.123 736.067 996.339C736.029 996.556 735.949 996.763 735.831 996.948C735.713 997.134 735.56 997.295 735.379 997.421C735.199 997.547 734.996 997.636 734.781 997.684L725.971 999.631C724.765 999.887 723.534 1000.01 722.301 999.999ZM700.075 984.05C703.226 986.282 706.227 988.614 709.01 990.98C714.41 995.561 720.186 997.466 725.285 996.338L732.466 994.75L709.06 888.991C707.313 889.259 704.137 889.76 699.866 890.488L712.212 946.276C712.298 946.668 712.24 947.079 712.048 947.432C711.856 947.785 711.543 948.057 711.167 948.198C711.083 948.198 702.089 951.751 698.328 960.787C695.586 967.324 696.171 975.139 700.033 984.059L700.075 984.05Z" fill="#262424"/>
<path d="M383.552 648.686C383.552 648.686 412.557 627.788 440.978 648.343C447.523 653.083 469.399 677.491 471.071 694.318C471.438 697.971 465.219 730.086 467.209 741.964C474.406 784.846 489.109 865.001 489.109 865.001L605.3 898.73L595.913 952.62C595.913 952.62 512.323 952.077 446.504 944.796C431.056 943.124 421.117 939.513 419.755 938.727C418.158 937.8 414.338 926.089 409.49 908.919C394.443 855.714 369.458 750.098 369.458 750.098C369.458 750.098 356.97 657.538 383.552 648.686Z" fill="#000A1D"/>
<path d="M442.608 920.145C447.69 928.504 448.894 937.791 446.487 944.821C431.248 941.77 421.1 939.538 419.738 938.753C418.141 937.825 414.321 926.114 409.473 908.944C410.123 908.363 410.826 907.843 411.571 907.389C420.983 901.672 434.834 907.389 442.608 920.145Z" fill="white"/>
<path d="M581.301 915.272H581.042L454.419 896.046C454.065 896 453.735 895.84 453.478 895.592C453.221 895.344 453.05 895.02 452.99 894.667L416.963 701.64C416.88 701.197 416.976 700.739 417.231 700.366C417.485 699.994 417.878 699.738 418.321 699.655C418.764 699.572 419.223 699.668 419.595 699.923C419.967 700.178 420.223 700.57 420.306 701.013L456.133 892.87L581.519 911.887C581.741 911.901 581.958 911.959 582.158 912.057C582.358 912.155 582.537 912.292 582.684 912.459C582.831 912.627 582.943 912.821 583.015 913.032C583.087 913.243 583.117 913.466 583.103 913.688C583.088 913.91 583.03 914.128 582.932 914.328C582.834 914.528 582.697 914.706 582.53 914.853C582.363 915 582.168 915.113 581.957 915.185C581.746 915.257 581.523 915.286 581.301 915.272Z" fill="#262424"/>
<path d="M582.739 943.994C582.642 944.002 582.544 944.002 582.446 943.994C582.222 943.961 582.007 943.882 581.814 943.764C581.621 943.645 581.454 943.488 581.323 943.303C581.193 943.117 581.101 942.907 581.054 942.686C581.007 942.464 581.006 942.235 581.05 942.013L588.089 901.588C588.127 901.369 588.208 901.159 588.328 900.971C588.447 900.783 588.603 900.62 588.785 900.492C588.968 900.364 589.174 900.273 589.391 900.224C589.609 900.176 589.834 900.171 590.053 900.209C590.273 900.247 590.482 900.329 590.671 900.448C590.859 900.568 591.022 900.723 591.15 900.906C591.278 901.088 591.369 901.294 591.417 901.511C591.466 901.729 591.471 901.954 591.432 902.173L584.394 942.598C584.329 942.989 584.126 943.344 583.823 943.6C583.52 943.855 583.136 943.995 582.739 943.994Z" fill="#262424"/>
<path d="M777.437 711.562L815.672 676.354L801.219 662.127L759.332 694.167L777.437 711.562Z" fill="white"/>
<path d="M777.438 713.234C777.004 713.235 776.588 713.067 776.276 712.766L758.17 695.363C758 695.196 757.869 694.995 757.783 694.773C757.697 694.551 757.66 694.314 757.674 694.077C757.687 693.839 757.751 693.608 757.861 693.397C757.971 693.186 758.125 693.001 758.312 692.855L800.199 660.823C800.519 660.578 800.917 660.456 801.319 660.48C801.722 660.505 802.102 660.674 802.389 660.957L816.842 675.167C817.006 675.323 817.137 675.511 817.227 675.72C817.316 675.928 817.362 676.152 817.362 676.379C817.362 676.606 817.316 676.83 817.227 677.039C817.137 677.247 817.006 677.435 816.842 677.591L778.608 712.8C778.288 713.09 777.869 713.246 777.438 713.234ZM761.898 694.309L777.463 709.272L813.248 676.321L801.085 664.351L761.898 694.309Z" fill="#262424"/>
<path d="M920.226 663.949L925.125 656.368L831.412 595.848C831.412 595.848 828.553 599.61 823.964 606.071C810.196 625.237 797.542 645.178 786.064 665.797L812.871 689.904C812.871 689.904 855.787 679.781 892.057 673.746C895.818 673.119 899.68 672.634 903.592 672.342C911.123 671.773 917.042 668.848 920.226 663.949Z" fill="#000A1D"/>
<path d="M808.533 677.081C808.163 677.084 807.802 676.964 807.508 676.739C807.214 676.515 807.002 676.199 806.906 675.842C806.811 675.484 806.836 675.105 806.98 674.763C807.123 674.422 807.375 674.138 807.697 673.955C807.898 673.838 828.361 662.253 862.298 654.303C862.72 654.226 863.156 654.315 863.514 654.55C863.873 654.785 864.128 655.149 864.225 655.567C864.323 655.985 864.256 656.424 864.039 656.794C863.822 657.164 863.471 657.436 863.059 657.555C829.623 665.379 809.561 676.781 809.361 676.856C809.109 677.002 808.824 677.079 808.533 677.081Z" fill="#262424"/>
<path d="M832.148 645.477C835.452 640.362 834.405 633.809 829.81 630.84C825.215 627.872 818.811 629.612 815.507 634.727C812.203 639.842 813.25 646.395 817.845 649.363C822.441 652.332 828.844 650.591 832.148 645.477Z" fill="white"/>
<path d="M822.819 652.506C820.748 652.524 818.716 651.944 816.967 650.834C815.657 649.978 814.545 648.852 813.705 647.531C812.865 646.211 812.315 644.727 812.094 643.177C811.634 639.936 812.359 636.637 814.136 633.887C815.912 631.137 818.621 629.12 821.765 628.206C823.26 627.766 824.833 627.652 826.375 627.873C827.918 628.094 829.395 628.644 830.706 629.486C832.018 630.328 833.133 631.443 833.976 632.753C834.818 634.064 835.369 635.541 835.591 637.084C836.084 640.328 835.357 643.639 833.552 646.379C832.413 648.212 830.835 649.732 828.961 650.802C827.087 651.871 824.976 652.457 822.819 652.506ZM824.85 631.09C824.099 631.091 823.351 631.193 822.626 631.391C820.278 632.087 818.256 633.601 816.927 635.659C815.598 637.716 815.048 640.182 815.379 642.609C815.53 643.694 815.909 644.734 816.493 645.661C817.077 646.588 817.851 647.379 818.765 647.984C822.576 650.441 827.959 648.928 830.751 644.59C832.108 642.542 832.659 640.065 832.298 637.635C832.147 636.55 831.768 635.51 831.184 634.583C830.6 633.656 829.826 632.865 828.912 632.26C827.699 631.489 826.288 631.085 824.85 631.099V631.09Z" fill="#262424"/>
<path d="M920.226 663.949L925.125 656.368L831.412 595.848C831.412 595.848 828.553 599.61 823.964 606.071L873.424 638.019C873.424 638.019 862.357 662.093 892.057 673.746C895.818 673.119 899.68 672.634 903.592 672.342C911.123 671.773 917.042 668.848 920.226 663.949Z" fill="white"/>
<path d="M892.073 675.418C891.864 675.418 891.657 675.378 891.463 675.301C881.298 671.314 874.603 665.463 871.56 657.914C868.216 649.622 870.298 641.765 871.384 638.689L823.053 607.476C822.862 607.354 822.699 607.194 822.572 607.007C822.446 606.82 822.358 606.609 822.315 606.387C822.272 606.165 822.274 605.937 822.322 605.716C822.37 605.495 822.462 605.286 822.593 605.102C827.149 598.691 830.049 594.871 830.116 594.829C830.371 594.493 830.744 594.265 831.159 594.193C831.574 594.12 832.002 594.207 832.356 594.436L926.053 654.964C926.423 655.205 926.683 655.583 926.776 656.015C926.868 656.448 926.785 656.899 926.546 657.271L921.647 664.852C918.237 670.135 911.876 673.387 903.751 673.997C900.073 674.273 896.228 674.741 892.366 675.385L892.073 675.418ZM826.354 605.612L874.352 636.616C874.69 636.834 874.939 637.168 875.051 637.555C875.163 637.942 875.131 638.356 874.962 638.722C874.962 638.806 871 647.624 874.678 656.702C877.328 663.247 883.246 668.405 892.232 672.024C896.044 671.397 899.822 670.946 903.458 670.67C910.521 670.135 915.997 667.427 918.797 663.047L922.784 656.869L831.83 598.097C830.776 599.51 828.904 602.101 826.354 605.612Z" fill="#262424"/>
<path d="M431.415 655.942C431.415 655.942 444.74 623.266 476.086 628.282C484.069 629.56 523.498 637.886 536.53 648.669C549.562 659.452 658.572 735.603 658.572 735.603L764.916 677.926L796.12 722.856C796.12 722.856 736.269 781.243 684.343 822.328C672.156 831.966 662.609 836.413 661.055 836.806C659.266 837.274 648.316 831.623 632.793 822.821C584.703 795.546 492.654 737.969 492.654 737.969C492.654 737.969 413.878 669.567 431.415 655.942Z" fill="#000A1D"/>
<path d="M664.231 807.507C673.719 809.873 681.108 815.641 684.335 822.328C671.353 830.871 662.601 836.413 661.046 836.806C659.257 837.274 648.307 831.623 632.784 822.821C632.839 821.95 632.973 821.085 633.186 820.238C635.81 809.597 649.737 803.905 664.231 807.507Z" fill="white"/>
<path d="M654.693 782.405C654.343 782.407 654.001 782.299 653.715 782.096L492.386 670.085C492.202 669.957 492.044 669.794 491.923 669.606C491.801 669.417 491.718 669.206 491.678 668.985C491.638 668.764 491.642 668.538 491.69 668.319C491.737 668.099 491.828 667.891 491.956 667.707C492.084 667.523 492.247 667.365 492.435 667.244C492.624 667.122 492.835 667.039 493.056 666.999C493.276 666.959 493.503 666.963 493.722 667.011C493.942 667.058 494.149 667.149 494.334 667.277L654.652 778.56L757.242 703.956C757.609 703.689 758.067 703.578 758.515 703.649C758.964 703.719 759.366 703.965 759.633 704.332C759.9 704.699 760.01 705.157 759.94 705.605C759.869 706.054 759.624 706.456 759.257 706.723L655.697 782.071C655.407 782.288 655.055 782.405 654.693 782.405Z" fill="#262424"/>
<path d="M779.46 726.475C779.184 726.478 778.911 726.413 778.665 726.284C778.42 726.156 778.211 725.969 778.056 725.739L754.651 692.036C754.391 691.663 754.291 691.203 754.371 690.756C754.45 690.31 754.705 689.913 755.077 689.653C755.45 689.394 755.91 689.293 756.356 689.373C756.803 689.453 757.2 689.707 757.459 690.08L780.865 723.783C781.06 724.036 781.179 724.34 781.207 724.658C781.235 724.976 781.171 725.295 781.024 725.578C780.876 725.862 780.65 726.097 780.373 726.255C780.096 726.414 779.779 726.49 779.46 726.475Z" fill="#262424"/>
<path d="M344.197 100.843L352.423 81.4756L350.751 46.0918L398.949 48.5995L379.305 87.3269L372.902 111.434L344.197 100.843Z" fill="white"/>
<path d="M372.902 113.106C372.706 113.107 372.51 113.073 372.325 113.006L343.629 102.415C343.416 102.337 343.222 102.216 343.057 102.06C342.893 101.905 342.761 101.717 342.671 101.509C342.582 101.301 342.535 101.077 342.534 100.851C342.534 100.624 342.579 100.4 342.668 100.191L350.768 81.2079L349.096 46.2003C349.085 45.9671 349.124 45.7343 349.209 45.5169C349.294 45.2996 349.423 45.1024 349.589 44.9381C349.754 44.7738 349.951 44.6458 350.169 44.5623C350.386 44.4789 350.619 44.4417 350.851 44.4532L399.058 46.9609C399.335 46.9755 399.605 47.0592 399.843 47.2044C400.08 47.3496 400.277 47.5517 400.417 47.7924C400.556 48.0332 400.633 48.3049 400.641 48.583C400.649 48.8611 400.588 49.1368 400.462 49.385L380.86 87.8951L374.499 111.827C374.412 112.187 374.208 112.508 373.919 112.739C373.63 112.971 373.272 113.1 372.902 113.106ZM346.429 99.882L371.757 109.227L377.692 86.9004C377.722 86.7876 377.764 86.6784 377.817 86.5744L396.299 50.1374L352.506 47.8554L354.094 81.4001C354.106 81.6523 354.06 81.9038 353.961 82.1357L346.429 99.882Z" fill="#262424"/>
<path d="M375.97 60.6533C364.418 62.3669 350.057 64.5569 349.639 46.0918C349.221 27.6267 381.077 24.0825 382.49 39.5467C383.903 55.0109 383.15 59.5833 375.97 60.6533Z" fill="white"/>
<path d="M364.936 63.4369C360.548 63.4369 356.418 62.601 353.233 59.9512C349.823 57.0757 348.093 52.5534 347.951 46.1337C347.7 35.0998 357.622 28.7553 367.544 28.1869C375.259 27.7104 383.368 31.054 384.153 39.413C385.524 54.3255 385.182 60.9961 376.212 62.3251H376.112C372.418 62.9645 368.683 63.336 364.936 63.4369ZM368.907 31.497C368.522 31.497 368.138 31.497 367.753 31.497C359.394 31.9735 351.11 37.1143 351.311 46.025C351.436 51.4333 352.774 55.1364 355.407 57.3599C360.071 61.2886 368.33 60.0682 375.619 58.9815H375.719C381.052 58.1874 382.289 55.6964 380.827 39.6805C380.3 33.9546 374.633 31.4887 368.907 31.4887V31.497Z" fill="#262424"/>
<path d="M389.344 31.8144C378.311 33.8456 383.543 60.7784 393.022 60.2936C402.502 59.8087 407.525 28.4707 389.344 31.8144Z" fill="white"/>
<path d="M392.772 61.982C386.77 61.982 382.582 53.8236 381.662 45.9912C380.659 37.3981 383.552 31.1874 389.043 30.1843C395.12 29.0642 398.498 31.5301 400.261 33.787C404.516 39.2538 403.772 48.8333 400.913 55.1026C398.957 59.3824 396.182 61.7898 393.114 61.982H392.78H392.772ZM389.645 33.461C385.257 34.2969 384.387 40.4993 384.981 45.5983C385.733 52.0515 389.077 58.814 392.939 58.6301C394.611 58.5465 396.491 56.6991 397.862 53.6982C400.295 48.3819 400.897 40.0396 397.611 35.835C395.873 33.6031 393.19 32.809 389.637 33.461H389.645Z" fill="#262424"/>
<path d="M380.25 63.5872C380.25 63.5872 370.955 60.8538 370.587 55.3787C370.219 49.9035 397.57 52.4614 399.007 56.1059C400.445 59.7504 398.64 74.1614 396.458 77.2542C394.276 80.3471 385.332 87.469 376.037 85.8222C366.742 84.1755 367.486 68.5107 380.25 63.5872Z" fill="white"/>
<path d="M378.804 87.7447C377.784 87.7473 376.766 87.6605 375.761 87.4856C371.523 86.7332 368.606 83.398 368.163 78.7671C367.686 73.8938 370.06 67.5994 376.154 63.771C373.086 62.2831 369.191 59.5915 368.915 55.4956C368.815 54.0411 369.567 52.1102 373.671 51.1739C380.358 49.6526 398.798 51.0318 400.579 55.4872C402.201 59.533 400.378 74.621 397.837 78.2237C395.296 81.8265 387.372 87.7447 378.804 87.7447ZM372.259 55.2949C372.551 58.7807 378.461 61.28 380.726 61.9822C381.06 62.0822 381.354 62.2839 381.567 62.5591C381.781 62.8343 381.903 63.1693 381.917 63.5173C381.93 63.8652 381.835 64.2089 381.644 64.5001C381.453 64.7914 381.176 65.0157 380.852 65.1419C373.797 67.8586 371.055 73.9439 371.49 78.4327C371.632 79.929 372.401 83.4482 376.346 84.1754C384.705 85.6549 393.064 79.2185 395.112 76.2845C396.976 73.6346 398.648 59.9676 397.511 56.7996C396.124 55.3284 385.349 53.3389 377.282 54.0077C373.337 54.3504 372.409 55.1695 372.259 55.2949Z" fill="#262424"/>
<path d="M390.824 271.351L357.388 367.923C340.519 341.801 313.729 286.623 298.875 253.931C292.38 239.645 288.15 229.689 288.008 228.26C287.866 226.831 292.037 213.063 297.846 194.724C310.786 153.931 331.893 90.4028 331.893 90.4028L382.047 106.703L353.208 213.933L390.824 271.351Z" fill="#FF1B46"/>
<path d="M298.858 253.972C292.363 239.687 288.133 229.731 287.991 228.302C287.849 226.872 292.02 213.105 297.83 194.765C310.644 206 319.605 235.374 298.858 253.972Z" fill="#FBFEFD"/>
<path d="M322.28 222.032C322.06 222.052 321.839 222.029 321.629 221.963C321.418 221.897 321.223 221.791 321.054 221.649C320.885 221.508 320.745 221.335 320.643 221.139C320.54 220.944 320.477 220.731 320.458 220.511C320.438 220.292 320.462 220.07 320.527 219.86C320.593 219.65 320.7 219.454 320.841 219.285C320.982 219.116 321.155 218.976 321.351 218.874C321.546 218.771 321.759 218.709 321.979 218.689L346.638 214.091C346.857 214.042 347.084 214.038 347.306 214.078C347.527 214.119 347.737 214.203 347.925 214.327C348.113 214.451 348.273 214.611 348.398 214.798C348.522 214.986 348.607 215.196 348.648 215.417C348.689 215.638 348.685 215.865 348.637 216.085C348.588 216.304 348.495 216.512 348.365 216.694C348.234 216.877 348.068 217.032 347.876 217.149C347.684 217.266 347.471 217.344 347.248 217.377L322.589 221.974C322.488 222.003 322.385 222.023 322.28 222.032Z" fill="#262424"/>
<path d="M364.493 119.66C364.326 119.659 364.16 119.634 364 119.584L331.4 109.553C330.989 109.413 330.649 109.117 330.452 108.73C330.255 108.343 330.216 107.894 330.345 107.479C330.473 107.064 330.758 106.715 331.139 106.506C331.52 106.297 331.967 106.245 332.386 106.36L364.986 116.391C365.368 116.51 365.695 116.761 365.907 117.1C366.119 117.438 366.203 117.842 366.143 118.237C366.084 118.632 365.885 118.993 365.582 119.254C365.279 119.515 364.893 119.659 364.493 119.66Z" fill="#262424"/>
<path d="M390.824 271.351C390.824 271.351 294.762 402.671 336.156 737.392C366.992 753.508 398.355 763.347 430.187 767.484C419.587 726.709 418.008 696.75 416.804 646.947C431.257 686.853 459.844 730.537 485.348 763.698C534.223 743.494 577.682 714.822 614.077 675.092C614.077 675.092 548.041 580.635 533.83 538.004C533.83 538.004 557.236 449.398 603.21 368.316L577.297 298.936L457.763 334.879L390.824 271.351Z" fill="#FF1B46"/>
<path d="M491.776 747.297C491.338 747.383 490.884 747.291 490.514 747.041C490.144 746.792 489.889 746.406 489.803 745.968C489.718 745.53 489.81 745.077 490.059 744.707C490.308 744.337 490.694 744.081 491.132 743.996C491.776 743.736 555.84 717.38 599.081 669.483C599.385 669.151 599.808 668.952 600.258 668.932C600.708 668.912 601.147 669.071 601.48 669.374C601.812 669.678 602.011 670.102 602.031 670.551C602.051 671.001 601.892 671.441 601.589 671.773C557.804 720.256 493.03 746.904 492.386 747.164C492.193 747.246 491.986 747.291 491.776 747.297Z" fill="#262424"/>
<path d="M422.037 757.328H421.794C382.682 751.778 341.155 731.181 340.712 730.972C340.511 730.872 340.332 730.733 340.184 730.563C340.037 730.394 339.925 730.197 339.854 729.984C339.783 729.77 339.755 729.545 339.77 729.321C339.786 729.097 339.846 728.879 339.947 728.678C340.047 728.477 340.186 728.298 340.356 728.151C340.526 728.003 340.723 727.891 340.936 727.82C341.149 727.749 341.374 727.721 341.598 727.737C341.822 727.753 342.04 727.813 342.241 727.913C342.651 728.122 383.694 748.468 422.246 753.943C422.695 753.971 423.114 754.176 423.412 754.513C423.71 754.85 423.861 755.291 423.834 755.74C423.806 756.189 423.601 756.609 423.264 756.906C422.927 757.204 422.486 757.356 422.037 757.328Z" fill="#262424"/>
<path d="M354.947 355.443C354.674 355.457 354.402 355.405 354.154 355.29C353.906 355.175 353.691 355.001 353.526 354.783C353.361 354.565 353.252 354.31 353.208 354.041C353.164 353.771 353.187 353.495 353.275 353.236C370.461 296.645 389.219 270.599 389.42 270.339C389.688 269.973 390.091 269.727 390.54 269.658C390.989 269.588 391.448 269.699 391.814 269.968C392.181 270.236 392.427 270.639 392.496 271.088C392.566 271.537 392.455 271.995 392.186 272.362C392.003 272.613 373.546 298.275 356.56 354.231C356.46 354.581 356.248 354.889 355.957 355.108C355.666 355.326 355.311 355.444 354.947 355.443Z" fill="#262424"/>
<path d="M333.481 716.068C333.061 716.069 332.656 715.913 332.346 715.63C332.037 715.346 331.845 714.957 331.809 714.538C327.63 675.903 325.122 638.087 324.378 602.151C324.368 601.925 324.404 601.7 324.483 601.488C324.562 601.277 324.684 601.083 324.84 600.92C324.997 600.757 325.184 600.627 325.392 600.538C325.6 600.449 325.824 600.404 326.05 600.404C326.493 600.404 326.918 600.58 327.232 600.894C327.546 601.207 327.722 601.632 327.722 602.076C328.482 637.911 330.973 675.635 335.136 714.17C335.166 714.395 335.151 714.624 335.09 714.843C335.029 715.061 334.924 715.265 334.781 715.442C334.639 715.619 334.462 715.765 334.262 715.871C334.061 715.977 333.841 716.041 333.615 716.06H333.431L333.481 716.068Z" fill="#262424"/>
<path d="M415.065 632.503C414.622 632.503 414.197 632.327 413.883 632.013C413.57 631.7 413.393 631.274 413.393 630.831C410.359 544.399 421.953 492.146 422.07 491.628C422.171 491.185 422.444 490.8 422.829 490.557C423.213 490.315 423.679 490.236 424.122 490.337C424.566 490.438 424.951 490.71 425.193 491.095C425.435 491.48 425.515 491.945 425.414 492.389C425.297 492.899 413.795 544.766 416.821 630.714C416.834 630.942 416.801 631.17 416.723 631.385C416.645 631.599 416.524 631.796 416.368 631.962C416.211 632.128 416.022 632.26 415.813 632.35C415.603 632.44 415.377 632.487 415.149 632.486H415.09L415.065 632.503Z" fill="#262424"/>
<path d="M436.799 563.123C436.347 563.155 435.902 563.006 435.56 562.71C435.219 562.414 435.008 561.994 434.976 561.543C434.944 561.092 435.093 560.646 435.389 560.305C435.685 559.963 436.105 559.753 436.556 559.721C464.126 555.524 491.284 548.965 517.731 540.119C518.159 539.968 518.629 539.993 519.038 540.189C519.447 540.385 519.762 540.736 519.912 541.164C520.063 541.591 520.038 542.062 519.842 542.471C519.646 542.88 519.295 543.195 518.868 543.345C492.207 552.253 464.831 558.853 437.041 563.073L436.799 563.123Z" fill="#262424"/>
<path d="M684.226 176.869V148.565C684.226 148.565 677.43 140.641 676.302 136.678C675.173 132.716 682.813 119.96 682.813 119.96C682.813 119.96 679.587 111.752 680.205 106.093C680.824 100.434 697.241 97.6 712.245 97.8842C727.25 98.1684 728.462 119.676 728.562 127.885C728.662 136.093 706.829 151.089 706.829 151.089L710.223 178.54L684.226 176.869Z" fill="white"/>
<path d="M710.264 180.237H710.156L684.117 178.566C683.693 178.538 683.295 178.35 683.005 178.039C682.714 177.729 682.553 177.319 682.554 176.894V149.175C680.958 147.269 675.767 140.883 674.697 137.138C673.526 133.051 679.043 123.112 680.966 119.818C680.13 117.57 677.99 110.941 678.542 105.934C679.436 97.7756 701.003 96.0202 712.279 96.2375C723.555 96.4548 729.983 107.689 730.234 127.893C730.334 136.06 713.123 148.791 708.651 151.917L711.928 178.373C711.955 178.608 711.932 178.845 711.861 179.07C711.79 179.295 711.672 179.503 711.514 179.679C711.357 179.855 711.165 179.996 710.949 180.092C710.734 180.188 710.5 180.238 710.264 180.237ZM685.898 175.297L708.359 176.76L705.19 151.315C705.153 151.012 705.2 150.705 705.325 150.426C705.45 150.148 705.649 149.909 705.901 149.735C714.043 144.126 726.932 133.251 726.865 127.927C726.74 117.436 724.659 99.8068 712.195 99.5728C694.783 99.2467 682.228 102.849 681.852 106.26C681.284 111.451 684.36 119.258 684.36 119.333C684.453 119.572 684.49 119.829 684.468 120.084C684.447 120.339 684.366 120.585 684.234 120.805C680.74 126.656 677.321 134.179 677.898 136.185C678.734 139.144 683.666 145.313 685.488 147.445C685.747 147.748 685.889 148.133 685.889 148.532V175.28L685.898 175.297Z" fill="#262424"/>
<path d="M727.693 311.023C727.049 312.912 715.706 319.95 699.857 329.028C660.428 351.598 593.079 386.839 593.079 386.839C593.079 386.839 572.182 368.332 566.639 344.919C561.097 321.505 577.23 298.944 577.23 298.944L665.836 264.112L668.62 168.267L723.238 167.147C723.238 167.147 726.431 232.674 727.668 275.363C728.22 294.455 728.387 308.983 727.693 311.023Z" fill="#FF1B46"/>
<path d="M589.735 385.293C589.506 385.295 589.279 385.251 589.067 385.162C588.856 385.072 588.665 384.941 588.507 384.775C581.477 377.586 569.164 362.907 564.976 345.353C560.972 328.527 567.81 312.185 572.24 303.943C572.455 303.543 572.82 303.244 573.255 303.113C573.69 302.983 574.159 303.03 574.56 303.245C574.96 303.46 575.258 303.825 575.389 304.26C575.52 304.695 575.473 305.164 575.258 305.564C571.078 313.38 564.566 328.844 568.311 344.568C572.491 361.988 585.539 376.85 590.964 382.434C591.203 382.67 591.365 382.973 591.429 383.303C591.493 383.632 591.456 383.974 591.324 384.282C591.191 384.591 590.969 384.852 590.685 385.032C590.402 385.213 590.071 385.303 589.735 385.293Z" fill="#262424"/>
<path d="M727.693 311.023C727.049 312.912 715.706 319.95 699.857 329.028C690.144 309.577 697.049 277.035 727.668 275.355C728.219 294.455 728.387 308.983 727.693 311.023Z" fill="#FBFEFD"/>
<path d="M691.331 286.765C690.943 286.764 690.568 286.628 690.27 286.38L664.774 265.391C664.434 265.109 664.219 264.703 664.177 264.263C664.135 263.823 664.269 263.384 664.55 263.042C664.831 262.701 665.236 262.484 665.675 262.44C666.115 262.396 666.555 262.529 666.898 262.808L692.393 283.797C692.66 284.016 692.854 284.312 692.947 284.645C693.039 284.977 693.027 285.331 692.91 285.656C692.794 285.982 692.58 286.263 692.297 286.461C692.014 286.66 691.677 286.766 691.331 286.765Z" fill="#262424"/>
<path d="M718.916 182.954H675.24C674.797 182.954 674.371 182.778 674.058 182.464C673.744 182.151 673.568 181.726 673.568 181.282C673.568 180.839 673.744 180.414 674.058 180.1C674.371 179.786 674.797 179.61 675.24 179.61H718.916C719.359 179.61 719.785 179.786 720.098 180.1C720.412 180.414 720.588 180.839 720.588 181.282C720.588 181.726 720.412 182.151 720.098 182.464C719.785 182.778 719.359 182.954 718.916 182.954Z" fill="#262424"/>
<path d="M603.419 287.509C544.906 344.35 425.096 477.543 425.096 477.543C389.988 400.64 382.047 258.394 382.047 258.394L395.279 271.426L456.86 332.096L580.139 294.589L603.419 287.509Z" fill="#000A1D"/>
<path d="M603.419 287.509C544.906 344.35 425.096 477.543 425.096 477.543C389.988 400.64 382.047 258.394 382.047 258.394L395.279 271.426C399.768 307.445 413.744 410.696 430.529 449.398C430.529 449.398 527.945 338.114 580.156 294.589L603.419 287.509Z" fill="#FBFEFD"/>
<path d="M456.86 333.81C456.637 333.812 456.415 333.769 456.209 333.685C456.002 333.6 455.814 333.475 455.657 333.316L380.86 259.615C380.7 259.457 380.572 259.27 380.484 259.063C380.397 258.856 380.35 258.634 380.348 258.409C380.346 258.184 380.389 257.961 380.473 257.753C380.557 257.545 380.682 257.355 380.839 257.195C380.997 257.035 381.184 256.907 381.391 256.819C381.598 256.731 381.82 256.685 382.045 256.683C382.269 256.681 382.492 256.724 382.701 256.808C382.909 256.892 383.099 257.016 383.259 257.174L457.345 330.165L602.934 285.862C603.369 285.73 603.838 285.776 604.239 285.99C604.639 286.204 604.938 286.569 605.07 287.003C605.202 287.438 605.156 287.907 604.942 288.307C604.728 288.708 604.364 289.007 603.929 289.139L457.362 333.734C457.199 333.784 457.03 333.809 456.86 333.81Z" fill="#262424"/>
<path d="M483.058 285.093L481.887 304.996L479.889 339.042C468.187 346.683 456.994 347.167 446.503 338.75L448.593 322.968L451.753 299.07L483.058 285.093Z" fill="white"/>
<path d="M462.628 346.59C456.626 346.59 450.925 344.409 445.459 340.054C445.235 339.874 445.061 339.639 444.954 339.373C444.847 339.106 444.811 338.817 444.848 338.532L450.098 298.86C450.136 298.578 450.246 298.309 450.417 298.081C450.588 297.853 450.815 297.672 451.076 297.556L482.389 283.58C482.651 283.463 482.938 283.416 483.223 283.443C483.509 283.469 483.783 283.569 484.018 283.732C484.254 283.894 484.444 284.115 484.57 284.373C484.696 284.63 484.754 284.915 484.738 285.202L481.561 339.151C481.547 339.412 481.471 339.666 481.34 339.892C481.209 340.119 481.028 340.311 480.809 340.455C474.481 344.517 468.446 346.59 462.628 346.59ZM448.284 338.022C457.479 344.977 467.276 345.002 478.268 338.098L481.227 287.743L453.283 300.214L448.284 338.022Z" fill="#262424"/>
<path d="M472.249 289.925C471.798 298.919 471.639 329.588 447.381 332.113L451.753 299.069L472.249 289.925Z" fill="#262424"/>
<path d="M427.771 274.486C425.572 290.819 425.648 310.998 445.492 312.586C469.081 314.484 487.622 301.912 492.996 280.312C498.371 258.712 491.325 244.126 464.793 240.423C462.54 240.102 460.264 239.971 457.989 240.03C442.107 240.489 431.666 251.064 429.133 265.784C428.674 268.45 428.18 271.401 427.771 274.486Z" fill="white"/>
<path d="M450.048 314.425C448.498 314.425 446.938 314.361 445.367 314.233C438.863 313.714 433.848 311.232 430.462 306.868C422.847 297.055 424.937 280.362 427.495 265.483C430.705 246.8 445.801 236.059 465.035 238.734C465.479 238.795 465.88 239.03 466.15 239.386C466.421 239.743 466.538 240.192 466.477 240.636C466.416 241.079 466.182 241.48 465.825 241.75C465.469 242.021 465.019 242.139 464.576 242.078C446.98 239.62 433.722 249.041 430.797 266.068C429.041 276.308 425.781 295.325 433.112 304.837C435.938 308.482 440.042 310.463 445.651 310.914C454.495 311.625 462.595 310.296 469.725 306.96C470.125 306.782 470.579 306.767 470.989 306.919C471.4 307.072 471.734 307.38 471.92 307.776C472.106 308.172 472.13 308.626 471.985 309.039C471.84 309.453 471.539 309.793 471.146 309.986C464.522 312.991 457.32 314.506 450.048 314.425Z" fill="#262424"/>
<path d="M498.798 286.004C495.851 288.654 492.679 291.043 489.318 293.143L477.674 291.12L477.164 282.418C477.164 282.418 469.959 280.354 469.641 275.087C469.634 274.965 469.634 274.842 469.641 274.72C469.641 273.048 469.859 265.525 473.612 254.591C473.612 254.591 454.269 258.144 444.506 256.873C440.995 256.422 437.309 254.148 434.023 251.415C427.445 245.948 423.825 232.247 427.085 224.34L427.152 224.189C432.076 212.637 436.347 222.517 436.347 222.517C436.347 222.517 440.452 213.256 446.687 214C452.923 214.744 454.654 224.632 454.654 224.632C466.967 224.693 479.16 227.066 490.597 231.629C513.217 240.824 503.52 255.586 503.52 255.586C503.52 255.586 519.411 265.207 498.798 286.004Z" fill="#262424"/>
<path d="M480.466 290.468C481.636 281.189 489.995 274.31 499.282 275.422C501.253 275.649 503.163 276.25 504.908 277.194C515.39 282.886 506.229 308.264 479.296 299.763L480.466 290.468Z" fill="white"/>
<path d="M489.594 303.132C485.921 303.09 482.275 302.484 478.786 301.335C478.57 301.274 478.368 301.171 478.193 301.031C478.017 300.891 477.872 300.717 477.765 300.52C477.658 300.322 477.592 300.105 477.571 299.882C477.55 299.658 477.574 299.433 477.642 299.219C477.71 299.005 477.821 298.807 477.967 298.636C478.113 298.466 478.292 298.327 478.493 298.227C478.694 298.127 478.913 298.069 479.137 298.056C479.362 298.043 479.586 298.075 479.797 298.15C494.844 302.915 503.546 296.696 506.421 289.925C508.419 285.219 507.449 280.487 504.106 278.665C502.549 277.825 500.847 277.289 499.09 277.085C495.043 276.662 490.993 277.852 487.817 280.396C484.642 282.941 482.598 286.635 482.13 290.677C482.074 291.12 481.845 291.524 481.492 291.798C481.14 292.072 480.692 292.195 480.249 292.14C479.805 292.084 479.402 291.855 479.128 291.502C478.854 291.15 478.731 290.703 478.786 290.259C480.09 279.952 489.36 272.555 499.458 273.767C501.64 274.02 503.753 274.687 505.685 275.731C510.575 278.389 512.172 284.926 509.48 291.237C506.697 297.816 499.767 303.132 489.594 303.132Z" fill="#262424"/>
</svg>
