<svg width="512" height="512" viewBox="0 0 512 512" fill="none" xmlns="http://www.w3.org/2000/svg">
<g clip-path="url(#clip0_347_431)">
<path d="M374.523 325.196L337.805 288.478C337.797 288.462 337.789 288.455 337.782 288.447C337.775 288.439 337.759 288.431 337.751 288.424L238.85 189.519L217.474 188.258L155.423 159.891L69.267 246.047L97.775 330.591L188.061 420.881C188.654 424.995 190.473 428.961 193.635 432.123C193.643 432.131 193.655 432.139 193.666 432.146L261.439 499.928C261.451 499.936 261.455 499.944 261.466 499.951C269.274 507.758 281.929 507.758 289.729 499.951C297.536 492.151 297.536 479.496 289.729 471.689C289.721 471.681 289.713 471.673 289.706 471.666L258.875 440.835L267.361 432.356L298.184 463.178C298.192 463.194 298.2 463.201 298.207 463.209C306.015 471.017 318.669 471.017 326.477 463.209C334.277 455.41 334.277 442.747 326.477 434.947C326.469 434.939 326.454 434.931 326.446 434.924L295.616 404.093L306.694 393.015L337.751 424.079C337.767 424.087 337.767 424.095 337.774 424.11C345.582 431.91 358.237 431.91 366.045 424.11C373.844 416.303 373.844 403.648 366.045 395.84C366.037 395.832 366.022 395.824 366.014 395.817L334.956 364.76L346.262 353.448L377.319 384.505C377.335 384.521 377.342 384.528 377.35 384.536C385.149 392.344 397.805 392.344 405.612 384.536C413.411 376.737 413.411 364.073 405.612 356.274C405.604 356.266 405.589 356.258 405.581 356.251L374.523 325.196Z" fill="#FF8DA3"/>
<path d="M43.803 5.76898L4.29102 226.286L18.391 240.387L148.407 110.369L43.803 5.76898Z" fill="#99102A"/>
<path d="M481.935 217.776L453.672 246.043L346.262 138.636L374.531 110.369L481.935 217.776Z" fill="white"/>
<path d="M507.994 214.326L493.239 229.085L363.219 99.068L456.553 5.73297L507.994 214.326Z" fill="#FF8DA3"/>
<path d="M137.099 121.676L29.6968 229.078L57.9567 257.338L165.359 149.936L137.099 121.676Z" fill="white"/>
<path d="M17.629 191.662C20.755 194.784 20.752 199.844 17.629 202.967C14.506 206.089 9.44697 206.089 6.32397 202.967C3.20097 199.844 3.19697 194.784 6.32397 191.662C9.44697 188.539 14.507 188.539 17.629 191.662Z" fill="white"/>
<path d="M142.997 375.817L152.366 366.449L152.378 366.441L143.002 375.817L182.569 415.384L197.586 400.37L197.602 400.362L198.047 399.91C208.957 389.003 208.957 371.25 198.047 360.343C187.14 349.429 169.387 349.429 158.476 360.343L158.039 360.781L158.028 360.797L152.828 365.996C163.735 355.09 163.735 337.336 152.828 326.43C141.918 315.515 124.164 315.515 113.254 326.43L112.82 326.859L112.804 326.882L103.436 336.251L142.997 375.817Z" fill="#FF1B46"/>
<path d="M237.616 439.485L237.179 439.923L237.167 439.939L221.124 455.982L221.112 455.99L221.1 455.998L221.112 455.982L242.808 434.287L242.824 434.279L243.269 433.834C254.18 422.92 254.18 405.166 243.269 394.26C232.363 383.353 214.609 383.353 203.699 394.26L203.265 394.697L203.249 394.72L182.572 415.394L190.887 423.708C191.484 427.822 193.299 431.788 196.461 434.95C196.469 434.958 196.481 434.966 196.492 434.973L219.172 457.653C219.66 457.232 220.198 456.904 220.663 456.435C220.198 456.904 219.867 457.442 219.445 457.934L258.742 497.228C259.23 496.806 259.769 496.47 260.233 496.009L260.671 495.572L260.683 495.556L276.731 479.512L276.747 479.504L277.192 479.051C280.838 475.413 283.149 470.979 284.358 466.318L258.876 440.836L266.73 432.989C256.877 429.516 245.479 431.623 237.616 439.485Z" fill="#FF1B46"/>
<path d="M266.729 432.989C267.423 433.239 268.119 433.497 268.798 433.801L267.36 432.357L266.729 432.989Z" fill="#FF1B46"/>
<path d="M117.312 333.667C117.304 333.675 117.296 333.683 117.289 333.698L106.043 344.94C106.031 344.948 106.02 344.956 106.012 344.963C98.2081 352.77 98.2081 365.426 106.012 373.225C113.815 381.033 126.475 381.033 134.278 373.225C134.286 373.217 134.29 373.209 134.301 373.202L145.547 361.952C145.559 361.944 145.57 361.936 145.578 361.929C153.382 354.13 153.382 341.466 145.578 333.667C137.774 325.859 125.115 325.859 117.312 333.667Z" fill="#FFDBE2"/>
<path d="M162.531 367.581C162.523 367.589 162.519 367.597 162.508 367.612L145.609 384.507C145.597 384.515 145.589 384.523 145.578 384.53C137.775 392.338 137.775 404.993 145.578 412.8C153.382 420.6 166.041 420.6 173.844 412.8C173.852 412.792 173.86 412.777 173.871 412.769L190.766 395.867C190.778 395.859 190.789 395.851 190.797 395.844C198.6 388.045 198.6 375.381 190.797 367.582C182.993 359.774 170.334 359.774 162.531 367.581Z" fill="#FFDBE2"/>
<path d="M289.651 240.32L238.849 189.518L230.047 188.998C218.524 199.972 188.169 228.89 185.156 231.898L185.148 231.902C174.241 242.813 174.241 260.567 185.148 271.473C196.058 282.388 213.812 282.388 224.722 271.473C236.492 259.703 277.027 229.361 289.893 240.56C289.894 240.562 289.659 240.328 289.651 240.32Z" fill="#FF1B46"/>
<path d="M241.676 446.723C241.664 446.731 241.66 446.739 241.649 446.754L224.751 463.649C224.743 463.665 224.731 463.665 224.724 463.672C216.921 471.48 216.921 484.135 224.724 491.942C232.528 499.742 245.183 499.742 252.986 491.942C252.994 491.934 253.002 491.919 253.013 491.911L269.915 475.009C269.923 475.001 269.931 474.993 269.938 474.986C277.746 467.186 277.746 454.524 269.938 446.724C262.135 438.915 249.479 438.915 241.676 446.723Z" fill="#FFDBE2"/>
<path d="M207.758 401.495C207.75 401.503 207.742 401.518 207.731 401.526L185.18 424.081C185.168 424.089 185.16 424.097 185.149 424.104C177.349 431.904 177.349 444.567 185.149 452.367C192.956 460.175 205.611 460.175 213.415 452.367C213.423 452.359 213.431 452.351 213.442 452.336L235.993 429.789C236.005 429.773 236.013 429.773 236.02 429.766C243.824 421.958 243.824 409.303 236.02 401.495C228.221 393.696 215.561 393.696 207.758 401.495Z" fill="#FFDBE2"/>
<path d="M117.315 361.921C109.512 354.122 109.516 341.466 117.315 333.659L117.311 333.667C117.303 333.675 117.295 333.683 117.288 333.698L106.042 344.94C106.03 344.948 106.019 344.956 106.011 344.963C98.207 352.77 98.207 365.426 106.011 373.225C113.814 381.033 126.474 381.033 134.277 373.225C134.285 373.217 134.289 373.209 134.3 373.202L145.546 361.952C145.558 361.944 145.569 361.936 145.577 361.929C137.774 369.72 125.119 369.728 117.315 361.921Z" fill="white"/>
<path d="M156.886 401.487C149.091 393.696 149.083 381.055 156.859 373.257L145.609 384.507C145.597 384.515 145.589 384.523 145.578 384.53C137.775 392.338 137.775 404.993 145.578 412.8C153.382 420.6 166.041 420.6 173.844 412.8C173.852 412.792 173.86 412.777 173.871 412.769L185.121 401.519C177.317 409.295 164.682 409.287 156.886 401.487Z" fill="white"/>
<path d="M236.027 480.637C228.232 472.837 228.228 460.206 236.004 452.399L224.75 463.649C224.742 463.665 224.73 463.665 224.723 463.672C216.92 471.48 216.92 484.135 224.723 491.942C232.527 499.742 245.182 499.742 252.985 491.942C252.993 491.934 253.001 491.919 253.012 491.911L264.262 480.661C256.459 488.437 243.823 488.429 236.027 480.637Z" fill="white"/>
<path d="M196.457 441.062C188.661 433.27 188.653 420.63 196.43 412.831L185.18 424.081C185.168 424.089 185.16 424.097 185.149 424.104C177.349 431.904 177.349 444.567 185.149 452.367C192.956 460.175 205.611 460.175 213.415 452.367C213.423 452.359 213.431 452.351 213.442 452.336L224.692 441.086C216.888 448.861 204.252 448.854 196.457 441.062Z" fill="white"/>
<path d="M280.26 490.966C272.46 498.765 259.801 498.765 251.997 490.966L252.001 490.974C252.009 490.982 252.021 490.982 252.032 490.997L263.274 502.239C263.286 502.255 263.294 502.262 263.301 502.27C271.109 510.078 283.764 510.078 291.572 502.27C299.371 494.471 299.371 481.807 291.572 474.008C291.556 474 291.549 473.992 291.541 473.985L280.291 462.735C280.283 462.727 280.275 462.712 280.268 462.704C288.066 470.503 288.066 483.159 280.26 490.966Z" fill="#FFDBE2"/>
<path d="M317.008 454.226C309.208 462.017 296.576 462.025 288.77 454.249L300.02 465.499C300.036 465.507 300.036 465.522 300.043 465.53C307.85 473.329 320.505 473.329 328.313 465.53C336.112 457.722 336.112 445.067 328.313 437.268C328.305 437.252 328.29 437.252 328.282 437.237L317.032 425.986C324.807 433.794 324.799 446.426 317.008 454.226Z" fill="#FFDBE2"/>
<path d="M396.148 375.084C388.349 382.875 375.717 382.883 367.91 375.107L379.16 386.357C379.176 386.365 379.176 386.38 379.183 386.388C386.991 394.188 399.646 394.188 407.454 386.388C415.253 378.58 415.253 365.925 407.454 358.117C407.446 358.109 407.431 358.109 407.423 358.095L396.172 346.844C403.948 354.652 403.94 367.284 396.148 375.084Z" fill="#FFDBE2"/>
<path d="M356.574 414.65C348.783 422.45 336.142 422.45 328.344 414.673L339.594 425.931C339.602 425.939 339.61 425.947 339.617 425.954C347.416 433.762 360.08 433.762 367.879 425.954C375.687 418.155 375.687 405.5 367.879 397.692C367.871 397.684 367.863 397.676 367.848 397.669L356.598 386.419C364.374 394.22 364.374 406.859 356.574 414.65Z" fill="#FFDBE2"/>
<path d="M239.951 190.611C239.951 190.611 194.423 233.941 190.805 237.556C183.001 245.359 183.001 258.018 190.805 265.822C198.608 273.63 211.263 273.63 219.067 265.822C226.874 258.014 269.689 222.336 289.73 240.386L399.99 350.655C429.821 315.108 443.094 235.475 443.094 235.475L357.567 149.94C357.566 149.94 271.937 167.369 239.951 190.611Z" fill="#FF8DA3"/>
<path d="M399.99 350.655C403.301 346.712 406.377 342.161 409.281 337.304C409.281 337.304 352.897 280.92 289.729 240.386L399.99 350.655Z" fill="#FF1B46"/>
<path d="M155.422 159.891L69.266 246.047L74.965 262.945L170.932 166.979L155.422 159.891Z" fill="#FF1B46"/>
<path d="M137.1 121.674L29.697 229.077L41.0057 240.386L148.409 132.983L137.1 121.674Z" fill="#FFDBE2"/>
<path d="M439.275 254.275C441.837 242.951 443.093 235.475 443.093 235.475L357.566 149.94C357.566 149.94 350.196 151.455 339.117 154.121L439.275 254.275Z" fill="#FF1B46"/>
<path d="M470.626 229.086L481.938 217.773L374.534 110.369L363.222 121.681L470.626 229.086Z" fill="#FFDBE2"/>
<path d="M137.103 121.674L148.407 110.369L43.803 5.76898L40.368 24.939L137.103 121.674Z" fill="#FF1B46"/>
<path d="M456.553 5.73297L363.219 99.068L374.523 110.373L461.026 23.87L456.553 5.73297Z" fill="#FF1B46"/>
<path d="M275.599 510.265C269.454 510.265 263.31 507.931 258.633 503.255C257.072 501.7 257.072 499.163 258.633 497.602C260.195 496.04 262.725 496.04 264.285 497.602C270.531 503.84 280.681 503.832 286.911 497.602C293.14 491.365 293.133 481.223 286.895 474.993C285.333 473.431 285.333 470.902 286.895 469.341C288.457 467.78 290.986 467.779 292.547 469.341C301.9 478.686 301.907 493.895 292.563 503.256C287.887 507.931 281.742 510.265 275.599 510.265Z" fill="#99102A"/>
<path d="M312.354 473.54C305.937 473.54 299.91 471.042 295.381 466.506C293.819 464.944 293.819 462.407 295.381 460.854C296.943 459.292 299.472 459.292 301.033 460.854C307.076 466.897 317.615 466.905 323.642 460.862C326.663 457.848 328.327 453.828 328.327 449.557C328.327 445.286 326.656 441.274 323.635 438.252L292.547 407.148C290.985 405.587 290.985 403.057 292.547 401.496C294.109 399.935 296.638 399.935 298.199 401.496L329.287 432.6C333.823 437.128 336.313 443.155 336.321 449.557C336.321 455.966 333.831 461.986 329.295 466.514C324.775 471.042 318.756 473.54 312.354 473.54Z" fill="#99102A"/>
<path d="M351.906 433.958C345.769 433.958 339.625 431.623 334.948 426.946L303.86 395.85C302.298 394.289 302.298 391.759 303.86 390.198C305.422 388.637 307.951 388.636 309.512 390.198L340.6 421.294C346.83 427.524 356.98 427.524 363.218 421.294C369.455 415.049 369.455 404.899 363.218 398.661L332.121 367.581C330.559 366.019 330.559 363.49 332.121 361.929C333.683 360.368 336.212 360.367 337.773 361.929L368.87 393.009C378.223 402.363 378.223 417.586 368.87 426.947C364.194 431.623 358.05 433.958 351.906 433.958Z" fill="#99102A"/>
<path d="M391.488 394.383C385.351 394.383 379.207 392.049 374.531 387.38L343.434 356.276C341.872 354.714 341.872 352.185 343.434 350.624C344.996 349.063 347.525 349.062 349.087 350.624L380.175 381.728C386.413 387.951 396.554 387.951 402.784 381.72C405.805 378.699 407.469 374.686 407.469 370.408C407.469 366.137 405.806 362.125 402.784 359.103L286.902 243.213C285.34 241.651 285.34 239.121 286.902 237.561C288.464 235.999 290.993 235.999 292.554 237.561L408.436 353.451C412.972 357.979 415.462 363.998 415.462 370.408C415.462 376.826 412.972 382.845 408.436 387.373C403.769 392.049 397.633 394.383 391.488 394.383Z" fill="#99102A"/>
<path d="M97.778 334.588C96.322 334.588 94.921 333.792 94.214 332.409C76.902 298.456 71.206 265.065 70.972 263.659C70.609 261.485 72.081 259.425 74.259 259.061C76.418 258.702 78.49 260.173 78.858 262.344C78.913 262.679 84.608 295.965 101.335 328.779C102.338 330.747 101.558 333.151 99.59 334.15C99.008 334.447 98.387 334.588 97.778 334.588Z" fill="#99102A"/>
<path d="M217.474 192.255C216.959 192.255 216.436 192.157 215.932 191.946C188.178 180.329 169.351 170.539 169.163 170.441C167.207 169.419 166.45 167.006 167.469 165.046C168.491 163.086 170.908 162.333 172.864 163.352C173.048 163.45 191.601 173.095 219.016 184.568C221.054 185.423 222.014 187.765 221.163 189.799C220.519 191.334 219.035 192.255 217.474 192.255Z" fill="#99102A"/>
<path d="M407.47 339.491C406.665 339.491 405.854 339.249 405.151 338.749C403.356 337.469 402.934 334.971 404.214 333.175C428.08 299.721 432.679 251.821 432.718 251.34C432.921 249.146 434.85 247.487 437.067 247.721C439.26 247.92 440.885 249.868 440.682 252.066C440.494 254.112 435.833 302.618 410.725 337.821C409.944 338.913 408.719 339.491 407.47 339.491Z" fill="#99102A"/>
<path d="M238.846 501.794C232.445 501.794 226.421 499.304 221.893 494.775C212.548 485.43 212.548 470.213 221.889 460.853L238.85 443.888C247.922 434.839 263.708 434.831 272.765 443.904C277.301 448.432 279.791 454.452 279.791 460.853C279.791 467.262 277.301 473.282 272.765 477.818L255.815 494.759C251.279 499.296 245.252 501.794 238.846 501.794ZM255.811 444.872C251.54 444.872 247.523 446.527 244.498 449.549L227.545 466.506C221.315 472.744 221.315 482.894 227.545 489.123C230.563 492.137 234.579 493.8 238.846 493.8C243.117 493.8 247.138 492.137 250.163 489.108L267.112 472.167C270.133 469.146 271.797 465.125 271.797 460.855C271.797 456.592 270.134 452.58 267.112 449.558C264.091 446.535 260.078 444.872 255.811 444.872Z" fill="#99102A"/>
<path d="M199.279 462.228H199.275C192.877 462.228 186.854 459.738 182.322 455.209C172.98 445.849 172.98 430.624 182.326 421.271L204.935 398.662C213.999 389.606 229.801 389.614 238.849 398.662C248.199 408.016 248.199 423.239 238.845 432.593L216.24 455.202C211.708 459.729 205.681 462.228 199.279 462.228ZM221.896 399.638C217.625 399.638 213.609 401.3 210.587 404.314L187.978 426.924C181.748 433.161 181.748 443.319 187.978 449.557C190.996 452.571 195.008 454.234 199.275 454.234H199.279C203.55 454.234 207.566 452.571 210.588 449.549L233.193 426.94C239.431 420.702 239.431 410.552 233.193 404.314C230.18 401.3 226.171 399.638 221.896 399.638Z" fill="#99102A"/>
<path d="M159.708 422.646C153.298 422.646 147.279 420.155 142.758 415.626C138.226 411.106 135.728 405.087 135.724 398.677C135.72 392.276 138.211 386.248 142.743 381.712L159.708 364.747C168.772 355.69 184.574 355.683 193.63 364.755C198.162 369.283 200.656 375.303 200.656 381.704C200.656 388.114 198.162 394.134 193.63 398.661L176.665 415.626C172.134 420.154 166.11 422.646 159.708 422.646ZM176.67 365.723C172.399 365.723 168.382 367.386 165.361 370.4L148.396 387.365C145.379 390.386 143.716 394.399 143.72 398.677C143.72 402.948 145.387 406.96 148.408 409.974C154.443 416.017 164.971 416.009 171.014 409.974L187.979 393.009C191 389.988 192.663 385.975 192.663 381.704C192.663 377.441 191 373.429 187.979 370.415C184.957 367.386 180.94 365.723 176.67 365.723Z" fill="#99102A"/>
<path d="M120.134 383.078C120.134 383.078 120.134 383.078 120.13 383.078C113.728 383.078 107.709 380.588 103.181 376.067C93.8361 366.706 93.8401 351.49 103.185 342.145L114.49 330.84C123.543 321.776 139.337 321.776 148.396 330.84C157.746 340.193 157.75 355.401 148.404 364.746L137.095 376.051C132.567 380.588 126.543 383.078 120.134 383.078ZM131.438 331.809C127.175 331.809 123.163 333.472 120.141 336.494L108.836 347.799C102.606 354.029 102.606 364.178 108.836 370.416C111.85 373.43 115.862 375.085 120.133 375.085C124.404 375.085 128.42 373.422 131.442 370.4L142.751 359.095C148.978 352.865 148.974 342.723 142.743 336.493C139.722 333.472 135.709 331.809 131.438 331.809Z" fill="#99102A"/>
<path d="M204.943 275.683C204.939 275.683 204.935 275.683 204.935 275.683C198.529 275.683 192.506 273.185 187.978 268.649C178.628 259.3 178.628 244.091 187.978 234.743L224.718 197.99C259.179 163.529 336.759 152.111 340.046 151.638C342.216 151.319 344.254 152.845 344.566 155.031C344.878 157.218 343.365 159.243 341.178 159.555C340.398 159.664 262.943 171.071 230.37 203.642L193.63 240.395C187.4 246.624 187.4 256.766 193.63 262.997C196.651 266.018 200.668 267.689 204.935 267.689C204.939 267.689 204.939 267.689 204.939 267.689C209.21 267.689 213.218 266.026 216.24 263.004C218.321 260.931 267.416 212.429 292.555 237.561C294.117 239.122 294.117 241.652 292.555 243.213C290.993 244.774 288.464 244.775 286.903 243.213C270.687 227.021 234.477 256.087 221.892 268.656C217.364 273.185 211.341 275.683 204.943 275.683Z" fill="#99102A"/>
<path d="M453.664 250.044C452.642 250.044 451.619 249.653 450.838 248.873L343.435 141.462C341.873 139.9 341.873 137.37 343.435 135.809C344.997 134.248 347.526 134.248 349.088 135.809L456.49 243.221C458.052 244.783 458.052 247.312 456.49 248.873C455.71 249.653 454.688 250.044 453.664 250.044Z" fill="#99102A"/>
<path d="M493.239 233.083C492.217 233.083 491.193 232.692 490.413 231.911L360.393 101.895C358.831 100.333 358.831 97.804 360.393 96.243C361.954 94.681 364.484 94.681 366.045 96.243L496.066 226.26C497.628 227.822 497.628 230.352 496.066 231.912C495.285 232.692 494.262 233.083 493.239 233.083Z" fill="#99102A"/>
<path d="M346.262 142.633C345.239 142.633 344.216 142.242 343.435 141.462C341.873 139.9 341.873 137.37 343.435 135.809L360.393 118.852C361.954 117.29 364.484 117.29 366.045 118.852C367.606 120.414 367.606 122.943 366.045 124.504L349.088 141.462C348.307 142.242 347.284 142.633 346.262 142.633Z" fill="#99102A"/>
<path d="M453.664 250.044C452.642 250.044 451.619 249.653 450.838 248.873C449.277 247.311 449.277 244.782 450.838 243.221L467.796 226.263C469.358 224.702 471.887 224.702 473.448 226.263C475.01 227.825 475.01 230.355 473.448 231.915L456.49 248.873C455.71 249.653 454.688 250.044 453.664 250.044Z" fill="#99102A"/>
<path d="M363.219 103.065C362.196 103.065 361.173 102.675 360.393 101.894C358.831 100.332 358.831 97.803 360.393 96.242L453.727 2.90697C455.289 1.34497 457.819 1.34497 459.379 2.90697C460.941 4.46897 460.941 6.99797 459.379 8.55897L366.045 101.894C365.264 102.676 364.241 103.065 363.219 103.065Z" fill="#99102A"/>
<path d="M493.239 233.083C492.217 233.083 491.193 232.692 490.413 231.911C488.851 230.35 488.851 227.816 490.413 226.259L505.176 211.512C506.738 209.95 509.268 209.95 510.829 211.512C512.39 213.074 512.391 215.607 510.829 217.164L496.065 231.911C495.285 232.692 494.262 233.083 493.239 233.083Z" fill="#FF1B46"/>
<path d="M57.958 261.337C56.935 261.337 55.913 260.946 55.131 260.166C53.57 258.604 53.57 256.075 55.131 254.514L162.543 147.115C164.105 145.553 166.634 145.553 168.195 147.115C169.757 148.677 169.757 151.206 168.195 152.767L60.784 260.166C60.003 260.946 58.98 261.337 57.958 261.337Z" fill="#99102A"/>
<path d="M18.3911 244.384C17.3691 244.384 16.3461 243.993 15.5651 243.213C14.0031 241.651 14.0031 239.121 15.5651 237.561L145.586 107.551C147.148 105.989 149.677 105.989 151.238 107.551C152.8 109.113 152.8 111.642 151.238 113.203L21.2171 243.213C20.4361 243.993 19.4131 244.384 18.3911 244.384Z" fill="#99102A"/>
<path d="M57.9581 261.337C56.9351 261.337 55.9131 260.946 55.1311 260.166L38.1741 243.213C36.6121 241.651 36.6121 239.121 38.1741 237.561C39.7361 235.999 42.2651 235.999 43.8261 237.561L60.7841 254.514C62.3451 256.076 62.3451 258.605 60.7841 260.166C60.0031 260.946 58.9801 261.337 57.9581 261.337Z" fill="#FF1B46"/>
<path d="M165.369 153.938C164.346 153.938 163.324 153.547 162.543 152.767L145.585 135.809C144.024 134.248 144.024 131.718 145.585 130.157C147.147 128.596 149.676 128.596 151.237 130.157L168.195 147.115C169.757 148.677 169.757 151.206 168.195 152.767C167.414 153.547 166.392 153.938 165.369 153.938Z" fill="#FF1B46"/>
<path d="M18.391 244.384C17.369 244.384 16.346 243.993 15.565 243.213L1.46496 229.112C-0.097043 227.551 -0.097043 225.021 1.46496 223.46C3.02696 221.899 5.55596 221.898 7.11696 223.46L21.217 237.561C22.779 239.122 22.779 241.652 21.217 243.213C20.436 243.993 19.413 244.384 18.391 244.384Z" fill="#FF1B46"/>
<path d="M148.411 114.374C147.389 114.374 146.366 113.984 145.585 113.203L40.977 8.59498C39.415 7.03298 39.415 4.50398 40.977 2.94298C42.539 1.38198 45.068 1.38098 46.629 2.94298L151.237 107.551C152.799 109.113 152.799 111.642 151.237 113.203C150.457 113.984 149.434 114.374 148.411 114.374Z" fill="#99102A"/>
<path d="M11.981 209.306C8.77601 209.306 5.76301 208.061 3.49401 205.801C-1.16999 201.105 -1.16299 193.5 3.50201 188.836C8.02301 184.308 15.936 184.308 20.463 188.836C25.131 193.512 25.131 201.12 20.463 205.797C18.199 208.061 15.186 209.306 11.981 209.306ZM11.981 193.32C10.911 193.32 9.90801 193.734 9.15901 194.488C7.59701 196.045 7.59701 198.587 9.15501 200.152C10.638 201.639 13.297 201.651 14.803 200.144C16.365 198.586 16.365 196.044 14.803 194.488C14.054 193.734 13.051 193.32 11.981 193.32Z" fill="#FF1B46"/>
<path d="M298.208 467.677C297.186 467.677 296.162 467.286 295.382 466.506L264.293 435.418C262.732 433.856 262.732 431.327 264.293 429.766C265.855 428.204 268.385 428.204 269.945 429.766L301.034 460.854C302.596 462.416 302.596 464.945 301.034 466.506C300.254 467.286 299.23 467.677 298.208 467.677Z" fill="#99102A"/>
</g>
<defs>
<clipPath id="clip0_347_431">
<rect width="512" height="512" fill="white"/>
</clipPath>
</defs>
</svg>
