<svg width="512" height="512" viewBox="0 0 512 512" fill="none" xmlns="http://www.w3.org/2000/svg">
<path d="M228.019 355.385H283.98V299.58V298.064H307.964C393.03 292.943 449.788 276.002 480.487 264.009L500.395 255.386V451.32C500.395 468.909 485.999 483.298 468.416 483.298H44.707C27.117 483.298 12.728 468.909 12.728 451.32V256.679L19.524 259.053C45.745 270.647 106.262 292.147 204.035 298.065H228.019V299.581V355.385Z" fill="#FF1B46"/>
<path d="M283.98 275.439H228.019V298.064H204.035C106.262 292.146 45.744 270.646 19.524 259.052C9.21096 254.492 4.17096 251.455 4.17096 251.455V139.532C4.17096 117.547 22.158 99.559 44.144 99.559H467.855C489.839 99.559 507.828 117.546 507.828 139.532V251.456C507.828 251.456 498.881 256.894 480.488 264.01C449.789 276.002 393.031 292.944 307.965 298.065H283.98V275.439Z" fill="#FF1B46"/>
<path d="M283.98 314.054H307.964C393.03 308.933 449.788 291.992 480.487 279.999C489.286 276.596 495.866 273.598 500.395 271.364V255.386L500.27 255.441C495.741 257.659 489.215 260.632 480.487 264.009C449.788 276.001 393.03 292.943 307.964 298.064H283.98V299.58V314.054Z" fill="#99102A"/>
<path d="M12.728 271.911C14.66 272.84 16.924 273.893 19.524 275.041C45.745 286.635 106.262 308.137 204.035 314.054H228.019V299.58V298.064H204.035C106.262 292.146 45.744 270.646 19.524 259.052L12.728 256.678V271.911Z" fill="#99102A"/>
<path d="M20.161 248.005V136.082C20.161 114.097 38.148 96.109 60.134 96.109H44.144C22.159 96.109 4.17096 114.097 4.17096 136.082V248.006C4.17096 248.006 9.21096 251.043 19.524 255.602L20.161 248.005Z" fill="#FF7690"/>
<path d="M28.717 447.869V275.439C25.324 274.081 22.197 272.769 19.524 271.59C16.924 270.443 14.66 269.388 12.728 268.459V447.868C12.728 465.458 27.117 479.847 44.707 479.847H60.696C43.106 479.848 28.717 465.459 28.717 447.869Z" fill="#FF7690"/>
<path d="M493.838 248.005V136.082C493.838 114.097 475.85 96.109 453.865 96.109H469.853C491.839 96.109 509.826 114.097 509.826 136.082V248.006C509.826 248.006 504.783 251.043 494.478 255.602L493.838 248.005Z" fill="#99102A"/>
<path d="M485.281 447.869V275.439C488.67 274.081 491.801 272.769 494.478 271.59C497.07 270.443 499.333 269.388 501.269 268.459V447.868C501.269 465.458 486.88 479.847 469.292 479.847H453.302C470.893 479.848 485.281 465.459 485.281 447.869Z" fill="#99102A"/>
<path d="M331.932 67.581H180.04V51.592C180.04 51.592 195.584 35.603 255.988 35.603C316.397 35.603 331.932 51.592 331.932 51.592V67.581Z" fill="#FF7690"/>
<path d="M255.988 32.152C195.584 32.152 180.04 48.141 180.04 48.141V56.135C180.04 56.135 195.584 40.146 255.988 40.146C316.397 40.146 331.932 56.135 331.932 56.135V48.141C331.932 48.142 316.396 32.152 255.988 32.152Z" fill="#FF1B46"/>
<path d="M454.451 467.855H438.461C436.252 467.855 434.465 466.067 434.465 463.858C434.465 461.648 436.252 459.861 438.461 459.861H454.451C456.66 459.861 458.447 461.648 458.447 463.858C458.447 466.067 456.66 467.855 454.451 467.855ZM422.473 467.855H406.485C404.274 467.855 402.487 466.067 402.487 463.858C402.487 461.648 404.274 459.861 406.485 459.861H422.473C424.682 459.861 426.471 461.648 426.471 463.858C426.471 466.067 424.682 467.855 422.473 467.855ZM390.494 467.855H374.506C372.295 467.855 370.508 466.067 370.508 463.858C370.508 461.648 372.295 459.861 374.506 459.861H390.494C392.703 459.861 394.492 461.648 394.492 463.858C394.492 466.067 392.703 467.855 390.494 467.855ZM358.516 467.855H342.528C340.319 467.855 338.53 466.067 338.53 463.858C338.53 461.648 340.319 459.861 342.528 459.861H358.516C360.725 459.861 362.514 461.648 362.514 463.858C362.514 466.067 360.725 467.855 358.516 467.855ZM326.537 467.855H310.549C308.34 467.855 306.551 466.067 306.551 463.858C306.551 461.648 308.34 459.861 310.549 459.861H326.537C328.748 459.861 330.535 461.648 330.535 463.858C330.535 466.067 328.748 467.855 326.537 467.855ZM294.561 467.855H278.571C276.362 467.855 274.573 466.067 274.573 463.858C274.573 461.648 276.362 459.861 278.571 459.861H294.561C296.77 459.861 298.557 461.648 298.557 463.858C298.557 466.067 296.77 467.855 294.561 467.855ZM262.582 467.855H246.592C244.383 467.855 242.595 466.067 242.595 463.858C242.595 461.648 244.383 459.861 246.592 459.861H262.582C264.791 459.861 266.578 461.648 266.578 463.858C266.578 466.067 264.791 467.855 262.582 467.855ZM230.603 467.855H214.614C212.405 467.855 210.617 466.067 210.617 463.858C210.617 461.648 212.405 459.861 214.614 459.861H230.603C232.812 459.861 234.6 461.648 234.6 463.858C234.6 466.067 232.812 467.855 230.603 467.855ZM198.625 467.855H182.636C180.427 467.855 178.638 466.067 178.638 463.858C178.638 461.648 180.426 459.861 182.636 459.861H198.625C200.835 459.861 202.623 461.648 202.623 463.858C202.622 466.067 200.834 467.855 198.625 467.855ZM166.646 467.855H150.657C148.447 467.855 146.659 466.067 146.659 463.858C146.659 461.648 148.447 459.861 150.657 459.861H166.646C168.855 459.861 170.644 461.648 170.644 463.858C170.644 466.067 168.856 467.855 166.646 467.855ZM134.668 467.855H118.679C116.47 467.855 114.682 466.067 114.682 463.858C114.682 461.648 116.47 459.861 118.679 459.861H134.668C136.877 459.861 138.665 461.648 138.665 463.858C138.666 466.067 136.877 467.855 134.668 467.855ZM102.69 467.855H86.701C84.492 467.855 82.704 466.067 82.704 463.858C82.704 461.648 84.492 459.861 86.701 459.861H102.69C104.9 459.861 106.688 461.648 106.688 463.858C106.688 466.067 104.9 467.855 102.69 467.855ZM70.712 467.855H54.723C52.513 467.855 50.725 466.067 50.725 463.858C50.725 461.648 52.513 459.861 54.723 459.861H70.712C72.921 459.861 74.71 461.648 74.71 463.858C74.709 466.067 72.921 467.855 70.712 467.855ZM470.15 465.779C468.621 465.779 467.16 464.896 466.498 463.413C465.592 461.398 466.498 459.033 468.512 458.128C472.571 456.301 475.975 453.123 478.069 449.173C479.106 447.213 481.534 446.487 483.471 447.51C485.422 448.549 486.172 450.969 485.133 452.92C482.205 458.441 477.459 462.875 471.776 465.42C471.244 465.662 470.697 465.779 470.15 465.779ZM39.518 463.905C38.765 463.905 37.999 463.686 37.321 463.241C32.098 459.799 28.128 454.645 26.141 448.744C25.438 446.651 26.562 444.387 28.659 443.684C30.747 442.997 33.015 444.114 33.721 446.198C35.138 450.414 37.98 454.099 41.724 456.566C43.566 457.784 44.074 460.267 42.86 462.109C42.091 463.265 40.818 463.905 39.518 463.905ZM484.375 439.516C482.174 439.516 480.379 437.72 480.379 435.519V419.53C480.379 417.312 482.174 415.532 484.375 415.532C486.594 415.532 488.373 417.312 488.373 419.53V435.519C488.373 437.72 486.594 439.516 484.375 439.516ZM28.69 435.619C26.48 435.619 24.692 433.832 24.692 431.622V415.633C24.692 413.424 26.48 411.636 28.69 411.636C30.899 411.636 32.687 413.424 32.687 415.633V431.622C32.687 433.832 30.899 435.619 28.69 435.619ZM484.375 407.537C482.174 407.537 480.379 405.742 480.379 403.54V387.551C480.379 385.334 482.174 383.554 484.375 383.554C486.594 383.554 488.373 385.334 488.373 387.551V403.54C488.373 405.742 486.594 407.537 484.375 407.537ZM28.69 403.642C26.48 403.642 24.692 401.854 24.692 399.645V383.656C24.692 381.446 26.48 379.659 28.69 379.659C30.899 379.659 32.687 381.446 32.687 383.656V399.645C32.687 401.854 30.899 403.642 28.69 403.642ZM484.375 375.559C482.174 375.559 480.379 373.764 480.379 371.562V355.573C480.379 353.356 482.174 351.576 484.375 351.576C486.594 351.576 488.373 353.356 488.373 355.573V371.562C488.373 373.764 486.594 375.559 484.375 375.559ZM28.69 371.663C26.48 371.663 24.692 369.875 24.692 367.666V351.677C24.692 349.468 26.48 347.68 28.69 347.68C30.899 347.68 32.687 349.468 32.687 351.677V367.666C32.687 369.875 30.899 371.663 28.69 371.663ZM484.375 343.581C482.174 343.581 480.379 341.785 480.379 339.584V323.595C480.379 321.377 482.174 319.598 484.375 319.598C486.594 319.598 488.373 321.377 488.373 323.595V339.584C488.373 341.785 486.594 343.581 484.375 343.581ZM28.69 339.686C26.48 339.686 24.692 337.898 24.692 335.688V319.7C24.692 317.49 26.48 315.702 28.69 315.702C30.899 315.702 32.687 317.49 32.687 319.7V335.688C32.687 337.897 30.899 339.686 28.69 339.686ZM484.375 311.603C482.174 311.603 480.379 309.807 480.379 307.606V291.617C480.379 289.399 482.174 287.62 484.375 287.62C486.594 287.62 488.373 289.399 488.373 291.617V307.606C488.373 309.807 486.594 311.603 484.375 311.603ZM28.69 307.707C26.48 307.707 24.692 305.919 24.692 303.709V287.721C24.692 285.511 26.48 283.723 28.69 283.723C30.899 283.723 32.687 285.511 32.687 287.721V303.709C32.687 305.919 30.899 307.707 28.69 307.707Z" fill="#99102A"/>
<path d="M20.149 236.014C17.939 236.014 16.151 234.226 16.151 232.016V224.021C16.151 221.812 17.939 220.024 20.149 220.024C22.358 220.024 24.146 221.812 24.146 224.021V232.016C24.146 234.226 22.358 236.014 20.149 236.014Z" fill="#99102A"/>
<path d="M20.149 210.429C17.939 210.429 16.151 208.641 16.151 206.431V188.842C16.151 186.632 17.939 184.844 20.149 184.844C22.358 184.844 24.146 186.632 24.146 188.842V206.431C24.146 208.642 22.358 210.429 20.149 210.429ZM20.149 175.254C17.939 175.254 16.151 173.466 16.151 171.257V153.667C16.151 151.458 17.939 149.67 20.149 149.67C22.358 149.67 24.146 151.458 24.146 153.667V171.257C24.146 173.466 22.358 175.254 20.149 175.254Z" fill="#99102A"/>
<path d="M20.149 140.079C17.939 140.079 16.151 138.291 16.151 136.081V128.086C16.151 125.877 17.939 124.089 20.149 124.089C22.358 124.089 24.146 125.877 24.146 128.086V136.081C24.146 138.291 22.358 140.079 20.149 140.079Z" fill="#99102A"/>
<path d="M491.824 236.014C489.623 236.014 487.826 234.226 487.826 232.016V216.027C487.826 213.817 489.623 212.029 491.824 212.029C494.041 212.029 495.82 213.817 495.82 216.027V232.016C495.82 234.226 494.041 236.014 491.824 236.014ZM491.824 204.035C489.623 204.035 487.826 202.247 487.826 200.038V184.049C487.826 181.84 489.623 180.052 491.824 180.052C494.041 180.052 495.82 181.84 495.82 184.049V200.038C495.82 202.247 494.041 204.035 491.824 204.035ZM491.824 172.057C489.623 172.057 487.826 170.269 487.826 168.06V152.07C487.826 149.861 489.623 148.073 491.824 148.073C494.041 148.073 495.82 149.861 495.82 152.07V168.059C495.82 170.269 494.041 172.057 491.824 172.057ZM491.824 140.079C489.623 140.079 487.826 138.291 487.826 136.081V128.086C487.826 125.877 489.623 124.089 491.824 124.089C494.041 124.089 495.82 125.877 495.82 128.086V136.081C495.82 138.291 494.041 140.079 491.824 140.079Z" fill="#99102A"/>
<path d="M275.971 451.866C273.77 451.866 271.973 450.078 271.973 447.869V431.88C271.973 429.671 273.77 427.883 275.971 427.883C278.188 427.883 279.969 429.671 279.969 431.88V447.869C279.969 450.078 278.188 451.866 275.971 451.866ZM275.971 419.889C273.77 419.889 271.973 418.101 271.973 415.891V399.903C271.973 397.693 273.77 395.905 275.971 395.905C278.188 395.905 279.969 397.693 279.969 399.903V415.891C279.969 418.101 278.188 419.889 275.971 419.889ZM275.971 387.91C273.77 387.91 271.973 386.122 271.973 383.912V367.924C271.973 365.714 273.77 363.926 275.971 363.926C278.188 363.926 279.969 365.714 279.969 367.924V383.912C279.969 386.122 278.188 387.91 275.971 387.91Z" fill="#99102A"/>
<path d="M236.001 451.866C233.792 451.866 232.004 450.078 232.004 447.869V431.88C232.004 429.671 233.792 427.883 236.001 427.883C238.211 427.883 239.999 429.671 239.999 431.88V447.869C239.999 450.078 238.211 451.866 236.001 451.866ZM236.001 419.889C233.792 419.889 232.004 418.101 232.004 415.891V399.903C232.004 397.693 233.792 395.905 236.001 395.905C238.211 395.905 239.999 397.693 239.999 399.903V415.891C239.999 418.101 238.211 419.889 236.001 419.889ZM236.001 387.91C233.792 387.91 232.004 386.122 232.004 383.912V367.924C232.004 365.714 233.792 363.926 236.001 363.926C238.211 363.926 239.999 365.714 239.999 367.924V383.912C239.999 386.122 238.211 387.91 236.001 387.91Z" fill="#99102A"/>
<path d="M256 311.962C260.399 311.962 263.995 315.561 263.995 319.956C263.995 324.351 260.399 327.951 256 327.951C251.605 327.951 248.006 324.351 248.006 319.956C248.006 315.561 251.604 311.962 256 311.962Z" fill="#FF1B46"/>
<path d="M228.019 271.989H283.98V294.614V296.129H228.019V294.614V271.989Z" fill="#FF8DA3"/>
<path d="M283.98 351.935H228.019V296.129H283.98V351.935ZM256 327.951C260.399 327.951 263.995 324.351 263.995 319.956C263.995 315.561 260.399 311.962 256 311.962C251.605 311.962 248.006 315.561 248.006 319.956C248.006 324.351 251.604 327.951 256 327.951Z" fill="#FF8DA3"/>
<path d="M256 232.016C240.546 232.016 228.02 244.543 228.02 259.997V271.989H283.981V259.997C283.98 244.543 271.459 232.016 256 232.016Z" fill="#FF7690"/>
<path d="M259.998 232.418C258.682 232.231 257.369 232.016 255.999 232.016C240.545 232.016 228.019 244.543 228.019 259.997V271.989H236.013V259.997C236.013 245.913 246.452 234.374 259.998 232.418Z" fill="#FF8DA3"/>
<path d="M252.002 232.418C253.317 232.231 254.629 232.016 255.999 232.016C271.458 232.016 283.98 244.543 283.98 259.997V271.989H275.986V259.997C275.986 245.913 265.549 234.374 252.002 232.418Z" fill="#FF1B46"/>
<path d="M236.001 271.989H228.019V296.129H236.001V271.989Z" fill="white"/>
<path d="M236.001 296.129H228.019V352.091H236.001V296.129Z" fill="white"/>
<path d="M283.957 271.989H275.971V296.129H283.957V271.989Z" fill="#FF7690"/>
<path d="M283.957 296.129H275.971V352.091H283.957V296.129Z" fill="#FF7690"/>
<path d="M468.418 483.845H44.707C24.869 483.845 8.73096 467.707 8.73096 447.869V271.989C8.73096 269.779 10.519 267.992 12.728 267.992C14.937 267.992 16.725 269.779 16.725 271.989V447.869C16.725 463.296 29.279 475.849 44.706 475.849H468.417C483.845 475.849 496.397 463.295 496.397 447.869V271.989C496.397 269.779 498.186 267.992 500.395 267.992C502.604 267.992 504.391 269.779 504.391 271.989V447.869C504.393 467.707 488.256 483.845 468.418 483.845Z" fill="#99102A"/>
<path d="M283.98 355.932H228.019C225.809 355.932 224.021 354.145 224.021 351.935V271.99C224.021 269.78 225.809 267.993 228.019 267.993H283.98C286.189 267.993 287.978 269.78 287.978 271.99V351.935C287.979 354.145 286.189 355.932 283.98 355.932ZM232.016 347.938H279.984V275.987H232.016V347.938Z" fill="#99102A"/>
<path d="M256 331.948C249.388 331.948 244.009 326.568 244.009 319.956C244.009 313.344 249.388 307.965 256 307.965C262.614 307.965 267.993 313.344 267.993 319.956C267.993 326.568 262.613 331.948 256 331.948ZM256 315.959C253.795 315.959 252.003 317.755 252.003 319.956C252.003 322.158 253.795 323.953 256 323.953C258.206 323.953 259.999 322.158 259.999 319.956C259.998 317.755 258.205 315.959 256 315.959Z" fill="#99102A"/>
<path d="M256 339.942C253.791 339.942 252.003 338.154 252.003 335.945V327.951C252.003 325.741 253.791 323.953 256 323.953C258.209 323.953 259.999 325.741 259.999 327.951V335.945C259.998 338.154 258.209 339.942 256 339.942Z" fill="#99102A"/>
<path d="M283.98 300.126H228.019C225.809 300.126 224.021 298.346 224.021 296.129C224.021 293.927 225.809 292.131 228.019 292.131H283.98C286.189 292.131 287.978 293.927 287.978 296.129C287.979 298.346 286.189 300.126 283.98 300.126Z" fill="#99102A"/>
<path d="M204.039 298.611C203.957 298.611 203.875 298.611 203.793 298.603C106.137 292.693 45.412 271.411 17.907 259.259C7.48497 254.649 2.31997 251.557 2.10497 251.428C0.906974 250.706 0.172974 249.406 0.172974 248.005V136.082C0.172974 111.836 19.898 92.1121 44.143 92.1121H467.854C492.104 92.1121 511.825 111.837 511.825 136.082V248.006C511.825 249.403 511.091 250.695 509.903 251.422C509.53 251.652 500.442 257.125 481.923 264.284C448.985 277.158 392.095 293.554 308.206 298.604C306.067 298.76 304.106 297.066 303.974 294.857C303.841 292.647 305.521 290.758 307.722 290.626C390.579 285.637 446.613 269.499 479.034 256.832C492.089 251.785 500.333 247.573 503.831 245.672V136.082C503.831 116.244 487.692 100.106 467.854 100.106H44.144C24.306 100.106 8.16797 116.243 8.16797 136.082V245.667C10.46 246.908 14.781 249.133 21.14 251.944C48.153 263.884 107.866 284.793 204.277 290.625C206.479 290.758 208.157 292.646 208.025 294.856C207.896 296.972 206.135 298.611 204.039 298.611Z" fill="#99102A"/>
<path d="M267.992 279.983H244.008C241.798 279.983 240.01 278.195 240.01 275.986C240.01 273.777 241.798 271.989 244.008 271.989H267.992C270.201 271.989 271.988 273.777 271.988 275.986C271.988 278.195 270.201 279.983 267.992 279.983Z" fill="#99102A"/>
<path d="M283.98 263.994C281.771 263.994 279.984 262.207 279.984 259.997C279.984 246.771 269.224 236.014 255.999 236.014C242.774 236.014 232.016 246.772 232.016 259.997C232.016 262.207 230.228 263.994 228.019 263.994C225.809 263.994 224.021 262.207 224.021 259.997C224.021 242.364 238.367 228.018 255.999 228.018C273.628 228.018 287.978 242.364 287.978 259.997C287.979 262.207 286.189 263.994 283.98 263.994Z" fill="#99102A"/>
<path d="M387.91 124.09H124.089C121.88 124.09 120.092 122.302 120.092 120.092C120.092 117.882 121.88 116.094 124.089 116.094H387.91C390.119 116.094 391.908 117.882 391.908 120.092C391.908 122.302 390.119 124.09 387.91 124.09Z" fill="#99102A"/>
<path d="M331.947 68.128H180.051C177.842 68.128 176.054 66.34 176.054 64.13V48.142C176.054 47.103 176.46 46.104 177.182 45.359C177.866 44.656 194.577 28.156 255.999 28.156C317.341 28.156 334.126 44.648 334.804 45.351C335.538 46.096 335.945 47.1 335.945 48.142V64.13C335.945 66.34 334.158 68.128 331.947 68.128ZM184.049 60.133H327.951V50.042C323.469 46.845 304.826 36.149 255.999 36.149C207.204 36.149 188.576 46.806 184.048 50.046V60.133H184.049Z" fill="#99102A"/>
<path d="M180.051 84.1171C177.842 84.1171 176.054 82.3291 176.054 80.1191V64.1301C176.054 61.9211 177.842 60.1331 180.051 60.1331C182.261 60.1331 184.049 61.9211 184.049 64.1301V80.1201C184.049 82.3291 182.261 84.1171 180.051 84.1171Z" fill="#99102A"/>
<path d="M196.041 84.1171C193.832 84.1171 192.044 82.3291 192.044 80.1191V64.1301C192.044 61.9211 193.832 60.1331 196.041 60.1331C198.25 60.1331 200.038 61.9211 200.038 64.1301V80.1201C200.038 82.3291 198.25 84.1171 196.041 84.1171Z" fill="#99102A"/>
<path d="M315.959 84.1171C313.75 84.1171 311.961 82.3291 311.961 80.1191V64.1301C311.961 61.9211 313.75 60.1331 315.959 60.1331C318.168 60.1331 319.957 61.9211 319.957 64.1301V80.1201C319.957 82.3291 318.168 84.1171 315.959 84.1171Z" fill="#99102A"/>
<path d="M331.947 84.1171C329.738 84.1171 327.951 82.3291 327.951 80.1191V64.1301C327.951 61.9211 329.738 60.1331 331.947 60.1331C334.158 60.1331 335.945 61.9211 335.945 64.1301V80.1201C335.945 82.3291 334.158 84.1171 331.947 84.1171Z" fill="#99102A"/>
<path d="M256 451.866C253.791 451.866 252.003 450.078 252.003 447.869V367.924C252.003 365.714 253.791 363.926 256 363.926C258.209 363.926 259.999 365.714 259.999 367.924V447.869C259.998 450.078 258.209 451.866 256 451.866Z" fill="#99102A"/>
</svg>
