<svg width="1341" height="1200" viewBox="0 0 1341 1200" fill="none" xmlns="http://www.w3.org/2000/svg">
<path d="M929.441 1197.99C929.441 1197.99 875.29 1083.25 911.391 985.98C947.492 888.707 997.773 958.904 993.691 1036.12C993.691 1036.12 1044.76 810.949 1163.1 835.789C1281.43 860.629 1108.94 1144.25 1049.78 1197.99H929.441Z" fill="#000A1D"/>
<path d="M976.072 1199.92C975.655 1199.92 975.247 1199.79 974.908 1199.55C974.568 1199.3 974.312 1198.96 974.177 1198.57C949.969 1128.05 944.544 1017.15 944.484 1016.05C944.459 1015.52 944.646 1015.01 945.003 1014.61C945.36 1014.22 945.858 1013.98 946.389 1013.96C946.919 1013.93 947.438 1014.12 947.831 1014.48C948.224 1014.83 948.459 1015.33 948.485 1015.86C948.535 1016.97 953.94 1127.32 977.957 1197.28C978.057 1197.58 978.084 1197.9 978.037 1198.21C977.99 1198.53 977.869 1198.82 977.686 1199.08C977.502 1199.34 977.26 1199.55 976.979 1199.69C976.699 1199.84 976.388 1199.92 976.072 1199.92Z" fill="#262424"/>
<path d="M951.323 1075.23C950.803 1075.23 950.303 1075.03 949.929 1074.67C937.654 1062.87 924.488 1040.04 923.936 1039.07C923.67 1038.61 923.598 1038.06 923.737 1037.54C923.875 1037.03 924.212 1036.59 924.673 1036.33C925.135 1036.06 925.683 1035.99 926.197 1036.13C926.711 1036.26 927.15 1036.6 927.416 1037.06C927.546 1037.29 940.843 1060.37 952.707 1071.76C953.001 1072.04 953.206 1072.39 953.293 1072.79C953.381 1073.18 953.348 1073.59 953.199 1073.97C953.049 1074.34 952.79 1074.66 952.456 1074.89C952.121 1075.11 951.726 1075.23 951.323 1075.23Z" fill="#262424"/>
<path d="M956.999 1117.67C956.649 1117.67 956.305 1117.57 956.004 1117.39C955.702 1117.21 955.452 1116.96 955.278 1116.66C955.105 1116.35 955.014 1116.01 955.015 1115.66C955.016 1115.31 955.109 1114.96 955.284 1114.66L978.72 1075.94C979.004 1075.51 979.446 1075.2 979.953 1075.08C980.46 1074.97 980.992 1075.05 981.437 1075.32C981.882 1075.59 982.205 1076.02 982.338 1076.53C982.471 1077.03 982.403 1077.56 982.149 1078.02L958.713 1116.74C958.531 1117.03 958.277 1117.26 957.977 1117.43C957.677 1117.59 957.34 1117.67 956.999 1117.67V1117.67Z" fill="#262424"/>
<path d="M967.438 1170.28C966.918 1170.28 966.418 1170.08 966.044 1169.71C955.515 1159.57 933.012 1137.3 932.791 1137.08C932.589 1136.9 932.426 1136.68 932.311 1136.43C932.197 1136.19 932.133 1135.92 932.125 1135.65C932.117 1135.38 932.164 1135.11 932.264 1134.86C932.364 1134.6 932.513 1134.37 932.704 1134.18C932.895 1133.99 933.124 1133.83 933.375 1133.73C933.627 1133.63 933.897 1133.58 934.169 1133.59C934.44 1133.59 934.708 1133.65 934.955 1133.76C935.203 1133.87 935.425 1134.04 935.609 1134.24C935.829 1134.46 958.322 1156.71 968.822 1166.84C969.106 1167.11 969.301 1167.47 969.383 1167.86C969.464 1168.25 969.429 1168.65 969.281 1169.02C969.132 1169.39 968.878 1169.7 968.55 1169.93C968.222 1170.15 967.835 1170.27 967.438 1170.28V1170.28Z" fill="#262424"/>
<path d="M1003.98 1200C1003.67 1200 1003.36 1199.93 1003.08 1199.78C1002.8 1199.64 1002.55 1199.44 1002.37 1199.18C1002.18 1198.93 1002.06 1198.64 1002 1198.33C1001.95 1198.02 1001.97 1197.7 1002.06 1197.4C1002.67 1195.4 1063.24 999.147 1143.41 885.879C1143.56 885.664 1143.76 885.481 1143.98 885.34C1144.2 885.199 1144.45 885.104 1144.71 885.059C1144.97 885.015 1145.24 885.022 1145.49 885.08C1145.75 885.138 1145.99 885.246 1146.21 885.398C1146.42 885.55 1146.61 885.743 1146.75 885.966C1146.89 886.189 1146.98 886.438 1147.03 886.697C1147.07 886.957 1147.07 887.223 1147.01 887.48C1146.95 887.737 1146.84 887.981 1146.69 888.196C1066.9 1000.94 1006.51 1196.57 1005.91 1198.58C1005.78 1198.99 1005.53 1199.35 1005.18 1199.61C1004.83 1199.86 1004.41 1200 1003.98 1200Z" fill="#262424"/>
<path d="M1108.06 948.936C1107.69 948.941 1107.33 948.844 1107.02 948.656C1106.7 948.469 1106.44 948.198 1106.27 947.873C1098.85 933.834 1089.35 900.2 1088.95 898.736C1088.82 898.229 1088.9 897.692 1089.16 897.24C1089.42 896.787 1089.85 896.455 1090.35 896.314C1090.85 896.173 1091.39 896.234 1091.85 896.484C1092.31 896.734 1092.65 897.153 1092.81 897.653C1092.91 897.993 1102.6 932.33 1109.86 945.958C1110.03 946.266 1110.11 946.614 1110.11 946.967C1110.1 947.32 1110 947.664 1109.82 947.966C1109.64 948.268 1109.38 948.517 1109.07 948.687C1108.76 948.858 1108.41 948.944 1108.06 948.936Z" fill="#262424"/>
<path d="M1090.89 981.788C1090.41 981.79 1089.95 981.619 1089.58 981.307C1089.22 980.994 1088.98 980.562 1088.9 980.087C1088.83 979.612 1088.93 979.127 1089.19 978.719C1089.44 978.312 1089.83 978.01 1090.29 977.867C1090.61 977.767 1123.03 967.448 1141.81 960.037C1142.05 959.938 1142.31 959.889 1142.58 959.892C1142.84 959.895 1143.1 959.95 1143.35 960.055C1143.59 960.159 1143.81 960.311 1143.99 960.5C1144.18 960.69 1144.32 960.914 1144.42 961.16C1144.52 961.406 1144.57 961.669 1144.56 961.934C1144.56 962.198 1144.5 962.459 1144.39 962.701C1144.29 962.944 1144.13 963.163 1143.94 963.346C1143.75 963.529 1143.53 963.672 1143.28 963.768C1124.38 971.228 1091.84 981.588 1091.51 981.688C1091.31 981.753 1091.1 981.787 1090.89 981.788Z" fill="#262424"/>
<path d="M1058.91 1051.49C1058.54 1051.49 1058.17 1051.39 1057.85 1051.19C1057.53 1050.99 1057.27 1050.7 1057.11 1050.36C1046.72 1028.72 1038.41 998.345 1038.33 998.044C1038.26 997.79 1038.24 997.524 1038.27 997.263C1038.31 997.002 1038.39 996.75 1038.52 996.521C1038.65 996.292 1038.83 996.092 1039.04 995.931C1039.24 995.77 1039.48 995.651 1039.74 995.582C1039.99 995.513 1040.26 995.494 1040.52 995.528C1040.78 995.561 1041.03 995.646 1041.26 995.776C1041.49 995.907 1041.69 996.082 1041.85 996.29C1042.01 996.499 1042.13 996.737 1042.2 996.991C1042.28 997.292 1050.5 1027.32 1060.73 1048.63C1060.88 1048.93 1060.94 1049.27 1060.92 1049.61C1060.9 1049.95 1060.79 1050.27 1060.61 1050.56C1060.43 1050.85 1060.18 1051.08 1059.88 1051.25C1059.59 1051.41 1059.25 1051.49 1058.91 1051.49Z" fill="#262424"/>
<path d="M1030.88 1122.04C1030.41 1122.04 1029.96 1121.88 1029.6 1121.58C1029.23 1121.29 1028.99 1120.87 1028.9 1120.41C1028.81 1119.95 1028.89 1119.48 1029.11 1119.07C1029.34 1118.66 1029.7 1118.34 1030.13 1118.17C1030.52 1118.01 1069.82 1102.36 1090.13 1093.93C1090.38 1093.83 1090.64 1093.78 1090.9 1093.78C1091.16 1093.78 1091.42 1093.83 1091.67 1093.93C1091.91 1094.03 1092.13 1094.18 1092.32 1094.37C1092.51 1094.56 1092.65 1094.78 1092.75 1095.02C1092.85 1095.26 1092.91 1095.53 1092.91 1095.79C1092.91 1096.05 1092.85 1096.31 1092.75 1096.56C1092.65 1096.8 1092.5 1097.02 1092.32 1097.21C1092.13 1097.39 1091.91 1097.54 1091.67 1097.64C1071.33 1106.08 1032.01 1121.71 1031.62 1121.9C1031.38 1121.99 1031.13 1122.04 1030.88 1122.04Z" fill="#262424"/>
<path d="M1194.18 1200H841.194C840.662 1200 840.152 1199.79 839.776 1199.41C839.4 1199.04 839.188 1198.53 839.188 1197.99C839.188 1197.46 839.4 1196.95 839.776 1196.58C840.152 1196.2 840.662 1195.99 841.194 1195.99H1194.18C1194.72 1195.99 1195.23 1196.2 1195.6 1196.58C1195.98 1196.95 1196.19 1197.46 1196.19 1197.99C1196.19 1198.53 1195.98 1199.04 1195.6 1199.41C1195.23 1199.79 1194.72 1200 1194.18 1200Z" fill="#262424"/>
<path d="M568.42 983.944L560.618 1067.23L523.384 1068.71L528.488 977.727L568.42 983.944Z" fill="white"/>
<path d="M523.384 1070.72C523.111 1070.72 522.841 1070.66 522.59 1070.55C522.339 1070.45 522.113 1070.29 521.925 1070.09C521.737 1069.89 521.592 1069.66 521.498 1069.4C521.404 1069.15 521.363 1068.87 521.378 1068.6L526.482 977.616C526.499 977.338 526.573 977.065 526.701 976.817C526.828 976.569 527.006 976.35 527.223 976.174C527.441 975.998 527.692 975.87 527.961 975.797C528.231 975.725 528.513 975.709 528.789 975.751L568.761 981.969C569.264 982.048 569.719 982.316 570.032 982.718C570.345 983.121 570.493 983.627 570.446 984.135L562.634 1067.43C562.582 1067.9 562.362 1068.34 562.015 1068.67C561.668 1069 561.215 1069.19 560.738 1069.21L523.504 1070.7H523.424L523.384 1070.72ZM530.403 980.043L525.55 1066.62L558.823 1065.29L566.294 985.629L530.403 980.043Z" fill="#262424"/>
<path d="M637.834 835.789C626.152 909.155 602.856 1024.09 602.856 1024.09L519.623 1018.07L532.66 811.491L369.202 612.935C369.202 612.935 333.1 556.777 349.145 488.586C365.19 420.395 434.384 412.373 477.505 486.581C477.505 486.581 588.025 672.612 629.03 747.632C637.574 763.286 643.069 774.106 643.972 777.395C645.426 782.911 642.588 805.895 637.834 835.789Z" fill="#000A1D"/>
<path d="M637.834 835.789C627.197 835.138 617.138 830.723 609.459 823.333C601.78 815.943 596.981 806.062 595.922 795.457C594.863 784.852 597.612 774.217 603.678 765.454C609.744 756.692 618.731 750.374 629.03 747.632C637.573 763.286 643.069 774.106 643.971 777.395C645.426 782.911 642.588 805.895 637.834 835.789Z" fill="white"/>
<path d="M549.818 998.485H549.607C549.345 998.457 549.091 998.378 548.859 998.253C548.628 998.127 548.423 997.957 548.257 997.752C548.092 997.547 547.968 997.311 547.893 997.058C547.818 996.806 547.794 996.541 547.822 996.279L567.357 810.067L401.211 590.07C401.043 589.861 400.918 589.62 400.844 589.362C400.77 589.104 400.749 588.833 400.782 588.566C400.815 588.3 400.901 588.042 401.035 587.81C401.17 587.577 401.349 587.373 401.564 587.211C401.778 587.05 402.023 586.932 402.283 586.867C402.544 586.801 402.815 586.789 403.081 586.83C403.346 586.871 403.601 586.965 403.829 587.107C404.057 587.248 404.255 587.434 404.41 587.654L571.027 808.272C571.331 808.677 571.471 809.182 571.418 809.686L551.813 996.69C551.761 997.183 551.528 997.639 551.16 997.97C550.791 998.302 550.313 998.485 549.818 998.485Z" fill="#262424"/>
<path d="M388.195 598.524C387.739 598.524 387.297 598.369 386.941 598.083C386.585 597.798 386.337 597.4 386.238 596.955C386.139 596.51 386.194 596.045 386.395 595.635C386.596 595.226 386.93 594.897 387.342 594.703C394.853 591.174 403.548 586.591 405.323 584.956C405.323 578.548 405.323 522.973 405.323 522.391C405.323 521.859 405.534 521.349 405.91 520.973C406.286 520.597 406.796 520.385 407.328 520.385C407.86 520.385 408.37 520.597 408.747 520.973C409.123 521.349 409.334 521.859 409.334 522.391C409.334 524.888 409.334 583.562 409.334 585.568C409.334 586.791 409.334 588.837 389.047 598.364C388.778 598.479 388.487 598.534 388.195 598.524V598.524Z" fill="#262424"/>
<path d="M597.18 1002.36H597.01L527.485 996.67C527.222 996.648 526.965 996.575 526.73 996.454C526.495 996.333 526.286 996.167 526.115 995.965C525.945 995.764 525.815 995.531 525.734 995.279C525.654 995.027 525.623 994.762 525.645 994.499C525.667 994.235 525.74 993.979 525.861 993.744C525.982 993.509 526.148 993.3 526.349 993.129C526.551 992.958 526.784 992.829 527.036 992.748C527.288 992.667 527.553 992.637 527.816 992.659L597.341 998.345C597.873 998.366 598.375 998.598 598.736 998.989C599.097 999.38 599.288 999.899 599.266 1000.43C599.245 1000.96 599.013 1001.46 598.622 1001.83C598.231 1002.19 597.712 1002.38 597.18 1002.36Z" fill="#262424"/>
<path d="M691.625 1183.46V1197.99H512.122C512.122 1197.99 511.54 1190.41 510.979 1177.67C509.856 1152.6 508.572 1110.48 511.901 1063.82L569.202 1054.63C569.202 1054.63 618.34 1105.78 662.142 1145.64C666.685 1149.77 671.469 1153.8 676.503 1157.61C686.15 1164.94 691.625 1174.03 691.625 1183.46Z" fill="#000A1D"/>
<path d="M606.868 1146.05C606.598 1146.05 606.331 1145.99 606.083 1145.89C605.835 1145.78 605.611 1145.63 605.423 1145.44C566.545 1105.13 549.056 1071.68 548.885 1071.35C548.657 1070.88 548.622 1070.34 548.787 1069.84C548.952 1069.35 549.303 1068.94 549.767 1068.69C550.231 1068.45 550.77 1068.4 551.271 1068.56C551.771 1068.71 552.192 1069.05 552.445 1069.5C552.615 1069.84 569.874 1102.81 608.312 1142.65C608.585 1142.93 608.77 1143.29 608.841 1143.68C608.913 1144.06 608.869 1144.46 608.715 1144.83C608.561 1145.19 608.304 1145.5 607.975 1145.72C607.647 1145.93 607.261 1146.05 606.868 1146.05Z" fill="#262424"/>
<path d="M540.522 1149.23C549.328 1149.23 556.466 1141.29 556.466 1131.49C556.466 1121.69 549.328 1113.75 540.522 1113.75C531.716 1113.75 524.577 1121.69 524.577 1131.49C524.577 1141.29 531.716 1149.23 540.522 1149.23Z" fill="white"/>
<path d="M540.522 1151.24C530.624 1151.24 522.571 1142.39 522.571 1131.49C522.571 1120.59 530.594 1111.74 540.522 1111.74C550.449 1111.74 558.472 1120.6 558.472 1131.49C558.472 1142.38 550.409 1151.24 540.522 1151.24ZM540.522 1115.75C532.84 1115.75 526.583 1122.77 526.583 1131.49C526.583 1140.2 532.83 1147.23 540.522 1147.23C548.213 1147.23 554.461 1140.21 554.461 1131.49C554.461 1122.76 548.203 1115.75 540.522 1115.75V1115.75Z" fill="#262424"/>
<path d="M691.625 1183.46V1197.99H512.122C512.122 1197.99 511.54 1190.41 510.979 1177.67H605.754C605.754 1177.67 611.771 1135.45 662.142 1145.64C666.685 1149.77 671.468 1153.8 676.503 1157.61C686.15 1164.94 691.625 1174.03 691.625 1183.46Z" fill="white"/>
<path d="M691.625 1200H512.122C511.615 1200 511.127 1199.81 510.755 1199.47C510.382 1199.12 510.154 1198.65 510.116 1198.14C510.116 1198.06 509.525 1190.38 508.973 1177.75C508.961 1177.48 509.004 1177.21 509.099 1176.95C509.195 1176.7 509.34 1176.47 509.528 1176.27C509.715 1176.07 509.94 1175.92 510.19 1175.81C510.439 1175.71 510.708 1175.65 510.979 1175.65H604.1C605.103 1171.02 608.973 1158.15 620.977 1149.68C631.527 1142.24 645.516 1140.21 662.544 1143.66C662.899 1143.73 663.228 1143.9 663.496 1144.14C668.179 1148.41 672.963 1152.4 677.726 1156.01C688.005 1163.81 693.661 1173.56 693.661 1183.46V1197.99C693.661 1198.26 693.608 1198.52 693.505 1198.77C693.403 1199.01 693.252 1199.24 693.063 1199.42C692.873 1199.61 692.649 1199.76 692.402 1199.86C692.155 1199.95 691.891 1200 691.625 1200V1200ZM513.957 1195.99H689.619V1183.46C689.619 1174.84 684.525 1166.23 675.269 1159.21C670.556 1155.64 665.823 1151.69 661.23 1147.49C645.596 1144.42 632.86 1146.26 623.354 1152.94C610.207 1162.17 607.79 1177.8 607.76 1177.96C607.69 1178.44 607.448 1178.88 607.079 1179.19C606.71 1179.51 606.24 1179.68 605.754 1179.67H513.055C513.416 1187.54 513.777 1193.24 513.967 1195.99H513.957Z" fill="#262424"/>
<path d="M251.863 994.203L229.811 1074.9L191.052 1069.21L211.77 980.474L251.863 994.203Z" fill="white"/>
<path d="M229.811 1076.9H229.52L190.761 1071.22C190.487 1071.18 190.224 1071.08 189.989 1070.94C189.753 1070.79 189.551 1070.59 189.395 1070.37C189.238 1070.14 189.131 1069.88 189.08 1069.6C189.028 1069.33 189.034 1069.05 189.097 1068.78L209.815 980.033C209.878 979.759 209.998 979.502 210.168 979.278C210.337 979.053 210.551 978.867 210.797 978.731C211.043 978.595 211.315 978.512 211.595 978.487C211.875 978.463 212.156 978.498 212.422 978.589L252.535 992.318C253.017 992.483 253.418 992.826 253.657 993.277C253.895 993.728 253.953 994.253 253.818 994.744L231.756 1075.44C231.638 1075.86 231.383 1076.24 231.031 1076.5C230.68 1076.77 230.251 1076.91 229.811 1076.9ZM193.499 1067.55L228.347 1072.65L249.406 995.436L213.194 983.032L193.499 1067.55Z" fill="#262424"/>
<path d="M363.556 1183.46V1197.99H184.053C184.053 1197.99 183.471 1190.41 182.91 1177.67C181.786 1152.6 180.503 1110.48 183.832 1063.82L241.133 1054.63C241.133 1054.63 290.27 1105.78 334.073 1145.64C338.616 1149.77 343.399 1153.8 348.433 1157.61C358.08 1164.94 363.556 1174.03 363.556 1183.46Z" fill="#000A1D"/>
<path d="M278.768 1146.05C278.499 1146.05 278.232 1145.99 277.984 1145.89C277.736 1145.78 277.511 1145.63 277.324 1145.44C238.445 1105.13 220.956 1071.68 220.786 1071.35C220.558 1070.88 220.523 1070.34 220.688 1069.84C220.852 1069.35 221.204 1068.94 221.668 1068.69C222.132 1068.45 222.671 1068.4 223.171 1068.56C223.671 1068.71 224.093 1069.05 224.346 1069.5C224.516 1069.84 241.774 1102.81 280.212 1142.65C280.486 1142.93 280.67 1143.29 280.742 1143.68C280.814 1144.06 280.77 1144.46 280.616 1144.83C280.462 1145.19 280.205 1145.5 279.876 1145.72C279.547 1145.93 279.162 1146.05 278.768 1146.05Z" fill="#262424"/>
<path d="M212.452 1149.23C221.258 1149.23 228.397 1141.29 228.397 1131.49C228.397 1121.69 221.258 1113.75 212.452 1113.75C203.646 1113.75 196.508 1121.69 196.508 1131.49C196.508 1141.29 203.646 1149.23 212.452 1149.23Z" fill="white"/>
<path d="M212.452 1151.24C202.555 1151.24 194.502 1142.39 194.502 1131.49C194.502 1120.59 202.524 1111.74 212.452 1111.74C222.38 1111.74 230.403 1120.6 230.403 1131.49C230.403 1142.38 222.34 1151.24 212.452 1151.24ZM212.452 1115.75C204.771 1115.75 198.513 1122.77 198.513 1131.49C198.513 1140.2 204.761 1147.23 212.452 1147.23C220.144 1147.23 226.391 1140.21 226.391 1131.49C226.391 1122.76 220.134 1115.75 212.452 1115.75V1115.75Z" fill="#262424"/>
<path d="M363.556 1183.46V1197.99H184.053C184.053 1197.99 183.471 1190.41 182.909 1177.67H277.685C277.685 1177.67 283.702 1135.45 334.073 1145.64C338.616 1149.77 343.399 1153.8 348.433 1157.61C358.08 1164.94 363.556 1174.03 363.556 1183.46Z" fill="white"/>
<path d="M363.556 1200H184.053C183.546 1200 183.057 1199.81 182.685 1199.47C182.313 1199.12 182.085 1198.65 182.047 1198.14C182.047 1198.06 181.455 1190.38 180.904 1177.75C180.892 1177.48 180.935 1177.21 181.03 1176.95C181.125 1176.7 181.271 1176.47 181.458 1176.27C181.646 1176.07 181.871 1175.92 182.121 1175.81C182.37 1175.71 182.638 1175.65 182.91 1175.65H276.03C277.033 1171.02 280.904 1158.15 292.908 1149.68C303.457 1142.24 317.446 1140.21 334.474 1143.66C334.829 1143.73 335.159 1143.9 335.427 1144.14C340.11 1148.41 344.893 1152.4 349.647 1156.01C359.926 1163.81 365.581 1173.56 365.581 1183.46V1197.99C365.581 1198.26 365.529 1198.52 365.427 1198.77C365.325 1199.01 365.175 1199.23 364.987 1199.42C364.798 1199.61 364.575 1199.75 364.329 1199.85C364.084 1199.95 363.821 1200 363.556 1200V1200ZM185.888 1195.99H361.55V1183.46C361.55 1174.84 356.456 1166.23 347.2 1159.21C342.487 1155.64 337.753 1151.69 333.161 1147.49C317.507 1144.42 304.751 1146.26 295.244 1152.97C282.087 1162.24 279.721 1177.8 279.691 1177.95C279.623 1178.43 279.382 1178.87 279.013 1179.19C278.644 1179.51 278.172 1179.68 277.685 1179.67H184.985C185.346 1187.54 185.687 1193.24 185.898 1195.99H185.888Z" fill="#262424"/>
<path d="M388.195 492.096V603.909C388.195 603.909 362.332 812.113 358.321 830.835C354.31 849.558 264.578 1042.81 264.578 1042.81L181.676 1012.73L250.539 820.857C250.539 820.857 229.811 600.901 230.483 544.744C231.155 488.586 236.5 411.701 289.98 412.373C343.459 413.045 379.45 434.766 388.195 492.096Z" fill="#000A1D"/>
<path d="M388.195 605.915C387.663 605.915 387.153 605.704 386.777 605.327C386.4 604.951 386.189 604.441 386.189 603.909V509.314C386.189 508.782 386.4 508.272 386.777 507.896C387.153 507.52 387.663 507.309 388.195 507.309C388.727 507.309 389.237 507.52 389.613 507.896C389.989 508.272 390.2 508.782 390.2 509.314V603.909C390.2 604.441 389.989 604.951 389.613 605.327C389.237 605.704 388.727 605.915 388.195 605.915Z" fill="#262424"/>
<path d="M349.066 832.229C355.152 809.062 346.408 786.688 329.535 782.255C312.661 777.822 294.049 793.009 287.962 816.176C281.876 839.344 290.62 861.718 307.494 866.151C324.367 870.584 342.979 855.397 349.066 832.229Z" fill="white"/>
<path d="M212.883 1000.96C212.561 1000.96 212.244 1000.88 211.959 1000.74C211.673 1000.59 211.427 1000.37 211.242 1000.11C211.057 999.844 210.939 999.54 210.896 999.221C210.854 998.902 210.889 998.577 210.998 998.274L275.94 819.223L257.228 510.096C257.222 510.009 257.222 509.922 257.228 509.836C257.308 508.622 259.364 479.821 268.449 460.969C268.559 460.724 268.717 460.504 268.913 460.322C269.11 460.139 269.341 459.998 269.592 459.906C269.844 459.814 270.112 459.774 270.38 459.788C270.648 459.801 270.91 459.868 271.151 459.985C271.393 460.102 271.608 460.266 271.785 460.467C271.962 460.668 272.097 460.903 272.182 461.158C272.266 461.412 272.299 461.681 272.278 461.948C272.257 462.215 272.183 462.475 272.059 462.714C263.596 480.263 261.389 507.9 261.229 509.986L279.951 819.393C279.966 819.666 279.925 819.939 279.831 820.195L214.769 999.638C214.629 1000.03 214.372 1000.36 214.035 1000.6C213.698 1000.83 213.296 1000.96 212.883 1000.96Z" fill="#262424"/>
<path d="M260.136 527.014C259.661 527.015 259.201 526.848 258.838 526.542C258.475 526.236 258.232 525.812 258.153 525.344C258.073 524.876 258.163 524.394 258.405 523.986C258.646 523.578 259.026 523.268 259.474 523.113L269.502 519.643C272.579 518.563 275.33 516.718 277.497 514.281C279.663 511.844 281.174 508.896 281.887 505.714L287.974 477.796C288.031 477.538 288.137 477.295 288.288 477.078C288.439 476.862 288.631 476.678 288.853 476.536C289.075 476.394 289.323 476.297 289.583 476.251C289.842 476.205 290.108 476.21 290.366 476.267C290.623 476.323 290.867 476.43 291.083 476.581C291.299 476.732 291.484 476.924 291.626 477.146C291.768 477.368 291.865 477.616 291.911 477.875C291.957 478.135 291.952 478.401 291.895 478.658L285.748 506.576C284.885 510.428 283.056 513.996 280.433 516.945C277.81 519.894 274.48 522.127 270.756 523.434L260.728 526.903C260.537 526.97 260.338 527.007 260.136 527.014V527.014Z" fill="#262424"/>
<path d="M264.237 1019.07C264.008 1019.07 263.781 1019.03 263.566 1018.95L200.058 996.56C199.801 996.479 199.563 996.347 199.359 996.172C199.154 995.998 198.986 995.783 198.866 995.543C198.746 995.302 198.676 995.04 198.659 994.771C198.642 994.502 198.68 994.233 198.769 993.98C198.859 993.726 198.998 993.493 199.18 993.294C199.361 993.095 199.581 992.935 199.826 992.823C200.07 992.711 200.335 992.65 200.604 992.642C200.873 992.634 201.141 992.681 201.391 992.779L264.909 1015.17C265.359 1015.33 265.738 1015.64 265.98 1016.05C266.222 1016.46 266.311 1016.94 266.23 1017.41C266.149 1017.88 265.905 1018.3 265.54 1018.61C265.175 1018.91 264.713 1019.08 264.237 1019.07V1019.07Z" fill="#262424"/>
<path d="M645.977 257.188L654.22 215.19C654.886 211.787 656.266 208.565 658.27 205.735C660.273 202.905 662.854 200.533 665.843 198.774L725.49 163.676C726.777 162.921 728.3 162.677 729.758 162.992C731.217 163.308 732.503 164.161 733.362 165.381V165.381C734.223 166.612 734.586 168.124 734.378 169.613C734.169 171.101 733.405 172.455 732.239 173.403L701.463 198.323L709.736 211.279C712.58 215.731 714.14 220.881 714.244 226.163C714.348 231.444 712.993 236.652 710.327 241.213L704.14 251.843L674.056 272.902L645.977 257.188Z" fill="white"/>
<path d="M674.056 274.907C673.705 274.913 673.359 274.827 673.053 274.657L644.974 258.943C644.603 258.738 644.306 258.422 644.125 258.038C643.945 257.654 643.891 257.223 643.971 256.807L652.245 214.819C652.967 211.14 654.461 207.655 656.629 204.596C658.797 201.536 661.588 198.971 664.82 197.069L724.467 161.971C726.197 160.964 728.242 160.646 730.196 161.081C732.149 161.516 733.867 162.671 735.006 164.317C736.146 165.962 736.622 167.977 736.342 169.959C736.061 171.94 735.044 173.743 733.492 175.008L704.14 198.774L711.45 210.226C714.505 214.984 716.181 220.494 716.292 226.147C716.404 231.799 714.946 237.372 712.082 242.246L705.895 252.836C705.749 253.086 705.55 253.301 705.313 253.467L675.229 274.526C674.888 274.774 674.477 274.907 674.056 274.907V274.907ZM648.223 256.155L673.935 270.545L702.626 250.489L708.643 240.27C711.132 236.032 712.398 231.188 712.301 226.273C712.204 221.359 710.746 216.568 708.091 212.432L699.818 199.476C699.553 199.06 699.451 198.562 699.53 198.075C699.61 197.589 699.866 197.149 700.249 196.839L731.025 171.919C731.79 171.291 732.29 170.398 732.427 169.418C732.564 168.439 732.327 167.443 731.764 166.63C731.2 165.816 730.352 165.245 729.386 165.028C728.421 164.812 727.41 164.966 726.553 165.461L666.906 200.559C664.166 202.172 661.8 204.346 659.961 206.938C658.122 209.531 656.852 212.483 656.236 215.601L648.223 256.155Z" fill="#262424"/>
<path d="M693.741 201.632L681.346 215.822C679.514 217.925 678.571 220.658 678.715 223.444C678.859 226.229 680.079 228.85 682.118 230.754L701.703 249.005C703.755 250.927 706.478 251.97 709.29 251.91C712.101 251.85 714.777 250.692 716.745 248.684L728.96 236.289C730.934 234.288 732.047 231.594 732.06 228.782C732.073 225.971 730.985 223.267 729.03 221.247L709.625 201.191C708.587 200.115 707.336 199.268 705.951 198.703C704.567 198.138 703.08 197.867 701.586 197.909C700.091 197.95 698.622 198.303 697.271 198.944C695.92 199.585 694.718 200.501 693.741 201.632V201.632Z" fill="white"/>
<path d="M709.044 253.929C705.809 253.927 702.697 252.693 700.339 250.479L680.754 232.228C678.319 229.978 676.86 226.866 676.688 223.556C676.515 220.245 677.644 216.998 679.832 214.508L692.227 200.288C693.389 198.957 694.814 197.882 696.414 197.13C698.013 196.378 699.751 195.967 701.517 195.921C703.284 195.876 705.04 196.198 706.676 196.867C708.312 197.536 709.791 198.537 711.019 199.807L730.424 219.863C732.758 222.248 734.059 225.457 734.044 228.795C734.029 232.132 732.7 235.329 730.343 237.693L718.129 250.118C716.944 251.325 715.53 252.284 713.97 252.938C712.41 253.593 710.735 253.929 709.044 253.929V253.929ZM701.864 199.927H701.623C700.41 199.954 699.216 200.236 698.119 200.755C697.022 201.273 696.046 202.016 695.255 202.936V202.936L682.86 217.156C681.359 218.864 680.585 221.091 680.703 223.361C680.821 225.632 681.822 227.767 683.492 229.31L703.077 247.561C704.738 249.124 706.947 249.972 709.227 249.923C711.508 249.875 713.678 248.933 715.271 247.3L727.485 234.875C729.102 233.256 730.015 231.064 730.026 228.776C730.038 226.487 729.146 224.287 727.546 222.651L708.141 202.595C707.327 201.751 706.35 201.081 705.269 200.625C704.188 200.17 703.026 199.94 701.853 199.948L701.864 199.927Z" fill="#262424"/>
<path d="M646.729 253.427L652.445 205.894C652.616 204.472 653.132 203.114 653.948 201.938C654.765 200.761 655.856 199.803 657.128 199.145L669.563 192.757C671.114 191.954 672.869 191.632 674.603 191.832C676.338 192.033 677.973 192.746 679.3 193.88L695.175 207.468C695.872 208.065 696.428 208.808 696.805 209.643C697.183 210.479 697.371 211.388 697.358 212.305C697.345 213.222 697.129 214.125 696.728 214.949C696.326 215.774 695.748 216.499 695.035 217.075V217.075C694.091 217.835 692.947 218.304 691.741 218.425C690.536 218.546 689.322 218.314 688.246 217.757L677.325 212.101L680.985 239.127C681.207 240.765 680.77 242.423 679.772 243.74L662.283 266.755L646.729 253.427Z" fill="white"/>
<path d="M662.273 268.72C661.795 268.72 661.332 268.549 660.969 268.239L645.426 254.931C645.174 254.717 644.979 254.444 644.858 254.136C644.737 253.828 644.694 253.495 644.734 253.167L650.45 205.633C650.659 203.889 651.292 202.222 652.294 200.778C653.295 199.334 654.635 198.157 656.196 197.35L668.641 190.912C670.545 189.921 672.702 189.523 674.835 189.769C676.967 190.016 678.977 190.896 680.604 192.296L696.479 205.884C698.012 207.202 699.009 209.036 699.279 211.04C699.55 213.043 699.076 215.077 697.947 216.754C696.817 218.431 695.112 219.635 693.154 220.138C691.195 220.641 689.12 220.408 687.323 219.482L679.822 215.601L682.971 238.796C683.119 239.868 683.054 240.959 682.778 242.005C682.503 243.052 682.023 244.033 681.366 244.893L663.867 267.968C663.702 268.186 663.494 268.368 663.256 268.502C663.018 268.637 662.755 268.721 662.483 268.75H662.273V268.72ZM648.845 252.605L661.962 263.816L678.167 242.497C678.504 242.055 678.75 241.551 678.891 241.014C679.032 240.477 679.065 239.918 678.99 239.368L675.329 212.342C675.289 211.982 675.348 211.618 675.498 211.288C675.649 210.959 675.886 210.676 676.184 210.47C676.482 210.265 676.831 210.144 677.192 210.12C677.554 210.096 677.915 210.171 678.237 210.337L689.158 215.992C690.087 216.501 691.173 216.643 692.202 216.391C693.231 216.139 694.128 215.512 694.718 214.632C695.307 213.752 695.546 212.683 695.388 211.636C695.229 210.589 694.685 209.639 693.861 208.973L677.987 195.365C676.966 194.485 675.704 193.931 674.365 193.776C673.026 193.62 671.671 193.87 670.476 194.492L658.011 200.93C657.03 201.437 656.188 202.176 655.558 203.083C654.929 203.991 654.532 205.038 654.401 206.135L648.845 252.605Z" fill="#262424"/>
<path d="M689.77 271.979C689.77 271.979 663.025 353.769 633.051 399.336C619.834 419.392 605.975 432.489 593.5 428.418C583.472 425.149 571.9 416.715 559.685 405.102C521.98 369.252 478.638 303.157 460.407 265.291C436.34 215.15 496.508 145.625 531.276 179.721C558.943 206.867 603.478 308.752 603.478 308.752L641.585 245.906L689.77 271.979Z" fill="#FF1B46"/>
<path d="M675.058 282.679C674.737 282.678 674.42 282.598 674.136 282.449L641.374 265.401C640.902 265.155 640.547 264.731 640.387 264.224C640.227 263.716 640.276 263.165 640.522 262.693C640.768 262.221 641.191 261.866 641.699 261.706C642.207 261.547 642.757 261.595 643.229 261.841L675.991 278.889C676.393 279.095 676.714 279.43 676.901 279.841C677.089 280.252 677.132 280.714 677.024 281.153C676.916 281.592 676.663 281.981 676.307 282.258C675.95 282.535 675.51 282.684 675.058 282.679V282.679Z" fill="#262424"/>
<path d="M601.853 372.762H601.783C601.253 372.743 600.752 372.516 600.389 372.129C600.026 371.741 599.832 371.226 599.848 370.696L601.523 318.72C601.54 318.188 601.768 317.685 602.156 317.321C602.544 316.957 603.061 316.763 603.593 316.78C604.125 316.797 604.629 317.025 604.992 317.413C605.356 317.802 605.551 318.319 605.534 318.851L603.859 370.816C603.843 371.338 603.625 371.833 603.251 372.196C602.876 372.559 602.375 372.762 601.853 372.762V372.762Z" fill="#262424"/>
<path d="M633.051 399.336C619.834 419.392 605.975 432.489 593.5 428.418C583.472 425.149 571.9 416.715 559.685 405.102C563.307 398.829 568.401 393.531 574.528 389.666C580.654 385.801 587.629 383.485 594.851 382.917C602.073 382.349 609.324 383.548 615.979 386.408C622.634 389.269 628.493 393.706 633.051 399.336Z" fill="white"/>
<path d="M526.643 261.951C511.27 306.075 473.825 400.339 499.898 497.28C499.898 497.28 461.791 522.682 394.944 522.682C355.694 522.682 310.999 518.189 276.091 508.121C273.935 489.288 269.021 458.502 260.136 458.502C251.462 458.502 250.569 483.131 250.89 499.015C238.235 493.259 228.277 486.36 222.29 478.227C222.29 478.227 221.618 284.685 304.52 151.311C304.52 151.311 394.272 128.246 456.446 133.642C456.446 133.642 495.225 147.009 531.326 179.771C531.326 179.721 542.016 217.827 526.643 261.951Z" fill="#FF1B46"/>
<path d="M506.757 324.125C506.447 324.126 506.141 324.055 505.863 323.917C505.585 323.78 505.343 323.58 505.156 323.333C504.968 323.086 504.84 322.799 504.782 322.495C504.725 322.191 504.738 321.877 504.822 321.578C510.497 301.462 516.675 284.053 521.629 270.074C522.742 266.945 523.785 263.997 524.737 261.239C532.639 238.168 534.865 213.532 531.226 189.418C531.185 189.155 531.197 188.886 531.261 188.627C531.325 188.368 531.439 188.125 531.597 187.91C531.755 187.696 531.953 187.514 532.181 187.376C532.409 187.238 532.662 187.147 532.925 187.106C533.189 187.066 533.457 187.078 533.716 187.142C533.975 187.206 534.218 187.32 534.433 187.478C534.648 187.635 534.829 187.834 534.967 188.062C535.105 188.29 535.197 188.543 535.237 188.806C538.972 213.57 536.685 238.87 528.568 262.563C527.605 265.324 526.566 268.276 525.449 271.418C520.516 285.347 514.418 302.675 508.722 322.671C508.601 323.096 508.342 323.47 507.987 323.732C507.631 323.995 507.199 324.134 506.757 324.125V324.125Z" fill="#262424"/>
<path d="M385.246 503.127C374.105 503.127 363.606 502.696 354.159 502.054C330.723 500.528 307.423 497.352 284.434 492.547C284.177 492.489 283.934 492.38 283.72 492.228C283.505 492.075 283.322 491.882 283.182 491.659C283.042 491.436 282.947 491.188 282.903 490.928C282.859 490.668 282.866 490.402 282.925 490.146C282.983 489.889 283.092 489.646 283.244 489.431C283.397 489.216 283.59 489.034 283.813 488.894C284.036 488.753 284.285 488.659 284.544 488.614C284.804 488.57 285.07 488.578 285.326 488.636C286.5 488.907 403.728 515.191 485.327 483.211C485.574 483.101 485.842 483.043 486.112 483.039C486.383 483.036 486.651 483.087 486.902 483.189C487.152 483.292 487.379 483.445 487.569 483.638C487.759 483.831 487.908 484.06 488.007 484.312C488.106 484.564 488.153 484.833 488.145 485.104C488.137 485.374 488.074 485.641 487.96 485.886C487.847 486.132 487.685 486.352 487.484 486.534C487.283 486.715 487.047 486.854 486.791 486.942C454.711 499.537 417.336 503.127 385.246 503.127Z" fill="#262424"/>
<path d="M395.174 141.062C395.646 164.508 416.835 184.985 431.275 191.734C439.649 178.557 456.817 160.647 456.817 160.647C460.317 174.807 458.642 190.962 456.998 197.972C476.502 189.157 481.817 175.409 481.817 175.409C488.736 149.336 475.018 122.069 456.486 115.24C415.531 100.218 395.174 141.062 395.174 141.062Z" fill="white"/>
<path d="M457.018 199.947C456.715 199.948 456.416 199.88 456.143 199.748C455.87 199.617 455.631 199.425 455.442 199.188C455.254 198.95 455.122 198.673 455.056 198.378C454.991 198.082 454.993 197.775 455.062 197.48C457.253 186.711 457.46 175.632 455.674 164.789C450.57 170.324 439.228 183 432.99 192.807C432.729 193.218 432.328 193.519 431.861 193.655C431.395 193.792 430.894 193.754 430.453 193.549C415.271 186.47 393.66 165.471 393.169 141.102C393.163 140.779 393.235 140.459 393.379 140.17C393.59 139.749 415.02 97.9014 457.168 113.385C475.78 120.224 491.264 147.591 483.743 175.93C483.723 176.001 483.7 176.072 483.672 176.141C483.452 176.712 477.846 190.752 457.85 199.777C457.588 199.892 457.304 199.951 457.018 199.947V199.947ZM456.837 158.612C457.285 158.612 457.72 158.762 458.073 159.038C458.425 159.315 458.675 159.701 458.783 160.136C461.891 172.711 461.019 186.349 459.785 194.382C474.707 186.47 479.501 175.84 479.942 174.777C486.641 149.315 472.762 123.363 455.874 117.145C439.649 111.189 424.858 113.485 411.921 123.994C406.002 128.891 401.035 134.837 397.27 141.534C397.992 162.944 417.006 182.047 430.674 189.147C439.318 176.161 454.791 159.935 455.473 159.223C455.833 158.845 456.326 158.622 456.847 158.601L456.837 158.612Z" fill="#262424"/>
<path d="M453.117 55.7231L443.68 80.7934L427.535 123.734C437.774 139.608 451.241 146.267 468.74 141.614L474.757 121.076L483.933 89.9892L453.117 55.7231Z" fill="white"/>
<path d="M458.341 145.084C445.465 145.084 434.575 138.315 425.86 124.867C425.691 124.604 425.585 124.304 425.552 123.992C425.519 123.68 425.559 123.365 425.67 123.072L451.241 55.0214C451.363 54.699 451.566 54.4135 451.829 54.1922C452.093 53.9708 452.41 53.8212 452.748 53.7577C453.087 53.6943 453.436 53.719 453.762 53.8297C454.089 53.9404 454.381 54.1332 454.611 54.3896L485.467 88.6757C485.696 88.9302 485.855 89.2388 485.931 89.5723C486.006 89.9058 485.995 90.253 485.899 90.581L470.666 142.216C470.568 142.547 470.387 142.848 470.139 143.088C469.892 143.329 469.586 143.502 469.252 143.59C465.695 144.556 462.027 145.059 458.341 145.084ZM429.781 123.563C439.629 138.275 451.843 143.67 467.146 140.02L481.737 90.5609L453.839 59.5641L429.781 123.563Z" fill="#262424"/>
<path d="M179.079 576.653C177.207 572.227 175.178 567.738 172.992 563.185C164.895 546.488 155.553 530.424 145.043 515.131C134.606 499.788 123.027 485.253 110.406 471.649C106.963 467.958 103.514 464.439 100.057 461.089L55.4523 395.906L14.1466 424.146C8.53085 427.986 4.93076 434.264 3.20593 442.457C-3.01149 471.899 15.1394 525.971 51.4912 579.14C87.8431 632.309 131.646 668.841 161.349 673.725C169.612 675.089 176.772 674.006 182.408 670.165L223.714 641.926L179.079 576.653Z" fill="white"/>
<path d="M167.897 676.252C165.589 676.243 163.285 676.045 161.008 675.661C130.061 670.566 85.3762 632.219 49.8266 580.233C14.277 528.247 -5.2477 472.692 1.23045 441.996C3.1057 433.081 7.06681 426.502 13.0034 422.441L54.3192 394.202C54.7581 393.901 55.2983 393.787 55.8211 393.885C56.3439 393.983 56.8065 394.285 57.107 394.723L101.602 459.786C105.051 463.145 108.501 466.675 111.87 470.275C124.563 483.949 136.205 498.561 146.698 513.988C157.259 529.364 166.646 545.515 174.777 562.303C176.913 566.745 178.948 571.238 180.794 575.68L225.288 640.743C225.589 641.182 225.703 641.722 225.605 642.245C225.507 642.767 225.206 643.23 224.767 643.531L183.461 671.77C178.852 674.817 173.421 676.381 167.897 676.252ZM54.9209 398.644L15.2698 425.72C10.2557 429.18 6.81611 434.916 5.15144 442.768C-1.12615 472.451 18.188 526.763 53.1359 577.907C88.0838 629.05 131.726 666.776 161.62 671.699C169.552 673.013 176.141 671.92 181.195 668.47L220.846 641.395L177.374 577.816C177.299 577.706 177.235 577.588 177.183 577.465C175.308 573.033 173.273 568.53 171.167 564.088C163.116 547.48 153.824 531.503 143.369 516.294C132.99 501.034 121.476 486.58 108.922 473.053C105.553 469.443 102.093 465.913 98.6434 462.563C98.5462 462.469 98.4589 462.365 98.3827 462.253L54.9209 398.644Z" fill="#262424"/>
<path d="M223.684 641.886C218.068 645.726 210.908 646.809 202.625 645.446C172.932 640.562 129.129 604.03 92.7669 550.861C56.405 497.692 38.2742 443.62 44.5016 414.168C46.2265 405.975 49.8366 399.687 55.4423 395.856C61.048 392.026 68.2181 390.932 76.5013 392.296C76.9726 392.377 77.4439 392.457 77.9353 392.557C98.4227 396.568 125.278 415.07 151.722 443.41C164.343 457.013 175.922 471.548 186.359 486.891C196.869 502.185 206.211 518.249 214.307 534.946C231.115 569.864 238.636 601.613 234.925 622.19C234.845 622.682 234.745 623.193 234.644 623.614C232.9 631.767 229.289 638.005 223.684 641.886Z" fill="white"/>
<path d="M209.203 648.033C206.898 648.024 204.597 647.826 202.324 647.441C171.377 642.347 126.692 604 91.1423 552.004C55.5927 500.008 36.048 444.463 42.5361 413.757C44.4114 404.842 48.3725 398.263 54.3091 394.202C60.2458 390.14 67.817 388.837 76.8022 390.321C77.3036 390.401 77.805 390.491 78.3164 390.592C99.1448 394.603 126.451 413.406 153.156 442.036C165.849 455.71 177.491 470.322 187.984 485.748C198.545 501.124 207.932 517.275 216.062 534.064C233.05 569.353 240.631 601.583 236.851 622.492C236.77 622.973 236.67 623.494 236.57 623.946C234.685 632.891 230.723 639.479 224.787 643.53C220.174 646.589 214.736 648.16 209.203 648.033ZM69.9429 393.741C65.2064 393.601 60.5408 394.917 56.5755 397.511C51.5614 400.971 48.1218 406.707 46.4571 414.559C40.1896 444.272 59.4736 498.614 94.4316 549.758C129.39 600.901 173.022 638.577 202.956 643.5C210.888 644.814 217.476 643.721 222.531 640.271C227.545 636.812 230.984 631.076 232.649 623.224C232.749 622.762 232.839 622.331 232.91 621.88C236.55 601.753 229.089 570.416 212.462 535.869C204.421 519.241 195.135 503.244 184.684 488.015C174.306 472.755 162.791 458.3 150.238 444.774C124.075 416.695 97.5804 398.434 77.5342 394.523C77.0428 394.422 76.6016 394.352 76.1604 394.272C74.1059 393.925 72.0265 393.747 69.9429 393.741V393.741Z" fill="#262424"/>
<path d="M218.85 537.152C217.253 533.368 215.518 529.528 213.646 525.63C206.724 511.344 198.736 497.6 189.749 484.515C180.825 471.398 170.926 458.971 160.136 447.341C157.188 444.185 154.239 441.177 151.291 438.315L113.184 382.539L77.8753 406.687C73.0819 409.966 69.9932 415.341 68.5191 422.341C63.1942 447.521 78.7177 493.751 109.805 539.208C140.892 584.665 178.307 615.943 203.738 620.115C210.758 621.278 216.925 620.355 221.728 617.106L256.997 592.878L218.85 537.152Z" fill="white"/>
<path d="M209.303 622.612C207.314 622.603 205.328 622.432 203.367 622.1C176.832 617.738 138.545 584.896 108.1 540.381C77.6545 495.867 60.9678 448.283 66.5033 421.97C68.1278 414.268 71.5173 408.582 76.6918 405.072L112.001 380.925C112.44 380.624 112.98 380.51 113.503 380.608C114.025 380.706 114.488 381.007 114.789 381.446L152.815 437.052C155.763 439.92 158.712 442.938 161.58 446.017C172.441 457.721 182.404 470.228 191.383 483.432C200.434 496.589 208.48 510.41 215.451 524.778C217.276 528.568 219.021 532.409 220.615 536.2L258.642 591.805C258.942 592.244 259.056 592.784 258.958 593.307C258.86 593.83 258.559 594.293 258.12 594.593L222.791 618.731C218.798 621.374 214.09 622.728 209.303 622.612V622.612ZM112.623 385.357L78.9682 408.422C74.7063 411.33 71.8382 416.183 70.4443 422.842C65.0993 448.153 81.5655 494.493 111.429 538.165C141.293 581.837 178.507 613.988 204.029 618.189C210.737 619.302 216.303 618.38 220.555 615.472L254.209 592.407L217.206 538.255C217.131 538.145 217.067 538.027 217.015 537.904C215.411 534.124 213.676 530.273 211.851 526.472C204.969 512.296 197.027 498.66 188.094 485.678C179.226 472.644 169.388 460.298 158.662 448.745C155.783 445.666 152.835 442.647 149.887 439.779C149.775 439.681 149.674 439.57 149.586 439.448L112.623 385.357Z" fill="#262424"/>
<path d="M256.997 592.878C252.204 596.158 246.076 597.09 239.007 595.887C213.615 591.715 176.161 560.478 145.073 515.01C113.986 469.543 98.4427 423.404 103.788 398.233C105.262 391.213 108.351 385.858 113.144 382.579C117.937 379.3 124.065 378.367 131.134 379.571C131.535 379.641 131.937 379.701 132.358 379.791C149.877 383.201 172.841 399.045 195.445 423.263C217 446.59 235.03 472.941 248.965 501.482C263.335 531.336 269.763 558.482 266.594 576.041C266.524 576.462 266.443 576.864 266.353 577.265C264.909 584.274 261.79 589.649 256.997 592.878Z" fill="white"/>
<path d="M244.613 598.464C242.623 598.456 240.637 598.285 238.676 597.953C212.142 593.59 173.854 560.748 143.409 516.234C112.964 471.719 96.2768 424.136 101.812 397.822C103.437 390.12 106.826 384.434 112.001 380.924C117.175 377.415 123.684 376.281 131.445 377.565C131.877 377.635 132.308 377.705 132.749 377.806C150.609 381.285 174.005 397.35 196.929 421.879C218.617 445.362 236.756 471.89 250.77 500.62C265.321 530.845 271.829 558.472 268.57 576.412C268.499 576.833 268.409 577.265 268.319 577.686C266.694 585.387 263.305 591.073 258.13 594.583C254.129 597.232 249.41 598.587 244.613 598.464V598.464ZM125.519 381.055C121.529 380.935 117.599 382.041 114.257 384.224C109.995 387.132 107.127 391.985 105.733 398.644C100.388 423.955 116.855 470.295 146.718 513.967C176.582 557.64 213.796 589.79 239.318 593.991C246.026 595.105 251.592 594.182 255.844 591.274C260.106 588.366 262.974 583.512 264.368 576.853C264.448 576.482 264.528 576.111 264.588 575.72C267.687 558.572 261.319 531.837 247.13 502.355C233.295 473.985 215.39 447.789 193.981 424.597C171.658 400.68 149.055 385.046 131.977 381.717C131.566 381.626 131.185 381.566 130.814 381.506C129.064 381.211 127.293 381.06 125.519 381.055V381.055Z" fill="#262424"/>
<path d="M245.615 570.355L457.318 387.904C460.006 386.069 461.731 383.07 462.553 379.149C462.553 378.929 462.643 378.698 462.683 378.468C464.458 368.65 460.858 353.467 452.826 336.771C445.035 320.813 434.953 306.08 422.902 293.038C410.256 279.49 397.421 270.635 387.623 268.73L386.941 268.61C382.99 267.958 379.571 268.479 376.913 270.314L130.051 401.342C128.993 401.757 127.984 402.288 127.043 402.926C123.172 405.574 120.685 409.946 119.502 415.551C115.21 435.848 127.725 473.133 152.795 509.816C177.865 546.498 208.06 571.659 228.527 574.998C234.223 575.941 239.157 575.189 243.028 572.551C243.969 571.917 244.837 571.181 245.615 570.355V570.355Z" fill="white"/>
<path d="M233.08 577.405C231.454 577.398 229.83 577.257 228.227 576.984C206.736 573.444 175.76 546.9 151.161 510.929C126.562 474.958 113.054 436.46 117.566 415.151C118.89 408.843 121.708 404.18 125.94 401.282C126.961 400.586 128.054 400.001 129.199 399.537L375.84 268.55C378.849 266.544 382.74 265.842 387.262 266.544L388.034 266.685C398.193 268.69 411.44 277.715 424.366 291.594C436.559 304.794 446.755 319.707 454.631 335.858C462.844 352.906 466.504 368.57 464.659 378.779C464.659 378.999 464.569 379.24 464.519 379.481C463.566 384.003 461.51 387.343 458.502 389.449L246.999 571.82C246.152 572.719 245.21 573.526 244.191 574.226C240.9 576.399 237.022 577.508 233.08 577.405V577.405ZM383.813 270.305C381.756 270.238 379.729 270.805 378.006 271.929L377.816 272.05L130.994 403.137L130.794 403.227C129.884 403.589 129.016 404.05 128.206 404.601C124.857 406.887 122.601 410.718 121.487 415.983C117.195 436.29 130.453 473.544 154.47 508.673C178.487 543.801 208.391 569.664 228.878 573.033C234.183 573.915 238.576 573.193 241.915 570.907C242.721 570.351 243.465 569.709 244.131 568.992L244.292 568.841L456.005 386.38L456.185 386.24C458.371 384.745 459.856 382.228 460.588 378.729C460.588 378.518 460.668 378.327 460.708 378.127C462.413 368.7 458.883 353.959 451.021 337.633C443.32 321.849 433.354 307.274 421.438 294.372C409.073 281.125 396.618 272.491 387.242 270.656L386.61 270.545C385.686 270.389 384.75 270.308 383.813 270.305V270.305Z" fill="#262424"/>
<path d="M522.571 389.418C518.45 392.236 513.195 393.028 507.138 392.026C485.347 388.436 453.207 361.63 426.532 322.621C399.857 283.612 386.55 243.901 391.103 222.34C392.376 216.323 395.014 211.72 399.125 208.913C403.237 206.105 408.502 205.302 414.559 206.305C430.674 208.943 452.435 224.286 473.494 247.912C489.13 265.561 502.491 285.101 513.265 306.075C527.605 334.224 534.013 360.066 530.634 376.041C529.34 381.987 526.693 386.6 522.571 389.418Z" fill="white"/>
<path d="M511.942 394.453C510.224 394.445 508.51 394.297 506.817 394.011C483.963 390.251 451.041 362.012 424.888 323.764C398.734 285.517 384.364 244.542 389.147 221.929C390.561 215.25 393.54 210.307 398.012 207.258C402.485 204.209 408.161 203.247 414.9 204.32C431.596 207.067 453.488 222.451 474.968 246.538C490.712 264.299 504.167 283.964 515.02 305.072C529.671 333.823 536.079 359.805 532.569 376.362C531.155 383.041 528.177 387.984 523.704 391.033C520.227 393.352 516.12 394.546 511.942 394.453V394.453ZM409.785 207.93C406.414 207.828 403.092 208.763 400.269 210.607C396.678 213.064 394.252 217.166 393.068 222.802C388.496 244.452 402.615 284.133 428.167 321.538C453.718 358.943 485.608 386.49 507.439 390.09C513.125 391.023 517.828 390.251 521.408 387.804C524.988 385.357 527.425 381.246 528.608 375.61C531.867 360.166 525.439 334.495 511.41 306.977C500.715 286.159 487.451 266.764 471.929 249.246C451.362 226.181 429.811 210.888 414.208 208.321C412.748 208.058 411.269 207.914 409.785 207.89V207.93Z" fill="#262424"/>
<path d="M499.336 355.433C496.769 357.188 493.49 357.689 489.709 357.058C476.121 354.821 456.085 338.114 439.458 313.786C422.832 289.458 414.519 264.729 417.397 251.261C418.189 247.511 419.833 244.643 422.411 242.888C424.988 241.133 428.257 240.631 432.038 241.263L432.689 241.383C442.066 243.209 454.35 251.682 466.444 264.639C477.977 277.125 487.622 291.23 495.074 306.506C502.766 322.481 506.205 337.001 504.511 346.398C504.511 346.618 504.43 346.839 504.38 347.05C503.578 350.81 501.903 353.678 499.336 355.433Z" fill="white"/>
<path d="M492.718 359.324C491.602 359.318 490.488 359.221 489.388 359.033C474.727 356.626 454.48 339.308 437.804 314.91C421.127 290.511 412.332 265.371 415.411 250.84C416.333 246.478 418.289 243.239 421.247 241.223C424.206 239.207 427.926 238.546 432.328 239.278L433.06 239.408C442.798 241.303 455.493 249.998 467.868 263.265C479.539 275.9 489.299 290.174 496.839 305.634C504.711 321.979 508.201 336.961 506.436 346.749C506.436 346.969 506.346 347.22 506.296 347.461C505.373 351.823 503.418 355.062 500.459 357.078C498.17 358.602 495.467 359.386 492.718 359.324V359.324ZM429.009 242.998C427.06 242.935 425.139 243.471 423.504 244.532C421.428 245.946 420.024 248.353 419.332 251.662C416.524 264.97 425.279 289.478 441.113 312.643C456.947 335.808 476.612 352.856 490.03 355.062C493.379 355.614 496.127 355.172 498.193 353.758C500.269 352.344 501.673 349.938 502.365 346.628C502.365 346.438 502.445 346.257 502.475 346.057C504.099 337.032 500.72 322.992 493.219 307.368C485.854 292.275 476.324 278.34 464.93 266.002C453.117 253.347 441.213 245.084 432.258 243.339L431.656 243.229C430.784 243.087 429.902 243.017 429.019 243.018L429.009 242.998Z" fill="#262424"/>
<path d="M447.13 184.093L414.599 206.335L436.68 238.636L449.737 229.701L465.15 219.161L447.13 184.093Z" fill="white"/>
<path d="M436.681 240.641C436.355 240.641 436.034 240.562 435.745 240.41C435.457 240.258 435.21 240.038 435.026 239.769L412.964 207.468C412.664 207.03 412.55 206.489 412.647 205.966C412.745 205.444 413.047 204.981 413.486 204.681L446.017 182.438C446.252 182.277 446.519 182.168 446.799 182.119C447.08 182.069 447.367 182.08 447.643 182.15C447.92 182.22 448.178 182.348 448.4 182.526C448.623 182.704 448.805 182.927 448.935 183.18L466.985 218.279C467.207 218.713 467.264 219.213 467.144 219.685C467.024 220.158 466.736 220.57 466.334 220.846L437.814 240.29C437.48 240.519 437.085 240.641 436.681 240.641ZM417.336 206.857L437.202 235.878L462.553 218.539L446.418 187.031L417.336 206.857Z" fill="#262424"/>
<path d="M498.895 242.427L466.404 264.649C454.31 251.692 442.026 243.219 432.649 241.394L465.14 219.181C474.497 221.007 486.811 229.47 498.895 242.427Z" fill="white"/>
<path d="M466.404 266.654C466.129 266.653 465.857 266.596 465.605 266.486C465.353 266.375 465.127 266.214 464.94 266.012C453.127 253.357 441.223 245.094 432.268 243.349C431.881 243.273 431.524 243.085 431.244 242.807C430.963 242.53 430.77 242.175 430.69 241.789C430.61 241.402 430.645 241 430.792 240.634C430.939 240.268 431.191 239.953 431.516 239.729L464.007 217.517C464.226 217.367 464.473 217.263 464.733 217.209C464.993 217.156 465.261 217.155 465.521 217.206C475.299 219.121 487.994 227.815 500.359 241.063C500.554 241.273 500.701 241.523 500.79 241.796C500.88 242.068 500.91 242.357 500.879 242.642C500.847 242.927 500.755 243.202 500.609 243.449C500.462 243.695 500.264 243.908 500.028 244.071L467.537 266.293C467.205 266.525 466.809 266.651 466.404 266.654V266.654ZM437.322 240.581C446.027 243.7 456.426 251.261 466.685 261.981L495.816 242.055C484.896 230.734 474.005 223.253 465.552 221.267L437.322 240.581Z" fill="#262424"/>
<path d="M465.14 219.171L447.09 184.073C463.075 186.74 484.525 201.783 505.343 224.968L498.895 242.427C486.811 229.47 474.497 221.006 465.14 219.171Z" fill="white"/>
<path d="M498.895 244.432C498.62 244.431 498.348 244.374 498.096 244.263C497.844 244.153 497.618 243.992 497.431 243.79C485.628 231.145 473.724 222.892 464.749 221.137C464.426 221.073 464.123 220.931 463.868 220.723C463.613 220.515 463.412 220.247 463.285 219.943L445.335 185.005C445.164 184.674 445.088 184.302 445.117 183.931C445.146 183.559 445.277 183.203 445.497 182.902C445.717 182.601 446.016 182.368 446.361 182.227C446.706 182.087 447.083 182.045 447.451 182.107C463.957 184.855 485.558 199.987 506.837 223.624C507.076 223.892 507.238 224.22 507.307 224.573C507.376 224.926 507.349 225.291 507.228 225.629L500.78 243.088C500.662 243.41 500.464 243.695 500.204 243.918C499.944 244.141 499.632 244.294 499.296 244.362C499.165 244.399 499.031 244.422 498.895 244.432ZM466.474 217.416C475.499 219.552 486.861 227.214 498.103 238.716L503.016 225.409C484.675 205.202 465.592 191.203 450.87 187.001L466.474 217.416Z" fill="#262424"/>
<path d="M459.174 269.592L426.683 291.815L408.061 291.484L440.562 269.271L459.174 269.592Z" fill="white"/>
<path d="M426.672 293.82L408.06 293.499C407.635 293.491 407.224 293.348 406.886 293.091C406.548 292.833 406.3 292.475 406.178 292.068C406.057 291.661 406.068 291.226 406.209 290.825C406.351 290.424 406.617 290.079 406.967 289.839L439.398 267.617C439.735 267.371 440.145 267.247 440.561 267.266L459.174 267.597C459.598 267.605 460.01 267.749 460.348 268.006C460.686 268.263 460.934 268.621 461.055 269.028C461.177 269.435 461.166 269.871 461.024 270.271C460.883 270.672 460.617 271.017 460.267 271.257L427.776 293.479C427.449 293.699 427.066 293.817 426.672 293.82ZM414.388 289.599L426.071 289.799L452.846 271.498L441.163 271.297L414.388 289.599Z" fill="#262424"/>
<path d="M563.115 353.708L530.584 375.951L508.492 343.65L521.548 334.725L536.962 324.186L563.115 353.708Z" fill="white"/>
<path d="M530.584 377.956C530.258 377.956 529.937 377.877 529.649 377.725C529.36 377.573 529.113 377.353 528.929 377.084L506.867 344.783C506.567 344.344 506.453 343.804 506.551 343.281C506.649 342.758 506.95 342.296 507.389 341.995L535.859 322.531C536.262 322.253 536.752 322.133 537.238 322.192C537.724 322.251 538.171 322.486 538.496 322.852L564.649 352.374C564.842 352.588 564.986 352.84 565.073 353.114C565.159 353.389 565.186 353.678 565.151 353.963C565.115 354.249 565.019 354.523 564.869 354.768C564.718 355.013 564.517 355.223 564.278 355.383L531.747 377.625C531.403 377.853 530.996 377.968 530.584 377.956V377.956ZM511.28 344.181L531.105 373.163L560.107 353.337L536.671 326.843L511.28 344.181Z" fill="#262424"/>
<path d="M527.535 284.294L495.044 306.516C502.736 322.491 506.175 337.011 504.481 346.408L536.972 324.196C538.676 314.779 535.217 300.258 527.535 284.294Z" fill="white"/>
<path d="M504.471 348.414C504.174 348.418 503.88 348.357 503.61 348.235C503.339 348.112 503.1 347.931 502.908 347.705C502.716 347.478 502.577 347.212 502.5 346.926C502.424 346.639 502.412 346.339 502.465 346.047C504.09 337.072 500.71 322.982 493.199 307.379C492.99 306.947 492.943 306.454 493.067 305.99C493.19 305.527 493.475 305.123 493.871 304.851L526.362 282.629C526.6 282.466 526.871 282.357 527.155 282.308C527.44 282.259 527.732 282.272 528.011 282.346C528.29 282.421 528.549 282.554 528.772 282.738C528.994 282.922 529.175 283.151 529.3 283.411C537.162 299.737 540.652 314.729 538.897 324.527C538.85 324.789 538.752 325.039 538.607 325.263C538.463 325.487 538.275 325.68 538.055 325.83L505.584 348.063C505.256 348.287 504.868 348.409 504.471 348.414V348.414ZM497.561 307.198C503.839 320.646 507.108 333.081 506.857 342.296L535.086 322.992C536.31 314.398 533.281 301.532 526.693 287.252L497.561 307.198Z" fill="#262424"/>
<path d="M536.952 324.185L563.105 353.708C566.414 337.884 560.167 312.412 546.137 284.625L527.525 284.294C535.217 300.258 538.676 314.779 536.952 324.185Z" fill="white"/>
<path d="M563.115 355.714C562.831 355.715 562.55 355.655 562.291 355.54C562.031 355.424 561.8 355.254 561.611 355.042L535.538 325.62C535.308 325.391 535.136 325.11 535.038 324.801C534.941 324.492 534.919 324.164 534.976 323.845C536.591 314.819 533.221 300.78 525.72 285.176C525.571 284.867 525.504 284.525 525.525 284.183C525.546 283.84 525.655 283.509 525.84 283.221C526.025 282.933 526.281 282.696 526.583 282.535C526.885 282.373 527.223 282.292 527.565 282.298L546.177 282.619C546.543 282.626 546.899 282.732 547.208 282.926C547.518 283.121 547.768 283.396 547.932 283.722C562.252 312.072 568.5 337.734 565.08 354.119C564.986 354.571 564.739 354.975 564.381 355.266C564.023 355.556 563.576 355.714 563.115 355.714V355.714ZM539.047 323.564L561.741 349.196C563.175 333.923 557.048 311.089 544.874 286.65L530.684 286.4C537.353 301.001 540.371 314.358 539.088 323.564H539.047Z" fill="#262424"/>
<path d="M487.794 311.46L455.313 333.682L448.855 351.141L481.356 328.929L487.794 311.46Z" fill="white"/>
<path d="M448.855 353.147C448.531 353.147 448.213 353.069 447.926 352.92C447.639 352.771 447.393 352.555 447.208 352.29C447.023 352.025 446.904 351.719 446.863 351.399C446.821 351.078 446.858 350.752 446.969 350.449L453.437 332.99C453.575 332.584 453.838 332.233 454.19 331.987L486.681 309.765C487.032 309.528 487.449 309.408 487.872 309.422C488.296 309.436 488.704 309.585 489.038 309.845C489.372 310.106 489.615 310.465 489.732 310.872C489.849 311.28 489.834 311.713 489.689 312.112L483.241 329.571C483.104 329.977 482.84 330.328 482.489 330.573L449.998 352.796C449.661 353.026 449.263 353.149 448.855 353.147ZM456.967 334.976L452.956 345.936L479.731 327.625L483.742 316.664L456.967 334.976Z" fill="#262424"/>
<path d="M522.571 389.418L484.344 415.561C465.391 428.518 422.401 398.614 388.315 348.774C354.23 298.935 341.955 248.012 360.908 235.056L399.135 208.912C395.014 211.73 392.377 216.343 391.113 222.34C391.111 222.38 391.111 222.42 391.113 222.46V222.38L423.564 200.188L440.531 269.272L408.04 291.494C419.021 313.049 432.732 333.099 448.835 351.151L481.326 328.929L539.549 369.803L507.098 391.995H507.008H507.128C513.195 393.028 518.46 392.236 522.571 389.418Z" fill="white"/>
<path d="M473.674 420.596C451.141 420.596 416.063 392.898 386.66 349.898C351.422 298.363 339.609 247.18 359.785 233.391L398.002 207.258C398.441 206.965 398.978 206.857 399.496 206.957C400.014 207.058 400.472 207.358 400.77 207.793C401.068 208.229 401.183 208.764 401.089 209.283C400.995 209.802 400.7 210.264 400.269 210.567C397.814 212.31 395.899 214.708 394.743 217.487L422.461 198.534C422.728 198.351 423.036 198.236 423.357 198.197C423.678 198.159 424.004 198.2 424.307 198.315C424.609 198.43 424.879 198.617 425.094 198.86C425.309 199.102 425.462 199.393 425.539 199.707L442.507 268.79C442.605 269.187 442.58 269.604 442.435 269.985C442.29 270.367 442.031 270.695 441.695 270.926L410.608 292.146C421.108 312.427 434.047 331.35 449.136 348.494L480.223 327.274C480.558 327.041 480.957 326.917 481.366 326.917C481.774 326.917 482.173 327.041 482.509 327.274L540.682 368.159C540.949 368.343 541.167 368.59 541.318 368.877C541.468 369.164 541.547 369.484 541.547 369.808C541.547 370.133 541.468 370.452 541.318 370.74C541.167 371.027 540.949 371.274 540.682 371.458L512.974 390.411C515.985 390.339 518.914 389.422 521.428 387.764V387.764C521.645 387.611 521.891 387.503 522.15 387.446C522.409 387.389 522.677 387.384 522.938 387.431C523.199 387.478 523.449 387.577 523.671 387.721C523.894 387.865 524.086 388.052 524.236 388.271C524.386 388.49 524.491 388.737 524.545 388.997C524.599 389.257 524.601 389.525 524.551 389.785C524.5 390.046 524.399 390.294 524.252 390.515C524.105 390.736 523.915 390.926 523.694 391.073L485.527 417.216C482.017 419.533 477.879 420.713 473.674 420.596V420.596ZM390.491 217.246L362.041 236.7C353.728 242.386 351.773 257.288 356.666 277.605C361.791 298.855 373.614 323.734 389.96 347.631C406.306 371.528 425.198 391.584 443.109 404.059C460.267 415.993 474.868 419.573 483.221 413.897L511.671 394.442C510.047 394.419 508.428 394.271 506.827 394.001C506.702 393.983 506.578 393.956 506.456 393.921C506.06 393.802 505.711 393.564 505.455 393.24C505.2 392.915 505.051 392.519 505.029 392.106C505.007 391.694 505.113 391.284 505.333 390.934C505.552 390.584 505.875 390.31 506.256 390.15L536.059 369.763L481.346 331.346L449.998 352.776C449.597 353.052 449.109 353.172 448.626 353.115C448.142 353.058 447.696 352.827 447.371 352.465C431.142 334.284 417.324 314.088 406.255 292.376C406.037 291.942 405.984 291.444 406.106 290.974C406.228 290.503 406.516 290.093 406.917 289.819L438.265 268.389L422.35 203.477L392.517 223.844C392.229 224.142 391.856 224.343 391.449 224.42C391.043 224.497 390.622 224.447 390.245 224.275C389.869 224.104 389.554 223.82 389.345 223.463C389.136 223.106 389.042 222.693 389.077 222.28C389.091 222.159 389.111 222.038 389.137 221.919C389.469 220.329 389.922 218.767 390.491 217.246Z" fill="#262424"/>
<path d="M449.737 229.701L423.584 200.178C420.275 216.002 426.522 241.474 440.552 269.262L459.164 269.592C451.482 253.628 448.043 239.107 449.737 229.701Z" fill="white"/>
<path d="M459.164 271.598L440.551 271.267C440.186 271.261 439.83 271.154 439.52 270.96C439.211 270.766 438.961 270.49 438.797 270.164C424.476 241.815 418.229 216.153 421.648 199.767C421.725 199.404 421.9 199.069 422.156 198.8C422.411 198.53 422.736 198.337 423.094 198.241C423.453 198.146 423.831 198.151 424.187 198.258C424.542 198.364 424.861 198.567 425.108 198.844L451.261 228.367C451.462 228.594 451.609 228.864 451.69 229.155C451.772 229.447 451.787 229.754 451.733 230.052C450.118 239.077 453.498 253.116 460.999 268.72C461.148 269.028 461.215 269.369 461.195 269.711C461.175 270.052 461.068 270.383 460.884 270.671C460.7 270.96 460.445 271.196 460.144 271.358C459.843 271.521 459.506 271.603 459.164 271.598ZM441.805 267.286L455.995 267.537C449.346 252.876 446.328 239.518 447.611 230.333L424.938 204.741C423.504 220.004 429.631 242.898 441.805 267.286V267.286Z" fill="#262424"/>
<path d="M487.804 311.46L481.356 328.919C502.164 352.084 523.634 367.136 539.579 369.793L521.529 334.695C512.172 332.89 499.888 324.416 487.804 311.46Z" fill="white"/>
<path d="M539.569 371.809H539.238C522.732 369.061 501.131 353.929 479.852 330.293C479.613 330.024 479.45 329.696 479.382 329.343C479.313 328.99 479.34 328.626 479.461 328.287L485.909 310.828C486.027 310.507 486.226 310.221 486.487 309.998C486.747 309.776 487.06 309.624 487.396 309.556C487.731 309.489 488.079 309.509 488.405 309.614C488.731 309.719 489.025 309.905 489.258 310.156C501.061 322.802 512.974 331.065 521.93 332.82C522.222 332.873 522.498 332.991 522.739 333.164C522.98 333.338 523.18 333.562 523.323 333.822L541.374 368.921C541.524 369.227 541.594 369.566 541.576 369.906C541.558 370.247 541.454 370.577 541.274 370.866C541.093 371.155 540.842 371.393 540.544 371.558C540.245 371.723 539.91 371.81 539.569 371.809ZM483.652 328.487C501.994 348.694 521.077 362.693 535.798 366.895L520.175 336.49C511.149 334.354 499.788 326.692 488.546 315.18L483.652 328.487Z" fill="#262424"/>
<path d="M289.639 417.387H326.171C326.768 417.385 327.359 417.508 327.906 417.748L351.973 428.388C352.987 428.834 353.789 429.655 354.212 430.679C354.634 431.704 354.644 432.852 354.24 433.883V433.883C353.908 434.73 353.315 435.45 352.547 435.939C351.779 436.427 350.876 436.659 349.968 436.601L328.778 435.237C328.167 435.202 327.559 435.343 327.026 435.643C326.493 435.944 326.057 436.391 325.77 436.931V436.931C325.544 437.357 325.417 437.828 325.398 438.31C325.38 438.791 325.471 439.271 325.663 439.712C325.856 440.154 326.146 440.546 326.512 440.86C326.878 441.174 327.31 441.401 327.776 441.524L364.98 451.863C365.819 452.095 366.601 452.499 367.276 453.049C367.951 453.599 368.504 454.283 368.901 455.058C369.298 455.832 369.53 456.681 369.582 457.55C369.633 458.42 369.504 459.29 369.202 460.106V460.106C368.69 461.494 367.706 462.656 366.422 463.39C365.138 464.124 363.637 464.381 362.182 464.118L339.218 459.906L355.503 469.242C356.687 469.92 357.552 471.041 357.909 472.357C358.267 473.674 358.086 475.078 357.409 476.262L347.38 493.681C346.819 494.659 345.951 495.425 344.911 495.862C343.871 496.298 342.716 496.381 341.624 496.097L302.354 483.662C298.51 482.442 294.983 480.388 292.025 477.646L260.667 448.614L289.639 417.387Z" fill="white"/>
<path d="M342.888 498.263C342.285 498.262 341.686 498.185 341.103 498.032H341.002L301.732 485.578C297.608 484.266 293.822 482.065 290.641 479.13L259.283 450.098C259.09 449.919 258.933 449.704 258.822 449.464C258.712 449.225 258.65 448.966 258.639 448.702C258.629 448.438 258.671 448.175 258.763 447.928C258.854 447.681 258.994 447.454 259.173 447.26L288.164 416.023C288.353 415.82 288.581 415.658 288.834 415.548C289.088 415.437 289.362 415.38 289.639 415.381H326.171C327.048 415.378 327.916 415.559 328.718 415.912L352.785 426.552C354.13 427.155 355.221 428.21 355.868 429.534C356.515 430.858 356.678 432.367 356.327 433.798C355.977 435.229 355.135 436.492 353.949 437.367C352.763 438.242 351.308 438.673 349.837 438.586L328.688 437.242C328.459 437.229 328.23 437.282 328.03 437.394C327.829 437.506 327.664 437.672 327.555 437.874C327.47 438.032 327.422 438.206 327.414 438.385C327.406 438.564 327.438 438.743 327.508 438.907C327.579 439.072 327.685 439.219 327.82 439.337C327.955 439.455 328.114 439.541 328.287 439.589L365.491 449.928C367.518 450.524 369.241 451.872 370.308 453.696C371.374 455.52 371.705 457.683 371.231 459.742C370.758 461.801 369.516 463.602 367.76 464.777C366.003 465.951 363.865 466.411 361.781 466.063L350.329 463.967L356.456 467.487C358.101 468.432 359.304 469.991 359.801 471.823C360.297 473.654 360.046 475.608 359.103 477.254L349.075 494.673C348.447 495.76 347.546 496.664 346.46 497.294C345.375 497.923 344.143 498.258 342.888 498.263V498.263ZM342.126 494.162C342.788 494.32 343.483 494.26 344.108 493.99C344.734 493.721 345.255 493.257 345.595 492.667L355.623 475.249C356.037 474.525 356.147 473.667 355.929 472.862C355.711 472.058 355.183 471.372 354.46 470.957L338.175 461.62C337.765 461.384 337.452 461.011 337.29 460.566C337.129 460.122 337.13 459.635 337.293 459.191C337.456 458.747 337.771 458.375 338.182 458.141C338.593 457.906 339.073 457.825 339.538 457.91L362.503 462.122C363.581 462.307 364.69 462.072 365.6 461.466C366.511 460.859 367.155 459.927 367.401 458.861C367.646 457.794 367.473 456.675 366.919 455.731C366.364 454.788 365.469 454.093 364.418 453.789L327.214 443.46C325.96 443.125 324.877 442.335 324.175 441.244C323.474 440.152 323.206 438.838 323.423 437.559C323.64 436.28 324.327 435.129 325.349 434.33C326.371 433.531 327.655 433.143 328.949 433.241L350.148 434.605C350.688 434.646 351.226 434.494 351.664 434.176C352.103 433.858 352.415 433.395 352.544 432.869C352.672 432.343 352.61 431.788 352.368 431.303C352.126 430.818 351.719 430.435 351.221 430.222L327.154 419.583C326.863 419.456 326.548 419.391 326.231 419.392H290.511L263.435 448.474L293.319 476.141C296.065 478.675 299.334 480.575 302.896 481.707L342.126 494.162Z" fill="#262424"/>
<path d="M362.182 219.833C342.697 253.337 235.326 344.763 235.326 344.763L294.492 415.722L260.136 458.502C260.136 458.502 197.721 421.478 160.176 388.165C149.004 378.257 140.049 368.67 135.597 360.487C135.316 359.315 135.255 358.101 135.416 356.907C137.422 347.1 143.198 334.414 151.461 320.194C184.093 264.368 255.032 184.935 280.714 163.455C323.423 127.765 386.65 177.715 362.182 219.833Z" fill="#FF1B46"/>
<path d="M245.415 338.064C245.006 338.064 244.607 337.939 244.272 337.706C243.936 337.473 243.68 337.143 243.537 336.76C243.394 336.377 243.372 335.96 243.472 335.564C243.573 335.168 243.792 334.812 244.101 334.545C267.376 314.308 344.542 246.177 360.427 218.82C366.895 207.689 367.306 195.024 361.59 183.14C354.26 167.908 338.255 156.395 320.806 153.818C320.274 153.74 319.795 153.453 319.474 153.021C319.154 152.59 319.018 152.049 319.096 151.517C319.175 150.985 319.461 150.506 319.893 150.185C320.324 149.864 320.866 149.728 321.397 149.807C340.12 152.645 357.328 165.009 365.19 181.405C371.508 194.522 371.047 208.481 363.887 220.846C348.112 247.922 276.642 311.52 246.698 337.583C246.34 337.889 245.886 338.06 245.415 338.064Z" fill="#262424"/>
<path d="M195.375 348.865C194.843 348.878 194.327 348.68 193.942 348.313C193.556 347.946 193.332 347.441 193.319 346.909C193.305 346.377 193.504 345.862 193.871 345.476C194.237 345.091 194.742 344.867 195.274 344.854L235.216 342.758C235.48 342.744 235.743 342.782 235.992 342.87C236.24 342.958 236.469 343.094 236.665 343.271C236.861 343.447 237.021 343.66 237.134 343.898C237.248 344.137 237.313 344.395 237.327 344.658C237.341 344.921 237.303 345.185 237.215 345.434C237.127 345.682 236.991 345.911 236.814 346.107C236.638 346.303 236.424 346.462 236.186 346.576C235.948 346.689 235.69 346.755 235.427 346.769L195.485 348.865H195.375V348.865Z" fill="#262424"/>
<path d="M180.342 355.684C180.343 362.44 178.456 369.061 174.892 374.801C171.328 380.54 166.231 385.169 160.176 388.165C149.004 378.257 140.049 368.67 135.597 360.487C135.316 359.315 135.255 358.101 135.416 356.907C137.422 347.1 143.198 334.414 151.461 320.194C159.62 321.891 166.946 326.345 172.206 332.809C177.466 339.272 180.339 347.35 180.342 355.684V355.684Z" fill="white"/>
<path d="M251.472 445.134C251.092 445.133 250.721 445.025 250.4 444.821C250.08 444.617 249.824 444.327 249.662 443.983C249.501 443.64 249.44 443.258 249.487 442.881C249.534 442.504 249.686 442.148 249.927 441.855L278.006 407.88C278.35 407.486 278.834 407.242 279.355 407.2C279.876 407.158 280.393 407.321 280.796 407.654C281.198 407.988 281.455 408.465 281.511 408.985C281.567 409.505 281.417 410.026 281.095 410.437L253.016 444.412C252.828 444.639 252.591 444.821 252.324 444.946C252.058 445.07 251.766 445.135 251.472 445.134Z" fill="#262424"/>
<path d="M522.902 85.4567C519.142 107.298 510.868 133.16 484.795 127.214C453.708 120.144 435.026 96.5377 436.831 66.654C438.636 36.7703 453.588 20.8958 489.107 26.8324C492.129 27.3289 495.105 28.0769 498.002 29.0687C518.189 36.0884 527.345 53.8381 524.657 73.7539C524.166 77.3339 523.634 81.3151 522.902 85.4567Z" fill="white"/>
<path d="M492.026 130.061C489.442 130.045 486.869 129.739 484.354 129.149C471.769 126.281 460.708 120.575 452.365 112.653C452.161 112.475 451.995 112.258 451.877 112.014C451.76 111.771 451.693 111.506 451.68 111.236C451.667 110.966 451.709 110.696 451.803 110.443C451.897 110.189 452.042 109.958 452.228 109.761C452.414 109.565 452.638 109.409 452.886 109.301C453.134 109.194 453.401 109.137 453.671 109.136C453.942 109.134 454.21 109.187 454.459 109.292C454.708 109.397 454.934 109.55 455.122 109.745C462.944 117.175 473.353 122.53 485.207 125.238C492.507 126.903 498.524 126.06 503.618 122.661C514.549 115.37 518.66 97.7308 520.877 85.0954C521.599 81.004 522.13 77.0729 522.621 73.4628C525.299 53.5671 515.602 37.2815 497.3 30.9437C496.798 30.7695 496.385 30.4027 496.153 29.9241C495.92 29.4455 495.888 28.8942 496.062 28.3915C496.236 27.8889 496.603 27.476 497.082 27.2437C497.56 27.0115 498.111 26.9789 498.614 27.1531C518.831 34.1727 529.551 52.103 526.603 74.0044C526.111 77.6847 525.6 81.6257 524.838 85.7874C522.531 99.1448 518.059 117.877 505.844 126.01C501.749 128.716 496.934 130.128 492.026 130.061V130.061Z" fill="#262424"/>
<path d="M427.104 71.5877C429.817 76.1775 432.924 80.5227 436.39 84.5741L452.144 86.67L456.306 75.6992C456.306 75.6992 466.334 75.96 468.931 69.3214C468.994 69.1711 469.048 69.017 469.091 68.8601C469.773 66.6739 472.531 56.9166 472.1 41.4232C472.1 41.4232 495.495 53.7778 508.542 56.0843C513.235 56.9166 518.881 55.4926 524.196 53.3065C534.836 48.9443 545.004 32.8191 544.001 21.357V21.1363C542.337 4.32925 532.88 15.2298 532.88 15.2298C532.88 15.2298 531.346 1.68183 523.033 0.137504C514.719 -1.40682 508.522 10.5667 508.522 10.5667C492.703 5.69292 476.11 3.83224 459.605 5.08136C426.883 7.74883 433.381 30.6229 433.381 30.6229C433.381 30.6229 409.023 36.5997 427.104 71.5877Z" fill="#262424"/>
<path d="M448.835 84.7144C451.071 72.3397 443.109 60.1355 430.784 57.8291C428.164 57.3239 425.472 57.3239 422.852 57.8291C407.108 60.9177 408.642 97.1793 446.638 97.0891L448.835 84.7144Z" fill="white"/>
<path d="M446.418 99.1047C423.975 99.1047 412.694 86.4994 411.46 73.9743C410.568 64.949 415.16 57.2876 422.381 55.8736C425.249 55.3237 428.196 55.3237 431.065 55.8736C444.412 58.3806 453.267 71.4172 450.81 85.0754C450.716 85.5994 450.417 86.0644 449.98 86.3681C449.543 86.6718 449.003 86.7894 448.479 86.695C447.955 86.6005 447.49 86.3019 447.186 85.8646C446.882 85.4274 446.765 84.8874 446.859 84.3634C448.925 72.9013 441.534 61.8804 430.373 59.8046C428.001 59.3496 425.565 59.3496 423.193 59.8046C418.049 60.8074 414.809 66.6037 415.491 73.5832C416.494 83.511 425.169 95.0935 446.448 95.0935H446.599C447.13 95.0935 447.641 95.3048 448.017 95.6809C448.393 96.0571 448.604 96.5672 448.604 97.0991C448.604 97.631 448.393 98.1412 448.017 98.5173C447.641 98.8934 447.13 99.1047 446.599 99.1047H446.418V99.1047Z" fill="#262424"/>
<path d="M1340.8 307.619L1299.15 243.921L1125.54 574.377L1167.21 638.075L1340.8 307.619Z" fill="#000A1D"/>
<path d="M678.699 529.792L720.355 593.5L1167.21 638.075L1125.54 574.376L678.699 529.792Z" fill="#FF1B46"/>
<path d="M1299.15 243.921L1125.54 574.377L678.699 529.792L847.121 209.193L1299.15 243.921Z" fill="white"/>
<path d="M1125.55 576.382H1125.32L678.468 531.797C678.142 531.764 677.828 531.652 677.555 531.469C677.282 531.287 677.058 531.041 676.903 530.751C676.747 530.462 676.665 530.14 676.664 529.811C676.662 529.483 676.741 529.16 676.894 528.869L845.366 208.271C845.548 207.925 845.828 207.641 846.17 207.452C846.512 207.263 846.902 207.178 847.291 207.208L1299.3 241.895C1299.63 241.92 1299.95 242.027 1300.23 242.207C1300.51 242.386 1300.74 242.631 1300.9 242.922C1301.06 243.212 1301.15 243.537 1301.15 243.869C1301.15 244.201 1301.08 244.529 1300.92 244.823L1127.33 575.309C1127.16 575.633 1126.9 575.904 1126.59 576.093C1126.27 576.282 1125.92 576.382 1125.55 576.382ZM681.858 528.097L1124.4 572.22L1295.95 245.665L848.284 211.299L681.858 528.097Z" fill="#262424"/>
<path d="M797.682 529.12C797.337 529.12 796.998 529.031 796.697 528.861C796.396 528.691 796.145 528.447 795.966 528.151C795.788 527.856 795.688 527.519 795.678 527.174C795.668 526.829 795.747 526.487 795.907 526.182L950.831 231.165C951.086 230.707 951.509 230.367 952.011 230.217C952.513 230.068 953.054 230.12 953.517 230.364C953.981 230.607 954.331 231.023 954.492 231.521C954.654 232.019 954.614 232.561 954.381 233.03L799.457 528.047C799.287 528.37 799.032 528.641 798.719 528.831C798.406 529.02 798.048 529.12 797.682 529.12Z" fill="#262424"/>
<path d="M909.385 540.261C909.04 540.261 908.701 540.172 908.4 540.002C908.099 539.832 907.848 539.588 907.669 539.292C907.491 538.997 907.391 538.66 907.381 538.315C907.371 537.97 907.45 537.628 907.61 537.323L1063.89 239.839C1064.14 239.381 1064.57 239.041 1065.07 238.892C1065.57 238.742 1066.11 238.794 1066.57 239.038C1067.04 239.282 1067.39 239.697 1067.55 240.195C1067.71 240.694 1067.67 241.235 1067.44 241.704L911.16 539.188C910.99 539.512 910.735 539.783 910.422 539.972C910.109 540.161 909.751 540.261 909.385 540.261Z" fill="#262424"/>
<path d="M1021.1 551.402C1020.75 551.402 1020.41 551.313 1020.11 551.143C1019.81 550.974 1019.56 550.729 1019.38 550.434C1019.2 550.138 1019.1 549.802 1019.09 549.457C1019.08 549.112 1019.16 548.77 1019.32 548.464L1176.89 248.524C1177.15 248.066 1177.57 247.726 1178.07 247.576C1178.58 247.426 1179.12 247.479 1179.58 247.722C1180.04 247.966 1180.39 248.381 1180.56 248.88C1180.72 249.378 1180.68 249.92 1180.44 250.389L1022.87 550.329C1022.7 550.653 1022.45 550.924 1022.14 551.113C1021.82 551.302 1021.46 551.402 1021.1 551.402Z" fill="#262424"/>
<path d="M1236.53 326.973H1236.36L824.477 292.968C824.214 292.946 823.957 292.873 823.722 292.752C823.487 292.631 823.278 292.465 823.108 292.264C822.937 292.062 822.807 291.829 822.727 291.577C822.646 291.325 822.615 291.06 822.637 290.797C822.659 290.534 822.732 290.277 822.853 290.042C822.974 289.807 823.14 289.598 823.342 289.427C823.543 289.256 823.777 289.127 824.028 289.046C824.28 288.965 824.545 288.935 824.808 288.957L1236.7 322.952C1237.24 322.975 1237.74 323.208 1238.1 323.601C1238.46 323.994 1238.65 324.515 1238.63 325.048C1238.61 325.581 1238.37 326.084 1237.98 326.445C1237.59 326.806 1237.07 326.996 1236.53 326.973V326.973Z" fill="#262424"/>
<path d="M1193.19 409.495H1193L782.299 373.263C781.767 373.217 781.275 372.961 780.932 372.552C780.589 372.142 780.422 371.614 780.469 371.082C780.515 370.55 780.771 370.058 781.18 369.715C781.589 369.372 782.118 369.205 782.65 369.252L1193.33 405.523C1193.81 405.607 1194.24 405.86 1194.54 406.236C1194.85 406.612 1195.01 407.086 1194.99 407.57C1194.97 408.054 1194.78 408.516 1194.45 408.87C1194.12 409.223 1193.67 409.445 1193.19 409.495Z" fill="#262424"/>
<path d="M1149.85 491.986H1149.66L740.131 453.488C739.599 453.437 739.109 453.177 738.768 452.766C738.428 452.354 738.265 451.824 738.316 451.292C738.366 450.76 738.626 450.27 739.038 449.929C739.45 449.589 739.98 449.426 740.512 449.477L1150.04 487.974C1150.57 488 1151.07 488.235 1151.43 488.629C1151.79 489.023 1151.97 489.543 1151.95 490.075C1151.92 490.607 1151.69 491.107 1151.29 491.466C1150.9 491.824 1150.38 492.011 1149.85 491.986Z" fill="#262424"/>
<path d="M1137.63 415.04C1119.8 413.175 1101.29 424.627 1096.27 440.642C1091.24 456.657 1101.64 471.117 1119.47 472.983C1137.3 474.848 1155.82 463.396 1160.83 447.391C1165.84 431.386 1155.46 416.905 1137.63 415.04ZM1124.8 455.975C1117.43 455.203 1113.15 449.216 1115.21 442.617C1117.28 436.019 1124.93 431.266 1132.26 432.038C1139.59 432.81 1143.91 438.797 1141.84 445.405C1139.76 452.014 1132.17 456.747 1124.8 455.975Z" fill="#FF1B46"/>
<path d="M1025.53 280.212L1001.8 291.765L987.825 277.775L967.257 287.783L951.122 271.648L971.69 261.64L957.71 247.661L981.437 236.119L995.416 250.098L1015.98 240.09L1032.12 256.225L1011.55 266.233L1025.53 280.212Z" fill="#000A1D"/>
<path d="M933.453 279.4C932.963 279.401 932.49 279.223 932.123 278.899C931.755 278.575 931.519 278.128 931.459 277.642C931.398 277.156 931.518 276.665 931.794 276.261C932.071 275.857 932.486 275.568 932.961 275.449C936.672 274.516 938.778 274.045 938.868 274.035C939.125 273.979 939.391 273.973 939.651 274.019C939.91 274.066 940.158 274.162 940.381 274.304C940.603 274.446 940.795 274.631 940.945 274.847C941.096 275.063 941.203 275.307 941.26 275.564C941.316 275.822 941.322 276.088 941.275 276.347C941.229 276.607 941.132 276.855 940.99 277.077C940.848 277.299 940.664 277.491 940.448 277.642C940.232 277.793 939.988 277.899 939.73 277.956C939.73 277.956 937.584 278.427 933.944 279.35C933.783 279.387 933.618 279.404 933.453 279.4V279.4Z" fill="#262424"/>
<path d="M859.846 421.288C856.765 421.291 853.685 421.13 850.62 420.806C850.357 420.778 850.102 420.698 849.869 420.571C849.637 420.444 849.432 420.273 849.265 420.066C849.099 419.86 848.975 419.623 848.901 419.369C848.826 419.115 848.802 418.849 848.83 418.585C848.859 418.322 848.939 418.067 849.066 417.834C849.193 417.602 849.364 417.396 849.57 417.23C849.777 417.064 850.014 416.94 850.268 416.865C850.522 416.791 850.788 416.767 851.052 416.795C854.935 417.203 858.842 417.341 862.744 417.206C863.276 417.189 863.793 417.384 864.182 417.748C864.57 418.111 864.798 418.615 864.815 419.147C864.832 419.679 864.638 420.196 864.274 420.584C863.91 420.972 863.407 421.2 862.875 421.218C861.852 421.264 860.842 421.288 859.846 421.288ZM874.728 420.104C874.465 420.124 874.2 420.092 873.949 420.009C873.698 419.927 873.466 419.796 873.266 419.623C872.861 419.275 872.612 418.781 872.572 418.249C872.532 417.717 872.705 417.191 873.053 416.787C873.401 416.383 873.895 416.133 874.427 416.093C878.308 415.485 882.154 414.671 885.949 413.656C886.456 413.546 886.986 413.636 887.428 413.908C887.87 414.179 888.189 414.612 888.319 415.114C888.449 415.616 888.379 416.149 888.124 416.601C887.869 417.053 887.449 417.388 886.952 417.537C883.022 418.589 879.038 419.433 875.019 420.064L874.728 420.104ZM839.058 418.62C838.879 418.621 838.7 418.597 838.527 418.55C834.548 417.475 830.674 416.042 826.954 414.268C826.474 414.038 826.105 413.627 825.928 413.125C825.751 412.622 825.781 412.071 826.012 411.591C826.242 411.11 826.653 410.741 827.155 410.565C827.657 410.388 828.209 410.418 828.689 410.648C832.191 412.311 835.836 413.654 839.58 414.659C840.068 414.769 840.499 415.057 840.786 415.468C841.073 415.878 841.195 416.381 841.13 416.878C841.065 417.375 840.816 417.829 840.432 418.151C840.049 418.474 839.559 418.641 839.058 418.62V418.62ZM897.883 413.987C897.41 413.991 896.95 413.828 896.586 413.526C896.221 413.225 895.975 412.804 895.891 412.338C895.807 411.872 895.891 411.392 896.127 410.981C896.363 410.571 896.736 410.258 897.181 410.096L897.482 409.986C900.972 408.692 904.501 407.339 908.372 405.854C908.864 405.681 909.405 405.706 909.879 405.924C910.353 406.142 910.723 406.537 910.911 407.023C911.099 407.51 911.09 408.051 910.885 408.531C910.681 409.011 910.297 409.393 909.816 409.595C905.976 411.079 902.395 412.433 898.876 413.747L898.575 413.857C898.354 413.941 898.119 413.985 897.883 413.987ZM817.658 408.221C817.22 408.22 816.793 408.076 816.445 407.81C813.138 405.293 810.133 402.402 807.49 399.196C807.155 398.785 806.996 398.257 807.049 397.73C807.101 397.202 807.361 396.716 807.771 396.38C808.181 396.043 808.707 395.882 809.235 395.932C809.763 395.983 810.25 396.24 810.588 396.649C813.03 399.634 815.81 402.326 818.871 404.671C819.188 404.933 819.416 405.286 819.525 405.681C819.634 406.077 819.62 406.496 819.483 406.883C819.347 407.27 819.094 407.606 818.761 407.845C818.427 408.085 818.028 408.216 817.618 408.221H817.658ZM920.266 405.353C919.798 405.354 919.345 405.192 918.985 404.895C918.624 404.598 918.379 404.184 918.291 403.725C918.203 403.266 918.278 402.791 918.503 402.381C918.728 401.972 919.089 401.654 919.524 401.482C923.234 400.005 926.941 398.514 930.645 397.01C930.889 396.911 931.15 396.861 931.414 396.863C931.677 396.866 931.938 396.92 932.18 397.023C932.423 397.126 932.643 397.275 932.828 397.463C933.012 397.651 933.158 397.874 933.257 398.118C933.356 398.362 933.405 398.623 933.403 398.887C933.401 399.15 933.347 399.411 933.244 399.653C933.141 399.896 932.991 400.116 932.804 400.301C932.616 400.485 932.393 400.631 932.149 400.73C928.438 402.234 924.725 403.725 921.008 405.203C920.772 405.299 920.52 405.35 920.266 405.353V405.353ZM1167.06 400.54C1166.57 400.543 1166.09 400.367 1165.72 400.043C1165.35 399.72 1165.11 399.272 1165.05 398.785C1164.57 395.01 1163.54 391.327 1161.98 387.854C1161.87 387.614 1161.82 387.354 1161.81 387.091C1161.8 386.828 1161.84 386.565 1161.94 386.319C1162.03 386.073 1162.17 385.847 1162.35 385.656C1162.53 385.464 1162.75 385.31 1162.99 385.202C1163.23 385.094 1163.49 385.034 1163.75 385.026C1164.02 385.018 1164.28 385.063 1164.53 385.156C1164.77 385.25 1165 385.391 1165.19 385.572C1165.38 385.752 1165.54 385.969 1165.64 386.209C1167.36 390.032 1168.5 394.087 1169.03 398.243C1169.07 398.505 1169.05 398.77 1168.98 399.025C1168.91 399.279 1168.79 399.517 1168.63 399.726C1168.47 399.935 1168.27 400.109 1168.04 400.24C1167.81 400.371 1167.56 400.456 1167.3 400.489L1167.06 400.54ZM942.508 396.328C942.043 396.328 941.593 396.167 941.234 395.872C940.876 395.577 940.63 395.166 940.54 394.711C940.45 394.255 940.521 393.782 940.741 393.373C940.961 392.964 941.316 392.643 941.746 392.467L952.857 387.924C953.344 387.75 953.879 387.77 954.351 387.98C954.823 388.191 955.195 388.576 955.391 389.054C955.586 389.533 955.589 390.068 955.399 390.549C955.209 391.03 954.841 391.419 954.371 391.635L943.26 396.177C943.021 396.275 942.766 396.326 942.508 396.328ZM802.636 389.769C802.251 389.769 801.875 389.659 801.551 389.451C801.227 389.243 800.971 388.946 800.811 388.596C799.063 384.796 797.845 380.774 797.191 376.643C797.108 376.111 797.24 375.568 797.558 375.133C797.876 374.699 798.354 374.409 798.885 374.326C799.417 374.244 799.96 374.376 800.395 374.694C800.829 375.012 801.119 375.489 801.202 376.021C801.769 379.798 802.852 383.479 804.421 386.962C804.559 387.263 804.62 387.594 804.598 387.925C804.576 388.256 804.473 388.577 804.297 388.858C804.121 389.139 803.878 389.372 803.59 389.537C803.302 389.701 802.978 389.791 802.646 389.799L802.636 389.769ZM964.73 387.262C964.267 387.26 963.818 387.097 963.461 386.801C963.104 386.506 962.86 386.095 962.771 385.64C962.683 385.185 962.755 384.713 962.975 384.305C963.195 383.897 963.549 383.578 963.978 383.402C967.709 381.897 971.426 380.413 975.129 378.949C975.623 378.758 976.173 378.769 976.658 378.982C977.143 379.194 977.525 379.59 977.719 380.082C977.914 380.575 977.906 381.124 977.697 381.611C977.488 382.097 977.095 382.482 976.603 382.68C972.906 384.137 969.199 385.618 965.482 387.122C965.246 387.23 964.99 387.292 964.73 387.302V387.262ZM1157.41 378.959C1157.12 378.959 1156.83 378.896 1156.57 378.775C1156.31 378.654 1156.07 378.477 1155.89 378.257C1153.37 375.353 1150.52 372.76 1147.39 370.535C1146.97 370.22 1146.69 369.754 1146.62 369.236C1146.54 368.718 1146.66 368.19 1146.97 367.764C1147.27 367.339 1147.73 367.049 1148.25 366.958C1148.76 366.867 1149.3 366.981 1149.73 367.276C1153.12 369.687 1156.2 372.495 1158.92 375.64C1159.18 375.93 1159.34 376.287 1159.39 376.667C1159.45 377.048 1159.39 377.436 1159.23 377.786C1159.07 378.136 1158.82 378.432 1158.49 378.64C1158.17 378.848 1157.79 378.959 1157.41 378.959V378.959ZM987.053 378.508C986.583 378.508 986.129 378.344 985.768 378.043C985.408 377.743 985.164 377.326 985.079 376.864C984.995 376.403 985.075 375.926 985.305 375.517C985.536 375.108 985.902 374.793 986.341 374.627C990.232 373.143 994.022 371.729 997.612 370.425C997.86 370.335 998.123 370.294 998.386 370.306C998.649 370.317 998.908 370.38 999.147 370.492C999.385 370.603 999.6 370.76 999.778 370.954C999.956 371.149 1000.09 371.376 1000.18 371.624C1000.27 371.871 1000.32 372.134 1000.3 372.397C1000.29 372.661 1000.23 372.919 1000.12 373.158C1000.01 373.397 999.85 373.611 999.655 373.789C999.461 373.967 999.234 374.106 998.986 374.196C995.416 375.489 991.646 376.893 987.775 378.367C987.545 378.458 987.3 378.506 987.053 378.508ZM1009.61 370.345C1009.13 370.342 1008.68 370.171 1008.32 369.864C1007.96 369.556 1007.72 369.132 1007.64 368.665C1007.56 368.198 1007.65 367.719 1007.9 367.313C1008.14 366.906 1008.52 366.599 1008.96 366.444C1012.89 365.11 1016.74 363.857 1020.42 362.714C1020.67 362.635 1020.93 362.607 1021.19 362.631C1021.46 362.655 1021.71 362.73 1021.95 362.853C1022.18 362.975 1022.39 363.142 1022.55 363.345C1022.72 363.547 1022.85 363.781 1022.93 364.032C1023.01 364.284 1023.03 364.548 1023.01 364.811C1022.99 365.073 1022.91 365.328 1022.79 365.561C1022.67 365.795 1022.5 366.002 1022.3 366.17C1022.09 366.339 1021.86 366.466 1021.61 366.544C1017.96 367.677 1014.14 368.921 1010.26 370.235C1010.05 370.307 1009.83 370.344 1009.61 370.345V370.345ZM799.016 366.424H798.765C798.504 366.392 798.251 366.308 798.022 366.178C797.793 366.049 797.592 365.875 797.43 365.667C797.268 365.46 797.148 365.222 797.078 364.968C797.007 364.714 796.988 364.449 797.02 364.188C797.541 360.06 798.589 356.015 800.139 352.154C800.336 351.659 800.721 351.263 801.21 351.052C801.699 350.842 802.252 350.834 802.746 351.031C803.241 351.228 803.637 351.613 803.848 352.102C804.058 352.591 804.066 353.143 803.869 353.638C802.445 357.194 801.484 360.918 801.011 364.719C800.936 365.199 800.69 365.635 800.317 365.947C799.944 366.259 799.471 366.425 798.986 366.414L799.016 366.424ZM1138.26 364.91C1137.96 364.91 1137.67 364.845 1137.4 364.719C1133.87 363.069 1130.22 361.659 1126.49 360.497C1126.24 360.418 1126.01 360.291 1125.81 360.121C1125.6 359.952 1125.44 359.745 1125.32 359.511C1125.19 359.277 1125.12 359.022 1125.1 358.759C1125.07 358.496 1125.1 358.232 1125.18 357.98C1125.26 357.729 1125.39 357.495 1125.56 357.293C1125.73 357.091 1125.93 356.924 1126.17 356.802C1126.4 356.68 1126.66 356.605 1126.92 356.582C1127.18 356.559 1127.45 356.588 1127.7 356.667C1131.6 357.883 1135.42 359.36 1139.12 361.089C1139.53 361.288 1139.86 361.62 1140.06 362.031C1140.25 362.442 1140.3 362.908 1140.2 363.352C1140.09 363.795 1139.84 364.19 1139.48 364.471C1139.13 364.753 1138.68 364.904 1138.23 364.9L1138.26 364.91ZM1032.53 363.235C1032.04 363.236 1031.57 363.061 1031.21 362.741C1030.84 362.422 1030.6 361.98 1030.54 361.497C1030.47 361.015 1030.58 360.526 1030.85 360.121C1031.12 359.715 1031.53 359.422 1032 359.294C1036.01 358.201 1039.92 357.198 1043.7 356.286C1044.22 356.166 1044.76 356.257 1045.22 356.539C1045.67 356.821 1045.99 357.271 1046.11 357.79C1046.23 358.308 1046.14 358.853 1045.85 359.305C1045.57 359.756 1045.12 360.077 1044.6 360.197C1040.88 361.059 1036.99 362.052 1033.06 363.125C1032.89 363.185 1032.71 363.223 1032.53 363.235ZM1055.9 357.85C1055.63 357.874 1055.37 357.845 1055.11 357.766C1054.86 357.687 1054.63 357.56 1054.42 357.39C1054.22 357.221 1054.05 357.013 1053.93 356.779C1053.81 356.544 1053.73 356.288 1053.71 356.025C1053.69 355.761 1053.71 355.496 1053.79 355.244C1053.87 354.991 1054 354.757 1054.17 354.554C1054.34 354.351 1054.55 354.183 1054.78 354.06C1055.02 353.938 1055.27 353.862 1055.53 353.839C1059.6 353.097 1063.63 352.485 1067.5 352.004C1067.76 351.971 1068.03 351.991 1068.28 352.062C1068.54 352.133 1068.78 352.254 1068.99 352.417C1069.2 352.581 1069.37 352.784 1069.5 353.015C1069.63 353.246 1069.72 353.5 1069.75 353.763C1069.78 354.027 1069.76 354.294 1069.69 354.55C1069.62 354.805 1069.5 355.045 1069.34 355.254C1069.17 355.463 1068.97 355.638 1068.74 355.768C1068.51 355.899 1068.25 355.983 1067.99 356.015C1064.19 356.476 1060.25 357.088 1056.26 357.81C1056.14 357.841 1056.01 357.862 1055.89 357.87L1055.9 357.85ZM1115.46 357.559C1115.33 357.573 1115.19 357.573 1115.05 357.559C1112.61 357.058 1110.04 356.556 1107.47 356.205C1106.13 356.005 1104.75 355.814 1103.4 355.654C1103.14 355.623 1102.88 355.54 1102.65 355.411C1102.42 355.282 1102.21 355.108 1102.05 354.9C1101.89 354.692 1101.76 354.453 1101.69 354.198C1101.62 353.943 1101.6 353.676 1101.63 353.413C1101.66 353.149 1101.74 352.894 1101.87 352.663C1102 352.431 1102.17 352.228 1102.38 352.063C1102.59 351.899 1102.83 351.777 1103.08 351.705C1103.34 351.633 1103.61 351.612 1103.87 351.643C1105.27 351.803 1106.69 351.994 1108.07 352.204C1110.74 352.605 1113.36 353.077 1115.86 353.598C1116.39 353.651 1116.88 353.913 1117.22 354.324C1117.55 354.736 1117.71 355.265 1117.66 355.794C1117.61 356.323 1117.34 356.81 1116.93 357.147C1116.52 357.483 1115.99 357.642 1115.46 357.589V357.559ZM1079.68 354.962C1079.15 354.976 1078.63 354.779 1078.25 354.413C1077.86 354.048 1077.64 353.543 1077.62 353.011C1077.61 352.479 1077.8 351.964 1078.17 351.577C1078.54 351.191 1079.04 350.965 1079.57 350.951C1082.4 350.8 1085.22 350.72 1087.95 350.72C1089.19 350.72 1090.46 350.72 1091.73 350.72C1092.26 350.733 1092.76 350.957 1093.13 351.343C1093.5 351.728 1093.69 352.244 1093.68 352.776C1093.67 353.308 1093.44 353.813 1093.06 354.179C1092.67 354.546 1092.16 354.744 1091.63 354.731C1090.4 354.731 1089.18 354.731 1087.96 354.731C1085.3 354.731 1082.56 354.811 1079.8 354.952H1079.69L1079.68 354.962ZM807.64 344.302C807.275 344.302 806.917 344.202 806.604 344.014C806.291 343.825 806.036 343.555 805.866 343.232C805.696 342.909 805.617 342.545 805.638 342.181C805.659 341.816 805.779 341.464 805.985 341.163C806.253 340.775 806.524 340.388 806.798 340C808.932 337.055 811.278 334.27 813.817 331.667C814.001 331.478 814.22 331.327 814.462 331.222C814.704 331.118 814.964 331.062 815.228 331.059C815.492 331.055 815.753 331.103 815.998 331.201C816.243 331.298 816.466 331.443 816.655 331.626C816.844 331.81 816.995 332.029 817.099 332.271C817.204 332.513 817.259 332.774 817.263 333.037C817.267 333.301 817.219 333.562 817.121 333.807C817.024 334.052 816.879 334.275 816.695 334.464C814.287 336.926 812.062 339.561 810.037 342.347L809.275 343.43C809.092 343.696 808.849 343.914 808.564 344.066C808.28 344.218 807.963 344.299 807.64 344.302ZM824.166 327.034C823.75 327.035 823.344 326.908 823.004 326.668C822.663 326.429 822.406 326.089 822.267 325.697C822.128 325.305 822.115 324.879 822.229 324.479C822.343 324.079 822.578 323.724 822.903 323.464C825.911 321.047 829.2 318.62 832.72 316.263C833.162 315.978 833.698 315.877 834.213 315.983C834.728 316.088 835.182 316.392 835.475 316.829C835.768 317.266 835.878 317.8 835.781 318.317C835.684 318.834 835.388 319.292 834.957 319.593C831.537 321.889 828.328 324.236 825.43 326.612C825.068 326.889 824.622 327.034 824.166 327.024V327.034ZM844.032 313.616C843.591 313.615 843.163 313.469 842.813 313.201C842.464 312.932 842.212 312.556 842.098 312.13C841.984 311.704 842.014 311.252 842.182 310.845C842.35 310.437 842.648 310.097 843.029 309.876C846.389 307.94 849.969 306.005 853.679 304.119C853.914 304 854.17 303.928 854.433 303.908C854.696 303.888 854.96 303.92 855.211 304.002C855.461 304.084 855.693 304.214 855.893 304.386C856.093 304.558 856.257 304.767 856.377 305.002C856.496 305.237 856.567 305.493 856.588 305.756C856.608 306.019 856.576 306.283 856.494 306.533C856.412 306.784 856.282 307.016 856.11 307.216C855.938 307.416 855.729 307.58 855.494 307.699C851.844 309.545 848.324 311.45 845.035 313.345C844.729 313.518 844.383 313.608 844.032 313.606V313.616ZM865.422 302.736C864.964 302.736 864.519 302.579 864.163 302.292C863.806 302.004 863.559 301.603 863.461 301.156C863.364 300.708 863.423 300.241 863.628 299.831C863.833 299.422 864.173 299.095 864.59 298.905C868.15 297.29 871.88 295.686 875.681 294.141C875.927 294.028 876.193 293.966 876.463 293.959C876.734 293.952 877.003 293.999 877.255 294.099C877.507 294.198 877.736 294.347 877.928 294.538C878.121 294.728 878.273 294.955 878.375 295.206C878.477 295.457 878.528 295.725 878.523 295.996C878.519 296.267 878.46 296.534 878.35 296.781C878.24 297.028 878.08 297.25 877.882 297.434C877.683 297.619 877.45 297.76 877.195 297.852C873.444 299.386 869.754 300.971 866.244 302.565C865.984 302.676 865.704 302.73 865.422 302.725V302.736ZM887.624 293.64C887.156 293.638 886.703 293.472 886.344 293.171C885.985 292.87 885.743 292.452 885.66 291.991C885.576 291.53 885.657 291.055 885.888 290.647C886.118 290.239 886.484 289.925 886.922 289.759C890.602 288.385 894.433 287.032 898.284 285.748C898.788 285.576 899.34 285.612 899.817 285.847C900.295 286.082 900.66 286.497 900.831 287.001C901.003 287.505 900.967 288.057 900.732 288.535C900.497 289.012 900.082 289.377 899.578 289.549C895.757 290.842 891.966 292.186 888.326 293.56C888.108 293.621 887.881 293.645 887.654 293.63L887.624 293.64ZM910.358 285.918C909.88 285.922 909.416 285.755 909.05 285.447C908.684 285.138 908.44 284.71 908.363 284.238C908.286 283.766 908.379 283.281 908.627 282.872C908.876 282.464 909.262 282.157 909.716 282.007C913.547 280.824 917.438 279.671 921.278 278.588C921.79 278.443 922.339 278.507 922.803 278.767C923.268 279.026 923.61 279.46 923.755 279.972C923.9 280.484 923.836 281.032 923.576 281.497C923.317 281.961 922.883 282.304 922.371 282.449C918.561 283.522 914.7 284.665 910.909 285.838C910.73 285.887 910.544 285.911 910.358 285.908V285.918Z" fill="#262424"/>
<path d="M1165.43 418.39C1165.11 418.389 1164.8 418.313 1164.52 418.167C1164.23 418.02 1163.99 417.808 1163.8 417.549C1163.62 417.289 1163.5 416.988 1163.45 416.672C1163.4 416.356 1163.43 416.034 1163.54 415.732C1164.14 413.942 1164.6 412.104 1164.89 410.237C1164.93 409.977 1165.03 409.727 1165.16 409.503C1165.3 409.279 1165.48 409.084 1165.7 408.93C1165.91 408.776 1166.15 408.666 1166.41 408.605C1166.67 408.544 1166.93 408.535 1167.19 408.577C1167.45 408.619 1167.7 408.712 1167.93 408.851C1168.15 408.989 1168.34 409.17 1168.5 409.384C1168.65 409.598 1168.76 409.84 1168.82 410.096C1168.88 410.353 1168.89 410.618 1168.85 410.879C1168.52 412.974 1168.01 415.037 1167.33 417.046C1167.19 417.439 1166.93 417.779 1166.59 418.02C1166.26 418.261 1165.85 418.39 1165.43 418.39Z" fill="#262424"/>
<path d="M808.342 763.607C801.488 763.604 794.913 766.322 790.062 771.164C785.211 776.006 782.48 782.575 782.47 789.429C782.471 786.032 781.803 782.669 780.504 779.53C779.204 776.392 777.299 773.54 774.898 771.139C772.496 768.737 769.644 766.832 766.506 765.533C763.368 764.233 760.004 763.565 756.607 763.567C760.004 763.567 763.368 762.897 766.507 761.597C769.645 760.297 772.497 758.391 774.898 755.988C777.3 753.586 779.205 750.733 780.504 747.594C781.803 744.455 782.471 741.091 782.47 737.694C782.464 741.095 783.13 744.464 784.428 747.607C785.725 750.751 787.63 753.608 790.033 756.015C792.436 758.421 795.29 760.331 798.432 761.633C801.574 762.936 804.941 763.607 808.342 763.607V763.607Z" fill="#000A1D"/>
<path d="M98.0718 750.921C95.9494 750.92 93.8476 751.337 91.8864 752.148C89.9252 752.959 88.143 754.149 86.6418 755.649C85.1406 757.15 83.9497 758.931 83.1372 760.892C82.3247 762.852 81.9065 764.954 81.9065 767.076C81.9065 762.792 80.2044 758.683 77.1747 755.653C74.145 752.623 70.0359 750.921 65.7512 750.921C67.8736 750.921 69.9752 750.503 71.9359 749.69C73.8966 748.878 75.678 747.687 77.1783 746.186C78.6786 744.685 79.8683 742.902 80.6796 740.941C81.4909 738.98 81.9078 736.878 81.9065 734.756C81.9065 739.043 83.6096 743.155 86.6412 746.186C89.6728 749.218 93.7845 750.921 98.0718 750.921Z" fill="#FF1B46"/>
<path d="M712.714 43.3386C706.631 43.3386 700.796 45.7545 696.494 50.0553C692.191 54.356 689.772 60.1894 689.77 66.2728C689.77 63.2602 689.176 60.2771 688.023 57.494C686.87 54.7108 685.18 52.1821 683.049 50.0523C680.918 47.9226 678.389 46.2334 675.605 45.0815C672.821 43.9295 669.838 43.3373 666.825 43.3386C672.909 43.3359 678.742 40.9174 683.043 36.6148C687.344 32.3122 689.76 26.4778 689.76 20.3943C689.762 26.4804 692.182 32.3164 696.486 36.619C700.791 40.9216 706.628 43.3386 712.714 43.3386V43.3386Z" fill="#FF1B46"/>
<path d="M135.316 209.043C142.294 209.043 147.951 203.386 147.951 196.407C147.951 189.429 142.294 183.772 135.316 183.772C128.338 183.772 122.681 189.429 122.681 196.407C122.681 203.386 128.338 209.043 135.316 209.043Z" fill="#000A1D"/>
</svg>
