<svg width="512" height="512" viewBox="0 0 512 512" fill="none" xmlns="http://www.w3.org/2000/svg">
<path d="M36.147 259.997H76.12C67.29 259.997 60.131 267.156 60.131 275.986C60.131 284.816 67.29 291.975 76.12 291.975H100.103C91.273 291.975 84.114 299.134 84.114 307.964C84.114 316.794 99.268 323.952 108.098 323.952H92.109C83.279 323.952 76.12 331.112 76.12 339.941C76.12 348.771 83.279 355.93 92.109 355.93H355.93C364.759 355.93 371.919 348.771 371.919 339.941C371.919 331.112 364.759 323.952 355.93 323.952H467.853C476.683 323.952 483.843 316.794 483.843 307.964C483.843 299.134 476.683 291.975 467.853 291.975H427.88C436.71 291.975 443.869 284.816 443.869 275.986C443.869 267.156 436.71 259.997 427.88 259.997H379.913C388.743 259.997 395.902 252.838 395.902 244.008C395.902 235.178 388.743 228.019 379.913 228.019H483.843C492.672 228.019 499.831 220.86 499.831 212.031C499.831 203.201 492.672 196.042 483.843 196.042H443.869C452.699 196.042 459.858 188.883 459.858 180.053C459.858 171.223 452.699 164.064 443.869 164.064H411.891C420.721 164.064 427.879 156.905 427.879 148.075C427.879 139.245 420.721 132.086 411.891 132.086H355.93C364.759 132.086 371.919 124.927 371.919 116.097C371.919 107.268 364.759 100.109 355.93 100.109H467.853C476.683 100.109 483.843 92.95 483.843 84.12C483.843 75.29 476.683 68.131 467.853 68.131H427.88C436.71 68.131 443.869 60.972 443.869 52.142C443.869 43.312 436.71 36.153 427.88 36.153H108.098C99.268 36.153 92.109 43.312 92.109 52.142C92.109 60.972 99.268 68.131 108.098 68.131H68.125C59.295 68.131 52.136 75.29 52.136 84.12C52.136 92.95 59.295 100.109 68.125 100.109H52.136C43.306 100.109 36.147 107.268 36.147 116.097C36.147 124.927 43.306 132.086 52.136 132.086H92.109C83.279 132.086 76.12 139.245 76.12 148.075C76.12 156.905 83.279 164.064 92.109 164.064H76.12C67.29 164.064 60.131 171.223 60.131 180.053C60.131 188.883 67.29 196.042 76.12 196.042H124.087C115.257 196.042 108.098 203.201 108.098 212.031C108.098 220.86 115.257 228.019 124.087 228.019H36.147C27.317 228.019 20.158 235.178 20.158 244.008C20.158 252.838 27.317 259.997 36.147 259.997Z" fill="#FF8DA3"/>
<path d="M180.869 344.65L76.124 499.834H4.173V411.894L116.097 252.003L180.869 344.65Z" fill="#FF1B46"/>
<path d="M124.087 263.433L116.097 252.003L4.173 411.894V435.128L124.087 263.433Z" fill="#FF8DA3"/>
<path d="M507.826 499.834H76.124L291.973 180.052L507.826 499.834Z" fill="#FF1B46"/>
<path d="M291.973 180.052L76.124 499.834H92.113L299.968 191.896L291.973 180.052Z" fill="#FF8DA3"/>
<path d="M92.113 76.13C92.113 89.379 81.374 100.114 68.129 100.114C54.884 100.114 44.146 89.379 44.146 76.13C44.146 62.882 54.885 52.147 68.129 52.147C81.374 52.146 92.113 62.882 92.113 76.13Z" fill="white"/>
<path d="M291.973 180.052L283.979 191.896L491.837 499.834H507.826L291.973 180.052Z" fill="#FF8DA3"/>
<path d="M116.097 252.003L108.098 263.433L164.88 344.65L60.135 499.834H76.124L180.869 344.65L116.097 252.003Z" fill="#99102A"/>
<path d="M371.919 68.128H291.973V92.111H371.919V68.128Z" fill="#FF1B46"/>
<path d="M435.875 116.095H347.935L371.919 92.111H435.875L419.886 104.104L435.875 116.095Z" fill="#FF1B46"/>
<path d="M371.919 68.128H291.973V76.122H371.919V68.128Z" fill="white"/>
<path d="M425.218 100.106H363.924L371.919 92.111H435.875L425.218 100.106Z" fill="white"/>
<path d="M235.438 263.807L291.973 180.052L345.937 259.997H315.956L283.979 275.986L235.438 263.807Z" fill="#FF1B46"/>
<path d="M116.097 252.003L76.924 307.965L116.097 316.623L155.269 307.965L116.097 252.003Z" fill="#FF1B46"/>
<path d="M4.169 415.891C3.377 415.891 2.58 415.657 1.881 415.165C0.0699985 413.9 -0.368002 411.41 0.896998 409.599L112.821 249.707C114.09 247.904 116.58 247.459 118.387 248.731C120.199 249.996 120.636 252.486 119.371 254.297L7.448 414.189C6.671 415.298 5.43 415.891 4.169 415.891Z" fill="#99102A"/>
<path d="M78.12 499.831C77.35 499.831 76.574 499.612 75.887 499.144C74.056 497.91 73.576 495.427 74.81 493.6L290.664 173.818C291.913 171.976 294.411 171.5 296.207 172.741C298.041 173.974 298.525 176.458 297.284 178.284L81.438 498.066C80.665 499.215 79.404 499.831 78.12 499.831Z" fill="#99102A"/>
<path d="M507.826 503.831C506.546 503.831 505.288 503.215 504.515 502.066L288.663 182.284C287.421 180.458 287.905 177.974 289.74 176.741C291.544 175.5 294.042 175.976 295.283 177.818L511.136 497.6C512.378 499.427 511.894 501.91 510.059 503.144C509.38 503.612 508.599 503.831 507.826 503.831Z" fill="#99102A"/>
<path d="M172.051 335.93C170.79 335.93 169.549 335.336 168.772 334.228L112.822 254.298C111.557 252.486 111.995 249.996 113.806 248.732C115.621 247.46 118.108 247.905 119.372 249.708L175.322 329.638C176.587 331.45 176.15 333.941 174.338 335.204C173.644 335.695 172.843 335.93 172.051 335.93Z" fill="#99102A"/>
<path d="M435.875 498.831C434.548 498.831 433.244 498.168 432.486 496.949L392.529 433.009C391.358 431.143 391.928 428.676 393.801 427.505C395.659 426.342 398.134 426.896 399.305 428.777L439.262 492.717C440.434 494.583 439.864 497.05 437.991 498.222C437.335 498.636 436.601 498.831 435.875 498.831Z" fill="#99102A"/>
<path d="M148.071 498.831C147.349 498.831 146.615 498.636 145.955 498.223C144.085 497.051 143.516 494.584 144.686 492.718L184.651 428.778C185.822 426.904 188.285 426.335 190.159 427.506C192.029 428.677 192.599 431.144 191.428 433.01L151.463 496.95C150.706 498.168 149.402 498.831 148.071 498.831Z" fill="#99102A"/>
<path d="M283.979 279.983C283.659 279.983 283.331 279.944 283.003 279.866L234.465 267.687C232.322 267.148 231.023 264.978 231.561 262.831C232.092 260.691 234.286 259.404 236.41 259.927L284.955 272.106C287.095 272.645 288.391 274.816 287.859 276.962C287.397 278.773 285.774 279.983 283.979 279.983Z" fill="#99102A"/>
<path d="M283.979 279.983C282.519 279.983 281.106 279.171 280.403 277.774C279.42 275.798 280.216 273.402 282.191 272.41L314.17 256.422C314.724 256.149 315.341 256 315.957 256H345.937C348.146 256 349.934 257.787 349.934 259.997C349.934 262.207 348.146 263.994 345.937 263.994H316.902L285.767 279.562C285.188 279.851 284.579 279.983 283.979 279.983Z" fill="#99102A"/>
<path d="M291.973 168.06C289.764 168.06 287.976 166.273 287.976 164.063V52.139C287.976 49.93 289.764 48.142 291.973 48.142C294.183 48.142 295.97 49.93 295.97 52.139V164.063C295.97 166.272 294.183 168.06 291.973 168.06Z" fill="#99102A"/>
<path d="M371.919 72.125H291.973C289.764 72.125 287.976 70.337 287.976 68.128C287.976 65.918 289.764 64.131 291.973 64.131H371.919C374.128 64.131 375.916 65.918 375.916 68.128C375.916 70.337 374.128 72.125 371.919 72.125Z" fill="#99102A"/>
<path d="M371.919 96.108H291.973C289.764 96.108 287.976 94.321 287.976 92.111C287.976 89.902 289.764 88.114 291.973 88.114H371.919C374.128 88.114 375.916 89.902 375.916 92.111C375.916 94.321 374.128 96.108 371.919 96.108Z" fill="#99102A"/>
<path d="M371.919 96.108C369.709 96.108 367.921 94.321 367.921 92.111V68.128C367.921 65.918 369.709 64.131 371.919 64.131C374.128 64.131 375.916 65.918 375.916 68.128V92.111C375.916 94.321 374.128 96.108 371.919 96.108Z" fill="#99102A"/>
<path d="M435.875 96.108H379.913C377.704 96.108 375.916 94.321 375.916 92.111C375.916 89.902 377.704 88.114 379.913 88.114H435.875C438.084 88.114 439.872 89.902 439.872 92.111C439.872 94.321 438.084 96.108 435.875 96.108Z" fill="#99102A"/>
<path d="M435.875 120.093H347.935C345.726 120.093 343.938 118.305 343.938 116.095C343.938 113.886 345.726 112.098 347.935 112.098H435.875C438.084 112.098 439.872 113.886 439.872 116.095C439.872 118.305 438.084 120.093 435.875 120.093Z" fill="#99102A"/>
<path d="M435.875 120.093C435.04 120.093 434.196 119.835 433.478 119.296L417.49 107.305C416.482 106.547 415.889 105.361 415.889 104.104C415.889 102.847 416.482 101.661 417.49 100.903L433.478 88.911C435.243 87.592 437.742 87.943 439.077 89.716C440.396 91.481 440.037 93.987 438.272 95.314L426.546 104.105L438.272 112.896C440.037 114.223 440.396 116.729 439.077 118.494C438.287 119.538 437.085 120.093 435.875 120.093Z" fill="#99102A"/>
<path d="M347.935 120.093C346.913 120.093 345.89 119.702 345.109 118.922C343.547 117.36 343.547 114.83 345.109 113.269L369.093 89.286C370.654 87.724 373.183 87.724 374.745 89.286C376.306 90.848 376.306 93.377 374.745 94.938L350.761 118.922C349.98 119.702 348.958 120.093 347.935 120.093Z" fill="#99102A"/>
<path d="M116.097 320.62C115.808 320.62 115.519 320.589 115.234 320.526L76.062 311.868C73.907 311.391 72.544 309.261 73.021 307.105C73.497 304.951 75.628 303.584 77.787 304.06L116.097 312.531L154.407 304.06C156.543 303.577 158.697 304.943 159.174 307.105C159.65 309.26 158.288 311.391 156.133 311.868L116.96 320.526C116.674 320.589 116.386 320.62 116.097 320.62Z" fill="#99102A"/>
<path d="M68.129 104.104C52.702 104.104 40.149 91.55 40.149 76.123C40.149 60.696 52.703 48.143 68.129 48.143C83.556 48.143 96.11 60.697 96.11 76.123C96.11 91.55 83.556 104.104 68.129 104.104ZM68.129 56.136C57.109 56.136 48.143 65.099 48.143 76.122C48.143 87.146 57.11 96.108 68.129 96.108C79.149 96.108 88.115 87.146 88.115 76.122C88.115 65.099 79.149 56.136 68.129 56.136Z" fill="#99102A"/>
<path d="M68.129 40.146C65.92 40.146 64.132 38.359 64.132 36.149V12.166C64.132 9.95601 65.92 8.16901 68.129 8.16901C70.339 8.16901 72.127 9.95601 72.127 12.166V36.149C72.126 38.359 70.339 40.146 68.129 40.146Z" fill="#99102A"/>
<path d="M68.129 144.076C65.92 144.076 64.132 142.288 64.132 140.079V116.095C64.132 113.886 65.92 112.098 68.129 112.098C70.339 112.098 72.127 113.886 72.127 116.095V140.079C72.126 142.288 70.339 144.076 68.129 144.076Z" fill="#99102A"/>
<path d="M48.146 45.503C46.764 45.503 45.421 44.784 44.68 43.504L32.688 22.729C31.584 20.816 32.239 18.373 34.152 17.271C36.057 16.155 38.505 16.819 39.613 18.731L51.605 39.506C52.709 41.419 52.054 43.862 50.141 44.963C49.513 45.331 48.826 45.503 48.146 45.503Z" fill="#99102A"/>
<path d="M100.111 135.512C98.729 135.512 97.386 134.793 96.645 133.513L84.653 112.739C83.548 110.826 84.204 108.383 86.117 107.282C88.022 106.157 90.47 106.829 91.578 108.742L103.57 129.516C104.675 131.429 104.019 133.872 102.106 134.973C101.478 135.34 100.791 135.512 100.111 135.512Z" fill="#99102A"/>
<path d="M33.508 60.134C32.829 60.134 32.142 59.962 31.513 59.595L10.738 47.603C8.826 46.502 8.17 44.059 9.274 42.146C10.379 40.233 12.827 39.562 14.735 40.686L35.51 52.678C37.423 53.779 38.078 56.222 36.974 58.135C36.233 59.415 34.89 60.134 33.508 60.134Z" fill="#99102A"/>
<path d="M123.51 112.098C122.83 112.098 122.144 111.926 121.515 111.56L100.748 99.568C98.835 98.467 98.179 96.023 99.284 94.111C100.393 92.198 102.828 91.527 104.745 92.651L125.512 104.642C127.425 105.744 128.081 108.187 126.976 110.1C126.234 111.38 124.892 112.098 123.51 112.098Z" fill="#99102A"/>
<path d="M4.17299 80.128C1.96699 80.128 0.175995 78.34 0.175995 76.13C0.175995 73.921 1.96399 72.133 4.17299 72.133L28.156 72.125C30.362 72.125 32.154 73.913 32.154 76.122C32.154 78.332 30.366 80.12 28.156 80.12L4.17299 80.128Z" fill="#99102A"/>
<path d="M132.086 80.128L108.102 80.12C105.893 80.12 104.104 78.332 104.104 76.122C104.104 73.913 105.896 72.125 108.102 72.125L132.086 72.133C134.295 72.133 136.083 73.921 136.083 76.13C136.083 78.34 134.291 80.128 132.086 80.128Z" fill="#99102A"/>
<path d="M12.749 112.105C11.367 112.105 10.024 111.387 9.28199 110.107C8.17799 108.194 8.83399 105.751 10.746 104.649L31.514 92.65C33.415 91.526 35.87 92.197 36.975 94.11C38.079 96.022 37.424 98.466 35.511 99.567L14.744 111.567C14.115 111.934 13.428 112.105 12.749 112.105Z" fill="#99102A"/>
<path d="M102.75 60.134C101.368 60.134 100.025 59.415 99.284 58.135C98.179 56.222 98.835 53.779 100.748 52.67L121.523 40.686C123.428 39.585 125.876 40.241 126.984 42.154C128.089 44.067 127.433 46.51 125.52 47.611L104.746 59.603C104.116 59.962 103.43 60.134 102.75 60.134Z" fill="#99102A"/>
<path d="M36.155 135.512C35.476 135.512 34.793 135.34 34.16 134.973C32.247 133.872 31.592 131.429 32.696 129.516L44.68 108.742C45.784 106.829 48.22 106.157 50.141 107.282C52.054 108.383 52.709 110.826 51.605 112.739L39.621 133.513C38.88 134.793 37.537 135.512 36.155 135.512Z" fill="#99102A"/>
<path d="M88.111 45.503C87.432 45.503 86.745 45.331 86.117 44.964C84.204 43.863 83.548 41.42 84.653 39.507L96.653 18.739C97.758 16.827 100.201 16.155 102.114 17.279C104.027 18.381 104.683 20.824 103.578 22.737L91.578 43.504C90.836 44.784 89.494 45.503 88.111 45.503Z" fill="#99102A"/>
<path d="M180.049 184.057C178.086 184.057 176.376 182.613 176.095 180.615C174.35 168.209 156.253 168.068 156.07 168.068C153.861 168.068 152.073 166.28 152.073 164.071C152.073 161.862 153.861 160.074 156.07 160.074C164.791 160.074 181.849 164.134 184.012 179.506C184.32 181.693 182.798 183.714 180.612 184.019C180.42 184.041 180.232 184.057 180.049 184.057Z" fill="#99102A"/>
<path d="M180.053 184.057C179.604 184.057 179.148 183.979 178.702 183.823C176.626 183.074 175.544 180.786 176.29 178.71C180.35 167.405 200.578 160.948 202.869 160.246C204.993 159.613 207.21 160.792 207.858 162.9C208.502 165.015 207.315 167.249 205.204 167.896C198.021 170.09 185.861 175.711 183.816 181.411C183.23 183.042 181.692 184.057 180.053 184.057Z" fill="#99102A"/>
<path d="M60.135 216.027C58.445 216.027 56.879 214.95 56.333 213.256C54.057 206.222 45.934 207.752 45.009 207.939C42.905 208.416 40.731 207.049 40.255 204.895C39.778 202.748 41.117 200.624 43.261 200.14C48.812 198.852 60.284 199.484 63.938 210.804C64.618 212.905 63.466 215.153 61.366 215.832C60.954 215.965 60.541 216.027 60.135 216.027Z" fill="#99102A"/>
<path d="M60.139 216.027C59.928 216.027 59.713 216.011 59.494 215.972C57.316 215.62 55.837 213.568 56.188 211.389C57.562 202.926 71.423 200.584 75.639 200.069C77.841 199.757 79.816 201.357 80.089 203.544C80.359 205.737 78.801 207.729 76.611 208.001C70.252 208.79 64.307 211.272 64.08 212.67C63.761 214.63 62.067 216.027 60.139 216.027Z" fill="#99102A"/>
</svg>
