<svg width="1000" height="1000" viewBox="0 0 1000 1000" fill="none" xmlns="http://www.w3.org/2000/svg">
<path d="M656.053 1000H220.183C219.699 1000 219.234 999.808 218.892 999.465C218.55 999.123 218.358 998.659 218.358 998.175C218.358 997.691 218.55 997.227 218.892 996.884C219.234 996.542 219.699 996.35 220.183 996.35H656.053C656.537 996.35 657.001 996.542 657.343 996.884C657.686 997.227 657.878 997.691 657.878 998.175C657.878 998.659 657.686 999.123 657.343 999.465C657.001 999.808 656.537 1000 656.053 1000Z" fill="#262424"/>
<path d="M715.583 1000H682.96C682.476 1000 682.012 999.808 681.67 999.465C681.327 999.123 681.135 998.659 681.135 998.175C681.135 997.691 681.327 997.227 681.67 996.884C682.012 996.542 682.476 996.35 682.96 996.35H715.583C716.067 996.35 716.531 996.542 716.873 996.884C717.216 997.227 717.408 997.691 717.408 998.175C717.408 998.659 717.216 999.123 716.873 999.465C716.531 999.808 716.067 1000 715.583 1000Z" fill="#262424"/>
<path d="M424.425 440.702C545.617 440.702 643.863 342.456 643.863 221.264C643.863 100.071 545.617 1.82544 424.425 1.82544C303.232 1.82544 204.986 100.071 204.986 221.264C204.986 342.456 303.232 440.702 424.425 440.702Z" fill="white"/>
<path d="M424.425 442.527C373.234 442.527 323.627 424.778 284.056 392.303C244.485 359.829 217.399 314.638 207.411 264.431C197.424 214.224 205.155 162.108 229.285 116.962C253.416 71.8157 292.454 36.4333 339.748 16.8432C387.042 -2.74678 439.665 -5.33231 488.651 9.5272C537.637 24.3867 579.956 55.7719 608.396 98.335C636.836 140.898 649.638 192.006 644.621 242.95C639.604 293.894 617.077 341.522 580.881 377.719C560.382 398.33 536 414.67 509.144 425.794C482.288 436.918 453.493 442.606 424.425 442.527ZM424.425 3.65047C304.431 3.65047 206.836 101.27 206.836 221.263C206.836 341.256 304.456 438.876 424.449 438.876C544.442 438.876 642.062 341.256 642.062 221.263C642.062 101.27 544.418 3.65047 424.425 3.65047Z" fill="#262424"/>
<path d="M424.425 56.846V221.263L281.992 139.046C296.422 114.043 317.184 93.2808 342.188 78.8506C367.192 64.4204 395.556 56.8309 424.425 56.846Z" fill="#FF1B46"/>
<path d="M332.635 64.0971C332.314 64.0975 331.998 64.013 331.719 63.852C331.441 63.691 331.21 63.4593 331.05 63.1803L324.789 52.3282C324.547 51.9087 324.482 51.4103 324.607 50.9426C324.733 50.4748 325.039 50.0761 325.458 49.834C325.878 49.592 326.376 49.5265 326.844 49.6519C327.312 49.7774 327.711 50.0835 327.953 50.503L334.213 61.3551C334.374 61.6325 334.459 61.9474 334.46 62.2681C334.46 62.5888 334.377 62.904 334.217 63.182C334.057 63.46 333.826 63.691 333.549 63.8516C333.271 64.0123 332.956 64.0969 332.635 64.0971Z" fill="#262424"/>
<path d="M265.433 131.299C265.114 131.298 264.8 131.213 264.525 131.052L253.672 124.775C253.253 124.533 252.947 124.134 252.821 123.666C252.696 123.199 252.761 122.7 253.003 122.281C253.245 121.861 253.644 121.555 254.112 121.43C254.58 121.304 255.078 121.37 255.498 121.612L266.35 127.872C266.709 128.068 266.992 128.379 267.154 128.755C267.315 129.131 267.345 129.551 267.24 129.946C267.134 130.342 266.898 130.69 266.571 130.936C266.243 131.181 265.842 131.309 265.433 131.299Z" fill="#262424"/>
<path d="M254.589 321.146C254.185 321.149 253.792 321.018 253.471 320.773C253.149 320.529 252.918 320.185 252.814 319.795C252.709 319.405 252.736 318.991 252.892 318.619C253.047 318.246 253.322 317.935 253.672 317.735L264.525 311.475C264.944 311.233 265.442 311.168 265.91 311.293C266.378 311.419 266.777 311.725 267.019 312.144C267.261 312.564 267.326 313.062 267.201 313.53C267.075 313.997 266.769 314.396 266.35 314.638L255.498 320.898C255.222 321.059 254.908 321.145 254.589 321.146Z" fill="#262424"/>
<path d="M326.367 392.924C326.046 392.924 325.731 392.839 325.454 392.678C325.176 392.518 324.946 392.287 324.786 392.009C324.626 391.731 324.542 391.415 324.543 391.095C324.543 390.774 324.628 390.459 324.79 390.182L331.05 379.33C331.292 378.91 331.691 378.604 332.158 378.479C332.626 378.353 333.124 378.419 333.544 378.661C333.963 378.903 334.27 379.302 334.395 379.769C334.52 380.237 334.455 380.735 334.213 381.155L327.953 392.007C327.793 392.286 327.562 392.518 327.283 392.679C327.005 392.84 326.689 392.924 326.367 392.924Z" fill="#262424"/>
<path d="M522.482 392.924C522.16 392.924 521.844 392.84 521.566 392.679C521.287 392.518 521.056 392.286 520.896 392.007L514.636 381.155C514.394 380.735 514.329 380.237 514.454 379.769C514.58 379.302 514.886 378.903 515.305 378.661C515.725 378.419 516.223 378.353 516.691 378.479C517.158 378.604 517.557 378.91 517.799 379.33L524.059 390.182C524.221 390.459 524.306 390.774 524.306 391.095C524.307 391.415 524.223 391.731 524.063 392.009C523.903 392.287 523.673 392.518 523.395 392.678C523.118 392.839 522.803 392.924 522.482 392.924Z" fill="#262424"/>
<path d="M594.26 321.146C593.94 321.145 593.627 321.059 593.351 320.898L582.499 314.638C582.08 314.396 581.774 313.997 581.648 313.53C581.523 313.062 581.588 312.564 581.83 312.144C582.072 311.725 582.471 311.419 582.939 311.293C583.407 311.168 583.905 311.233 584.324 311.475L595.177 317.735C595.527 317.935 595.802 318.246 595.957 318.619C596.113 318.991 596.14 319.405 596.035 319.795C595.931 320.185 595.7 320.529 595.378 320.773C595.057 321.018 594.664 321.149 594.26 321.146Z" fill="#262424"/>
<path d="M583.441 131.3C583.037 131.302 582.644 131.171 582.322 130.927C582.001 130.682 581.77 130.338 581.665 129.948C581.56 129.558 581.588 129.145 581.743 128.772C581.899 128.399 582.173 128.089 582.524 127.889L593.351 121.62C593.559 121.5 593.788 121.423 594.026 121.391C594.264 121.36 594.505 121.376 594.737 121.438C594.969 121.5 595.186 121.607 595.376 121.753C595.566 121.899 595.726 122.081 595.846 122.289C595.966 122.497 596.043 122.726 596.075 122.964C596.106 123.202 596.09 123.443 596.028 123.675C595.966 123.906 595.858 124.123 595.712 124.314C595.566 124.504 595.384 124.663 595.177 124.783L584.325 131.044C584.057 131.203 583.752 131.291 583.441 131.3Z" fill="#262424"/>
<path d="M516.214 64.0971C515.893 64.0969 515.578 64.0123 515.3 63.8516C515.023 63.691 514.792 63.46 514.632 63.182C514.472 62.904 514.389 62.5888 514.389 62.2681C514.39 61.9474 514.475 61.6325 514.636 61.3551L520.896 50.503C521.138 50.0835 521.537 49.7774 522.005 49.6519C522.473 49.5265 522.971 49.592 523.391 49.834C523.81 50.0761 524.116 50.4748 524.242 50.9426C524.367 51.4103 524.302 51.9087 524.06 52.3282L517.799 63.1803C517.639 63.4593 517.408 63.691 517.13 63.852C516.851 64.013 516.535 64.0975 516.214 64.0971Z" fill="#262424"/>
<path d="M424.425 58.9435C423.941 58.9435 423.476 58.7512 423.134 58.4089C422.792 58.0666 422.599 57.6024 422.599 57.1183V25.1565C422.599 24.6724 422.792 24.2082 423.134 23.8659C423.476 23.5236 423.941 23.3313 424.425 23.3313C424.909 23.3313 425.373 23.5236 425.715 23.8659C426.057 24.2082 426.25 24.6724 426.25 25.1565V57.1183C426.25 57.6024 426.057 58.0666 425.715 58.4089C425.373 58.7512 424.909 58.9435 424.425 58.9435Z" fill="#262424"/>
<path d="M620.531 223.055H588.569C588.085 223.055 587.621 222.863 587.279 222.521C586.937 222.179 586.744 221.714 586.744 221.23C586.744 220.746 586.937 220.282 587.279 219.94C587.621 219.597 588.085 219.405 588.569 219.405H620.531C621.015 219.405 621.48 219.597 621.822 219.94C622.164 220.282 622.356 220.746 622.356 221.23C622.356 221.714 622.164 222.179 621.822 222.521C621.48 222.863 621.015 223.055 620.531 223.055Z" fill="#262424"/>
<path d="M424.425 419.204C423.941 419.204 423.476 419.011 423.134 418.669C422.792 418.327 422.599 417.862 422.599 417.378V385.417C422.599 384.932 422.792 384.468 423.134 384.126C423.476 383.784 423.941 383.591 424.425 383.591C424.909 383.591 425.373 383.784 425.715 384.126C426.057 384.468 426.25 384.932 426.25 385.417V417.378C426.25 417.862 426.057 418.327 425.715 418.669C425.373 419.011 424.909 419.204 424.425 419.204Z" fill="#262424"/>
<path d="M260.28 223.055H228.31C227.826 223.055 227.361 222.863 227.019 222.521C226.677 222.179 226.484 221.714 226.484 221.23C226.484 220.746 226.677 220.282 227.019 219.94C227.361 219.597 227.826 219.405 228.31 219.405H260.271C260.755 219.404 261.22 219.595 261.563 219.937C261.906 220.278 262.1 220.742 262.101 221.226C262.102 221.71 261.911 222.175 261.569 222.518C261.228 222.861 260.764 223.054 260.28 223.055Z" fill="#262424"/>
<path d="M447.698 860.442L441.049 913.596H463.398L476.084 860.442H447.698Z" fill="white"/>
<path d="M463.398 915.421H441.05C440.791 915.421 440.535 915.365 440.299 915.259C440.063 915.152 439.852 914.996 439.681 914.801C439.51 914.607 439.382 914.378 439.306 914.13C439.23 913.883 439.208 913.622 439.241 913.365L445.848 860.202C445.902 859.761 446.116 859.354 446.449 859.059C446.782 858.764 447.212 858.601 447.657 858.6H476.076C476.352 858.6 476.625 858.662 476.873 858.783C477.122 858.903 477.34 859.079 477.511 859.296C477.682 859.513 477.802 859.766 477.861 860.036C477.919 860.306 477.916 860.586 477.851 860.855L465.166 914.017C465.071 914.415 464.845 914.77 464.525 915.025C464.204 915.28 463.808 915.419 463.398 915.421ZM443.114 911.771H461.953L473.763 862.267H449.309L443.114 911.771Z" fill="#262424"/>
<path d="M477.298 998.175H378.827V986.753C378.827 985.117 378.946 983.483 379.183 981.864C380.176 974.932 383.252 968.466 388.003 963.322C397.088 953.503 411.954 935.49 428.372 907.856H473.978C473.978 907.856 476.257 951.843 477.042 981.864C477.199 988.066 477.298 993.682 477.298 998.175Z" fill="#000A1D"/>
<path d="M477.298 998.175H378.827V986.753C378.827 985.117 378.946 983.483 379.183 981.864H477.034C477.199 988.066 477.298 993.682 477.298 998.175Z" fill="white"/>
<path d="M477.298 1000H378.827C378.588 1000 378.35 999.953 378.129 999.861C377.908 999.769 377.706 999.635 377.537 999.465C377.367 999.296 377.233 999.095 377.141 998.873C377.049 998.652 377.002 998.415 377.002 998.175V986.753C377.002 985.028 377.126 983.306 377.374 981.599C377.437 981.165 377.655 980.768 377.987 980.482C378.319 980.195 378.744 980.038 379.183 980.038H477.034C477.509 980.038 477.966 980.224 478.307 980.555C478.648 980.887 478.846 981.339 478.859 981.814C479.032 988.462 479.123 993.971 479.123 998.175C479.123 998.415 479.076 998.652 478.984 998.873C478.892 999.095 478.758 999.296 478.589 999.465C478.419 999.635 478.218 999.769 477.996 999.861C477.775 999.953 477.538 1000 477.298 1000ZM380.669 996.35H475.481C475.481 992.864 475.39 988.619 475.266 983.689H380.801C380.702 984.705 380.653 985.729 380.653 986.753V996.341L380.669 996.35Z" fill="#262424"/>
<path d="M467.329 488.322L445.584 838.994L492.701 839.902L568.996 537.388C570.175 532.724 570.913 527.96 571.201 523.158C572.779 496.639 574.505 411.159 531.666 410.391C480.923 409.483 471.855 450.265 467.329 488.322Z" fill="#000A1D"/>
<path d="M482.129 835.384C482.003 835.397 481.876 835.397 481.749 835.384C481.514 835.335 481.292 835.24 481.093 835.105C480.895 834.97 480.726 834.796 480.594 834.595C480.463 834.394 480.373 834.169 480.329 833.934C480.285 833.698 480.288 833.455 480.337 833.221L540.99 546.753C541.04 546.519 541.136 546.296 541.272 546.098C541.408 545.9 541.581 545.731 541.783 545.6C541.984 545.47 542.209 545.38 542.445 545.336C542.681 545.292 542.923 545.295 543.158 545.345C543.393 545.395 543.616 545.491 543.814 545.627C544.011 545.763 544.181 545.936 544.311 546.138C544.442 546.339 544.532 546.564 544.576 546.8C544.619 547.036 544.616 547.278 544.566 547.513L483.921 833.939C483.834 834.349 483.608 834.717 483.282 834.98C482.956 835.243 482.549 835.386 482.129 835.384Z" fill="#262424"/>
<path d="M550.695 551.99C550.471 551.988 550.25 551.946 550.042 551.866L542.147 548.835C538.707 547.508 535.713 545.237 533.51 542.282C531.306 539.327 529.983 535.81 529.692 532.135L526.455 489.817C526.418 489.334 526.574 488.856 526.889 488.488C527.204 488.12 527.652 487.892 528.135 487.855C528.618 487.818 529.096 487.974 529.464 488.289C529.832 488.605 530.06 489.053 530.097 489.536L533.326 531.863C533.563 534.847 534.639 537.703 536.429 540.103C538.219 542.502 540.65 544.347 543.443 545.424L551.355 548.455C551.758 548.605 552.094 548.893 552.305 549.267C552.517 549.641 552.589 550.077 552.51 550.5C552.431 550.922 552.206 551.303 551.874 551.576C551.542 551.848 551.124 551.995 550.695 551.99Z" fill="#262424"/>
<path d="M500.275 702.555C501.776 686.611 494.412 672.878 483.827 671.881C473.241 670.884 463.443 683.001 461.941 698.945C460.44 714.889 467.804 728.623 478.389 729.619C488.975 730.616 498.773 718.499 500.275 702.555Z" fill="white"/>
<path d="M439.654 822.583L499.2 827.604C499.974 827.67 500.726 827.894 501.41 828.262C502.093 828.631 502.694 829.136 503.174 829.746C503.654 830.357 504.004 831.059 504.201 831.81C504.398 832.561 504.439 833.345 504.321 834.112L498.54 871.847C498.321 873.26 497.577 874.538 496.455 875.425C495.334 876.311 493.919 876.742 492.494 876.629L437.573 872.326C436.128 872.212 434.783 871.55 433.812 870.475C432.841 869.399 432.319 867.993 432.353 866.545L433.517 828.083C433.537 827.312 433.714 826.553 434.038 825.852C434.362 825.152 434.825 824.525 435.4 824.01C435.974 823.495 436.648 823.103 437.379 822.857C438.111 822.612 438.885 822.519 439.654 822.583Z" fill="#FF1B46"/>
<path d="M797.602 655.498C793.844 665.945 787.608 666.391 780.456 661.353C760.296 647.173 732.819 589.443 732.819 589.443V570.696C741.214 563.538 750.765 557.86 761.064 553.906C763.883 552.809 766.759 551.863 769.678 551.073C769.678 551.073 811.964 615.616 797.602 655.498Z" fill="#000A1D"/>
<path d="M800.583 654.168C796.817 664.616 787.608 666.416 780.464 661.378C790.623 660.825 796.041 648.024 791.729 627.434C787.253 606.044 769.356 569.92 761.073 553.931C763.798 552.873 768.167 550.924 771.19 550.115C771.181 550.107 812.567 620.918 800.583 654.168Z" fill="white"/>
<path d="M788.459 665.871C785.19 665.826 782.016 664.767 779.374 662.84C779.069 662.621 778.838 662.312 778.715 661.956C778.592 661.601 778.581 661.216 778.685 660.854C778.789 660.492 779.003 660.172 779.296 659.936C779.589 659.7 779.948 659.561 780.324 659.537C781.726 659.47 783.095 659.088 784.329 658.419C785.563 657.749 786.63 656.81 787.451 655.672C791.581 650.287 792.481 640.12 789.929 627.79C785.444 606.317 767.11 569.565 759.437 554.748C759.319 554.521 759.25 554.271 759.234 554.015C759.219 553.759 759.258 553.502 759.348 553.262C759.439 553.022 759.579 552.804 759.759 552.622C759.939 552.44 760.156 552.297 760.395 552.204C761.122 551.924 761.956 551.577 762.873 551.213C765.43 550.107 768.046 549.144 770.711 548.331C771.096 548.224 771.507 548.247 771.879 548.396C772.25 548.545 772.562 548.813 772.767 549.157C774.477 552.081 814.441 621.108 802.301 654.755C800.36 660.131 796.85 663.84 792.39 665.268C791.118 665.668 789.792 665.871 788.459 665.871ZM785.676 661.841C787.523 662.36 789.48 662.34 791.316 661.783C794.686 660.718 797.296 657.86 798.865 653.524C809.602 623.85 775.74 561.851 770.322 552.262C768.415 552.89 766.193 553.815 764.26 554.591L763.625 554.856C771.817 570.803 789.111 605.978 793.522 627.038C796.363 640.607 795.256 651.567 790.391 657.893C789.141 659.551 787.528 660.902 785.676 661.841Z" fill="#262424"/>
<path d="M712.659 578.253L742.11 566.93C742.11 566.93 752.079 569.878 748.23 584.827L721.95 599.552L712.659 578.253Z" fill="white"/>
<path d="M721.95 601.378C721.598 601.373 721.255 601.267 720.962 601.072C720.669 600.877 720.438 600.602 720.298 600.279L710.991 579.013C710.891 578.787 710.839 578.543 710.837 578.296C710.835 578.05 710.883 577.805 710.978 577.577C711.072 577.349 711.213 577.143 711.389 576.971C711.566 576.799 711.776 576.665 712.006 576.576L741.458 565.253C741.832 565.108 742.245 565.091 742.63 565.204C742.746 565.204 754.242 568.838 749.997 585.306C749.936 585.545 749.827 585.77 749.676 585.966C749.526 586.161 749.337 586.325 749.122 586.446L722.842 601.171C722.567 601.315 722.26 601.386 721.95 601.378ZM715.104 579.277L722.817 596.967L746.644 583.613C749.122 573.058 743.853 569.688 742.11 568.879L715.104 579.277Z" fill="#262424"/>
<path d="M685.892 584.207L687.387 579.252C687.777 577.961 688.476 576.784 689.423 575.822C690.37 574.861 691.536 574.145 692.821 573.735L711.982 567.615C713.21 567.219 714.513 567.115 715.788 567.313C717.063 567.511 718.274 568.005 719.324 568.755C726.823 574.123 742.399 589.402 734.19 620.059C733.786 621.563 732.971 622.924 731.836 623.99L721.488 633.719C720.512 634.645 719.325 635.319 718.029 635.682C716.734 636.044 715.37 636.085 714.055 635.8C703.822 633.612 680.037 624.329 685.595 585.421C685.664 585.01 685.764 584.604 685.892 584.207Z" fill="#FF1B46"/>
<path d="M713.105 629.226C703.249 641.268 692.499 652.549 680.945 662.972C668.557 673.965 654.36 684.181 641.591 687.377C636.752 688.583 632.003 687.757 627.378 685.387C601.974 672.321 580.352 612.37 569.103 585.289C555.831 553.261 546.771 505.509 542.774 473.861C538.777 442.213 547.126 415.446 569.112 406.468C598.711 394.377 626.502 414.017 634.959 450.562C643.417 487.108 666.971 588.601 666.971 588.601L693.474 579.995C724.593 584.794 713.105 629.226 713.105 629.226Z" fill="#000A1D"/>
<path d="M560.093 561.116C559.698 561.116 559.314 560.987 558.999 560.751C558.683 560.514 558.453 560.181 558.342 559.803C551.157 535.439 544.657 503.395 540.998 474.084C536.646 439.479 546.912 413.563 568.459 404.775C568.681 404.685 568.919 404.639 569.16 404.64C569.4 404.642 569.637 404.69 569.858 404.784C570.08 404.877 570.28 405.013 570.449 405.183C570.618 405.354 570.751 405.557 570.842 405.779C570.932 406.001 570.978 406.239 570.977 406.479C570.975 406.719 570.927 406.957 570.834 407.178C570.74 407.399 570.604 407.6 570.434 407.769C570.263 407.938 570.061 408.071 569.838 408.162C549.877 416.313 540.445 440.759 544.624 473.63C548.299 502.75 554.749 534.58 561.885 558.77C561.967 559.046 561.983 559.338 561.931 559.621C561.879 559.904 561.761 560.171 561.586 560.399C561.411 560.628 561.185 560.812 560.925 560.937C560.666 561.061 560.381 561.123 560.093 561.116Z" fill="#262424"/>
<path d="M680.962 662.964C668.573 673.957 654.376 684.173 641.608 687.369C636.768 688.575 632.02 687.749 627.395 685.379C620.11 674.642 628.551 660.519 654.905 657.299C668.02 655.721 676.56 658.43 680.962 662.964Z" fill="white"/>
<path d="M663.354 622.14C662.965 622.141 662.586 622.016 662.272 621.786C661.959 621.556 661.727 621.232 661.611 620.86C642.616 560.744 610.786 459.631 610.786 457.814C610.77 457.339 610.94 456.877 611.26 456.525C611.58 456.174 612.024 455.961 612.499 455.932C612.973 455.903 613.44 456.06 613.8 456.37C614.161 456.679 614.386 457.117 614.428 457.591C615.328 461.778 647.191 563.04 664.502 617.871L702.493 602.311C702.94 602.127 703.443 602.128 703.89 602.315C704.337 602.502 704.691 602.858 704.875 603.306C705.059 603.754 705.058 604.257 704.871 604.704C704.684 605.15 704.328 605.505 703.88 605.689L664.039 622C663.822 622.091 663.589 622.138 663.354 622.14ZM614.428 457.607C614.432 457.673 614.432 457.739 614.428 457.806C614.434 457.74 614.434 457.673 614.428 457.607Z" fill="#262424"/>
<path d="M656.053 645.992C655.736 645.992 655.424 645.908 655.149 645.751C654.873 645.593 654.644 645.366 654.483 645.093C654.322 644.819 654.235 644.508 654.231 644.191C654.227 643.874 654.305 643.561 654.459 643.283C663.544 626.807 663.635 600.411 663.635 600.147C663.633 599.907 663.68 599.669 663.771 599.446C663.862 599.224 663.997 599.022 664.166 598.851C664.336 598.681 664.537 598.546 664.759 598.453C664.981 598.361 665.219 598.314 665.46 598.314C665.699 598.314 665.937 598.361 666.158 598.453C666.38 598.544 666.581 598.679 666.75 598.848C666.92 599.018 667.054 599.219 667.146 599.44C667.238 599.662 667.285 599.899 667.285 600.139C667.285 601.262 667.219 627.757 657.655 645.051C657.497 645.337 657.265 645.575 656.983 645.741C656.701 645.906 656.38 645.993 656.053 645.992Z" fill="#262424"/>
<path d="M775.922 237.789L853.944 287.433L806.133 422.648L717.846 418.832L775.922 237.789Z" fill="#000A1D"/>
<path d="M727.748 235.807L775.922 237.789L717.845 418.832L678.839 388.621L727.748 235.807Z" fill="#FF1B46"/>
<path d="M719.101 265.903L704.97 259.585C703.59 258.967 702.097 258.645 700.586 258.638C699.075 258.631 697.579 258.939 696.194 259.543C694.809 260.147 693.565 261.033 692.542 262.145C691.519 263.258 690.739 264.571 690.253 266.002L667.681 332.519C667.205 333.916 667.019 335.396 667.135 336.868C667.25 338.34 667.665 339.773 668.353 341.079C669.041 342.385 669.988 343.538 671.136 344.466C672.284 345.394 673.61 346.078 675.031 346.476L690.839 350.903C692.515 351.371 694.305 351.192 695.856 350.403C697.407 349.614 698.605 348.271 699.213 346.641C699.546 345.747 699.69 344.795 699.638 343.843C699.586 342.89 699.338 341.959 698.91 341.107C698.483 340.255 697.884 339.5 697.152 338.889C696.42 338.278 695.57 337.825 694.655 337.557L685.983 335.029L705.341 275.632L713.196 279.158C714.121 279.574 715.124 279.791 716.139 279.795C717.153 279.799 718.158 279.591 719.087 279.183C720.016 278.775 720.849 278.177 721.533 277.428C722.217 276.678 722.736 275.793 723.057 274.83C723.626 273.117 723.536 271.253 722.804 269.602C722.073 267.951 720.752 266.632 719.101 265.903Z" fill="white"/>
<path d="M692.64 352.976C691.852 352.975 691.069 352.867 690.311 352.654L674.503 348.227C672.842 347.762 671.294 346.963 669.952 345.879C668.61 344.796 667.504 343.45 666.7 341.924C665.896 340.398 665.412 338.724 665.276 337.005C665.141 335.286 665.358 333.557 665.914 331.924L688.527 265.415C689.095 263.744 690.005 262.21 691.2 260.911C692.394 259.612 693.847 258.577 695.464 257.871C697.082 257.165 698.829 256.805 700.594 256.812C702.358 256.82 704.102 257.196 705.713 257.916L719.844 264.234C722.043 265.22 723.761 267.039 724.619 269.291C725.477 271.543 725.405 274.044 724.42 276.243C723.434 278.442 721.615 280.159 719.363 281.017C717.111 281.875 714.61 281.804 712.411 280.818L706.415 278.126L688.246 333.79L695.101 335.789C697.136 336.372 698.892 337.672 700.043 339.449C701.194 341.226 701.663 343.36 701.363 345.455C701.063 347.551 700.014 349.468 698.41 350.85C696.807 352.233 694.757 352.988 692.64 352.976ZM700.535 260.476C698.648 260.484 696.811 261.079 695.277 262.179C693.744 263.278 692.591 264.828 691.979 266.613L669.366 333.121C668.972 334.284 668.818 335.515 668.915 336.739C669.012 337.962 669.358 339.154 669.93 340.24C670.503 341.325 671.291 342.283 672.246 343.054C673.201 343.826 674.304 344.394 675.486 344.725L691.293 349.152C692.528 349.49 693.844 349.356 694.985 348.775C696.125 348.195 697.009 347.21 697.463 346.014C697.709 345.355 697.816 344.652 697.779 343.95C697.741 343.247 697.558 342.56 697.243 341.931C696.927 341.303 696.486 340.746 695.945 340.296C695.404 339.846 694.777 339.512 694.101 339.316L685.43 336.788C685.195 336.72 684.976 336.605 684.787 336.45C684.597 336.295 684.441 336.104 684.327 335.887C684.213 335.671 684.143 335.433 684.123 335.189C684.102 334.946 684.131 334.7 684.207 334.468L703.574 275.086C703.654 274.844 703.783 274.62 703.955 274.431C704.126 274.241 704.335 274.09 704.569 273.986C704.802 273.883 705.055 273.83 705.311 273.83C705.566 273.83 705.819 273.884 706.052 273.988L713.906 277.515C714.561 277.838 715.275 278.026 716.004 278.068C716.734 278.109 717.464 278.003 718.152 277.756C718.84 277.509 719.47 277.125 720.006 276.628C720.542 276.132 720.973 275.532 721.272 274.865C721.571 274.199 721.732 273.478 721.746 272.748C721.76 272.017 721.627 271.291 721.354 270.613C721.081 269.936 720.675 269.32 720.158 268.803C719.642 268.285 719.027 267.878 718.349 267.604L704.218 261.286C703.065 260.755 701.813 260.473 700.543 260.46L700.535 260.476Z" fill="#262424"/>
<path d="M685.983 272.708C681.234 269.214 666.269 277.044 666.269 277.044C666.269 277.044 567.584 223.535 556.88 221.404C546.177 219.273 492.073 245.495 464.216 261.046C436.359 276.598 427.547 291.166 431.965 300.292C448.821 335.128 552.966 282.668 552.966 282.668L664.295 307.279C664.295 307.279 670.126 318.842 674.784 327.167C675.15 327.821 675.699 328.356 676.362 328.705C677.026 329.055 677.777 329.204 678.524 329.136C679.271 329.068 679.982 328.785 680.571 328.321C681.161 327.857 681.603 327.233 681.845 326.523L692.367 295.866C693.497 292.595 693.804 289.096 693.263 285.679C692.721 282.261 691.347 279.029 689.262 276.267C688.329 274.943 687.227 273.746 685.983 272.708Z" fill="white"/>
<path d="M678.137 330.958C677.125 330.962 676.131 330.693 675.259 330.18C674.387 329.667 673.669 328.928 673.181 328.042C669.25 321.03 664.435 311.599 663.048 308.857L553.205 284.568C546.532 287.871 492.775 314.035 457.931 314.035C452.987 314.139 448.058 313.442 443.337 311.971C437.201 309.889 432.824 306.189 430.329 301.069C424.788 289.622 437.135 274.062 463.365 259.436C484.012 247.873 544.657 217.06 557.285 219.603C567.716 221.701 656.044 269.413 666.302 274.987C670.283 272.997 682.126 267.604 687.073 271.246C688.458 272.377 689.683 273.691 690.715 275.152C692.985 278.15 694.481 281.661 695.07 285.375C695.659 289.089 695.324 292.891 694.093 296.444L683.563 327.117C683.211 328.166 682.56 329.089 681.69 329.771C680.819 330.454 679.768 330.866 678.665 330.958H678.137ZM552.957 280.818C553.09 280.817 553.223 280.831 553.354 280.859L664.683 305.471C664.948 305.529 665.197 305.647 665.412 305.814C665.626 305.981 665.8 306.194 665.922 306.437C665.98 306.553 671.786 318.082 676.369 326.258C676.564 326.605 676.855 326.888 677.207 327.073C677.559 327.258 677.957 327.336 678.353 327.3C678.749 327.263 679.125 327.112 679.437 326.866C679.749 326.62 679.983 326.288 680.111 325.911L690.632 295.255C691.668 292.269 691.952 289.073 691.458 285.951C690.964 282.83 689.707 279.878 687.8 277.358C686.979 276.174 686.004 275.104 684.901 274.178C682.266 272.237 672.917 275.632 667.119 278.663C666.855 278.803 666.56 278.876 666.261 278.876C665.961 278.876 665.666 278.803 665.402 278.663C631.342 260.22 564.767 224.839 556.517 223.179C547.209 221.313 496.153 245.288 465.099 262.624C436.458 278.605 430.049 292.141 433.6 299.475C435.681 303.778 439.241 306.734 444.493 308.51C475.877 319.131 551.38 281.396 552.139 281.016C552.393 280.887 552.673 280.82 552.957 280.818Z" fill="#262424"/>
<path d="M545.45 290.085L519.401 223.51C519.401 223.51 460.582 251.037 441.05 270.957C421.517 290.877 422.88 313.837 453.017 318.107C483.153 322.377 545.45 290.085 545.45 290.085Z" fill="#FF1B46"/>
<path d="M530.534 291.604C530.179 291.597 529.833 291.486 529.54 291.285C529.246 291.084 529.018 290.802 528.883 290.473L507.195 238.004C507.103 237.782 507.056 237.545 507.056 237.305C507.057 237.065 507.104 236.827 507.196 236.605C507.288 236.384 507.423 236.182 507.593 236.013C507.763 235.843 507.964 235.709 508.186 235.617C508.408 235.526 508.645 235.479 508.885 235.479C509.125 235.479 509.363 235.526 509.585 235.618C509.806 235.71 510.008 235.845 510.177 236.015C510.347 236.185 510.481 236.387 510.573 236.608L532.236 289.069C532.354 289.348 532.4 289.652 532.371 289.953C532.342 290.255 532.239 290.544 532.07 290.796C531.901 291.048 531.673 291.253 531.404 291.394C531.136 291.535 530.837 291.607 530.534 291.604Z" fill="#262424"/>
<path d="M424.466 300.408C424.097 292.869 426.004 285.394 429.937 278.952C433.871 272.51 439.65 267.4 446.525 264.284C461.176 257.677 479.627 250.12 491.792 248.196C514.743 244.57 564.28 251.821 576.966 259.675C589.651 267.53 621.068 356.932 645.828 468.691C645.828 468.691 593.269 515.808 453.727 494.062L454.933 379.264C454.933 379.264 431.981 354.487 428.356 340.604C426.456 333.295 425.209 315.555 424.466 300.408Z" fill="#FF1B46"/>
<path d="M457.312 261.385C456.889 261.387 456.479 261.242 456.151 260.975C455.823 260.708 455.598 260.336 455.514 259.922C455.43 259.507 455.493 259.077 455.691 258.703C455.89 258.33 456.211 258.037 456.601 257.875C471.599 251.548 483.344 247.683 491.512 246.395C501.257 244.859 516.544 245.14 533.45 247.171C533.931 247.229 534.369 247.476 534.668 247.857C534.967 248.238 535.102 248.722 535.044 249.203C534.986 249.684 534.739 250.122 534.358 250.421C533.977 250.72 533.493 250.855 533.012 250.797C516.429 248.798 501.505 248.509 492.073 249.971C484.194 251.218 472.739 254.992 458.014 261.211C457.793 261.315 457.555 261.374 457.312 261.385Z" fill="#262424"/>
<path d="M515.074 487.125C498.339 487.154 481.616 486.242 464.984 484.391C464.746 484.361 464.516 484.284 464.308 484.164C464.099 484.045 463.917 483.886 463.77 483.696C463.623 483.507 463.515 483.29 463.452 483.058C463.389 482.827 463.372 482.585 463.402 482.347C463.433 482.109 463.51 481.879 463.629 481.671C463.748 481.462 463.907 481.28 464.097 481.133C464.287 480.986 464.503 480.878 464.735 480.815C464.967 480.752 465.208 480.735 465.446 480.765C466.528 480.906 574.703 494.169 625.487 459.92C625.889 459.649 626.382 459.55 626.857 459.643C627.333 459.736 627.752 460.014 628.022 460.415C628.293 460.817 628.392 461.31 628.299 461.786C628.207 462.261 627.929 462.68 627.527 462.951C605.69 477.676 571.672 485.762 526.455 486.976C522.556 487.075 518.757 487.125 515.074 487.125Z" fill="#262424"/>
<path d="M482.881 239.524C466.363 245.42 458.889 259.452 459.467 269.041C460.045 278.629 468.139 285.286 474.663 285.377C474.663 285.377 477.686 265.985 482.418 264.63C487.151 263.276 494.286 282.693 494.286 282.693C494.286 282.693 516.693 276.292 519.195 255.092C520.929 240.473 502.141 232.652 482.881 239.524Z" fill="white"/>
<path d="M474.663 287.202C467.131 287.103 458.302 279.67 457.666 269.156C457.022 258.42 465.438 243.827 482.294 237.773C494.476 233.429 507.277 234.544 514.892 240.614C517.112 242.301 518.847 244.544 519.921 247.117C520.996 249.69 521.372 252.5 521.012 255.265C518.394 277.415 495.03 284.345 494.79 284.411C494.357 284.536 493.893 284.496 493.487 284.299C493.082 284.103 492.763 283.763 492.593 283.345C489.389 274.624 484.698 266.415 482.939 266.415C481.031 266.96 477.983 275.97 476.497 285.682C476.424 286.113 476.198 286.504 475.862 286.782C475.525 287.061 475.1 287.21 474.663 287.202ZM497.061 238.813C492.439 238.842 487.856 239.657 483.508 241.225C468.329 246.643 460.739 259.527 461.3 268.909C461.788 277.011 468.081 282.362 473.152 283.353C474.209 277.275 477.025 264.242 481.931 262.847C487.093 261.377 492.362 272.485 495.385 280.356C500.34 278.448 515.445 271.353 517.395 254.852C517.686 252.701 517.395 250.512 516.552 248.512C515.71 246.512 514.346 244.774 512.604 243.48C508.698 240.399 503.181 238.813 497.061 238.813Z" fill="#262424"/>
<path d="M473.342 252.647C473.342 252.647 474.994 258.428 482.774 259.857C486.525 259.165 490.099 257.725 493.281 255.622C496.464 253.519 499.191 250.797 501.298 247.617L492.593 210.964L485.986 213.665L469.758 220.272L472.764 247.221L473.342 252.647Z" fill="white"/>
<path d="M482.773 261.682C482.661 261.692 482.547 261.692 482.435 261.682C473.639 260.03 471.698 253.423 471.583 253.175C471.555 253.078 471.536 252.979 471.525 252.878L467.907 220.47C467.862 220.073 467.948 219.673 468.153 219.33C468.357 218.987 468.668 218.72 469.039 218.571L491.924 209.296C492.169 209.194 492.433 209.147 492.698 209.158C492.963 209.169 493.222 209.237 493.458 209.358C493.694 209.479 493.9 209.65 494.063 209.859C494.226 210.068 494.342 210.31 494.402 210.568L503.09 247.221C503.146 247.461 503.153 247.71 503.111 247.952C503.068 248.195 502.977 248.427 502.842 248.633C500.598 252.041 497.684 254.957 494.276 257.202C490.868 259.447 487.039 260.974 483.021 261.69L482.773 261.682ZM475.134 252.25C475.407 253.002 477.067 256.801 482.798 258.032C489.462 256.667 495.364 252.832 499.316 247.295L491.305 213.492L471.69 221.404L475.134 252.25Z" fill="#262424"/>
<path d="M472.731 247.18C492.552 241.555 489.628 215.499 489.628 215.499C488.441 214.809 487.211 214.197 485.945 213.665L469.716 220.272L472.731 247.18Z" fill="#262424"/>
<path d="M493.37 138.253C490.587 151.187 517.403 157.1 526.57 157.992C535.738 158.884 551.496 176.847 566.667 168.233C581.839 159.619 591.229 201.269 639.833 186.477C677.295 175.104 691.302 121.298 665.154 112.312C639.007 103.327 604.914 131.663 581.095 123.123C565.94 117.705 550.984 99.6019 529.742 116.4C513.877 128.97 495.558 128.078 493.37 138.253Z" fill="#262424"/>
<path d="M451.092 197.643C451.092 197.643 442.008 188.319 435.012 193.307C428.017 198.296 435.169 223.411 453.43 216.523L451.092 197.643Z" fill="white"/>
<path d="M447.326 219.529C441.43 219.529 436.367 216.308 433.146 210.246C429.842 204.011 429.198 195.19 433.972 191.804C442.181 185.973 452.001 195.933 452.414 196.363C452.692 196.648 452.869 197.017 452.918 197.412L455.263 216.283C455.313 216.69 455.225 217.102 455.012 217.453C454.799 217.804 454.475 218.072 454.09 218.216C451.934 219.059 449.642 219.504 447.326 219.529ZM439.646 193.67C438.365 193.656 437.112 194.049 436.07 194.794C433.716 196.445 433.336 202.83 436.367 208.536C437.953 211.51 442.503 217.885 451.431 215.259L449.35 198.51C447.995 197.28 443.775 193.67 439.646 193.67Z" fill="#262424"/>
<path d="M495.542 139.459L499.539 136.602C500.165 136.15 500.9 135.874 501.668 135.803C502.437 135.732 503.21 135.868 503.908 136.197C505.923 137.095 507.708 138.439 509.128 140.128C510.479 142.054 511.113 144.391 510.92 146.735C510.891 147.3 510.751 147.854 510.507 148.364C510.263 148.875 509.921 149.331 509.499 149.709L505.37 153.483C504.895 153.909 504.332 154.225 503.721 154.409C503.11 154.593 502.466 154.639 501.835 154.545C501.204 154.451 500.602 154.219 500.071 153.866C499.539 153.512 499.093 153.046 498.763 152.5L494.41 145.232C493.839 144.304 493.638 143.194 493.847 142.125C494.057 141.055 494.662 140.103 495.542 139.459Z" fill="white"/>
<path d="M502.43 156.415C502.123 156.415 501.816 156.393 501.513 156.349C500.612 156.215 499.751 155.883 498.994 155.376C498.237 154.868 497.602 154.199 497.136 153.417L492.783 146.149C491.994 144.819 491.73 143.241 492.045 141.726C492.36 140.212 493.23 138.87 494.485 137.964L498.482 135.107C499.373 134.465 500.42 134.074 501.514 133.974C502.607 133.874 503.708 134.068 504.701 134.537C506.973 135.559 508.984 137.084 510.581 138.997C512.201 141.259 512.97 144.02 512.753 146.793C512.715 147.6 512.517 148.391 512.169 149.119C511.822 149.848 511.332 150.501 510.73 151.038L506.6 154.812C505.46 155.851 503.972 156.423 502.43 156.415ZM502.074 137.609C501.547 137.609 501.033 137.774 500.604 138.08L496.607 140.937C496.105 141.306 495.756 141.847 495.628 142.456C495.5 143.066 495.601 143.702 495.913 144.241L500.266 151.509C500.452 151.832 500.71 152.109 501.018 152.319C501.327 152.529 501.679 152.667 502.048 152.722C502.418 152.776 502.794 152.747 503.151 152.636C503.507 152.524 503.834 152.334 504.106 152.079L508.236 148.304C508.725 147.869 509.022 147.257 509.061 146.603C509.228 144.699 508.729 142.796 507.649 141.218C506.403 139.757 504.845 138.595 503.09 137.816C502.77 137.676 502.424 137.606 502.074 137.609Z" fill="#262424"/>
<path d="M447.037 202.714C450.754 218.406 461.077 235.378 480.122 231.422C494.162 228.515 506.641 208.768 503.982 187.187C501.323 165.607 494.311 147.974 468.824 153.887C466.111 154.561 463.446 155.413 460.846 156.439C446.525 162.419 441.066 164.781 445.245 194.323C445.608 196.924 446.344 199.765 447.037 202.714Z" fill="white"/>
<path d="M474.671 233.792C458.484 233.792 448.928 218.563 445.262 203.102L444.989 201.971C444.353 199.361 443.758 196.891 443.428 194.538C441.305 179.515 441.611 171.149 444.485 165.632C447.434 159.991 452.744 157.769 460.177 154.689C462.868 153.625 465.627 152.742 468.436 152.046C478.14 149.791 486.052 150.749 491.941 154.87C501.57 161.601 504.412 175.518 505.816 186.907C508.723 210.461 494.815 230.183 480.519 233.156C478.597 233.569 476.637 233.782 474.671 233.792ZM478.057 154.507C475.082 154.543 472.12 154.917 469.229 155.622C466.614 156.279 464.046 157.106 461.54 158.1C447.714 163.881 443.056 165.822 447.045 194.034C447.351 196.222 447.929 198.609 448.54 201.128L448.813 202.268C450.465 209.189 456.906 230.158 474.614 230.158C476.338 230.15 478.056 229.964 479.742 229.605C492.453 226.962 504.742 208.347 502.157 187.377C500.233 171.801 496.31 162.435 489.81 157.885C486.343 155.556 482.232 154.374 478.057 154.507Z" fill="#262424"/>
<path d="M497.441 186.502C494.709 185.974 492.171 184.718 490.095 182.866C488.018 181.013 486.482 178.634 485.647 175.98C485.045 174.196 484.425 171.751 483.492 169.612C474.737 182.827 455.602 193.373 447.153 197.544C445.841 198.222 444.349 198.469 442.889 198.251C441.429 198.033 440.074 197.361 439.018 196.33C425.903 182.901 432.981 151.36 452.934 148.362C472.656 128.706 501.034 135.305 508.211 153.673C516.197 174.064 504.271 188.005 497.441 186.502Z" fill="#262424"/>
<path d="M497.548 189.277C497.548 189.277 506.006 176.682 517.56 178.21C529.114 179.738 527.346 206.34 499.787 208L497.548 189.277Z" fill="white"/>
<path d="M499.803 209.841C499.319 209.856 498.849 209.677 498.497 209.345C498.144 209.013 497.938 208.554 497.924 208.07C497.91 207.586 498.089 207.116 498.421 206.764C498.753 206.411 499.212 206.205 499.696 206.191C514.933 205.274 522.176 196.19 522.465 188.137C522.598 184.462 521.061 180.531 517.337 180.035C507.021 178.672 499.167 190.194 499.085 190.309C498.814 190.711 498.395 190.989 497.919 191.082C497.444 191.175 496.951 191.075 496.549 190.805C496.147 190.534 495.869 190.115 495.776 189.64C495.683 189.164 495.783 188.671 496.054 188.269C496.425 187.716 505.287 174.758 517.816 176.41C523.011 177.095 526.339 181.86 526.075 188.261C525.728 197.916 517.386 208.776 499.869 209.825H499.762L499.803 209.841Z" fill="#262424"/>
<path d="M564.891 277.49C527.974 262.492 484.549 374.449 484.549 374.449L382.453 432.443C382.453 432.443 356.776 422.474 351.647 421.871C346.519 421.268 328.39 446.037 326.871 449.662C325.351 453.288 328.985 458.425 336.839 453.288C336.839 453.288 330.802 461.745 336.839 467.485C342.877 473.225 352.242 476.57 364.019 467.179C364.019 467.179 383.651 474.431 389.696 473.786C395.742 473.142 401.746 456.905 401.746 456.905C401.746 456.905 514.066 429.725 523.77 423.985C533.475 418.246 556.69 360.855 567.262 329.752C577.833 298.649 574.554 281.421 564.891 277.49Z" fill="white"/>
<path d="M388.961 475.678C382.668 475.678 368.471 470.723 364.35 469.236C350.656 479.576 340.482 473.448 335.584 468.798C331.859 465.263 331.884 460.688 333.016 457.013C329.712 457.839 327.68 456.608 326.797 455.881C325.821 455.052 325.135 453.933 324.838 452.687C324.541 451.441 324.648 450.133 325.145 448.952C326.136 446.574 344.718 419.22 351.813 420.046C356.677 420.616 377.341 428.52 382.255 430.419L483.013 373.177C486.226 365.026 516.486 290.068 548.085 276.433C554.196 273.798 560.06 273.583 565.511 275.797C577.61 280.752 578.898 301.102 568.971 330.305C561.134 353.356 536.084 418.749 524.679 425.522C515.322 431.179 414.737 455.642 403.15 458.433C401.498 462.67 396.163 474.951 389.886 475.62C389.597 475.67 389.291 475.678 388.961 475.678ZM364.028 465.346C364.245 465.346 364.46 465.386 364.663 465.462C370.015 467.435 384.922 472.465 389.523 472.003C392.909 471.664 397.732 462.604 400.069 456.311C400.173 456.031 400.344 455.78 400.567 455.581C400.79 455.383 401.059 455.242 401.349 455.171C440.116 445.789 515.413 426.884 522.87 422.449C531.286 417.453 553.783 363.878 565.569 329.19C576.446 297.179 571.994 282.387 564.198 279.216C559.622 277.358 554.849 277.564 549.596 279.819C518.278 293.339 486.564 374.317 486.242 375.134C486.083 375.53 485.791 375.857 485.416 376.059L383.353 434.028C383.118 434.162 382.856 434.242 382.586 434.262C382.316 434.282 382.045 434.242 381.792 434.144C374.715 431.394 355.455 424.159 351.433 423.68C350.524 423.68 346.742 426.158 339.111 435.589C333.693 442.254 329.2 448.894 328.564 450.356C328.362 450.811 328.308 451.318 328.412 451.805C328.516 452.291 328.772 452.733 329.142 453.065C330.439 454.139 332.941 453.643 335.848 451.744C336.205 451.512 336.631 451.413 337.053 451.462C337.476 451.511 337.867 451.707 338.161 452.014C338.455 452.321 338.632 452.722 338.662 453.146C338.692 453.57 338.573 453.991 338.326 454.337C338.119 454.626 333.296 461.58 338.095 466.147C343.141 470.937 351.54 474.761 362.871 465.742C363.2 465.481 363.608 465.341 364.028 465.346Z" fill="#262424"/>
<path d="M485.16 363.572L550.992 396.492C550.992 396.492 576.966 334.872 578.172 306.181C579.377 277.49 562.48 260.873 536.489 278.39C510.498 295.907 485.16 363.572 485.16 363.572Z" fill="#FF1B46"/>
<path d="M550.992 398.325C550.705 398.328 550.422 398.263 550.166 398.135L484.334 365.207C483.93 365.005 483.615 364.66 483.45 364.239C483.285 363.818 483.282 363.351 483.442 362.928C484.483 360.145 509.317 294.52 535.473 276.879C550.339 266.869 560.415 268.678 566.279 271.923C575.562 277.11 580.691 289.936 580.005 306.222C578.799 334.914 553.742 394.642 552.677 397.169C552.543 397.508 552.311 397.799 552.011 398.005C551.711 398.211 551.356 398.323 550.992 398.325ZM487.448 362.68L550.059 394.014C554.312 383.658 575.289 331.453 576.355 306.14C576.982 291.274 572.547 279.712 564.495 275.186C557.368 271.205 548.043 272.848 537.522 279.943C514.471 295.461 491.404 352.563 487.448 362.68Z" fill="#262424"/>
<path d="M549.579 380.502C549.307 380.501 549.039 380.439 548.795 380.321L495.987 355.197C495.77 355.094 495.576 354.949 495.415 354.771C495.254 354.593 495.13 354.385 495.049 354.159C494.887 353.702 494.912 353.199 495.12 352.761C495.328 352.323 495.702 351.985 496.159 351.823C496.616 351.66 497.119 351.686 497.557 351.894L550.339 377.042C550.704 377.223 550.999 377.52 551.175 377.888C551.351 378.255 551.4 378.671 551.312 379.069C551.225 379.467 551.007 379.825 550.693 380.084C550.379 380.344 549.987 380.491 549.579 380.502Z" fill="#262424"/>
<path d="M701.229 15.4194C766.102 29.0713 771.784 93.0528 771.784 93.0528L718.985 120.191C718.985 120.191 715.17 77.2453 671.687 68.1606L701.229 15.4194Z" fill="white"/>
<path d="M718.985 122.042C718.53 122.044 718.09 121.875 717.752 121.57C717.415 121.264 717.204 120.843 717.16 120.39C716.125 112.665 713.687 105.195 709.967 98.3468C701.708 83.1588 688.741 73.5702 671.307 69.9281C671.026 69.8691 670.763 69.7447 670.539 69.5651C670.316 69.3854 670.137 69.1555 670.019 68.894C669.901 68.6325 669.846 68.3468 669.859 68.0601C669.871 67.7734 669.952 67.4938 670.093 67.2439L699.635 14.5028C699.825 14.1645 700.118 13.8955 700.472 13.7351C700.825 13.5747 701.221 13.5312 701.6 13.6109C735.8 20.8043 753.557 41.9801 762.444 58.4813C772.04 76.3122 773.552 92.227 773.61 92.896C773.642 93.2573 773.565 93.62 773.39 93.9378C773.215 94.2555 772.949 94.5139 772.627 94.6799L719.828 121.819C719.569 121.96 719.28 122.037 718.985 122.042ZM674.47 66.9631C696.051 72.2901 707.448 86.0163 713.287 96.7942C716.758 103.254 719.183 110.222 720.472 117.441L769.852 92.0618C768.155 80.8889 764.548 70.0912 759.19 60.1413C747.008 37.5864 727.806 23.2572 702.203 17.5256L674.47 66.9631Z" fill="#262424"/>
<path d="M726.104 94.7541C725.71 94.7578 725.325 94.6336 725.006 94.4C724.688 94.1663 724.455 93.8359 724.34 93.4581C724.226 93.0804 724.237 92.6758 724.372 92.3049C724.507 91.934 724.758 91.6168 725.089 91.401L749.65 75.0897C749.851 74.9568 750.075 74.8647 750.311 74.8185C750.546 74.7724 750.789 74.7731 751.024 74.8206C751.26 74.8682 751.483 74.9616 751.683 75.0957C751.882 75.2297 752.053 75.4017 752.186 75.6018C752.319 75.8019 752.411 76.0262 752.457 76.2619C752.503 76.4976 752.503 76.7401 752.455 76.9756C752.408 77.211 752.314 77.4348 752.18 77.6341C752.046 77.8334 751.874 78.0044 751.674 78.1372L727.145 94.4485C726.837 94.6539 726.474 94.7605 726.104 94.7541Z" fill="#262424"/>
<path d="M715.005 77.3856C714.639 77.3865 714.282 77.2779 713.98 77.0738C713.677 76.8696 713.442 76.5794 713.306 76.2406C713.17 75.9017 713.139 75.5299 713.216 75.173C713.294 74.8162 713.477 74.4909 713.741 74.239L734.958 53.9139C735.308 53.5788 735.778 53.3966 736.262 53.4074C736.747 53.4183 737.208 53.6213 737.543 53.9717C737.878 54.3222 738.06 54.7914 738.049 55.2762C738.039 55.761 737.836 56.2216 737.485 56.5567L716.268 76.8736C715.929 77.2011 715.476 77.3845 715.005 77.3856Z" fill="#262424"/>
<path d="M697.413 65.8151C697.076 65.8151 696.745 65.7215 696.457 65.5447C696.17 65.3679 695.937 65.1148 695.784 64.8135C695.632 64.5123 695.566 64.1747 695.594 63.8383C695.622 63.5019 695.743 63.1799 695.943 62.908L713.815 38.5774C714.102 38.1875 714.532 37.9275 715.011 37.8547C715.489 37.782 715.977 37.9023 716.367 38.1892C716.757 38.4761 717.017 38.9062 717.09 39.3848C717.163 39.8634 717.042 40.3513 716.756 40.7412L698.883 65.0718C698.714 65.3023 698.492 65.4896 698.237 65.6187C697.982 65.7479 697.699 65.8151 697.413 65.8151Z" fill="#262424"/>
<path d="M231.283 529.369C165.047 526.668 148.826 464.487 148.826 464.487L196.397 428.974C196.397 428.974 207.274 470.656 251.674 472.465L231.283 529.369Z" fill="white"/>
<path d="M231.283 531.194H231.208C196.29 529.765 175.263 511.827 163.775 497.035C151.386 481.038 147.257 465.594 147.059 464.949C146.967 464.598 146.983 464.227 147.104 463.884C147.224 463.541 147.444 463.242 147.736 463.025L195.307 427.512C195.547 427.333 195.826 427.216 196.122 427.17C196.417 427.125 196.72 427.153 197.002 427.251C197.284 427.35 197.538 427.517 197.74 427.736C197.943 427.956 198.089 428.222 198.165 428.511C200.466 435.946 204.105 442.898 208.901 449.026C219.522 462.637 233.934 469.913 251.732 470.64C252.023 470.648 252.308 470.726 252.563 470.867C252.819 471.009 253.036 471.209 253.198 471.452C253.36 471.694 253.461 471.972 253.493 472.262C253.525 472.552 253.488 472.845 253.383 473.117L232.992 530.029C232.859 530.374 232.624 530.669 232.318 530.877C232.013 531.085 231.652 531.195 231.283 531.194ZM150.932 465.189C154.456 475.933 159.803 485.991 166.74 494.921C182.489 515.138 203.772 526.098 230.019 527.502L249.122 474.125C226.955 472.473 213.444 460.803 205.936 451.141C201.444 445.357 197.895 438.898 195.423 432.005L150.932 465.189Z" fill="#262424"/>
<path d="M172.38 479.08C172.013 479.082 171.654 478.972 171.35 478.766C171.046 478.559 170.812 478.266 170.677 477.925C170.542 477.583 170.514 477.209 170.595 476.85C170.677 476.492 170.864 476.167 171.133 475.917L192.656 455.757C192.827 455.574 193.034 455.427 193.264 455.327C193.494 455.227 193.742 455.175 193.993 455.176C194.244 455.176 194.492 455.227 194.722 455.328C194.952 455.428 195.159 455.575 195.33 455.759C195.5 455.942 195.631 456.159 195.714 456.396C195.797 456.633 195.831 456.884 195.812 457.134C195.794 457.385 195.724 457.628 195.608 457.85C195.491 458.072 195.329 458.268 195.134 458.425L173.611 478.585C173.278 478.899 172.838 479.076 172.38 479.08Z" fill="#262424"/>
<path d="M190.162 497.737C189.824 497.737 189.492 497.642 189.204 497.465C188.917 497.287 188.684 497.032 188.532 496.73C188.381 496.428 188.316 496.089 188.346 495.752C188.375 495.415 188.498 495.093 188.7 494.822L206.258 471.259C206.548 470.87 206.979 470.612 207.459 470.542C207.938 470.471 208.426 470.594 208.815 470.883C209.203 471.173 209.461 471.604 209.532 472.084C209.602 472.563 209.479 473.051 209.19 473.44L191.632 497.002C191.461 497.231 191.24 497.417 190.984 497.544C190.729 497.672 190.447 497.738 190.162 497.737Z" fill="#262424"/>
<path d="M213.386 509.638C213.072 509.642 212.762 509.565 212.486 509.415C212.211 509.264 211.979 509.045 211.812 508.778C211.646 508.512 211.552 508.207 211.538 507.893C211.524 507.579 211.592 507.267 211.734 506.987L225.328 480.03C225.437 479.813 225.587 479.62 225.77 479.461C225.953 479.302 226.166 479.181 226.396 479.104C226.626 479.027 226.869 478.997 227.111 479.014C227.353 479.031 227.589 479.096 227.806 479.204C228.023 479.313 228.216 479.463 228.375 479.646C228.534 479.829 228.655 480.042 228.732 480.272C228.809 480.502 228.839 480.745 228.822 480.987C228.805 481.229 228.74 481.465 228.632 481.682L215.013 508.622C214.863 508.926 214.631 509.182 214.343 509.361C214.056 509.541 213.725 509.637 213.386 509.638Z" fill="#262424"/>
<path d="M684.785 911.192C684.347 911.192 683.927 911.018 683.617 910.709C683.308 910.399 683.134 909.979 683.134 909.541V898.333C683.134 897.895 683.308 897.475 683.617 897.165C683.927 896.856 684.347 896.682 684.785 896.682C685.223 896.682 685.644 896.856 685.953 897.165C686.263 897.475 686.437 897.895 686.437 898.333V909.541C686.437 909.979 686.263 910.399 685.953 910.709C685.644 911.018 685.223 911.192 684.785 911.192Z" fill="#262424"/>
<path d="M701.683 916.883H690.476C690.038 916.883 689.618 916.709 689.308 916.399C688.998 916.09 688.824 915.669 688.824 915.231C688.824 914.793 688.998 914.373 689.308 914.063C689.618 913.754 690.038 913.58 690.476 913.58H701.683C701.9 913.58 702.115 913.622 702.315 913.705C702.516 913.788 702.698 913.91 702.851 914.063C703.004 914.217 703.126 914.399 703.209 914.599C703.292 914.8 703.335 915.014 703.335 915.231C703.335 915.448 703.292 915.663 703.209 915.863C703.126 916.064 703.004 916.246 702.851 916.399C702.698 916.553 702.516 916.674 702.315 916.757C702.115 916.84 701.9 916.883 701.683 916.883Z" fill="#262424"/>
<path d="M684.785 933.789C684.347 933.789 683.927 933.615 683.617 933.305C683.308 932.995 683.134 932.575 683.134 932.137V920.93C683.134 920.492 683.308 920.071 683.617 919.762C683.927 919.452 684.347 919.278 684.785 919.278C685.223 919.278 685.644 919.452 685.953 919.762C686.263 920.071 686.437 920.492 686.437 920.93V932.137C686.437 932.575 686.263 932.995 685.953 933.305C685.644 933.615 685.223 933.789 684.785 933.789Z" fill="#262424"/>
<path d="M679.087 916.883H667.88C667.441 916.883 667.021 916.709 666.712 916.399C666.402 916.09 666.228 915.669 666.228 915.231C666.228 914.793 666.402 914.373 666.712 914.063C667.021 913.754 667.441 913.58 667.88 913.58H679.087C679.525 913.58 679.945 913.754 680.255 914.063C680.565 914.373 680.739 914.793 680.739 915.231C680.739 915.669 680.565 916.09 680.255 916.399C679.945 916.709 679.525 916.883 679.087 916.883Z" fill="#262424"/>
<path d="M177.237 653.656C176.799 653.656 176.378 653.482 176.069 653.173C175.759 652.863 175.585 652.443 175.585 652.005V642.433C175.585 641.994 175.759 641.574 176.069 641.265C176.378 640.955 176.799 640.781 177.237 640.781C177.675 640.781 178.095 640.955 178.405 641.265C178.714 641.574 178.888 641.994 178.888 642.433V651.996C178.889 652.214 178.848 652.43 178.765 652.631C178.683 652.832 178.561 653.015 178.408 653.17C178.254 653.324 178.072 653.446 177.871 653.53C177.67 653.613 177.454 653.656 177.237 653.656Z" fill="#262424"/>
<path d="M191.657 658.521H182.06C181.622 658.521 181.202 658.347 180.892 658.037C180.582 657.727 180.408 657.307 180.408 656.869C180.408 656.431 180.582 656.011 180.892 655.701C181.202 655.391 181.622 655.217 182.06 655.217H191.624C192.062 655.213 192.484 655.383 192.796 655.689C193.109 655.996 193.288 656.415 193.292 656.853C193.296 657.291 193.126 657.713 192.82 658.025C192.513 658.338 192.095 658.517 191.657 658.521Z" fill="#262424"/>
<path d="M177.237 672.94C176.799 672.94 176.378 672.766 176.069 672.457C175.759 672.147 175.585 671.727 175.585 671.289V661.708C175.585 661.27 175.759 660.85 176.069 660.54C176.378 660.231 176.799 660.057 177.237 660.057C177.675 660.057 178.095 660.231 178.405 660.54C178.714 660.85 178.888 661.27 178.888 661.708V671.272C178.891 671.49 178.849 671.707 178.767 671.909C178.685 672.112 178.564 672.296 178.41 672.451C178.257 672.606 178.074 672.729 177.873 672.813C177.671 672.897 177.455 672.94 177.237 672.94Z" fill="#262424"/>
<path d="M172.381 658.521H162.825C162.387 658.521 161.967 658.347 161.657 658.037C161.347 657.727 161.173 657.307 161.173 656.869C161.173 656.431 161.347 656.011 161.657 655.701C161.967 655.391 162.387 655.217 162.825 655.217H172.389C172.827 655.218 173.247 655.393 173.556 655.704C173.865 656.015 174.038 656.435 174.036 656.873C174.035 657.311 173.86 657.731 173.55 658.04C173.239 658.349 172.819 658.522 172.381 658.521Z" fill="#262424"/>
<path d="M235.42 867.544C239.348 867.544 242.531 864.361 242.531 860.434C242.531 856.506 239.348 853.323 235.42 853.323C231.493 853.323 228.31 856.506 228.31 860.434C228.31 864.361 231.493 867.544 235.42 867.544Z" fill="#000A1D"/>
<path d="M834.197 172.71C838.844 172.71 842.612 168.942 842.612 164.294C842.612 159.646 838.844 155.878 834.197 155.878C829.549 155.878 825.781 159.646 825.781 164.294C825.781 168.942 829.549 172.71 834.197 172.71Z" fill="#FF1B46"/>
<path d="M682.985 505.856C682.701 505.855 682.422 505.789 682.168 505.662C681.915 505.535 681.694 505.351 681.524 505.125C681.353 504.898 681.237 504.635 681.186 504.357C681.134 504.078 681.148 503.791 681.226 503.518C681.506 502.536 688.419 479.469 709.768 474.753C713.576 473.927 716.375 474.216 718.415 475.017C724.576 472.159 735.148 469.863 749.287 476.388C749.523 476.476 749.737 476.611 749.918 476.786C750.099 476.961 750.242 477.171 750.337 477.404C750.433 477.636 750.48 477.886 750.474 478.137C750.469 478.389 750.412 478.636 750.306 478.864C750.201 479.093 750.049 479.297 749.861 479.463C749.673 479.63 749.452 479.757 749.213 479.834C748.974 479.912 748.721 479.939 748.471 479.915C748.221 479.89 747.978 479.814 747.759 479.692C736.329 474.414 727.591 475.43 721.95 477.486C722.3 477.892 722.612 478.329 722.883 478.791C725.914 483.994 723.858 492.055 720.026 496.325C717.044 499.628 713.295 500.628 709.727 499.034C708.471 498.499 707.387 497.629 706.593 496.519C705.799 495.409 705.326 494.102 705.226 492.741C704.747 487.909 708.067 482.004 713.534 477.875C712.533 477.922 711.538 478.057 710.561 478.279C691.351 482.516 684.802 504.27 684.736 504.493C684.634 504.881 684.407 505.225 684.091 505.471C683.775 505.717 683.386 505.852 682.985 505.856ZM718.374 479.138C717.619 479.553 716.888 480.011 716.185 480.509C710.726 484.399 708.562 489.396 708.86 492.402C708.903 493.119 709.147 493.81 709.565 494.394C709.983 494.978 710.557 495.433 711.222 495.705C713.848 496.878 715.979 495.367 717.309 493.897C720.53 490.312 721.686 483.986 719.728 480.683C719.39 480.079 718.932 479.55 718.382 479.13L718.374 479.138Z" fill="#262424"/>
<path d="M398.797 576.535C398.245 576.533 397.694 576.5 397.146 576.436C395.531 576.287 393.991 575.689 392.699 574.709C391.408 573.73 390.416 572.408 389.837 570.894C388.441 567.343 389.077 563.032 391.488 559.15C373.228 561.025 362.946 574.652 362.847 574.792C362.56 575.182 362.13 575.442 361.651 575.515C361.172 575.588 360.685 575.467 360.295 575.18C359.905 574.894 359.645 574.463 359.572 573.985C359.499 573.506 359.62 573.018 359.906 572.629C360.394 571.968 371.989 556.515 393.223 555.351C393.702 555.351 394.17 555.334 394.627 555.301C399.235 550.916 410.319 544.317 432.907 549.272C433.38 549.376 433.792 549.664 434.053 550.072C434.314 550.48 434.402 550.976 434.298 551.449C434.194 551.922 433.906 552.334 433.498 552.595C433.09 552.856 432.595 552.944 432.122 552.84C414.844 549.049 405.058 552.336 399.912 555.756C405.223 556.846 407.684 559.637 408.766 561.537C409.661 563.104 410.1 564.89 410.035 566.694C409.969 568.497 409.401 570.247 408.394 571.745C407.331 573.291 405.893 574.541 404.214 575.379C402.536 576.217 400.672 576.615 398.797 576.535ZM396.072 558.993L395.94 559.142C393.099 562.445 392.025 566.575 393.198 569.564C393.528 570.468 394.113 571.256 394.883 571.832C395.653 572.408 396.574 572.748 397.534 572.81C400.887 573.207 403.695 572.083 405.248 569.73C405.88 568.796 406.239 567.705 406.284 566.578C406.329 565.452 406.059 564.335 405.504 563.354C404.009 560.76 400.639 559.191 396.072 558.993Z" fill="#262424"/>
</svg>
