<svg width="512" height="512" viewBox="0 0 512 512" fill="none" xmlns="http://www.w3.org/2000/svg">
<path d="M371.921 363.926H4.17099V443.872H371.921V363.926Z" fill="#1FFFFF"/>
<path d="M371.922 427.883H68.124L4.17099 363.926V156.068H371.922V427.883Z" fill="#1FFFFF"/>
<path d="M371.921 84.1172H4.17099V156.068H371.921V84.1172Z" fill="#116FFF"/>
<path d="M68.127 52.1392C63.712 52.1392 60.133 55.7192 60.133 60.1342V108.101C60.133 112.516 63.713 116.095 68.127 116.095C72.542 116.095 76.122 112.516 76.122 108.101V60.1332C76.123 55.7182 72.542 52.1392 68.127 52.1392Z" fill="#1FFFFF"/>
<path d="M68.127 108.101C63.712 108.101 60.133 104.521 60.133 100.106V108.101C60.133 112.516 63.713 116.095 68.127 116.095C72.542 116.095 76.122 112.516 76.122 108.101V100.106C76.123 104.521 72.542 108.101 68.127 108.101Z" fill="#116FFF"/>
<path d="M148.073 52.1392C143.658 52.1392 140.078 55.7192 140.078 60.1342V108.101C140.078 112.516 143.658 116.095 148.073 116.095C152.488 116.095 156.068 112.516 156.068 108.101V60.1332C156.068 55.7182 152.488 52.1392 148.073 52.1392Z" fill="#1FFFFF"/>
<path d="M228.019 52.1392C223.604 52.1392 220.024 55.7192 220.024 60.1342V108.101C220.024 112.516 223.604 116.095 228.019 116.095C232.434 116.095 236.013 112.516 236.013 108.101V60.1332C236.013 55.7182 232.434 52.1392 228.019 52.1392Z" fill="#1FFFFF"/>
<path d="M307.965 52.1392C303.545 52.1392 299.971 55.7192 299.971 60.1342V108.101C299.971 112.516 303.545 116.095 307.965 116.095C312.383 116.095 315.959 112.516 315.959 108.101V60.1332C315.959 55.7182 312.383 52.1392 307.965 52.1392Z" fill="#1FFFFF"/>
<path d="M148.073 108.101C143.658 108.101 140.078 104.521 140.078 100.106V108.101C140.078 112.516 143.658 116.095 148.073 116.095C152.488 116.095 156.068 112.516 156.068 108.101V100.106C156.068 104.521 152.488 108.101 148.073 108.101Z" fill="#116FFF"/>
<path d="M228.019 108.101C223.604 108.101 220.024 104.521 220.024 100.106V108.101C220.024 112.516 223.604 116.095 228.019 116.095C232.434 116.095 236.013 112.516 236.013 108.101V100.106C236.013 104.521 232.434 108.101 228.019 108.101Z" fill="#116FFF"/>
<path d="M307.965 108.101C303.545 108.101 299.971 104.521 299.971 100.106V108.101C299.971 112.516 303.545 116.095 307.965 116.095C312.383 116.095 315.959 112.516 315.959 108.101V100.106C315.959 104.521 312.383 108.101 307.965 108.101Z" fill="#116FFF"/>
<path d="M307.965 60.1332C312.383 60.1332 315.959 63.7132 315.959 68.1282V60.1332C315.959 55.7182 312.383 52.1382 307.965 52.1382C303.553 52.1382 299.971 55.7182 299.971 60.1332V68.1282C299.971 63.7132 303.553 60.1332 307.965 60.1332Z" fill="white"/>
<path d="M228.019 60.1332C232.434 60.1332 236.013 63.7132 236.013 68.1282V60.1332C236.013 55.7182 232.434 52.1382 228.019 52.1382C223.604 52.1382 220.024 55.7182 220.024 60.1332V68.1282C220.024 63.7132 223.604 60.1332 228.019 60.1332Z" fill="white"/>
<path d="M148.073 60.1332C152.488 60.1332 156.068 63.7132 156.068 68.1282V60.1332C156.068 55.7182 152.488 52.1382 148.073 52.1382C143.658 52.1382 140.078 55.7182 140.078 60.1332V68.1282C140.079 63.7132 143.659 60.1332 148.073 60.1332Z" fill="white"/>
<path d="M68.127 60.1332C72.546 60.1332 76.122 63.7132 76.122 68.1282V60.1332C76.122 55.7182 72.546 52.1382 68.127 52.1382C63.709 52.1382 60.133 55.7182 60.133 60.1332V68.1282C60.133 63.7132 63.709 60.1332 68.127 60.1332Z" fill="white"/>
<path d="M68.127 427.883V363.926H4.17099L68.127 427.883Z" fill="white"/>
<path d="M383.912 443.872H4.17099V459.861H383.912V443.872Z" fill="#1FFFFF"/>
<path d="M204.035 180.052H172.057V212.03H204.035V180.052Z" fill="white"/>
<path d="M252.002 180.052H220.024V212.03H252.002V180.052Z" fill="white"/>
<path d="M299.971 180.052H267.992V212.03H299.971V180.052Z" fill="white"/>
<path d="M60.134 228.019H28.155V259.998H60.134V228.019Z" fill="white"/>
<path d="M108.101 228.019H76.123V259.998H108.101V228.019Z" fill="white"/>
<path d="M156.068 228.019H124.089V259.998H156.068V228.019Z" fill="white"/>
<path d="M204.035 228.019H172.057V259.998H204.035V228.019Z" fill="white"/>
<path d="M252.002 228.019H220.024V259.998H252.002V228.019Z" fill="white"/>
<path d="M299.971 228.019H267.992V259.998H299.971V228.019Z" fill="white"/>
<path d="M60.466 275.986H28.487V307.965H60.466V275.986Z" fill="white"/>
<path d="M60.134 323.953H28.155V355.932H60.134V323.953Z" fill="white"/>
<path d="M108.101 323.953H76.123V355.932H108.101V323.953Z" fill="white"/>
<path d="M156.4 323.953H124.421V355.932H156.4V323.953Z" fill="white"/>
<path d="M204.367 323.953H172.389V355.932H204.367V323.953Z" fill="white"/>
<path d="M252.335 323.953H220.356V355.932H252.335V323.953Z" fill="white"/>
<path d="M252.335 371.921H220.356V403.9H252.335V371.921Z" fill="white"/>
<path d="M204.367 371.921H172.389V403.9H204.367V371.921Z" fill="white"/>
<path d="M156.068 371.921H124.089V403.9H156.068V371.921Z" fill="white"/>
<path d="M108.101 371.921H76.123V403.9H108.101V371.921Z" fill="white"/>
<path d="M108.432 275.986H76.454V307.965H108.432V275.986Z" fill="white"/>
<path d="M156.4 275.986H124.421V307.965H156.4V275.986Z" fill="white"/>
<g opacity="0.2">
<g opacity="0.2">
<path opacity="0.2" d="M371.922 84.1172H363.926V156.068H371.922V84.1172Z" fill="#3A3847"/>
</g>
</g>
<path d="M354.931 156.068H4.17099V164.063H354.931V156.068Z" fill="#116FFF"/>
<path d="M204.367 275.986H172.389V307.965H204.367V275.986Z" fill="white"/>
<path d="M252.335 275.986H220.356V307.965H252.335V275.986Z" fill="white"/>
<path d="M443.871 180.052C443.871 180.052 507.828 248.325 507.828 335.946C507.828 404.462 452.428 459.862 383.912 459.862C315.396 459.862 259.998 404.462 259.998 335.946C259.998 199.961 395.904 124.091 395.904 124.091C395.904 124.091 377.597 169.661 395.904 188.047C414.291 206.354 443.871 180.052 443.871 180.052Z" fill="#116FFF"/>
<path d="M443.871 180.052C443.871 180.052 439.891 183.58 433.957 187.149C449.914 206.745 491.84 264.987 491.84 335.946C491.84 401.76 440.68 455.326 375.918 459.456C378.572 459.628 381.211 459.862 383.912 459.862C452.428 459.862 507.828 404.462 507.828 335.946C507.828 248.325 443.871 180.052 443.871 180.052Z" fill="#116FFF"/>
<path d="M275.986 335.945C275.986 233.043 353.777 164.597 391.642 137.369C393.742 129.542 395.904 124.089 395.904 124.089C395.904 124.089 259.998 199.959 259.998 335.944C259.998 404.46 315.396 459.86 383.912 459.86C386.613 459.86 389.254 459.626 391.908 459.454C327.146 455.325 275.986 401.76 275.986 335.945Z" fill="#1FFFFF"/>
<path d="M491.84 335.945C491.84 395.552 443.522 443.872 383.912 443.872C324.305 443.872 275.986 395.553 275.986 335.945C275.986 276.337 324.304 228.018 383.912 228.018C443.521 228.019 491.84 276.338 491.84 335.945Z" fill="white"/>
<g opacity="0.5">
<g opacity="0.5">
<path opacity="0.5" d="M475.85 335.945C475.85 392.851 431.78 439.359 375.918 443.466C378.564 443.661 381.211 443.872 383.912 443.872C443.521 443.872 491.84 395.553 491.84 335.945C491.84 276.337 443.522 228.018 383.912 228.018C381.211 228.018 378.564 228.229 375.918 228.424C431.779 232.531 475.85 279.039 475.85 335.945Z" fill="white"/>
</g>
</g>
<path d="M76.122 355.932H4.17099V363.926H76.122V355.932Z" fill="#116FFF"/>
<path d="M76.122 363.926H68.127V427.883H76.122V363.926Z" fill="#116FFF"/>
<g opacity="0.3">
<g opacity="0.3">
<path opacity="0.3" d="M12.165 84.1172H4.17099V156.068H12.165V84.1172Z" fill="white"/>
</g>
</g>
<path d="M12.165 164.062H4.17099V355.931H12.165V164.062Z" fill="white"/>
<path d="M275.986 431.88H68.127C65.918 431.88 64.13 430.092 64.13 427.883C64.13 425.674 65.918 423.886 68.127 423.886H275.986C278.195 423.886 279.984 425.674 279.984 427.883C279.984 430.092 278.195 431.88 275.986 431.88Z" fill="#0043AA"/>
<path d="M4.171 367.924C1.962 367.924 0.173996 366.136 0.173996 363.926V84.1171C0.173996 81.9071 1.962 80.1191 4.171 80.1191C6.38 80.1191 8.168 81.9071 8.168 84.1171V363.926C8.168 366.136 6.38 367.924 4.171 367.924Z" fill="#0043AA"/>
<path d="M44.144 88.1141H4.171C1.962 88.1141 0.173996 86.3261 0.173996 84.1171C0.173996 81.9071 1.962 80.1191 4.171 80.1191H44.144C46.353 80.1191 48.141 81.9071 48.141 84.1171C48.141 86.3261 46.354 88.1141 44.144 88.1141Z" fill="#0043AA"/>
<path d="M371.922 88.1141H331.947C329.738 88.1141 327.951 86.3261 327.951 84.1171C327.951 81.9071 329.738 80.1191 331.947 80.1191H371.922C374.131 80.1191 375.918 81.9071 375.918 84.1171C375.918 86.3261 374.131 88.1141 371.922 88.1141Z" fill="#0043AA"/>
<path d="M371.922 120.092C369.711 120.092 367.924 118.304 367.924 116.094V84.1171C367.924 81.9071 369.711 80.1191 371.922 80.1191C374.131 80.1191 375.918 81.9071 375.918 84.1171V116.095C375.918 118.305 374.131 120.092 371.922 120.092Z" fill="#0043AA"/>
<path d="M323.953 160.065H4.171C1.962 160.065 0.173996 158.277 0.173996 156.067C0.173996 153.857 1.962 152.069 4.171 152.069H323.953C326.164 152.069 327.951 153.857 327.951 156.067C327.951 158.277 326.164 160.065 323.953 160.065Z" fill="#0043AA"/>
<path d="M204.035 216.027H172.057C169.848 216.027 168.06 214.239 168.06 212.029V180.051C168.06 177.841 169.848 176.053 172.057 176.053H204.035C206.244 176.053 208.033 177.841 208.033 180.051V212.029C208.033 214.239 206.245 216.027 204.035 216.027ZM176.054 208.032H200.037V184.049H176.054V208.032Z" fill="#0043AA"/>
<path d="M252.006 216.027H220.024C217.815 216.027 216.026 214.239 216.026 212.029V180.051C216.026 177.841 217.814 176.053 220.024 176.053H252.006C254.215 176.053 256.003 177.841 256.003 180.051V212.029C256.003 214.239 254.216 216.027 252.006 216.027ZM224.021 208.032H248.009V184.049H224.021V208.032Z" fill="#0043AA"/>
<path d="M267.992 216.027C265.783 216.027 263.994 214.239 263.994 212.029V180.051C263.994 177.841 265.783 176.053 267.992 176.053H299.971C302.18 176.053 303.967 177.841 303.967 180.051C303.967 182.26 302.18 184.048 299.971 184.048H271.989V212.029C271.988 214.239 270.201 216.027 267.992 216.027Z" fill="#0043AA"/>
<path d="M60.133 263.994H28.155C25.946 263.994 24.158 262.207 24.158 259.997V228.018C24.158 225.809 25.946 224.021 28.155 224.021H60.134C62.343 224.021 64.131 225.809 64.131 228.018V259.997C64.13 262.207 62.342 263.994 60.133 263.994ZM32.152 256H56.136V232.016H32.152V256Z" fill="#0043AA"/>
<path d="M108.101 263.994H76.123C73.913 263.994 72.125 262.207 72.125 259.997V228.018C72.125 225.809 73.913 224.021 76.123 224.021H108.101C110.31 224.021 112.099 225.809 112.099 228.018V259.997C112.098 262.207 110.31 263.994 108.101 263.994ZM80.12 256H104.103V232.016H80.12V256Z" fill="#0043AA"/>
<path d="M156.068 263.994H124.089C121.88 263.994 120.092 262.207 120.092 259.997V228.018C120.092 225.809 121.88 224.021 124.089 224.021H156.068C158.277 224.021 160.065 225.809 160.065 228.018V259.997C160.065 262.207 158.277 263.994 156.068 263.994ZM128.087 256H152.071V232.016H128.087V256Z" fill="#0043AA"/>
<path d="M204.035 263.994H172.057C169.848 263.994 168.06 262.207 168.06 259.997V228.018C168.06 225.809 169.848 224.021 172.057 224.021H204.035C206.244 224.021 208.033 225.809 208.033 228.018V259.997C208.033 262.207 206.245 263.994 204.035 263.994ZM176.054 256H200.037V232.016H176.054V256Z" fill="#0043AA"/>
<path d="M252.006 263.994H220.024C217.815 263.994 216.026 262.207 216.026 259.997V228.018C216.026 225.809 217.814 224.021 220.024 224.021H252.006C254.215 224.021 256.003 225.809 256.003 228.018V259.997C256.003 262.207 254.216 263.994 252.006 263.994ZM224.021 256H248.009V232.016H224.021V256Z" fill="#0043AA"/>
<path d="M267.992 240.011C265.783 240.011 263.994 238.223 263.994 236.014V228.019C263.994 225.81 265.783 224.022 267.992 224.022C270.201 224.022 271.988 225.81 271.988 228.019V236.014C271.988 238.223 270.201 240.011 267.992 240.011Z" fill="#0043AA"/>
<path d="M60.133 311.962H28.155C25.946 311.962 24.158 310.174 24.158 307.965V275.986C24.158 273.777 25.946 271.989 28.155 271.989H60.134C62.343 271.989 64.131 273.777 64.131 275.986V307.965C64.13 310.174 62.342 311.962 60.133 311.962ZM32.152 303.967H56.136V279.984H32.152V303.967Z" fill="#0043AA"/>
<path d="M108.101 311.962H76.123C73.913 311.962 72.125 310.174 72.125 307.965V275.986C72.125 273.777 73.913 271.989 76.123 271.989H108.101C110.31 271.989 112.099 273.777 112.099 275.986V307.965C112.098 310.174 110.31 311.962 108.101 311.962ZM80.12 303.967H104.103V279.984H80.12V303.967Z" fill="#0043AA"/>
<path d="M156.068 311.962H124.089C121.88 311.962 120.092 310.174 120.092 307.965V275.986C120.092 273.777 121.88 271.989 124.089 271.989H156.068C158.277 271.989 160.065 273.777 160.065 275.986V307.965C160.065 310.174 158.277 311.962 156.068 311.962ZM128.087 303.967H152.071V279.984H128.087V303.967Z" fill="#0043AA"/>
<path d="M204.035 311.962H172.057C169.848 311.962 168.06 310.174 168.06 307.965V275.986C168.06 273.777 169.848 271.989 172.057 271.989H204.035C206.244 271.989 208.033 273.777 208.033 275.986V307.965C208.033 310.174 206.245 311.962 204.035 311.962ZM176.054 303.967H200.037V279.984H176.054V303.967Z" fill="#0043AA"/>
<path d="M220.024 311.962C217.815 311.962 216.026 310.174 216.026 307.965V275.986C216.026 273.777 217.814 271.989 220.024 271.989H252.006C254.215 271.989 256.003 273.777 256.003 275.986C256.003 278.195 254.215 279.983 252.006 279.983H224.021V307.964C224.021 310.174 222.234 311.962 220.024 311.962Z" fill="#0043AA"/>
<path d="M156.068 359.929H124.089C121.88 359.929 120.092 358.141 120.092 355.932V323.953C120.092 321.744 121.88 319.956 124.089 319.956H156.068C158.277 319.956 160.065 321.744 160.065 323.953V355.932C160.065 358.141 158.277 359.929 156.068 359.929ZM128.087 351.935H152.071V327.952H128.087V351.935Z" fill="#0043AA"/>
<path d="M204.035 359.929H172.057C169.848 359.929 168.06 358.141 168.06 355.932V323.953C168.06 321.744 169.848 319.956 172.057 319.956H204.035C206.244 319.956 208.033 321.744 208.033 323.953V355.932C208.033 358.141 206.245 359.929 204.035 359.929ZM176.054 351.935H200.037V327.952H176.054V351.935Z" fill="#0043AA"/>
<path d="M244.012 359.929H220.024C217.815 359.929 216.026 358.141 216.026 355.932V323.953C216.026 321.744 217.814 319.956 220.024 319.956H244.012C246.221 319.956 248.009 321.744 248.009 323.953C248.009 326.163 246.221 327.951 244.012 327.951H224.021V351.934H244.012C246.221 351.934 248.009 353.722 248.009 355.931C248.009 358.14 246.221 359.929 244.012 359.929Z" fill="#0043AA"/>
<path d="M156.068 407.896H124.089C121.88 407.896 120.092 406.108 120.092 403.899V371.92C120.092 369.71 121.88 367.923 124.089 367.923H156.068C158.277 367.923 160.065 369.71 160.065 371.92V403.899C160.065 406.108 158.277 407.896 156.068 407.896ZM128.087 399.902H152.071V375.918H128.087V399.902Z" fill="#0043AA"/>
<path d="M204.035 407.896H172.057C169.848 407.896 168.06 406.108 168.06 403.899V371.92C168.06 369.71 169.848 367.923 172.057 367.923H204.035C206.244 367.923 208.033 369.71 208.033 371.92V403.899C208.033 406.108 206.245 407.896 204.035 407.896ZM176.054 399.902H200.037V375.918H176.054V399.902Z" fill="#0043AA"/>
<path d="M252.006 407.896H220.024C217.815 407.896 216.026 406.108 216.026 403.899V371.92C216.026 369.71 217.814 367.923 220.024 367.923C222.234 367.923 224.021 369.71 224.021 371.92V399.901H252.006C254.215 399.901 256.003 401.688 256.003 403.898C256.003 406.108 254.216 407.896 252.006 407.896Z" fill="#0043AA"/>
<path d="M291.975 447.869H4.171C1.962 447.869 0.173996 446.081 0.173996 443.872C0.173996 441.662 1.962 439.875 4.171 439.875H291.974C294.185 439.875 295.972 441.662 295.972 443.872C295.973 446.081 294.186 447.869 291.975 447.869Z" fill="#0043AA"/>
<path d="M315.959 463.858H4.171C1.962 463.858 0.173996 462.07 0.173996 459.861C0.173996 457.651 1.962 455.863 4.171 455.863H315.959C318.168 455.863 319.957 457.651 319.957 459.861C319.957 462.07 318.168 463.858 315.959 463.858Z" fill="#0043AA"/>
<path d="M68.127 431.88C67.105 431.88 66.082 431.49 65.301 430.709L1.34499 366.752C-0.217008 365.191 -0.217008 362.662 1.34499 361.1C2.90699 359.539 5.43599 359.539 6.99699 361.1L70.953 425.057C72.515 426.619 72.515 429.148 70.953 430.709C70.173 431.49 69.15 431.88 68.127 431.88Z" fill="#0043AA"/>
<path d="M68.127 431.88C65.918 431.88 64.13 430.092 64.13 427.883V363.926C64.13 361.717 65.918 359.929 68.127 359.929C70.337 359.929 72.125 361.717 72.125 363.926V427.883C72.125 430.092 70.337 431.88 68.127 431.88Z" fill="#0043AA"/>
<path d="M68.127 367.924H4.171C1.962 367.924 0.173996 366.136 0.173996 363.926C0.173996 361.717 1.962 359.929 4.171 359.929H68.127C70.337 359.929 72.125 361.717 72.125 363.926C72.125 366.136 70.337 367.924 68.127 367.924Z" fill="#0043AA"/>
<path d="M4.171 447.869C1.962 447.869 0.173996 446.081 0.173996 443.872V386.247C0.173996 384.037 1.962 382.25 4.171 382.25C6.38 382.25 8.168 384.037 8.168 386.247V443.872C8.168 446.081 6.38 447.869 4.171 447.869Z" fill="#0043AA"/>
<path d="M60.133 327.951H28.155C25.946 327.951 24.158 326.163 24.158 323.953C24.158 321.744 25.946 319.956 28.155 319.956H60.134C62.343 319.956 64.131 321.744 64.131 323.953C64.13 326.163 62.342 327.951 60.133 327.951Z" fill="#0043AA"/>
<path d="M60.133 351.935C57.924 351.935 56.136 350.147 56.136 347.938V323.954C56.136 321.745 57.924 319.957 60.133 319.957C62.342 319.957 64.13 321.745 64.13 323.954V347.938C64.13 350.146 62.342 351.935 60.133 351.935Z" fill="#0043AA"/>
<path d="M28.155 351.935C25.946 351.935 24.158 350.147 24.158 347.938V323.954C24.158 321.745 25.946 319.957 28.155 319.957C30.365 319.957 32.153 321.745 32.153 323.954V347.938C32.152 350.146 30.365 351.935 28.155 351.935Z" fill="#0043AA"/>
<path d="M76.123 351.935C73.913 351.935 72.125 350.147 72.125 347.938V323.954C72.125 321.745 73.913 319.957 76.123 319.957C78.332 319.957 80.12 321.745 80.12 323.954V347.938C80.12 350.146 78.332 351.935 76.123 351.935Z" fill="#0043AA"/>
<path d="M108.101 327.951H76.123C73.913 327.951 72.125 326.163 72.125 323.953C72.125 321.744 73.913 319.956 76.123 319.956H108.101C110.31 319.956 112.099 321.744 112.099 323.953C112.098 326.163 110.31 327.951 108.101 327.951Z" fill="#0043AA"/>
<path d="M108.101 359.929C105.892 359.929 104.103 358.141 104.103 355.932V323.953C104.103 321.744 105.891 319.956 108.101 319.956C110.311 319.956 112.099 321.744 112.099 323.953V355.932C112.098 358.141 110.31 359.929 108.101 359.929Z" fill="#0043AA"/>
<path d="M108.101 359.929H84.117C81.908 359.929 80.12 358.141 80.12 355.932C80.12 353.723 81.908 351.935 84.117 351.935H108.101C110.31 351.935 112.099 353.723 112.099 355.932C112.099 358.141 110.31 359.929 108.101 359.929Z" fill="#0043AA"/>
<path d="M108.101 407.896C105.892 407.896 104.103 406.108 104.103 403.899V371.92C104.103 369.71 105.891 367.923 108.101 367.923C110.311 367.923 112.099 369.71 112.099 371.92V403.899C112.098 406.108 110.31 407.896 108.101 407.896Z" fill="#0043AA"/>
<path d="M108.101 407.896H84.117C81.908 407.896 80.12 406.108 80.12 403.899C80.12 401.689 81.908 399.902 84.117 399.902H108.101C110.31 399.902 112.099 401.689 112.099 403.899C112.098 406.108 110.31 407.896 108.101 407.896Z" fill="#0043AA"/>
<path d="M108.101 375.918H84.117C81.908 375.918 80.12 374.131 80.12 371.921C80.12 369.711 81.908 367.924 84.117 367.924H108.101C110.31 367.924 112.099 369.711 112.099 371.921C112.099 374.131 110.31 375.918 108.101 375.918Z" fill="#0043AA"/>
<path d="M56.136 144.076H32.152C29.943 144.076 28.154 142.288 28.154 140.079C28.154 137.869 29.942 136.081 32.152 136.081H56.136C58.345 136.081 60.133 137.869 60.133 140.079C60.133 142.288 58.345 144.076 56.136 144.076Z" fill="#0043AA"/>
<path d="M104.103 144.076H80.12C77.911 144.076 76.123 142.288 76.123 140.079C76.123 137.869 77.911 136.081 80.12 136.081H104.103C106.313 136.081 108.101 137.869 108.101 140.079C108.101 142.288 106.313 144.076 104.103 144.076Z" fill="#0043AA"/>
<path d="M152.071 144.076H128.087C125.878 144.076 124.089 142.288 124.089 140.079C124.089 137.869 125.877 136.081 128.087 136.081H152.071C154.28 136.081 156.068 137.869 156.068 140.079C156.068 142.288 154.28 144.076 152.071 144.076Z" fill="#0043AA"/>
<path d="M200.038 144.076H176.055C173.846 144.076 172.058 142.288 172.058 140.079C172.058 137.869 173.846 136.081 176.055 136.081H200.038C202.248 136.081 204.036 137.869 204.036 140.079C204.035 142.288 202.248 144.076 200.038 144.076Z" fill="#0043AA"/>
<path d="M248.009 144.076H224.025C221.816 144.076 220.028 142.288 220.028 140.079C220.028 137.869 221.816 136.081 224.025 136.081H248.009C250.218 136.081 252.006 137.869 252.006 140.079C252.006 142.288 250.218 144.076 248.009 144.076Z" fill="#0043AA"/>
<path d="M295.973 144.076H271.989C269.78 144.076 267.993 142.288 267.993 140.079C267.993 137.869 269.78 136.081 271.989 136.081H295.973C298.182 136.081 299.971 137.869 299.971 140.079C299.971 142.288 298.182 144.076 295.973 144.076Z" fill="#0043AA"/>
<path d="M343.939 144.076H319.957C317.746 144.076 315.959 142.288 315.959 140.079C315.959 137.869 317.746 136.081 319.957 136.081H343.939C346.15 136.081 347.937 137.869 347.937 140.079C347.938 142.288 346.15 144.076 343.939 144.076Z" fill="#0043AA"/>
<path d="M68.127 120.092C61.515 120.092 56.136 114.713 56.136 108.1V60.1331C56.136 53.5201 61.515 48.1411 68.127 48.1411C74.74 48.1411 80.119 53.5201 80.119 60.1331V108.1C80.12 114.713 74.741 120.092 68.127 120.092ZM68.127 56.1361C65.922 56.1361 64.13 57.9281 64.13 60.1341V108.101C64.13 110.307 65.922 112.098 68.127 112.098C70.333 112.098 72.125 110.306 72.125 108.101V60.1331C72.125 57.9281 70.333 56.1361 68.127 56.1361Z" fill="#0043AA"/>
<path d="M148.073 120.092C141.46 120.092 136.081 114.713 136.081 108.1V60.1331C136.081 53.5201 141.46 48.1411 148.073 48.1411C154.686 48.1411 160.065 53.5201 160.065 60.1331V108.1C160.065 114.713 154.686 120.092 148.073 120.092ZM148.073 56.1361C145.867 56.1361 144.075 57.9281 144.075 60.1341V108.101C144.075 110.307 145.867 112.098 148.073 112.098C150.279 112.098 152.071 110.306 152.071 108.101V60.1331C152.071 57.9281 150.279 56.1361 148.073 56.1361Z" fill="#0043AA"/>
<path d="M228.023 120.092C221.41 120.092 216.027 114.713 216.027 108.1V60.1331C216.027 53.5201 221.41 48.1411 228.023 48.1411C234.635 48.1411 240.015 53.5201 240.015 60.1331V108.1C240.015 114.713 234.635 120.092 228.023 120.092ZM228.023 56.1361C225.817 56.1361 224.022 57.9281 224.022 60.1341V108.101C224.022 110.307 225.817 112.098 228.023 112.098C230.228 112.098 232.02 110.306 232.02 108.101V60.1331C232.02 57.9281 230.228 56.1361 228.023 56.1361Z" fill="#0043AA"/>
<path d="M307.965 120.092C301.352 120.092 295.973 114.713 295.973 108.1V60.1331C295.973 53.5201 301.352 48.1411 307.965 48.1411C314.578 48.1411 319.957 53.5201 319.957 60.1331V108.1C319.957 114.713 314.578 120.092 307.965 120.092ZM307.965 56.1361C305.764 56.1361 303.967 57.9281 303.967 60.1341V108.101C303.967 110.307 305.764 112.098 307.965 112.098C310.166 112.098 311.961 110.306 311.961 108.101V60.1331C311.961 57.9281 310.166 56.1361 307.965 56.1361Z" fill="#0043AA"/>
<path d="M124.089 88.1141H92.111C89.902 88.1141 88.113 86.3261 88.113 84.1171C88.113 81.9071 89.901 80.1191 92.111 80.1191H124.089C126.299 80.1191 128.087 81.9071 128.087 84.1171C128.087 86.3261 126.299 88.1141 124.089 88.1141Z" fill="#0043AA"/>
<path d="M204.035 88.1141H172.057C169.848 88.1141 168.06 86.3261 168.06 84.1171C168.06 81.9071 169.848 80.1191 172.057 80.1191H204.035C206.244 80.1191 208.033 81.9071 208.033 84.1171C208.033 86.3261 206.245 88.1141 204.035 88.1141Z" fill="#0043AA"/>
<path d="M283.98 88.1141H252.006C249.797 88.1141 248.009 86.3261 248.009 84.1171C248.009 81.9071 249.797 80.1191 252.006 80.1191H283.98C286.189 80.1191 287.978 81.9071 287.978 84.1171C287.979 86.3261 286.189 88.1141 283.98 88.1141Z" fill="#0043AA"/>
<path d="M383.912 463.858C381.703 463.858 379.916 462.07 379.916 459.861C379.916 457.651 381.703 455.863 383.912 455.863C450.039 455.863 503.832 402.072 503.832 335.945C503.832 333.736 505.619 331.948 507.828 331.948C510.037 331.948 511.826 333.736 511.826 335.945C511.826 406.476 454.443 463.858 383.912 463.858Z" fill="#0043AA"/>
<path d="M383.912 463.858C313.383 463.858 256 406.476 256 335.945C256 333.736 257.788 331.948 259.999 331.948C262.208 331.948 263.995 333.736 263.995 335.945C263.995 402.072 317.786 455.863 383.913 455.863C386.124 455.863 387.911 457.651 387.911 459.861C387.91 462.07 386.123 463.858 383.912 463.858Z" fill="#0043AA"/>
<path d="M507.828 339.942C505.619 339.942 503.832 338.154 503.832 335.945C503.832 260.644 455.045 199.155 443.412 185.575C434.801 192.179 410.324 208.059 393.086 190.88C378.799 176.534 384.107 148.733 388.566 133.38C358.226 153.417 263.994 224.635 263.994 335.945C263.994 338.154 262.207 339.942 259.998 339.942C257.787 339.942 255.999 338.154 255.999 335.945C255.999 199.195 392.578 121.369 393.953 120.599C395.428 119.784 397.271 119.975 398.543 121.087C399.816 122.207 400.246 124.007 399.613 125.576C399.441 126.009 382.508 168.921 398.738 185.222C414.259 200.688 440.943 177.306 441.217 177.064C442.826 175.62 445.309 175.733 446.791 177.318C449.447 180.152 511.826 247.758 511.826 335.944C511.826 338.154 510.037 339.942 507.828 339.942Z" fill="#0043AA"/>
<path d="M384.154 248.005C381.945 248.005 380.119 246.217 380.119 244.007C380.119 241.798 381.867 240.01 384.068 240.01H384.154C386.357 240.01 388.152 241.798 388.152 244.007C388.152 246.218 386.357 248.005 384.154 248.005Z" fill="#0043AA"/>
<path d="M384.154 431.88C381.945 431.88 380.119 430.092 380.119 427.883C380.119 425.674 381.867 423.886 384.068 423.886H384.154C386.357 423.886 388.152 425.674 388.152 427.883C388.152 430.092 386.357 431.88 384.154 431.88Z" fill="#0043AA"/>
<path d="M338.186 260.325C335.977 260.325 334.151 258.537 334.151 256.327C334.151 254.117 335.899 252.329 338.1 252.329H338.186C340.389 252.329 342.184 254.117 342.184 256.327C342.184 258.537 340.389 260.325 338.186 260.325Z" fill="#0043AA"/>
<path d="M430.123 419.561C427.914 419.561 426.088 417.773 426.088 415.563C426.088 413.354 427.836 411.566 430.037 411.566H430.123C432.324 411.566 434.121 413.354 434.121 415.563C434.121 417.772 432.324 419.561 430.123 419.561Z" fill="#0043AA"/>
<path d="M304.521 293.974C302.312 293.974 300.484 292.186 300.484 289.977C300.484 287.768 302.234 285.98 304.435 285.98H304.521C306.722 285.98 308.519 287.768 308.519 289.977C308.519 292.186 306.723 293.974 304.521 293.974Z" fill="#0043AA"/>
<path d="M463.773 385.911C461.562 385.911 459.736 384.123 459.736 381.914C459.736 379.705 461.484 377.917 463.687 377.917H463.773C465.974 377.917 467.769 379.705 467.769 381.914C467.769 384.123 465.975 385.911 463.773 385.911Z" fill="#0043AA"/>
<path d="M292.201 339.942C289.992 339.942 288.166 338.154 288.166 335.945C288.166 333.736 289.914 331.948 292.115 331.948H292.201C294.404 331.948 296.199 333.736 296.199 335.945C296.199 338.154 294.404 339.942 292.201 339.942Z" fill="#0043AA"/>
<path d="M476.076 339.942C473.867 339.942 472.041 338.154 472.041 335.945C472.041 333.736 473.789 331.948 475.99 331.948H476.076C478.277 331.948 480.074 333.736 480.074 335.945C480.074 338.154 478.277 339.942 476.076 339.942Z" fill="#0043AA"/>
<path d="M304.506 385.919C302.297 385.919 300.469 384.131 300.469 381.922C300.469 379.713 302.219 377.925 304.42 377.925H304.506C306.707 377.925 308.504 379.713 308.504 381.922C308.504 384.131 306.707 385.919 304.506 385.919Z" fill="#0043AA"/>
<path d="M463.758 293.974C461.547 293.974 459.721 292.186 459.721 289.977C459.721 287.768 461.469 285.98 463.672 285.98H463.758C465.959 285.98 467.754 287.768 467.754 289.977C467.754 292.186 465.959 293.974 463.758 293.974Z" fill="#0043AA"/>
<path d="M338.17 419.576C335.961 419.576 334.135 417.788 334.135 415.578C334.135 413.369 335.883 411.581 338.084 411.581H338.17C340.373 411.581 342.168 413.369 342.168 415.578C342.168 417.788 340.373 419.576 338.17 419.576Z" fill="#0043AA"/>
<path d="M430.107 260.333C427.898 260.333 426.072 258.545 426.072 256.335C426.072 254.125 427.82 252.337 430.021 252.337H430.107C432.31 252.337 434.105 254.125 434.105 256.335C434.105 258.545 432.311 260.333 430.107 260.333Z" fill="#0043AA"/>
<path d="M383.912 447.869C322.197 447.869 271.988 397.661 271.988 335.945C271.988 274.229 322.197 224.021 383.912 224.021C445.629 224.021 495.836 274.229 495.836 335.945C495.836 397.661 445.629 447.869 383.912 447.869ZM383.912 232.016C326.607 232.016 279.984 278.641 279.984 335.945C279.984 393.249 326.607 439.875 383.912 439.875C441.217 439.875 487.842 393.25 487.842 335.945C487.842 278.64 441.217 232.016 383.912 232.016Z" fill="#0043AA"/>
<path d="M383.912 339.942C381.703 339.942 379.916 338.154 379.916 335.945V267.992C379.916 265.782 381.703 263.994 383.912 263.994C386.123 263.994 387.91 265.782 387.91 267.992V335.945C387.91 338.154 386.123 339.942 383.912 339.942Z" fill="#0043AA"/>
<path d="M427.883 383.912C426.86 383.912 425.838 383.522 425.057 382.742L381.086 338.771C379.525 337.209 379.525 334.68 381.086 333.119C382.648 331.557 385.178 331.557 386.738 333.119L430.709 377.09C432.271 378.651 432.271 381.18 430.709 382.742C429.928 383.522 428.906 383.912 427.883 383.912Z" fill="#0043AA"/>
<path d="M244.012 311.962H220.024C217.815 311.962 216.026 310.174 216.026 307.965C216.026 305.755 217.814 303.967 220.024 303.967H244.012C246.221 303.967 248.009 305.755 248.009 307.965C248.009 310.174 246.221 311.962 244.012 311.962Z" fill="#0043AA"/>
<path d="M299.971 192.043C297.76 192.043 295.973 190.255 295.973 188.045V180.051C295.973 177.841 297.76 176.053 299.971 176.053C302.18 176.053 303.967 177.841 303.967 180.051V188.045C303.967 190.256 302.18 192.043 299.971 192.043Z" fill="#0043AA"/>
<path d="M275.986 216.027H267.992C265.783 216.027 263.994 214.239 263.994 212.029C263.994 209.819 265.783 208.031 267.992 208.031H275.986C278.195 208.031 279.984 209.819 279.984 212.029C279.984 214.239 278.195 216.027 275.986 216.027Z" fill="#0043AA"/>
<path d="M252.006 407.896C249.797 407.896 248.009 406.108 248.009 403.899V387.91C248.009 385.701 249.797 383.912 252.006 383.912C254.215 383.912 256.003 385.701 256.003 387.91V403.899C256.003 406.108 254.216 407.896 252.006 407.896Z" fill="#0043AA"/>
<path d="M244.012 375.918H220.024C217.815 375.918 216.026 374.131 216.026 371.921C216.026 369.711 217.814 367.924 220.024 367.924H244.012C246.221 367.924 248.009 369.711 248.009 371.921C248.009 374.131 246.221 375.918 244.012 375.918Z" fill="#0043AA"/>
</svg>
