<svg width="512" height="512" viewBox="0 0 512 512" fill="none" xmlns="http://www.w3.org/2000/svg">
<g clip-path="url(#clip0_347_149)">
<path d="M351.268 79.335C284.197 12.178 175.318 12.186 108.239 79.335C41.0885 146.414 41.0805 255.293 108.239 322.361C175.318 389.518 284.197 389.518 351.268 322.361C418.419 255.293 418.427 146.414 351.268 79.335ZM96.8865 67.983C170.275 -5.33399 289.241 -5.32699 362.628 67.975C436.016 141.363 436.016 260.329 362.628 333.728C289.241 407.038 170.275 407.022 96.8785 333.728C23.5775 260.329 23.5695 141.371 96.8865 67.983Z" fill="white"/>
<path d="M273.727 273.598C260.697 280.718 245.661 284.793 229.749 284.793C213.846 284.793 198.817 280.718 185.787 273.598C157.166 258.018 137.812 227.711 137.812 192.86V208.841C137.82 243.708 157.166 274.004 185.787 289.586C198.817 296.707 213.846 300.782 229.749 300.782C245.66 300.782 260.689 296.707 273.727 289.586C302.34 274.004 321.695 243.7 321.695 208.841V192.86C321.695 227.711 302.341 258.018 273.727 273.598Z" fill="#FF8DA3"/>
<path d="M225.753 160.881L241.749 148.882V228.835L225.753 228.827V160.881Z" fill="white"/>
<path d="M225.753 160.881V228.827L241.75 228.835V148.882L225.753 160.881ZM321.695 192.859C321.695 227.711 302.341 258.017 273.727 273.597C260.697 280.717 245.661 284.792 229.749 284.792C213.846 284.792 198.817 280.717 185.787 273.597C157.166 258.017 137.812 227.71 137.812 192.859C137.82 142.096 178.995 100.921 229.75 100.914C280.52 100.914 321.695 142.089 321.695 192.859Z" fill="#FF8DA3"/>
<path d="M201.777 273.598C173.156 258.018 153.802 227.711 153.802 192.86C153.81 144.791 190.745 105.381 237.76 101.321C235.113 101.094 232.451 100.915 229.75 100.915C178.995 100.923 137.82 142.098 137.812 192.86C137.812 227.712 157.166 258.018 185.787 273.598C198.817 280.718 213.846 284.793 229.749 284.793C232.45 284.793 235.089 284.512 237.736 284.293C224.816 283.153 212.59 279.516 201.777 273.598Z" fill="white"/>
<path d="M257.73 112.109C286.352 127.692 305.706 158 305.706 192.851C305.698 240.92 268.762 280.327 221.747 284.386C224.394 284.62 227.056 284.792 229.757 284.792C280.511 284.792 321.687 243.613 321.695 192.851C321.695 157.999 302.341 127.692 273.719 112.109C260.689 104.989 245.66 100.914 229.757 100.914C227.056 100.914 224.417 101.195 221.77 101.422C234.691 102.554 246.917 106.2 257.73 112.109Z" fill="#FF1B46"/>
<path d="M137.812 208.841C137.82 243.708 157.166 274.004 185.787 289.586C198.817 296.707 213.846 300.782 229.749 300.782C245.66 300.782 260.689 296.707 273.727 289.586C302.34 274.004 321.695 243.7 321.695 208.841V192.86C321.695 142.089 280.52 100.915 229.75 100.915C178.995 100.923 137.82 142.098 137.812 192.86V208.841V208.841ZM351.268 79.335C418.426 146.414 418.418 255.293 351.268 322.361C284.197 389.518 175.318 389.518 108.239 322.361C41.0805 255.293 41.0885 146.414 108.239 79.335C175.318 12.186 284.197 12.178 351.268 79.335Z" fill="#FF1B46"/>
<path d="M140.217 322.361C73.0585 255.293 73.0665 146.414 140.217 79.335C169.689 49.832 207.234 33.312 245.755 29.736C196.601 25.161 145.854 41.681 108.239 79.335C41.0885 146.414 41.0805 255.293 108.239 322.361C145.846 360.023 196.593 376.543 245.747 371.967C207.226 368.393 169.689 351.872 140.217 322.361Z" fill="#FF8DA3"/>
<path d="M410.673 398.715L427.622 381.774L433.298 376.09L539.702 482.502C547.533 490.34 547.533 502.973 539.694 510.795C531.871 518.556 519.239 518.556 511.4 510.795L404.997 404.383L410.673 398.715Z" fill="#FF8DA3"/>
<path d="M522.706 499.49L416.302 393.078L410.673 398.715L404.997 404.383L511.4 510.795C519.239 518.556 531.871 518.556 539.694 510.795C541.724 508.766 543.2 506.407 544.184 503.909C537.002 506.72 528.53 505.268 522.706 499.49Z" fill="white"/>
<path d="M371.098 325.25L354.148 342.191L410.673 398.715L427.622 381.773L371.098 325.25Z" fill="#FF8DA3"/>
<path d="M359.793 336.555L354.148 342.191L410.673 398.715L416.309 393.078L359.793 336.555Z" fill="white"/>
<path d="M229.758 392.703C178.504 392.703 130.309 372.764 94.0525 336.555C19.3145 261.719 19.3145 139.974 94.0605 65.158C130.309 28.939 178.504 9 229.758 9C281.012 9 329.205 28.939 365.453 65.149C440.277 139.973 440.277 261.718 365.453 336.554C329.205 372.764 281.019 392.703 229.758 392.703ZM229.758 16.995C180.635 16.995 134.448 36.107 99.7135 70.81C28.0815 142.503 28.0815 259.182 99.7055 330.902C134.447 365.597 180.635 384.709 229.758 384.709C278.881 384.709 325.067 365.598 359.801 330.902C431.502 259.189 431.502 142.503 359.801 70.801C325.058 36.106 278.881 16.995 229.758 16.995Z" fill="#99102A"/>
<path d="M229.757 376.731C182.766 376.731 138.608 358.43 105.412 325.188C72.1845 292.007 53.8765 247.854 53.8765 200.87C53.8765 153.878 72.1765 109.713 105.412 76.509C138.608 43.274 182.773 24.974 229.757 24.974C276.748 24.974 320.906 43.274 354.094 76.509C387.329 109.705 405.629 153.863 405.629 200.846C405.629 247.838 387.329 291.991 354.094 325.187C320.906 358.43 276.74 376.731 229.757 376.731ZM229.757 32.968C184.904 32.968 142.754 50.44 111.065 82.161C79.3365 113.858 61.8725 156.01 61.8725 200.869C61.8725 245.713 79.3455 287.853 111.065 319.535C142.754 351.264 184.905 368.735 229.757 368.735C274.609 368.735 316.753 351.263 348.443 319.535C380.164 287.853 397.635 245.698 397.635 200.846C397.635 156.002 380.163 113.85 348.443 82.161C316.761 50.44 274.609 32.968 229.757 32.968Z" fill="#99102A"/>
<path d="M410.673 402.713C409.651 402.713 408.627 402.322 407.847 401.541L359.255 352.949C357.693 351.388 357.693 348.858 359.255 347.297C360.817 345.736 363.346 345.735 364.907 347.297L413.499 395.889C415.061 397.451 415.061 399.981 413.499 401.541C412.719 402.322 411.695 402.713 410.673 402.713Z" fill="#99102A"/>
<path d="M427.622 385.772C426.6 385.772 425.576 385.381 424.796 384.6L376.204 336.008C374.642 334.446 374.642 331.917 376.204 330.356C377.766 328.795 380.295 328.794 381.856 330.356L430.448 378.948C432.01 380.51 432.01 383.039 430.448 384.6C429.668 385.381 428.644 385.772 427.622 385.772Z" fill="#99102A"/>
<path d="M404.998 408.381C403.976 408.381 402.951 407.99 402.171 407.209C400.609 405.648 400.609 403.118 402.171 401.557L430.473 373.264C432.035 371.702 434.564 371.702 436.125 373.264C437.686 374.826 437.687 377.355 436.125 378.916L407.824 407.209C407.043 407.99 406.02 408.381 404.998 408.381Z" fill="#99102A"/>
<path d="M539.703 486.499C538.681 486.499 537.657 486.109 536.877 485.328L430.473 378.916C428.911 377.354 428.911 374.825 430.473 373.264C432.035 371.703 434.564 371.702 436.125 373.264L542.529 479.676C544.091 481.238 544.091 483.767 542.529 485.328C541.749 486.109 540.725 486.499 539.703 486.499Z" fill="#99102A"/>
<path d="M511.401 514.793C510.379 514.793 509.356 514.402 508.575 513.621L402.171 407.209C400.609 405.648 400.609 403.118 402.171 401.557C403.734 399.996 406.263 399.996 407.824 401.557L514.227 507.969C515.789 509.531 515.789 512.061 514.227 513.621C513.447 514.402 512.425 514.793 511.401 514.793Z" fill="#99102A"/>
<path d="M525.548 520.586C519.403 520.586 513.267 518.274 508.59 513.637C507.022 512.092 507.006 509.562 508.559 507.985C510.106 506.423 512.635 506.408 514.211 507.954C520.481 514.138 530.653 514.138 536.876 507.954C539.905 504.94 541.576 500.912 541.576 496.649C541.576 492.386 539.905 488.358 536.876 485.329C535.314 483.767 535.314 481.238 536.876 479.677C538.438 478.116 540.968 478.115 542.529 479.677C547.073 484.221 549.57 490.247 549.57 496.65C549.57 503.053 547.064 509.08 542.52 513.623C537.844 518.259 531.691 520.586 525.548 520.586Z" fill="#116FFF"/>
<path d="M229.75 304.779C213.722 304.779 197.857 300.735 183.867 293.099C153.005 276.283 133.823 243.995 133.815 208.84C133.815 206.63 135.603 204.842 137.812 204.842C140.021 204.842 141.809 206.63 141.809 208.84C141.817 241.068 159.399 270.665 187.7 286.072C213.347 300.109 246.168 300.093 271.815 286.088C300.116 270.657 317.698 241.06 317.698 208.84C317.698 206.63 319.485 204.842 321.695 204.842C323.904 204.842 325.692 206.63 325.692 208.84C325.692 243.987 306.51 276.282 275.64 293.099C261.65 300.735 245.778 304.779 229.75 304.779Z" fill="#99102A"/>
<path d="M229.75 288.79C213.722 288.79 197.857 284.746 183.867 277.11C152.997 260.298 133.815 228.015 133.815 192.859C133.823 139.965 176.856 96.924 229.75 96.917C282.651 96.917 325.692 139.958 325.692 192.859C325.692 228.015 306.51 260.297 275.64 277.11C261.642 284.746 245.778 288.79 229.75 288.79ZM229.75 104.911C181.268 104.919 141.817 144.369 141.81 192.859C141.81 225.087 159.392 254.676 187.701 270.088C213.348 284.121 246.177 284.09 271.808 270.088C300.117 254.677 317.699 225.088 317.699 192.859C317.698 144.361 278.248 104.911 229.75 104.911Z" fill="#99102A"/>
<path d="M321.695 212.838C319.485 212.838 317.698 211.05 317.698 208.841V192.86C317.698 190.651 319.485 188.863 321.695 188.863C323.904 188.863 325.692 190.651 325.692 192.86V208.841C325.692 211.05 323.904 212.838 321.695 212.838Z" fill="#99102A"/>
<path d="M137.812 212.838C135.603 212.838 133.815 211.05 133.815 208.841V192.86C133.815 190.651 135.603 188.863 137.812 188.863C140.021 188.863 141.809 190.651 141.809 192.86V208.841C141.809 211.05 140.022 212.838 137.812 212.838Z" fill="#99102A"/>
<path d="M229.75 304.779C227.541 304.779 225.753 302.999 225.753 300.782V284.793C225.753 282.592 227.541 280.796 229.75 280.796C231.959 280.796 233.747 282.592 233.747 284.793V300.782C233.747 302.999 231.959 304.779 229.75 304.779Z" fill="#99102A"/>
<path d="M185.786 293.584C183.577 293.584 181.789 291.804 181.789 289.586V273.598C181.789 271.392 183.577 269.604 185.786 269.604C187.995 269.604 189.784 271.392 189.784 273.598V289.586C189.784 291.804 187.996 293.584 185.786 293.584Z" fill="#99102A"/>
<path d="M273.726 293.584C271.517 293.584 269.729 291.804 269.729 289.586V273.598C269.729 271.384 271.517 269.596 273.726 269.596C275.936 269.596 277.724 271.384 277.724 273.598V289.586C277.724 291.804 275.936 293.584 273.726 293.584Z" fill="#99102A"/>
<path d="M241.749 232.832C239.54 232.832 237.752 231.044 237.752 228.835V148.882C237.752 146.672 239.54 144.884 241.749 144.884C243.958 144.884 245.747 146.672 245.747 148.882V228.835C245.747 231.044 243.959 232.832 241.749 232.832Z" fill="#99102A"/>
<path d="M225.753 232.824C223.543 232.824 221.755 231.036 221.755 228.827V160.881C221.755 158.672 223.543 156.884 225.753 156.884C227.962 156.884 229.75 158.672 229.75 160.881V228.827C229.75 231.036 227.962 232.824 225.753 232.824Z" fill="#99102A"/>
<path d="M209.771 176.87C208.561 176.87 207.358 176.316 206.57 175.269C205.251 173.505 205.61 170.998 207.374 169.671L239.352 145.68C241.109 144.361 243.615 144.72 244.95 146.484C246.27 148.249 245.911 150.755 244.146 152.082L212.167 176.074C211.45 176.612 210.606 176.87 209.771 176.87Z" fill="#99102A"/>
<path d="M257.739 232.832L209.772 232.824C207.563 232.824 205.775 231.036 205.775 228.827C205.775 226.618 207.563 224.83 209.772 224.83L257.739 224.838C259.948 224.838 261.737 226.626 261.737 228.835C261.736 231.044 259.948 232.832 257.739 232.832Z" fill="#99102A"/>
</g>
<defs>
<clipPath id="clip0_347_149">
<rect width="512" height="512" fill="white"/>
</clipPath>
</defs>
</svg>
