<svg width="244" height="244" viewBox="0 0 244 244" fill="none" xmlns="http://www.w3.org/2000/svg">
<g filter="url(#filter0_d_1_1470)">
<path d="M225.25 83.5834H185.917C182.005 83.5834 178.253 85.1374 175.487 87.9035C172.721 90.6697 171.167 94.4214 171.167 98.3334V137.667C171.167 141.579 172.721 145.33 175.487 148.097C178.253 150.863 182.005 152.417 185.917 152.417H225.25C229.162 152.417 232.914 150.863 235.68 148.097C238.446 145.33 240 141.579 240 137.667V98.3334C240 94.4214 238.446 90.6697 235.68 87.9035C232.914 85.1374 229.162 83.5834 225.25 83.5834ZM230.167 137.667C230.167 138.971 229.649 140.221 228.727 141.143C227.805 142.065 226.554 142.583 225.25 142.583H185.917C184.613 142.583 183.362 142.065 182.44 141.143C181.518 140.221 181 138.971 181 137.667V98.3334C181 97.0294 181.518 95.7788 182.44 94.8568C183.362 93.9347 184.613 93.4167 185.917 93.4167H225.25C226.554 93.4167 227.805 93.9347 228.727 94.8568C229.649 95.7788 230.167 97.0294 230.167 98.3334V137.667Z" fill="white"/>
<path d="M225.25 0H185.917C182.005 0 178.253 1.55401 175.487 4.32017C172.721 7.08634 171.167 10.8381 171.167 14.75V54.0833C171.167 57.9953 172.721 61.747 175.487 64.5132C178.253 67.2793 182.005 68.8333 185.917 68.8333H225.25C229.162 68.8333 232.914 67.2793 235.68 64.5132C238.446 61.747 240 57.9953 240 54.0833V14.75C240 10.8381 238.446 7.08634 235.68 4.32017C232.914 1.55401 229.162 0 225.25 0V0ZM230.167 54.0833C230.167 55.3873 229.649 56.6379 228.727 57.5599C227.805 58.482 226.554 59 225.25 59H185.917C184.613 59 183.362 58.482 182.44 57.5599C181.518 56.6379 181 55.3873 181 54.0833V14.75C181 13.446 181.518 12.1954 182.44 11.2734C183.362 10.3513 184.613 9.83333 185.917 9.83333H225.25C226.554 9.83333 227.805 10.3513 228.727 11.2734C229.649 12.1954 230.167 13.446 230.167 14.75V54.0833Z" fill="white"/>
<path d="M225.25 167.167H185.917C182.005 167.167 178.253 168.721 175.487 171.487C172.721 174.253 171.167 178.005 171.167 181.917V221.25C171.167 225.162 172.721 228.914 175.487 231.68C178.253 234.446 182.005 236 185.917 236H225.25C229.162 236 232.914 234.446 235.68 231.68C238.446 228.914 240 225.162 240 221.25V181.917C240 178.005 238.446 174.253 235.68 171.487C232.914 168.721 229.162 167.167 225.25 167.167ZM230.167 221.25C230.167 222.554 229.649 223.805 228.727 224.727C227.805 225.649 226.554 226.167 225.25 226.167H185.917C184.613 226.167 183.362 225.649 182.44 224.727C181.518 223.805 181 222.554 181 221.25V181.917C181 180.613 181.518 179.362 182.44 178.44C183.362 177.518 184.613 177 185.917 177H225.25C226.554 177 227.805 177.518 228.727 178.44C229.649 179.362 230.167 180.613 230.167 181.917V221.25Z" fill="white"/>
<path d="M205.583 211.417C211.014 211.417 215.417 207.014 215.417 201.583C215.417 196.153 211.014 191.75 205.583 191.75C200.153 191.75 195.75 196.153 195.75 201.583C195.75 207.014 200.153 211.417 205.583 211.417Z" fill="white"/>
<path d="M212.712 30.0408C202.142 24.7308 201.011 23.5016 197.962 25.1241C194.914 26.7466 195.75 30.0408 195.75 39.3333C195.75 40.6373 196.268 41.8879 197.19 42.8099C198.112 43.732 199.363 44.25 200.667 44.25C202.191 44.25 201.896 44.25 212.712 38.7925C213.518 38.3799 214.194 37.753 214.666 36.981C215.138 36.2089 215.387 35.3215 215.387 34.4166C215.387 33.5118 215.138 32.6244 214.666 31.8523C214.194 31.0803 213.518 30.4534 212.712 30.0408Z" fill="white"/>
<path d="M210.5 108.167C211.804 108.167 213.054 107.649 213.977 106.727C214.899 105.805 215.417 104.554 215.417 103.25C215.417 101.946 214.899 100.695 213.977 99.7734C213.054 98.8514 211.804 98.3334 210.5 98.3334C206.588 98.3334 202.836 99.8874 200.07 102.654C197.304 105.42 195.75 109.171 195.75 113.083C194.446 113.083 193.195 113.601 192.273 114.523C191.351 115.445 190.833 116.696 190.833 118C190.833 119.304 191.351 120.555 192.273 121.477C193.195 122.399 194.446 122.917 195.75 122.917V132.75C195.75 134.054 196.268 135.305 197.19 136.227C198.112 137.149 199.363 137.667 200.667 137.667C201.971 137.667 203.221 137.149 204.143 136.227C205.065 135.305 205.583 134.054 205.583 132.75V122.917H210.5C211.804 122.917 213.054 122.399 213.977 121.477C214.899 120.555 215.417 119.304 215.417 118C215.417 116.696 214.899 115.445 213.977 114.523C213.054 113.601 211.804 113.083 210.5 113.083H205.583C205.583 111.779 206.101 110.529 207.023 109.607C207.945 108.685 209.196 108.167 210.5 108.167Z" fill="white"/>
<path d="M119.837 74.5859C116.69 72.4717 118.558 72.7667 66.9825 93.4167H28.5833C22.4893 93.4812 16.6365 95.807 12.1604 99.9429C7.68429 104.079 4.90397 109.73 4.35885 115.8C3.81372 121.87 5.54265 127.926 9.21021 132.793C12.8778 137.66 18.2225 140.992 24.2075 142.141L28.5833 177.59C28.7282 178.789 29.3096 179.893 30.2164 180.691C31.1232 181.489 32.2921 181.925 33.5 181.917H53.1667C53.8651 181.922 54.5566 181.778 55.1951 181.495C55.8337 181.212 56.4045 180.796 56.8697 180.275C57.3349 179.754 57.6838 179.14 57.893 178.473C58.1023 177.807 58.1672 177.103 58.0833 176.41L53.8058 142.583H66.9825C119.935 163.774 115.707 162.25 117.083 162.25C118.387 162.25 119.638 161.732 120.56 160.81C121.482 159.888 122 158.637 122 157.333C122 72.4225 122.934 76.7 119.837 74.5859ZM63 132.75H33.5V103.25H63V132.75ZM23.6667 104.086V131.914C20.7855 130.901 18.2901 129.018 16.5248 126.525C14.7595 124.033 13.8114 121.054 13.8114 118C13.8114 114.946 14.7595 111.967 16.5248 109.475C18.2901 106.982 20.7855 105.099 23.6667 104.086V104.086ZM47.6108 172.083H37.7775L34.09 142.583H43.9233L47.6108 172.083ZM112.167 150.057L72.8333 134.323V101.677L112.167 85.9434V150.057Z" fill="white"/>
<path d="M136.75 68.8333C140.339 68.8333 139.012 69.4233 160.497 37.1208C161.077 36.0412 161.232 34.7844 160.933 33.5964C160.634 32.4084 159.902 31.3749 158.881 30.6982C157.859 30.0215 156.622 29.7504 155.412 29.938C154.201 30.1256 153.104 30.7584 152.336 31.7124L132.669 61.2124C132.182 61.9519 131.904 62.8091 131.864 63.6937C131.824 64.5782 132.023 65.4571 132.441 66.2376C132.859 67.0182 133.48 67.6714 134.238 68.1283C134.997 68.5851 135.865 68.8287 136.75 68.8333Z" fill="white"/>
<path d="M140.831 169.379C140.062 168.425 138.965 167.792 137.755 167.605C136.544 167.417 135.307 167.688 134.286 168.365C133.265 169.042 132.533 170.075 132.234 171.263C131.935 172.451 132.09 173.708 132.669 174.788C154.057 206.893 152.877 206.5 156.417 206.5C157.302 206.495 158.17 206.252 158.928 205.795C159.687 205.338 160.308 204.685 160.726 203.904C161.144 203.124 161.343 202.245 161.303 201.36C161.263 200.476 160.985 199.619 160.498 198.879L140.831 169.379Z" fill="white"/>
<path d="M156.417 113.083H136.75C135.446 113.083 134.195 113.601 133.273 114.523C132.351 115.445 131.833 116.696 131.833 118C131.833 119.304 132.351 120.555 133.273 121.477C134.195 122.399 135.446 122.917 136.75 122.917H156.417C157.721 122.917 158.971 122.399 159.893 121.477C160.815 120.555 161.333 119.304 161.333 118C161.333 116.696 160.815 115.445 159.893 114.523C158.971 113.601 157.721 113.083 156.417 113.083Z" fill="white"/>
</g>
<defs>
<filter id="filter0_d_1_1470" x="0" y="0" width="244" height="244" filterUnits="userSpaceOnUse" color-interpolation-filters="sRGB">
<feFlood flood-opacity="0" result="BackgroundImageFix"/>
<feColorMatrix in="SourceAlpha" type="matrix" values="0 0 0 0 0 0 0 0 0 0 0 0 0 0 0 0 0 0 127 0" result="hardAlpha"/>
<feOffset dy="4"/>
<feGaussianBlur stdDeviation="2"/>
<feComposite in2="hardAlpha" operator="out"/>
<feColorMatrix type="matrix" values="0 0 0 0 0 0 0 0 0 0 0 0 0 0 0 0 0 0 0.25 0"/>
<feBlend mode="normal" in2="BackgroundImageFix" result="effect1_dropShadow_1_1470"/>
<feBlend mode="normal" in="SourceGraphic" in2="effect1_dropShadow_1_1470" result="shape"/>
</filter>
</defs>
</svg>
