<svg width="142" height="130" viewBox="0 0 142 130" fill="none" xmlns="http://www.w3.org/2000/svg">
<path d="M141.431 67.5813C141.431 62.7875 137.375 58.7312 132.581 58.7312C131.106 58.7312 130 59.1 128.894 59.4688C127.419 56.15 124.1 53.5688 120.413 52.8313C120.413 52.0938 120.781 50.9875 120.781 50.25C120.781 42.1375 114.144 35.8688 106.4 35.8688C102.713 35.8688 99.3938 37.3438 96.8126 39.925C95.7063 26.2813 84.2751 15.2188 70.2626 15.2188C58.0938 15.2188 47.7688 23.3312 44.8188 34.7625C43.7126 34.3937 42.6063 34.3938 41.1313 34.3938C32.6501 34.3938 25.6439 40.2937 23.4314 48.0375C21.5876 47.3 19.3751 46.9313 17.1626 46.9313C7.94385 46.9313 0.568848 54.3063 0.568848 63.525C0.568848 66.475 1.6751 69.425 3.1501 72.0063H139.956C140.694 70.5313 141.431 69.425 141.431 67.5813Z" fill="#FF1B46"/>
<path d="M116.725 55.4125C112.669 57.9937 107.506 57.2562 104.556 53.2C103.819 52.4625 103.45 51.3562 103.45 50.6187C103.45 52.0937 104.188 53.9375 104.925 55.4125C107.506 59.4687 113.038 60.2062 117.094 57.625C120.044 55.4125 121.519 51.725 120.413 48.0375C120.781 50.9875 119.306 53.5687 116.725 55.4125Z" fill="#D1D3D4"/>
<path d="M12.3689 72.0062H57.3564C64.7314 72.0062 70.6314 77.9062 70.6314 85.2812V100.031" stroke="white" stroke-miterlimit="10"/>
<path d="M129.262 72.0062H84.275C76.9 72.0062 71 66.1062 71 58.7312V43.9812" stroke="white" stroke-miterlimit="10"/>
<path d="M23.4314 48.4062C21.5876 47.6687 19.3751 47.2999 17.1626 47.2999C7.94385 47.2999 0.568848 54.6749 0.568848 63.8937" stroke="#414042" stroke-miterlimit="10"/>
<path d="M96.8126 40.2938C95.7063 26.65 84.2751 15.5875 70.2626 15.5875C58.0938 15.5875 47.7688 23.7 44.8188 35.1313" stroke="#414042" stroke-miterlimit="10"/>
<path d="M141.431 67.5812C141.431 62.7874 137.375 58.7312 132.581 58.7312C131.106 58.7312 130 59.0999 128.894 59.4687C127.419 56.1499 124.1 53.5687 120.413 52.8312" stroke="#414042" stroke-miterlimit="10"/>
<path d="M65.8376 46.5625L70.6314 41.4L75.4251 46.5625" stroke="white" stroke-miterlimit="10"/>
<path d="M65.8376 96.3438L70.6314 101.137L75.4251 96.3438" stroke="white" stroke-miterlimit="10"/>
<path d="M33.0188 5.26245V31.0749" stroke="white" stroke-miterlimit="10"/>
<path d="M89.8064 121.05V100.031" stroke="white" stroke-miterlimit="10"/>
<path d="M102.713 28.8625V7.84375" stroke="white" stroke-miterlimit="10"/>
<path d="M107.506 129.9V86.0187" stroke="white" stroke-miterlimit="10"/>
<path d="M47.7688 84.9125V115.519" stroke="white" stroke-miterlimit="10"/>
<path d="M37.4438 124.737V104.825" stroke="white" stroke-miterlimit="10"/>
<path d="M130.369 98.1875C130.369 100.031 126.312 100.031 126.312 102.244C126.312 104.087 130.369 104.088 130.369 106.3C130.369 108.144 126.312 108.144 126.312 110.356C126.312 112.2 130.369 112.2 130.369 114.413" stroke="white" stroke-miterlimit="10"/>
<path d="M87.2252 0.0999756C87.2252 1.94373 83.1689 1.94373 83.1689 4.15623C83.1689 5.99998 87.2252 5.99998 87.2252 8.21248C87.2252 10.0562 83.1689 10.0562 83.1689 12.2687C83.1689 14.1125 87.2252 14.1125 87.2252 16.325" stroke="white" stroke-miterlimit="10"/>
<path d="M72.8438 115.15C72.8438 116.625 69.8938 116.625 69.8938 118.1C69.8938 119.575 72.8438 119.575 72.8438 121.05C72.8438 122.525 69.8938 122.525 69.8938 124C69.8938 125.475 72.8438 125.475 72.8438 126.95" stroke="white" stroke-miterlimit="10"/>
<path d="M17.9 82.3312C17.9 84.1749 13.8438 84.1749 13.8438 86.3874C13.8438 88.2312 17.9 88.2312 17.9 90.4437C17.9 92.2874 13.8438 92.2874 13.8438 94.4999C13.8438 96.3437 17.9 96.3437 17.9 98.5562" stroke="white" stroke-miterlimit="10"/>
<path d="M17.9 22.225C17.9 24.0687 13.8438 24.0687 13.8438 26.2812C13.8438 28.125 17.9 28.125 17.9 30.3375C17.9 32.1812 13.8438 32.1812 13.8438 34.3937C13.8438 36.2375 17.9 36.2375 17.9 38.45" stroke="white" stroke-miterlimit="10"/>
<path d="M127.419 89.3374C129.252 89.3374 130.738 87.8516 130.738 86.0187C130.738 84.1858 129.252 82.7 127.419 82.7C125.586 82.7 124.1 84.1858 124.1 86.0187C124.1 87.8516 125.586 89.3374 127.419 89.3374Z" stroke="white" stroke-miterlimit="10"/>
<path d="M128.525 34.3937C130.358 34.3937 131.844 32.9079 131.844 31.075C131.844 29.2421 130.358 27.7562 128.525 27.7562C126.692 27.7562 125.206 29.2421 125.206 31.075C125.206 32.9079 126.692 34.3937 128.525 34.3937Z" stroke="white" stroke-miterlimit="10"/>
<path d="M21.2189 118.469C23.0518 118.469 24.5376 116.983 24.5376 115.15C24.5376 113.317 23.0518 111.831 21.2189 111.831C19.386 111.831 17.9001 113.317 17.9001 115.15C17.9001 116.983 19.386 118.469 21.2189 118.469Z" stroke="white" stroke-miterlimit="10"/>
<path d="M57.725 10.0562C59.5579 10.0562 61.0437 8.57035 61.0437 6.73745C61.0437 4.90456 59.5579 3.4187 57.725 3.4187C55.8921 3.4187 54.4062 4.90456 54.4062 6.73745C54.4062 8.57035 55.8921 10.0562 57.725 10.0562Z" stroke="white" stroke-miterlimit="10"/>
</svg>
