<svg width="104" height="170" viewBox="0 0 104 170" fill="none" xmlns="http://www.w3.org/2000/svg">
<path d="M73.7501 59.0002V125.375H66.3751V59.0002H73.7501Z" fill="#FF1B46"/>
<path d="M59.0002 77.4376V125.375H51.6255V77.4376H59.0002Z" fill="#FF1B46"/>
<path d="M44.2505 92.1879V125.375H36.8754V92.1879H44.2505Z" fill="#FF1B46"/>
<path fill-rule="evenodd" clip-rule="evenodd" d="M15.6719 0H87.5786C91.8923 0 95.8111 1.76213 98.6497 4.60085C101.488 7.43943 103.25 11.3585 103.25 15.6721V153.953C103.25 158.267 101.488 162.186 98.6497 165.024C95.8111 167.863 91.8922 169.625 87.5786 169.625H15.6719C11.3584 169.625 7.43957 167.863 4.60071 165.024C1.76213 162.186 0 158.267 0 153.953V15.6721C0 11.3585 1.76213 7.43956 4.60071 4.60072C7.43957 1.76214 11.3584 0 15.6719 0ZM14.7502 25.8126H88.5004H92.1879V29.5002V136.438V140.125H88.5004H14.7502H11.0626V136.438V29.5002V25.8126H14.7502ZM44.2501 14.7504H59.0002V22.1256H44.2501V14.7504ZM51.6252 143.845C55.67 143.845 58.9492 147.124 58.9492 151.169C58.9492 155.214 55.67 158.493 51.6252 158.493C47.5803 158.493 44.3012 155.214 44.3012 151.169C44.3012 147.124 47.5803 143.845 51.6252 143.845Z" fill="#FF1B46"/>
</svg>
