<svg xmlns="http://www.w3.org/2000/svg" viewBox="0 0 48 48"><defs><style>.cls-1{fill:#7c7d7d;}.cls-2{fill:#919191;}.cls-3{fill:#dad7e5;}.cls-4{fill:#edebf2;}.cls-5{fill:#fc6;}.cls-6{fill:#ffde76;}.cls-7{fill:#9fdbf3;}.cls-8{fill:#b2e5fb;}</style></defs><title>time management production</title><g id="time_management_production" data-name="time management production"><path class="cls-1" d="M36,9V29.06C27.16,28,22.35,39.34,29.35,45a8.88,8.88,0,0,0,3.84,1.82c-.81.26,1,.18-25.19.18a4,4,0,0,1-4-4V9A4,4,0,0,1,7,5.13C7.69,4.93,8,5,13,5v5a1,1,0,0,0,1,1H26a1,1,0,0,0,1-1V5h5A4,4,0,0,1,36,9Z"/><path class="cls-2" d="M36,9V29.06C27,28,22.42,39.39,29.35,45A22.35,22.35,0,0,1,7,22.65V5.13C7.69,4.93,8,5,13,5v5a1,1,0,0,0,1,1H26a1,1,0,0,0,1-1V5h5A4,4,0,0,1,36,9Z"/><path class="cls-3" d="M32,9V29.52A9,9,0,0,0,27.52,43H8V9h5v1a1,1,0,0,0,1,1H26a1,1,0,0,0,1-1V9Z"/><path class="cls-4" d="M32,9V29.52A9,9,0,0,0,26,38a8.6,8.6,0,0,0,.52,3A15.52,15.52,0,0,1,11,25.48V9h2v1a1,1,0,0,0,1,1H26a1,1,0,0,0,1-1V9Z"/><path class="cls-5" d="M27,5v5a1,1,0,0,1-1,1H14a1,1,0,0,1-1-1V5h4V4a3,3,0,0,1,6,0V5Z"/><path class="cls-6" d="M27,5V9H19a4,4,0,0,1-4-4h2V4.17a3,3,0,0,1,5.12-2.29A3.76,3.76,0,0,1,23,5Z"/><path class="cls-7" d="M44,38c0,8.89-11.56,12.36-16.48,5A9,9,0,1,1,44,38Z"/><path class="cls-8" d="M44,38a8.94,8.94,0,0,1-1.72,5.28A9,9,0,0,1,29.69,30.75,9,9,0,0,1,44,38Z"/><path d="M37,28.2V9a5,5,0,0,0-5-5H24a4,4,0,0,0-8,0H8A5,5,0,0,0,3,9V43a5,5,0,0,0,5,5c26.26,0,24.31.07,25.23-.17A10,10,0,0,0,37,28.2ZM35,9V28a10.2,10.2,0,0,0-2,.2V9a1,1,0,0,0-1-1H28V6h4A3,3,0,0,1,35,9ZM14,12H26a2,2,0,0,0,2-2h3V28.84A10,10,0,0,0,25.84,42H9V10h3A2,2,0,0,0,14,12Zm3-6a1,1,0,0,0,1-1V4a2,2,0,0,1,4,0V5a1,1,0,0,0,1,1h3v4H14V6ZM8,46a3,3,0,0,1-3-3V9A3,3,0,0,1,8,6h4V8H8A1,1,0,0,0,7,9V43a1,1,0,0,0,1,1H27a10,10,0,0,0,2,2Zm27,0a8,8,0,1,1,8-8A8,8,0,0,1,35,46Z"/><path d="M13.29,19.71a1,1,0,0,0,1.42,0l4-4a1,1,0,0,0-1.42-1.42L14,17.59l-1.29-1.3a1,1,0,0,0-1.42,1.42Z"/><path d="M13.29,29.71a1,1,0,0,0,1.42,0l4-4a1,1,0,0,0-1.42-1.42L14,27.59l-1.29-1.3a1,1,0,0,0-1.42,1.42Z"/><path d="M13.29,39.71a1,1,0,0,0,1.42,0l4-4a1,1,0,0,0-1.42-1.42L14,37.59l-1.29-1.3a1,1,0,0,0-1.42,1.42Z"/><path d="M21,18h6a1,1,0,0,0,0-2H21A1,1,0,0,0,21,18Z"/><path d="M21,29h6a1,1,0,0,0,0-2H21A1,1,0,0,0,21,29Z"/><path d="M36,37.59V33a1,1,0,0,0-2,0v5c0,.54.15.57,2.29,2.71a1,1,0,0,0,1.42-1.42Z"/></g></svg>
