<svg width="185" height="177" viewBox="0 0 185 177" fill="none" xmlns="http://www.w3.org/2000/svg">
<path fill-rule="evenodd" clip-rule="evenodd" d="M14.31 7.37476H170.065C174.005 7.37476 177.577 8.96894 180.171 11.5474C182.769 14.1311 184.375 17.6939 184.375 21.6245V155.386C184.375 159.312 182.768 162.873 180.169 165.455C177.576 168.031 174.003 169.625 170.065 169.625H14.31C10.3723 169.625 6.79974 168.031 4.20615 165.455C1.60712 162.873 0 159.312 0 155.386V21.6245C0 17.694 1.60656 14.1312 4.20493 11.5476C6.79798 8.96922 10.3711 7.37477 14.31 7.37477V7.37476ZM165.938 154.875H18.4376H14.7501V151.187V40.562V36.8744H18.4376H165.938H169.625V40.562V151.187V154.875H165.938ZM158.527 29.4998C156.481 29.4998 154.821 27.8435 154.821 25.8093C154.821 23.7811 156.481 22.1247 158.527 22.1247C160.572 22.1247 162.232 23.7811 162.232 25.8093C162.232 27.8435 160.572 29.4998 158.527 29.4998ZM143.831 29.4998C141.785 29.4998 140.125 27.8435 140.125 25.8093C140.125 23.7811 141.785 22.1247 143.831 22.1247C145.877 22.1247 147.536 23.7811 147.536 25.8093C147.536 27.8435 145.877 29.4998 143.831 29.4998Z" fill="#FF1B46"/>
<path d="M112.922 78.129L138.734 96.5665L142.929 99.5626L138.734 102.559L112.922 120.996L108.658 115.004L130.276 99.5626L108.658 84.1211L112.922 78.129Z" fill="#FF1B46"/>
<path d="M103.362 58.2173L88.7037 138.516L81.4729 137.22L96.1308 56.9208L103.362 58.2173Z" fill="#FF1B46"/>
<path d="M75.7171 84.1211L54.0993 99.5626L75.7171 115.004L71.4536 120.996L45.6412 102.559L41.4468 99.5626L45.6412 96.5665L71.4536 78.129L75.7171 84.1211Z" fill="#FF1B46"/>
</svg>
